M48
; DRILL file {KiCad 8.0.2} date 2024-05-19T19:48:27-0400
; FORMAT={-:-/ absolute / inch / decimal}
; #@! TF.CreationDate,2024-05-19T19:48:27-04:00
; #@! TF.GenerationSoftware,Kicad,Pcbnew,8.0.2
; #@! TF.FileFunction,Plated,1,2,PTH
FMAT,2
INCH
; #@! TA.AperFunction,Plated,PTH,ViaDrill
T1C0.0118
; #@! TA.AperFunction,Plated,PTH,ComponentDrill
T2C0.0236
; #@! TA.AperFunction,Plated,PTH,ComponentDrill
T3C0.0354
; #@! TA.AperFunction,Plated,PTH,ComponentDrill
T4C0.0394
%
G90
G05
T1
X2.267Y-3.366
X2.286Y-2.964
X2.294Y-3.141
X2.352Y-3.112
X2.371Y-2.965
X2.38Y-3.22
X2.38Y-3.322
X2.403Y-3.182
X2.428Y-3.266
X2.435Y-3.394
X2.4408Y-3.52
X2.45Y-2.6866
X2.461Y-2.821
X2.47Y-3.365
X2.482Y-3.178
X2.484Y-3.551
X2.5Y-2.6
X2.51Y-3.003
X2.548Y-3.263
X2.57Y-3.315
X2.5786Y-3.172
X2.652Y-3.427
X2.658Y-3.11
X2.66Y-2.941
X2.672Y-3.492
X2.71Y-3.52
X2.738Y-3.543
X2.742Y-3.138
X2.754Y-3.32
X2.764Y-3.208
X2.792Y-3.127
X2.82Y-3.23
X2.858Y-3.128
X2.877Y-2.654
X2.899Y-3.631
X2.93Y-3.22
X2.982Y-3.328
X2.984Y-3.607
X3.0Y-2.47
X3.02Y-3.3
X3.06Y-2.78
X3.07Y-3.66
X3.1263Y-3.62
X3.15Y-2.6
X3.19Y-3.07
X3.2Y-2.37
X3.23Y-2.51
X3.249Y-3.772
X3.272Y-3.189
X3.34Y-3.61
X3.421Y-3.211
X3.6179Y-3.4004
T3
X2.865Y-3.4385
X2.955Y-3.4385
X3.045Y-3.4385
X3.135Y-3.4385
T4
X3.2444Y-2.7857
X3.2944Y-2.8723
X3.3444Y-2.9589
X3.3944Y-3.0455
T2
G00X2.8299Y-3.7351
M15
G01X2.8299Y-3.7784
M16
G05
G00X2.8299Y-3.9095
M15
G01X2.8299Y-3.9331
M16
G05
G00X3.1701Y-3.7351
M15
G01X3.1701Y-3.7784
M16
G05
G00X3.1701Y-3.9095
M15
G01X3.1701Y-3.9331
M16
G05
M30
