%TF.GenerationSoftware,KiCad,Pcbnew,8.0.2*%
%TF.CreationDate,2024-05-19T19:48:28-04:00*%
%TF.ProjectId,BaseStation,42617365-5374-4617-9469-6f6e2e6b6963,rev?*%
%TF.SameCoordinates,Original*%
%TF.FileFunction,Paste,Top*%
%TF.FilePolarity,Positive*%
%FSLAX46Y46*%
G04 Gerber Fmt 4.6, Leading zero omitted, Abs format (unit mm)*
G04 Created by KiCad (PCBNEW 8.0.2) date 2024-05-19 19:48:28*
%MOMM*%
%LPD*%
G01*
G04 APERTURE LIST*
G04 Aperture macros list*
%AMRoundRect*
0 Rectangle with rounded corners*
0 $1 Rounding radius*
0 $2 $3 $4 $5 $6 $7 $8 $9 X,Y pos of 4 corners*
0 Add a 4 corners polygon primitive as box body*
4,1,4,$2,$3,$4,$5,$6,$7,$8,$9,$2,$3,0*
0 Add four circle primitives for the rounded corners*
1,1,$1+$1,$2,$3*
1,1,$1+$1,$4,$5*
1,1,$1+$1,$6,$7*
1,1,$1+$1,$8,$9*
0 Add four rect primitives between the rounded corners*
20,1,$1+$1,$2,$3,$4,$5,0*
20,1,$1+$1,$4,$5,$6,$7,0*
20,1,$1+$1,$6,$7,$8,$9,0*
20,1,$1+$1,$8,$9,$2,$3,0*%
G04 Aperture macros list end*
%ADD10R,2.000000X2.400000*%
%ADD11RoundRect,0.135000X-0.185000X0.135000X-0.185000X-0.135000X0.185000X-0.135000X0.185000X0.135000X0*%
%ADD12RoundRect,0.135000X0.185000X-0.135000X0.185000X0.135000X-0.185000X0.135000X-0.185000X-0.135000X0*%
%ADD13RoundRect,0.140000X-0.140000X-0.170000X0.140000X-0.170000X0.140000X0.170000X-0.140000X0.170000X0*%
%ADD14RoundRect,0.200000X-0.200000X-0.275000X0.200000X-0.275000X0.200000X0.275000X-0.200000X0.275000X0*%
%ADD15RoundRect,0.200000X0.200000X0.275000X-0.200000X0.275000X-0.200000X-0.275000X0.200000X-0.275000X0*%
%ADD16RoundRect,0.140000X0.140000X0.170000X-0.140000X0.170000X-0.140000X-0.170000X0.140000X-0.170000X0*%
%ADD17RoundRect,0.225000X0.069856X0.329006X-0.319856X0.104006X-0.069856X-0.329006X0.319856X-0.104006X0*%
%ADD18R,0.600000X1.450000*%
%ADD19R,0.300000X1.450000*%
%ADD20RoundRect,0.218750X-0.218750X-0.256250X0.218750X-0.256250X0.218750X0.256250X-0.218750X0.256250X0*%
%ADD21RoundRect,0.375000X-0.353766X-0.637260X0.728766X-0.012260X0.353766X0.637260X-0.728766X0.012260X0*%
%ADD22RoundRect,0.500000X0.266987X-1.462436X1.133013X-0.962436X-0.266987X1.462436X-1.133013X0.962436X0*%
%ADD23RoundRect,0.150000X0.587500X0.150000X-0.587500X0.150000X-0.587500X-0.150000X0.587500X-0.150000X0*%
%ADD24RoundRect,0.075000X-0.075000X0.662500X-0.075000X-0.662500X0.075000X-0.662500X0.075000X0.662500X0*%
%ADD25RoundRect,0.075000X-0.662500X0.075000X-0.662500X-0.075000X0.662500X-0.075000X0.662500X0.075000X0*%
%ADD26RoundRect,0.200000X-0.275000X0.200000X-0.275000X-0.200000X0.275000X-0.200000X0.275000X0.200000X0*%
%ADD27RoundRect,0.135000X0.135000X0.185000X-0.135000X0.185000X-0.135000X-0.185000X0.135000X-0.185000X0*%
%ADD28R,1.800000X1.100000*%
%ADD29RoundRect,0.112500X0.187500X0.112500X-0.187500X0.112500X-0.187500X-0.112500X0.187500X-0.112500X0*%
%ADD30RoundRect,0.150000X-0.150000X0.587500X-0.150000X-0.587500X0.150000X-0.587500X0.150000X0.587500X0*%
G04 APERTURE END LIST*
D10*
%TO.C,Y2*%
X61904000Y-75184000D03*
X65604000Y-75184000D03*
%TD*%
D11*
%TO.C,R7*%
X83820000Y-92454000D03*
X83820000Y-93474000D03*
%TD*%
D12*
%TO.C,R9*%
X82550000Y-89156000D03*
X82550000Y-88136000D03*
%TD*%
D13*
%TO.C,C7*%
X68862000Y-80822800D03*
X69822000Y-80822800D03*
%TD*%
D14*
%TO.C,R3*%
X57772800Y-77571600D03*
X59422800Y-77571600D03*
%TD*%
D15*
%TO.C,R5*%
X74739000Y-66446400D03*
X73089000Y-66446400D03*
%TD*%
D16*
%TO.C,C8*%
X61592400Y-77927200D03*
X60632400Y-77927200D03*
%TD*%
D17*
%TO.C,C1*%
X90079170Y-87496500D03*
X88736830Y-88271500D03*
%TD*%
D13*
%TO.C,C5*%
X66931600Y-87884000D03*
X67891600Y-87884000D03*
%TD*%
D18*
%TO.C,J1*%
X72950000Y-94507000D03*
X73750000Y-94507000D03*
D19*
X74950000Y-94507000D03*
X75950000Y-94507000D03*
X76450000Y-94507000D03*
X77450000Y-94507000D03*
D18*
X78650000Y-94507000D03*
X79450000Y-94507000D03*
X79450000Y-94507000D03*
X78650000Y-94507000D03*
D19*
X77950000Y-94507000D03*
X76950000Y-94507000D03*
X75450000Y-94507000D03*
X74450000Y-94507000D03*
D18*
X73750000Y-94507000D03*
X72950000Y-94507000D03*
%TD*%
D11*
%TO.C,R8*%
X83820000Y-89406000D03*
X83820000Y-90426000D03*
%TD*%
D20*
%TO.C,D1*%
X75412500Y-80137000D03*
X76987500Y-80137000D03*
%TD*%
D21*
%TO.C,U2*%
X89594020Y-82387142D03*
X90744020Y-84379000D03*
D22*
X96199980Y-81229000D03*
D21*
X91894020Y-86370858D03*
%TD*%
D13*
%TO.C,C3*%
X64290000Y-72644000D03*
X65250000Y-72644000D03*
%TD*%
D15*
%TO.C,R6*%
X77025000Y-81788000D03*
X75375000Y-81788000D03*
%TD*%
D23*
%TO.C,Q1*%
X82217500Y-92390000D03*
X82217500Y-90490000D03*
X80342500Y-91440000D03*
%TD*%
D13*
%TO.C,C9*%
X66017200Y-77927200D03*
X66977200Y-77927200D03*
%TD*%
D24*
%TO.C,U1*%
X65996000Y-79403500D03*
X65496000Y-79403500D03*
X64996000Y-79403500D03*
X64496000Y-79403500D03*
X63996000Y-79403500D03*
X63496000Y-79403500D03*
X62996000Y-79403500D03*
X62496000Y-79403500D03*
X61996000Y-79403500D03*
X61496000Y-79403500D03*
X60996000Y-79403500D03*
X60496000Y-79403500D03*
D25*
X59083500Y-80816000D03*
X59083500Y-81316000D03*
X59083500Y-81816000D03*
X59083500Y-82316000D03*
X59083500Y-82816000D03*
X59083500Y-83316000D03*
X59083500Y-83816000D03*
X59083500Y-84316000D03*
X59083500Y-84816000D03*
X59083500Y-85316000D03*
X59083500Y-85816000D03*
X59083500Y-86316000D03*
D24*
X60496000Y-87728500D03*
X60996000Y-87728500D03*
X61496000Y-87728500D03*
X61996000Y-87728500D03*
X62496000Y-87728500D03*
X62996000Y-87728500D03*
X63496000Y-87728500D03*
X63996000Y-87728500D03*
X64496000Y-87728500D03*
X64996000Y-87728500D03*
X65496000Y-87728500D03*
X65996000Y-87728500D03*
D25*
X67408500Y-86316000D03*
X67408500Y-85816000D03*
X67408500Y-85316000D03*
X67408500Y-84816000D03*
X67408500Y-84316000D03*
X67408500Y-83816000D03*
X67408500Y-83316000D03*
X67408500Y-82816000D03*
X67408500Y-82316000D03*
X67408500Y-81816000D03*
X67408500Y-81316000D03*
X67408500Y-80816000D03*
%TD*%
D17*
%TO.C,C2*%
X88809170Y-85464500D03*
X87466830Y-86239500D03*
%TD*%
D26*
%TO.C,R1*%
X69850000Y-96711000D03*
X69850000Y-98361000D03*
%TD*%
D27*
%TO.C,R10*%
X78234000Y-91948000D03*
X77214000Y-91948000D03*
%TD*%
D26*
%TO.C,R2*%
X82550000Y-96711000D03*
X82550000Y-98361000D03*
%TD*%
D16*
%TO.C,C4*%
X63218000Y-72644000D03*
X62258000Y-72644000D03*
%TD*%
D28*
%TO.C,SW1*%
X73100000Y-60888000D03*
X79300000Y-60888000D03*
X73100000Y-64588000D03*
X79300000Y-64588000D03*
%TD*%
D14*
%TO.C,R4*%
X55309000Y-84328000D03*
X56959000Y-84328000D03*
%TD*%
D29*
%TO.C,D2*%
X78774000Y-90424000D03*
X76674000Y-90424000D03*
%TD*%
D16*
%TO.C,C6*%
X58928000Y-87274400D03*
X57968000Y-87274400D03*
%TD*%
D30*
%TO.C,Q3*%
X87056000Y-90502500D03*
X85156000Y-90502500D03*
X86106000Y-92377500D03*
%TD*%
M02*
