%TF.GenerationSoftware,KiCad,Pcbnew,8.0.2*%
%TF.CreationDate,2024-05-19T19:48:28-04:00*%
%TF.ProjectId,BaseStation,42617365-5374-4617-9469-6f6e2e6b6963,rev?*%
%TF.SameCoordinates,Original*%
%TF.FileFunction,Legend,Top*%
%TF.FilePolarity,Positive*%
%FSLAX46Y46*%
G04 Gerber Fmt 4.6, Leading zero omitted, Abs format (unit mm)*
G04 Created by KiCad (PCBNEW 8.0.2) date 2024-05-19 19:48:28*
%MOMM*%
%LPD*%
G01*
G04 APERTURE LIST*
%ADD10C,0.100000*%
%ADD11C,0.150000*%
%ADD12C,0.120000*%
G04 APERTURE END LIST*
D10*
X60410239Y-85835777D02*
X60814300Y-86239838D01*
X60814300Y-86239838D02*
X60868175Y-86347587D01*
X60868175Y-86347587D02*
X60868175Y-86455337D01*
X60868175Y-86455337D02*
X60814300Y-86563087D01*
X60814300Y-86563087D02*
X60760425Y-86616961D01*
X61514673Y-85862714D02*
X61245299Y-86132088D01*
X61245299Y-86132088D02*
X60679613Y-85566403D01*
X61972609Y-85297029D02*
X61972609Y-85350903D01*
X61972609Y-85350903D02*
X61918734Y-85458653D01*
X61918734Y-85458653D02*
X61864859Y-85512528D01*
X61864859Y-85512528D02*
X61757109Y-85566403D01*
X61757109Y-85566403D02*
X61649360Y-85566403D01*
X61649360Y-85566403D02*
X61568548Y-85539465D01*
X61568548Y-85539465D02*
X61433861Y-85458653D01*
X61433861Y-85458653D02*
X61353048Y-85377841D01*
X61353048Y-85377841D02*
X61272236Y-85243154D01*
X61272236Y-85243154D02*
X61245299Y-85162342D01*
X61245299Y-85162342D02*
X61245299Y-85054592D01*
X61245299Y-85054592D02*
X61299174Y-84946842D01*
X61299174Y-84946842D02*
X61353048Y-84892968D01*
X61353048Y-84892968D02*
X61460798Y-84839093D01*
X61460798Y-84839093D02*
X61514673Y-84839093D01*
X61864859Y-84381157D02*
X62268920Y-84785218D01*
X62268920Y-84785218D02*
X62322795Y-84892968D01*
X62322795Y-84892968D02*
X62322795Y-85000717D01*
X62322795Y-85000717D02*
X62268920Y-85108467D01*
X62268920Y-85108467D02*
X62215045Y-85162342D01*
X62969293Y-84408094D02*
X62699919Y-84677468D01*
X62699919Y-84677468D02*
X62134233Y-84111783D01*
X63427228Y-83842409D02*
X63427228Y-83896284D01*
X63427228Y-83896284D02*
X63373354Y-84004033D01*
X63373354Y-84004033D02*
X63319479Y-84057908D01*
X63319479Y-84057908D02*
X63211729Y-84111783D01*
X63211729Y-84111783D02*
X63103980Y-84111783D01*
X63103980Y-84111783D02*
X63023167Y-84084845D01*
X63023167Y-84084845D02*
X62888480Y-84004033D01*
X62888480Y-84004033D02*
X62807668Y-83923221D01*
X62807668Y-83923221D02*
X62726856Y-83788534D01*
X62726856Y-83788534D02*
X62699919Y-83707722D01*
X62699919Y-83707722D02*
X62699919Y-83599972D01*
X62699919Y-83599972D02*
X62753793Y-83492223D01*
X62753793Y-83492223D02*
X62807668Y-83438348D01*
X62807668Y-83438348D02*
X62915418Y-83384473D01*
X62915418Y-83384473D02*
X62969293Y-83384473D01*
X63319479Y-82926537D02*
X63723540Y-83330598D01*
X63723540Y-83330598D02*
X63777415Y-83438348D01*
X63777415Y-83438348D02*
X63777415Y-83546097D01*
X63777415Y-83546097D02*
X63723540Y-83653847D01*
X63723540Y-83653847D02*
X63669665Y-83707722D01*
X64423912Y-82953474D02*
X64154538Y-83222848D01*
X64154538Y-83222848D02*
X63588853Y-82657163D01*
X64881848Y-82387789D02*
X64881848Y-82441664D01*
X64881848Y-82441664D02*
X64827973Y-82549413D01*
X64827973Y-82549413D02*
X64774099Y-82603288D01*
X64774099Y-82603288D02*
X64666349Y-82657163D01*
X64666349Y-82657163D02*
X64558599Y-82657163D01*
X64558599Y-82657163D02*
X64477787Y-82630226D01*
X64477787Y-82630226D02*
X64343100Y-82549413D01*
X64343100Y-82549413D02*
X64262288Y-82468601D01*
X64262288Y-82468601D02*
X64181476Y-82333914D01*
X64181476Y-82333914D02*
X64154538Y-82253102D01*
X64154538Y-82253102D02*
X64154538Y-82145352D01*
X64154538Y-82145352D02*
X64208413Y-82037603D01*
X64208413Y-82037603D02*
X64262288Y-81983728D01*
X64262288Y-81983728D02*
X64370038Y-81929853D01*
X64370038Y-81929853D02*
X64423912Y-81929853D01*
X64774099Y-81471917D02*
X65178160Y-81875978D01*
X65178160Y-81875978D02*
X65232034Y-81983728D01*
X65232034Y-81983728D02*
X65232034Y-82091478D01*
X65232034Y-82091478D02*
X65178160Y-82199227D01*
X65178160Y-82199227D02*
X65124285Y-82253102D01*
X65878532Y-81498855D02*
X65609158Y-81768229D01*
X65609158Y-81768229D02*
X65043473Y-81202543D01*
X66336468Y-80933169D02*
X66336468Y-80987044D01*
X66336468Y-80987044D02*
X66282593Y-81094794D01*
X66282593Y-81094794D02*
X66228718Y-81148669D01*
X66228718Y-81148669D02*
X66120969Y-81202543D01*
X66120969Y-81202543D02*
X66013219Y-81202543D01*
X66013219Y-81202543D02*
X65932407Y-81175606D01*
X65932407Y-81175606D02*
X65797720Y-81094794D01*
X65797720Y-81094794D02*
X65716908Y-81013982D01*
X65716908Y-81013982D02*
X65636095Y-80879295D01*
X65636095Y-80879295D02*
X65609158Y-80798482D01*
X65609158Y-80798482D02*
X65609158Y-80690733D01*
X65609158Y-80690733D02*
X65663033Y-80582983D01*
X65663033Y-80582983D02*
X65716908Y-80529108D01*
X65716908Y-80529108D02*
X65824657Y-80475233D01*
X65824657Y-80475233D02*
X65878532Y-80475233D01*
X66547692Y-63345333D02*
X66452454Y-63297714D01*
X66452454Y-63297714D02*
X66309597Y-63297714D01*
X66309597Y-63297714D02*
X66166740Y-63345333D01*
X66166740Y-63345333D02*
X66071502Y-63440571D01*
X66071502Y-63440571D02*
X66023883Y-63535809D01*
X66023883Y-63535809D02*
X65976264Y-63726285D01*
X65976264Y-63726285D02*
X65976264Y-63869142D01*
X65976264Y-63869142D02*
X66023883Y-64059618D01*
X66023883Y-64059618D02*
X66071502Y-64154856D01*
X66071502Y-64154856D02*
X66166740Y-64250095D01*
X66166740Y-64250095D02*
X66309597Y-64297714D01*
X66309597Y-64297714D02*
X66404835Y-64297714D01*
X66404835Y-64297714D02*
X66547692Y-64250095D01*
X66547692Y-64250095D02*
X66595311Y-64202475D01*
X66595311Y-64202475D02*
X66595311Y-63869142D01*
X66595311Y-63869142D02*
X66404835Y-63869142D01*
X67023883Y-64297714D02*
X67023883Y-63297714D01*
X67023883Y-63297714D02*
X67595311Y-64297714D01*
X67595311Y-64297714D02*
X67595311Y-63297714D01*
X68071502Y-64297714D02*
X68071502Y-63297714D01*
X68071502Y-63297714D02*
X68309597Y-63297714D01*
X68309597Y-63297714D02*
X68452454Y-63345333D01*
X68452454Y-63345333D02*
X68547692Y-63440571D01*
X68547692Y-63440571D02*
X68595311Y-63535809D01*
X68595311Y-63535809D02*
X68642930Y-63726285D01*
X68642930Y-63726285D02*
X68642930Y-63869142D01*
X68642930Y-63869142D02*
X68595311Y-64059618D01*
X68595311Y-64059618D02*
X68547692Y-64154856D01*
X68547692Y-64154856D02*
X68452454Y-64250095D01*
X68452454Y-64250095D02*
X68309597Y-64297714D01*
X68309597Y-64297714D02*
X68071502Y-64297714D01*
X62213883Y-70515875D02*
X62975788Y-70515875D01*
X62594835Y-70896828D02*
X62594835Y-70134923D01*
X63356740Y-69896828D02*
X63975787Y-69896828D01*
X63975787Y-69896828D02*
X63642454Y-70277780D01*
X63642454Y-70277780D02*
X63785311Y-70277780D01*
X63785311Y-70277780D02*
X63880549Y-70325399D01*
X63880549Y-70325399D02*
X63928168Y-70373018D01*
X63928168Y-70373018D02*
X63975787Y-70468256D01*
X63975787Y-70468256D02*
X63975787Y-70706351D01*
X63975787Y-70706351D02*
X63928168Y-70801589D01*
X63928168Y-70801589D02*
X63880549Y-70849209D01*
X63880549Y-70849209D02*
X63785311Y-70896828D01*
X63785311Y-70896828D02*
X63499597Y-70896828D01*
X63499597Y-70896828D02*
X63404359Y-70849209D01*
X63404359Y-70849209D02*
X63356740Y-70801589D01*
X64309121Y-70230161D02*
X64547216Y-70896828D01*
X64547216Y-70896828D02*
X64785311Y-70230161D01*
X65071026Y-69896828D02*
X65690073Y-69896828D01*
X65690073Y-69896828D02*
X65356740Y-70277780D01*
X65356740Y-70277780D02*
X65499597Y-70277780D01*
X65499597Y-70277780D02*
X65594835Y-70325399D01*
X65594835Y-70325399D02*
X65642454Y-70373018D01*
X65642454Y-70373018D02*
X65690073Y-70468256D01*
X65690073Y-70468256D02*
X65690073Y-70706351D01*
X65690073Y-70706351D02*
X65642454Y-70801589D01*
X65642454Y-70801589D02*
X65594835Y-70849209D01*
X65594835Y-70849209D02*
X65499597Y-70896828D01*
X65499597Y-70896828D02*
X65213883Y-70896828D01*
X65213883Y-70896828D02*
X65118645Y-70849209D01*
X65118645Y-70849209D02*
X65071026Y-70801589D01*
X63483883Y-68697124D02*
X63483883Y-67697124D01*
X63483883Y-67697124D02*
X63721978Y-67697124D01*
X63721978Y-67697124D02*
X63864835Y-67744743D01*
X63864835Y-67744743D02*
X63960073Y-67839981D01*
X63960073Y-67839981D02*
X64007692Y-67935219D01*
X64007692Y-67935219D02*
X64055311Y-68125695D01*
X64055311Y-68125695D02*
X64055311Y-68268552D01*
X64055311Y-68268552D02*
X64007692Y-68459028D01*
X64007692Y-68459028D02*
X63960073Y-68554266D01*
X63960073Y-68554266D02*
X63864835Y-68649505D01*
X63864835Y-68649505D02*
X63721978Y-68697124D01*
X63721978Y-68697124D02*
X63483883Y-68697124D01*
X64483883Y-68697124D02*
X64483883Y-67697124D01*
X65150549Y-67697124D02*
X65341025Y-67697124D01*
X65341025Y-67697124D02*
X65436263Y-67744743D01*
X65436263Y-67744743D02*
X65531501Y-67839981D01*
X65531501Y-67839981D02*
X65579120Y-68030457D01*
X65579120Y-68030457D02*
X65579120Y-68363790D01*
X65579120Y-68363790D02*
X65531501Y-68554266D01*
X65531501Y-68554266D02*
X65436263Y-68649505D01*
X65436263Y-68649505D02*
X65341025Y-68697124D01*
X65341025Y-68697124D02*
X65150549Y-68697124D01*
X65150549Y-68697124D02*
X65055311Y-68649505D01*
X65055311Y-68649505D02*
X64960073Y-68554266D01*
X64960073Y-68554266D02*
X64912454Y-68363790D01*
X64912454Y-68363790D02*
X64912454Y-68030457D01*
X64912454Y-68030457D02*
X64960073Y-67839981D01*
X64960073Y-67839981D02*
X65055311Y-67744743D01*
X65055311Y-67744743D02*
X65150549Y-67697124D01*
X65325311Y-66402180D02*
X65277692Y-66449800D01*
X65277692Y-66449800D02*
X65134835Y-66497419D01*
X65134835Y-66497419D02*
X65039597Y-66497419D01*
X65039597Y-66497419D02*
X64896740Y-66449800D01*
X64896740Y-66449800D02*
X64801502Y-66354561D01*
X64801502Y-66354561D02*
X64753883Y-66259323D01*
X64753883Y-66259323D02*
X64706264Y-66068847D01*
X64706264Y-66068847D02*
X64706264Y-65925990D01*
X64706264Y-65925990D02*
X64753883Y-65735514D01*
X64753883Y-65735514D02*
X64801502Y-65640276D01*
X64801502Y-65640276D02*
X64896740Y-65545038D01*
X64896740Y-65545038D02*
X65039597Y-65497419D01*
X65039597Y-65497419D02*
X65134835Y-65497419D01*
X65134835Y-65497419D02*
X65277692Y-65545038D01*
X65277692Y-65545038D02*
X65325311Y-65592657D01*
X66230073Y-66497419D02*
X65753883Y-66497419D01*
X65753883Y-66497419D02*
X65753883Y-65497419D01*
X66563407Y-66497419D02*
X66563407Y-65497419D01*
X67134835Y-66497419D02*
X66706264Y-65925990D01*
X67134835Y-65497419D02*
X66563407Y-66068847D01*
G36*
X59965017Y-97867537D02*
G01*
X61737243Y-97867537D01*
X61737243Y-98261745D01*
X59965017Y-98261745D01*
X59965017Y-97867537D01*
G37*
G36*
X60359225Y-99049184D02*
G01*
X60359225Y-99443392D01*
X61737243Y-99443392D01*
X61737243Y-99837600D01*
X59965017Y-99837600D01*
X59965017Y-98655953D01*
X61540383Y-98655953D01*
X61540383Y-99049184D01*
X60359225Y-99049184D01*
G37*
G36*
X62206189Y-97867537D02*
G01*
X63978415Y-97867537D01*
X63978415Y-98261745D01*
X62206189Y-98261745D01*
X62206189Y-97867537D01*
G37*
G36*
X62600397Y-99049184D02*
G01*
X62600397Y-99443392D01*
X63978415Y-99443392D01*
X63978415Y-99837600D01*
X62206189Y-99837600D01*
X62206189Y-98655953D01*
X63781556Y-98655953D01*
X63781556Y-99049184D01*
X62600397Y-99049184D01*
G37*
G36*
X66476531Y-99837600D02*
G01*
X66121891Y-99837600D01*
X64919727Y-99383308D01*
X64683300Y-99837600D01*
X64241221Y-99837600D01*
X64651816Y-99035506D01*
X65100956Y-99035506D01*
X65755038Y-99283168D01*
X65367669Y-98513315D01*
X65100956Y-99035506D01*
X64651816Y-99035506D01*
X65249455Y-97868025D01*
X65491256Y-97868025D01*
X66476531Y-99837600D01*
G37*
G36*
X67201933Y-98491333D02*
G01*
X67201933Y-99837600D01*
X66807725Y-99837600D01*
X66807725Y-97867537D01*
X67201933Y-97867537D01*
X68285882Y-99212338D01*
X68285882Y-97867537D01*
X68680090Y-97867537D01*
X68680090Y-99837600D01*
X68285882Y-99837600D01*
X67201933Y-98491333D01*
G37*
D11*
X75866666Y-98006819D02*
X75866666Y-98721104D01*
X75866666Y-98721104D02*
X75819047Y-98863961D01*
X75819047Y-98863961D02*
X75723809Y-98959200D01*
X75723809Y-98959200D02*
X75580952Y-99006819D01*
X75580952Y-99006819D02*
X75485714Y-99006819D01*
X76866666Y-99006819D02*
X76295238Y-99006819D01*
X76580952Y-99006819D02*
X76580952Y-98006819D01*
X76580952Y-98006819D02*
X76485714Y-98149676D01*
X76485714Y-98149676D02*
X76390476Y-98244914D01*
X76390476Y-98244914D02*
X76295238Y-98292533D01*
X93563188Y-81871580D02*
X92862119Y-82276342D01*
X92862119Y-82276342D02*
X92803450Y-82365200D01*
X92803450Y-82365200D02*
X92786021Y-82430249D01*
X92786021Y-82430249D02*
X92792400Y-82536537D01*
X92792400Y-82536537D02*
X92887638Y-82701495D01*
X92887638Y-82701495D02*
X92976497Y-82760164D01*
X92976497Y-82760164D02*
X93041546Y-82777593D01*
X93041546Y-82777593D02*
X93147834Y-82771214D01*
X93147834Y-82771214D02*
X93848902Y-82366452D01*
X93980709Y-82785225D02*
X94045758Y-82802654D01*
X94045758Y-82802654D02*
X94134616Y-82861323D01*
X94134616Y-82861323D02*
X94253664Y-83067520D01*
X94253664Y-83067520D02*
X94260044Y-83173808D01*
X94260044Y-83173808D02*
X94242614Y-83238857D01*
X94242614Y-83238857D02*
X94183945Y-83327715D01*
X94183945Y-83327715D02*
X94101466Y-83375334D01*
X94101466Y-83375334D02*
X93953939Y-83405524D01*
X93953939Y-83405524D02*
X93173353Y-83196366D01*
X93173353Y-83196366D02*
X93482877Y-83732477D01*
D12*
%TO.C,J8*%
X64450000Y-66040000D02*
G75*
G02*
X62550000Y-66040000I-950000J0D01*
G01*
X62550000Y-66040000D02*
G75*
G02*
X64450000Y-66040000I950000J0D01*
G01*
%TO.C,J2*%
X80729000Y-87337219D02*
G75*
G02*
X78529000Y-87337219I-1100000J0D01*
G01*
X78529000Y-87337219D02*
G75*
G02*
X80729000Y-87337219I1100000J0D01*
G01*
%TO.C,Y2*%
X60704000Y-73384000D02*
X60704000Y-76984000D01*
X60704000Y-76984000D02*
X66454000Y-76984000D01*
X66454000Y-73384000D02*
X60704000Y-73384000D01*
%TO.C,R7*%
X83440000Y-92810359D02*
X83440000Y-93117641D01*
X84200000Y-92810359D02*
X84200000Y-93117641D01*
%TO.C,R9*%
X82170000Y-88799641D02*
X82170000Y-88492359D01*
X82930000Y-88799641D02*
X82930000Y-88492359D01*
%TO.C,C7*%
X69234164Y-80462800D02*
X69449836Y-80462800D01*
X69234164Y-81182800D02*
X69449836Y-81182800D01*
%TO.C,R3*%
X58360542Y-77049100D02*
X58835058Y-77049100D01*
X58360542Y-78094100D02*
X58835058Y-78094100D01*
%TO.C,R5*%
X74151257Y-65923900D02*
X73676743Y-65923900D01*
X74151257Y-66968900D02*
X73676743Y-66968900D01*
%TO.C,C8*%
X61220236Y-77567200D02*
X61004564Y-77567200D01*
X61220236Y-78287200D02*
X61004564Y-78287200D01*
%TO.C,J5*%
X73871000Y-87337219D02*
G75*
G02*
X71671000Y-87337219I-1100000J0D01*
G01*
X71671000Y-87337219D02*
G75*
G02*
X73871000Y-87337219I1100000J0D01*
G01*
%TO.C,J4*%
X76157000Y-87337219D02*
G75*
G02*
X73957000Y-87337219I-1100000J0D01*
G01*
X73957000Y-87337219D02*
G75*
G02*
X76157000Y-87337219I1100000J0D01*
G01*
%TO.C,J6*%
X61910000Y-70439409D02*
G75*
G02*
X60010000Y-70439409I-950000J0D01*
G01*
X60010000Y-70439409D02*
G75*
G02*
X61910000Y-70439409I950000J0D01*
G01*
%TO.C,C1*%
X89274746Y-87372037D02*
X89031254Y-87512617D01*
X89784746Y-88255383D02*
X89541254Y-88395963D01*
%TO.C,C5*%
X67303764Y-87524000D02*
X67519436Y-87524000D01*
X67303764Y-88244000D02*
X67519436Y-88244000D01*
%TO.C,J1*%
X71500000Y-96652000D02*
X71500000Y-98652000D01*
X71500000Y-100552000D02*
X71500000Y-102452000D01*
X71500000Y-102452000D02*
X80900000Y-102452000D01*
X80900000Y-96652000D02*
X80900000Y-98652000D01*
X80900000Y-100552000D02*
X80900000Y-102452000D01*
%TO.C,R8*%
X83440000Y-89762359D02*
X83440000Y-90069641D01*
X84200000Y-89762359D02*
X84200000Y-90069641D01*
%TO.C,J9*%
X65720000Y-63840295D02*
G75*
G02*
X63820000Y-63840295I-950000J0D01*
G01*
X63820000Y-63840295D02*
G75*
G02*
X65720000Y-63840295I950000J0D01*
G01*
%TO.C,D1*%
X74715000Y-79402000D02*
X74715000Y-80872000D01*
X74715000Y-80872000D02*
X77000000Y-80872000D01*
X77000000Y-79402000D02*
X74715000Y-79402000D01*
%TO.C,U2*%
X90164853Y-80775853D02*
X93421109Y-78895853D01*
X93421109Y-78895853D02*
X94051109Y-79987045D01*
X93574853Y-86682147D02*
X96831109Y-84802147D01*
X96831109Y-84802147D02*
X96201109Y-83710955D01*
X89106340Y-81502456D02*
X88733494Y-81336668D01*
X89149187Y-81096668D01*
X89106340Y-81502456D01*
G36*
X89106340Y-81502456D02*
G01*
X88733494Y-81336668D01*
X89149187Y-81096668D01*
X89106340Y-81502456D01*
G37*
%TO.C,C3*%
X64662164Y-72284000D02*
X64877836Y-72284000D01*
X64662164Y-73004000D02*
X64877836Y-73004000D01*
%TO.C,R6*%
X76437258Y-81265500D02*
X75962742Y-81265500D01*
X76437258Y-82310500D02*
X75962742Y-82310500D01*
%TO.C,Q1*%
X81280000Y-89880000D02*
X80630000Y-89880000D01*
X81280000Y-89880000D02*
X81930000Y-89880000D01*
X81280000Y-93000000D02*
X80630000Y-93000000D01*
X81280000Y-93000000D02*
X81930000Y-93000000D01*
X82682500Y-93280000D02*
X82202500Y-93280000D01*
X82442500Y-92950000D01*
X82682500Y-93280000D01*
G36*
X82682500Y-93280000D02*
G01*
X82202500Y-93280000D01*
X82442500Y-92950000D01*
X82682500Y-93280000D01*
G37*
%TO.C,C9*%
X66389364Y-77567200D02*
X66605036Y-77567200D01*
X66389364Y-78287200D02*
X66605036Y-78287200D01*
%TO.C,U1*%
X59636000Y-79956000D02*
X60086000Y-79956000D01*
X59636000Y-80406000D02*
X59636000Y-79956000D01*
X59636000Y-86726000D02*
X59636000Y-87176000D01*
X59636000Y-87176000D02*
X60086000Y-87176000D01*
X66856000Y-79956000D02*
X66406000Y-79956000D01*
X66856000Y-80406000D02*
X66856000Y-79956000D01*
X66856000Y-86726000D02*
X66856000Y-87176000D01*
X66856000Y-87176000D02*
X66406000Y-87176000D01*
X66876000Y-79706000D02*
X66406000Y-79366000D01*
X66876000Y-79026000D01*
X66876000Y-79706000D01*
G36*
X66876000Y-79706000D02*
G01*
X66406000Y-79366000D01*
X66876000Y-79026000D01*
X66876000Y-79706000D01*
G37*
%TO.C,C2*%
X88004746Y-85340037D02*
X87761254Y-85480617D01*
X88514746Y-86223383D02*
X88271254Y-86363963D01*
%TO.C,R1*%
X69327500Y-97298742D02*
X69327500Y-97773258D01*
X70372500Y-97298742D02*
X70372500Y-97773258D01*
%TO.C,R10*%
X77877641Y-91568000D02*
X77570359Y-91568000D01*
X77877641Y-92328000D02*
X77570359Y-92328000D01*
%TO.C,J3*%
X78443000Y-87337219D02*
G75*
G02*
X76243000Y-87337219I-1100000J0D01*
G01*
X76243000Y-87337219D02*
G75*
G02*
X78443000Y-87337219I1100000J0D01*
G01*
%TO.C,R2*%
X82027500Y-97298742D02*
X82027500Y-97773258D01*
X83072500Y-97298742D02*
X83072500Y-97773258D01*
%TO.C,C4*%
X62845836Y-72284000D02*
X62630164Y-72284000D01*
X62845836Y-73004000D02*
X62630164Y-73004000D01*
%TO.C,SW1*%
X73480000Y-63778000D02*
X73480000Y-61698000D01*
X74750000Y-60018000D02*
X74260000Y-60508000D01*
X74750000Y-60018000D02*
X77650000Y-60018000D01*
X74750000Y-65458000D02*
X74260000Y-64968000D01*
X74750000Y-65458000D02*
X77650000Y-65458000D01*
X77650000Y-60018000D02*
X78140000Y-60508000D01*
X77650000Y-65458000D02*
X78140000Y-64968000D01*
X78920000Y-63778000D02*
X78920000Y-61698000D01*
%TO.C,R4*%
X55896742Y-83805500D02*
X56371258Y-83805500D01*
X55896742Y-84850500D02*
X56371258Y-84850500D01*
%TO.C,D2*%
X79334000Y-89574000D02*
X76674000Y-89574000D01*
X79334000Y-91274000D02*
X76674000Y-91274000D01*
X79334000Y-91274000D02*
X79334000Y-89574000D01*
%TO.C,C6*%
X58555836Y-86914400D02*
X58340164Y-86914400D01*
X58555836Y-87634400D02*
X58340164Y-87634400D01*
%TO.C,Q3*%
X84546000Y-91440000D02*
X84546000Y-90790000D01*
X84546000Y-91440000D02*
X84546000Y-92090000D01*
X87666000Y-91440000D02*
X87666000Y-90790000D01*
X87666000Y-91440000D02*
X87666000Y-92090000D01*
X87946000Y-90517500D02*
X87616000Y-90277500D01*
X87946000Y-90037500D01*
X87946000Y-90517500D01*
G36*
X87946000Y-90517500D02*
G01*
X87616000Y-90277500D01*
X87946000Y-90037500D01*
X87946000Y-90517500D01*
G37*
%TO.C,J7*%
X63180000Y-68239705D02*
G75*
G02*
X61280000Y-68239705I-950000J0D01*
G01*
X61280000Y-68239705D02*
G75*
G02*
X63180000Y-68239705I950000J0D01*
G01*
%TO.C,J10*%
X80672009Y-70291545D02*
X81771861Y-69656545D01*
X81307009Y-71391397D02*
X80672009Y-70291545D01*
X82988938Y-68884583D02*
X88128938Y-77787324D01*
X83178149Y-69872307D02*
X83463938Y-69707307D01*
X83558149Y-70530487D02*
X83843938Y-70365488D01*
X84288938Y-71136249D02*
X86592565Y-69806249D01*
X84390064Y-72105547D02*
X84733938Y-71907012D01*
X84770064Y-72763727D02*
X85113938Y-72565191D01*
X85292565Y-67554583D02*
X82988938Y-68884583D01*
X85558938Y-73335954D02*
X87862565Y-72005954D01*
X85660064Y-74305252D02*
X86003938Y-74106716D01*
X85767565Y-68377307D02*
X90963718Y-65377307D01*
X85797565Y-68429269D02*
X90993718Y-65429269D01*
X85857565Y-68533192D02*
X91053718Y-65533192D01*
X85917565Y-68637115D02*
X91113718Y-65637115D01*
X85977565Y-68741038D02*
X91173718Y-65741038D01*
X86037565Y-68844961D02*
X91233718Y-65844961D01*
X86040064Y-74963431D02*
X86383938Y-74764895D01*
X86097565Y-68948884D02*
X91293718Y-65948884D01*
X86828938Y-75535658D02*
X89132565Y-74205658D01*
X86930064Y-76504956D02*
X87273938Y-76306421D01*
X87037565Y-70577012D02*
X92233718Y-67577012D01*
X87310064Y-77163136D02*
X87653938Y-76964600D01*
X88128938Y-77787324D02*
X90432565Y-76457324D01*
X88307565Y-72776716D02*
X93503718Y-69776716D01*
X89577565Y-74976421D02*
X94773718Y-71976421D01*
X90432565Y-76457324D02*
X85292565Y-67554583D01*
X90963718Y-65377307D02*
X91343718Y-66035488D01*
X91343718Y-66035488D02*
X86147565Y-69035487D01*
X92233718Y-67577012D02*
X92613718Y-68235191D01*
X92613718Y-68235191D02*
X87417565Y-71235191D01*
X93503718Y-69776716D02*
X93883718Y-70434895D01*
X93883718Y-70434895D02*
X88687565Y-73434896D01*
X94773718Y-71976421D02*
X95153718Y-72634600D01*
X95153718Y-72634600D02*
X89957565Y-75634600D01*
%TD*%
M02*
