%TF.GenerationSoftware,KiCad,Pcbnew,8.0.2*%
%TF.CreationDate,2024-05-19T19:48:28-04:00*%
%TF.ProjectId,BaseStation,42617365-5374-4617-9469-6f6e2e6b6963,rev?*%
%TF.SameCoordinates,Original*%
%TF.FileFunction,Copper,L1,Top*%
%TF.FilePolarity,Positive*%
%FSLAX46Y46*%
G04 Gerber Fmt 4.6, Leading zero omitted, Abs format (unit mm)*
G04 Created by KiCad (PCBNEW 8.0.2) date 2024-05-19 19:48:28*
%MOMM*%
%LPD*%
G01*
G04 APERTURE LIST*
G04 Aperture macros list*
%AMRoundRect*
0 Rectangle with rounded corners*
0 $1 Rounding radius*
0 $2 $3 $4 $5 $6 $7 $8 $9 X,Y pos of 4 corners*
0 Add a 4 corners polygon primitive as box body*
4,1,4,$2,$3,$4,$5,$6,$7,$8,$9,$2,$3,0*
0 Add four circle primitives for the rounded corners*
1,1,$1+$1,$2,$3*
1,1,$1+$1,$4,$5*
1,1,$1+$1,$6,$7*
1,1,$1+$1,$8,$9*
0 Add four rect primitives between the rounded corners*
20,1,$1+$1,$2,$3,$4,$5,0*
20,1,$1+$1,$4,$5,$6,$7,0*
20,1,$1+$1,$6,$7,$8,$9,0*
20,1,$1+$1,$8,$9,$2,$3,0*%
%AMHorizOval*
0 Thick line with rounded ends*
0 $1 width*
0 $2 $3 position (X,Y) of the first rounded end (center of the circle)*
0 $4 $5 position (X,Y) of the second rounded end (center of the circle)*
0 Add line between two ends*
20,1,$1,$2,$3,$4,$5,0*
0 Add two circle primitives to create the rounded ends*
1,1,$1,$2,$3*
1,1,$1,$4,$5*%
%AMRotRect*
0 Rectangle, with rotation*
0 The origin of the aperture is its center*
0 $1 length*
0 $2 width*
0 $3 Rotation angle, in degrees counterclockwise*
0 Add horizontal line*
21,1,$1,$2,0,0,$3*%
G04 Aperture macros list end*
%TA.AperFunction,Conductor*%
%ADD10C,0.500000*%
%TD*%
%TA.AperFunction,Conductor*%
%ADD11C,0.300000*%
%TD*%
%ADD12C,0.300000*%
%TA.AperFunction,NonConductor*%
%ADD13C,0.300000*%
%TD*%
%TA.AperFunction,SMDPad,CuDef*%
%ADD14C,1.500000*%
%TD*%
%TA.AperFunction,ComponentPad*%
%ADD15C,1.800000*%
%TD*%
%TA.AperFunction,SMDPad,CuDef*%
%ADD16R,2.000000X2.400000*%
%TD*%
%TA.AperFunction,SMDPad,CuDef*%
%ADD17RoundRect,0.135000X-0.185000X0.135000X-0.185000X-0.135000X0.185000X-0.135000X0.185000X0.135000X0*%
%TD*%
%TA.AperFunction,SMDPad,CuDef*%
%ADD18RoundRect,0.135000X0.185000X-0.135000X0.185000X0.135000X-0.185000X0.135000X-0.185000X-0.135000X0*%
%TD*%
%TA.AperFunction,SMDPad,CuDef*%
%ADD19RoundRect,0.140000X-0.140000X-0.170000X0.140000X-0.170000X0.140000X0.170000X-0.140000X0.170000X0*%
%TD*%
%TA.AperFunction,SMDPad,CuDef*%
%ADD20RoundRect,0.200000X-0.200000X-0.275000X0.200000X-0.275000X0.200000X0.275000X-0.200000X0.275000X0*%
%TD*%
%TA.AperFunction,SMDPad,CuDef*%
%ADD21RoundRect,0.200000X0.200000X0.275000X-0.200000X0.275000X-0.200000X-0.275000X0.200000X-0.275000X0*%
%TD*%
%TA.AperFunction,SMDPad,CuDef*%
%ADD22RoundRect,0.140000X0.140000X0.170000X-0.140000X0.170000X-0.140000X-0.170000X0.140000X-0.170000X0*%
%TD*%
%TA.AperFunction,SMDPad,CuDef*%
%ADD23RoundRect,0.225000X0.069856X0.329006X-0.319856X0.104006X-0.069856X-0.329006X0.319856X-0.104006X0*%
%TD*%
%TA.AperFunction,SMDPad,CuDef*%
%ADD24R,0.600000X1.450000*%
%TD*%
%TA.AperFunction,SMDPad,CuDef*%
%ADD25R,0.300000X1.450000*%
%TD*%
%TA.AperFunction,ComponentPad*%
%ADD26O,1.000000X2.100000*%
%TD*%
%TA.AperFunction,ComponentPad*%
%ADD27O,1.000000X1.600000*%
%TD*%
%TA.AperFunction,SMDPad,CuDef*%
%ADD28RoundRect,0.218750X-0.218750X-0.256250X0.218750X-0.256250X0.218750X0.256250X-0.218750X0.256250X0*%
%TD*%
%TA.AperFunction,SMDPad,CuDef*%
%ADD29RoundRect,0.375000X-0.353766X-0.637260X0.728766X-0.012260X0.353766X0.637260X-0.728766X0.012260X0*%
%TD*%
%TA.AperFunction,SMDPad,CuDef*%
%ADD30RoundRect,0.500000X0.266987X-1.462436X1.133013X-0.962436X-0.266987X1.462436X-1.133013X0.962436X0*%
%TD*%
%TA.AperFunction,SMDPad,CuDef*%
%ADD31RoundRect,0.150000X0.587500X0.150000X-0.587500X0.150000X-0.587500X-0.150000X0.587500X-0.150000X0*%
%TD*%
%TA.AperFunction,SMDPad,CuDef*%
%ADD32RoundRect,0.075000X-0.075000X0.662500X-0.075000X-0.662500X0.075000X-0.662500X0.075000X0.662500X0*%
%TD*%
%TA.AperFunction,SMDPad,CuDef*%
%ADD33RoundRect,0.075000X-0.662500X0.075000X-0.662500X-0.075000X0.662500X-0.075000X0.662500X0.075000X0*%
%TD*%
%TA.AperFunction,SMDPad,CuDef*%
%ADD34RoundRect,0.200000X-0.275000X0.200000X-0.275000X-0.200000X0.275000X-0.200000X0.275000X0.200000X0*%
%TD*%
%TA.AperFunction,SMDPad,CuDef*%
%ADD35RoundRect,0.135000X0.135000X0.185000X-0.135000X0.185000X-0.135000X-0.185000X0.135000X-0.185000X0*%
%TD*%
%TA.AperFunction,SMDPad,CuDef*%
%ADD36R,1.800000X1.100000*%
%TD*%
%TA.AperFunction,SMDPad,CuDef*%
%ADD37RoundRect,0.112500X0.187500X0.112500X-0.187500X0.112500X-0.187500X-0.112500X0.187500X-0.112500X0*%
%TD*%
%TA.AperFunction,SMDPad,CuDef*%
%ADD38RoundRect,0.150000X-0.150000X0.587500X-0.150000X-0.587500X0.150000X-0.587500X0.150000X0.587500X0*%
%TD*%
%TA.AperFunction,ComponentPad*%
%ADD39RotRect,1.700000X1.700000X30.000000*%
%TD*%
%TA.AperFunction,ComponentPad*%
%ADD40HorizOval,1.700000X0.000000X0.000000X0.000000X0.000000X0*%
%TD*%
%TA.AperFunction,ViaPad*%
%ADD41C,0.600000*%
%TD*%
%TA.AperFunction,Conductor*%
%ADD42C,0.200000*%
%TD*%
G04 APERTURE END LIST*
D10*
%TO.N,+3V3*%
X88809170Y-85464500D02*
X90744011Y-84378984D01*
D11*
%TO.N,VBUS*%
X90079170Y-87496500D02*
X91894020Y-86370858D01*
D12*
D13*
G36*
X84702919Y-98791508D02*
G01*
X84702919Y-99973400D01*
X84407263Y-99973400D01*
X84407263Y-98495852D01*
X85220225Y-98495852D01*
X85298381Y-98501185D01*
X85372106Y-98517182D01*
X85441400Y-98543843D01*
X85506264Y-98581169D01*
X85566697Y-98629160D01*
X85585856Y-98647527D01*
X85637278Y-98706483D01*
X85678060Y-98769870D01*
X85708204Y-98837687D01*
X85727708Y-98909936D01*
X85736574Y-98986615D01*
X85737165Y-99013159D01*
X85731120Y-99095774D01*
X85712985Y-99173626D01*
X85682760Y-99246716D01*
X85640445Y-99315043D01*
X85588398Y-99376157D01*
X85528978Y-99427608D01*
X85462186Y-99469397D01*
X85388020Y-99501522D01*
X85859897Y-99973400D01*
X85441509Y-99973400D01*
X84924203Y-99456093D01*
X84924203Y-99234443D01*
X85220225Y-99234443D01*
X85295248Y-99222031D01*
X85360033Y-99184795D01*
X85376662Y-99169596D01*
X85420991Y-99107737D01*
X85440496Y-99035639D01*
X85441509Y-99013159D01*
X85429097Y-98937885D01*
X85391861Y-98872990D01*
X85376662Y-98856355D01*
X85314803Y-98812026D01*
X85242705Y-98792522D01*
X85220225Y-98791508D01*
X84702919Y-98791508D01*
G37*
G36*
X86038316Y-98495852D02*
G01*
X87367486Y-98495852D01*
X87367486Y-98791508D01*
X86038316Y-98791508D01*
X86038316Y-98495852D01*
G37*
G36*
X86333972Y-99382088D02*
G01*
X86333972Y-99677744D01*
X87367486Y-99677744D01*
X87367486Y-99973400D01*
X86038316Y-99973400D01*
X86038316Y-99087164D01*
X87219841Y-99087164D01*
X87219841Y-99382088D01*
X86333972Y-99382088D01*
G37*
G36*
X88911345Y-98495852D02*
G01*
X89241073Y-98495852D01*
X88502116Y-99973400D01*
X88320766Y-99973400D01*
X87564590Y-98495852D01*
X87896150Y-98495852D01*
X88409426Y-99498225D01*
X88911345Y-98495852D01*
G37*
G36*
X89570801Y-99645137D02*
G01*
X89645460Y-99660647D01*
X89700860Y-99700092D01*
X89743168Y-99764813D01*
X89755082Y-99833082D01*
X89739779Y-99909195D01*
X89700860Y-99965706D01*
X89637331Y-100008300D01*
X89570801Y-100020294D01*
X89496038Y-100004888D01*
X89440375Y-99965706D01*
X89398067Y-99900906D01*
X89386153Y-99833082D01*
X89399709Y-99760633D01*
X89440375Y-99700092D01*
X89504190Y-99657212D01*
X89570801Y-99645137D01*
G37*
G36*
X92299482Y-99973400D02*
G01*
X92033501Y-99973400D01*
X91131879Y-99632681D01*
X90954558Y-99973400D01*
X90622999Y-99973400D01*
X90930946Y-99371829D01*
X91267800Y-99371829D01*
X91758362Y-99557576D01*
X91467835Y-98980186D01*
X91267800Y-99371829D01*
X90930946Y-99371829D01*
X91379175Y-98496219D01*
X91560525Y-98496219D01*
X92299482Y-99973400D01*
G37*
%TD*%
D14*
%TO.P,J8,1,Pin_1*%
%TO.N,SWSCK_DBG*%
X63500000Y-66040000D03*
%TD*%
D15*
%TO.P,J2,1,Pin_1*%
%TO.N,VCHRG*%
X79629000Y-87337219D03*
%TD*%
D16*
%TO.P,Y2,1,1*%
%TO.N,Net-(U1-PD1)*%
X61904000Y-75184000D03*
%TO.P,Y2,2,2*%
%TO.N,Net-(U1-PD0)*%
X65604000Y-75184000D03*
%TD*%
D17*
%TO.P,R7,1*%
%TO.N,Net-(Q1-B)*%
X83820000Y-92454000D03*
%TO.P,R7,2*%
%TO.N,Net-(Q3-C)*%
X83820000Y-93474000D03*
%TD*%
D18*
%TO.P,R9,1*%
%TO.N,VCHRG*%
X82550000Y-89156000D03*
%TO.P,R9,2*%
%TO.N,GND*%
X82550000Y-88136000D03*
%TD*%
D19*
%TO.P,C7,1*%
%TO.N,+3V3*%
X68862000Y-80822800D03*
%TO.P,C7,2*%
%TO.N,GND*%
X69822000Y-80822800D03*
%TD*%
D20*
%TO.P,R3,1*%
%TO.N,+3V3*%
X57772800Y-77571600D03*
%TO.P,R3,2*%
%TO.N,Net-(U1-NRST)*%
X59422800Y-77571600D03*
%TD*%
D21*
%TO.P,R5,1*%
%TO.N,GND*%
X74739000Y-66446400D03*
%TO.P,R5,2*%
%TO.N,BOOT0*%
X73089000Y-66446400D03*
%TD*%
D22*
%TO.P,C8,1*%
%TO.N,+3V3*%
X61592400Y-77927200D03*
%TO.P,C8,2*%
%TO.N,GND*%
X60632400Y-77927200D03*
%TD*%
D15*
%TO.P,J5,1,Pin_1*%
%TO.N,GND*%
X72771000Y-87337219D03*
%TD*%
%TO.P,J4,1,Pin_1*%
%TO.N,SWSCK*%
X75057000Y-87337219D03*
%TD*%
D14*
%TO.P,J6,1,Pin_1*%
%TO.N,+3V3*%
X60960000Y-70439409D03*
%TD*%
D23*
%TO.P,C1,1*%
%TO.N,VBUS*%
X90079170Y-87496500D03*
%TO.P,C1,2*%
%TO.N,GND*%
X88736830Y-88271500D03*
%TD*%
D19*
%TO.P,C5,1*%
%TO.N,+3V3*%
X66931600Y-87884000D03*
%TO.P,C5,2*%
%TO.N,GND*%
X67891600Y-87884000D03*
%TD*%
D24*
%TO.P,J1,A1,GND*%
%TO.N,GND*%
X72950000Y-94507000D03*
%TO.P,J1,A4,VBUS*%
%TO.N,VBUS*%
X73750000Y-94507000D03*
D25*
%TO.P,J1,A5,CC1*%
%TO.N,Net-(J1-CC1)*%
X74950000Y-94507000D03*
%TO.P,J1,A6,D+*%
%TO.N,USB_D+*%
X75950000Y-94507000D03*
%TO.P,J1,A7,D-*%
%TO.N,USB_D-*%
X76450000Y-94507000D03*
%TO.P,J1,A8,SBU1*%
%TO.N,unconnected-(J1-SBU1-PadA8)*%
X77450000Y-94507000D03*
D24*
%TO.P,J1,A9,VBUS*%
%TO.N,VBUS*%
X78650000Y-94507000D03*
%TO.P,J1,A12,GND*%
%TO.N,GND*%
X79450000Y-94507000D03*
%TO.P,J1,B1,GND*%
X79450000Y-94507000D03*
%TO.P,J1,B4,VBUS*%
%TO.N,VBUS*%
X78650000Y-94507000D03*
D25*
%TO.P,J1,B5,CC2*%
%TO.N,Net-(J1-CC2)*%
X77950000Y-94507000D03*
%TO.P,J1,B6,D+*%
%TO.N,USB_D+*%
X76950000Y-94507000D03*
%TO.P,J1,B7,D-*%
%TO.N,USB_D-*%
X75450000Y-94507000D03*
%TO.P,J1,B8,SBU2*%
%TO.N,unconnected-(J1-SBU2-PadB8)*%
X74450000Y-94507000D03*
D24*
%TO.P,J1,B9,VBUS*%
%TO.N,VBUS*%
X73750000Y-94507000D03*
%TO.P,J1,B12,GND*%
%TO.N,GND*%
X72950000Y-94507000D03*
D26*
%TO.P,J1,S1,SHIELD*%
X71880000Y-95422000D03*
D27*
X71880000Y-99602000D03*
D26*
X80520000Y-95422000D03*
D27*
X80520000Y-99602000D03*
%TD*%
D17*
%TO.P,R8,1*%
%TO.N,Net-(Q3-B)*%
X83820000Y-89406000D03*
%TO.P,R8,2*%
%TO.N,VCHRG*%
X83820000Y-90426000D03*
%TD*%
D14*
%TO.P,J9,1,Pin_1*%
%TO.N,GND*%
X64770000Y-63840295D03*
%TD*%
D28*
%TO.P,D1,1,K*%
%TO.N,Net-(D1-K)*%
X75412500Y-80137000D03*
%TO.P,D1,2,A*%
%TO.N,+3V3*%
X76987500Y-80137000D03*
%TD*%
D29*
%TO.P,U2,1,GND*%
%TO.N,GND*%
X89594020Y-82387142D03*
%TO.P,U2,2,VO*%
%TO.N,+3V3*%
X90744020Y-84379000D03*
D30*
X96199980Y-81229000D03*
D29*
%TO.P,U2,3,VI*%
%TO.N,VBUS*%
X91894020Y-86370858D03*
%TD*%
D19*
%TO.P,C3,1*%
%TO.N,GND*%
X64290000Y-72644000D03*
%TO.P,C3,2*%
%TO.N,Net-(U1-PD0)*%
X65250000Y-72644000D03*
%TD*%
D21*
%TO.P,R6,1*%
%TO.N,Net-(D1-K)*%
X77025000Y-81788000D03*
%TO.P,R6,2*%
%TO.N,Net-(U1-PC13)*%
X75375000Y-81788000D03*
%TD*%
D31*
%TO.P,Q1,1,B*%
%TO.N,Net-(Q1-B)*%
X82217500Y-92390000D03*
%TO.P,Q1,2,E*%
%TO.N,VCHRG*%
X82217500Y-90490000D03*
%TO.P,Q1,3,C*%
%TO.N,VBUS*%
X80342500Y-91440000D03*
%TD*%
D19*
%TO.P,C9,1*%
%TO.N,+3V3*%
X66017200Y-77927200D03*
%TO.P,C9,2*%
%TO.N,GND*%
X66977200Y-77927200D03*
%TD*%
D32*
%TO.P,U1,1,VBAT*%
%TO.N,+3V3*%
X65996000Y-79403500D03*
%TO.P,U1,2,PC13*%
%TO.N,Net-(U1-PC13)*%
X65496000Y-79403500D03*
%TO.P,U1,3,PC14*%
%TO.N,unconnected-(U1-PC14-Pad3)*%
X64996000Y-79403500D03*
%TO.P,U1,4,PC15*%
%TO.N,unconnected-(U1-PC15-Pad4)*%
X64496000Y-79403500D03*
%TO.P,U1,5,PD0*%
%TO.N,Net-(U1-PD0)*%
X63996000Y-79403500D03*
%TO.P,U1,6,PD1*%
%TO.N,Net-(U1-PD1)*%
X63496000Y-79403500D03*
%TO.P,U1,7,NRST*%
%TO.N,Net-(U1-NRST)*%
X62996000Y-79403500D03*
%TO.P,U1,8,VSSA*%
%TO.N,GND*%
X62496000Y-79403500D03*
%TO.P,U1,9,VDDA*%
%TO.N,+3V3*%
X61996000Y-79403500D03*
%TO.P,U1,10,PA0*%
%TO.N,unconnected-(U1-PA0-Pad10)*%
X61496000Y-79403500D03*
%TO.P,U1,11,PA1*%
%TO.N,unconnected-(U1-PA1-Pad11)*%
X60996000Y-79403500D03*
%TO.P,U1,12,PA2*%
%TO.N,unconnected-(U1-PA2-Pad12)*%
X60496000Y-79403500D03*
D33*
%TO.P,U1,13,PA3*%
%TO.N,unconnected-(U1-PA3-Pad13)*%
X59083500Y-80816000D03*
%TO.P,U1,14,PA4*%
%TO.N,unconnected-(U1-PA4-Pad14)*%
X59083500Y-81316000D03*
%TO.P,U1,15,PA5*%
%TO.N,SWSCK*%
X59083500Y-81816000D03*
%TO.P,U1,16,PA6*%
%TO.N,unconnected-(U1-PA6-Pad16)*%
X59083500Y-82316000D03*
%TO.P,U1,17,PA7*%
%TO.N,unconnected-(U1-PA7-Pad17)*%
X59083500Y-82816000D03*
%TO.P,U1,18,PB0*%
%TO.N,unconnected-(U1-PB0-Pad18)*%
X59083500Y-83316000D03*
%TO.P,U1,19,PB1*%
%TO.N,unconnected-(U1-PB1-Pad19)*%
X59083500Y-83816000D03*
%TO.P,U1,20,PB2*%
%TO.N,Net-(U1-PB2)*%
X59083500Y-84316000D03*
%TO.P,U1,21,PB10*%
%TO.N,unconnected-(U1-PB10-Pad21)*%
X59083500Y-84816000D03*
%TO.P,U1,22,PB11*%
%TO.N,unconnected-(U1-PB11-Pad22)*%
X59083500Y-85316000D03*
%TO.P,U1,23,VSS*%
%TO.N,GND*%
X59083500Y-85816000D03*
%TO.P,U1,24,VDD*%
%TO.N,+3V3*%
X59083500Y-86316000D03*
D32*
%TO.P,U1,25,PB12*%
%TO.N,unconnected-(U1-PB12-Pad25)*%
X60496000Y-87728500D03*
%TO.P,U1,26,PB13*%
%TO.N,unconnected-(U1-PB13-Pad26)*%
X60996000Y-87728500D03*
%TO.P,U1,27,PB14*%
%TO.N,unconnected-(U1-PB14-Pad27)*%
X61496000Y-87728500D03*
%TO.P,U1,28,PB15*%
%TO.N,SWDIO*%
X61996000Y-87728500D03*
%TO.P,U1,29,PA8*%
%TO.N,unconnected-(U1-PA8-Pad29)*%
X62496000Y-87728500D03*
%TO.P,U1,30,PA9*%
%TO.N,unconnected-(U1-PA9-Pad30)*%
X62996000Y-87728500D03*
%TO.P,U1,31,PA10*%
%TO.N,unconnected-(U1-PA10-Pad31)*%
X63496000Y-87728500D03*
%TO.P,U1,32,PA11*%
%TO.N,USB_D-*%
X63996000Y-87728500D03*
%TO.P,U1,33,PA12*%
%TO.N,USB_D+*%
X64496000Y-87728500D03*
%TO.P,U1,34,PA13*%
%TO.N,SWDIO_DBG*%
X64996000Y-87728500D03*
%TO.P,U1,35,VSS*%
%TO.N,GND*%
X65496000Y-87728500D03*
%TO.P,U1,36,VDD*%
%TO.N,+3V3*%
X65996000Y-87728500D03*
D33*
%TO.P,U1,37,PA14*%
%TO.N,SWSCK_DBG*%
X67408500Y-86316000D03*
%TO.P,U1,38,PA15*%
%TO.N,unconnected-(U1-PA15-Pad38)*%
X67408500Y-85816000D03*
%TO.P,U1,39,PB3*%
%TO.N,unconnected-(U1-PB3-Pad39)*%
X67408500Y-85316000D03*
%TO.P,U1,40,PB4*%
%TO.N,unconnected-(U1-PB4-Pad40)*%
X67408500Y-84816000D03*
%TO.P,U1,41,PB5*%
%TO.N,unconnected-(U1-PB5-Pad41)*%
X67408500Y-84316000D03*
%TO.P,U1,42,PB6*%
%TO.N,unconnected-(U1-PB6-Pad42)*%
X67408500Y-83816000D03*
%TO.P,U1,43,PB7*%
%TO.N,unconnected-(U1-PB7-Pad43)*%
X67408500Y-83316000D03*
%TO.P,U1,44,BOOT0*%
%TO.N,BOOT0*%
X67408500Y-82816000D03*
%TO.P,U1,45,PB8*%
%TO.N,unconnected-(U1-PB8-Pad45)*%
X67408500Y-82316000D03*
%TO.P,U1,46,PB9*%
%TO.N,unconnected-(U1-PB9-Pad46)*%
X67408500Y-81816000D03*
%TO.P,U1,47,VSS*%
%TO.N,GND*%
X67408500Y-81316000D03*
%TO.P,U1,48,VDD*%
%TO.N,+3V3*%
X67408500Y-80816000D03*
%TD*%
D23*
%TO.P,C2,1*%
%TO.N,+3V3*%
X88809170Y-85464500D03*
%TO.P,C2,2*%
%TO.N,GND*%
X87466830Y-86239500D03*
%TD*%
D34*
%TO.P,R1,1*%
%TO.N,Net-(J1-CC1)*%
X69850000Y-96711000D03*
%TO.P,R1,2*%
%TO.N,GND*%
X69850000Y-98361000D03*
%TD*%
D35*
%TO.P,R10,1*%
%TO.N,VBUS*%
X78234000Y-91948000D03*
%TO.P,R10,2*%
%TO.N,Net-(D2-A)*%
X77214000Y-91948000D03*
%TD*%
D15*
%TO.P,J3,1,Pin_1*%
%TO.N,SWDIO*%
X77343000Y-87337219D03*
%TD*%
D34*
%TO.P,R2,1*%
%TO.N,Net-(J1-CC2)*%
X82550000Y-96711000D03*
%TO.P,R2,2*%
%TO.N,GND*%
X82550000Y-98361000D03*
%TD*%
D22*
%TO.P,C4,1*%
%TO.N,GND*%
X63218000Y-72644000D03*
%TO.P,C4,2*%
%TO.N,Net-(U1-PD1)*%
X62258000Y-72644000D03*
%TD*%
D36*
%TO.P,SW1,1,1*%
%TO.N,+3V3*%
X73100000Y-60888000D03*
X79300000Y-60888000D03*
%TO.P,SW1,2,2*%
%TO.N,BOOT0*%
X73100000Y-64588000D03*
X79300000Y-64588000D03*
%TD*%
D20*
%TO.P,R4,1*%
%TO.N,GND*%
X55309000Y-84328000D03*
%TO.P,R4,2*%
%TO.N,Net-(U1-PB2)*%
X56959000Y-84328000D03*
%TD*%
D37*
%TO.P,D2,1,K*%
%TO.N,VCHRG*%
X78774000Y-90424000D03*
%TO.P,D2,2,A*%
%TO.N,Net-(D2-A)*%
X76674000Y-90424000D03*
%TD*%
D22*
%TO.P,C6,1*%
%TO.N,+3V3*%
X58928000Y-87274400D03*
%TO.P,C6,2*%
%TO.N,GND*%
X57968000Y-87274400D03*
%TD*%
D38*
%TO.P,Q3,1,B*%
%TO.N,Net-(Q3-B)*%
X87056000Y-90502500D03*
%TO.P,Q3,2,E*%
%TO.N,GND*%
X85156000Y-90502500D03*
%TO.P,Q3,3,C*%
%TO.N,Net-(Q3-C)*%
X86106000Y-92377500D03*
%TD*%
D14*
%TO.P,J7,1,Pin_1*%
%TO.N,SWDIO_DBG*%
X62230000Y-68239705D03*
%TD*%
D39*
%TO.P,J10,1,Pin_1*%
%TO.N,VBUS*%
X82406861Y-70756397D03*
D40*
%TO.P,J10,2,Pin_2*%
%TO.N,SWDIO*%
X83676861Y-72956102D03*
%TO.P,J10,3,Pin_3*%
%TO.N,SWSCK*%
X84946861Y-75155806D03*
%TO.P,J10,4,Pin_4*%
%TO.N,GND*%
X86216861Y-77355511D03*
%TD*%
D41*
%TO.N,BOOT0*%
X73075800Y-67411600D03*
X70916800Y-79425800D03*
%TO.N,GND*%
X58064400Y-75285600D03*
X67564000Y-74701400D03*
X59740800Y-79044800D03*
X60223400Y-75311000D03*
X71628000Y-82042000D03*
X57581800Y-85496400D03*
X80010000Y-66040000D03*
X70205600Y-81483200D03*
X86893400Y-81559400D03*
X84836000Y-91694000D03*
X62509400Y-71653400D03*
X61671200Y-82956400D03*
X60452000Y-84378800D03*
X76200000Y-62738000D03*
X73634600Y-92227400D03*
X69545200Y-89992200D03*
X75742800Y-84531200D03*
X61849000Y-86207600D03*
X69951600Y-84328000D03*
X67868800Y-88696800D03*
X81026000Y-77978000D03*
X67360800Y-87045800D03*
X63093600Y-90195400D03*
X69646800Y-79705200D03*
X72593200Y-79451200D03*
X67513200Y-78994000D03*
X63754000Y-76276200D03*
X81280000Y-60198000D03*
X64719200Y-82880200D03*
X82042000Y-63754000D03*
X75793600Y-91617800D03*
X77724000Y-70612000D03*
X83108800Y-81000600D03*
X58267600Y-79781400D03*
X61036200Y-80822800D03*
X63042800Y-80721200D03*
%TO.N,Net-(J1-CC2)*%
X82524600Y-95808800D03*
X77978000Y-92964000D03*
%TO.N,VBUS*%
X91894020Y-86370858D03*
X79407436Y-91948000D03*
%TO.N,SWSCK_DBG*%
X65278000Y-84201000D03*
X63500000Y-66040000D03*
%TO.N,SWDIO_DBG*%
X62738000Y-85471000D03*
X62230000Y-68239705D03*
%TO.N,SWSCK*%
X60452000Y-81788000D03*
%TO.N,SWDIO*%
X76708000Y-83820000D03*
X68834000Y-89408000D03*
X61996000Y-89408000D03*
%TO.N,Net-(U1-PC13)*%
X74422000Y-81788000D03*
X65496000Y-80568800D03*
%TD*%
D42*
%TO.N,BOOT0*%
X70916800Y-81737200D02*
X69838000Y-82816000D01*
X73100000Y-66435400D02*
X73089000Y-66446400D01*
X73100000Y-64588000D02*
X73100000Y-66435400D01*
X70916800Y-79425800D02*
X70916800Y-81737200D01*
X79300000Y-64588000D02*
X73100000Y-64588000D01*
X73075800Y-67411600D02*
X73075800Y-66459600D01*
X73075800Y-66459600D02*
X73089000Y-66446400D01*
X69838000Y-82816000D02*
X67408500Y-82816000D01*
D11*
%TO.N,GND*%
X79450000Y-94507000D02*
X79450000Y-93270000D01*
X68348354Y-81316000D02*
X68515154Y-81482800D01*
X67408500Y-81316000D02*
X68348354Y-81316000D01*
X79928000Y-95422000D02*
X80520000Y-95422000D01*
X79450000Y-94944000D02*
X79928000Y-95422000D01*
X69822000Y-80952400D02*
X69822000Y-80822800D01*
X69291600Y-81482800D02*
X69822000Y-80952400D01*
X79450000Y-94507000D02*
X79450000Y-94944000D01*
X68515154Y-81482800D02*
X69291600Y-81482800D01*
D42*
%TO.N,Net-(U1-PB2)*%
X59083500Y-84316000D02*
X56971000Y-84316000D01*
X56971000Y-84316000D02*
X56959000Y-84328000D01*
%TO.N,Net-(U1-NRST)*%
X62204600Y-77063600D02*
X59930800Y-77063600D01*
X59930800Y-77063600D02*
X59422800Y-77571600D01*
X62996000Y-77855000D02*
X62204600Y-77063600D01*
X62996000Y-79403500D02*
X62996000Y-77855000D01*
%TO.N,+3V3*%
X76987500Y-70332500D02*
X81280000Y-66040000D01*
D11*
X67408500Y-80816000D02*
X67408500Y-80413300D01*
D42*
X65996000Y-77948400D02*
X66017200Y-77927200D01*
D11*
X59083500Y-86316000D02*
X59083500Y-87118900D01*
X69488200Y-78333600D02*
X75184100Y-78333600D01*
X65996000Y-86760120D02*
X62738000Y-83502120D01*
X67408500Y-80816000D02*
X68855200Y-80816000D01*
X65900680Y-81483200D02*
X66567880Y-80816000D01*
D42*
X81280000Y-61768000D02*
X80400000Y-60888000D01*
D11*
X66567880Y-80816000D02*
X67408500Y-80816000D01*
X66151500Y-87884000D02*
X65996000Y-87728500D01*
D42*
X57772800Y-77571600D02*
X54229000Y-83286600D01*
D11*
X61996000Y-79403500D02*
X61996000Y-78330800D01*
X67408500Y-80413300D02*
X69488200Y-78333600D01*
D42*
X81280000Y-66040000D02*
X81280000Y-61768000D01*
X76987500Y-80137000D02*
X76987500Y-70332500D01*
D11*
X76987500Y-80137000D02*
X83481670Y-80137000D01*
X68855200Y-80816000D02*
X68862000Y-80822800D01*
D42*
X57772800Y-77571600D02*
X60960000Y-70439409D01*
D11*
X65996000Y-87728500D02*
X65996000Y-86760120D01*
X61996000Y-79403500D02*
X61996000Y-80741200D01*
X66398700Y-79403500D02*
X65996000Y-79403500D01*
X83481670Y-80137000D02*
X88809170Y-85464500D01*
D42*
X54229000Y-83286600D02*
X54229000Y-85217000D01*
D11*
X59924120Y-86316000D02*
X59083500Y-86316000D01*
X61996000Y-78330800D02*
X61592400Y-77927200D01*
X66931600Y-87884000D02*
X66151500Y-87884000D01*
X61996000Y-80741200D02*
X62738000Y-81483200D01*
D42*
X65996000Y-79403500D02*
X65996000Y-77948400D01*
D11*
X75184100Y-78333600D02*
X76987500Y-80137000D01*
D42*
X80400000Y-60888000D02*
X79300000Y-60888000D01*
X55328000Y-86316000D02*
X59083500Y-86316000D01*
D11*
X62738000Y-83502120D02*
X59924120Y-86316000D01*
D42*
X54229000Y-85217000D02*
X55328000Y-86316000D01*
D11*
X62738000Y-81483200D02*
X65900680Y-81483200D01*
X62738000Y-81483200D02*
X62738000Y-83502120D01*
X67408500Y-80413300D02*
X66398700Y-79403500D01*
X59083500Y-87118900D02*
X58928000Y-87274400D01*
D42*
%TO.N,Net-(J1-CC2)*%
X82524600Y-96685600D02*
X82550000Y-96711000D01*
X77950000Y-92992000D02*
X77978000Y-92964000D01*
X82524600Y-95808800D02*
X82524600Y-96685600D01*
X77950000Y-94507000D02*
X77950000Y-92992000D01*
%TO.N,Net-(J1-CC1)*%
X74255000Y-92837000D02*
X74950000Y-93532000D01*
X74950000Y-93532000D02*
X74950000Y-94507000D01*
X70739000Y-92837000D02*
X74255000Y-92837000D01*
X69850000Y-96711000D02*
X69850000Y-93726000D01*
X69850000Y-93726000D02*
X70739000Y-92837000D01*
%TO.N,VBUS*%
X82406861Y-70756397D02*
X82042000Y-71121258D01*
D11*
X74903305Y-96520000D02*
X77496695Y-96520000D01*
X79915436Y-91440000D02*
X80342500Y-91440000D01*
X79407436Y-91948000D02*
X79915436Y-91440000D01*
X73750000Y-94507000D02*
X73750000Y-95366695D01*
X77496695Y-96520000D02*
X78650000Y-95366695D01*
D42*
X86106000Y-80518000D02*
X91186000Y-80518000D01*
X92964000Y-85300878D02*
X91894020Y-86370858D01*
X82042000Y-71121258D02*
X82042000Y-76454000D01*
D11*
X73750000Y-95366695D02*
X74903305Y-96520000D01*
D42*
X92964000Y-82296000D02*
X92964000Y-85300878D01*
X91186000Y-80518000D02*
X92964000Y-82296000D01*
X82042000Y-76454000D02*
X86106000Y-80518000D01*
D11*
X78234000Y-91948000D02*
X78740000Y-91948000D01*
X78740000Y-91948000D02*
X79407436Y-91948000D01*
X78650000Y-94507000D02*
X78650000Y-92038000D01*
X78650000Y-95366695D02*
X78650000Y-94507000D01*
X78650000Y-92038000D02*
X78740000Y-91948000D01*
D42*
%TO.N,Net-(U1-PD0)*%
X65250000Y-72644000D02*
X65250000Y-74830000D01*
X63996000Y-76974000D02*
X65604000Y-75366000D01*
X63996000Y-79403500D02*
X63996000Y-76974000D01*
X65604000Y-75366000D02*
X65604000Y-75184000D01*
X65250000Y-74830000D02*
X65604000Y-75184000D01*
%TO.N,Net-(U1-PD1)*%
X63496000Y-79403500D02*
X63496000Y-76958000D01*
X62258000Y-74830000D02*
X61904000Y-75184000D01*
X61904000Y-75366000D02*
X61904000Y-75184000D01*
X62258000Y-72644000D02*
X62258000Y-74830000D01*
X63496000Y-76958000D02*
X61904000Y-75366000D01*
%TO.N,SWSCK_DBG*%
X66638590Y-86316000D02*
X65278000Y-84955410D01*
X65278000Y-84955410D02*
X65278000Y-84201000D01*
X67408500Y-86316000D02*
X66638590Y-86316000D01*
%TO.N,SWDIO_DBG*%
X64996000Y-86958590D02*
X63508410Y-85471000D01*
X64996000Y-87728500D02*
X64996000Y-86958590D01*
X63508410Y-85471000D02*
X62738000Y-85471000D01*
%TO.N,SWSCK*%
X60424000Y-81816000D02*
X60452000Y-81788000D01*
X59083500Y-81816000D02*
X60424000Y-81816000D01*
%TO.N,USB_D+*%
X75950000Y-93532000D02*
X76000000Y-93482000D01*
X65625200Y-90707000D02*
X64471000Y-89552800D01*
X75950000Y-94507000D02*
X75950000Y-93532000D01*
X64496000Y-88834751D02*
X64496000Y-87728500D01*
X75950000Y-94507000D02*
X75950000Y-93419499D01*
X75925000Y-92878800D02*
X73753200Y-90707000D01*
X73753200Y-90707000D02*
X65625200Y-90707000D01*
X64471000Y-89552800D02*
X64471000Y-88859751D01*
X75950000Y-93419499D02*
X75925000Y-93394499D01*
X76950000Y-93532000D02*
X76950000Y-94507000D01*
X76000000Y-93482000D02*
X76900000Y-93482000D01*
X76900000Y-93482000D02*
X76950000Y-93532000D01*
X64471000Y-88859751D02*
X64496000Y-88834751D01*
X75925000Y-93394499D02*
X75925000Y-92878800D01*
%TO.N,SWDIO*%
X61996000Y-89408000D02*
X61996000Y-87728500D01*
X77343000Y-87337219D02*
X77343000Y-85979000D01*
X76708000Y-83820000D02*
X76708000Y-85344000D01*
X77343000Y-85979000D02*
X76708000Y-85344000D01*
X76708000Y-85344000D02*
X71120000Y-85344000D01*
X68834000Y-87630000D02*
X68834000Y-89408000D01*
X71120000Y-85344000D02*
X68834000Y-87630000D01*
%TO.N,Net-(U1-PC13)*%
X74422000Y-81788000D02*
X75375000Y-81788000D01*
X65496000Y-80568800D02*
X65496000Y-79403500D01*
%TO.N,USB_D-*%
X73566800Y-91157000D02*
X65438800Y-91157000D01*
X63996000Y-88834751D02*
X63996000Y-87728500D01*
X75475000Y-93394499D02*
X75475000Y-93065200D01*
X75450000Y-94507000D02*
X75450000Y-93419499D01*
X65438800Y-91157000D02*
X64021000Y-89739200D01*
X75500000Y-95532000D02*
X76400000Y-95532000D01*
X75450000Y-94507000D02*
X75450000Y-95482000D01*
X76450000Y-95482000D02*
X76450000Y-94507000D01*
X76400000Y-95532000D02*
X76450000Y-95482000D01*
X64021000Y-88859751D02*
X63996000Y-88834751D01*
X75450000Y-95482000D02*
X75500000Y-95532000D01*
X64021000Y-89739200D02*
X64021000Y-88859751D01*
X75475000Y-93065200D02*
X73566800Y-91157000D01*
X75450000Y-93419499D02*
X75475000Y-93394499D01*
%TO.N,Net-(D1-K)*%
X77025000Y-81788000D02*
X77025000Y-81749500D01*
X77025000Y-81749500D02*
X75412500Y-80137000D01*
D11*
%TO.N,VCHRG*%
X81447781Y-89156000D02*
X82550000Y-89156000D01*
X79629000Y-87337219D02*
X81447781Y-89156000D01*
X78774000Y-90424000D02*
X80179781Y-90424000D01*
X80179781Y-90424000D02*
X81447781Y-89156000D01*
X82550000Y-89156000D02*
X82550000Y-90157500D01*
D42*
X83820000Y-90426000D02*
X82281500Y-90426000D01*
X82281500Y-90426000D02*
X82217500Y-90490000D01*
D11*
X82550000Y-90157500D02*
X82217500Y-90490000D01*
D42*
%TO.N,Net-(Q3-C)*%
X83820000Y-93474000D02*
X85009500Y-93474000D01*
X85009500Y-93474000D02*
X86106000Y-92377500D01*
%TO.N,Net-(Q1-B)*%
X83756000Y-92390000D02*
X83820000Y-92454000D01*
X82217500Y-92390000D02*
X83756000Y-92390000D01*
%TO.N,Net-(Q3-B)*%
X85959500Y-89406000D02*
X87056000Y-90502500D01*
X83820000Y-89406000D02*
X85959500Y-89406000D01*
%TO.N,Net-(D2-A)*%
X76674000Y-90424000D02*
X76674000Y-91408000D01*
X76674000Y-91408000D02*
X77214000Y-91948000D01*
%TD*%
%TA.AperFunction,Conductor*%
%TO.N,GND*%
G36*
X85925003Y-89867185D02*
G01*
X86476504Y-90418686D01*
X86504281Y-90473203D01*
X86505500Y-90488690D01*
X86505500Y-91121520D01*
X86505501Y-91121523D01*
X86520352Y-91215299D01*
X86520353Y-91215302D01*
X86560888Y-91294856D01*
X86570459Y-91355288D01*
X86542682Y-91409805D01*
X86488165Y-91437582D01*
X86427733Y-91428011D01*
X86381303Y-91404353D01*
X86287522Y-91389500D01*
X85924479Y-91389500D01*
X85924475Y-91389501D01*
X85827145Y-91404915D01*
X85766713Y-91395343D01*
X85723449Y-91352077D01*
X85713879Y-91291645D01*
X85718216Y-91274436D01*
X85753149Y-91174603D01*
X85755999Y-91144211D01*
X85756000Y-91144210D01*
X85756000Y-90752501D01*
X85755999Y-90752500D01*
X85406001Y-90752500D01*
X85406000Y-90752501D01*
X85406000Y-91531760D01*
X85455490Y-91514444D01*
X85516660Y-91513071D01*
X85566955Y-91547914D01*
X85587163Y-91605666D01*
X85576399Y-91652831D01*
X85570354Y-91664695D01*
X85555500Y-91758478D01*
X85555500Y-92391309D01*
X85536593Y-92449500D01*
X85526504Y-92461313D01*
X84893314Y-93094504D01*
X84838797Y-93122281D01*
X84823310Y-93123500D01*
X84375685Y-93123500D01*
X84317494Y-93104593D01*
X84305687Y-93094509D01*
X84245179Y-93034001D01*
X84217404Y-92979487D01*
X84226975Y-92919055D01*
X84245178Y-92893999D01*
X84323076Y-92816102D01*
X84379582Y-92700518D01*
X84390500Y-92625582D01*
X84390500Y-92282418D01*
X84379582Y-92207482D01*
X84323076Y-92091898D01*
X84232102Y-92000924D01*
X84116518Y-91944418D01*
X84041582Y-91933500D01*
X83598418Y-91933500D01*
X83523482Y-91944418D01*
X83407899Y-92000923D01*
X83407898Y-92000923D01*
X83407898Y-92000924D01*
X83398316Y-92010505D01*
X83343802Y-92038281D01*
X83328315Y-92039500D01*
X83210987Y-92039500D01*
X83152796Y-92020593D01*
X83138964Y-92006762D01*
X83138559Y-92007168D01*
X83133051Y-92001660D01*
X83133050Y-92001658D01*
X83043342Y-91911950D01*
X82930304Y-91854354D01*
X82930305Y-91854354D01*
X82836521Y-91839500D01*
X81598478Y-91839500D01*
X81598476Y-91839501D01*
X81504700Y-91854352D01*
X81504697Y-91854353D01*
X81425143Y-91894888D01*
X81364711Y-91904459D01*
X81310194Y-91876681D01*
X81282417Y-91822165D01*
X81291989Y-91761733D01*
X81315646Y-91715304D01*
X81330500Y-91621519D01*
X81330499Y-91258482D01*
X81330498Y-91258478D01*
X81330498Y-91258476D01*
X81315647Y-91164700D01*
X81315646Y-91164695D01*
X81291989Y-91118267D01*
X81282417Y-91057835D01*
X81310194Y-91003318D01*
X81364710Y-90975540D01*
X81425141Y-90985110D01*
X81504696Y-91025646D01*
X81598481Y-91040500D01*
X82836518Y-91040499D01*
X82836521Y-91040499D01*
X82836522Y-91040498D01*
X82883411Y-91033072D01*
X82930299Y-91025647D01*
X82930299Y-91025646D01*
X82930304Y-91025646D01*
X83043342Y-90968050D01*
X83133050Y-90878342D01*
X83157399Y-90830553D01*
X83200663Y-90787290D01*
X83245608Y-90776500D01*
X83264315Y-90776500D01*
X83322506Y-90795407D01*
X83334312Y-90805490D01*
X83407898Y-90879076D01*
X83523482Y-90935582D01*
X83598418Y-90946500D01*
X83598421Y-90946500D01*
X84041578Y-90946500D01*
X84041582Y-90946500D01*
X84116518Y-90935582D01*
X84232102Y-90879076D01*
X84323076Y-90788102D01*
X84368061Y-90696083D01*
X84410602Y-90652112D01*
X84470868Y-90641542D01*
X84525836Y-90668414D01*
X84554512Y-90722464D01*
X84556000Y-90739566D01*
X84556000Y-91144203D01*
X84558850Y-91174600D01*
X84558850Y-91174602D01*
X84603654Y-91302647D01*
X84684207Y-91411790D01*
X84684209Y-91411792D01*
X84793352Y-91492345D01*
X84906000Y-91531761D01*
X84906000Y-90351500D01*
X84924907Y-90293309D01*
X84974407Y-90257345D01*
X85005000Y-90252500D01*
X85755998Y-90252500D01*
X85755999Y-90252499D01*
X85755999Y-89937189D01*
X85774906Y-89878998D01*
X85824406Y-89843034D01*
X85885592Y-89843034D01*
X85925003Y-89867185D01*
G37*
%TD.AperFunction*%
%TA.AperFunction,Conductor*%
G36*
X62782945Y-84120310D02*
G01*
X62808004Y-84138516D01*
X63620984Y-84951496D01*
X63648761Y-85006013D01*
X63639190Y-85066445D01*
X63595925Y-85109710D01*
X63550980Y-85120500D01*
X63211764Y-85120500D01*
X63153573Y-85101593D01*
X63133223Y-85081769D01*
X63130623Y-85078381D01*
X63130621Y-85078380D01*
X63130621Y-85078379D01*
X63015625Y-84990139D01*
X63015621Y-84990137D01*
X62881709Y-84934670D01*
X62881708Y-84934669D01*
X62738000Y-84915750D01*
X62594291Y-84934669D01*
X62594290Y-84934670D01*
X62460378Y-84990137D01*
X62460374Y-84990139D01*
X62345381Y-85078377D01*
X62345377Y-85078381D01*
X62257139Y-85193374D01*
X62257137Y-85193378D01*
X62201670Y-85327290D01*
X62201669Y-85327291D01*
X62182750Y-85470999D01*
X62182750Y-85471000D01*
X62201669Y-85614708D01*
X62201670Y-85614709D01*
X62251663Y-85735406D01*
X62257139Y-85748625D01*
X62345379Y-85863621D01*
X62460375Y-85951861D01*
X62594291Y-86007330D01*
X62738000Y-86026250D01*
X62881709Y-86007330D01*
X63015625Y-85951861D01*
X63130621Y-85863621D01*
X63131385Y-85862624D01*
X63133223Y-85860231D01*
X63183649Y-85825576D01*
X63211764Y-85821500D01*
X63322220Y-85821500D01*
X63380411Y-85840407D01*
X63392224Y-85850496D01*
X64113224Y-86571496D01*
X64141001Y-86626013D01*
X64131430Y-86686445D01*
X64088165Y-86729710D01*
X64043221Y-86740500D01*
X63882866Y-86740500D01*
X63882854Y-86740501D01*
X63835458Y-86746740D01*
X63835452Y-86746741D01*
X63787838Y-86768944D01*
X63727109Y-86776400D01*
X63704162Y-86768944D01*
X63656551Y-86746743D01*
X63656547Y-86746742D01*
X63656545Y-86746741D01*
X63609139Y-86740500D01*
X63609137Y-86740500D01*
X63382866Y-86740500D01*
X63382854Y-86740501D01*
X63335458Y-86746740D01*
X63335452Y-86746741D01*
X63287838Y-86768944D01*
X63227109Y-86776400D01*
X63204162Y-86768944D01*
X63156551Y-86746743D01*
X63156547Y-86746742D01*
X63156545Y-86746741D01*
X63109139Y-86740500D01*
X63109137Y-86740500D01*
X62882866Y-86740500D01*
X62882854Y-86740501D01*
X62835458Y-86746740D01*
X62835452Y-86746741D01*
X62787838Y-86768944D01*
X62727109Y-86776400D01*
X62704162Y-86768944D01*
X62656551Y-86746743D01*
X62656547Y-86746742D01*
X62656545Y-86746741D01*
X62609139Y-86740500D01*
X62609137Y-86740500D01*
X62382866Y-86740500D01*
X62382854Y-86740501D01*
X62335458Y-86746740D01*
X62335452Y-86746741D01*
X62287838Y-86768944D01*
X62227109Y-86776400D01*
X62204162Y-86768944D01*
X62156551Y-86746743D01*
X62156547Y-86746742D01*
X62156545Y-86746741D01*
X62109139Y-86740500D01*
X62109137Y-86740500D01*
X61882866Y-86740500D01*
X61882854Y-86740501D01*
X61835458Y-86746740D01*
X61835452Y-86746741D01*
X61787838Y-86768944D01*
X61727109Y-86776400D01*
X61704162Y-86768944D01*
X61656551Y-86746743D01*
X61656547Y-86746742D01*
X61656545Y-86746741D01*
X61609139Y-86740500D01*
X61609137Y-86740500D01*
X61382866Y-86740500D01*
X61382854Y-86740501D01*
X61335458Y-86746740D01*
X61335452Y-86746741D01*
X61287838Y-86768944D01*
X61227109Y-86776400D01*
X61204162Y-86768944D01*
X61156551Y-86746743D01*
X61156547Y-86746742D01*
X61156545Y-86746741D01*
X61109139Y-86740500D01*
X61109137Y-86740500D01*
X60882866Y-86740500D01*
X60882854Y-86740501D01*
X60835458Y-86746740D01*
X60835452Y-86746741D01*
X60787838Y-86768944D01*
X60727109Y-86776400D01*
X60704162Y-86768944D01*
X60656551Y-86746743D01*
X60656547Y-86746742D01*
X60656545Y-86746741D01*
X60609139Y-86740500D01*
X60609137Y-86740500D01*
X60382866Y-86740500D01*
X60382854Y-86740501D01*
X60335455Y-86746740D01*
X60327746Y-86750335D01*
X60267017Y-86757789D01*
X60213504Y-86728125D01*
X60187648Y-86672671D01*
X60199324Y-86612610D01*
X60215899Y-86590613D01*
X62667996Y-84138515D01*
X62722513Y-84110739D01*
X62782945Y-84120310D01*
G37*
%TD.AperFunction*%
%TA.AperFunction,Conductor*%
G36*
X66366445Y-81680569D02*
G01*
X66409709Y-81723834D01*
X66420500Y-81768778D01*
X66420500Y-81929133D01*
X66420501Y-81929145D01*
X66426740Y-81976541D01*
X66426741Y-81976547D01*
X66448944Y-82024162D01*
X66456400Y-82084891D01*
X66448944Y-82107838D01*
X66426743Y-82155448D01*
X66426741Y-82155456D01*
X66420500Y-82202862D01*
X66420500Y-82429133D01*
X66420501Y-82429145D01*
X66426740Y-82476541D01*
X66426741Y-82476547D01*
X66448944Y-82524162D01*
X66456400Y-82584891D01*
X66448944Y-82607838D01*
X66426743Y-82655448D01*
X66426741Y-82655453D01*
X66426741Y-82655455D01*
X66425467Y-82665136D01*
X66420500Y-82702862D01*
X66420500Y-82929133D01*
X66420501Y-82929145D01*
X66426740Y-82976541D01*
X66426741Y-82976547D01*
X66448944Y-83024162D01*
X66456400Y-83084891D01*
X66448944Y-83107838D01*
X66426743Y-83155448D01*
X66426741Y-83155453D01*
X66426741Y-83155455D01*
X66425030Y-83168456D01*
X66420500Y-83202862D01*
X66420500Y-83429133D01*
X66420501Y-83429145D01*
X66426740Y-83476541D01*
X66426741Y-83476547D01*
X66448944Y-83524162D01*
X66456400Y-83584891D01*
X66448944Y-83607838D01*
X66426743Y-83655448D01*
X66426741Y-83655456D01*
X66420500Y-83702862D01*
X66420500Y-83929133D01*
X66420501Y-83929145D01*
X66426740Y-83976541D01*
X66426741Y-83976547D01*
X66448944Y-84024162D01*
X66456400Y-84084891D01*
X66448944Y-84107838D01*
X66426743Y-84155448D01*
X66426741Y-84155453D01*
X66426741Y-84155455D01*
X66425443Y-84165319D01*
X66420500Y-84202862D01*
X66420500Y-84429133D01*
X66420501Y-84429145D01*
X66426740Y-84476541D01*
X66426741Y-84476547D01*
X66448944Y-84524162D01*
X66456400Y-84584891D01*
X66448944Y-84607838D01*
X66426743Y-84655448D01*
X66426741Y-84655456D01*
X66420500Y-84702862D01*
X66420500Y-84929133D01*
X66420501Y-84929145D01*
X66426740Y-84976541D01*
X66426741Y-84976547D01*
X66448944Y-85024162D01*
X66456400Y-85084891D01*
X66448944Y-85107838D01*
X66426743Y-85155448D01*
X66426741Y-85155453D01*
X66426741Y-85155455D01*
X66421749Y-85193378D01*
X66420500Y-85202862D01*
X66420500Y-85363220D01*
X66401593Y-85421411D01*
X66352093Y-85457375D01*
X66290907Y-85457375D01*
X66251496Y-85433224D01*
X65657496Y-84839224D01*
X65629719Y-84784707D01*
X65628500Y-84769220D01*
X65628500Y-84674762D01*
X65647407Y-84616571D01*
X65667234Y-84596219D01*
X65670621Y-84593621D01*
X65758861Y-84478625D01*
X65814330Y-84344709D01*
X65833250Y-84201000D01*
X65828552Y-84165319D01*
X65814330Y-84057291D01*
X65758861Y-83923375D01*
X65670621Y-83808379D01*
X65555625Y-83720139D01*
X65555621Y-83720137D01*
X65421709Y-83664670D01*
X65421708Y-83664669D01*
X65278000Y-83645750D01*
X65134291Y-83664669D01*
X65134290Y-83664670D01*
X65000378Y-83720137D01*
X65000374Y-83720139D01*
X64885381Y-83808377D01*
X64885377Y-83808381D01*
X64797139Y-83923374D01*
X64797137Y-83923378D01*
X64741670Y-84057290D01*
X64741669Y-84057291D01*
X64722750Y-84200999D01*
X64722750Y-84201000D01*
X64741669Y-84344708D01*
X64741670Y-84344709D01*
X64796275Y-84476541D01*
X64797139Y-84478625D01*
X64797141Y-84478628D01*
X64797142Y-84478629D01*
X64885375Y-84593617D01*
X64885377Y-84593618D01*
X64885379Y-84593621D01*
X64888763Y-84596217D01*
X64923421Y-84646638D01*
X64927500Y-84674762D01*
X64927500Y-84886219D01*
X64908593Y-84944410D01*
X64859093Y-84980374D01*
X64797907Y-84980374D01*
X64758496Y-84956223D01*
X63167496Y-83365223D01*
X63139719Y-83310706D01*
X63138500Y-83295219D01*
X63138500Y-81982700D01*
X63157407Y-81924509D01*
X63206907Y-81888545D01*
X63237500Y-81883700D01*
X65953405Y-81883700D01*
X65953407Y-81883700D01*
X66055268Y-81856407D01*
X66055270Y-81856405D01*
X66055272Y-81856405D01*
X66146588Y-81803683D01*
X66146588Y-81803682D01*
X66146593Y-81803680D01*
X66251498Y-81698774D01*
X66306013Y-81670998D01*
X66366445Y-81680569D01*
G37*
%TD.AperFunction*%
%TA.AperFunction,Conductor*%
G36*
X70708671Y-78753007D02*
G01*
X70744635Y-78802507D01*
X70744635Y-78863693D01*
X70708671Y-78913193D01*
X70688365Y-78924564D01*
X70639178Y-78944937D01*
X70639174Y-78944939D01*
X70524181Y-79033177D01*
X70524177Y-79033181D01*
X70435939Y-79148174D01*
X70435937Y-79148178D01*
X70380470Y-79282090D01*
X70380469Y-79282091D01*
X70361550Y-79425799D01*
X70361550Y-79425800D01*
X70380469Y-79569508D01*
X70380470Y-79569509D01*
X70435390Y-79702101D01*
X70435939Y-79703425D01*
X70435941Y-79703428D01*
X70435942Y-79703429D01*
X70524175Y-79818417D01*
X70524177Y-79818418D01*
X70524179Y-79818421D01*
X70527563Y-79821017D01*
X70562221Y-79871438D01*
X70566300Y-79899562D01*
X70566300Y-80464910D01*
X70547393Y-80523101D01*
X70497893Y-80559065D01*
X70436707Y-80559065D01*
X70387207Y-80523101D01*
X70373856Y-80497608D01*
X70355405Y-80444879D01*
X70276641Y-80338160D01*
X70276636Y-80338155D01*
X70169919Y-80259394D01*
X70072000Y-80225129D01*
X70072000Y-81420467D01*
X70169922Y-81386204D01*
X70276639Y-81307441D01*
X70276641Y-81307439D01*
X70355404Y-81200722D01*
X70373855Y-81147992D01*
X70410921Y-81099311D01*
X70469521Y-81081714D01*
X70527273Y-81101922D01*
X70562117Y-81152216D01*
X70566300Y-81180689D01*
X70566300Y-81551010D01*
X70547393Y-81609201D01*
X70537304Y-81621014D01*
X69721814Y-82436504D01*
X69667297Y-82464281D01*
X69651810Y-82465500D01*
X68495500Y-82465500D01*
X68437309Y-82446593D01*
X68401345Y-82397093D01*
X68396500Y-82366501D01*
X68396499Y-82202866D01*
X68396498Y-82202854D01*
X68393572Y-82180622D01*
X68390259Y-82155455D01*
X68368054Y-82107838D01*
X68360598Y-82047110D01*
X68368051Y-82024168D01*
X68390259Y-81976545D01*
X68396500Y-81929139D01*
X68396499Y-81702862D01*
X68390259Y-81655455D01*
X68390258Y-81655453D01*
X68389349Y-81652332D01*
X68389443Y-81649252D01*
X68389271Y-81647945D01*
X68389483Y-81647916D01*
X68391218Y-81591175D01*
X68395454Y-81581149D01*
X68435379Y-81499482D01*
X68444561Y-81436459D01*
X68471660Y-81381602D01*
X68525828Y-81353151D01*
X68586374Y-81361971D01*
X68587427Y-81362500D01*
X68599825Y-81368817D01*
X68691265Y-81383300D01*
X69032734Y-81383299D01*
X69032737Y-81383299D01*
X69059332Y-81379086D01*
X69124175Y-81368817D01*
X69234391Y-81312659D01*
X69234391Y-81312658D01*
X69234394Y-81312657D01*
X69240697Y-81308078D01*
X69241625Y-81309356D01*
X69288120Y-81285660D01*
X69348553Y-81295226D01*
X69362406Y-81303785D01*
X69474077Y-81386204D01*
X69572000Y-81420468D01*
X69572000Y-80225130D01*
X69571999Y-80225129D01*
X69474080Y-80259394D01*
X69362405Y-80341815D01*
X69304358Y-80361157D01*
X69246027Y-80342686D01*
X69235365Y-80333649D01*
X69234393Y-80332943D01*
X69234391Y-80332941D01*
X69124175Y-80276783D01*
X69124176Y-80276783D01*
X69032736Y-80262300D01*
X68691262Y-80262300D01*
X68599825Y-80276783D01*
X68599821Y-80276784D01*
X68489609Y-80332941D01*
X68489607Y-80332942D01*
X68436045Y-80386504D01*
X68381528Y-80414281D01*
X68366042Y-80415500D01*
X68211701Y-80415500D01*
X68153510Y-80396593D01*
X68117546Y-80347093D01*
X68117546Y-80285907D01*
X68141697Y-80246496D01*
X69625097Y-78763096D01*
X69679614Y-78735319D01*
X69695101Y-78734100D01*
X70650480Y-78734100D01*
X70708671Y-78753007D01*
G37*
%TD.AperFunction*%
%TA.AperFunction,Conductor*%
G36*
X62291391Y-77646073D02*
G01*
X62616504Y-77971186D01*
X62644281Y-78025703D01*
X62645500Y-78041190D01*
X62645500Y-78539664D01*
X62636225Y-78581503D01*
X62601742Y-78655451D01*
X62601741Y-78655456D01*
X62595500Y-78702862D01*
X62595500Y-80104134D01*
X62595501Y-80104145D01*
X62601740Y-80151543D01*
X62601741Y-80151545D01*
X62636054Y-80225130D01*
X62636724Y-80226565D01*
X62646000Y-80268405D01*
X62646000Y-80435257D01*
X62679480Y-80430380D01*
X62761149Y-80390454D01*
X62821731Y-80381882D01*
X62832332Y-80384348D01*
X62835447Y-80385255D01*
X62835455Y-80385259D01*
X62882861Y-80391500D01*
X63109138Y-80391499D01*
X63156545Y-80385259D01*
X63204161Y-80363054D01*
X63264888Y-80355598D01*
X63287836Y-80363053D01*
X63335455Y-80385259D01*
X63382861Y-80391500D01*
X63609138Y-80391499D01*
X63656545Y-80385259D01*
X63704161Y-80363054D01*
X63764888Y-80355598D01*
X63787836Y-80363053D01*
X63835455Y-80385259D01*
X63882861Y-80391500D01*
X64109138Y-80391499D01*
X64156545Y-80385259D01*
X64204161Y-80363054D01*
X64264888Y-80355598D01*
X64287836Y-80363053D01*
X64335455Y-80385259D01*
X64382861Y-80391500D01*
X64609138Y-80391499D01*
X64656545Y-80385259D01*
X64704161Y-80363054D01*
X64764888Y-80355598D01*
X64787836Y-80363053D01*
X64835455Y-80385259D01*
X64864555Y-80389090D01*
X64919779Y-80415429D01*
X64948975Y-80469199D01*
X64949786Y-80500164D01*
X64940750Y-80568799D01*
X64940750Y-80568800D01*
X64959669Y-80712508D01*
X64959670Y-80712509D01*
X65015137Y-80846421D01*
X65015139Y-80846425D01*
X65074229Y-80923432D01*
X65094653Y-80981108D01*
X65077276Y-81039774D01*
X65028734Y-81077021D01*
X64995687Y-81082700D01*
X62944901Y-81082700D01*
X62886710Y-81063793D01*
X62874897Y-81053704D01*
X62425496Y-80604303D01*
X62397719Y-80549786D01*
X62396500Y-80534299D01*
X62396500Y-78391514D01*
X62396501Y-78391501D01*
X62396501Y-78278072D01*
X62396500Y-78278070D01*
X62380772Y-78219375D01*
X62369207Y-78176213D01*
X62345684Y-78135470D01*
X62316480Y-78084887D01*
X62316479Y-78084885D01*
X62241921Y-78010327D01*
X62241915Y-78010322D01*
X62241913Y-78010320D01*
X62241911Y-78010318D01*
X62151894Y-77920302D01*
X62124118Y-77865786D01*
X62122899Y-77850299D01*
X62122899Y-77726466D01*
X62122693Y-77723852D01*
X62122899Y-77722993D01*
X62122899Y-77722576D01*
X62122999Y-77722576D01*
X62136972Y-77664356D01*
X62183494Y-77624616D01*
X62244490Y-77619811D01*
X62291391Y-77646073D01*
G37*
%TD.AperFunction*%
%TA.AperFunction,Conductor*%
G36*
X76237460Y-52235233D02*
G01*
X85380535Y-55973670D01*
X85427242Y-56013194D01*
X85428804Y-56015806D01*
X101721477Y-84235545D01*
X101734198Y-84295393D01*
X101733833Y-84298414D01*
X100399877Y-94085760D01*
X100373285Y-94140865D01*
X100362409Y-94150657D01*
X92714351Y-100074818D01*
X92656769Y-100095505D01*
X92598024Y-100078395D01*
X92560556Y-100030024D01*
X92554726Y-99996552D01*
X92554726Y-98240353D01*
X92554726Y-98240352D01*
X84151763Y-98240352D01*
X84151763Y-98240353D01*
X84151763Y-100121305D01*
X84132856Y-100179496D01*
X84083356Y-100215460D01*
X84052763Y-100220305D01*
X81392991Y-100220305D01*
X81334800Y-100201398D01*
X81298836Y-100151898D01*
X81295893Y-100101991D01*
X81319999Y-99980795D01*
X81320000Y-99980792D01*
X81320000Y-99852001D01*
X81319999Y-99852000D01*
X80820000Y-99852000D01*
X80820000Y-99352000D01*
X81319999Y-99352000D01*
X81320000Y-99351999D01*
X81320000Y-99223207D01*
X81319999Y-99223204D01*
X81289257Y-99068650D01*
X81228951Y-98923059D01*
X81228947Y-98923050D01*
X81141400Y-98792030D01*
X81141397Y-98792026D01*
X81029973Y-98680602D01*
X81029969Y-98680599D01*
X80925809Y-98611000D01*
X81775234Y-98611000D01*
X81781401Y-98668374D01*
X81781402Y-98668378D01*
X81831646Y-98803088D01*
X81831647Y-98803090D01*
X81917807Y-98918184D01*
X81917815Y-98918192D01*
X82032909Y-99004352D01*
X82032911Y-99004353D01*
X82167618Y-99054596D01*
X82167629Y-99054598D01*
X82227176Y-99061000D01*
X82299999Y-99061000D01*
X82300000Y-99060999D01*
X82300000Y-98611001D01*
X82800000Y-98611001D01*
X82800000Y-99060999D01*
X82800001Y-99061000D01*
X82872824Y-99061000D01*
X82932370Y-99054598D01*
X82932381Y-99054596D01*
X83067088Y-99004353D01*
X83067090Y-99004352D01*
X83182184Y-98918192D01*
X83182192Y-98918184D01*
X83268352Y-98803090D01*
X83268353Y-98803088D01*
X83318597Y-98668378D01*
X83318598Y-98668374D01*
X83324766Y-98611000D01*
X82800001Y-98611000D01*
X82800000Y-98611001D01*
X82300000Y-98611001D01*
X82299999Y-98611000D01*
X81775234Y-98611000D01*
X80925809Y-98611000D01*
X80898949Y-98593052D01*
X80898940Y-98593048D01*
X80770000Y-98539639D01*
X80770000Y-99135011D01*
X80760060Y-99117795D01*
X80704205Y-99061940D01*
X80635796Y-99022444D01*
X80559496Y-99002000D01*
X80480504Y-99002000D01*
X80404204Y-99022444D01*
X80335795Y-99061940D01*
X80279940Y-99117795D01*
X80270000Y-99135011D01*
X80270000Y-98539639D01*
X80141059Y-98593048D01*
X80141050Y-98593052D01*
X80010030Y-98680599D01*
X80010026Y-98680602D01*
X79898602Y-98792026D01*
X79898599Y-98792030D01*
X79811052Y-98923050D01*
X79811048Y-98923059D01*
X79750742Y-99068650D01*
X79720000Y-99223204D01*
X79720000Y-99351999D01*
X79720001Y-99352000D01*
X80220000Y-99352000D01*
X80220000Y-99852000D01*
X79720001Y-99852000D01*
X79720000Y-99852001D01*
X79720000Y-99980795D01*
X79744107Y-100101991D01*
X79736915Y-100162753D01*
X79695382Y-100207682D01*
X79647009Y-100220305D01*
X72752991Y-100220305D01*
X72694800Y-100201398D01*
X72658836Y-100151898D01*
X72655893Y-100101991D01*
X72679999Y-99980795D01*
X72680000Y-99980792D01*
X72680000Y-99852001D01*
X72679999Y-99852000D01*
X72180000Y-99852000D01*
X72180000Y-99352000D01*
X72679999Y-99352000D01*
X72680000Y-99351999D01*
X72680000Y-99223207D01*
X72679999Y-99223204D01*
X72649257Y-99068650D01*
X72588951Y-98923059D01*
X72588947Y-98923050D01*
X72501400Y-98792030D01*
X72501397Y-98792026D01*
X72389973Y-98680602D01*
X72389969Y-98680599D01*
X72258949Y-98593052D01*
X72258940Y-98593048D01*
X72130000Y-98539639D01*
X72130000Y-99135011D01*
X72120060Y-99117795D01*
X72064205Y-99061940D01*
X71995796Y-99022444D01*
X71919496Y-99002000D01*
X71840504Y-99002000D01*
X71764204Y-99022444D01*
X71695795Y-99061940D01*
X71639940Y-99117795D01*
X71630000Y-99135011D01*
X71630000Y-98539639D01*
X71501059Y-98593048D01*
X71501050Y-98593052D01*
X71370030Y-98680599D01*
X71370026Y-98680602D01*
X71258602Y-98792026D01*
X71258599Y-98792030D01*
X71171052Y-98923050D01*
X71171048Y-98923059D01*
X71110742Y-99068650D01*
X71080000Y-99223204D01*
X71080000Y-99351999D01*
X71080001Y-99352000D01*
X71580000Y-99352000D01*
X71580000Y-99852000D01*
X71080001Y-99852000D01*
X71080000Y-99852001D01*
X71080000Y-99980795D01*
X71104107Y-100101991D01*
X71096915Y-100162753D01*
X71055382Y-100207682D01*
X71007009Y-100220305D01*
X59907327Y-100220305D01*
X59849136Y-100201398D01*
X59846702Y-100199571D01*
X57795866Y-98611000D01*
X69075234Y-98611000D01*
X69081401Y-98668374D01*
X69081402Y-98668378D01*
X69131646Y-98803088D01*
X69131647Y-98803090D01*
X69217807Y-98918184D01*
X69217815Y-98918192D01*
X69332909Y-99004352D01*
X69332911Y-99004353D01*
X69467618Y-99054596D01*
X69467629Y-99054598D01*
X69527176Y-99061000D01*
X69599999Y-99061000D01*
X69600000Y-99060999D01*
X69600000Y-98611001D01*
X70100000Y-98611001D01*
X70100000Y-99060999D01*
X70100001Y-99061000D01*
X70172824Y-99061000D01*
X70232370Y-99054598D01*
X70232381Y-99054596D01*
X70367088Y-99004353D01*
X70367090Y-99004352D01*
X70482184Y-98918192D01*
X70482192Y-98918184D01*
X70568352Y-98803090D01*
X70568353Y-98803088D01*
X70618597Y-98668378D01*
X70618598Y-98668374D01*
X70624766Y-98611000D01*
X70100001Y-98611000D01*
X70100000Y-98611001D01*
X69600000Y-98611001D01*
X69599999Y-98611000D01*
X69075234Y-98611000D01*
X57795866Y-98611000D01*
X57150367Y-98110999D01*
X69075233Y-98110999D01*
X69075234Y-98111000D01*
X69599999Y-98111000D01*
X69600000Y-98110999D01*
X69600000Y-97661001D01*
X70100000Y-97661001D01*
X70100000Y-98110999D01*
X70100001Y-98111000D01*
X70624766Y-98111000D01*
X70624766Y-98110999D01*
X81775233Y-98110999D01*
X81775234Y-98111000D01*
X82299999Y-98111000D01*
X82300000Y-98110999D01*
X82300000Y-97661001D01*
X82800000Y-97661001D01*
X82800000Y-98110999D01*
X82800001Y-98111000D01*
X83324766Y-98111000D01*
X83324766Y-98110999D01*
X83318598Y-98053625D01*
X83318597Y-98053621D01*
X83268353Y-97918911D01*
X83268352Y-97918909D01*
X83182192Y-97803815D01*
X83182184Y-97803807D01*
X83067090Y-97717647D01*
X83067088Y-97717646D01*
X82932381Y-97667403D01*
X82932370Y-97667401D01*
X82872824Y-97661000D01*
X82800001Y-97661000D01*
X82800000Y-97661001D01*
X82300000Y-97661001D01*
X82299999Y-97661000D01*
X82227176Y-97661000D01*
X82167629Y-97667401D01*
X82167618Y-97667403D01*
X82032911Y-97717646D01*
X82032909Y-97717647D01*
X81917815Y-97803807D01*
X81917807Y-97803815D01*
X81831647Y-97918909D01*
X81831646Y-97918911D01*
X81781402Y-98053621D01*
X81781401Y-98053625D01*
X81775233Y-98110999D01*
X70624766Y-98110999D01*
X70618598Y-98053625D01*
X70618597Y-98053621D01*
X70568353Y-97918911D01*
X70568352Y-97918909D01*
X70482192Y-97803815D01*
X70482184Y-97803807D01*
X70367090Y-97717647D01*
X70367088Y-97717646D01*
X70232381Y-97667403D01*
X70232370Y-97667401D01*
X70172824Y-97661000D01*
X70100001Y-97661000D01*
X70100000Y-97661001D01*
X69600000Y-97661001D01*
X69599999Y-97661000D01*
X69527176Y-97661000D01*
X69467629Y-97667401D01*
X69467618Y-97667403D01*
X69332911Y-97717646D01*
X69332909Y-97717647D01*
X69217815Y-97803807D01*
X69217807Y-97803815D01*
X69131647Y-97918909D01*
X69131646Y-97918911D01*
X69081402Y-98053621D01*
X69081401Y-98053625D01*
X69075233Y-98110999D01*
X57150367Y-98110999D01*
X53992714Y-95665091D01*
X52037587Y-94150656D01*
X52003163Y-94100075D01*
X52000120Y-94085760D01*
X51996659Y-94060369D01*
X51810913Y-92697537D01*
X52944930Y-92697537D01*
X52944930Y-92910118D01*
X52978182Y-93120066D01*
X53043873Y-93322240D01*
X53140378Y-93511643D01*
X53140380Y-93511647D01*
X53265321Y-93683614D01*
X53265323Y-93683616D01*
X53265326Y-93683620D01*
X53415638Y-93833932D01*
X53415641Y-93833934D01*
X53415643Y-93833936D01*
X53587610Y-93958877D01*
X53587614Y-93958879D01*
X53777018Y-94055385D01*
X53979187Y-94121074D01*
X53979188Y-94121074D01*
X53979191Y-94121075D01*
X54189140Y-94154328D01*
X54189143Y-94154328D01*
X54401720Y-94154328D01*
X54611668Y-94121075D01*
X54611669Y-94121074D01*
X54611673Y-94121074D01*
X54813842Y-94055385D01*
X55003246Y-93958879D01*
X55175222Y-93833932D01*
X55325534Y-93683620D01*
X55424347Y-93547615D01*
X55450479Y-93511647D01*
X55450481Y-93511644D01*
X55546987Y-93322240D01*
X55612676Y-93120071D01*
X55612677Y-93120066D01*
X55645930Y-92910118D01*
X55645930Y-92697537D01*
X55612677Y-92487589D01*
X55611231Y-92483139D01*
X55546987Y-92285416D01*
X55450481Y-92096012D01*
X55450479Y-92096008D01*
X55325538Y-91924041D01*
X55325536Y-91924039D01*
X55325534Y-91924036D01*
X55175222Y-91773724D01*
X55175218Y-91773721D01*
X55175216Y-91773719D01*
X55003249Y-91648778D01*
X55003245Y-91648776D01*
X54813842Y-91552271D01*
X54611668Y-91486580D01*
X54401720Y-91453328D01*
X54401717Y-91453328D01*
X54189143Y-91453328D01*
X54189140Y-91453328D01*
X53979191Y-91486580D01*
X53777017Y-91552271D01*
X53587614Y-91648776D01*
X53587610Y-91648778D01*
X53415643Y-91773719D01*
X53265321Y-91924041D01*
X53140380Y-92096008D01*
X53140378Y-92096012D01*
X53043873Y-92285415D01*
X52978182Y-92487589D01*
X52944930Y-92697537D01*
X51810913Y-92697537D01*
X51105847Y-87524400D01*
X57390531Y-87524400D01*
X57390786Y-87527124D01*
X57434594Y-87652320D01*
X57513358Y-87759039D01*
X57513360Y-87759041D01*
X57620077Y-87837804D01*
X57718000Y-87872068D01*
X57718000Y-87524401D01*
X57717999Y-87524400D01*
X57390531Y-87524400D01*
X51105847Y-87524400D01*
X50666165Y-84298411D01*
X50677041Y-84238202D01*
X50678507Y-84235567D01*
X51206130Y-83321698D01*
X53877222Y-83321698D01*
X53877867Y-83328151D01*
X53877297Y-83328207D01*
X53878500Y-83338593D01*
X53878500Y-85263143D01*
X53898243Y-85336828D01*
X53900975Y-85347022D01*
X53902386Y-85352288D01*
X53948530Y-85432212D01*
X55112788Y-86596470D01*
X55112790Y-86596471D01*
X55182077Y-86636475D01*
X55182086Y-86636478D01*
X55182088Y-86636480D01*
X55192712Y-86642614D01*
X55281856Y-86666500D01*
X55281857Y-86666500D01*
X55374144Y-86666500D01*
X57408220Y-86666500D01*
X57466411Y-86685407D01*
X57502375Y-86734907D01*
X57502375Y-86796093D01*
X57487875Y-86824289D01*
X57434594Y-86896479D01*
X57390788Y-87021667D01*
X57390786Y-87021677D01*
X57390530Y-87024399D01*
X57390531Y-87024400D01*
X58119000Y-87024400D01*
X58177191Y-87043307D01*
X58213155Y-87092807D01*
X58218000Y-87123400D01*
X58218000Y-87872067D01*
X58315922Y-87837803D01*
X58427592Y-87755385D01*
X58485640Y-87736042D01*
X58543971Y-87754512D01*
X58554636Y-87763551D01*
X58555605Y-87764255D01*
X58555609Y-87764259D01*
X58665825Y-87820417D01*
X58757265Y-87834900D01*
X59098734Y-87834899D01*
X59098737Y-87834899D01*
X59125332Y-87830686D01*
X59190175Y-87820417D01*
X59300391Y-87764259D01*
X59387859Y-87676791D01*
X59444017Y-87566575D01*
X59458500Y-87475135D01*
X59458499Y-87279831D01*
X59461872Y-87254209D01*
X59484000Y-87171627D01*
X59484000Y-87066173D01*
X59484000Y-86815500D01*
X59502907Y-86757309D01*
X59552407Y-86721345D01*
X59583000Y-86716500D01*
X59976845Y-86716500D01*
X59976847Y-86716500D01*
X60075299Y-86690120D01*
X60136397Y-86693322D01*
X60183947Y-86731828D01*
X60199783Y-86790928D01*
X60177857Y-86848050D01*
X60170924Y-86855749D01*
X60150254Y-86876419D01*
X60150253Y-86876420D01*
X60150253Y-86876421D01*
X60130012Y-86919827D01*
X60101741Y-86980455D01*
X60095501Y-87027852D01*
X60095500Y-87027861D01*
X60095500Y-88429134D01*
X60095501Y-88429145D01*
X60101740Y-88476544D01*
X60101740Y-88476546D01*
X60150251Y-88580576D01*
X60150252Y-88580577D01*
X60150253Y-88580579D01*
X60231421Y-88661747D01*
X60335455Y-88710259D01*
X60382861Y-88716500D01*
X60609138Y-88716499D01*
X60656545Y-88710259D01*
X60704161Y-88688054D01*
X60764888Y-88680598D01*
X60787836Y-88688053D01*
X60835455Y-88710259D01*
X60882861Y-88716500D01*
X61109138Y-88716499D01*
X61156545Y-88710259D01*
X61204161Y-88688054D01*
X61264888Y-88680598D01*
X61287836Y-88688053D01*
X61335455Y-88710259D01*
X61382861Y-88716500D01*
X61546499Y-88716499D01*
X61604690Y-88735406D01*
X61640654Y-88784906D01*
X61645500Y-88815499D01*
X61645500Y-88934236D01*
X61626593Y-88992427D01*
X61606769Y-89012777D01*
X61603381Y-89015376D01*
X61515139Y-89130374D01*
X61515137Y-89130378D01*
X61459670Y-89264290D01*
X61459669Y-89264291D01*
X61440750Y-89407999D01*
X61440750Y-89408000D01*
X61459669Y-89551708D01*
X61459670Y-89551709D01*
X61511424Y-89676658D01*
X61515139Y-89685625D01*
X61603379Y-89800621D01*
X61718375Y-89888861D01*
X61852291Y-89944330D01*
X61996000Y-89963250D01*
X62139709Y-89944330D01*
X62273625Y-89888861D01*
X62388621Y-89800621D01*
X62476861Y-89685625D01*
X62532330Y-89551709D01*
X62551250Y-89408000D01*
X62532330Y-89264291D01*
X62476861Y-89130375D01*
X62388621Y-89015379D01*
X62388619Y-89015377D01*
X62388618Y-89015376D01*
X62385231Y-89012777D01*
X62350576Y-88962351D01*
X62346500Y-88934236D01*
X62346500Y-88815499D01*
X62365407Y-88757308D01*
X62414907Y-88721344D01*
X62445495Y-88716499D01*
X62609138Y-88716499D01*
X62656545Y-88710259D01*
X62704161Y-88688054D01*
X62764888Y-88680598D01*
X62787836Y-88688053D01*
X62835455Y-88710259D01*
X62882861Y-88716500D01*
X63109138Y-88716499D01*
X63156545Y-88710259D01*
X63204161Y-88688054D01*
X63264888Y-88680598D01*
X63287836Y-88688053D01*
X63335455Y-88710259D01*
X63382861Y-88716500D01*
X63546499Y-88716499D01*
X63604690Y-88735406D01*
X63640654Y-88784906D01*
X63645500Y-88815499D01*
X63645500Y-88880895D01*
X63653160Y-88909482D01*
X63657891Y-88927139D01*
X63667127Y-88961608D01*
X63670500Y-88987231D01*
X63670500Y-89785344D01*
X63694386Y-89874488D01*
X63740530Y-89954412D01*
X65223588Y-91437470D01*
X65265989Y-91461950D01*
X65289709Y-91475645D01*
X65293407Y-91477780D01*
X65303512Y-91483614D01*
X65392656Y-91507500D01*
X73380610Y-91507500D01*
X73438801Y-91526407D01*
X73450614Y-91536496D01*
X74231614Y-92317496D01*
X74259391Y-92372013D01*
X74249820Y-92432445D01*
X74206555Y-92475710D01*
X74161610Y-92486500D01*
X70692856Y-92486500D01*
X70668514Y-92493022D01*
X70614180Y-92507580D01*
X70614177Y-92507582D01*
X70603712Y-92510386D01*
X70523788Y-92556530D01*
X69569530Y-93510788D01*
X69530643Y-93578143D01*
X69523386Y-93590712D01*
X69520523Y-93601399D01*
X69499500Y-93679857D01*
X69499500Y-95989890D01*
X69480593Y-96048081D01*
X69433199Y-96083334D01*
X69362115Y-96108207D01*
X69252855Y-96188845D01*
X69252845Y-96188855D01*
X69172207Y-96298116D01*
X69127355Y-96426296D01*
X69127353Y-96426305D01*
X69124500Y-96456725D01*
X69124500Y-96965274D01*
X69127353Y-96995694D01*
X69127355Y-96995703D01*
X69172207Y-97123883D01*
X69252845Y-97233144D01*
X69252847Y-97233146D01*
X69252850Y-97233150D01*
X69252853Y-97233152D01*
X69252855Y-97233154D01*
X69362116Y-97313792D01*
X69362117Y-97313792D01*
X69362118Y-97313793D01*
X69490301Y-97358646D01*
X69520725Y-97361499D01*
X69520727Y-97361500D01*
X69520734Y-97361500D01*
X70179273Y-97361500D01*
X70179273Y-97361499D01*
X70209699Y-97358646D01*
X70337882Y-97313793D01*
X70447150Y-97233150D01*
X70527793Y-97123882D01*
X70572646Y-96995699D01*
X70575499Y-96965273D01*
X70575500Y-96965273D01*
X70575500Y-96456727D01*
X70575499Y-96456725D01*
X70572646Y-96426305D01*
X70572646Y-96426301D01*
X70527793Y-96298118D01*
X70508517Y-96272000D01*
X70447154Y-96188855D01*
X70447152Y-96188853D01*
X70447150Y-96188850D01*
X70447146Y-96188847D01*
X70447144Y-96188845D01*
X70337884Y-96108207D01*
X70266801Y-96083334D01*
X70218121Y-96046268D01*
X70200500Y-95989890D01*
X70200500Y-93912190D01*
X70219407Y-93853999D01*
X70229496Y-93842186D01*
X70855186Y-93216496D01*
X70909703Y-93188719D01*
X70925190Y-93187500D01*
X74068811Y-93187500D01*
X74127002Y-93206407D01*
X74138808Y-93216490D01*
X74287817Y-93365498D01*
X74293237Y-93370918D01*
X74321014Y-93425435D01*
X74311443Y-93485867D01*
X74268178Y-93529132D01*
X74242549Y-93538019D01*
X74194316Y-93547614D01*
X74155685Y-93547615D01*
X74147741Y-93546034D01*
X74147740Y-93546034D01*
X74074674Y-93531500D01*
X73446276Y-93531500D01*
X73406289Y-93523065D01*
X73319874Y-93484910D01*
X73319872Y-93484909D01*
X73294797Y-93482000D01*
X73200001Y-93482000D01*
X73200000Y-93482001D01*
X73200000Y-93747384D01*
X73199524Y-93757083D01*
X73199500Y-93757326D01*
X73199500Y-94658000D01*
X73180593Y-94716191D01*
X73131093Y-94752155D01*
X73100500Y-94757000D01*
X72406000Y-94757000D01*
X72347809Y-94738093D01*
X72311845Y-94688593D01*
X72307000Y-94658000D01*
X72307000Y-94356000D01*
X72325907Y-94297809D01*
X72375407Y-94261845D01*
X72406000Y-94257000D01*
X72699999Y-94257000D01*
X72700000Y-94256999D01*
X72700000Y-93482000D01*
X72605210Y-93482000D01*
X72605207Y-93482001D01*
X72580125Y-93484909D01*
X72477522Y-93530213D01*
X72398213Y-93609522D01*
X72352909Y-93712127D01*
X72350000Y-93737202D01*
X72350000Y-94052602D01*
X72331093Y-94110793D01*
X72281593Y-94146757D01*
X72220407Y-94146757D01*
X72213115Y-94144066D01*
X72130000Y-94109639D01*
X72130000Y-94705011D01*
X72120060Y-94687795D01*
X72064205Y-94631940D01*
X71995796Y-94592444D01*
X71919496Y-94572000D01*
X71840504Y-94572000D01*
X71764204Y-94592444D01*
X71695795Y-94631940D01*
X71639940Y-94687795D01*
X71630000Y-94705011D01*
X71630000Y-94109639D01*
X71501059Y-94163048D01*
X71501050Y-94163052D01*
X71370030Y-94250599D01*
X71370026Y-94250602D01*
X71258602Y-94362026D01*
X71258599Y-94362030D01*
X71171052Y-94493050D01*
X71171048Y-94493059D01*
X71110742Y-94638650D01*
X71080000Y-94793204D01*
X71080000Y-95171999D01*
X71080001Y-95172000D01*
X71580000Y-95172000D01*
X71580000Y-95672000D01*
X71080001Y-95672000D01*
X71080000Y-95672001D01*
X71080000Y-96050795D01*
X71110742Y-96205349D01*
X71171048Y-96350940D01*
X71171052Y-96350949D01*
X71258599Y-96481969D01*
X71258602Y-96481973D01*
X71370026Y-96593397D01*
X71370030Y-96593400D01*
X71501058Y-96680951D01*
X71629999Y-96734360D01*
X71630000Y-96734359D01*
X71630000Y-96138988D01*
X71639940Y-96156205D01*
X71695795Y-96212060D01*
X71764204Y-96251556D01*
X71840504Y-96272000D01*
X71919496Y-96272000D01*
X71995796Y-96251556D01*
X72064205Y-96212060D01*
X72120060Y-96156205D01*
X72130000Y-96138988D01*
X72130000Y-96734360D01*
X72258941Y-96680951D01*
X72389969Y-96593400D01*
X72389973Y-96593397D01*
X72501397Y-96481973D01*
X72501400Y-96481969D01*
X72588947Y-96350949D01*
X72588953Y-96350937D01*
X72631953Y-96247125D01*
X72671689Y-96200599D01*
X72731184Y-96186315D01*
X72787712Y-96209729D01*
X72809153Y-96235510D01*
X72849481Y-96305360D01*
X72849483Y-96305362D01*
X72849485Y-96305365D01*
X72956635Y-96412515D01*
X72956637Y-96412516D01*
X72956639Y-96412518D01*
X73087861Y-96488279D01*
X73087859Y-96488279D01*
X73087863Y-96488280D01*
X73087865Y-96488281D01*
X73234234Y-96527500D01*
X73234236Y-96527500D01*
X73385764Y-96527500D01*
X73385766Y-96527500D01*
X73532135Y-96488281D01*
X73532137Y-96488279D01*
X73532139Y-96488279D01*
X73663360Y-96412518D01*
X73663360Y-96412517D01*
X73663365Y-96412515D01*
X73770515Y-96305365D01*
X73834760Y-96194088D01*
X73880228Y-96153150D01*
X73941078Y-96146754D01*
X73990499Y-96173587D01*
X74298882Y-96481969D01*
X74582823Y-96765910D01*
X74582825Y-96765913D01*
X74657392Y-96840480D01*
X74657394Y-96840481D01*
X74748714Y-96893205D01*
X74748718Y-96893207D01*
X74850575Y-96920500D01*
X74850577Y-96920501D01*
X74850578Y-96920501D01*
X74962095Y-96920501D01*
X74962111Y-96920500D01*
X77549420Y-96920500D01*
X77549422Y-96920500D01*
X77651283Y-96893207D01*
X77651285Y-96893205D01*
X77651287Y-96893205D01*
X77742603Y-96840483D01*
X77742603Y-96840482D01*
X77742608Y-96840480D01*
X78409499Y-96173586D01*
X78464016Y-96145809D01*
X78524448Y-96155380D01*
X78565239Y-96194090D01*
X78629481Y-96305360D01*
X78629483Y-96305362D01*
X78629485Y-96305365D01*
X78736635Y-96412515D01*
X78736637Y-96412516D01*
X78736639Y-96412518D01*
X78867861Y-96488279D01*
X78867859Y-96488279D01*
X78867863Y-96488280D01*
X78867865Y-96488281D01*
X79014234Y-96527500D01*
X79014236Y-96527500D01*
X79165764Y-96527500D01*
X79165766Y-96527500D01*
X79312135Y-96488281D01*
X79312137Y-96488279D01*
X79312139Y-96488279D01*
X79443360Y-96412518D01*
X79443360Y-96412517D01*
X79443365Y-96412515D01*
X79550515Y-96305365D01*
X79590847Y-96235508D01*
X79636315Y-96194569D01*
X79697165Y-96188173D01*
X79750153Y-96218766D01*
X79768046Y-96247124D01*
X79811048Y-96350940D01*
X79811052Y-96350949D01*
X79898599Y-96481969D01*
X79898602Y-96481973D01*
X80010026Y-96593397D01*
X80010030Y-96593400D01*
X80141058Y-96680951D01*
X80269999Y-96734360D01*
X80270000Y-96734359D01*
X80270000Y-96138988D01*
X80279940Y-96156205D01*
X80335795Y-96212060D01*
X80404204Y-96251556D01*
X80480504Y-96272000D01*
X80559496Y-96272000D01*
X80635796Y-96251556D01*
X80704205Y-96212060D01*
X80760060Y-96156205D01*
X80770000Y-96138988D01*
X80770000Y-96734360D01*
X80898941Y-96680951D01*
X81029969Y-96593400D01*
X81029973Y-96593397D01*
X81141397Y-96481973D01*
X81141400Y-96481969D01*
X81158268Y-96456725D01*
X81824500Y-96456725D01*
X81824500Y-96965274D01*
X81827353Y-96995694D01*
X81827355Y-96995703D01*
X81872207Y-97123883D01*
X81952845Y-97233144D01*
X81952847Y-97233146D01*
X81952850Y-97233150D01*
X81952853Y-97233152D01*
X81952855Y-97233154D01*
X82062116Y-97313792D01*
X82062117Y-97313792D01*
X82062118Y-97313793D01*
X82190301Y-97358646D01*
X82220725Y-97361499D01*
X82220727Y-97361500D01*
X82220734Y-97361500D01*
X82879273Y-97361500D01*
X82879273Y-97361499D01*
X82909699Y-97358646D01*
X83037882Y-97313793D01*
X83147150Y-97233150D01*
X83227793Y-97123882D01*
X83272646Y-96995699D01*
X83275499Y-96965273D01*
X83275500Y-96965273D01*
X83275500Y-96456727D01*
X83275499Y-96456725D01*
X83272646Y-96426305D01*
X83272646Y-96426301D01*
X83227793Y-96298118D01*
X83208517Y-96272000D01*
X83147154Y-96188855D01*
X83147152Y-96188853D01*
X83147150Y-96188850D01*
X83147146Y-96188847D01*
X83147144Y-96188845D01*
X83068455Y-96130770D01*
X83032862Y-96081002D01*
X83033320Y-96019819D01*
X83035779Y-96013230D01*
X83037820Y-96008300D01*
X83060930Y-95952509D01*
X83079850Y-95808800D01*
X83060930Y-95665091D01*
X83005461Y-95531175D01*
X82917221Y-95416179D01*
X82802225Y-95327939D01*
X82802221Y-95327937D01*
X82668309Y-95272470D01*
X82668308Y-95272469D01*
X82524600Y-95253550D01*
X82380891Y-95272469D01*
X82380890Y-95272470D01*
X82246978Y-95327937D01*
X82246974Y-95327939D01*
X82131981Y-95416177D01*
X82131977Y-95416181D01*
X82043739Y-95531174D01*
X82043737Y-95531178D01*
X81988270Y-95665090D01*
X81988269Y-95665091D01*
X81979742Y-95729865D01*
X81969350Y-95808800D01*
X81988270Y-95952509D01*
X82019442Y-96027766D01*
X82025315Y-96041944D01*
X82030114Y-96102941D01*
X81998144Y-96155110D01*
X81992639Y-96159483D01*
X81952855Y-96188845D01*
X81952845Y-96188855D01*
X81872207Y-96298116D01*
X81827355Y-96426296D01*
X81827353Y-96426305D01*
X81824500Y-96456725D01*
X81158268Y-96456725D01*
X81228947Y-96350949D01*
X81228951Y-96350940D01*
X81289257Y-96205349D01*
X81319999Y-96050795D01*
X81320000Y-96050792D01*
X81320000Y-95672001D01*
X81319999Y-95672000D01*
X80820000Y-95672000D01*
X80820000Y-95172000D01*
X81319999Y-95172000D01*
X81320000Y-95171999D01*
X81320000Y-94793207D01*
X81319999Y-94793204D01*
X81289257Y-94638650D01*
X81228951Y-94493059D01*
X81228947Y-94493050D01*
X81141400Y-94362030D01*
X81141397Y-94362026D01*
X81029973Y-94250602D01*
X81029969Y-94250599D01*
X80898949Y-94163052D01*
X80898940Y-94163048D01*
X80770000Y-94109639D01*
X80770000Y-94705011D01*
X80760060Y-94687795D01*
X80704205Y-94631940D01*
X80635796Y-94592444D01*
X80559496Y-94572000D01*
X80480504Y-94572000D01*
X80404204Y-94592444D01*
X80335795Y-94631940D01*
X80279940Y-94687795D01*
X80270000Y-94705011D01*
X80270000Y-94109639D01*
X80269999Y-94109638D01*
X80186884Y-94144066D01*
X80125887Y-94148866D01*
X80073718Y-94116897D01*
X80050304Y-94060369D01*
X80049999Y-94052602D01*
X80049999Y-93737210D01*
X80049998Y-93737208D01*
X80047090Y-93712125D01*
X80001786Y-93609522D01*
X79922477Y-93530213D01*
X79819872Y-93484909D01*
X79794797Y-93482000D01*
X79700001Y-93482000D01*
X79700000Y-93482001D01*
X79700000Y-94658000D01*
X79681093Y-94716191D01*
X79631593Y-94752155D01*
X79601000Y-94757000D01*
X79299500Y-94757000D01*
X79241309Y-94738093D01*
X79205345Y-94688593D01*
X79200500Y-94658000D01*
X79200500Y-93757326D01*
X79200476Y-93757083D01*
X79200000Y-93747384D01*
X79200000Y-93482000D01*
X79149500Y-93482000D01*
X79091309Y-93463093D01*
X79055345Y-93413593D01*
X79050500Y-93383000D01*
X79050500Y-92544172D01*
X79069407Y-92485981D01*
X79118907Y-92450017D01*
X79180093Y-92450017D01*
X79187364Y-92452699D01*
X79263727Y-92484330D01*
X79407436Y-92503250D01*
X79551145Y-92484330D01*
X79685061Y-92428861D01*
X79800057Y-92340621D01*
X79888297Y-92225625D01*
X79943766Y-92091709D01*
X79945758Y-92076576D01*
X79972099Y-92021352D01*
X80025869Y-91992157D01*
X80043911Y-91990499D01*
X80961521Y-91990499D01*
X80961522Y-91990498D01*
X81008411Y-91983072D01*
X81055299Y-91975647D01*
X81055304Y-91975646D01*
X81077791Y-91964188D01*
X81134856Y-91935111D01*
X81195287Y-91925540D01*
X81249804Y-91953317D01*
X81277582Y-92007833D01*
X81268011Y-92068265D01*
X81268011Y-92068266D01*
X81244354Y-92114696D01*
X81229500Y-92208477D01*
X81229500Y-92571520D01*
X81229501Y-92571523D01*
X81244352Y-92665299D01*
X81244354Y-92665304D01*
X81301950Y-92778342D01*
X81391658Y-92868050D01*
X81504696Y-92925646D01*
X81598481Y-92940500D01*
X82836518Y-92940499D01*
X82836521Y-92940499D01*
X82836522Y-92940498D01*
X82883411Y-92933072D01*
X82930299Y-92925647D01*
X82930299Y-92925646D01*
X82930304Y-92925646D01*
X83043342Y-92868050D01*
X83133050Y-92778342D01*
X83133051Y-92778339D01*
X83138559Y-92772832D01*
X83140242Y-92774515D01*
X83180399Y-92745344D01*
X83210987Y-92740500D01*
X83218165Y-92740500D01*
X83276356Y-92759407D01*
X83307105Y-92796018D01*
X83316924Y-92816102D01*
X83394820Y-92893998D01*
X83422596Y-92948513D01*
X83413025Y-93008945D01*
X83394821Y-93034000D01*
X83338518Y-93090304D01*
X83316923Y-93111899D01*
X83312928Y-93120071D01*
X83260418Y-93227482D01*
X83249500Y-93302418D01*
X83249500Y-93645582D01*
X83260418Y-93720518D01*
X83316924Y-93836102D01*
X83407898Y-93927076D01*
X83523482Y-93983582D01*
X83598418Y-93994500D01*
X83598421Y-93994500D01*
X84041578Y-93994500D01*
X84041582Y-93994500D01*
X84116518Y-93983582D01*
X84232102Y-93927076D01*
X84305683Y-93853494D01*
X84360198Y-93825719D01*
X84375685Y-93824500D01*
X85055642Y-93824500D01*
X85055644Y-93824500D01*
X85144788Y-93800614D01*
X85224712Y-93754470D01*
X85645914Y-93333267D01*
X85700429Y-93305492D01*
X85760860Y-93315062D01*
X85830696Y-93350646D01*
X85924481Y-93365500D01*
X86287518Y-93365499D01*
X86287520Y-93365499D01*
X86287521Y-93365498D01*
X86343576Y-93356621D01*
X86381299Y-93350647D01*
X86381299Y-93350646D01*
X86381304Y-93350646D01*
X86494342Y-93293050D01*
X86584050Y-93203342D01*
X86641646Y-93090304D01*
X86656500Y-92996519D01*
X86656500Y-92697537D01*
X96754070Y-92697537D01*
X96754070Y-92910118D01*
X96787322Y-93120066D01*
X96853013Y-93322240D01*
X96949518Y-93511643D01*
X96949520Y-93511647D01*
X97074461Y-93683614D01*
X97074463Y-93683616D01*
X97074466Y-93683620D01*
X97224778Y-93833932D01*
X97224781Y-93833934D01*
X97224783Y-93833936D01*
X97396750Y-93958877D01*
X97396754Y-93958879D01*
X97586158Y-94055385D01*
X97788327Y-94121074D01*
X97788328Y-94121074D01*
X97788331Y-94121075D01*
X97998280Y-94154328D01*
X97998283Y-94154328D01*
X98210860Y-94154328D01*
X98420808Y-94121075D01*
X98420809Y-94121074D01*
X98420813Y-94121074D01*
X98622982Y-94055385D01*
X98812386Y-93958879D01*
X98984362Y-93833932D01*
X99134674Y-93683620D01*
X99233487Y-93547615D01*
X99259619Y-93511647D01*
X99259621Y-93511644D01*
X99356127Y-93322240D01*
X99421816Y-93120071D01*
X99421817Y-93120066D01*
X99455070Y-92910118D01*
X99455070Y-92697537D01*
X99421817Y-92487589D01*
X99420371Y-92483139D01*
X99356127Y-92285416D01*
X99259621Y-92096012D01*
X99259619Y-92096008D01*
X99134678Y-91924041D01*
X99134676Y-91924039D01*
X99134674Y-91924036D01*
X98984362Y-91773724D01*
X98984358Y-91773721D01*
X98984356Y-91773719D01*
X98812389Y-91648778D01*
X98812385Y-91648776D01*
X98622982Y-91552271D01*
X98420808Y-91486580D01*
X98210860Y-91453328D01*
X98210857Y-91453328D01*
X97998283Y-91453328D01*
X97998280Y-91453328D01*
X97788331Y-91486580D01*
X97586157Y-91552271D01*
X97396754Y-91648776D01*
X97396750Y-91648778D01*
X97224783Y-91773719D01*
X97074461Y-91924041D01*
X96949520Y-92096008D01*
X96949518Y-92096012D01*
X96853013Y-92285415D01*
X96787322Y-92487589D01*
X96754070Y-92697537D01*
X86656500Y-92697537D01*
X86656499Y-91758482D01*
X86656499Y-91758481D01*
X86656499Y-91758478D01*
X86656498Y-91758476D01*
X86641647Y-91664700D01*
X86641646Y-91664698D01*
X86641646Y-91664696D01*
X86601111Y-91585143D01*
X86591540Y-91524712D01*
X86619317Y-91470195D01*
X86673833Y-91442417D01*
X86734264Y-91451987D01*
X86780696Y-91475646D01*
X86874481Y-91490500D01*
X87237518Y-91490499D01*
X87237520Y-91490499D01*
X87237521Y-91490498D01*
X87284411Y-91483072D01*
X87331299Y-91475647D01*
X87331299Y-91475646D01*
X87331304Y-91475646D01*
X87444342Y-91418050D01*
X87534050Y-91328342D01*
X87591646Y-91215304D01*
X87606500Y-91121519D01*
X87606499Y-89883482D01*
X87606499Y-89883478D01*
X87606498Y-89883476D01*
X87591647Y-89789700D01*
X87591646Y-89789698D01*
X87591646Y-89789696D01*
X87534050Y-89676658D01*
X87444342Y-89586950D01*
X87331304Y-89529354D01*
X87331305Y-89529354D01*
X87237522Y-89514500D01*
X86874479Y-89514500D01*
X86874476Y-89514501D01*
X86780700Y-89529352D01*
X86780694Y-89529354D01*
X86710860Y-89564936D01*
X86650428Y-89574507D01*
X86595913Y-89546730D01*
X86174714Y-89125532D01*
X86174712Y-89125530D01*
X86094788Y-89079386D01*
X86005644Y-89055500D01*
X86005642Y-89055500D01*
X84375685Y-89055500D01*
X84317494Y-89036593D01*
X84305687Y-89026509D01*
X84232102Y-88952924D01*
X84116518Y-88896418D01*
X84041582Y-88885500D01*
X83598418Y-88885500D01*
X83523482Y-88896418D01*
X83407899Y-88952923D01*
X83316921Y-89043901D01*
X83308440Y-89061251D01*
X83265897Y-89105225D01*
X83205631Y-89115794D01*
X83150663Y-89088921D01*
X83121988Y-89034871D01*
X83120500Y-89017770D01*
X83120500Y-88984421D01*
X83120500Y-88984418D01*
X83109582Y-88909482D01*
X83086861Y-88863005D01*
X88212310Y-88863005D01*
X88232864Y-88898605D01*
X88283819Y-88966599D01*
X88283822Y-88966602D01*
X88396799Y-89056398D01*
X88396803Y-89056400D01*
X88529815Y-89112384D01*
X88529814Y-89112384D01*
X88673004Y-89130408D01*
X88673008Y-89130407D01*
X88815749Y-89109129D01*
X88815755Y-89109127D01*
X88893866Y-89075727D01*
X88893881Y-89075719D01*
X88907822Y-89067670D01*
X88645322Y-88613005D01*
X88212310Y-88863005D01*
X83086861Y-88863005D01*
X83053076Y-88793898D01*
X83009561Y-88750383D01*
X82981786Y-88695869D01*
X82991357Y-88635437D01*
X83020779Y-88600727D01*
X83046060Y-88582068D01*
X83046065Y-88582063D01*
X83123935Y-88476553D01*
X83155623Y-88386000D01*
X81944377Y-88386000D01*
X81976064Y-88476553D01*
X82053934Y-88582063D01*
X82058367Y-88586496D01*
X82086144Y-88641013D01*
X82076573Y-88701445D01*
X82033308Y-88744710D01*
X81988363Y-88755500D01*
X81654681Y-88755500D01*
X81596490Y-88736593D01*
X81584677Y-88726504D01*
X81031697Y-88173523D01*
X87887072Y-88173523D01*
X87887073Y-88173527D01*
X87908351Y-88316268D01*
X87908352Y-88316270D01*
X87941756Y-88394389D01*
X87941765Y-88394407D01*
X87962310Y-88429992D01*
X87962311Y-88429992D01*
X88395323Y-88179992D01*
X88132823Y-87725329D01*
X88118883Y-87733378D01*
X88050877Y-87784342D01*
X87961082Y-87897318D01*
X87961080Y-87897322D01*
X87905096Y-88030334D01*
X87887072Y-88173523D01*
X81031697Y-88173523D01*
X80744174Y-87886000D01*
X81944377Y-87886000D01*
X82299999Y-87886000D01*
X82300000Y-87885999D01*
X82800000Y-87885999D01*
X82800001Y-87886000D01*
X83155622Y-87886000D01*
X83123935Y-87795446D01*
X83046065Y-87689936D01*
X83046063Y-87689934D01*
X82940554Y-87612064D01*
X82816789Y-87568757D01*
X82816788Y-87568756D01*
X82800000Y-87567182D01*
X82800000Y-87885999D01*
X82300000Y-87885999D01*
X82300000Y-87567182D01*
X82283211Y-87568756D01*
X82283210Y-87568757D01*
X82159445Y-87612064D01*
X82053936Y-87689934D01*
X82053934Y-87689936D01*
X81976064Y-87795446D01*
X81944377Y-87886000D01*
X80744174Y-87886000D01*
X80725650Y-87867476D01*
X80697873Y-87812959D01*
X80706111Y-87759401D01*
X80704752Y-87758875D01*
X80706400Y-87754617D01*
X80706405Y-87754608D01*
X80764756Y-87549529D01*
X80784429Y-87337219D01*
X80764756Y-87124909D01*
X80706405Y-86919830D01*
X80662176Y-86831005D01*
X86942310Y-86831005D01*
X86962864Y-86866605D01*
X87013819Y-86934599D01*
X87013822Y-86934602D01*
X87126799Y-87024398D01*
X87126803Y-87024400D01*
X87259815Y-87080384D01*
X87259814Y-87080384D01*
X87403004Y-87098408D01*
X87403008Y-87098407D01*
X87545749Y-87077129D01*
X87545755Y-87077127D01*
X87623866Y-87043727D01*
X87623881Y-87043719D01*
X87637822Y-87035670D01*
X87375322Y-86581005D01*
X86942310Y-86831005D01*
X80662176Y-86831005D01*
X80611366Y-86728964D01*
X80482872Y-86558812D01*
X80428623Y-86509358D01*
X80325307Y-86415171D01*
X80325300Y-86415165D01*
X80144024Y-86302924D01*
X80144019Y-86302921D01*
X80068745Y-86273760D01*
X79945198Y-86225898D01*
X79945197Y-86225897D01*
X79945195Y-86225897D01*
X79735610Y-86186719D01*
X79522390Y-86186719D01*
X79312804Y-86225897D01*
X79113980Y-86302921D01*
X79113975Y-86302924D01*
X78932699Y-86415165D01*
X78932692Y-86415171D01*
X78775135Y-86558805D01*
X78775131Y-86558808D01*
X78775128Y-86558812D01*
X78775125Y-86558816D01*
X78646635Y-86728962D01*
X78646630Y-86728971D01*
X78574621Y-86873587D01*
X78531759Y-86917249D01*
X78471418Y-86927379D01*
X78416647Y-86900107D01*
X78397379Y-86873587D01*
X78368455Y-86815500D01*
X78325366Y-86728964D01*
X78196872Y-86558812D01*
X78142623Y-86509358D01*
X78039307Y-86415171D01*
X78039300Y-86415165D01*
X77858024Y-86302924D01*
X77858019Y-86302921D01*
X77756737Y-86263684D01*
X77709306Y-86225032D01*
X77693500Y-86171369D01*
X77693500Y-86141523D01*
X86617072Y-86141523D01*
X86617073Y-86141527D01*
X86638351Y-86284267D01*
X86671756Y-86362389D01*
X86671765Y-86362407D01*
X86692310Y-86397992D01*
X86692311Y-86397992D01*
X87125323Y-86147992D01*
X86862823Y-85693329D01*
X86848883Y-85701378D01*
X86780877Y-85752342D01*
X86691082Y-85865318D01*
X86691080Y-85865322D01*
X86635096Y-85998334D01*
X86617072Y-86141523D01*
X77693500Y-86141523D01*
X77693500Y-85932857D01*
X77692503Y-85929137D01*
X77669614Y-85843712D01*
X77656790Y-85821500D01*
X77656789Y-85821498D01*
X77656789Y-85821497D01*
X77630300Y-85775618D01*
X77623470Y-85763788D01*
X77087496Y-85227814D01*
X77059719Y-85173297D01*
X77058500Y-85157810D01*
X77058500Y-84293762D01*
X77077407Y-84235571D01*
X77097234Y-84215219D01*
X77100621Y-84212621D01*
X77188861Y-84097625D01*
X77244330Y-83963709D01*
X77263250Y-83820000D01*
X77262053Y-83810911D01*
X77244330Y-83676291D01*
X77188861Y-83542375D01*
X77100621Y-83427379D01*
X76985625Y-83339139D01*
X76985621Y-83339137D01*
X76851709Y-83283670D01*
X76851708Y-83283669D01*
X76708000Y-83264750D01*
X76564291Y-83283669D01*
X76564290Y-83283670D01*
X76430378Y-83339137D01*
X76430374Y-83339139D01*
X76315381Y-83427377D01*
X76315377Y-83427381D01*
X76227139Y-83542374D01*
X76227137Y-83542378D01*
X76171670Y-83676290D01*
X76171669Y-83676291D01*
X76152750Y-83819999D01*
X76152750Y-83820000D01*
X76171669Y-83963708D01*
X76171670Y-83963709D01*
X76219009Y-84077999D01*
X76227139Y-84097625D01*
X76227141Y-84097628D01*
X76227142Y-84097629D01*
X76315375Y-84212617D01*
X76315377Y-84212618D01*
X76315379Y-84212621D01*
X76318763Y-84215217D01*
X76353421Y-84265638D01*
X76357500Y-84293762D01*
X76357500Y-84894500D01*
X76338593Y-84952691D01*
X76289093Y-84988655D01*
X76258500Y-84993500D01*
X71073856Y-84993500D01*
X70984712Y-85017386D01*
X70904788Y-85063530D01*
X68553526Y-87414792D01*
X68543145Y-87432773D01*
X68497675Y-87473713D01*
X68436824Y-87480107D01*
X68383837Y-87449513D01*
X68377755Y-87442059D01*
X68346244Y-87399363D01*
X68346236Y-87399355D01*
X68239519Y-87320594D01*
X68141600Y-87286329D01*
X68141600Y-88481668D01*
X68239524Y-88447403D01*
X68325711Y-88383793D01*
X68383758Y-88364450D01*
X68442089Y-88382921D01*
X68478423Y-88432150D01*
X68483500Y-88463447D01*
X68483500Y-88934236D01*
X68464593Y-88992427D01*
X68444769Y-89012777D01*
X68441381Y-89015376D01*
X68353139Y-89130374D01*
X68353137Y-89130378D01*
X68297670Y-89264290D01*
X68297669Y-89264291D01*
X68278750Y-89407999D01*
X68278750Y-89408000D01*
X68297669Y-89551708D01*
X68297670Y-89551709D01*
X68349424Y-89676658D01*
X68353139Y-89685625D01*
X68441379Y-89800621D01*
X68556375Y-89888861D01*
X68690291Y-89944330D01*
X68834000Y-89963250D01*
X68977709Y-89944330D01*
X69111625Y-89888861D01*
X69226621Y-89800621D01*
X69314861Y-89685625D01*
X69370330Y-89551709D01*
X69389250Y-89408000D01*
X69370330Y-89264291D01*
X69314861Y-89130375D01*
X69226621Y-89015379D01*
X69226619Y-89015377D01*
X69226618Y-89015376D01*
X69223231Y-89012777D01*
X69188576Y-88962351D01*
X69184500Y-88934236D01*
X69184500Y-87816190D01*
X69203407Y-87757999D01*
X69213496Y-87746186D01*
X71236186Y-85723496D01*
X71290703Y-85695719D01*
X71306190Y-85694500D01*
X76521810Y-85694500D01*
X76580001Y-85713407D01*
X76591814Y-85723496D01*
X76963504Y-86095186D01*
X76991281Y-86149703D01*
X76992500Y-86165190D01*
X76992500Y-86171369D01*
X76973593Y-86229560D01*
X76929263Y-86263684D01*
X76827980Y-86302921D01*
X76827975Y-86302924D01*
X76646699Y-86415165D01*
X76646692Y-86415171D01*
X76489135Y-86558805D01*
X76489131Y-86558808D01*
X76489128Y-86558812D01*
X76489125Y-86558816D01*
X76360635Y-86728962D01*
X76360630Y-86728971D01*
X76288621Y-86873587D01*
X76245759Y-86917249D01*
X76185418Y-86927379D01*
X76130647Y-86900107D01*
X76111379Y-86873587D01*
X76082455Y-86815500D01*
X76039366Y-86728964D01*
X75910872Y-86558812D01*
X75856623Y-86509358D01*
X75753307Y-86415171D01*
X75753300Y-86415165D01*
X75572024Y-86302924D01*
X75572019Y-86302921D01*
X75496745Y-86273760D01*
X75373198Y-86225898D01*
X75373197Y-86225897D01*
X75373195Y-86225897D01*
X75163610Y-86186719D01*
X74950390Y-86186719D01*
X74740804Y-86225897D01*
X74541980Y-86302921D01*
X74541975Y-86302924D01*
X74360699Y-86415165D01*
X74360692Y-86415171D01*
X74203135Y-86558805D01*
X74203131Y-86558808D01*
X74203128Y-86558812D01*
X74203125Y-86558816D01*
X74074635Y-86728962D01*
X74074630Y-86728971D01*
X74030269Y-86818060D01*
X73987406Y-86861723D01*
X73927065Y-86871852D01*
X73872294Y-86844579D01*
X73853027Y-86818060D01*
X73795633Y-86702797D01*
X73795624Y-86702782D01*
X73779861Y-86681909D01*
X73213137Y-87248633D01*
X73190333Y-87163525D01*
X73131090Y-87060913D01*
X73047306Y-86977129D01*
X72944694Y-86917886D01*
X72859582Y-86895080D01*
X73424326Y-86330337D01*
X73308186Y-86258425D01*
X73308180Y-86258422D01*
X73100799Y-86178082D01*
X72882196Y-86137219D01*
X72659804Y-86137219D01*
X72441200Y-86178082D01*
X72233821Y-86258421D01*
X72233816Y-86258424D01*
X72117672Y-86330337D01*
X72682415Y-86895080D01*
X72597306Y-86917886D01*
X72494694Y-86977129D01*
X72410910Y-87060913D01*
X72351667Y-87163525D01*
X72328861Y-87248634D01*
X71762137Y-86681910D01*
X71746368Y-86702793D01*
X71647239Y-86901871D01*
X71586379Y-87115773D01*
X71565859Y-87337219D01*
X71586379Y-87558664D01*
X71647239Y-87772566D01*
X71746364Y-87971636D01*
X71746369Y-87971645D01*
X71762138Y-87992525D01*
X72328861Y-87425801D01*
X72351667Y-87510913D01*
X72410910Y-87613525D01*
X72494694Y-87697309D01*
X72597306Y-87756552D01*
X72682414Y-87779356D01*
X72117672Y-88344099D01*
X72233813Y-88416012D01*
X72233819Y-88416015D01*
X72441200Y-88496355D01*
X72659804Y-88537219D01*
X72882196Y-88537219D01*
X73100799Y-88496355D01*
X73308180Y-88416015D01*
X73308181Y-88416015D01*
X73424326Y-88344099D01*
X72859584Y-87779357D01*
X72944694Y-87756552D01*
X73047306Y-87697309D01*
X73131090Y-87613525D01*
X73190333Y-87510913D01*
X73213138Y-87425803D01*
X73779861Y-87992526D01*
X73795629Y-87971647D01*
X73795632Y-87971642D01*
X73853026Y-87856378D01*
X73895889Y-87812715D01*
X73956230Y-87802585D01*
X74011001Y-87829857D01*
X74030269Y-87856377D01*
X74050655Y-87897318D01*
X74074634Y-87945474D01*
X74203128Y-88115626D01*
X74203135Y-88115632D01*
X74360692Y-88259266D01*
X74360699Y-88259272D01*
X74399160Y-88283086D01*
X74541981Y-88371517D01*
X74740802Y-88448540D01*
X74950390Y-88487719D01*
X75163610Y-88487719D01*
X75373198Y-88448540D01*
X75572019Y-88371517D01*
X75753302Y-88259271D01*
X75910872Y-88115626D01*
X76039366Y-87945474D01*
X76068981Y-87885999D01*
X76111379Y-87800851D01*
X76154241Y-87757188D01*
X76214582Y-87747058D01*
X76269353Y-87774330D01*
X76288621Y-87800851D01*
X76360627Y-87945462D01*
X76360632Y-87945470D01*
X76360634Y-87945474D01*
X76489128Y-88115626D01*
X76489135Y-88115632D01*
X76646692Y-88259266D01*
X76646699Y-88259272D01*
X76685160Y-88283086D01*
X76827981Y-88371517D01*
X77026802Y-88448540D01*
X77236390Y-88487719D01*
X77449610Y-88487719D01*
X77659198Y-88448540D01*
X77858019Y-88371517D01*
X78039302Y-88259271D01*
X78196872Y-88115626D01*
X78325366Y-87945474D01*
X78354981Y-87885999D01*
X78397379Y-87800851D01*
X78440241Y-87757188D01*
X78500582Y-87747058D01*
X78555353Y-87774330D01*
X78574621Y-87800851D01*
X78646627Y-87945462D01*
X78646632Y-87945470D01*
X78646634Y-87945474D01*
X78775128Y-88115626D01*
X78775135Y-88115632D01*
X78932692Y-88259266D01*
X78932699Y-88259272D01*
X78971160Y-88283086D01*
X79113981Y-88371517D01*
X79312802Y-88448540D01*
X79522390Y-88487719D01*
X79735610Y-88487719D01*
X79945198Y-88448540D01*
X80049908Y-88407974D01*
X80110998Y-88404585D01*
X80155674Y-88430286D01*
X80811383Y-89085995D01*
X80839160Y-89140512D01*
X80829589Y-89200944D01*
X80811383Y-89226002D01*
X80042884Y-89994503D01*
X79988367Y-90022281D01*
X79972880Y-90023500D01*
X79221799Y-90023500D01*
X79178319Y-90013441D01*
X79139581Y-89994503D01*
X79066509Y-89958780D01*
X78995949Y-89948500D01*
X78995945Y-89948500D01*
X78552056Y-89948500D01*
X78552048Y-89948501D01*
X78481495Y-89958778D01*
X78481485Y-89958781D01*
X78372656Y-90011985D01*
X78286987Y-90097654D01*
X78259833Y-90153199D01*
X78233780Y-90206491D01*
X78223501Y-90277048D01*
X78223500Y-90277054D01*
X78223500Y-90570943D01*
X78223501Y-90570951D01*
X78233778Y-90641504D01*
X78233781Y-90641514D01*
X78286985Y-90750343D01*
X78286987Y-90750345D01*
X78286988Y-90750347D01*
X78372653Y-90836012D01*
X78481491Y-90889220D01*
X78552051Y-90899500D01*
X78995948Y-90899499D01*
X79043542Y-90892565D01*
X79066504Y-90889221D01*
X79066505Y-90889220D01*
X79066509Y-90889220D01*
X79066511Y-90889218D01*
X79066514Y-90889218D01*
X79178318Y-90834560D01*
X79221799Y-90824500D01*
X79415101Y-90824500D01*
X79473292Y-90843407D01*
X79509256Y-90892907D01*
X79509256Y-90954093D01*
X79485106Y-90993501D01*
X79452963Y-91025645D01*
X79426949Y-91051659D01*
X79369354Y-91164695D01*
X79354500Y-91258478D01*
X79354500Y-91312898D01*
X79335593Y-91371089D01*
X79286093Y-91407053D01*
X79268429Y-91411050D01*
X79263730Y-91411668D01*
X79263726Y-91411670D01*
X79129814Y-91467137D01*
X79129806Y-91467142D01*
X79051743Y-91527042D01*
X78994067Y-91547466D01*
X78991476Y-91547500D01*
X78739685Y-91547500D01*
X78681494Y-91528593D01*
X78669687Y-91518509D01*
X78596102Y-91444924D01*
X78480518Y-91388418D01*
X78405582Y-91377500D01*
X78062418Y-91377500D01*
X77987482Y-91388418D01*
X77871899Y-91444923D01*
X77871898Y-91444923D01*
X77871898Y-91444924D01*
X77794001Y-91522820D01*
X77739487Y-91550596D01*
X77679055Y-91541025D01*
X77653999Y-91522821D01*
X77576102Y-91444924D01*
X77460518Y-91388418D01*
X77385582Y-91377500D01*
X77385579Y-91377500D01*
X77180190Y-91377500D01*
X77121999Y-91358593D01*
X77110186Y-91348504D01*
X77053496Y-91291814D01*
X77025719Y-91237297D01*
X77024500Y-91221810D01*
X77024500Y-90922668D01*
X77043407Y-90864477D01*
X77069778Y-90842331D01*
X77068670Y-90840779D01*
X77075341Y-90836014D01*
X77075347Y-90836012D01*
X77161012Y-90750347D01*
X77214220Y-90641509D01*
X77224500Y-90570949D01*
X77224499Y-90277052D01*
X77219359Y-90241771D01*
X77214221Y-90206495D01*
X77214218Y-90206485D01*
X77161014Y-90097656D01*
X77161012Y-90097654D01*
X77161012Y-90097653D01*
X77075347Y-90011988D01*
X76966509Y-89958780D01*
X76895949Y-89948500D01*
X76895945Y-89948500D01*
X76452056Y-89948500D01*
X76452048Y-89948501D01*
X76381495Y-89958778D01*
X76381485Y-89958781D01*
X76272656Y-90011985D01*
X76186987Y-90097654D01*
X76159833Y-90153199D01*
X76133780Y-90206491D01*
X76123501Y-90277048D01*
X76123500Y-90277054D01*
X76123500Y-90570943D01*
X76123501Y-90570951D01*
X76133778Y-90641504D01*
X76133781Y-90641514D01*
X76186985Y-90750343D01*
X76186987Y-90750345D01*
X76186988Y-90750347D01*
X76272653Y-90836012D01*
X76272654Y-90836012D01*
X76272655Y-90836013D01*
X76279330Y-90840779D01*
X76277669Y-90843104D01*
X76311948Y-90876258D01*
X76323500Y-90922668D01*
X76323500Y-91454143D01*
X76337797Y-91507501D01*
X76347385Y-91543285D01*
X76347386Y-91543288D01*
X76393530Y-91623212D01*
X76532051Y-91761733D01*
X76664503Y-91894184D01*
X76692281Y-91948701D01*
X76693500Y-91964188D01*
X76693500Y-92169582D01*
X76704418Y-92244518D01*
X76760924Y-92360102D01*
X76851898Y-92451076D01*
X76967482Y-92507582D01*
X77042418Y-92518500D01*
X77042421Y-92518500D01*
X77385579Y-92518500D01*
X77385582Y-92518500D01*
X77415011Y-92514212D01*
X77475319Y-92524531D01*
X77518044Y-92568328D01*
X77526867Y-92628873D01*
X77507829Y-92672442D01*
X77497141Y-92686371D01*
X77497137Y-92686378D01*
X77441670Y-92820290D01*
X77441669Y-92820291D01*
X77422750Y-92963999D01*
X77422750Y-92964000D01*
X77441669Y-93107708D01*
X77441670Y-93107709D01*
X77484378Y-93210818D01*
X77497139Y-93241625D01*
X77579042Y-93348363D01*
X77599466Y-93406037D01*
X77599500Y-93408629D01*
X77599500Y-93432500D01*
X77580593Y-93490691D01*
X77531093Y-93526655D01*
X77500500Y-93531500D01*
X77388695Y-93531500D01*
X77330504Y-93512593D01*
X77294540Y-93463093D01*
X77293075Y-93458147D01*
X77276614Y-93396712D01*
X77263129Y-93373355D01*
X77263128Y-93373353D01*
X77263128Y-93373352D01*
X77239985Y-93333269D01*
X77230470Y-93316788D01*
X77115212Y-93201530D01*
X77035288Y-93155386D01*
X76946144Y-93131500D01*
X76946142Y-93131500D01*
X76374500Y-93131500D01*
X76316309Y-93112593D01*
X76280345Y-93063093D01*
X76275500Y-93032500D01*
X76275500Y-92832657D01*
X76275500Y-92832656D01*
X76251614Y-92743512D01*
X76234979Y-92714700D01*
X76205470Y-92663588D01*
X73968412Y-90426530D01*
X73888488Y-90380386D01*
X73888485Y-90380385D01*
X73888483Y-90380384D01*
X73886510Y-90379855D01*
X73886510Y-90379856D01*
X73799344Y-90356500D01*
X73799342Y-90356500D01*
X65811389Y-90356500D01*
X65753198Y-90337593D01*
X65741385Y-90327504D01*
X64850496Y-89436614D01*
X64822719Y-89382097D01*
X64821500Y-89366610D01*
X64821500Y-88987231D01*
X64824873Y-88961608D01*
X64834109Y-88927139D01*
X64838840Y-88909482D01*
X64846500Y-88880895D01*
X64846500Y-88815499D01*
X64865407Y-88757308D01*
X64914907Y-88721344D01*
X64945495Y-88716499D01*
X65109138Y-88716499D01*
X65118006Y-88715331D01*
X65156540Y-88710260D01*
X65156542Y-88710259D01*
X65156545Y-88710259D01*
X65156547Y-88710257D01*
X65159659Y-88709351D01*
X65162735Y-88709444D01*
X65164056Y-88709271D01*
X65164084Y-88709485D01*
X65220816Y-88711215D01*
X65230849Y-88715454D01*
X65312516Y-88755379D01*
X65312519Y-88755380D01*
X65345999Y-88760257D01*
X65346000Y-88760257D01*
X65346000Y-88593404D01*
X65355276Y-88551565D01*
X65390259Y-88476545D01*
X65396500Y-88429139D01*
X65396499Y-87677498D01*
X65415406Y-87619309D01*
X65464906Y-87583345D01*
X65495499Y-87578500D01*
X65496500Y-87578500D01*
X65554691Y-87597407D01*
X65590655Y-87646907D01*
X65595500Y-87677500D01*
X65595500Y-88429134D01*
X65595501Y-88429145D01*
X65601740Y-88476543D01*
X65601741Y-88476545D01*
X65636723Y-88551564D01*
X65636724Y-88551565D01*
X65646000Y-88593405D01*
X65646000Y-88760257D01*
X65679480Y-88755380D01*
X65761149Y-88715454D01*
X65821731Y-88706882D01*
X65832332Y-88709348D01*
X65835447Y-88710255D01*
X65835455Y-88710259D01*
X65882861Y-88716500D01*
X66109138Y-88716499D01*
X66156545Y-88710259D01*
X66156546Y-88710259D01*
X66220153Y-88680598D01*
X66260579Y-88661747D01*
X66341747Y-88580579D01*
X66390259Y-88476545D01*
X66395656Y-88435543D01*
X66421996Y-88380320D01*
X66475767Y-88351124D01*
X66536429Y-88359110D01*
X66552196Y-88370252D01*
X66552904Y-88369278D01*
X66559205Y-88373855D01*
X66559209Y-88373859D01*
X66669425Y-88430017D01*
X66760865Y-88444500D01*
X67102334Y-88444499D01*
X67102337Y-88444499D01*
X67128932Y-88440286D01*
X67193775Y-88430017D01*
X67303991Y-88373859D01*
X67303991Y-88373858D01*
X67303994Y-88373857D01*
X67310297Y-88369278D01*
X67311225Y-88370556D01*
X67357720Y-88346860D01*
X67418153Y-88356426D01*
X67432006Y-88364985D01*
X67543677Y-88447404D01*
X67641600Y-88481668D01*
X67641600Y-87286330D01*
X67641599Y-87286329D01*
X67543680Y-87320594D01*
X67432005Y-87403015D01*
X67373958Y-87422357D01*
X67315627Y-87403886D01*
X67304965Y-87394849D01*
X67303993Y-87394143D01*
X67303991Y-87394141D01*
X67193775Y-87337983D01*
X67193776Y-87337983D01*
X67102336Y-87323500D01*
X66760862Y-87323500D01*
X66669425Y-87337983D01*
X66669421Y-87337984D01*
X66559208Y-87394141D01*
X66553685Y-87398154D01*
X66495494Y-87417057D01*
X66437304Y-87398146D01*
X66401343Y-87348644D01*
X66396500Y-87318057D01*
X66396500Y-86743015D01*
X66415407Y-86684824D01*
X66464907Y-86648860D01*
X66521116Y-86647387D01*
X66528222Y-86649291D01*
X66548304Y-86658656D01*
X66548571Y-86658086D01*
X66556420Y-86661746D01*
X66556421Y-86661747D01*
X66660455Y-86710259D01*
X66707861Y-86716500D01*
X68109138Y-86716499D01*
X68156545Y-86710259D01*
X68156546Y-86710259D01*
X68217339Y-86681910D01*
X68260579Y-86661747D01*
X68341747Y-86580579D01*
X68390259Y-86476545D01*
X68396500Y-86429139D01*
X68396499Y-86202862D01*
X68390259Y-86155455D01*
X68368054Y-86107838D01*
X68360598Y-86047110D01*
X68368051Y-86024168D01*
X68390259Y-85976545D01*
X68396500Y-85929139D01*
X68396499Y-85702862D01*
X68390259Y-85655455D01*
X68368054Y-85607838D01*
X68360598Y-85547110D01*
X68368051Y-85524168D01*
X68390259Y-85476545D01*
X68396500Y-85429139D01*
X68396499Y-85202862D01*
X68390259Y-85155455D01*
X68368054Y-85107838D01*
X68360598Y-85047110D01*
X68368051Y-85024168D01*
X68390259Y-84976545D01*
X68396500Y-84929139D01*
X68396499Y-84702862D01*
X68390259Y-84655455D01*
X68368054Y-84607838D01*
X68360598Y-84547110D01*
X68368051Y-84524168D01*
X68390259Y-84476545D01*
X68396500Y-84429139D01*
X68396499Y-84202862D01*
X68390259Y-84155455D01*
X68368054Y-84107838D01*
X68360598Y-84047110D01*
X68368051Y-84024168D01*
X68390259Y-83976545D01*
X68396500Y-83929139D01*
X68396499Y-83702862D01*
X68390259Y-83655455D01*
X68368054Y-83607838D01*
X68360598Y-83547110D01*
X68368051Y-83524168D01*
X68390259Y-83476545D01*
X68396500Y-83429139D01*
X68396499Y-83265500D01*
X68415406Y-83207310D01*
X68464906Y-83171346D01*
X68495499Y-83166500D01*
X69884142Y-83166500D01*
X69884144Y-83166500D01*
X69973288Y-83142614D01*
X69975902Y-83141105D01*
X69975906Y-83141103D01*
X69985037Y-83135830D01*
X70053212Y-83096470D01*
X71197270Y-81952412D01*
X71243414Y-81872488D01*
X71261851Y-81803680D01*
X71267300Y-81783344D01*
X71267300Y-79899562D01*
X71286207Y-79841371D01*
X71306034Y-79821019D01*
X71309421Y-79818421D01*
X71397661Y-79703425D01*
X71453130Y-79569509D01*
X71472050Y-79425800D01*
X71470958Y-79417509D01*
X71453130Y-79282091D01*
X71397661Y-79148175D01*
X71309421Y-79033179D01*
X71194425Y-78944939D01*
X71194421Y-78944937D01*
X71145235Y-78924564D01*
X71098709Y-78884828D01*
X71084425Y-78825333D01*
X71107839Y-78768805D01*
X71160008Y-78736836D01*
X71183120Y-78734100D01*
X74977199Y-78734100D01*
X75035390Y-78753007D01*
X75047203Y-78763096D01*
X75526603Y-79242496D01*
X75554380Y-79297013D01*
X75544809Y-79357445D01*
X75501544Y-79400710D01*
X75456599Y-79411500D01*
X75148870Y-79411500D01*
X75121943Y-79414394D01*
X75092983Y-79417508D01*
X75092972Y-79417510D01*
X74966551Y-79464662D01*
X74858531Y-79545525D01*
X74858525Y-79545531D01*
X74777662Y-79653551D01*
X74730510Y-79779972D01*
X74730508Y-79779983D01*
X74724500Y-79835873D01*
X74724500Y-80438126D01*
X74724499Y-80438126D01*
X74730508Y-80494016D01*
X74730510Y-80494027D01*
X74777662Y-80620448D01*
X74846578Y-80712509D01*
X74858528Y-80728472D01*
X74858531Y-80728474D01*
X74966551Y-80809337D01*
X75092972Y-80856489D01*
X75092973Y-80856489D01*
X75092978Y-80856491D01*
X75148870Y-80862500D01*
X75601310Y-80862500D01*
X75659501Y-80881407D01*
X75671314Y-80891496D01*
X75673314Y-80893496D01*
X75701091Y-80948013D01*
X75691520Y-81008445D01*
X75648255Y-81051710D01*
X75603310Y-81062500D01*
X75120725Y-81062500D01*
X75090305Y-81065353D01*
X75090296Y-81065355D01*
X74962116Y-81110207D01*
X74852855Y-81190845D01*
X74852848Y-81190852D01*
X74797233Y-81266208D01*
X74747465Y-81301800D01*
X74686281Y-81301342D01*
X74679693Y-81298883D01*
X74565709Y-81251670D01*
X74565708Y-81251669D01*
X74422000Y-81232750D01*
X74278291Y-81251669D01*
X74278290Y-81251670D01*
X74144378Y-81307137D01*
X74144374Y-81307139D01*
X74029381Y-81395377D01*
X74029377Y-81395381D01*
X73941139Y-81510374D01*
X73941137Y-81510378D01*
X73885670Y-81644290D01*
X73885669Y-81644291D01*
X73866750Y-81787999D01*
X73866750Y-81788000D01*
X73885669Y-81931708D01*
X73885670Y-81931709D01*
X73923964Y-82024162D01*
X73941139Y-82065625D01*
X74029379Y-82180621D01*
X74144375Y-82268861D01*
X74278291Y-82324330D01*
X74422000Y-82343250D01*
X74565709Y-82324330D01*
X74679696Y-82277115D01*
X74740689Y-82272315D01*
X74792858Y-82304285D01*
X74797233Y-82309792D01*
X74852845Y-82385144D01*
X74852847Y-82385146D01*
X74852850Y-82385150D01*
X74852853Y-82385152D01*
X74852855Y-82385154D01*
X74962116Y-82465792D01*
X74962117Y-82465792D01*
X74962118Y-82465793D01*
X75090301Y-82510646D01*
X75120725Y-82513499D01*
X75120727Y-82513500D01*
X75120734Y-82513500D01*
X75629273Y-82513500D01*
X75629273Y-82513499D01*
X75659699Y-82510646D01*
X75787882Y-82465793D01*
X75897150Y-82385150D01*
X75977793Y-82275882D01*
X76022646Y-82147699D01*
X76025499Y-82117273D01*
X76025500Y-82117273D01*
X76025500Y-81484689D01*
X76044407Y-81426498D01*
X76093907Y-81390534D01*
X76155093Y-81390534D01*
X76194504Y-81414685D01*
X76345504Y-81565685D01*
X76373281Y-81620202D01*
X76374500Y-81635689D01*
X76374500Y-82117274D01*
X76377353Y-82147694D01*
X76377355Y-82147703D01*
X76422207Y-82275883D01*
X76502845Y-82385144D01*
X76502847Y-82385146D01*
X76502850Y-82385150D01*
X76502853Y-82385152D01*
X76502855Y-82385154D01*
X76612116Y-82465792D01*
X76612117Y-82465792D01*
X76612118Y-82465793D01*
X76740301Y-82510646D01*
X76770725Y-82513499D01*
X76770727Y-82513500D01*
X76770734Y-82513500D01*
X77279273Y-82513500D01*
X77279273Y-82513499D01*
X77309699Y-82510646D01*
X77437882Y-82465793D01*
X77547150Y-82385150D01*
X77627793Y-82275882D01*
X77672646Y-82147699D01*
X77675499Y-82117273D01*
X77675500Y-82117273D01*
X77675500Y-81458727D01*
X77675499Y-81458725D01*
X77672646Y-81428305D01*
X77672646Y-81428301D01*
X77627793Y-81300118D01*
X77622578Y-81293052D01*
X77547154Y-81190855D01*
X77547151Y-81190852D01*
X77547150Y-81190850D01*
X77547146Y-81190847D01*
X77547144Y-81190845D01*
X77437883Y-81110207D01*
X77309703Y-81065355D01*
X77309694Y-81065353D01*
X77279274Y-81062500D01*
X77279266Y-81062500D01*
X76874689Y-81062500D01*
X76816498Y-81043593D01*
X76804685Y-81033504D01*
X76802685Y-81031504D01*
X76774908Y-80976987D01*
X76784479Y-80916555D01*
X76827744Y-80873290D01*
X76872689Y-80862500D01*
X77251126Y-80862500D01*
X77251130Y-80862500D01*
X77307022Y-80856491D01*
X77360553Y-80836525D01*
X77433448Y-80809337D01*
X77433448Y-80809336D01*
X77433450Y-80809336D01*
X77541472Y-80728472D01*
X77622336Y-80620450D01*
X77629254Y-80601903D01*
X77667305Y-80553989D01*
X77722012Y-80537500D01*
X83274769Y-80537500D01*
X83332960Y-80556407D01*
X83344773Y-80566496D01*
X87990128Y-85211850D01*
X88017905Y-85266367D01*
X88018424Y-85293605D01*
X88009061Y-85371924D01*
X88009061Y-85371929D01*
X88013508Y-85398372D01*
X88004512Y-85458893D01*
X87961661Y-85502567D01*
X87901323Y-85512713D01*
X87854280Y-85492291D01*
X87806860Y-85454601D01*
X87806856Y-85454599D01*
X87673844Y-85398615D01*
X87673845Y-85398615D01*
X87530655Y-85380591D01*
X87530651Y-85380592D01*
X87387910Y-85401870D01*
X87387908Y-85401871D01*
X87309790Y-85435275D01*
X87309772Y-85435284D01*
X87295836Y-85443329D01*
X87781351Y-86284267D01*
X88070835Y-86785670D01*
X88084776Y-86777621D01*
X88084789Y-86777613D01*
X88152778Y-86726661D01*
X88152781Y-86726658D01*
X88242577Y-86613681D01*
X88242579Y-86613677D01*
X88298563Y-86480665D01*
X88316587Y-86337476D01*
X88316586Y-86337472D01*
X88307656Y-86277564D01*
X88317777Y-86217222D01*
X88361433Y-86174352D01*
X88421949Y-86165331D01*
X88468603Y-86186624D01*
X88489287Y-86203702D01*
X88614980Y-86257527D01*
X88750747Y-86273760D01*
X88885587Y-86251086D01*
X88923594Y-86234271D01*
X88937660Y-86228050D01*
X88937662Y-86228048D01*
X88937673Y-86228044D01*
X89362621Y-85982700D01*
X89406156Y-85957565D01*
X89406159Y-85957562D01*
X89406166Y-85957559D01*
X89452165Y-85923972D01*
X89539221Y-85818534D01*
X89593047Y-85692840D01*
X89599149Y-85641793D01*
X89624830Y-85586260D01*
X89649006Y-85567208D01*
X89844977Y-85457262D01*
X89904976Y-85445280D01*
X89960560Y-85470853D01*
X89961899Y-85472114D01*
X89972994Y-85482753D01*
X90014349Y-85522412D01*
X90014355Y-85522416D01*
X90133488Y-85589543D01*
X90152036Y-85599994D01*
X90304690Y-85640897D01*
X90462719Y-85642552D01*
X90462723Y-85642551D01*
X90462724Y-85642551D01*
X90616185Y-85604858D01*
X90616191Y-85604856D01*
X90616191Y-85604855D01*
X90616195Y-85604855D01*
X90648303Y-85589540D01*
X91840235Y-84901377D01*
X91869554Y-84881228D01*
X91978939Y-84767162D01*
X92010940Y-84710370D01*
X92056516Y-84629484D01*
X92056515Y-84629484D01*
X92056520Y-84629477D01*
X92097424Y-84476824D01*
X92099079Y-84318795D01*
X92061381Y-84165319D01*
X92046066Y-84133210D01*
X92044901Y-84131193D01*
X91607906Y-83374296D01*
X91602474Y-83366392D01*
X91587754Y-83344972D01*
X91587753Y-83344971D01*
X91473690Y-83235587D01*
X91473684Y-83235583D01*
X91336007Y-83158007D01*
X91336004Y-83158006D01*
X91183352Y-83117103D01*
X91183353Y-83117103D01*
X91064828Y-83115861D01*
X91025321Y-83115448D01*
X91025320Y-83115448D01*
X91025315Y-83115448D01*
X90871854Y-83153141D01*
X90871848Y-83153143D01*
X90839743Y-83168456D01*
X89647801Y-83856625D01*
X89618485Y-83876772D01*
X89509098Y-83990841D01*
X89509097Y-83990842D01*
X89431523Y-84128515D01*
X89431518Y-84128527D01*
X89390617Y-84281168D01*
X89390616Y-84281172D01*
X89388961Y-84439205D01*
X89388961Y-84439210D01*
X89398228Y-84476936D01*
X89393747Y-84537957D01*
X89354254Y-84584690D01*
X89350525Y-84586890D01*
X89157300Y-84695295D01*
X89097300Y-84707278D01*
X89069891Y-84699962D01*
X89003364Y-84671474D01*
X89003361Y-84671473D01*
X89003360Y-84671473D01*
X88867593Y-84655240D01*
X88867592Y-84655240D01*
X88867590Y-84655240D01*
X88732753Y-84677914D01*
X88695138Y-84694554D01*
X88634273Y-84700804D01*
X88585083Y-84674021D01*
X87164709Y-83253647D01*
X88593187Y-83253647D01*
X88682968Y-83409152D01*
X88722317Y-83464951D01*
X88722326Y-83464961D01*
X88842800Y-83576102D01*
X88842803Y-83576104D01*
X88986384Y-83655189D01*
X89144716Y-83697614D01*
X89144714Y-83697614D01*
X89308604Y-83700916D01*
X89468519Y-83664899D01*
X89530498Y-83636251D01*
X89530513Y-83636243D01*
X90707522Y-82956695D01*
X90707543Y-82956682D01*
X90763335Y-82917338D01*
X90763341Y-82917333D01*
X90874490Y-82796851D01*
X90953573Y-82653272D01*
X90995998Y-82494939D01*
X90995998Y-82494937D01*
X90999300Y-82331050D01*
X90963284Y-82171140D01*
X90934632Y-82109150D01*
X90844851Y-81953648D01*
X90844850Y-81953648D01*
X89531618Y-82711844D01*
X89531616Y-82711844D01*
X89531617Y-82711845D01*
X88593187Y-83253647D01*
X87164709Y-83253647D01*
X86354295Y-82443233D01*
X88188739Y-82443233D01*
X88224755Y-82603143D01*
X88253409Y-82665136D01*
X88253411Y-82665141D01*
X88343186Y-82820634D01*
X89252513Y-82295634D01*
X88852513Y-81602815D01*
X88852512Y-81602815D01*
X88480511Y-81817590D01*
X88480511Y-81817591D01*
X88424704Y-81856945D01*
X88424698Y-81856950D01*
X88313549Y-81977432D01*
X88234466Y-82121011D01*
X88192041Y-82279344D01*
X88192041Y-82279346D01*
X88188739Y-82443233D01*
X86354295Y-82443233D01*
X86183377Y-82272315D01*
X85263877Y-81352815D01*
X89285526Y-81352815D01*
X89685526Y-82045635D01*
X89685527Y-82045635D01*
X90594851Y-81520636D01*
X90594851Y-81520634D01*
X90505073Y-81365133D01*
X90505071Y-81365131D01*
X90465719Y-81309328D01*
X90465713Y-81309322D01*
X90345239Y-81198181D01*
X90345236Y-81198179D01*
X90201655Y-81119094D01*
X90043323Y-81076669D01*
X90043325Y-81076669D01*
X89879435Y-81073367D01*
X89719520Y-81109384D01*
X89657542Y-81138032D01*
X89285526Y-81352815D01*
X85263877Y-81352815D01*
X83727583Y-79816520D01*
X83727580Y-79816518D01*
X83727578Y-79816516D01*
X83636261Y-79763794D01*
X83636263Y-79763794D01*
X83596740Y-79753204D01*
X83534397Y-79736500D01*
X83534395Y-79736500D01*
X77722012Y-79736500D01*
X77663821Y-79717593D01*
X77629254Y-79672097D01*
X77622336Y-79653550D01*
X77541474Y-79545531D01*
X77541472Y-79545528D01*
X77433450Y-79464664D01*
X77433446Y-79464661D01*
X77433447Y-79464661D01*
X77402402Y-79453082D01*
X77354488Y-79415031D01*
X77338000Y-79360325D01*
X77338000Y-70518689D01*
X77351023Y-70478609D01*
X80992516Y-70478609D01*
X80992517Y-70478616D01*
X81016459Y-70549150D01*
X81016462Y-70549156D01*
X81016463Y-70549157D01*
X81534093Y-71445719D01*
X81678237Y-71695382D01*
X81691500Y-71744882D01*
X81691500Y-76500143D01*
X81708770Y-76564599D01*
X81715386Y-76589288D01*
X81715387Y-76589291D01*
X81750619Y-76650314D01*
X81761530Y-76669212D01*
X85890788Y-80798470D01*
X85970712Y-80844614D01*
X86059856Y-80868500D01*
X90999810Y-80868500D01*
X91058001Y-80887407D01*
X91069814Y-80897496D01*
X92584504Y-82412186D01*
X92612281Y-82466703D01*
X92613500Y-82482190D01*
X92613500Y-85055006D01*
X92594593Y-85113197D01*
X92545093Y-85149161D01*
X92488878Y-85150633D01*
X92333354Y-85108961D01*
X92206926Y-85107637D01*
X92175321Y-85107306D01*
X92175320Y-85107306D01*
X92175315Y-85107306D01*
X92021854Y-85144999D01*
X92021848Y-85145001D01*
X91989743Y-85160314D01*
X90797801Y-85848483D01*
X90768485Y-85868630D01*
X90659098Y-85982699D01*
X90659097Y-85982700D01*
X90581523Y-86120373D01*
X90581518Y-86120385D01*
X90540617Y-86273026D01*
X90540616Y-86273030D01*
X90538961Y-86431063D01*
X90538961Y-86431066D01*
X90576658Y-86584537D01*
X90576659Y-86584541D01*
X90587120Y-86606473D01*
X90595106Y-86667135D01*
X90565910Y-86720906D01*
X90549946Y-86733224D01*
X90507311Y-86759668D01*
X90447894Y-86774272D01*
X90403600Y-86760070D01*
X90399055Y-86757299D01*
X90399053Y-86757298D01*
X90399050Y-86757296D01*
X90399049Y-86757296D01*
X90273361Y-86703473D01*
X90205476Y-86695356D01*
X90137593Y-86687240D01*
X90137592Y-86687240D01*
X90137590Y-86687240D01*
X90002753Y-86709914D01*
X90002749Y-86709915D01*
X89950679Y-86732949D01*
X89950653Y-86732963D01*
X89482183Y-87003434D01*
X89482172Y-87003441D01*
X89436173Y-87037029D01*
X89349121Y-87142462D01*
X89349117Y-87142470D01*
X89295295Y-87268151D01*
X89295293Y-87268161D01*
X89279061Y-87403926D01*
X89279061Y-87403929D01*
X89283508Y-87430373D01*
X89274512Y-87490893D01*
X89231661Y-87534567D01*
X89171323Y-87544713D01*
X89124280Y-87524291D01*
X89076860Y-87486601D01*
X89076856Y-87486599D01*
X88943844Y-87430615D01*
X88943845Y-87430615D01*
X88800655Y-87412591D01*
X88800651Y-87412592D01*
X88657910Y-87433870D01*
X88657908Y-87433871D01*
X88579790Y-87467275D01*
X88579772Y-87467284D01*
X88565836Y-87475329D01*
X89078336Y-88363006D01*
X89340835Y-88817669D01*
X89354776Y-88809621D01*
X89354789Y-88809613D01*
X89422778Y-88758661D01*
X89422781Y-88758658D01*
X89512577Y-88645681D01*
X89512579Y-88645677D01*
X89568563Y-88512665D01*
X89586587Y-88369476D01*
X89586586Y-88369472D01*
X89577656Y-88309564D01*
X89587777Y-88249222D01*
X89631433Y-88206352D01*
X89691949Y-88197331D01*
X89738603Y-88218624D01*
X89759287Y-88235702D01*
X89884980Y-88289527D01*
X90020747Y-88305760D01*
X90155587Y-88283086D01*
X90193594Y-88266271D01*
X90207660Y-88260050D01*
X90207662Y-88260048D01*
X90207673Y-88260044D01*
X90676166Y-87989559D01*
X90722165Y-87955972D01*
X90809221Y-87850534D01*
X90863047Y-87724840D01*
X90879279Y-87589074D01*
X90872396Y-87548146D01*
X90881391Y-87487629D01*
X90917840Y-87447603D01*
X90960050Y-87421422D01*
X91019463Y-87406820D01*
X91076117Y-87429929D01*
X91080750Y-87434101D01*
X91164349Y-87514270D01*
X91164355Y-87514274D01*
X91300261Y-87590852D01*
X91302036Y-87591852D01*
X91454690Y-87632755D01*
X91612719Y-87634410D01*
X91612723Y-87634409D01*
X91612724Y-87634409D01*
X91766185Y-87596716D01*
X91766191Y-87596714D01*
X91766191Y-87596713D01*
X91766195Y-87596713D01*
X91798303Y-87581398D01*
X92990235Y-86893235D01*
X93019554Y-86873086D01*
X93128939Y-86759020D01*
X93129911Y-86757296D01*
X93206516Y-86621342D01*
X93206515Y-86621342D01*
X93206520Y-86621335D01*
X93247424Y-86468682D01*
X93249079Y-86310653D01*
X93211381Y-86157177D01*
X93196066Y-86125068D01*
X93195554Y-86124182D01*
X93028864Y-85835466D01*
X93016142Y-85775618D01*
X93041029Y-85719722D01*
X93044597Y-85715962D01*
X93105104Y-85655455D01*
X93244470Y-85516090D01*
X93290614Y-85436166D01*
X93291403Y-85433222D01*
X93297151Y-85411772D01*
X93307826Y-85371929D01*
X93314500Y-85347022D01*
X93314500Y-82249856D01*
X93290614Y-82160712D01*
X93277790Y-82138500D01*
X93277789Y-82138498D01*
X93277789Y-82138497D01*
X93259161Y-82106234D01*
X93244470Y-82080788D01*
X91496100Y-80332418D01*
X94314233Y-80332418D01*
X94349710Y-80504237D01*
X94392012Y-80598508D01*
X94392017Y-80598517D01*
X95842017Y-83109988D01*
X95842032Y-83110010D01*
X95902504Y-83193757D01*
X95902507Y-83193759D01*
X95902508Y-83193761D01*
X96033568Y-83310394D01*
X96187992Y-83393660D01*
X96357455Y-83439067D01*
X96523178Y-83443888D01*
X96532821Y-83444169D01*
X96532821Y-83444168D01*
X96532823Y-83444169D01*
X96704641Y-83408692D01*
X96798908Y-83366392D01*
X97751550Y-82816383D01*
X97835318Y-82755895D01*
X97951951Y-82624835D01*
X98035217Y-82470411D01*
X98080624Y-82300948D01*
X98085726Y-82125580D01*
X98050249Y-81953762D01*
X98007949Y-81859495D01*
X98007947Y-81859491D01*
X98007942Y-81859482D01*
X97021863Y-80151545D01*
X96557940Y-79348007D01*
X96510343Y-79282091D01*
X96497455Y-79264242D01*
X96473019Y-79242496D01*
X96366392Y-79147606D01*
X96211968Y-79064340D01*
X96042505Y-79018933D01*
X96037682Y-79018792D01*
X95867138Y-79013830D01*
X95695319Y-79049307D01*
X95601048Y-79091609D01*
X95601039Y-79091614D01*
X94648414Y-79641614D01*
X94648392Y-79641629D01*
X94564645Y-79702101D01*
X94448009Y-79833165D01*
X94364743Y-79987588D01*
X94319336Y-80157052D01*
X94314233Y-80332418D01*
X91496100Y-80332418D01*
X91401212Y-80237530D01*
X91321288Y-80191386D01*
X91232144Y-80167500D01*
X91232142Y-80167500D01*
X86292190Y-80167500D01*
X86233999Y-80148593D01*
X86222186Y-80138504D01*
X83439193Y-77355511D01*
X85061934Y-77355511D01*
X85081599Y-77567729D01*
X85119367Y-77700472D01*
X85716861Y-77355508D01*
X85716861Y-77421337D01*
X85750936Y-77548504D01*
X85816762Y-77662518D01*
X85909854Y-77755610D01*
X85966860Y-77788522D01*
X85365626Y-78135646D01*
X85520862Y-78277162D01*
X85702067Y-78389358D01*
X85900802Y-78466349D01*
X86110298Y-78505511D01*
X86323424Y-78505511D01*
X86532923Y-78466348D01*
X86562836Y-78454759D01*
X86216860Y-77855511D01*
X86282687Y-77855511D01*
X86409854Y-77821436D01*
X86523868Y-77755610D01*
X86616960Y-77662518D01*
X86649872Y-77605511D01*
X86994618Y-78202627D01*
X86994619Y-78202628D01*
X87070358Y-78133584D01*
X87198798Y-77963503D01*
X87198803Y-77963494D01*
X87293796Y-77772721D01*
X87352122Y-77567727D01*
X87371787Y-77355511D01*
X87352122Y-77143292D01*
X87314352Y-77010548D01*
X86716861Y-77355509D01*
X86716861Y-77289685D01*
X86682786Y-77162518D01*
X86616960Y-77048504D01*
X86523868Y-76955412D01*
X86466860Y-76922498D01*
X87068095Y-76575375D01*
X86912859Y-76433859D01*
X86731654Y-76321663D01*
X86532919Y-76244672D01*
X86323424Y-76205511D01*
X86110298Y-76205511D01*
X85900797Y-76244673D01*
X85870884Y-76256261D01*
X86216861Y-76855511D01*
X86151035Y-76855511D01*
X86023868Y-76889586D01*
X85909854Y-76955412D01*
X85816762Y-77048504D01*
X85783848Y-77105511D01*
X85439102Y-76508393D01*
X85439100Y-76508393D01*
X85363366Y-76577435D01*
X85363360Y-76577441D01*
X85234928Y-76747511D01*
X85234918Y-76747527D01*
X85139925Y-76938300D01*
X85081599Y-77143294D01*
X85061934Y-77355511D01*
X83439193Y-77355511D01*
X82421496Y-76337814D01*
X82393719Y-76283297D01*
X82392500Y-76267810D01*
X82392500Y-75155806D01*
X83841646Y-75155806D01*
X83860464Y-75358889D01*
X83916279Y-75555056D01*
X84007188Y-75737627D01*
X84130097Y-75900385D01*
X84280820Y-76037787D01*
X84454224Y-76145154D01*
X84644405Y-76218830D01*
X84844885Y-76256306D01*
X85048837Y-76256306D01*
X85249317Y-76218830D01*
X85439498Y-76145154D01*
X85612902Y-76037787D01*
X85763625Y-75900385D01*
X85886534Y-75737627D01*
X85977443Y-75555056D01*
X86033258Y-75358889D01*
X86052076Y-75155806D01*
X86033258Y-74952723D01*
X85977443Y-74756556D01*
X85886534Y-74573985D01*
X85763625Y-74411227D01*
X85612902Y-74273825D01*
X85439498Y-74166458D01*
X85249317Y-74092782D01*
X85249316Y-74092781D01*
X85249314Y-74092781D01*
X85048837Y-74055306D01*
X84844885Y-74055306D01*
X84644407Y-74092781D01*
X84574493Y-74119865D01*
X84454224Y-74166458D01*
X84280820Y-74273825D01*
X84130098Y-74411226D01*
X84007189Y-74573983D01*
X84007184Y-74573992D01*
X83916280Y-74756553D01*
X83916279Y-74756556D01*
X83860464Y-74952723D01*
X83841646Y-75155806D01*
X82392500Y-75155806D01*
X82392500Y-73164146D01*
X82411407Y-73105955D01*
X82460907Y-73069991D01*
X82522093Y-73069991D01*
X82571593Y-73105955D01*
X82590077Y-73155009D01*
X82590464Y-73159185D01*
X82646279Y-73355352D01*
X82737188Y-73537923D01*
X82860097Y-73700681D01*
X83010820Y-73838083D01*
X83184224Y-73945450D01*
X83374405Y-74019126D01*
X83574885Y-74056602D01*
X83778837Y-74056602D01*
X83979317Y-74019126D01*
X84169498Y-73945450D01*
X84342902Y-73838083D01*
X84493625Y-73700681D01*
X84616534Y-73537923D01*
X84707443Y-73355352D01*
X84763258Y-73159185D01*
X84782076Y-72956102D01*
X84763258Y-72753019D01*
X84707443Y-72556852D01*
X84616534Y-72374281D01*
X84493625Y-72211523D01*
X84342902Y-72074121D01*
X84169498Y-71966754D01*
X83979317Y-71893078D01*
X83979316Y-71893077D01*
X83979314Y-71893077D01*
X83778837Y-71855602D01*
X83574885Y-71855602D01*
X83374407Y-71893077D01*
X83304493Y-71920161D01*
X83184224Y-71966754D01*
X83074967Y-72034403D01*
X83010820Y-72074121D01*
X82860098Y-72211522D01*
X82737189Y-72374279D01*
X82737184Y-72374288D01*
X82646280Y-72556849D01*
X82646279Y-72556852D01*
X82590464Y-72753019D01*
X82590077Y-72757194D01*
X82565882Y-72813390D01*
X82513274Y-72844633D01*
X82452350Y-72838987D01*
X82406380Y-72798609D01*
X82392500Y-72748057D01*
X82392500Y-72092594D01*
X82411407Y-72034403D01*
X82442000Y-72006857D01*
X83714601Y-71272121D01*
X83770611Y-71223001D01*
X83814688Y-71133623D01*
X83821205Y-71034181D01*
X83808907Y-70997951D01*
X83797262Y-70963643D01*
X83797259Y-70963637D01*
X82922585Y-69448657D01*
X82922582Y-69448654D01*
X82922582Y-69448653D01*
X82873465Y-69392647D01*
X82873463Y-69392645D01*
X82784088Y-69348570D01*
X82684648Y-69342052D01*
X82684641Y-69342053D01*
X82614107Y-69365995D01*
X81099117Y-70240675D01*
X81043111Y-70289792D01*
X81043109Y-70289794D01*
X80999034Y-70379169D01*
X80992516Y-70478609D01*
X77351023Y-70478609D01*
X77356907Y-70460498D01*
X77366990Y-70448691D01*
X81560470Y-66255212D01*
X81606614Y-66175288D01*
X81627886Y-66095900D01*
X81630500Y-66086144D01*
X81630500Y-61721856D01*
X81606614Y-61632712D01*
X81598467Y-61618601D01*
X81560470Y-61552788D01*
X80615212Y-60607530D01*
X80535288Y-60561386D01*
X80535286Y-60561385D01*
X80535284Y-60561384D01*
X80523872Y-60558326D01*
X80472560Y-60525000D01*
X80450635Y-60467877D01*
X80450500Y-60462701D01*
X80450500Y-60313327D01*
X80450498Y-60313315D01*
X80447015Y-60295808D01*
X80435966Y-60240260D01*
X80380601Y-60157399D01*
X80380599Y-60157397D01*
X80297742Y-60102035D01*
X80297740Y-60102034D01*
X80297737Y-60102033D01*
X80297736Y-60102033D01*
X80224684Y-60087501D01*
X80224674Y-60087500D01*
X78375326Y-60087500D01*
X78375325Y-60087500D01*
X78375315Y-60087501D01*
X78302263Y-60102033D01*
X78302257Y-60102035D01*
X78219400Y-60157397D01*
X78219397Y-60157400D01*
X78164035Y-60240257D01*
X78164033Y-60240263D01*
X78149501Y-60313315D01*
X78149500Y-60313327D01*
X78149500Y-61339000D01*
X78130593Y-61397191D01*
X78081093Y-61433155D01*
X78050500Y-61438000D01*
X77200000Y-61438000D01*
X77200000Y-64038000D01*
X78050500Y-64038000D01*
X78108691Y-64056907D01*
X78144655Y-64106407D01*
X78149500Y-64137000D01*
X78149500Y-64138500D01*
X78130593Y-64196691D01*
X78081093Y-64232655D01*
X78050500Y-64237500D01*
X74349500Y-64237500D01*
X74291309Y-64218593D01*
X74255345Y-64169093D01*
X74250500Y-64138500D01*
X74250500Y-64137000D01*
X74269407Y-64078809D01*
X74318907Y-64042845D01*
X74349500Y-64038000D01*
X75199999Y-64038000D01*
X75200000Y-64038000D01*
X75200000Y-61438000D01*
X75199999Y-61438000D01*
X74349500Y-61438000D01*
X74291309Y-61419093D01*
X74255345Y-61369593D01*
X74250500Y-61339000D01*
X74250500Y-60313327D01*
X74250498Y-60313315D01*
X74247015Y-60295808D01*
X74235966Y-60240260D01*
X74180601Y-60157399D01*
X74180599Y-60157397D01*
X74097742Y-60102035D01*
X74097740Y-60102034D01*
X74097737Y-60102033D01*
X74097736Y-60102033D01*
X74024684Y-60087501D01*
X74024674Y-60087500D01*
X72175326Y-60087500D01*
X72175325Y-60087500D01*
X72175315Y-60087501D01*
X72102263Y-60102033D01*
X72102257Y-60102035D01*
X72019400Y-60157397D01*
X72019397Y-60157400D01*
X71964035Y-60240257D01*
X71964033Y-60240263D01*
X71949501Y-60313315D01*
X71949500Y-60313327D01*
X71949500Y-61462672D01*
X71949501Y-61462684D01*
X71964033Y-61535736D01*
X71964035Y-61535742D01*
X72019397Y-61618599D01*
X72019399Y-61618601D01*
X72102260Y-61673966D01*
X72120315Y-61677557D01*
X72173697Y-61707452D01*
X72199314Y-61763017D01*
X72200000Y-61774654D01*
X72200000Y-63701345D01*
X72181093Y-63759536D01*
X72131593Y-63795500D01*
X72120316Y-63798442D01*
X72102262Y-63802033D01*
X72102257Y-63802035D01*
X72019400Y-63857397D01*
X72019397Y-63857400D01*
X71964035Y-63940257D01*
X71964033Y-63940263D01*
X71949501Y-64013315D01*
X71949500Y-64013327D01*
X71949500Y-65162672D01*
X71949501Y-65162684D01*
X71964033Y-65235736D01*
X71964035Y-65235742D01*
X72019397Y-65318599D01*
X72019400Y-65318602D01*
X72102257Y-65373964D01*
X72102260Y-65373966D01*
X72157808Y-65385015D01*
X72175315Y-65388498D01*
X72175320Y-65388498D01*
X72175326Y-65388500D01*
X72650500Y-65388500D01*
X72708691Y-65407407D01*
X72744655Y-65456907D01*
X72749500Y-65487500D01*
X72749500Y-65672685D01*
X72730593Y-65730876D01*
X72683198Y-65766129D01*
X72676120Y-65768605D01*
X72676114Y-65768608D01*
X72566855Y-65849245D01*
X72566845Y-65849255D01*
X72486207Y-65958516D01*
X72441355Y-66086696D01*
X72441353Y-66086705D01*
X72438500Y-66117125D01*
X72438500Y-66775674D01*
X72441353Y-66806094D01*
X72441355Y-66806103D01*
X72486207Y-66934283D01*
X72571255Y-67049519D01*
X72570111Y-67050362D01*
X72594199Y-67097638D01*
X72587883Y-67151009D01*
X72539469Y-67267893D01*
X72520550Y-67411599D01*
X72520550Y-67411600D01*
X72539469Y-67555308D01*
X72539470Y-67555309D01*
X72594939Y-67689225D01*
X72683179Y-67804221D01*
X72798175Y-67892461D01*
X72932091Y-67947930D01*
X73075800Y-67966850D01*
X73219509Y-67947930D01*
X73353425Y-67892461D01*
X73468421Y-67804221D01*
X73556661Y-67689225D01*
X73612130Y-67555309D01*
X73631050Y-67411600D01*
X73630022Y-67403795D01*
X73612130Y-67267891D01*
X73592776Y-67221166D01*
X73570368Y-67167069D01*
X73565568Y-67106075D01*
X73597538Y-67053906D01*
X73603036Y-67049538D01*
X73611150Y-67043550D01*
X73691793Y-66934282D01*
X73736646Y-66806099D01*
X73739499Y-66775673D01*
X73739500Y-66775673D01*
X73739500Y-66769224D01*
X74038999Y-66769224D01*
X74045401Y-66828770D01*
X74045403Y-66828781D01*
X74095646Y-66963488D01*
X74095647Y-66963490D01*
X74181807Y-67078584D01*
X74181815Y-67078592D01*
X74296909Y-67164752D01*
X74296911Y-67164753D01*
X74431621Y-67214997D01*
X74431625Y-67214998D01*
X74488999Y-67221166D01*
X74489000Y-67221165D01*
X74489000Y-66696401D01*
X74989000Y-66696401D01*
X74989000Y-67221166D01*
X75046374Y-67214998D01*
X75046378Y-67214997D01*
X75181088Y-67164753D01*
X75181090Y-67164752D01*
X75296184Y-67078592D01*
X75296192Y-67078584D01*
X75382352Y-66963490D01*
X75382353Y-66963488D01*
X75432596Y-66828781D01*
X75432598Y-66828770D01*
X75439000Y-66769224D01*
X75439000Y-66696401D01*
X75438999Y-66696400D01*
X74989001Y-66696400D01*
X74989000Y-66696401D01*
X74489000Y-66696401D01*
X74488999Y-66696400D01*
X74039001Y-66696400D01*
X74039000Y-66696401D01*
X74039000Y-66769224D01*
X74038999Y-66769224D01*
X73739500Y-66769224D01*
X73739500Y-66123575D01*
X74039000Y-66123575D01*
X74039000Y-66196399D01*
X74039001Y-66196400D01*
X74488999Y-66196400D01*
X74489000Y-66196399D01*
X74989000Y-66196399D01*
X74989001Y-66196400D01*
X75438999Y-66196400D01*
X75439000Y-66196399D01*
X75439000Y-66123575D01*
X75432598Y-66064029D01*
X75432596Y-66064018D01*
X75382353Y-65929311D01*
X75382352Y-65929309D01*
X75296192Y-65814215D01*
X75296184Y-65814207D01*
X75181090Y-65728047D01*
X75181088Y-65728046D01*
X75046375Y-65677801D01*
X74989000Y-65671633D01*
X74989000Y-66196399D01*
X74489000Y-66196399D01*
X74489000Y-65671633D01*
X74431624Y-65677801D01*
X74296911Y-65728046D01*
X74296909Y-65728047D01*
X74181815Y-65814207D01*
X74181807Y-65814215D01*
X74095647Y-65929309D01*
X74095646Y-65929311D01*
X74045403Y-66064018D01*
X74045401Y-66064029D01*
X74039000Y-66123575D01*
X73739500Y-66123575D01*
X73739500Y-66117127D01*
X73739499Y-66117125D01*
X73736646Y-66086701D01*
X73691793Y-65958518D01*
X73670237Y-65929311D01*
X73611154Y-65849255D01*
X73611152Y-65849253D01*
X73611150Y-65849250D01*
X73611146Y-65849247D01*
X73611144Y-65849245D01*
X73495913Y-65764201D01*
X73496930Y-65762823D01*
X73460627Y-65725415D01*
X73450500Y-65681797D01*
X73450500Y-65487500D01*
X73469407Y-65429309D01*
X73518907Y-65393345D01*
X73549500Y-65388500D01*
X74024673Y-65388500D01*
X74024674Y-65388500D01*
X74097740Y-65373966D01*
X74180601Y-65318601D01*
X74235966Y-65235740D01*
X74250500Y-65162674D01*
X74250500Y-65037500D01*
X74269407Y-64979309D01*
X74318907Y-64943345D01*
X74349500Y-64938500D01*
X78050500Y-64938500D01*
X78108691Y-64957407D01*
X78144655Y-65006907D01*
X78149500Y-65037500D01*
X78149500Y-65162672D01*
X78149501Y-65162684D01*
X78164033Y-65235736D01*
X78164035Y-65235742D01*
X78219397Y-65318599D01*
X78219400Y-65318602D01*
X78302257Y-65373964D01*
X78302260Y-65373966D01*
X78357808Y-65385015D01*
X78375315Y-65388498D01*
X78375320Y-65388498D01*
X78375326Y-65388500D01*
X78375327Y-65388500D01*
X80224673Y-65388500D01*
X80224674Y-65388500D01*
X80297740Y-65373966D01*
X80380601Y-65318601D01*
X80435966Y-65235740D01*
X80450500Y-65162674D01*
X80450500Y-64013326D01*
X80435966Y-63940260D01*
X80380601Y-63857399D01*
X80380599Y-63857397D01*
X80297742Y-63802035D01*
X80297737Y-63802033D01*
X80279684Y-63798442D01*
X80226301Y-63768545D01*
X80200686Y-63712979D01*
X80200000Y-63701345D01*
X80200000Y-61774654D01*
X80218907Y-61716463D01*
X80268407Y-61680499D01*
X80279670Y-61677560D01*
X80297740Y-61673966D01*
X80380601Y-61618601D01*
X80380604Y-61618597D01*
X80415446Y-61566452D01*
X80463495Y-61528571D01*
X80524633Y-61526169D01*
X80567766Y-61551448D01*
X80900504Y-61884186D01*
X80928281Y-61938703D01*
X80929500Y-61954190D01*
X80929500Y-65853810D01*
X80910593Y-65912001D01*
X80900504Y-65923814D01*
X76707028Y-70117290D01*
X76669301Y-70182636D01*
X76669301Y-70182637D01*
X76660887Y-70197209D01*
X76660886Y-70197211D01*
X76660886Y-70197212D01*
X76648543Y-70243279D01*
X76637000Y-70286357D01*
X76637000Y-78981099D01*
X76618093Y-79039290D01*
X76568593Y-79075254D01*
X76507407Y-79075254D01*
X76467996Y-79051103D01*
X75953458Y-78536565D01*
X75430013Y-78013120D01*
X75430010Y-78013118D01*
X75430009Y-78013117D01*
X75430008Y-78013116D01*
X75338691Y-77960394D01*
X75338693Y-77960394D01*
X75299170Y-77949804D01*
X75236827Y-77933100D01*
X69540927Y-77933100D01*
X69435473Y-77933100D01*
X69373129Y-77949804D01*
X69333607Y-77960394D01*
X69242291Y-78013116D01*
X69242290Y-78013117D01*
X67478503Y-79776903D01*
X67423986Y-79804680D01*
X67363554Y-79795109D01*
X67338498Y-79776905D01*
X66644613Y-79083020D01*
X66644610Y-79083018D01*
X66644608Y-79083016D01*
X66553291Y-79030294D01*
X66553292Y-79030294D01*
X66469876Y-79007943D01*
X66418561Y-78974618D01*
X66396635Y-78917497D01*
X66396499Y-78912316D01*
X66396499Y-78702865D01*
X66396498Y-78702854D01*
X66390259Y-78655457D01*
X66390259Y-78655456D01*
X66390259Y-78655455D01*
X66355775Y-78581503D01*
X66346500Y-78539664D01*
X66346500Y-78498809D01*
X66365407Y-78440618D01*
X66387316Y-78418711D01*
X66389588Y-78417060D01*
X66389591Y-78417059D01*
X66389593Y-78417056D01*
X66395902Y-78412474D01*
X66396831Y-78413753D01*
X66443320Y-78390060D01*
X66503753Y-78399626D01*
X66517606Y-78408185D01*
X66629277Y-78490604D01*
X66727200Y-78524868D01*
X66727200Y-78177201D01*
X67227200Y-78177201D01*
X67227200Y-78524867D01*
X67325122Y-78490604D01*
X67431839Y-78411841D01*
X67431841Y-78411839D01*
X67510605Y-78305120D01*
X67554411Y-78179932D01*
X67554413Y-78179922D01*
X67554669Y-78177200D01*
X67227201Y-78177200D01*
X67227200Y-78177201D01*
X66727200Y-78177201D01*
X66727200Y-77677199D01*
X67227200Y-77677199D01*
X67227201Y-77677200D01*
X67554668Y-77677200D01*
X67554413Y-77674475D01*
X67510605Y-77549279D01*
X67431841Y-77442560D01*
X67431836Y-77442555D01*
X67325119Y-77363794D01*
X67227200Y-77329529D01*
X67227200Y-77677199D01*
X66727200Y-77677199D01*
X66727200Y-77329530D01*
X66727199Y-77329529D01*
X66629280Y-77363794D01*
X66517605Y-77446215D01*
X66459558Y-77465557D01*
X66401227Y-77447086D01*
X66390565Y-77438049D01*
X66389593Y-77437343D01*
X66389591Y-77437341D01*
X66279375Y-77381183D01*
X66279376Y-77381183D01*
X66187936Y-77366700D01*
X65846462Y-77366700D01*
X65755025Y-77381183D01*
X65755021Y-77381184D01*
X65644810Y-77437340D01*
X65557340Y-77524810D01*
X65501183Y-77635023D01*
X65486700Y-77726463D01*
X65486700Y-78127937D01*
X65501183Y-78219374D01*
X65501183Y-78219376D01*
X65527770Y-78271555D01*
X65537341Y-78331987D01*
X65509563Y-78386504D01*
X65455047Y-78414281D01*
X65439562Y-78415500D01*
X65382866Y-78415500D01*
X65382854Y-78415501D01*
X65335458Y-78421740D01*
X65335452Y-78421741D01*
X65287838Y-78443944D01*
X65227109Y-78451400D01*
X65204162Y-78443944D01*
X65156551Y-78421743D01*
X65156547Y-78421742D01*
X65156545Y-78421741D01*
X65109139Y-78415500D01*
X65109137Y-78415500D01*
X64882866Y-78415500D01*
X64882854Y-78415501D01*
X64835458Y-78421740D01*
X64835452Y-78421741D01*
X64787838Y-78443944D01*
X64727109Y-78451400D01*
X64704162Y-78443944D01*
X64656551Y-78421743D01*
X64656547Y-78421742D01*
X64656545Y-78421741D01*
X64609139Y-78415500D01*
X64609138Y-78415500D01*
X64445500Y-78415500D01*
X64387309Y-78396593D01*
X64351345Y-78347093D01*
X64346500Y-78316500D01*
X64346500Y-77160188D01*
X64365407Y-77101997D01*
X64375497Y-77090184D01*
X64802186Y-76663496D01*
X64856702Y-76635719D01*
X64872189Y-76634500D01*
X66628673Y-76634500D01*
X66628674Y-76634500D01*
X66701740Y-76619966D01*
X66784601Y-76564601D01*
X66839966Y-76481740D01*
X66854500Y-76408674D01*
X66854500Y-73959326D01*
X66839966Y-73886260D01*
X66784601Y-73803399D01*
X66784599Y-73803397D01*
X66701742Y-73748035D01*
X66701740Y-73748034D01*
X66701737Y-73748033D01*
X66701736Y-73748033D01*
X66628684Y-73733501D01*
X66628674Y-73733500D01*
X66628673Y-73733500D01*
X65699500Y-73733500D01*
X65641309Y-73714593D01*
X65605345Y-73665093D01*
X65600500Y-73634500D01*
X65600500Y-73196757D01*
X65619407Y-73138566D01*
X65629490Y-73126759D01*
X65709859Y-73046391D01*
X65766017Y-72936175D01*
X65780500Y-72844735D01*
X65780499Y-72443266D01*
X65780499Y-72443263D01*
X65780499Y-72443262D01*
X65772696Y-72393999D01*
X65766017Y-72351825D01*
X65709859Y-72241609D01*
X65622391Y-72154141D01*
X65512175Y-72097983D01*
X65512176Y-72097983D01*
X65420736Y-72083500D01*
X65079262Y-72083500D01*
X64987825Y-72097983D01*
X64987821Y-72097984D01*
X64877609Y-72154141D01*
X64871304Y-72158722D01*
X64870377Y-72157446D01*
X64823859Y-72181143D01*
X64763428Y-72171565D01*
X64749593Y-72163015D01*
X64637917Y-72080593D01*
X64540000Y-72046329D01*
X64540000Y-73241667D01*
X64637924Y-73207403D01*
X64741711Y-73130803D01*
X64799758Y-73111460D01*
X64858089Y-73129930D01*
X64894423Y-73179160D01*
X64899500Y-73210457D01*
X64899500Y-73634500D01*
X64880593Y-73692691D01*
X64831093Y-73728655D01*
X64800500Y-73733500D01*
X64579326Y-73733500D01*
X64579325Y-73733500D01*
X64579315Y-73733501D01*
X64506263Y-73748033D01*
X64506257Y-73748035D01*
X64423400Y-73803397D01*
X64423397Y-73803400D01*
X64368035Y-73886257D01*
X64368033Y-73886263D01*
X64353501Y-73959315D01*
X64353500Y-73959327D01*
X64353500Y-76079810D01*
X64334593Y-76138001D01*
X64324504Y-76149814D01*
X63824004Y-76650314D01*
X63769487Y-76678091D01*
X63709055Y-76668520D01*
X63683996Y-76650314D01*
X63183496Y-76149814D01*
X63155719Y-76095297D01*
X63154500Y-76079810D01*
X63154500Y-73959327D01*
X63154498Y-73959315D01*
X63151015Y-73941808D01*
X63139966Y-73886260D01*
X63084601Y-73803399D01*
X63084599Y-73803397D01*
X63001742Y-73748035D01*
X63001740Y-73748034D01*
X63001737Y-73748033D01*
X63001736Y-73748033D01*
X62928684Y-73733501D01*
X62928674Y-73733500D01*
X62928673Y-73733500D01*
X62707500Y-73733500D01*
X62649309Y-73714593D01*
X62613345Y-73665093D01*
X62608500Y-73634500D01*
X62608500Y-73210457D01*
X62627407Y-73152266D01*
X62676907Y-73116302D01*
X62738093Y-73116302D01*
X62766289Y-73130803D01*
X62870075Y-73207403D01*
X62968000Y-73241668D01*
X62968000Y-72894001D01*
X63468000Y-72894001D01*
X63468000Y-73241667D01*
X63565922Y-73207404D01*
X63672639Y-73128641D01*
X63672642Y-73128638D01*
X63674344Y-73126333D01*
X63676464Y-73124816D01*
X63677886Y-73123395D01*
X63678122Y-73123631D01*
X63724111Y-73090740D01*
X63785295Y-73091196D01*
X63829902Y-73123606D01*
X63830114Y-73123395D01*
X63831447Y-73124728D01*
X63833656Y-73126333D01*
X63835357Y-73128638D01*
X63835360Y-73128641D01*
X63942077Y-73207404D01*
X64040000Y-73241668D01*
X64040000Y-72894001D01*
X64039999Y-72894000D01*
X63468001Y-72894000D01*
X63468000Y-72894001D01*
X62968000Y-72894001D01*
X62968000Y-72046330D01*
X62967999Y-72046329D01*
X63468000Y-72046329D01*
X63468000Y-72393999D01*
X63468001Y-72394000D01*
X64039999Y-72394000D01*
X64040000Y-72393999D01*
X64040000Y-72046330D01*
X64039999Y-72046329D01*
X63942080Y-72080594D01*
X63835363Y-72159355D01*
X63835358Y-72159360D01*
X63833653Y-72161671D01*
X63831529Y-72163189D01*
X63830114Y-72164605D01*
X63829878Y-72164369D01*
X63783883Y-72197261D01*
X63722700Y-72196801D01*
X63678096Y-72164394D01*
X63677886Y-72164605D01*
X63676559Y-72163278D01*
X63674347Y-72161671D01*
X63672641Y-72159360D01*
X63672636Y-72159355D01*
X63565919Y-72080594D01*
X63468000Y-72046329D01*
X62967999Y-72046329D01*
X62870080Y-72080594D01*
X62758405Y-72163015D01*
X62700358Y-72182357D01*
X62642027Y-72163886D01*
X62631365Y-72154849D01*
X62630393Y-72154143D01*
X62630391Y-72154141D01*
X62520175Y-72097983D01*
X62520176Y-72097983D01*
X62428736Y-72083500D01*
X62087262Y-72083500D01*
X61995825Y-72097983D01*
X61995821Y-72097984D01*
X61885610Y-72154140D01*
X61798140Y-72241610D01*
X61741983Y-72351823D01*
X61727500Y-72443263D01*
X61727500Y-72844737D01*
X61741983Y-72936174D01*
X61741984Y-72936178D01*
X61752136Y-72956102D01*
X61798141Y-73046391D01*
X61878505Y-73126755D01*
X61906281Y-73181270D01*
X61907500Y-73196757D01*
X61907500Y-73634500D01*
X61888593Y-73692691D01*
X61839093Y-73728655D01*
X61808500Y-73733500D01*
X60879326Y-73733500D01*
X60879325Y-73733500D01*
X60879315Y-73733501D01*
X60806263Y-73748033D01*
X60806257Y-73748035D01*
X60723400Y-73803397D01*
X60723397Y-73803400D01*
X60668035Y-73886257D01*
X60668033Y-73886263D01*
X60653501Y-73959315D01*
X60653500Y-73959327D01*
X60653500Y-76408672D01*
X60653501Y-76408684D01*
X60668033Y-76481736D01*
X60668036Y-76481745D01*
X60719722Y-76559100D01*
X60736330Y-76617988D01*
X60715152Y-76675391D01*
X60664277Y-76709383D01*
X60637406Y-76713100D01*
X59884656Y-76713100D01*
X59804906Y-76734469D01*
X59804904Y-76734469D01*
X59795517Y-76736983D01*
X59795515Y-76736984D01*
X59715586Y-76783131D01*
X59681613Y-76817104D01*
X59627096Y-76844881D01*
X59611610Y-76846100D01*
X59168525Y-76846100D01*
X59138105Y-76848953D01*
X59138096Y-76848955D01*
X59009916Y-76893807D01*
X58900655Y-76974445D01*
X58900645Y-76974455D01*
X58820007Y-77083716D01*
X58775155Y-77211896D01*
X58775153Y-77211905D01*
X58772300Y-77242325D01*
X58772300Y-77900874D01*
X58775153Y-77931294D01*
X58775155Y-77931303D01*
X58820007Y-78059483D01*
X58900645Y-78168744D01*
X58900647Y-78168746D01*
X58900650Y-78168750D01*
X58900653Y-78168752D01*
X58900655Y-78168754D01*
X59009916Y-78249392D01*
X59009917Y-78249392D01*
X59009918Y-78249393D01*
X59138101Y-78294246D01*
X59168525Y-78297099D01*
X59168527Y-78297100D01*
X59168534Y-78297100D01*
X59677073Y-78297100D01*
X59677073Y-78297099D01*
X59707499Y-78294246D01*
X59835682Y-78249393D01*
X59921526Y-78186037D01*
X59979572Y-78166696D01*
X60037903Y-78185167D01*
X60073757Y-78232995D01*
X60098994Y-78305120D01*
X60174758Y-78407774D01*
X60194100Y-78465822D01*
X60175629Y-78524152D01*
X60165108Y-78536565D01*
X60150254Y-78551419D01*
X60150253Y-78551420D01*
X60150253Y-78551421D01*
X60101743Y-78655451D01*
X60101741Y-78655455D01*
X60095500Y-78702862D01*
X60095500Y-80104134D01*
X60095501Y-80104145D01*
X60101740Y-80151544D01*
X60101740Y-80151546D01*
X60150251Y-80255576D01*
X60150252Y-80255577D01*
X60150253Y-80255579D01*
X60231421Y-80336747D01*
X60335455Y-80385259D01*
X60382861Y-80391500D01*
X60609138Y-80391499D01*
X60656545Y-80385259D01*
X60704161Y-80363054D01*
X60764888Y-80355598D01*
X60787836Y-80363053D01*
X60835455Y-80385259D01*
X60882861Y-80391500D01*
X61109138Y-80391499D01*
X61156545Y-80385259D01*
X61204161Y-80363054D01*
X61264888Y-80355598D01*
X61287836Y-80363053D01*
X61335455Y-80385259D01*
X61382861Y-80391500D01*
X61496500Y-80391499D01*
X61554690Y-80410406D01*
X61590654Y-80459906D01*
X61595500Y-80490499D01*
X61595500Y-80688473D01*
X61595500Y-80793927D01*
X61609567Y-80846425D01*
X61622794Y-80895792D01*
X61675516Y-80987108D01*
X61675518Y-80987110D01*
X61675520Y-80987113D01*
X62308505Y-81620098D01*
X62336281Y-81674613D01*
X62337500Y-81690100D01*
X62337500Y-83295218D01*
X62318593Y-83353409D01*
X62308504Y-83365222D01*
X60240503Y-85433222D01*
X60185986Y-85460999D01*
X60125554Y-85451428D01*
X60082289Y-85408163D01*
X60071499Y-85363220D01*
X60071499Y-85202862D01*
X60065259Y-85155455D01*
X60043054Y-85107838D01*
X60035598Y-85047110D01*
X60043051Y-85024168D01*
X60065259Y-84976545D01*
X60071500Y-84929139D01*
X60071499Y-84702862D01*
X60065259Y-84655455D01*
X60043054Y-84607838D01*
X60035598Y-84547110D01*
X60043051Y-84524168D01*
X60065259Y-84476545D01*
X60071500Y-84429139D01*
X60071499Y-84202862D01*
X60065259Y-84155455D01*
X60043054Y-84107838D01*
X60035598Y-84047110D01*
X60043051Y-84024168D01*
X60065259Y-83976545D01*
X60071500Y-83929139D01*
X60071499Y-83702862D01*
X60065259Y-83655455D01*
X60043054Y-83607838D01*
X60035598Y-83547110D01*
X60043051Y-83524168D01*
X60065259Y-83476545D01*
X60071500Y-83429139D01*
X60071499Y-83202862D01*
X60065259Y-83155455D01*
X60043054Y-83107838D01*
X60035598Y-83047110D01*
X60043051Y-83024168D01*
X60065259Y-82976545D01*
X60071500Y-82929139D01*
X60071499Y-82702862D01*
X60065259Y-82655455D01*
X60043054Y-82607838D01*
X60035598Y-82547110D01*
X60043051Y-82524168D01*
X60065259Y-82476545D01*
X60071500Y-82429139D01*
X60071499Y-82374411D01*
X60090405Y-82316223D01*
X60139905Y-82280258D01*
X60201090Y-82280257D01*
X60208384Y-82282948D01*
X60235667Y-82294248D01*
X60308291Y-82324330D01*
X60452000Y-82343250D01*
X60595709Y-82324330D01*
X60729625Y-82268861D01*
X60844621Y-82180621D01*
X60932861Y-82065625D01*
X60988330Y-81931709D01*
X61007250Y-81788000D01*
X60988330Y-81644291D01*
X60932861Y-81510375D01*
X60844621Y-81395379D01*
X60729625Y-81307139D01*
X60729621Y-81307137D01*
X60595709Y-81251670D01*
X60595708Y-81251669D01*
X60452000Y-81232750D01*
X60308291Y-81251669D01*
X60308290Y-81251670D01*
X60208384Y-81293052D01*
X60147387Y-81297852D01*
X60095218Y-81265883D01*
X60071804Y-81209355D01*
X60071624Y-81204773D01*
X60071498Y-81202861D01*
X60065259Y-81155455D01*
X60043054Y-81107838D01*
X60035598Y-81047110D01*
X60043051Y-81024168D01*
X60065259Y-80976545D01*
X60071500Y-80929139D01*
X60071499Y-80702862D01*
X60065259Y-80655455D01*
X60065259Y-80655453D01*
X60016748Y-80551423D01*
X60016747Y-80551422D01*
X60016747Y-80551421D01*
X59935579Y-80470253D01*
X59831545Y-80421741D01*
X59784139Y-80415500D01*
X59784137Y-80415500D01*
X58382865Y-80415500D01*
X58382854Y-80415501D01*
X58335455Y-80421740D01*
X58335453Y-80421740D01*
X58231423Y-80470251D01*
X58150253Y-80551421D01*
X58101741Y-80655455D01*
X58095500Y-80702862D01*
X58095500Y-80929133D01*
X58095501Y-80929145D01*
X58101740Y-80976541D01*
X58101741Y-80976547D01*
X58123944Y-81024162D01*
X58131400Y-81084891D01*
X58123944Y-81107838D01*
X58101743Y-81155448D01*
X58101741Y-81155453D01*
X58101741Y-81155455D01*
X58096117Y-81198179D01*
X58095500Y-81202862D01*
X58095500Y-81429133D01*
X58095501Y-81429145D01*
X58101740Y-81476541D01*
X58101741Y-81476547D01*
X58123944Y-81524162D01*
X58131400Y-81584891D01*
X58123944Y-81607838D01*
X58101743Y-81655448D01*
X58101741Y-81655456D01*
X58095500Y-81702862D01*
X58095500Y-81929133D01*
X58095501Y-81929145D01*
X58101740Y-81976541D01*
X58101741Y-81976547D01*
X58123944Y-82024162D01*
X58131400Y-82084891D01*
X58123944Y-82107838D01*
X58101743Y-82155448D01*
X58101741Y-82155456D01*
X58095500Y-82202862D01*
X58095500Y-82429133D01*
X58095501Y-82429145D01*
X58101740Y-82476541D01*
X58101741Y-82476547D01*
X58123944Y-82524162D01*
X58131400Y-82584891D01*
X58123944Y-82607838D01*
X58101743Y-82655448D01*
X58101741Y-82655453D01*
X58101741Y-82655455D01*
X58100467Y-82665136D01*
X58095500Y-82702862D01*
X58095500Y-82929133D01*
X58095501Y-82929145D01*
X58101740Y-82976541D01*
X58101741Y-82976547D01*
X58123944Y-83024162D01*
X58131400Y-83084891D01*
X58123944Y-83107838D01*
X58101743Y-83155448D01*
X58101741Y-83155453D01*
X58101741Y-83155455D01*
X58100030Y-83168456D01*
X58095500Y-83202862D01*
X58095500Y-83429133D01*
X58095501Y-83429145D01*
X58101740Y-83476541D01*
X58101741Y-83476547D01*
X58123944Y-83524162D01*
X58131400Y-83584891D01*
X58123944Y-83607838D01*
X58101743Y-83655448D01*
X58101741Y-83655453D01*
X58101741Y-83655455D01*
X58095500Y-83702861D01*
X58095500Y-83810911D01*
X58095501Y-83866499D01*
X58076594Y-83924690D01*
X58027094Y-83960654D01*
X57996501Y-83965500D01*
X57675910Y-83965500D01*
X57617719Y-83946593D01*
X57582466Y-83899198D01*
X57561792Y-83840116D01*
X57481154Y-83730855D01*
X57481152Y-83730853D01*
X57481150Y-83730850D01*
X57481146Y-83730847D01*
X57481144Y-83730845D01*
X57371883Y-83650207D01*
X57243703Y-83605355D01*
X57243694Y-83605353D01*
X57213274Y-83602500D01*
X57213266Y-83602500D01*
X56704734Y-83602500D01*
X56704725Y-83602500D01*
X56674305Y-83605353D01*
X56674296Y-83605355D01*
X56546116Y-83650207D01*
X56436855Y-83730845D01*
X56436845Y-83730855D01*
X56356207Y-83840116D01*
X56311355Y-83968296D01*
X56311353Y-83968305D01*
X56308500Y-83998725D01*
X56308500Y-84657274D01*
X56311353Y-84687694D01*
X56311355Y-84687703D01*
X56356207Y-84815883D01*
X56436845Y-84925144D01*
X56436847Y-84925146D01*
X56436850Y-84925150D01*
X56436853Y-84925152D01*
X56436855Y-84925154D01*
X56546116Y-85005792D01*
X56546117Y-85005792D01*
X56546118Y-85005793D01*
X56674301Y-85050646D01*
X56704725Y-85053499D01*
X56704727Y-85053500D01*
X56704734Y-85053500D01*
X57213273Y-85053500D01*
X57213273Y-85053499D01*
X57243699Y-85050646D01*
X57371882Y-85005793D01*
X57481150Y-84925150D01*
X57561793Y-84815882D01*
X57590864Y-84732802D01*
X57627929Y-84684122D01*
X57684308Y-84666500D01*
X57996500Y-84666500D01*
X58054691Y-84685407D01*
X58090655Y-84734907D01*
X58095500Y-84765499D01*
X58095500Y-84929133D01*
X58095501Y-84929145D01*
X58101740Y-84976541D01*
X58101741Y-84976547D01*
X58123944Y-85024162D01*
X58131400Y-85084891D01*
X58123944Y-85107838D01*
X58101743Y-85155448D01*
X58101741Y-85155453D01*
X58101741Y-85155455D01*
X58096749Y-85193378D01*
X58095500Y-85202862D01*
X58095500Y-85429133D01*
X58095501Y-85429145D01*
X58101740Y-85476544D01*
X58102652Y-85479673D01*
X58102557Y-85482753D01*
X58102729Y-85484055D01*
X58102516Y-85484082D01*
X58100779Y-85540830D01*
X58096546Y-85550849D01*
X58056620Y-85632519D01*
X58051742Y-85666000D01*
X58218595Y-85666000D01*
X58260432Y-85675275D01*
X58335455Y-85710259D01*
X58382861Y-85716500D01*
X59134501Y-85716499D01*
X59192691Y-85735406D01*
X59228655Y-85784906D01*
X59233500Y-85815499D01*
X59233500Y-85816500D01*
X59214593Y-85874691D01*
X59165093Y-85910655D01*
X59134500Y-85915500D01*
X58382865Y-85915500D01*
X58382854Y-85915501D01*
X58335455Y-85921740D01*
X58282160Y-85946593D01*
X58261505Y-85956224D01*
X58219667Y-85965500D01*
X55514190Y-85965500D01*
X55455999Y-85946593D01*
X55444186Y-85936504D01*
X54608496Y-85100814D01*
X54580719Y-85046297D01*
X54579500Y-85030810D01*
X54579500Y-85026885D01*
X54598407Y-84968694D01*
X54647907Y-84932730D01*
X54709093Y-84932730D01*
X54748504Y-84956881D01*
X54751815Y-84960192D01*
X54866909Y-85046352D01*
X54866911Y-85046353D01*
X55001621Y-85096597D01*
X55001625Y-85096598D01*
X55058999Y-85102766D01*
X55059000Y-85102765D01*
X55059000Y-84578001D01*
X55559000Y-84578001D01*
X55559000Y-85102766D01*
X55616374Y-85096598D01*
X55616378Y-85096597D01*
X55751088Y-85046353D01*
X55751090Y-85046352D01*
X55866184Y-84960192D01*
X55866192Y-84960184D01*
X55952352Y-84845090D01*
X55952353Y-84845088D01*
X56002596Y-84710381D01*
X56002598Y-84710370D01*
X56009000Y-84650824D01*
X56009000Y-84578001D01*
X56008999Y-84578000D01*
X55559001Y-84578000D01*
X55559000Y-84578001D01*
X55059000Y-84578001D01*
X55059000Y-84077999D01*
X55559000Y-84077999D01*
X55559001Y-84078000D01*
X56008999Y-84078000D01*
X56009000Y-84077999D01*
X56009000Y-84005175D01*
X56002598Y-83945629D01*
X56002596Y-83945618D01*
X55952353Y-83810911D01*
X55952352Y-83810909D01*
X55866192Y-83695815D01*
X55866184Y-83695807D01*
X55751090Y-83609647D01*
X55751088Y-83609646D01*
X55616375Y-83559401D01*
X55559000Y-83553233D01*
X55559000Y-84077999D01*
X55059000Y-84077999D01*
X55059000Y-83553233D01*
X55001624Y-83559401D01*
X54866911Y-83609646D01*
X54866909Y-83609647D01*
X54751815Y-83695807D01*
X54748504Y-83699119D01*
X54693987Y-83726896D01*
X54633555Y-83717325D01*
X54590290Y-83674060D01*
X54579500Y-83629115D01*
X54579500Y-83414653D01*
X54594363Y-83362481D01*
X54599989Y-83353409D01*
X56308269Y-80598508D01*
X57706306Y-78343928D01*
X57753041Y-78304437D01*
X57790443Y-78297100D01*
X58027073Y-78297100D01*
X58027073Y-78297099D01*
X58057499Y-78294246D01*
X58185682Y-78249393D01*
X58294950Y-78168750D01*
X58375593Y-78059482D01*
X58420446Y-77931299D01*
X58423299Y-77900873D01*
X58423300Y-77900873D01*
X58423300Y-77242327D01*
X58423299Y-77242325D01*
X58420446Y-77211905D01*
X58420446Y-77211901D01*
X58396753Y-77144190D01*
X58388213Y-77119783D01*
X58386840Y-77058613D01*
X58391271Y-77046694D01*
X58405880Y-77014004D01*
X60040841Y-73355354D01*
X60868452Y-71503359D01*
X60909456Y-71457946D01*
X60955208Y-71445719D01*
X60955160Y-71445227D01*
X60958157Y-71444931D01*
X60958838Y-71444750D01*
X60960003Y-71444750D01*
X61156126Y-71425434D01*
X61156127Y-71425433D01*
X61156132Y-71425433D01*
X61344727Y-71368223D01*
X61518538Y-71275319D01*
X61670883Y-71150292D01*
X61795910Y-70997947D01*
X61888814Y-70824136D01*
X61946024Y-70635541D01*
X61961481Y-70478609D01*
X61965341Y-70439412D01*
X61965341Y-70439405D01*
X61946025Y-70243282D01*
X61946024Y-70243279D01*
X61946024Y-70243277D01*
X61888814Y-70054682D01*
X61795910Y-69880871D01*
X61795906Y-69880866D01*
X61670887Y-69728530D01*
X61670878Y-69728521D01*
X61518542Y-69603502D01*
X61518540Y-69603501D01*
X61518538Y-69603499D01*
X61477618Y-69581627D01*
X61344732Y-69510597D01*
X61344730Y-69510596D01*
X61156129Y-69453384D01*
X61156126Y-69453383D01*
X60960003Y-69434068D01*
X60959997Y-69434068D01*
X60763873Y-69453383D01*
X60763870Y-69453384D01*
X60575269Y-69510596D01*
X60575267Y-69510597D01*
X60401467Y-69603496D01*
X60401457Y-69603502D01*
X60249121Y-69728521D01*
X60249112Y-69728530D01*
X60124093Y-69880866D01*
X60124087Y-69880876D01*
X60031188Y-70054676D01*
X60031187Y-70054678D01*
X59973975Y-70243279D01*
X59973974Y-70243282D01*
X59954659Y-70439405D01*
X59954659Y-70439412D01*
X59973974Y-70635535D01*
X59973975Y-70635538D01*
X60031187Y-70824139D01*
X60031188Y-70824141D01*
X60102218Y-70957027D01*
X60124090Y-70997947D01*
X60124092Y-70997949D01*
X60124093Y-70997951D01*
X60216308Y-71110315D01*
X60238608Y-71167292D01*
X60230166Y-71213511D01*
X58135719Y-75900385D01*
X57774199Y-76709383D01*
X57739294Y-76787491D01*
X57698290Y-76832904D01*
X57648908Y-76846100D01*
X57518525Y-76846100D01*
X57488105Y-76848953D01*
X57488096Y-76848955D01*
X57359916Y-76893807D01*
X57250655Y-76974445D01*
X57250645Y-76974455D01*
X57170007Y-77083716D01*
X57125155Y-77211896D01*
X57125153Y-77211905D01*
X57122300Y-77242325D01*
X57122300Y-77900868D01*
X57123647Y-77915236D01*
X57110254Y-77974938D01*
X57109216Y-77976649D01*
X53958518Y-83057703D01*
X53952029Y-83065898D01*
X53952479Y-83066243D01*
X53948528Y-83071391D01*
X53929003Y-83105206D01*
X53927410Y-83107868D01*
X53906803Y-83141103D01*
X53904508Y-83146185D01*
X53902386Y-83151310D01*
X53892273Y-83189050D01*
X53891422Y-83192038D01*
X53880125Y-83229453D01*
X53879225Y-83234949D01*
X53878500Y-83240457D01*
X53878500Y-83279550D01*
X53878451Y-83282663D01*
X53877222Y-83321698D01*
X51206130Y-83321698D01*
X59913725Y-68239701D01*
X61224659Y-68239701D01*
X61224659Y-68239708D01*
X61243974Y-68435831D01*
X61243975Y-68435834D01*
X61301187Y-68624435D01*
X61301188Y-68624437D01*
X61372218Y-68757323D01*
X61394090Y-68798243D01*
X61394092Y-68798245D01*
X61394093Y-68798247D01*
X61519112Y-68950583D01*
X61519121Y-68950592D01*
X61671457Y-69075611D01*
X61671462Y-69075615D01*
X61845273Y-69168519D01*
X62033868Y-69225729D01*
X62033870Y-69225729D01*
X62033873Y-69225730D01*
X62229997Y-69245046D01*
X62230000Y-69245046D01*
X62230003Y-69245046D01*
X62426126Y-69225730D01*
X62426127Y-69225729D01*
X62426132Y-69225729D01*
X62614727Y-69168519D01*
X62788538Y-69075615D01*
X62940883Y-68950588D01*
X63065910Y-68798243D01*
X63158814Y-68624432D01*
X63216024Y-68435837D01*
X63235341Y-68239705D01*
X63235341Y-68239701D01*
X63216025Y-68043578D01*
X63216024Y-68043575D01*
X63216024Y-68043573D01*
X63158814Y-67854978D01*
X63065910Y-67681167D01*
X63065906Y-67681162D01*
X62940887Y-67528826D01*
X62940878Y-67528817D01*
X62788542Y-67403798D01*
X62788540Y-67403797D01*
X62788538Y-67403795D01*
X62747618Y-67381923D01*
X62614732Y-67310893D01*
X62614730Y-67310892D01*
X62426129Y-67253680D01*
X62426126Y-67253679D01*
X62230003Y-67234364D01*
X62229997Y-67234364D01*
X62033873Y-67253679D01*
X62033870Y-67253680D01*
X61845269Y-67310892D01*
X61845267Y-67310893D01*
X61671467Y-67403792D01*
X61671457Y-67403798D01*
X61519121Y-67528817D01*
X61519112Y-67528826D01*
X61394093Y-67681162D01*
X61394087Y-67681172D01*
X61301188Y-67854972D01*
X61301187Y-67854974D01*
X61243975Y-68043575D01*
X61243974Y-68043578D01*
X61224659Y-68239701D01*
X59913725Y-68239701D01*
X61183725Y-66039996D01*
X62494659Y-66039996D01*
X62494659Y-66040003D01*
X62513974Y-66236126D01*
X62513975Y-66236129D01*
X62571187Y-66424730D01*
X62571188Y-66424732D01*
X62642218Y-66557618D01*
X62664090Y-66598538D01*
X62664092Y-66598540D01*
X62664093Y-66598542D01*
X62789112Y-66750878D01*
X62789121Y-66750887D01*
X62856402Y-66806103D01*
X62941462Y-66875910D01*
X63050668Y-66934282D01*
X63105312Y-66963490D01*
X63115273Y-66968814D01*
X63303868Y-67026024D01*
X63303870Y-67026024D01*
X63303873Y-67026025D01*
X63499997Y-67045341D01*
X63500000Y-67045341D01*
X63500003Y-67045341D01*
X63696126Y-67026025D01*
X63696127Y-67026024D01*
X63696132Y-67026024D01*
X63884727Y-66968814D01*
X64058538Y-66875910D01*
X64210883Y-66750883D01*
X64335910Y-66598538D01*
X64428814Y-66424727D01*
X64486024Y-66236132D01*
X64489938Y-66196400D01*
X64505341Y-66040003D01*
X64505341Y-66039996D01*
X64486025Y-65843873D01*
X64486024Y-65843870D01*
X64486024Y-65843868D01*
X64428814Y-65655273D01*
X64335910Y-65481462D01*
X64293109Y-65429309D01*
X64210887Y-65329121D01*
X64210878Y-65329112D01*
X64058542Y-65204093D01*
X64058540Y-65204092D01*
X64058538Y-65204090D01*
X63981073Y-65162684D01*
X63884732Y-65111188D01*
X63884730Y-65111187D01*
X63696129Y-65053975D01*
X63696126Y-65053974D01*
X63500003Y-65034659D01*
X63499997Y-65034659D01*
X63303873Y-65053974D01*
X63303870Y-65053975D01*
X63115269Y-65111187D01*
X63115267Y-65111188D01*
X62941467Y-65204087D01*
X62941457Y-65204093D01*
X62789121Y-65329112D01*
X62789112Y-65329121D01*
X62664093Y-65481457D01*
X62664087Y-65481467D01*
X62571188Y-65655267D01*
X62571187Y-65655269D01*
X62513975Y-65843870D01*
X62513974Y-65843873D01*
X62494659Y-66039996D01*
X61183725Y-66039996D01*
X62161904Y-64345740D01*
X63849581Y-64345740D01*
X63892724Y-64426455D01*
X63892731Y-64426465D01*
X64023940Y-64586345D01*
X64023949Y-64586354D01*
X64183829Y-64717563D01*
X64183839Y-64717570D01*
X64366232Y-64815060D01*
X64366237Y-64815062D01*
X64564163Y-64875103D01*
X64564169Y-64875104D01*
X64769997Y-64895376D01*
X64770001Y-64895376D01*
X64793274Y-64893083D01*
X64593222Y-64146481D01*
X63849582Y-64345739D01*
X63849581Y-64345740D01*
X62161904Y-64345740D01*
X62351661Y-64017071D01*
X65076186Y-64017071D01*
X65275444Y-64760711D01*
X65356169Y-64717564D01*
X65356175Y-64717560D01*
X65516050Y-64586354D01*
X65516059Y-64586345D01*
X65647268Y-64426465D01*
X65647275Y-64426455D01*
X65744765Y-64244062D01*
X65744767Y-64244057D01*
X65804808Y-64046131D01*
X65804809Y-64046125D01*
X65825081Y-63840298D01*
X65825081Y-63840294D01*
X65822787Y-63817020D01*
X65076186Y-64017071D01*
X62351661Y-64017071D01*
X62453726Y-63840290D01*
X63714919Y-63840290D01*
X63714919Y-63840298D01*
X63717210Y-63863568D01*
X64463812Y-63663517D01*
X64264554Y-62919877D01*
X64183829Y-62963026D01*
X64183823Y-62963030D01*
X64023949Y-63094235D01*
X64023940Y-63094244D01*
X63892731Y-63254124D01*
X63892724Y-63254134D01*
X63795234Y-63436527D01*
X63795232Y-63436532D01*
X63735191Y-63634458D01*
X63735190Y-63634464D01*
X63714919Y-63840290D01*
X62453726Y-63840290D01*
X63061552Y-62787505D01*
X64746725Y-62787505D01*
X64946776Y-63534107D01*
X65690416Y-63334849D01*
X65690417Y-63334848D01*
X65647272Y-63254130D01*
X65647268Y-63254124D01*
X65516059Y-63094244D01*
X65516050Y-63094235D01*
X65356170Y-62963026D01*
X65356160Y-62963019D01*
X65173767Y-62865529D01*
X65173762Y-62865527D01*
X64975836Y-62805486D01*
X64975830Y-62805485D01*
X64770004Y-62785214D01*
X64769997Y-62785214D01*
X64746725Y-62787505D01*
X63061552Y-62787505D01*
X66971195Y-56015805D01*
X67016664Y-55974865D01*
X67019427Y-55973685D01*
X69993333Y-54757709D01*
X74849500Y-54757709D01*
X74849500Y-54970290D01*
X74882752Y-55180238D01*
X74948443Y-55382412D01*
X75044948Y-55571815D01*
X75044950Y-55571819D01*
X75169891Y-55743786D01*
X75169893Y-55743788D01*
X75169896Y-55743792D01*
X75320208Y-55894104D01*
X75320211Y-55894106D01*
X75320213Y-55894108D01*
X75492180Y-56019049D01*
X75492184Y-56019051D01*
X75681588Y-56115557D01*
X75883757Y-56181246D01*
X75883758Y-56181246D01*
X75883761Y-56181247D01*
X76093710Y-56214500D01*
X76093713Y-56214500D01*
X76306290Y-56214500D01*
X76516238Y-56181247D01*
X76516239Y-56181246D01*
X76516243Y-56181246D01*
X76718412Y-56115557D01*
X76907816Y-56019051D01*
X76912283Y-56015806D01*
X77079786Y-55894108D01*
X77079792Y-55894104D01*
X77230104Y-55743792D01*
X77355051Y-55571816D01*
X77451557Y-55382412D01*
X77517246Y-55180243D01*
X77517247Y-55180238D01*
X77550500Y-54970290D01*
X77550500Y-54757709D01*
X77517247Y-54547761D01*
X77517246Y-54547757D01*
X77451557Y-54345588D01*
X77355051Y-54156184D01*
X77355049Y-54156180D01*
X77230108Y-53984213D01*
X77230106Y-53984211D01*
X77230104Y-53984208D01*
X77079792Y-53833896D01*
X77079788Y-53833893D01*
X77079786Y-53833891D01*
X76907819Y-53708950D01*
X76907815Y-53708948D01*
X76718412Y-53612443D01*
X76516238Y-53546752D01*
X76306290Y-53513500D01*
X76306287Y-53513500D01*
X76093713Y-53513500D01*
X76093710Y-53513500D01*
X75883761Y-53546752D01*
X75681587Y-53612443D01*
X75492184Y-53708948D01*
X75492180Y-53708950D01*
X75320213Y-53833891D01*
X75169891Y-53984213D01*
X75044950Y-54156180D01*
X75044948Y-54156184D01*
X74948443Y-54345587D01*
X74882752Y-54547761D01*
X74849500Y-54757709D01*
X69993333Y-54757709D01*
X76162535Y-52235235D01*
X76223549Y-52230714D01*
X76237460Y-52235233D01*
G37*
%TD.AperFunction*%
%TD*%
M02*
