<?xml version="1.0" standalone="no"?>
 <!DOCTYPE svg PUBLIC "-//W3C//DTD SVG 1.1//EN" 
 "http://www.w3.org/Graphics/SVG/1.1/DTD/svg11.dtd"> 
<svg
  xmlns:svg="http://www.w3.org/2000/svg"
  xmlns="http://www.w3.org/2000/svg"
  xmlns:xlink="http://www.w3.org/1999/xlink"
  version="1.1"
  width="297.0022mm" height="210.0072mm" viewBox="0.0000 0.0000 297.0022 210.0072">
<title>SVG Image created as Digital D20-F_Silkscreen.svg date 2024/02/05 19:45:26 </title>
  <desc>Image generated by PCBNEW </desc>
<g style="fill:#000000; fill-opacity:1.0000;stroke:#000000; stroke-opacity:1.0000;
stroke-linecap:round; stroke-linejoin:round;"
 transform="translate(0 0) scale(1 1)">
</g>
<g style="fill:#000000; fill-opacity:0.0; 
stroke:#000000; stroke-width:0.0000; stroke-opacity:1; 
stroke-linecap:round; stroke-linejoin:round;">
</g>
<g style="fill:#000000; fill-opacity:0.0; 
stroke:#000000; stroke-width:0.1200; stroke-opacity:1; 
stroke-linecap:round; stroke-linejoin:round;">
<path d="M170.2690 133.3280
L175.6790 133.3280
" />
<path d="M170.2690 136.1280
L170.2690 133.3280
" />
<path d="M171.0690 136.9280
L170.2690 136.1280
" />
<path d="M175.6790 133.3280
L175.6790 136.9280
" />
<path d="M175.6790 136.9280
L171.0690 136.9280
" />
<path d="M175.9620 129.9980
L177.2920 129.9980
" />
<path d="M175.9620 131.3280
L175.9620 129.9980
" />
<path d="M175.9620 132.5980
L175.9620 140.2780
" />
<path d="M175.9620 132.5980
L178.6220 132.5980
" />
<path d="M175.9620 140.2780
L178.6220 140.2780
" />
<path d="M178.6220 132.5980
L178.6220 140.2780
" />
<path d="M169.9860 132.5980
L169.9860 140.2780
" />
<path d="M167.3260 131.3280
L167.3260 129.9980
" />
<path d="M167.3260 140.2780
L169.9860 140.2780
" />
<path d="M167.3260 132.5980
L169.9860 132.5980
" />
<path d="M167.3260 129.9980
L168.6560 129.9980
" />
<path d="M167.3260 132.5980
L167.3260 140.2780
" />
</g>
<g style="fill:#000000; fill-opacity:1.0000; 
stroke:#000000; stroke-width:0.0000; stroke-opacity:1; 
stroke-linecap:round; stroke-linejoin:round;">
<path style="fill:#000000; fill-opacity:1.0000; 
stroke:#000000; stroke-width:0.0000; stroke-opacity:1; 
stroke-linecap:round; stroke-linejoin:round;fill-rule:evenodd;"
d="M 168.4353,148.8013
168.4182,148.8318
168.4129,148.8333
168.4009,148.8200
168.4081,148.8061
168.4307,148.7925
Z" /> 
<path style="fill:#000000; fill-opacity:1.0000; 
stroke:#000000; stroke-width:0.0000; stroke-opacity:1; 
stroke-linecap:round; stroke-linejoin:round;fill-rule:evenodd;"
d="M 146.1997,151.4838
146.1943,151.4922
146.1593,151.4927
146.1554,151.4888
146.1609,151.4718
146.1765,151.4710
Z" /> 
<path style="fill:#000000; fill-opacity:1.0000; 
stroke:#000000; stroke-width:0.0000; stroke-opacity:1; 
stroke-linecap:round; stroke-linejoin:round;fill-rule:evenodd;"
d="M 145.8116,144.8254
145.8098,144.8518
145.7999,144.8505
145.7847,144.8190
145.7866,144.8137
145.8043,144.8116
Z" /> 
<path style="fill:#000000; fill-opacity:1.0000; 
stroke:#000000; stroke-width:0.0000; stroke-opacity:1; 
stroke-linecap:round; stroke-linejoin:round;fill-rule:evenodd;"
d="M 140.3361,104.0878
140.3289,104.1017
140.3063,104.1153
140.3017,104.1065
140.3188,104.0760
140.3241,104.0745
Z" /> 
<path style="fill:#000000; fill-opacity:1.0000; 
stroke:#000000; stroke-width:0.0000; stroke-opacity:1; 
stroke-linecap:round; stroke-linejoin:round;fill-rule:evenodd;"
d="M 130.9691,123.0272
130.9696,123.0536
130.9596,123.0532
130.9418,123.0231
130.9431,123.0178
130.9606,123.0140
Z" /> 
<path style="fill:#000000; fill-opacity:1.0000; 
stroke:#000000; stroke-width:0.0000; stroke-opacity:1; 
stroke-linecap:round; stroke-linejoin:round;fill-rule:evenodd;"
d="M 141.3048,104.9802
141.3084,104.9844
141.3014,105.0009
141.2858,105.0003
141.2639,104.9855
141.2699,104.9776
Z" /> 
<g >
</g>
<g >
</g>
<g >
</g>
<g >
</g>
<g >
</g>
<g >
</g>
<g >
</g>
<g >
</g>
<g >
</g>
<g >
</g>
<g >
</g>
<g >
</g>
<g >
</g>
<g >
</g>
<g >
</g>
<g >
</g>
<g >
</g>
</g> 
</svg>
