<?xml version="1.0" standalone="no"?>
 <!DOCTYPE svg PUBLIC "-//W3C//DTD SVG 1.1//EN" 
 "http://www.w3.org/Graphics/SVG/1.1/DTD/svg11.dtd"> 
<svg
  xmlns:svg="http://www.w3.org/2000/svg"
  xmlns="http://www.w3.org/2000/svg"
  xmlns:xlink="http://www.w3.org/1999/xlink"
  version="1.1"
  width="297.0022mm" height="210.0072mm" viewBox="0.0000 0.0000 297.0022 210.0072">
<title>SVG Image created as Digital D20-Edge_Cuts.svg date 2024/02/05 19:45:26 </title>
  <desc>Image generated by PCBNEW </desc>
<g style="fill:#000000; fill-opacity:1.0000;stroke:#000000; stroke-opacity:1.0000;
stroke-linecap:round; stroke-linejoin:round;"
 transform="translate(0 0) scale(1 1)">
</g>
<g style="fill:#000000; fill-opacity:0.0; 
stroke:#000000; stroke-width:0.0000; stroke-opacity:1; 
stroke-linecap:round; stroke-linejoin:round;">
</g>
<g style="fill:#000000; fill-opacity:0.0; 
stroke:#000000; stroke-width:0.1000; stroke-opacity:1; 
stroke-linecap:round; stroke-linejoin:round;">
<path d="M172.0394 148.9970
L179.0192 148.9964
" />
<path d="M179.0192 102.4623
L172.0394 102.4630
" />
<path d="M167.2134 140.6382 A1.2700 1.2700 0.0 1 0 165.0137 141.9082" />
<path d="M164.1654 116.1011 A1.2700 1.2700 0.0 1 0 161.9657 114.8311" />
<path d="M165.0137 109.5518 A1.2700 1.2700 0.0 1 0 167.2134 110.8218" />
<path d="M161.9657 136.6289 A1.2700 1.2700 0.0 1 0 164.1654 135.3589" />
<path d="M179.0192 148.9964
L179.0192 102.4623
" />
<path d="M159.3394 124.4600
L159.3394 127.0000
" />
<path d="M169.8397 150.2670
L165.0137 141.9082
" />
<path d="M167.2134 140.6382
L172.0394 148.9970
" />
<path d="M157.1397 128.2700
L161.9657 136.6289
" />
<path d="M159.3394 127.0000
L164.1654 135.3589
" />
<path d="M157.1397 123.1900
L161.9657 114.8311
" />
<path d="M164.1654 116.1011
L159.3394 124.4600
" />
<path d="M169.8397 101.1930
L165.0137 109.5518
" />
<path d="M172.0394 102.4630
L167.2134 110.8218
" />
<path d="M144.4397 101.1930
L169.8397 101.1930
" />
<path d="M152.3137 114.8311 A1.2700 1.2700 0.0 0 0 150.1140 116.1011" />
<path d="M154.9400 124.4600
L150.1140 116.1011
" />
<path d="M147.0660 110.8218 A1.2700 1.2700 0.0 0 0 149.2657 109.5518" />
<path d="M152.3137 114.8311
L157.1397 123.1900
" />
<path d="M142.2400 102.4630
L147.0660 110.8218
" />
<path d="M144.4397 101.1930
L149.2657 109.5518
" />
<path d="M149.2657 141.9082 A1.2700 1.2700 0.0 0 0 147.0660 140.6382" />
<path d="M142.2400 148.9970
L147.0660 140.6382
" />
<path d="M150.1140 135.3589 A1.2700 1.2700 0.0 1 0 152.3137 136.6289" />
<path d="M149.2657 141.9082
L144.4397 150.2670
" />
<path d="M154.9400 127.0000
L150.1140 135.3589
" />
<path d="M157.1397 128.2700
L152.3137 136.6289
" />
<path d="M154.9400 124.4600
L145.2880 124.4600
" />
<path d="M129.5400 124.4600
L139.1920 124.4600
" />
<path d="M154.9400 127.0000
L145.2880 127.0000
" />
<path d="M139.1920 127.0000
L129.5400 127.0000
" />
<path d="M169.8397 150.2670
L144.4397 150.2670
" />
<path d="M145.2880 124.4600 A1.2700 1.2700 0.0 0 0 145.2880 127.0000" />
<path d="M139.1920 127.0000 A1.2700 1.2700 0.0 0 0 139.1920 124.4600" />
<path d="M142.2400 148.9970
L129.5400 127.0000
" />
<path d="M129.5400 124.4600
L142.2400 102.4630
" />
<g >
</g>
<g >
</g>
<g >
</g>
<g >
</g>
<g >
</g>
<g >
</g>
<g >
</g>
<g >
</g>
<g >
</g>
<g >
</g>
<g >
</g>
<g >
</g>
<g >
</g>
<g >
</g>
<g >
</g>
<g >
</g>
<g >
</g>
</g> 
</svg>
