<?xml version="1.0" standalone="no"?>
 <!DOCTYPE svg PUBLIC "-//W3C//DTD SVG 1.1//EN" 
 "http://www.w3.org/Graphics/SVG/1.1/DTD/svg11.dtd"> 
<svg
  xmlns:svg="http://www.w3.org/2000/svg"
  xmlns="http://www.w3.org/2000/svg"
  xmlns:xlink="http://www.w3.org/1999/xlink"
  version="1.1"
  width="297.0022mm" height="210.0072mm" viewBox="0.0000 0.0000 297.0022 210.0072">
<title>SVG Image created as Digital D20-F_Cu.svg date 2024/02/05 19:45:26 </title>
  <desc>Image generated by PCBNEW </desc>
<g style="fill:#000000; fill-opacity:1.0000;stroke:#000000; stroke-opacity:1.0000;
stroke-linecap:round; stroke-linejoin:round;"
 transform="translate(0 0) scale(1 1)">
</g>
<g style="fill:#000000; fill-opacity:0.0; 
stroke:#000000; stroke-width:0.0000; stroke-opacity:1; 
stroke-linecap:round; stroke-linejoin:round;">
</g>
<g style="fill:#000000; fill-opacity:0.0; 
stroke:#000000; stroke-width:0.2500; stroke-opacity:1; 
stroke-linecap:round; stroke-linejoin:round;">
<path d="M151.7200 108.7206
L154.2600 113.1200
" />
</g>
<g style="fill:#000000; fill-opacity:0.0; 
stroke:#000000; stroke-width:0.7000; stroke-opacity:1; 
stroke-linecap:round; stroke-linejoin:round;">
<path d="M157.0482 128.9304
L169.4942 150.4875
" />
<path d="M144.7800 150.4875
L157.2260 128.9304
" />
</g>
<g style="fill:#000000; fill-opacity:0.0; 
stroke:#000000; stroke-width:0.2500; stroke-opacity:1; 
stroke-linecap:round; stroke-linejoin:round;">
<path d="M162.5600 142.7382
L160.0200 138.3388
" />
</g>
<g style="fill:#000000; fill-opacity:0.0; 
stroke:#000000; stroke-width:0.7500; stroke-opacity:1; 
stroke-linecap:round; stroke-linejoin:round;">
<g transform="rotate(-120.000000 156.8906 143.0785)">
<text x="156.8906" y="146.0785"
textLength="12.4786" font-size="8.0000" lengthAdjust="spacingAndGlyphs"
text-anchor="middle" opacity="0">20</text>
</g>
<g class="stroked-text"><desc>20</desc>
<path d="M156.8451 148.3834
L156.4548 148.2788
" />
<path d="M156.4548 148.2788
L155.9216 147.9268
" />
<path d="M155.9216 147.9268
L155.2074 146.6897
" />
<path d="M155.2074 146.6897
L155.1691 146.0519
" />
<path d="M155.1691 146.0519
L155.2737 145.6616
" />
<path d="M155.2737 145.6616
L155.6257 145.1285
" />
<path d="M155.6257 145.1285
L156.1205 144.8428
" />
<path d="M156.1205 144.8428
L157.0057 144.6616
" />
<path d="M157.0057 144.6616
L161.6892 145.9166
" />
<path d="M161.6892 145.9166
L159.8321 142.6999
" />
<path d="M152.7788 142.4832
L152.4931 141.9884
" />
<path d="M152.4931 141.9884
L152.4548 141.3506
" />
<path d="M152.4548 141.3506
L152.5594 140.9603
" />
<path d="M152.5594 140.9603
L152.9114 140.4272
" />
<path d="M152.9114 140.4272
L153.7583 139.6083
" />
<path d="M153.7583 139.6083
L154.9955 138.8940
" />
<path d="M154.9955 138.8940
L156.1281 138.5701
" />
<path d="M156.1281 138.5701
L156.7658 138.5318
" />
<path d="M156.7658 138.5318
L157.1561 138.6364
" />
<path d="M157.1561 138.6364
L157.6892 138.9884
" />
<path d="M157.6892 138.9884
L157.9749 139.4832
" />
<path d="M157.9749 139.4832
L158.0132 140.1210
" />
<path d="M158.0132 140.1210
L157.9086 140.5113
" />
<path d="M157.9086 140.5113
L157.5566 141.0444
" />
<path d="M157.5566 141.0444
L156.7097 141.8633
" />
<path d="M156.7097 141.8633
L155.4726 142.5776
" />
<path d="M155.4726 142.5776
L154.3400 142.9016
" />
<path d="M154.3400 142.9016
L153.7022 142.9398
" />
<path d="M153.7022 142.9398
L153.3119 142.8353
" />
<path d="M153.3119 142.8353
L152.7788 142.4832
" />
</g></g>
<g style="fill:#000000; fill-opacity:0.0; 
stroke:#000000; stroke-width:1.0000; stroke-opacity:1; 
stroke-linecap:round; stroke-linejoin:round;">
<path d="M169.4038 150.0201
L144.5245 150.0421
" />
</g>
<g style="fill:#000000; fill-opacity:0.0; 
stroke:#000000; stroke-width:0.2500; stroke-opacity:1; 
stroke-linecap:round; stroke-linejoin:round;">
<path d="M145.1203 138.9282
L147.6603 134.5288
" />
</g>
<g style="fill:#000000; fill-opacity:0.0; 
stroke:#000000; stroke-width:0.7500; stroke-opacity:1; 
stroke-linecap:round; stroke-linejoin:round;">
<g transform="rotate(-60.000000 141.9909 134.1885)">
<text x="141.9909" y="137.1885"
textLength="12.4786" font-size="8.0000" lengthAdjust="spacingAndGlyphs"
text-anchor="middle" opacity="0">20</text>
</g>
<g class="stroked-text"><desc>20</desc>
<path d="M137.3740 136.8016
L137.2694 136.4113
" />
<path d="M137.2694 136.4113
L137.3077 135.7735
" />
<path d="M137.3077 135.7735
L138.0219 134.5364
" />
<path d="M138.0219 134.5364
L138.5551 134.1844
" />
<path d="M138.5551 134.1844
L138.9454 134.0798
" />
<path d="M138.9454 134.0798
L139.5831 134.1181
" />
<path d="M139.5831 134.1181
L140.0780 134.4038
" />
<path d="M140.0780 134.4038
L140.6774 135.0798
" />
<path d="M140.6774 135.0798
L141.9324 139.7633
" />
<path d="M141.9324 139.7633
L143.7895 136.5466
" />
<path d="M140.4505 130.3300
L140.7362 129.8351
" />
<path d="M140.7362 129.8351
L141.2694 129.4831
" />
<path d="M141.2694 129.4831
L141.6597 129.3785
" />
<path d="M141.6597 129.3785
L142.2974 129.4168
" />
<path d="M142.2974 129.4168
L143.4300 129.7408
" />
<path d="M143.4300 129.7408
L144.6672 130.4550
" />
<path d="M144.6672 130.4550
L145.5141 131.2739
" />
<path d="M145.5141 131.2739
L145.8661 131.8071
" />
<path d="M145.8661 131.8071
L145.9707 132.1974
" />
<path d="M145.9707 132.1974
L145.9324 132.8351
" />
<path d="M145.9324 132.8351
L145.6467 133.3300
" />
<path d="M145.6467 133.3300
L145.1135 133.6820
" />
<path d="M145.1135 133.6820
L144.7232 133.7865
" />
<path d="M144.7232 133.7865
L144.0855 133.7483
" />
<path d="M144.0855 133.7483
L142.9529 133.4243
" />
<path d="M142.9529 133.4243
L141.7157 132.7100
" />
<path d="M141.7157 132.7100
L140.8688 131.8911
" />
<path d="M140.8688 131.8911
L140.5168 131.3580
" />
<path d="M140.5168 131.3580
L140.4122 130.9677
" />
<path d="M140.4122 130.9677
L140.4505 130.3300
" />
</g></g>
<g style="fill:#000000; fill-opacity:0.0; 
stroke:#000000; stroke-width:0.2500; stroke-opacity:1; 
stroke-linecap:round; stroke-linejoin:round;">
<path d="M139.7000 121.9200
L144.7800 121.9200
" />
</g>
<g style="fill:#000000; fill-opacity:0.0; 
stroke:#000000; stroke-width:0.7500; stroke-opacity:1; 
stroke-linecap:round; stroke-linejoin:round;">
<text x="142.2400" y="119.8400"
textLength="12.4786" font-size="8.0000" lengthAdjust="spacingAndGlyphs"
text-anchor="middle" opacity="0">20</text>
<g class="stroked-text"><desc>20</desc>
<path d="M137.6686 114.1481
L137.9543 113.8624
" />
<path d="M137.9543 113.8624
L138.5257 113.5767
" />
<path d="M138.5257 113.5767
L139.9543 113.5767
" />
<path d="M139.9543 113.5767
L140.5257 113.8624
" />
<path d="M140.5257 113.8624
L140.8114 114.1481
" />
<path d="M140.8114 114.1481
L141.0971 114.7196
" />
<path d="M141.0971 114.7196
L141.0971 115.2910
" />
<path d="M141.0971 115.2910
L140.8114 116.1481
" />
<path d="M140.8114 116.1481
L137.3829 119.5767
" />
<path d="M137.3829 119.5767
L141.0971 119.5767
" />
<path d="M144.8114 113.5767
L145.3829 113.5767
" />
<path d="M145.3829 113.5767
L145.9543 113.8624
" />
<path d="M145.9543 113.8624
L146.2400 114.1481
" />
<path d="M146.2400 114.1481
L146.5257 114.7196
" />
<path d="M146.5257 114.7196
L146.8114 115.8624
" />
<path d="M146.8114 115.8624
L146.8114 117.2910
" />
<path d="M146.8114 117.2910
L146.5257 118.4339
" />
<path d="M146.5257 118.4339
L146.2400 119.0053
" />
<path d="M146.2400 119.0053
L145.9543 119.2910
" />
<path d="M145.9543 119.2910
L145.3829 119.5767
" />
<path d="M145.3829 119.5767
L144.8114 119.5767
" />
<path d="M144.8114 119.5767
L144.2400 119.2910
" />
<path d="M144.2400 119.2910
L143.9543 119.0053
" />
<path d="M143.9543 119.0053
L143.6686 118.4339
" />
<path d="M143.6686 118.4339
L143.3829 117.2910
" />
<path d="M143.3829 117.2910
L143.3829 115.8624
" />
<path d="M143.3829 115.8624
L143.6686 114.7196
" />
<path d="M143.6686 114.7196
L143.9543 114.1481
" />
<path d="M143.9543 114.1481
L144.2400 113.8624
" />
<path d="M144.2400 113.8624
L144.8114 113.5767
" />
</g><g transform="rotate(60.000000 157.3888 108.3815)">
<text x="157.3888" y="111.3815"
textLength="12.4786" font-size="8.0000" lengthAdjust="spacingAndGlyphs"
text-anchor="middle" opacity="0">11</text>
</g>
<g class="stroked-text"><desc>11</desc>
<path d="M154.4473 108.7601
L152.7330 105.7909
" />
<path d="M153.5902 107.2755
L158.7863 104.2755
" />
<path d="M158.7863 104.2755
L157.7583 104.2092
" />
<path d="M157.7583 104.2092
L156.9777 104.0000
" />
<path d="M156.9777 104.0000
L156.4446 103.6480
" />
<path d="M157.3045 113.7088
L155.5902 110.7396
" />
<path d="M156.4473 112.2242
L161.6435 109.2242
" />
<path d="M161.6435 109.2242
L160.6155 109.1579
" />
<path d="M160.6155 109.1579
L159.8349 108.9487
" />
<path d="M159.8349 108.9487
L159.3017 108.5967
" />
</g><g >
</g>
<g style="fill:#000000; fill-opacity:0.0; 
stroke:#000000; stroke-width:0.0000; stroke-opacity:1; 
stroke-linecap:round; stroke-linejoin:round;">
</g>
<g style="fill:#000000; fill-opacity:1.0000; 
stroke:#000000; stroke-width:0.0000; stroke-opacity:1; 
stroke-linecap:round; stroke-linejoin:round;">
<path style="fill:#000000; fill-opacity:1.0000; 
stroke:#000000; stroke-width:0.0000; stroke-opacity:1; 
stroke-linecap:round; stroke-linejoin:round;fill-rule:evenodd;"
d="M 170.7690,138.8280
170.7690,137.4280
171.3690,137.4280
171.3690,138.8280
Z" /> 
<path style="fill:#000000; fill-opacity:1.0000; 
stroke:#000000; stroke-width:0.0000; stroke-opacity:1; 
stroke-linecap:round; stroke-linejoin:round;fill-rule:evenodd;"
d="M 172.0390,138.8280
172.0390,137.4280
172.6390,137.4280
172.6390,138.8280
Z" /> 
<path style="fill:#000000; fill-opacity:1.0000; 
stroke:#000000; stroke-width:0.0000; stroke-opacity:1; 
stroke-linecap:round; stroke-linejoin:round;fill-rule:evenodd;"
d="M 173.3090,138.8280
173.3090,137.4280
173.9090,137.4280
173.9090,138.8280
Z" /> 
<path style="fill:#000000; fill-opacity:1.0000; 
stroke:#000000; stroke-width:0.0000; stroke-opacity:1; 
stroke-linecap:round; stroke-linejoin:round;fill-rule:evenodd;"
d="M 174.5790,138.8280
174.5790,137.4280
175.1790,137.4280
175.1790,138.8280
Z" /> 
<path style="fill:#000000; fill-opacity:1.0000; 
stroke:#000000; stroke-width:0.0000; stroke-opacity:1; 
stroke-linecap:round; stroke-linejoin:round;fill-rule:evenodd;"
d="M 174.5790,132.8280
174.5790,131.4280
175.1790,131.4280
175.1790,132.8280
Z" /> 
<path style="fill:#000000; fill-opacity:1.0000; 
stroke:#000000; stroke-width:0.0000; stroke-opacity:1; 
stroke-linecap:round; stroke-linejoin:round;fill-rule:evenodd;"
d="M 173.3090,132.8280
173.3090,131.4280
173.9090,131.4280
173.9090,132.8280
Z" /> 
<path style="fill:#000000; fill-opacity:1.0000; 
stroke:#000000; stroke-width:0.0000; stroke-opacity:1; 
stroke-linecap:round; stroke-linejoin:round;fill-rule:evenodd;"
d="M 172.0390,132.8280
172.0390,131.4280
172.6390,131.4280
172.6390,132.8280
Z" /> 
<path style="fill:#000000; fill-opacity:1.0000; 
stroke:#000000; stroke-width:0.0000; stroke-opacity:1; 
stroke-linecap:round; stroke-linejoin:round;fill-rule:evenodd;"
d="M 170.7690,132.8280
170.7690,131.4280
171.3690,131.4280
171.3690,132.8280
Z" /> 
</g>
<g >
</g>
<g style="fill:#000000; fill-opacity:1.0000; 
stroke:#000000; stroke-width:0.0000; stroke-opacity:1; 
stroke-linecap:round; stroke-linejoin:round;">
<path style="fill:#000000; fill-opacity:1.0000; 
stroke:#000000; stroke-width:0.0000; stroke-opacity:1; 
stroke-linecap:round; stroke-linejoin:round;fill-rule:evenodd;"
d="M 176.4420,132.1780
176.4420,130.4780
178.1420,130.4780
178.1420,132.1780
Z" /> 
<circle cx="177.2920" cy="133.8680" r="0.8500" /> 
<circle cx="177.2920" cy="136.4080" r="0.8500" /> 
<circle cx="177.2920" cy="138.9480" r="0.8500" /> 
</g>
<g >
</g>
<g style="fill:#000000; fill-opacity:1.0000; 
stroke:#000000; stroke-width:0.0000; stroke-opacity:1; 
stroke-linecap:round; stroke-linejoin:round;">
<path style="fill:#000000; fill-opacity:1.0000; 
stroke:#000000; stroke-width:0.0000; stroke-opacity:1; 
stroke-linecap:round; stroke-linejoin:round;fill-rule:evenodd;"
d="M 167.8060,132.1780
167.8060,130.4780
169.5060,130.4780
169.5060,132.1780
Z" /> 
<circle cx="168.6560" cy="133.8680" r="0.8500" /> 
<circle cx="168.6560" cy="136.4080" r="0.8500" /> 
<circle cx="168.6560" cy="138.9480" r="0.8500" /> 
</g>
<g >
</g>
<g >
</g>
<g >
</g>
<g >
</g>
<g >
</g>
<g >
</g>
<g >
</g>
<g >
</g>
<g >
</g>
<g >
</g>
<g >
</g>
<g >
</g>
<g style="fill:#000000; fill-opacity:1.0000; 
stroke:#000000; stroke-width:0.0000; stroke-opacity:1; 
stroke-linecap:round; stroke-linejoin:round;">
<circle cx="156.5015" cy="112.1846" r="0.4000" /> 
</g>
<g style="fill:#000000; fill-opacity:1.0000; 
stroke:#000000; stroke-width:0.0212; stroke-opacity:1; 
stroke-linecap:round; stroke-linejoin:round;">
</g>
<g style="fill:#000000; fill-opacity:1.0000; 
stroke:#000000; stroke-width:0.0000; stroke-opacity:1; 
stroke-linecap:round; stroke-linejoin:round;">
<circle cx="153.6515" cy="107.2483" r="0.4000" /> 
</g>
<g style="fill:#000000; fill-opacity:1.0000; 
stroke:#000000; stroke-width:0.0212; stroke-opacity:1; 
stroke-linecap:round; stroke-linejoin:round;">
</g>
<g >
</g>
<g style="fill:#000000; fill-opacity:1.0000; 
stroke:#000000; stroke-width:0.0212; stroke-opacity:1; 
stroke-linecap:round; stroke-linejoin:round;">
</g>
<g style="fill:#000000; fill-opacity:1.0000; 
stroke:#000000; stroke-width:0.2500; stroke-opacity:1; 
stroke-linecap:round; stroke-linejoin:round;">
</g>
<g style="fill:#000000; fill-opacity:0.0; 
stroke:#000000; stroke-width:0.2500; stroke-opacity:1; 
stroke-linecap:round; stroke-linejoin:round;">
<path d="M171.0690 138.1280
L171.0690 137.8000
" />
<path d="M171.0690 137.8000
L177.2920 131.5770
" />
<path d="M177.2920 131.5770
L177.2920 131.3280
" />
<path d="M174.8790 132.1280
L174.8790 132.4610
" />
<path d="M168.6560 138.6840
L168.6560 138.9480
" />
<path d="M174.8790 132.4610
L168.6560 138.6840
" />
<path d="M173.6090 138.1280
L173.6090 137.7950
" />
<path d="M173.6090 137.7950
L174.9960 136.4080
" />
<path d="M174.9960 136.4080
L177.2920 136.4080
" />
<path d="M172.3390 138.1280
L172.3390 137.7950
" />
<path d="M172.3390 137.7950
L176.2660 133.8680
" />
<path d="M176.2660 133.8680
L177.2920 133.8680
" />
<path d="M173.6090 132.1280
L173.6090 132.4610
" />
<path d="M173.6090 132.4610
L169.6620 136.4080
" />
<path d="M169.6620 136.4080
L168.6560 136.4080
" />
<path d="M172.3390 132.1280
L172.3390 132.4610
" />
<path d="M172.3390 132.4610
L170.9320 133.8680
" />
<path d="M170.9320 133.8680
L168.6560 133.8680
" />
<path d="M174.8790 138.1280
L176.4720 138.1280
" />
<path d="M176.4720 138.1280
L177.2920 138.9480
" />
<path d="M171.0690 132.1280
L169.4560 132.1280
" />
<path d="M169.4560 132.1280
L168.6560 131.3280
" />
</g>
<g >
</g>
<g style="fill:#000000; fill-opacity:0.0; 
stroke:#000000; stroke-width:0.2500; stroke-opacity:1; 
stroke-linecap:round; stroke-linejoin:round;">
<g >
</g>
<g style="fill:#000000; fill-opacity:1.0000; 
stroke:#000000; stroke-width:0.0000; stroke-opacity:1; 
stroke-linecap:round; stroke-linejoin:round;">
<path style="fill:#000000; fill-opacity:1.0000; 
stroke:#000000; stroke-width:0.0000; stroke-opacity:1; 
stroke-linecap:round; stroke-linejoin:round;fill-rule:evenodd;"
d="M 178.5050,102.8897
178.5508,102.9425
178.5620,102.9940
178.5620,122.0482
178.5423,122.1152
178.4895,122.1610
178.4362,122.1721
161.5004,121.9231
161.4337,121.9024
161.3887,121.8490
161.3798,121.7797
161.3947,121.7374
172.1763,102.9323
172.2267,102.8840
172.2838,102.8700
178.4380,102.8700
Z" /> 
</g>
</g>
</g> 
</svg>
