<?xml version="1.0" encoding="UTF-8" standalone="no"?>
<svg
   version="1.1"
   width="297.0022mm"
   height="210.0072mm"
   viewBox="0 0 297.0022 210.0072"
   id="svg169"
   xmlns="http://www.w3.org/2000/svg"
   xmlns:svg="http://www.w3.org/2000/svg">
  <defs
     id="defs169" />
  <title
     id="title1">SVG Image created as Digital D20-F_Cu.svg date 2024/02/05 19:45:26 </title>
  <desc
     id="desc1">Image generated by PCBNEW </desc>
  <g
     style="fill:#000000;fill-opacity:0;stroke:#000000;stroke-width:0.75;stroke-linecap:round;stroke-linejoin:round;stroke-opacity:1"
     id="g169">
    <g
       style="fill:#000000;fill-opacity:0;stroke:#000000;stroke-width:0.25;stroke-linecap:round;stroke-linejoin:round;stroke-opacity:1"
       id="g168">
      <g
         style="fill:#000000;fill-opacity:1;stroke:#000000;stroke-width:0;stroke-linecap:round;stroke-linejoin:round;stroke-opacity:1"
         id="g167">
        <path
           id="path166"
           style="fill:#000000;fill-opacity:1;fill-rule:evenodd;stroke:#000000;stroke-width:0;stroke-linecap:round;stroke-linejoin:round;stroke-opacity:1"
           d="m 172.28406,102.87021 -0.0574,0.0139 -0.0506,0.0481 -10.78125,18.80505 -0.015,0.0424 0.009,0.0692 0.045,0.0538 0.0667,0.0207 16.93592,0.24856 0.0532,-0.0109 0.0527,-0.046 0.0202,-0.0667 v -19.05413 l -0.0114,-0.0517 -0.046,-0.0527 -0.0667,-0.0196 z m 1.00045,6.69209 c 0.54093,0 1.0044,0.0586 1.3901,0.17622 0.3857,0.11289 0.68187,0.29889 0.88883,0.55759 0.20697,0.254 0.31058,0.59717 0.31058,1.02991 0,0.60678 -0.22845,1.05155 -0.68471,1.33377 -0.46097,0.28222 -1.09576,0.42323 -1.9048,0.42323 -0.54563,0 -1.01111,-0.0566 -1.39681,-0.1695 -0.3857,-0.11289 -0.68239,-0.29837 -0.88935,-0.55707 -0.20696,-0.2587 -0.31006,-0.60239 -0.31006,-1.03043 0,-0.60207 0.22794,-1.04632 0.6842,-1.33325 0.45625,-0.28693 1.09358,-0.43047 1.91202,-0.43047 z m 0,1.05834 c -0.57385,0 -1.00648,0.0516 -1.29811,0.15503 -0.29163,0.10348 -0.4377,0.28694 -0.4377,0.55035 0,0.26811 0.14607,0.45158 0.4377,0.55036 0.29163,0.0988 0.72426,0.14831 1.29811,0.14831 0.57385,0 1.00649,-0.0495 1.29812,-0.14831 0.28692,-0.0988 0.43046,-0.28225 0.43046,-0.55036 0,-0.26341 -0.14354,-0.44687 -0.43046,-0.55035 -0.28693,-0.10348 -0.71956,-0.15503 -1.29812,-0.15503 z m 1.62264,2.94917 h 0.89607 v 3.52072 h -0.74052 l -1.27744,-1.26297 c -0.26341,-0.254 -0.48174,-0.4587 -0.65578,-0.61392 -0.17874,-0.15522 -0.33896,-0.26793 -0.48007,-0.33848 -0.14581,-0.0706 -0.30098,-0.10594 -0.4656,-0.10594 -0.20226,0 -0.35288,0.0566 -0.45166,0.1695 -0.0988,0.10819 -0.14831,0.25627 -0.14831,0.44442 0,0.19285 0.045,0.38086 0.13436,0.5643 0.0894,0.18345 0.21623,0.37652 0.38086,0.57878 l -0.6842,0.57826 c -0.127,-0.14581 -0.24476,-0.29844 -0.35295,-0.45837 -0.10819,-0.16463 -0.19511,-0.35264 -0.26097,-0.56431 -0.0705,-0.21637 -0.10593,-0.47514 -0.10593,-0.77618 0,-0.32926 0.0611,-0.61179 0.18345,-0.84697 0.11759,-0.23989 0.27983,-0.42336 0.48679,-0.55036 0.20226,-0.1317 0.43273,-0.1974 0.69143,-0.1974 0.27752,0 0.53175,0.0566 0.76223,0.1695 0.23048,0.10818 0.45842,0.26789 0.68419,0.47955 0.22578,0.20697 0.47495,0.45866 0.74776,0.755 l 0.6072,0.64905 h 0.0491 z" />
      </g>
    </g>
  </g>
</svg>
