<?xml version="1.0" standalone="no"?>
 <!DOCTYPE svg PUBLIC "-//W3C//DTD SVG 1.1//EN" 
 "http://www.w3.org/Graphics/SVG/1.1/DTD/svg11.dtd"> 
<svg
  xmlns:svg="http://www.w3.org/2000/svg"
  xmlns="http://www.w3.org/2000/svg"
  xmlns:xlink="http://www.w3.org/1999/xlink"
  version="1.1"
  width="39.9034mm" height="37.4396mm" viewBox="0.0000 0.0000 39.9034 37.4396">
<title>SVG Image created as Digital D20-brd.svg date 2024/03/10 11:07:16 </title>
  <desc>Image generated by PCBNEW </desc>
<g style="fill:#000000; fill-opacity:1.0000;stroke:#000000; stroke-opacity:1.0000;
stroke-linecap:round; stroke-linejoin:round;"
 transform="translate(0 0) scale(1 1)">
</g>
<g style="fill:#000000; fill-opacity:0.0; 
stroke:#000000; stroke-width:0.0000; stroke-opacity:1; 
stroke-linecap:round; stroke-linejoin:round;">
</g>
<g style="fill:#000000; fill-opacity:1.0000; 
stroke:#000000; stroke-width:0.0212; stroke-opacity:1; 
stroke-linecap:round; stroke-linejoin:round;">
<rect x="-5.000000" y="-5.000000" width="49.913474" height="47.457495" rx="0.000000" />
</g>
<g style="fill:#FFFFFF; fill-opacity:1.0000; 
stroke:#FFFFFF; stroke-width:0.0212; stroke-opacity:1; 
stroke-linecap:round; stroke-linejoin:round;">
<g >
</g>
<g >
</g>
<g >
</g>
<g >
</g>
<g >
</g>
<g >
</g>
<g style="fill:#FFFFFF; fill-opacity:1.0000; 
stroke:#FFFFFF; stroke-width:0.0212; stroke-opacity:1; 
stroke-linecap:round; stroke-linejoin:round;">
<g >
</g>
<g style="fill:#FFFFFF; fill-opacity:1.0000; 
stroke:#FFFFFF; stroke-width:0.0000; stroke-opacity:1; 
stroke-linecap:round; stroke-linejoin:round;">
<path style="fill:#FFFFFF; fill-opacity:1.0000; 
stroke:#FFFFFF; stroke-width:0.0000; stroke-opacity:1; 
stroke-linecap:round; stroke-linejoin:round;fill-rule:evenodd;"
d="M 19.6544,0.6968
19.6854,0.7326
38.0131,32.6178
38.0295,32.6857
38.0065,32.7517
37.9515,32.7948
37.9056,32.8036
1.2502,32.8036
1.1832,32.7839
1.1374,32.7311
1.1275,32.6619
1.1427,32.6178
19.4704,0.7326
19.5209,0.6843
19.5895,0.6709
Z" /> 
</g>
</g>
</g>
<g style="fill:#FFFFFF; fill-opacity:1.0000; 
stroke:#FFFFFF; stroke-width:0.0000; stroke-opacity:1; 
stroke-linecap:round; stroke-linejoin:round;">
</g>
<g style="fill:#FFFFFF; fill-opacity:1.0000; 
stroke:#FFFFFF; stroke-width:0.3750; stroke-opacity:1; 
stroke-linecap:round; stroke-linejoin:round;">
</g>
<g style="fill:#FFFFFF; fill-opacity:0.0; 
stroke:#FFFFFF; stroke-width:0.3750; stroke-opacity:1; 
stroke-linecap:round; stroke-linejoin:round;">
<path d="M15.7799 29.2356
L23.3999 29.2356
" />
</g>
<g style="fill:#FFFFFF; fill-opacity:0.0; 
stroke:#FFFFFF; stroke-width:1.1250; stroke-opacity:1; 
stroke-linecap:round; stroke-linejoin:round;">
<text x="19.5899" y="26.1156"
textLength="18.7179" font-size="12.0000" lengthAdjust="spacingAndGlyphs"
text-anchor="middle" opacity="0">20</text>
<g class="stroked-text"><desc>20</desc>
<path d="M12.7328 17.5778
L13.1614 17.1492
" />
<path d="M13.1614 17.1492
L14.0185 16.7206
" />
<path d="M14.0185 16.7206
L16.1614 16.7206
" />
<path d="M16.1614 16.7206
L17.0185 17.1492
" />
<path d="M17.0185 17.1492
L17.4471 17.5778
" />
<path d="M17.4471 17.5778
L17.8756 18.4349
" />
<path d="M17.8756 18.4349
L17.8756 19.2921
" />
<path d="M17.8756 19.2921
L17.4471 20.5778
" />
<path d="M17.4471 20.5778
L12.3042 25.7206
" />
<path d="M12.3042 25.7206
L17.8756 25.7206
" />
<path d="M23.4471 16.7206
L24.3042 16.7206
" />
<path d="M24.3042 16.7206
L25.1614 17.1492
" />
<path d="M25.1614 17.1492
L25.5899 17.5778
" />
<path d="M25.5899 17.5778
L26.0185 18.4349
" />
<path d="M26.0185 18.4349
L26.4471 20.1492
" />
<path d="M26.4471 20.1492
L26.4471 22.2921
" />
<path d="M26.4471 22.2921
L26.0185 24.0064
" />
<path d="M26.0185 24.0064
L25.5899 24.8635
" />
<path d="M25.5899 24.8635
L25.1614 25.2921
" />
<path d="M25.1614 25.2921
L24.3042 25.7206
" />
<path d="M24.3042 25.7206
L23.4471 25.7206
" />
<path d="M23.4471 25.7206
L22.5899 25.2921
" />
<path d="M22.5899 25.2921
L22.1614 24.8635
" />
<path d="M22.1614 24.8635
L21.7328 24.0064
" />
<path d="M21.7328 24.0064
L21.3042 22.2921
" />
<path d="M21.3042 22.2921
L21.3042 20.1492
" />
<path d="M21.3042 20.1492
L21.7328 18.4349
" />
<path d="M21.7328 18.4349
L22.1614 17.5778
" />
<path d="M22.1614 17.5778
L22.5899 17.1492
" />
<path d="M22.5899 17.1492
L23.4471 16.7206
" />
</g><g >
</g>
<g >
</g>
<g >
</g>
<g >
</g>
<g >
</g>
<g >
</g>
</g>
<g style="fill:#FFFFFF; fill-opacity:0.0; 
stroke:#FFFFFF; stroke-width:1.1250; stroke-opacity:1; 
stroke-linecap:round; stroke-linejoin:round;">
</g>
<g style="fill:#FFFFFF; fill-opacity:0.0; 
stroke:#FFFFFF; stroke-width:2.2500; stroke-opacity:1; 
stroke-linecap:round; stroke-linejoin:round;">
<text x="19.5899" y="26.1156"
textLength="22.0929" font-size="12.0000" lengthAdjust="spacingAndGlyphs"
text-anchor="middle" opacity="0">20</text>
<g class="stroked-text"><desc>20</desc>
<path d="M12.7328 17.5193
L13.1614 17.0907
" />
<path d="M13.1614 17.0907
L14.0185 16.6621
" />
<path d="M14.0185 16.6621
L16.1614 16.6621
" />
<path d="M16.1614 16.6621
L17.0185 17.0907
" />
<path d="M17.0185 17.0907
L17.4471 17.5193
" />
<path d="M17.4471 17.5193
L17.8756 18.3764
" />
<path d="M17.8756 18.3764
L17.8756 19.2336
" />
<path d="M17.8756 19.2336
L17.4471 20.5193
" />
<path d="M17.4471 20.5193
L12.3042 25.6621
" />
<path d="M12.3042 25.6621
L17.8756 25.6621
" />
<path d="M23.4471 16.6621
L24.3042 16.6621
" />
<path d="M24.3042 16.6621
L25.1614 17.0907
" />
<path d="M25.1614 17.0907
L25.5899 17.5193
" />
<path d="M25.5899 17.5193
L26.0185 18.3764
" />
<path d="M26.0185 18.3764
L26.4471 20.0907
" />
<path d="M26.4471 20.0907
L26.4471 22.2336
" />
<path d="M26.4471 22.2336
L26.0185 23.9479
" />
<path d="M26.0185 23.9479
L25.5899 24.8050
" />
<path d="M25.5899 24.8050
L25.1614 25.2336
" />
<path d="M25.1614 25.2336
L24.3042 25.6621
" />
<path d="M24.3042 25.6621
L23.4471 25.6621
" />
<path d="M23.4471 25.6621
L22.5899 25.2336
" />
<path d="M22.5899 25.2336
L22.1614 24.8050
" />
<path d="M22.1614 24.8050
L21.7328 23.9479
" />
<path d="M21.7328 23.9479
L21.3042 22.2336
" />
<path d="M21.3042 22.2336
L21.3042 20.0907
" />
<path d="M21.3042 20.0907
L21.7328 18.3764
" />
<path d="M21.7328 18.3764
L22.1614 17.5193
" />
<path d="M22.1614 17.5193
L22.5899 17.0907
" />
<path d="M22.5899 17.0907
L23.4471 16.6621
" />
</g></g>
<g style="fill:#FFFFFF; fill-opacity:0.0; 
stroke:#FFFFFF; stroke-width:1.1250; stroke-opacity:1; 
stroke-linecap:round; stroke-linejoin:round;">
<path d="M23.3999 29.2356
L15.7799 29.2356
" />
</g>
<g style="fill:#FFFFFF; fill-opacity:1.0000; 
stroke:#FFFFFF; stroke-width:0.0000; stroke-opacity:1; 
stroke-linecap:round; stroke-linejoin:round;">
<path style="fill:#FFFFFF; fill-opacity:1.0000; 
stroke:#FFFFFF; stroke-width:0.0000; stroke-opacity:1; 
stroke-linecap:round; stroke-linejoin:round;fill-rule:evenodd;"
d="M 18.1912,1.9486
18.2702,1.9987
18.2896,2.0122
18.4151,2.1184
18.5496,2.2595
18.6202,2.3468
18.7489,2.5035
18.8987,2.6626
18.9731,2.7327
19.0823,2.8374
19.1481,2.9322
19.1887,3.0517
19.2160,3.1916
19.2417,3.3795
19.2573,3.5667
19.2597,3.6787
19.2601,3.8657
19.2690,4.0972
19.2848,4.3585
19.3062,4.6351
19.3317,4.9122
19.3598,5.1752
19.3891,5.4095
19.4181,5.6005
19.4453,5.7335
19.4694,5.7939
19.4704,5.7947
19.5479,5.8307
19.6447,5.8610
19.7320,5.8957
19.8737,5.9658
20.0490,6.0605
20.2096,6.1528
20.4019,6.2614
20.5834,6.3548
20.7316,6.4220
20.8125,6.4497
20.9450,6.4924
21.1072,6.5620
21.2019,6.6101
21.3511,6.6824
21.4912,6.7351
21.5596,6.7517
21.6651,6.7820
21.8129,6.8439
21.9617,6.9191
22.1446,7.0101
22.3410,7.0926
22.4748,7.1384
22.6415,7.1979
22.7980,7.2722
22.8635,7.3125
22.9524,7.3837
23.0121,7.4590
23.0451,7.5542
23.0537,7.6851
23.0404,7.8675
23.0076,8.1170
22.9978,8.1840
22.9832,8.3100
22.9802,8.3982
22.9828,8.4153
22.9807,8.4810
22.9606,8.5610
22.9369,8.6936
22.9372,8.7864
22.9299,8.9153
22.8998,9.0289
22.8657,9.1488
22.8578,9.2413
22.8558,9.3366
22.8412,9.4916
22.8173,9.6790
22.7872,9.8720
22.7757,9.9362
22.7391,10.1631
22.7299,10.3258
22.7505,10.4446
22.8033,10.5399
22.8553,10.5982
22.9751,10.7271
23.0972,10.8718
23.1231,10.9049
23.2331,11.0230
23.4046,11.1755
23.6253,11.3539
23.8828,11.5498
24.1650,11.7546
24.4593,11.9597
24.7535,12.1568
25.0353,12.3373
25.2923,12.4927
25.5121,12.6145
25.6826,12.6941
25.7506,12.7169
25.8583,12.7586
25.9979,12.8307
26.0765,12.8779
26.1946,12.9584
26.2580,13.0271
26.2875,13.1175
26.3016,13.2380
26.3093,13.3862
26.3052,13.5081
26.2980,13.5501
26.2816,13.6456
26.2715,13.7813
26.2704,13.8204
26.2553,13.9590
26.2212,14.0712
26.2096,14.0915
26.1710,14.1741
26.1704,14.2184
26.1692,14.2824
26.1459,14.3994
26.1215,14.4890
26.0787,14.6462
26.0462,14.7906
26.0369,14.8456
26.0128,14.9574
25.9836,15.0277
25.9509,15.1354
25.9500,15.3001
25.9784,15.4978
26.0341,15.7044
26.0528,15.7568
26.1277,15.9777
26.1851,16.2057
26.2294,16.4636
26.2649,16.7740
26.2822,16.9763
26.3038,17.2140
26.3285,17.3809
26.3613,17.4942
26.4074,17.5710
26.4721,17.6285
26.4798,17.6339
26.5074,17.6493
26.5444,17.6597
26.5988,17.6641
26.6785,17.6615
26.7916,17.6509
26.9461,17.6313
27.1501,17.6019
27.4114,17.5615
27.7382,17.5092
28.1385,17.4440
28.4513,17.3928
29.5582,17.2111
30.3790,17.7864
30.6828,18.0003
30.9216,18.1715
31.1032,18.3068
31.2353,18.4131
31.3258,18.4973
31.3825,18.5662
31.4130,18.6267
31.4252,18.6856
31.4266,18.7105
31.4214,18.7853
31.3952,18.8287
31.3407,18.8375
31.2507,18.8087
31.1180,18.7391
30.9352,18.6257
30.6952,18.4654
30.4466,18.2940
30.1943,18.1191
30.0037,17.9887
29.8639,17.8968
29.7643,17.8375
29.6943,17.8049
29.6433,17.7931
29.6005,17.7961
29.5666,17.8047
29.4493,17.8569
29.3768,17.9416
29.3445,18.0728
29.3481,18.2643
29.3677,18.4288
29.3956,18.6358
29.4283,18.8952
29.4615,19.1718
29.4873,19.3993
29.5317,19.7632
29.5803,20.0922
29.6312,20.3761
29.6823,20.6047
29.7315,20.7679
29.7767,20.8555
29.7852,20.8631
29.8495,20.9402
29.8949,21.0400
29.9480,21.1668
30.0029,21.2571
30.0553,21.3380
30.1322,21.4719
30.2191,21.6331
30.2391,21.6717
30.3232,21.8271
30.3987,21.9527
30.4524,22.0269
30.4620,22.0356
30.5133,22.1031
30.5588,22.2106
30.5589,22.2110
30.6026,22.3172
30.6505,22.3826
30.6509,22.3829
30.6988,22.4404
30.7658,22.5487
30.8080,22.6273
30.8759,22.7509
30.9341,22.8404
30.9577,22.8664
31.0019,22.9211
31.0654,23.0261
31.1011,23.0929
31.1706,23.2230
31.2325,23.3282
31.2534,23.3592
31.3142,23.4577
31.3353,23.5022
31.3699,23.5733
31.4355,23.6973
31.5196,23.8509
31.5441,23.8948
31.6397,24.0676
31.7594,24.2875
31.8863,24.5232
31.9812,24.7011
32.1237,24.9705
32.2322,25.1731
32.3152,25.3196
32.3811,25.4204
32.4382,25.4861
32.4952,25.5271
32.5602,25.5540
32.6418,25.5771
32.6954,25.5917
32.8572,25.6445
32.9996,25.7038
33.0712,25.7435
33.1867,25.7994
33.3355,25.8415
33.3739,25.8480
33.5109,25.8765
33.6193,25.9150
33.6408,25.9274
33.7304,25.9662
33.8630,25.9994
33.9076,26.0068
34.0783,26.0445
34.1950,26.1128
34.2778,26.2307
34.3465,26.4171
34.3483,26.4228
34.3973,26.5687
34.4445,26.6794
34.4762,26.7273
34.5188,26.7948
34.5296,26.8451
34.5605,26.9336
34.6283,27.0453
34.6475,27.0707
34.7204,27.1790
34.7618,27.2714
34.7647,27.2873
34.8096,27.3749
34.9095,27.4570
35.0330,27.5120
35.1073,27.5229
35.2192,27.5414
35.3541,27.5867
35.3766,27.5966
35.5216,27.6461
35.6645,27.6699
35.6800,27.6702
35.8055,27.6865
35.8999,27.7242
35.9870,27.7605
36.1236,27.7934
36.2096,27.8067
36.3493,27.8283
36.4537,27.8528
36.4866,27.8663
36.5569,27.8893
36.6736,27.9061
36.6995,27.9081
36.8226,27.9238
36.9096,27.9489
36.9187,27.9541
36.9872,27.9801
37.1125,28.0112
37.2304,28.0339
37.4678,28.1010
37.6312,28.2113
37.7259,28.3695
37.7541,28.5120
37.7690,28.7393
37.7770,28.9736
37.7778,29.1847
37.7708,29.3422
37.7694,29.3561
37.7458,29.5851
37.7334,29.7587
37.7306,29.9087
37.7362,30.0670
37.7378,30.0959
37.7419,30.2555
37.7363,30.3897
37.7260,30.4542
37.7172,30.5347
37.7310,30.5648
37.7504,30.6206
37.7493,30.7061
37.7557,30.8111
37.7869,30.9744
37.8369,31.1719
37.8999,31.3797
37.9577,31.5430
38.0011,31.6589
38.0568,31.8112
38.0833,31.8845
38.1322,32.0109
38.1730,32.0985
38.1889,32.1214
38.2176,32.1710
38.2610,32.2768
38.2900,32.3581
38.3321,32.5295
38.3205,32.6342
38.2553,32.6704
38.2457,32.6702
38.1827,32.6379
38.1122,32.5730
38.0532,32.5001
37.9946,32.4111
37.9318,32.2957
37.8601,32.1437
37.7747,31.9447
37.6710,31.6887
37.5442,31.3653
37.4707,31.1752
37.4004,30.9972
37.3398,30.8523
37.2967,30.7587
37.2812,30.7335
37.2614,30.6783
37.2437,30.5543
37.2288,30.3807
37.2177,30.1766
37.2112,29.9613
37.2100,29.7540
37.2152,29.5739
37.2249,29.4581
37.2526,29.1956
37.2644,28.9691
37.2603,28.7925
37.2404,28.6801
37.2208,28.6491
37.1516,28.6209
37.0221,28.5829
36.8583,28.5418
36.6865,28.5038
36.5329,28.4755
36.4980,28.4704
36.3722,28.4476
36.2825,28.4211
36.2687,28.4140
36.2010,28.3900
36.0776,28.3621
35.9786,28.3448
35.8311,28.3157
35.7135,28.2815
35.6695,28.2610
35.5799,28.2306
35.4607,28.2227
35.3447,28.2173
35.2648,28.1930
35.2645,28.1929
35.1888,28.1667
35.0658,28.1476
35.0238,28.1444
34.8157,28.0936
34.6085,27.9763
34.4282,27.8102
34.3231,27.6589
34.2482,27.5232
34.1796,27.4032
34.1609,27.3720
34.1186,27.2993
34.0779,27.2182
34.0279,27.1054
33.9577,26.9374
33.9455,26.9079
33.8445,26.7364
33.6990,26.6255
33.5031,26.5628
33.3577,26.5249
33.1838,26.4681
33.0969,26.4355
32.9214,26.3711
32.7395,26.3121
32.6650,26.2909
32.4873,26.2210
32.2593,26.0938
32.0974,25.9886
31.9218,25.8661
31.8005,25.7704
31.7132,25.6817
31.6394,25.5800
31.5837,25.4883
31.5030,25.3474
31.4384,25.2292
31.4067,25.1655
31.3573,25.0662
31.3378,25.0336
31.2853,24.9473
31.2058,24.8113
31.1099,24.6446
31.0085,24.4659
30.9122,24.2942
30.8316,24.1485
30.7776,24.0475
30.7616,24.0146
30.7091,23.9146
30.6802,23.8717
30.6384,23.8045
30.5674,23.6795
30.4785,23.5168
30.4154,23.3983
30.2815,23.1534
30.1750,22.9816
30.0889,22.8748
30.0164,22.8250
29.9505,22.8242
29.9306,22.8324
29.8619,22.9006
29.7896,23.0200
29.7306,23.1564
29.7015,23.2753
29.7012,23.3030
29.6857,23.3729
29.6402,23.4928
29.5865,23.6114
29.5201,23.7608
29.4715,23.8931
29.4542,23.9628
29.4282,24.0599
29.3747,24.1982
29.3304,24.2955
29.2649,24.4531
29.2460,24.5781
29.2650,24.6990
29.2949,24.7727
29.3607,24.9112
29.4561,25.1023
29.5744,25.3335
29.7091,25.5927
29.8539,25.8675
30.0022,26.1455
30.1475,26.4145
30.2833,26.6623
30.4032,26.8763
30.5006,27.0445
30.5100,27.0601
30.5689,27.1656
30.6027,27.2347
30.6559,27.3451
30.7284,27.4800
30.8057,27.6143
30.8735,27.7232
30.9174,27.7818
30.9204,27.7843
30.9602,27.8430
31.0007,27.9456
31.0017,27.9487
31.0493,28.0581
31.1052,28.1287
31.1632,28.2008
31.2070,28.2992
31.2672,28.4303
31.3323,28.5241
31.3953,28.6175
31.4702,28.7590
31.5257,28.8826
31.5857,29.0207
31.6358,29.1228
31.6628,29.1640
31.6906,29.2195
31.7041,29.2869
31.6870,29.3826
31.6294,29.4537
31.5561,29.4821
31.4919,29.4499
31.4875,29.4434
31.4326,29.3641
31.3522,29.2548
31.3307,29.2265
31.2385,29.0956
31.1585,28.9654
31.1493,28.9484
31.0986,28.8559
31.0164,28.7097
30.9153,28.5322
30.8373,28.3963
30.7226,28.1974
30.6098,28.0015
30.5149,27.8363
30.4712,27.7601
30.3959,27.6361
30.3325,27.5448
30.3047,27.5144
30.2577,27.4587
30.1940,27.3573
30.1751,27.3233
30.0574,27.1077
29.9580,26.9341
29.8842,26.8146
29.8432,26.7612
29.8429,26.7610
29.8122,26.7241
29.7527,26.6337
29.6603,26.4833
29.5310,26.2665
29.4281,26.0917
29.2709,25.8248
29.0857,25.5131
28.9785,25.3332
28.8057,25.0431
28.6751,24.8157
28.5840,24.6382
28.5298,24.4973
28.5101,24.3801
28.5224,24.2734
28.5639,24.1641
28.6323,24.0393
28.7037,23.9210
28.8067,23.7408
28.8960,23.5659
28.9573,23.4246
28.9711,23.3831
29.0186,23.2470
29.0913,23.0749
29.1591,22.9329
29.2307,22.7758
29.2819,22.6317
29.3008,22.5387
29.2908,22.4467
29.2610,22.2931
29.2160,22.1010
29.1716,21.9315
29.0426,21.4432
28.9352,20.9896
28.8454,20.5474
28.7688,20.0933
28.7012,19.6038
28.6385,19.0556
28.6226,18.9029
28.5884,18.6584
28.5401,18.4897
28.4717,18.3851
28.3775,18.3326
28.3335,18.3239
28.1891,18.3202
28.0042,18.3440
27.7635,18.3978
27.5678,18.4507
27.3776,18.5016
27.1859,18.5484
27.0565,18.5763
26.8793,18.6222
26.6940,18.6876
26.6445,18.7088
26.5243,18.7675
26.4610,18.8182
26.4307,18.8877
26.4155,18.9668
26.3872,19.0905
26.3537,19.1801
26.3483,19.1890
26.3215,19.2695
26.3100,19.3888
26.3100,19.3977
26.2913,19.5494
26.2479,19.6850
26.1926,19.8528
26.1515,20.0753
26.1292,20.3193
26.1290,20.5274
26.1326,20.6899
26.1286,20.8411
26.1250,20.8852
26.1141,21.0009
26.0987,21.1844
26.0802,21.4154
26.0604,21.6739
26.0408,21.9398
26.0371,21.9903
26.0228,22.1610
26.0055,22.3321
26.0032,22.3529
25.9889,22.4741
25.9679,22.6525
25.9438,22.8580
25.9322,22.9562
25.8906,23.2308
25.8403,23.4190
25.7806,23.5217
25.7113,23.5402
25.6822,23.5253
25.6262,23.4474
25.5831,23.3220
25.5609,23.1861
25.5675,23.0770
25.5797,23.0495
25.6016,22.9702
25.6054,22.8437
25.6012,22.7887
25.5930,22.6615
25.5978,22.5726
25.6039,22.5545
25.6168,22.4948
25.6256,22.3750
25.6280,22.2480
25.6312,22.0844
25.6399,21.9431
25.6489,21.8735
25.6619,21.7586
25.6649,21.6174
25.6645,21.6052
25.6614,21.5046
25.6563,21.3355
25.6500,21.1175
25.6429,20.8700
25.6389,20.7274
25.6304,20.4704
25.6201,20.2303
25.6091,20.0273
25.5984,19.8815
25.5931,19.8335
25.5835,19.7233
25.5865,19.5971
25.6042,19.4378
25.6385,19.2287
25.6913,18.9529
25.6988,18.9154
25.7199,18.7848
25.7277,18.6529
25.7210,18.5018
25.6983,18.3133
25.6584,18.0694
25.6203,17.8609
25.5618,17.5544
25.4961,17.2210
25.4299,16.8942
25.3700,16.6077
25.3503,16.5164
25.2830,16.1745
25.2276,15.8264
25.1856,15.4876
25.1583,15.1735
25.1470,14.8994
25.1532,14.6810
25.1766,14.5382
25.2126,14.3829
25.2404,14.1937
25.2576,13.9992
25.2617,13.8283
25.2504,13.7098
25.2467,13.6968
25.2214,13.6351
25.1827,13.5823
25.1155,13.5266
25.0049,13.4560
24.8357,13.3586
24.7799,13.3273
24.5904,13.2242
24.4129,13.1334
24.2711,13.0665
24.2050,13.0401
24.1165,12.9991
23.9714,12.9184
23.7859,12.8078
23.5765,12.6768
23.4444,12.5914
23.2079,12.4348
23.0305,12.3122
22.8964,12.2110
22.7901,12.1187
22.6959,12.0227
22.6044,11.9180
22.4733,11.7698
22.3808,11.6840
22.3154,11.6503
22.2955,11.6491
22.1959,11.6985
22.1282,11.8195
22.1018,11.9677
22.0764,12.1232
22.0312,12.2676
21.9867,12.4020
21.9653,12.5255
21.9223,12.7140
21.8237,12.8918
21.6895,13.0272
21.6256,13.0646
21.4994,13.1332
21.3498,13.2294
21.2748,13.2832
21.1593,13.3746
21.0927,13.4486
21.0515,13.5384
21.0215,13.6432
20.9898,13.7932
20.9746,13.9268
20.9749,13.9686
20.9777,14.0759
20.9751,14.2303
20.9705,14.3417
20.9685,14.5384
20.9788,14.7464
20.9883,14.8378
21.0098,15.0120
21.0283,15.1822
21.0343,15.2462
21.0453,15.3416
21.0674,15.5079
21.0984,15.7286
21.1359,15.9876
21.1778,16.2686
21.1854,16.3193
21.2279,16.6059
21.2662,16.8763
21.2982,17.1137
21.3215,17.3008
21.3339,17.4206
21.3347,17.4318
21.3486,17.5767
21.3741,17.7711
21.4061,17.9780
21.4138,18.0227
21.4441,18.2073
21.4554,18.3276
21.4454,18.4058
21.4119,18.4638
21.3650,18.5121
21.2975,18.5880
21.1931,18.7196
21.0648,18.8898
20.9255,19.0817
20.8904,19.1313
20.7829,19.2816
20.6968,19.4038
20.6313,19.5095
20.5854,19.6104
20.5583,19.7179
20.5489,19.8438
20.5566,19.9994
20.5802,20.1965
20.6191,20.4465
20.6721,20.7611
20.7351,21.1317
20.7846,21.4375
20.8258,21.7164
20.8573,21.9563
20.8775,22.1448
20.8850,22.2697
20.8798,22.3171
20.8545,22.4005
20.8488,22.5247
20.8506,22.5502
20.8540,22.6626
20.8312,22.7134
20.7849,22.7265
20.7545,22.7143
20.7246,22.6661
20.6923,22.5722
20.6552,22.4229
20.6106,22.2086
20.5557,21.9194
20.5394,21.8306
20.4872,21.5518
20.4370,21.2959
20.3919,21.0779
20.3550,20.9132
20.3295,20.8166
20.3258,20.8060
20.2900,20.7059
20.2393,20.5513
20.1836,20.3721
20.1723,20.3344
20.1136,20.1528
20.0532,19.9890
20.0026,19.8734
19.9947,19.8590
19.9687,19.8133
19.9533,19.7715
19.9525,19.7220
19.9705,19.6533
20.0115,19.5538
20.0796,19.4119
20.1789,19.2161
20.3136,18.9548
20.3320,18.9192
20.4456,18.7073
20.5659,18.4961
20.6760,18.3146
20.7376,18.2214
20.9090,17.9776
20.8502,17.6553
20.8139,17.4630
20.7674,17.2251
20.7186,16.9822
20.6999,16.8914
20.6425,16.5831
20.5842,16.2164
20.5291,15.8209
20.4813,15.4263
20.4445,15.0620
20.4319,14.9051
20.4177,14.7270
20.4031,14.5783
20.3906,14.4845
20.3878,14.4711
20.3759,14.3916
20.3619,14.2433
20.3473,14.0457
20.3332,13.8180
20.3212,13.5794
20.3153,13.4354
20.3209,13.1710
20.3667,12.9699
20.4631,12.8125
20.6209,12.6791
20.7697,12.5916
20.8947,12.5009
21.0258,12.3671
21.1470,12.2121
21.2423,12.0576
21.2957,11.9255
21.3012,11.8678
21.3080,11.7493
21.3292,11.6641
21.3614,11.5482
21.3952,11.3858
21.4252,11.2095
21.4459,11.0521
21.4516,10.9463
21.4515,10.9436
21.4618,10.8356
21.4843,10.7516
21.5035,10.6845
21.5283,10.5720
21.5603,10.4057
21.6010,10.1772
21.6519,9.8782
21.7124,9.5141
21.7494,9.2620
21.7801,8.9999
21.8026,8.7498
21.8152,8.5336
21.8159,8.3733
21.8124,8.3290
21.7992,8.2458
21.7743,8.1850
21.7217,8.1299
21.6254,8.0637
21.4694,7.9696
21.4684,7.9690
21.2947,7.8704
21.1263,7.7827
20.9948,7.7220
20.9750,7.7143
20.8319,7.6571
20.6620,7.5834
20.5819,7.5466
20.3563,7.4433
20.0967,7.3292
19.8243,7.2129
19.5600,7.1033
19.3251,7.0094
19.1406,6.9398
19.0855,6.9207
18.9733,6.8735
18.8174,6.7955
18.6487,6.7022
18.6244,6.6879
18.4657,6.5916
18.3661,6.5136
18.3128,6.4298
18.2929,6.3157
18.2934,6.1468
18.2962,6.0665
18.2961,5.8904
18.2868,5.6894
18.2793,5.5979
18.2635,5.4072
18.2514,5.2092
18.2482,5.1269
18.2435,4.9667
18.2391,4.8205
18.2378,4.7763
18.2268,4.6279
18.2122,4.5166
18.2000,4.4132
18.1864,4.2518
18.1740,4.0627
18.1710,4.0070
18.1529,3.7826
18.1186,3.6219
18.0565,3.5009
17.9551,3.3954
17.8380,3.3058
17.7028,3.1933
17.5811,3.0658
17.5452,3.0191
17.4584,2.9158
17.3277,2.7850
17.1794,2.6528
17.1581,2.6352
17.0070,2.5158
16.8991,2.4449
16.8133,2.4105
16.7396,2.4012
16.6422,2.3898
16.5961,2.3680
16.5958,2.3667
16.6304,2.3278
16.7332,2.2797
16.8860,2.2291
17.0704,2.1829
17.1037,2.1760
17.2591,2.1400
17.4613,2.0871
17.6731,2.0270
17.7299,2.0099
17.9135,1.9555
18.0361,1.9271
18.1209,1.9247
Z" /> 
<path style="fill:#FFFFFF; fill-opacity:1.0000; 
stroke:#FFFFFF; stroke-width:0.0000; stroke-opacity:1; 
stroke-linecap:round; stroke-linejoin:round;fill-rule:evenodd;"
d="M 36.0604,25.6324
36.2646,25.7332
36.4716,25.8434
36.6549,25.9483
36.7877,26.0331
36.7990,26.0413
36.9856,26.1761
37.1297,26.2738
37.2583,26.3512
37.3981,26.4254
37.4240,26.4385
37.5642,26.5147
37.6777,26.5867
37.7284,26.6279
37.7936,26.6757
37.8266,26.6788
37.8846,26.6900
37.9582,26.7336
38.0522,26.7806
38.2093,26.8352
38.4054,26.8907
38.6168,26.9400
38.7871,26.9716
38.9092,26.9920
39.0690,27.0199
39.1456,27.0336
39.2796,27.0544
39.3758,27.0629
39.4036,27.0606
39.4609,27.0605
39.5743,27.0758
39.6591,27.0914
39.8287,27.1407
39.9135,27.2030
39.9123,27.2776
39.9073,27.2858
39.8479,27.3242
39.7564,27.3528
39.6638,27.3675
39.5574,27.3737
39.4261,27.3704
39.2585,27.3565
39.0435,27.3310
38.7699,27.2928
38.4264,27.2409
38.2251,27.2094
38.0358,27.1814
37.8800,27.1614
37.7774,27.1519
37.7478,27.1527
37.6901,27.1423
37.5739,27.0956
37.4161,27.0217
37.2338,26.9293
37.0441,26.8273
36.8640,26.7246
36.7106,26.6301
36.6152,26.5638
36.4017,26.4085
36.2114,26.2851
36.0565,26.2004
35.9491,26.1613
35.9125,26.1628
35.8535,26.2086
35.7558,26.3019
35.6383,26.4231
35.5195,26.5529
35.4182,26.6718
35.3963,26.6995
35.3137,26.7970
35.2459,26.8614
35.2329,26.8698
35.1782,26.9165
35.0923,27.0093
35.0278,27.0864
34.9289,27.1997
34.8405,27.2844
34.8008,27.3122
34.7296,27.3746
34.6632,27.4740
34.6005,27.5717
34.5395,27.6288
34.5392,27.6289
34.4787,27.6814
34.4007,27.7784
34.3769,27.8131
34.2289,27.9680
34.0237,28.0887
33.7897,28.1619
33.6061,28.1773
33.4512,28.1742
33.3129,28.1737
33.2765,28.1743
33.1924,28.1745
33.1019,28.1692
32.9791,28.1561
32.7986,28.1329
32.7669,28.1287
32.5679,28.1304
32.3991,28.2010
32.2469,28.3393
32.1413,28.4463
32.0052,28.5685
31.9335,28.6275
31.7899,28.7472
31.6479,28.8752
31.5923,28.9292
31.4430,29.0481
31.2188,29.1820
31.0467,29.2696
30.8529,29.3604
30.7093,29.4176
30.5888,29.4489
30.4638,29.4619
30.3566,29.4643
30.1943,29.4638
30.0596,29.4606
29.9885,29.4562
29.8778,29.4493
29.8399,29.4499
29.7389,29.4522
29.5813,29.4531
29.3890,29.4527
29.1836,29.4512
28.9867,29.4488
28.8202,29.4457
28.7058,29.4421
28.6693,29.4395
28.5564,29.4349
28.5048,29.4384
28.4258,29.4411
28.2820,29.4400
28.0966,29.4357
27.9624,29.4311
27.6834,29.4246
27.4814,29.4309
27.3459,29.4521
27.2665,29.4900
27.2328,29.5466
27.2300,29.5680
27.2547,29.6616
27.3220,29.7839
27.4106,29.9032
27.4990,29.9878
27.5228,30.0019
27.5756,30.0504
27.6566,30.1497
27.7325,30.2555
27.8287,30.3877
27.9190,30.4959
27.9707,30.5458
28.0418,30.6169
28.1349,30.7323
28.1969,30.8193
28.3007,30.9549
28.3994,31.0337
28.5137,31.0777
28.5925,31.0887
28.7454,31.1009
28.9585,31.1139
29.2179,31.1271
29.5097,31.1399
29.8201,31.1519
30.1350,31.1625
30.4406,31.1712
30.7231,31.1774
30.9684,31.1807
31.1627,31.1804
31.1810,31.1801
31.3017,31.1818
31.3785,31.1870
31.5008,31.1962
31.6538,31.2009
31.8088,31.2011
31.9370,31.1968
32.0097,31.1881
32.0134,31.1867
32.0841,31.1816
32.1932,31.1979
32.1963,31.1986
32.3149,31.2121
32.4040,31.1989
32.4955,31.1847
32.6026,31.1960
32.7462,31.2094
32.8600,31.1999
32.9724,31.1921
33.1324,31.1980
33.2672,31.2117
33.4167,31.2288
33.5302,31.2365
33.5794,31.2337
33.6414,31.2373
33.7065,31.2594
33.7808,31.3220
33.8135,31.4075
33.8015,31.4852
33.7416,31.5246
33.7337,31.5252
33.6376,31.5330
33.5027,31.5481
33.4675,31.5525
33.3080,31.5669
33.1553,31.5711
33.1359,31.5706
33.0305,31.5682
32.8628,31.5663
32.6585,31.5651
32.5018,31.5647
32.2722,31.5646
32.0461,31.5643
31.8556,31.5639
31.7678,31.5636
31.6227,31.5669
31.5119,31.5762
31.4717,31.5850
31.4000,31.5979
31.2803,31.6024
31.2414,31.6016
30.9959,31.5959
30.7958,31.5951
30.6554,31.5992
30.5887,31.6081
30.5883,31.6083
30.5411,31.6164
30.4330,31.6227
30.2566,31.6275
30.0042,31.6311
29.8013,31.6328
29.4916,31.6355
29.1291,31.6400
28.9197,31.6430
28.5820,31.6475
28.3198,31.6470
28.1205,31.6371
27.9714,31.6136
27.8601,31.5720
27.7738,31.5081
27.7000,31.4174
27.6261,31.2958
27.5593,31.1748
27.4548,30.9955
27.3479,30.8307
27.2562,30.7070
27.2272,30.6743
27.1330,30.5651
27.0203,30.4161
26.9313,30.2864
26.8310,30.1458
26.7318,30.0294
26.6607,29.9666
26.5760,29.9292
26.4281,29.8783
26.2393,29.8211
26.0703,29.7749
25.5829,29.6424
25.1364,29.5086
24.7085,29.3653
24.2769,29.2046
23.8192,29.0183
23.3131,28.7986
23.1730,28.7360
22.9441,28.6434
22.7738,28.6009
22.6490,28.6077
22.5565,28.6631
22.5270,28.6969
22.4515,28.8201
22.3797,28.9921
22.3059,29.2274
22.2539,29.4234
22.2029,29.6136
22.1476,29.8029
22.1070,29.9290
22.0582,30.1054
22.0221,30.2986
22.0158,30.3521
22.0065,30.4855
22.0187,30.5656
22.0638,30.6267
22.1247,30.6794
22.2177,30.7657
22.2786,30.8395
22.2835,30.8487
22.3399,30.9121
22.4374,30.9817
22.4452,30.9862
22.5672,31.0782
22.6629,31.1836
22.7806,31.3154
22.9527,31.4622
23.1528,31.6035
23.3329,31.7078
23.4755,31.7859
23.6045,31.8650
23.6408,31.8901
23.7356,31.9574
23.8868,32.0625
24.0776,32.1940
24.2916,32.3405
24.5120,32.4904
24.5539,32.5188
24.6947,32.6165
24.8342,32.7171
24.8510,32.7295
24.9488,32.8024
25.0928,32.9098
25.2587,33.0335
25.3380,33.0926
25.5550,33.2659
25.6928,33.4036
25.7520,33.5066
25.7333,33.5759
25.7059,33.5937
25.6104,33.6032
25.4802,33.5778
25.3515,33.5291
25.2603,33.4689
25.2426,33.4445
25.1848,33.3859
25.0771,33.3193
25.0274,33.2955
24.9132,33.2390
24.8386,33.1904
24.8260,33.1761
24.7807,33.1350
24.6813,33.0676
24.5725,33.0019
24.4325,32.9174
24.3144,32.8392
24.2587,32.7966
24.1656,32.7279
24.0449,32.6547
24.0342,32.6489
23.9455,32.6014
23.7965,32.5212
23.6045,32.4177
23.3866,32.3000
23.2612,32.2322
23.0343,32.1110
22.8213,31.9999
22.6400,31.9079
22.5083,31.8443
22.4641,31.8249
22.3639,31.7782
22.2561,31.7124
22.1270,31.6175
21.9630,31.4832
21.7505,31.2996
21.7218,31.2743
21.6192,31.1908
21.5090,31.1180
21.3747,31.0483
21.2002,30.9737
20.9690,30.8863
20.7694,30.8150
20.4747,30.7125
20.1531,30.6027
19.8370,30.4966
19.5589,30.4053
19.4700,30.3767
19.1402,30.2640
18.8111,30.1379
18.4967,30.0049
18.2110,29.8715
17.9680,29.7442
17.7819,29.6296
17.6700,29.5380
17.5535,29.4292
17.4035,29.3104
17.2437,29.1983
17.0977,29.1093
16.9895,29.0599
16.9764,29.0566
16.9103,29.0476
16.8452,29.0547
16.7633,29.0850
16.6469,29.1456
16.4780,29.2435
16.4230,29.2760
16.2389,29.3887
16.0715,29.4969
15.9427,29.5863
15.8868,29.6304
15.8070,29.6865
15.6646,29.7718
15.4760,29.8771
15.2579,29.9930
15.1179,30.0647
14.8640,30.1912
14.6691,30.2836
14.5145,30.3491
14.3814,30.3950
14.2512,30.4286
14.1147,30.4555
13.9208,30.4949
13.8003,30.5321
13.7384,30.5719
13.7274,30.5885
13.7204,30.6995
13.7913,30.8186
13.9064,30.9156
14.0284,31.0153
14.1309,31.1267
14.2251,31.2324
14.3213,31.3127
14.4630,31.4442
14.5677,31.6185
14.6178,31.8024
14.6183,31.8764
14.6146,32.0200
14.6231,32.1977
14.6322,32.2895
14.6536,32.4352
14.6844,32.5300
14.7416,32.6105
14.8174,32.6889
14.9314,32.7914
15.0394,32.8713
15.0758,32.8920
15.1701,32.9432
15.3026,33.0226
15.3967,33.0823
15.5661,33.1824
15.7513,33.2775
15.8353,33.3150
15.9969,33.3835
16.1536,33.4525
16.2120,33.4793
16.3001,33.5175
16.4551,33.5815
16.6618,33.6650
16.9049,33.7620
17.1692,33.8663
17.2169,33.8850
17.4863,33.9915
17.7397,34.0935
17.9612,34.1845
18.1349,34.2578
18.2449,34.3071
18.2549,34.3120
18.3874,34.3724
18.5684,34.4475
18.7637,34.5232
18.8062,34.5389
18.9813,34.6049
19.0911,34.6553
19.1538,34.7031
19.1873,34.7611
19.2057,34.8259
19.2377,34.9223
19.2994,35.0784
19.3827,35.2747
19.4793,35.4913
19.5046,35.5465
19.5810,35.7147
19.6438,35.8503
19.7026,35.9600
19.7670,36.0501
19.8466,36.1274
19.9509,36.1984
20.0895,36.2696
20.2720,36.3477
20.5080,36.4391
20.8069,36.5504
21.1594,36.6811
21.4489,36.7912
21.7111,36.8950
21.9346,36.9877
22.1080,37.0644
22.2198,37.1204
22.2583,37.1485
22.3178,37.2122
22.4226,37.2792
22.4455,37.2904
22.5446,37.3437
22.5772,37.3888
22.5654,37.4354
22.5397,37.4556
22.4829,37.4575
22.3855,37.4385
22.2377,37.3960
22.0297,37.3274
21.7519,37.2304
21.6668,37.2001
21.3993,37.1059
21.1525,37.0214
20.9412,36.9515
20.7801,36.9011
20.6837,36.8749
20.6726,36.8728
20.5681,36.8538
20.4088,36.8203
20.2258,36.7790
20.1875,36.7700
20.0009,36.7300
19.8288,36.7003
19.7034,36.6864
19.6870,36.6860
19.6344,36.6857
19.5905,36.6781
19.5473,36.6541
19.4968,36.6041
19.4311,36.5189
19.3422,36.3890
19.2223,36.2051
19.0634,35.9578
19.0418,35.9241
18.9150,35.7197
18.7922,35.5099
18.6902,35.3238
18.6403,35.2238
18.5148,34.9535
18.2063,34.8433
18.0216,34.7786
17.7922,34.6999
17.5575,34.6207
17.4696,34.5915
17.1738,34.4871
16.8271,34.3542
16.4571,34.2042
16.0914,34.0483
15.7576,33.8980
15.6154,33.8304
15.4540,33.7537
15.3180,33.6921
15.2305,33.6559
15.2175,33.6516
15.1426,33.6222
15.0073,33.5602
14.8288,33.4741
14.6246,33.3723
14.4120,33.2635
14.2843,33.1966
14.0581,33.0595
13.9068,32.9193
13.8187,32.7571
13.7821,32.5538
13.7807,32.3811
13.7646,32.2275
13.7144,32.0471
13.6407,31.8646
13.5546,31.7048
13.4669,31.5926
13.4197,31.5590
13.3204,31.4939
13.2573,31.4328
13.1730,31.3471
13.0492,31.2365
12.9116,31.1224
12.7856,31.0258
12.6968,30.9679
12.6944,30.9667
12.6061,30.9038
12.5445,30.8423
12.4960,30.7922
12.4110,30.7144
12.2830,30.6036
12.1054,30.4541
11.8720,30.2604
11.5869,30.0260
11.3871,29.8679
11.1754,29.7103
10.9701,29.5657
10.7892,29.4467
10.6507,29.3660
10.6105,29.3469
10.5319,29.3167
10.4668,29.3079
10.3928,29.3258
10.2873,29.3761
10.1278,29.4642
10.1268,29.4648
9.9546,29.5660
9.7944,29.6679
9.6761,29.7515
9.6595,29.7648
9.5384,29.8601
9.3896,29.9703
9.3177,30.0213
9.1155,30.1651
8.8868,30.3328
8.6499,30.5106
8.4229,30.6846
8.2241,30.8411
8.0716,30.9661
8.0275,31.0043
7.9305,31.0778
7.7850,31.1738
7.6199,31.2733
7.5954,31.2872
7.4325,31.3765
7.3153,31.4237
7.2160,31.4280
7.1072,31.3882
6.9613,31.3033
6.8931,31.2607
6.7405,31.1728
6.5618,31.0803
6.4788,31.0411
6.3058,30.9595
6.1283,30.8709
6.0554,30.8326
5.9143,30.7565
5.7855,30.6872
5.7465,30.6662
5.6126,30.6015
5.5088,30.5585
5.4131,30.5174
5.2666,30.4485
5.0966,30.3647
5.0469,30.3394
4.8435,30.2428
4.6872,30.1923
4.5514,30.1855
4.4093,30.2205
4.2731,30.2772
4.1081,30.3380
3.9368,30.3797
3.8784,30.3874
3.7455,30.4110
3.5670,30.4587
3.3783,30.5211
3.3524,30.5306
3.1735,30.6019
3.0581,30.6599
2.9854,30.7170
2.9405,30.7761
2.8820,30.8547
2.8400,30.8838
2.8387,30.8834
2.8224,30.8341
2.8321,30.7209
2.8647,30.5633
2.9169,30.3805
2.9275,30.3482
2.9741,30.1957
3.0293,29.9941
3.0832,29.7806
3.0969,29.7228
3.1415,29.5367
3.1782,29.4163
3.2186,29.3416
3.2744,29.2927
3.3572,29.2493
3.3786,29.2393
3.5334,29.1837
3.7228,29.1377
3.8338,29.1203
4.0338,29.0872
4.2465,29.0370
4.3444,29.0077
4.4897,28.9654
4.6046,28.9558
4.7285,28.9804
4.8633,29.0267
5.0388,29.0983
5.2088,29.1785
5.3069,29.2324
5.4691,29.3255
5.6740,29.4336
5.9083,29.5506
6.1584,29.6703
6.4111,29.7868
6.6530,29.8939
6.8706,29.9858
7.0504,30.0561
7.1792,30.0990
7.2436,30.1084
7.2447,30.1079
7.3147,30.0588
7.3893,29.9902
7.4631,29.9318
7.5946,29.8442
7.7643,29.7398
7.9245,29.6468
8.1147,29.5346
8.2864,29.4241
8.4187,29.3293
8.4831,29.2731
8.5864,29.1797
8.7277,29.0741
8.8167,29.0161
8.9539,28.9230
9.0696,28.8281
9.1181,28.7771
9.1971,28.7009
9.3247,28.6039
9.4642,28.5126
9.6345,28.3997
9.8041,28.2709
9.9107,28.1779
10.0455,28.0632
10.1881,27.9649
10.2558,27.9283
10.3619,27.8869
10.4570,27.8728
10.5559,27.8919
10.6736,27.9499
10.8249,28.0526
11.0246,28.2058
11.0777,28.2477
11.1795,28.3234
11.2543,28.3701
11.2705,28.3764
11.3264,28.4111
11.3855,28.4685
11.4886,28.5553
11.5691,28.6015
11.6770,28.6722
11.7604,28.7551
11.8472,28.8446
11.9234,28.8977
12.0049,28.9471
12.1318,29.0371
12.2821,29.1516
12.4342,29.2742
12.4841,29.3162
12.6623,29.4613
12.7986,29.5506
12.9118,29.5923
13.0207,29.5942
13.0971,29.5783
13.2687,29.5390
13.4551,29.5056
13.4967,29.4997
13.6540,29.4635
13.8718,29.3913
14.1367,29.2893
14.4351,29.1642
14.7535,29.0223
15.0783,28.8699
15.3961,28.7137
15.6933,28.5599
15.9563,28.4150
16.1717,28.2855
16.3260,28.1777
16.3797,28.1302
16.4696,28.0578
16.6019,27.9730
16.6821,27.9286
16.8108,27.8664
16.9021,27.8459
16.9951,27.8656
17.1065,27.9136
17.2387,27.9810
17.3422,28.0455
17.3750,28.0727
17.4494,28.1347
17.5619,28.2113
17.5953,28.2318
17.7078,28.3142
17.7878,28.3998
17.7996,28.4200
17.8519,28.4948
17.8899,28.5175
17.9448,28.5505
18.0344,28.6292
18.0999,28.6950
18.2146,28.8107
18.3233,28.9111
18.3663,28.9466
18.4512,29.0234
18.4974,29.0838
18.5743,29.1660
18.7165,29.2492
18.9020,29.3234
19.1087,29.3785
19.1634,29.3885
19.3922,29.4341
19.6184,29.4983
19.8638,29.5889
20.1504,29.7134
20.3342,29.7996
20.5509,29.8997
20.7078,29.9618
20.8223,29.9900
20.9119,29.9884
20.9940,29.9612
21.0025,29.9573
21.0297,29.9410
21.0572,29.9142
21.0882,29.8693
21.1258,29.7989
21.1732,29.6957
21.2335,29.5521
21.3099,29.3607
21.4056,29.1142
21.5238,28.8050
21.6675,28.4258
21.7795,28.1293
22.1756,27.0799
23.0842,26.6567
23.4214,26.5006
23.6890,26.3793
23.8970,26.2897
24.0551,26.2284
24.1733,26.1921
24.2613,26.1775
24.3289,26.1813
24.3860,26.2003
24.4083,26.2114
24.4705,26.2534
24.4949,26.2978
24.4753,26.3494
24.4054,26.4128
24.2788,26.4930
24.0892,26.5946
23.8303,26.7223
23.5576,26.8520
23.2800,26.9829
23.0717,27.0829
22.9222,27.1580
22.8211,27.2146
22.7579,27.2589
22.7221,27.2972
22.7033,27.3357
22.6939,27.3694
22.6804,27.4970
22.7175,27.6022
22.8150,27.6958
22.9826,27.7884
23.1349,27.8537
23.3281,27.9330
23.5691,28.0343
23.8253,28.1440
24.0351,28.2353
24.3725,28.3789
24.6818,28.5012
24.9531,28.5991
25.1766,28.6692
25.3425,28.7082
25.4410,28.7128
25.4518,28.7093
25.5507,28.6922
25.6599,28.7027
25.7962,28.7201
25.9019,28.7177
25.9981,28.7128
26.1525,28.7131
26.3355,28.7185
26.3790,28.7205
26.5556,28.7254
26.7022,28.7228
26.7933,28.7133
26.8057,28.7094
26.8897,28.6987
27.0056,28.7131
27.0059,28.7132
27.1198,28.7284
27.2004,28.7196
27.2009,28.7194
27.2746,28.7067
27.4018,28.7028
27.4910,28.7055
27.6321,28.7086
27.7386,28.7029
27.7730,28.6955
27.8424,28.6846
27.9651,28.6820
28.0408,28.6846
28.1883,28.6894
28.3103,28.6884
28.3476,28.6859
28.4633,28.6824
28.5124,28.6864
28.5912,28.6919
28.7315,28.6971
28.9065,28.7011
28.9568,28.7018
29.1543,28.7055
29.4045,28.7118
29.6721,28.7197
29.8736,28.7265
30.1781,28.7378
30.4079,28.7451
30.5763,28.7465
30.6965,28.7398
30.7820,28.7232
30.8459,28.6944
30.9017,28.6515
30.9626,28.5924
31.0020,28.5533
31.1286,28.4396
31.2512,28.3459
31.3213,28.3037
31.4275,28.2316
31.5384,28.1238
31.5632,28.0938
31.6564,27.9894
31.7439,27.9148
31.7654,27.9024
31.8439,27.8442
31.9389,27.7460
31.9676,27.7110
32.0856,27.5820
32.2031,27.5151
32.3466,27.5024
32.5424,27.5360
32.5481,27.5374
32.6991,27.5678
32.8185,27.5824
32.8758,27.5789
32.9556,27.5757
33.0045,27.5915
33.0967,27.6089
33.2273,27.6061
33.2589,27.6022
33.3891,27.5932
33.4899,27.6035
33.5051,27.6090
33.6034,27.6139
33.7245,27.5685
33.8338,27.4890
33.8804,27.4301
33.9524,27.3424
34.0591,27.2483
34.0789,27.2337
34.1943,27.1329
34.2863,27.0210
34.2943,27.0078
34.3712,26.9073
34.4510,26.8443
34.5260,26.7871
34.6228,26.6852
34.6773,26.6174
34.7659,26.5072
34.8393,26.4290
34.8674,26.4073
34.9225,26.3579
34.9955,26.2653
35.0101,26.2438
35.0853,26.1451
35.1505,26.0823
35.1595,26.0770
35.2164,26.0306
35.3059,25.9377
35.3846,25.8469
35.5613,25.6749
35.7385,25.5885
35.9229,25.5856
Z" /> 
<path style="fill:#FFFFFF; fill-opacity:1.0000; 
stroke:#FFFFFF; stroke-width:0.0000; stroke-opacity:1; 
stroke-linecap:round; stroke-linejoin:round;fill-rule:evenodd;"
d="M 18.3645,3.8661
18.4516,3.9389
18.5620,4.0560
18.6818,4.2036
18.7021,4.2309
18.8004,4.3565
18.9338,4.5174
19.0778,4.6839
19.1173,4.7283
19.2442,4.8716
19.3218,4.9707
19.3597,5.0466
19.3679,5.1204
19.3558,5.2132
19.3518,5.2364
19.3086,5.3951
19.2375,5.5766
19.1882,5.6775
19.1006,5.8604
19.0197,6.0634
18.9876,6.1604
18.9389,6.3037
18.8807,6.4033
18.7896,6.4906
18.6744,6.5745
18.5150,6.6772
18.3519,6.7705
18.2514,6.8200
18.0821,6.8994
17.8760,7.0053
17.6459,7.1301
17.4043,7.2663
17.1639,7.4065
16.9374,7.5431
16.7374,7.6687
16.5766,7.7757
16.4676,7.8566
16.4230,7.9039
16.4227,7.9051
16.4228,7.9906
16.4363,8.0911
16.4417,8.1850
16.4381,8.3430
16.4263,8.5419
16.4105,8.7265
16.3934,8.9466
16.3855,9.1507
16.3872,9.3133
16.3963,9.3984
16.4135,9.5365
16.4190,9.7129
16.4154,9.8191
16.4130,9.9848
16.4244,10.1341
16.4383,10.2031
16.4554,10.3115
16.4618,10.4717
16.4565,10.6382
16.4513,10.8425
16.4595,11.0554
16.4746,11.1960
16.4912,11.3722
16.4899,11.5454
16.4811,11.6218
16.4542,11.7325
16.4111,11.8185
16.3387,11.8886
16.2237,11.9517
16.0529,12.0167
15.8129,12.0925
15.7480,12.1119
15.6276,12.1518
15.5464,12.1864
15.5320,12.1960
15.4716,12.2219
15.3906,12.2374
15.2604,12.2720
15.1764,12.3115
15.0566,12.3594
14.9408,12.3801
14.8178,12.3999
14.7305,12.4318
14.6433,12.4703
14.4968,12.5225
14.3167,12.5801
14.1291,12.6343
14.0661,12.6511
13.8450,12.7138
13.6937,12.7742
13.5946,12.8431
13.5306,12.9312
13.4998,13.0029
13.4336,13.1660
13.3540,13.3378
13.3349,13.3753
13.2744,13.5249
13.2087,13.7448
13.1402,14.0202
13.0716,14.3364
13.0052,14.6786
12.9437,15.0321
12.8894,15.3821
12.8449,15.7137
12.8127,16.0123
12.7952,16.2630
12.7951,16.4512
12.8032,16.5225
12.8109,16.6376
12.8045,16.7946
12.7949,16.8858
12.7719,17.0269
12.7364,17.1134
12.6670,17.1783
12.5637,17.2420
12.4327,17.3116
12.3205,17.3595
12.2794,17.3707
12.1859,17.3961
12.0586,17.4444
12.0228,17.4599
11.8907,17.5048
11.7747,17.5213
11.7513,17.5193
11.6601,17.5193
11.6197,17.5374
11.5612,17.5634
11.4453,17.5917
11.3539,17.6075
11.1933,17.6352
11.0487,17.6667
10.9949,17.6815
10.8834,17.7070
10.8073,17.7102
10.6959,17.7261
10.5462,17.7948
10.3791,17.9042
10.2154,18.0419
10.1758,18.0810
10.0072,18.2423
9.8248,18.3907
9.6099,18.5398
9.3435,18.7031
9.1675,18.8043
8.9612,18.9244
8.8203,19.0172
8.7316,19.0949
8.6815,19.1691
8.6566,19.2521
8.6550,19.2613
8.6527,19.2929
8.6589,19.3308
8.6779,19.3819
8.7140,19.4531
8.7714,19.5511
8.8544,19.6829
8.9673,19.8553
9.1144,20.0751
9.2999,20.3492
9.5281,20.6844
9.7068,20.9462
10.3392,21.8726
10.1646,22.8596
10.0992,23.2254
10.0450,23.5141
9.9991,23.7359
9.9586,23.9006
9.9205,24.0182
9.8820,24.0987
9.8401,24.1519
9.7919,24.1878
9.7699,24.1997
9.6999,24.2265
9.6495,24.2211
9.6185,24.1754
9.6066,24.0817
9.6136,23.9320
9.6391,23.7185
9.6830,23.4331
9.7332,23.1354
9.7851,22.8329
9.8227,22.6050
9.8469,22.4394
9.8586,22.3242
9.8586,22.2469
9.8477,22.1957
9.8269,22.1581
9.8047,22.1311
9.7079,22.0469
9.6005,22.0169
9.4679,22.0431
9.2958,22.1273
9.1551,22.2146
8.9793,22.3274
8.7580,22.4666
8.5213,22.6136
8.3261,22.7331
8.0150,22.9271
7.7374,23.1103
7.5016,23.2764
7.3160,23.4193
7.1889,23.5329
7.1286,23.6109
7.1253,23.6217
7.0826,23.7126
7.0113,23.7960
6.9189,23.8976
6.8602,23.9856
6.8091,24.0672
6.7202,24.1936
6.6108,24.3404
6.5843,24.3748
6.4790,24.5167
6.3971,24.6382
6.3525,24.7183
6.3486,24.7307
6.3092,24.8057
6.2310,24.8923
6.2307,24.8926
6.1529,24.9771
6.1139,25.0481
6.1138,25.0487
6.0819,25.1164
6.0121,25.2228
5.9587,25.2943
5.8753,25.4081
5.8188,25.4987
5.8052,25.5310
5.7743,25.5942
5.7060,25.6961
5.6605,25.7567
5.5720,25.8747
5.5028,25.9752
5.4835,26.0073
5.4199,26.1040
5.3886,26.1420
5.3388,26.2034
5.2541,26.3153
5.1504,26.4564
5.1210,26.4971
5.0047,26.6568
4.8561,26.8581
4.6961,27.0729
4.5749,27.2340
4.3910,27.4770
4.2532,27.6610
4.1555,27.7981
4.0920,27.9004
4.0566,27.9800
4.0435,28.0489
4.0467,28.1192
4.0602,28.2030
4.0696,28.2577
4.0901,28.4266
4.0966,28.5808
4.0909,28.6624
4.0890,28.7907
4.1138,28.9434
4.1241,28.9810
4.1561,29.1171
4.1670,29.2316
4.1649,29.2564
4.1676,29.3540
4.1935,29.4882
4.2058,29.5318
4.2437,29.7024
4.2311,29.8371
4.1592,29.9619
4.0194,30.1029
4.0150,30.1069
3.9034,30.2130
3.8230,30.3026
3.7930,30.3515
3.7498,30.4187
3.7089,30.4497
3.6417,30.5152
3.5692,30.6238
3.5542,30.6520
3.4868,30.7638
3.4206,30.8404
3.4074,30.8497
3.3470,30.9274
3.3148,31.0527
3.3172,31.1878
3.3386,31.2598
3.3692,31.3690
3.3851,31.5104
3.3857,31.5350
3.4021,31.6873
3.4410,31.8269
3.4472,31.8410
3.4854,31.9617
3.4912,32.0632
3.4951,32.1574
3.5231,32.2952
3.5473,32.3787
3.5867,32.5144
3.6087,32.6194
3.6104,32.6549
3.6193,32.7284
3.6533,32.8413
3.6625,32.8656
3.7002,32.9838
3.7143,33.0732
3.7134,33.0837
3.7188,33.1568
3.7436,33.2835
3.7728,33.3999
3.8123,33.6434
3.7814,33.8381
3.6781,33.9908
3.5608,34.0766
3.3612,34.1861
3.1522,34.2925
2.9612,34.3824
2.8154,34.4426
2.8023,34.4471
2.5848,34.5226
2.4222,34.5847
2.2850,34.6456
2.1440,34.7175
2.1184,34.7312
1.9755,34.8024
1.8515,34.8540
1.7887,34.8720
1.7121,34.8980
1.6906,34.9232
1.6483,34.9643
1.5703,34.9995
1.4779,35.0496
1.3430,35.1469
1.1851,35.2758
1.0235,35.4206
0.8999,35.5421
0.8132,35.6304
0.6987,35.7453
0.6435,35.8002
0.5496,35.8980
0.4874,35.9719
0.4734,35.9960
0.4406,36.0430
0.3630,36.1271
0.3016,36.1877
0.1640,36.2983
0.0642,36.3320
0.0039,36.2882
0.0000,36.2795
0.0026,36.2088
0.0317,36.1174
0.0728,36.0331
0.1287,35.9424
0.2068,35.8367
0.3142,35.7075
0.4584,35.5460
0.6467,35.3438
0.8862,35.0922
1.0274,34.9453
1.1590,34.8063
1.2647,34.6902
1.3313,34.6116
1.3476,34.5869
1.3893,34.5456
1.4942,34.4771
1.6453,34.3903
1.8255,34.2939
2.0179,34.1970
2.2053,34.1084
2.3707,34.0370
2.4798,33.9968
2.7293,33.9110
2.9396,33.8259
3.0979,33.7476
3.1914,33.6821
3.2112,33.6512
3.2075,33.5766
3.1872,33.4431
3.1553,33.2773
3.1171,33.1056
3.0778,32.9544
3.0677,32.9206
3.0352,32.7970
3.0213,32.7045
3.0219,32.6890
3.0150,32.6174
2.9882,32.4938
2.9621,32.3968
2.9261,32.2508
2.9073,32.1298
2.9073,32.0813
2.8970,31.9872
2.8538,31.8758
2.8097,31.7684
2.7979,31.6857
2.7979,31.6854
2.7896,31.6057
2.7550,31.4862
2.7402,31.4468
2.6982,31.2367
2.7170,30.9993
2.7913,30.7657
2.8840,30.6065
2.9754,30.4813
3.0551,30.3684
3.0755,30.3382
3.1235,30.2692
3.1798,30.1981
3.2609,30.1050
3.3835,29.9704
3.4051,29.9469
3.5178,29.7829
3.5568,29.6042
3.5308,29.4001
3.5038,29.2523
3.4818,29.0707
3.4746,28.9782
3.4588,28.7919
3.4354,28.6021
3.4231,28.5256
3.4113,28.3351
3.4303,28.0746
3.4572,27.8834
3.4940,27.6725
3.5294,27.5222
3.5730,27.4055
3.6340,27.2957
3.6935,27.2064
3.7871,27.0738
3.8669,26.9652
3.9112,26.9096
3.9804,26.8228
4.0017,26.7914
4.0577,26.7073
4.1473,26.5778
4.2580,26.4205
4.3771,26.2531
4.4919,26.0932
4.5900,25.9586
4.6586,25.8669
4.6817,25.8385
4.7501,25.7487
4.7769,25.7044
4.8200,25.6381
4.9034,25.5209
5.0132,25.3716
5.0940,25.2643
5.2593,25.0395
5.3700,24.8703
5.4304,24.7472
5.4449,24.6604
5.4178,24.6003
5.4020,24.5858
5.3111,24.5523
5.1723,24.5373
5.0238,24.5414
4.9038,24.5654
4.8785,24.5768
4.8086,24.5922
4.6807,24.6016
4.5505,24.6031
4.3871,24.6061
4.2466,24.6180
4.1762,24.6317
4.0771,24.6492
3.9292,24.6592
3.8223,24.6601
3.6518,24.6674
3.5305,24.7031
3.4289,24.7714
3.3748,24.8297
3.2770,24.9479
3.1442,25.1150
2.9846,25.3199
2.8067,25.5516
2.6188,25.7989
2.4295,26.0508
2.2471,26.2962
2.0800,26.5240
1.9366,26.7231
1.8254,26.8825
1.8152,26.8976
1.7445,26.9956
1.6962,27.0554
1.6186,27.1503
1.5270,27.2730
1.4379,27.3998
1.3679,27.5073
1.3333,27.5718
1.3323,27.5756
1.2960,27.6365
1.2200,27.7166
1.2177,27.7187
1.1386,27.8081
1.0983,27.8887
1.0574,27.9717
0.9867,28.0530
0.8935,28.1630
0.8359,28.2616
0.7778,28.3582
0.6812,28.4858
0.5927,28.5884
0.4929,28.7011
0.4216,28.7896
0.3957,28.8315
0.3571,28.8802
0.3017,28.9209
0.2077,28.9459
0.1190,28.9237
0.0622,28.8692
0.0643,28.7975
0.0683,28.7907
0.1170,28.7075
0.1821,28.5884
0.1986,28.5570
0.2783,28.4181
0.3625,28.2905
0.3740,28.2750
0.4364,28.1900
0.5342,28.0537
0.6524,27.8871
0.7425,27.7589
0.8743,27.5710
1.0042,27.3859
1.1138,27.2301
1.1644,27.1583
1.2450,27.0376
1.3009,26.9415
1.3167,26.9035
1.3473,26.8374
1.4123,26.7368
1.4352,26.7053
1.5808,26.5075
1.6961,26.3441
1.7733,26.2267
1.8043,26.1669
1.8044,26.1665
1.8248,26.1232
1.8816,26.0310
1.9789,25.8837
2.1207,25.6750
2.2357,25.5078
2.4111,25.2525
2.6154,24.9530
2.7331,24.7797
2.9230,24.5006
3.0738,24.2861
3.1962,24.1285
3.3010,24.0199
3.3990,23.9525
3.5008,23.9185
3.6174,23.9100
3.7594,23.9192
3.8968,23.9339
4.1037,23.9511
4.2999,23.9581
4.4539,23.9540
4.4973,23.9490
4.6408,23.9344
4.8275,23.9276
4.9848,23.9291
5.1574,23.9275
5.3097,23.9130
5.4020,23.8908
5.4812,23.8429
5.6077,23.7510
5.7628,23.6291
5.8977,23.5172
6.2857,23.1938
6.6514,22.9049
7.0142,22.6366
7.3935,22.3752
7.8085,22.1071
8.2788,21.8186
8.4105,21.7397
8.6176,21.6053
8.7501,21.4902
8.8161,21.3841
8.8238,21.2765
8.8131,21.2330
8.7554,21.1005
8.6557,20.9430
8.5052,20.7476
8.3746,20.5926
8.2480,20.4417
8.1247,20.2878
8.0446,20.1822
7.9281,20.0411
7.7906,19.9007
7.7504,19.8649
7.6464,19.7807
7.5738,19.7448
7.4979,19.7467
7.4198,19.7663
7.2957,19.7930
7.2004,19.8005
7.1900,19.7993
7.1057,19.8091
6.9928,19.8491
6.9847,19.8529
6.8394,19.9000
6.6981,19.9180
6.5226,19.9388
6.3036,19.9955
6.0731,20.0785
5.8844,20.1662
5.7386,20.2382
5.5999,20.2984
5.5585,20.3138
5.4489,20.3529
5.2761,20.4164
5.0589,20.4973
4.8163,20.5886
4.5670,20.6832
4.5197,20.7012
4.3589,20.7604
4.1965,20.8171
4.1767,20.8237
4.0609,20.8620
3.8903,20.9184
3.6939,20.9833
3.6000,21.0143
3.3335,21.0927
3.1417,21.1266
3.0234,21.1160
2.9773,21.0609
2.9785,21.0283
3.0255,20.9446
3.1209,20.8525
3.2347,20.7750
3.3363,20.7348
3.3664,20.7343
3.4476,20.7206
3.5639,20.6706
3.6119,20.6435
3.7237,20.5823
3.8063,20.5492
3.8252,20.5470
3.8849,20.5335
3.9971,20.4908
4.1133,20.4393
4.2629,20.3731
4.3946,20.3212
4.4615,20.3000
4.5712,20.2632
4.7004,20.2063
4.7112,20.2008
4.8011,20.1554
4.9522,20.0794
5.1471,19.9815
5.3685,19.8705
5.4959,19.8066
5.7253,19.6902
5.9386,19.5795
6.1179,19.4837
6.2455,19.4124
6.2868,19.3873
6.3825,19.3320
6.4983,19.2814
6.6501,19.2301
6.8541,19.1728
7.1264,19.1041
7.1635,19.0950
7.2908,19.0590
7.4136,19.0104
7.5478,18.9404
7.7090,18.8402
7.9132,18.7009
8.0861,18.5783
8.3391,18.3957
8.6135,18.1952
8.8817,17.9971
9.1160,17.8218
9.1905,17.7653
9.4719,17.5598
9.7640,17.3626
10.0533,17.1813
10.3264,17.0238
10.5700,16.8978
10.7706,16.8110
10.9099,16.7719
11.0659,16.7389
11.2492,16.6841
11.4327,16.6175
11.5893,16.5490
11.6919,16.4887
11.7021,16.4799
11.7474,16.4309
11.7788,16.3735
11.8010,16.2890
11.8182,16.1589
11.8349,15.9644
11.8397,15.9007
11.8530,15.6853
11.8604,15.4861
11.8610,15.3293
11.8570,15.2583
11.8568,15.1607
11.8686,14.9951
11.8905,14.7802
11.9207,14.5350
11.9423,14.3793
11.9843,14.0988
12.0204,13.8861
12.0554,13.7219
12.0942,13.5865
12.1413,13.4606
12.1976,13.3333
12.2765,13.1519
12.3152,13.0318
12.3180,12.9583
12.3107,12.9398
12.2238,12.8704
12.0856,12.8601
11.9401,12.8988
11.7885,12.9416
11.6385,12.9616
11.4979,12.9781
11.3769,13.0109
11.1879,13.0516
10.9851,13.0374
10.8057,12.9729
10.7448,12.9308
10.6293,12.8455
10.4788,12.7506
10.3984,12.7053
10.2667,12.6393
10.1715,12.6101
10.0728,12.6108
9.9650,12.6279
9.8157,12.6626
9.6882,12.7052
9.6504,12.7231
9.5544,12.7710
9.4133,12.8339
9.3104,12.8768
9.1313,12.9582
8.9472,13.0554
8.8683,13.1026
8.7195,13.1957
8.5731,13.2844
8.5176,13.3169
8.4358,13.3672
8.2945,13.4575
8.1075,13.5789
7.8887,13.7224
7.6516,13.8791
7.6089,13.9074
7.3672,14.0670
7.1383,14.2161
6.9367,14.3454
6.7770,14.4456
6.6736,14.5074
6.6638,14.5128
6.5383,14.5867
6.3729,14.6919
6.1989,14.8084
6.1617,14.8342
6.0072,14.9398
5.9029,15.0008
5.8278,15.0248
5.7611,15.0189
5.6975,14.9969
5.6002,14.9678
5.4368,14.9288
5.2283,14.8844
4.9955,14.8393
4.9357,14.8284
4.7541,14.7945
4.6070,14.7682
4.4835,14.7535
4.3727,14.7545
4.2637,14.7753
4.1457,14.8201
4.0079,14.8928
3.8393,14.9975
3.6291,15.1383
3.3664,15.3194
3.0571,15.5331
2.8009,15.7072
2.5655,15.8624
2.3614,15.9923
2.1991,16.0903
2.0891,16.1498
2.0439,16.1653
1.9577,16.1775
1.8427,16.2249
1.8204,16.2372
1.7199,16.2878
1.6643,16.2886
1.6328,16.2522
1.6310,16.2195
1.6620,16.1720
1.7335,16.1031
1.8531,16.0064
2.0285,15.8753
2.2674,15.7034
2.3410,15.6511
2.5716,15.4860
2.7824,15.3323
2.9608,15.1993
3.0946,15.0962
3.1713,15.0324
3.1793,15.0245
3.2549,14.9497
3.3736,14.8385
3.5125,14.7123
3.5418,14.6861
3.6816,14.5562
3.8046,14.4322
3.8879,14.3374
3.8977,14.3242
3.9281,14.2814
3.9595,14.2497
4.0040,14.2281
4.0739,14.2154
4.1814,14.2104
4.3387,14.2122
4.5582,14.2194
4.8519,14.2311
4.8919,14.2327
5.1320,14.2461
5.3743,14.2658
5.5853,14.2890
5.6958,14.3055
5.9893,14.3577
6.2564,14.1682
6.4154,14.0540
6.6114,13.9113
6.8109,13.7644
6.8853,13.7092
7.1404,13.5268
7.4482,13.3190
7.7833,13.1020
8.1207,12.8918
8.4353,12.7046
8.5723,12.6268
8.7276,12.5387
8.8562,12.4626
8.9359,12.4117
8.9469,12.4034
9.0140,12.3590
9.1424,12.2838
9.3153,12.1869
9.5158,12.0780
9.7269,11.9662
9.8549,11.9001
10.0969,11.7934
10.2985,11.7498
10.4820,11.7707
10.6695,11.8574
10.8118,11.9553
10.9468,12.0302
11.1234,12.0925
11.3152,12.1368
11.4954,12.1579
11.6377,12.1505
11.6923,12.1310
11.8026,12.0871
11.8888,12.0704
12.0074,12.0505
12.1689,12.0126
12.3413,11.9653
12.4927,11.9175
12.5911,11.8780
12.5934,11.8767
12.6956,11.8404
12.7813,11.8252
12.8502,11.8143
12.9627,11.7892
13.1269,11.7479
13.3512,11.6883
13.6437,11.6081
13.9992,11.5090
14.2434,11.4360
14.4939,11.3531
14.7301,11.2678
14.9313,11.1878
15.0769,11.1207
15.1156,11.0988
15.1854,11.0516
15.2300,11.0034
15.2578,10.9324
15.2771,10.8172
15.2964,10.6360
15.2965,10.6349
15.3124,10.4358
15.3208,10.2461
15.3202,10.1013
15.3188,10.0800
15.3101,9.9262
15.3052,9.7411
15.3046,9.6529
15.3029,9.4048
15.2967,9.1213
15.2869,8.8253
15.2745,8.5395
15.2604,8.2869
15.2455,8.0903
15.2395,8.0322
15.2349,7.9106
15.2397,7.7363
15.2530,7.5440
15.2556,7.5160
15.2759,7.3314
15.3044,7.2082
15.3579,7.1245
15.4529,7.0581
15.6061,6.9873
15.6801,6.9559
15.8397,6.8813
16.0179,6.7879
16.0977,6.7425
16.2638,6.6476
16.4381,6.5530
16.5113,6.5152
16.6546,6.4433
16.7852,6.3776
16.8248,6.3577
16.9546,6.2850
17.0494,6.2247
17.1379,6.1699
17.2784,6.0895
17.4445,5.9983
17.4937,5.9720
17.6895,5.8608
17.8206,5.7618
17.9040,5.6544
17.9568,5.5179
17.9885,5.3739
18.0333,5.2038
18.0974,5.0396
18.1246,4.9873
18.1816,4.8650
18.2448,4.6913
18.3020,4.5010
18.3090,4.4743
18.3533,4.2869
18.3720,4.1591
18.3668,4.0668
18.3441,3.9961
18.3133,3.9030
18.3136,3.8520
18.3146,3.8512
Z" /> 
<g >
</g>
<g >
</g>
<g >
</g>
<g >
</g>
<g >
</g>
<g >
</g>
</g>
<g style="fill:#FFFFFF; fill-opacity:1.0000; 
stroke:#FFFFFF; stroke-width:0.0000; stroke-opacity:1; 
stroke-linecap:round; stroke-linejoin:round;">
</g>
<g style="fill:#FFFFFF; fill-opacity:1.0000; 
stroke:#FFFFFF; stroke-width:0.1000; stroke-opacity:1; 
stroke-linecap:round; stroke-linejoin:round;">
</g>
<g style="fill:#FFFFFF; fill-opacity:0.0; 
stroke:#FFFFFF; stroke-width:0.1000; stroke-opacity:1; 
stroke-linecap:round; stroke-linejoin:round;">
<path d="M38.6399 33.0456
L19.5899 0.0500
" />
<path d="M0.5399 33.0456
L38.6399 33.0456
" />
<path d="M19.5899 0.0500
L0.5399 33.0456
" />
<g >
</g>
<g >
</g>
<g >
</g>
<g >
</g>
<g >
</g>
<g >
</g>
</g> 
</svg>
