%TF.GenerationSoftware,KiCad,Pcbnew,8.0.2*%
%TF.CreationDate,2024-05-13T19:17:35-04:00*%
%TF.ProjectId,BaseStation,42617365-5374-4617-9469-6f6e2e6b6963,rev?*%
%TF.SameCoordinates,Original*%
%TF.FileFunction,Other,Comment*%
%FSLAX46Y46*%
G04 Gerber Fmt 4.6, Leading zero omitted, Abs format (unit mm)*
G04 Created by KiCad (PCBNEW 8.0.2) date 2024-05-13 19:17:35*
%MOMM*%
%LPD*%
G01*
G04 APERTURE LIST*
%ADD10C,0.030000*%
%ADD11C,0.150000*%
G04 APERTURE END LIST*
D10*
X72619047Y-63028963D02*
X72619047Y-62828963D01*
X72619047Y-62828963D02*
X72733332Y-63028963D01*
X72733332Y-63028963D02*
X72733332Y-62828963D01*
X72857142Y-63028963D02*
X72838094Y-63019440D01*
X72838094Y-63019440D02*
X72828571Y-63009916D01*
X72828571Y-63009916D02*
X72819047Y-62990868D01*
X72819047Y-62990868D02*
X72819047Y-62933725D01*
X72819047Y-62933725D02*
X72828571Y-62914678D01*
X72828571Y-62914678D02*
X72838094Y-62905154D01*
X72838094Y-62905154D02*
X72857142Y-62895630D01*
X72857142Y-62895630D02*
X72885713Y-62895630D01*
X72885713Y-62895630D02*
X72904761Y-62905154D01*
X72904761Y-62905154D02*
X72914285Y-62914678D01*
X72914285Y-62914678D02*
X72923809Y-62933725D01*
X72923809Y-62933725D02*
X72923809Y-62990868D01*
X72923809Y-62990868D02*
X72914285Y-63009916D01*
X72914285Y-63009916D02*
X72904761Y-63019440D01*
X72904761Y-63019440D02*
X72885713Y-63028963D01*
X72885713Y-63028963D02*
X72857142Y-63028963D01*
X73228570Y-62924201D02*
X73161904Y-62924201D01*
X73161904Y-63028963D02*
X73161904Y-62828963D01*
X73161904Y-62828963D02*
X73257142Y-62828963D01*
X73333333Y-63009916D02*
X73342856Y-63019440D01*
X73342856Y-63019440D02*
X73333333Y-63028963D01*
X73333333Y-63028963D02*
X73323809Y-63019440D01*
X73323809Y-63019440D02*
X73333333Y-63009916D01*
X73333333Y-63009916D02*
X73333333Y-63028963D01*
X73542856Y-63009916D02*
X73533332Y-63019440D01*
X73533332Y-63019440D02*
X73504761Y-63028963D01*
X73504761Y-63028963D02*
X73485713Y-63028963D01*
X73485713Y-63028963D02*
X73457142Y-63019440D01*
X73457142Y-63019440D02*
X73438094Y-63000392D01*
X73438094Y-63000392D02*
X73428571Y-62981344D01*
X73428571Y-62981344D02*
X73419047Y-62943249D01*
X73419047Y-62943249D02*
X73419047Y-62914678D01*
X73419047Y-62914678D02*
X73428571Y-62876582D01*
X73428571Y-62876582D02*
X73438094Y-62857535D01*
X73438094Y-62857535D02*
X73457142Y-62838487D01*
X73457142Y-62838487D02*
X73485713Y-62828963D01*
X73485713Y-62828963D02*
X73504761Y-62828963D01*
X73504761Y-62828963D02*
X73533332Y-62838487D01*
X73533332Y-62838487D02*
X73542856Y-62848011D01*
X73714285Y-62895630D02*
X73714285Y-63028963D01*
X73628571Y-62895630D02*
X73628571Y-63000392D01*
X73628571Y-63000392D02*
X73638094Y-63019440D01*
X73638094Y-63019440D02*
X73657142Y-63028963D01*
X73657142Y-63028963D02*
X73685713Y-63028963D01*
X73685713Y-63028963D02*
X73704761Y-63019440D01*
X73704761Y-63019440D02*
X73714285Y-63009916D01*
X73933332Y-62895630D02*
X74009523Y-62895630D01*
X73961904Y-62828963D02*
X73961904Y-63000392D01*
X73961904Y-63000392D02*
X73971427Y-63019440D01*
X73971427Y-63019440D02*
X73990475Y-63028963D01*
X73990475Y-63028963D02*
X74009523Y-63028963D01*
X74076190Y-63028963D02*
X74076190Y-62895630D01*
X74076190Y-62933725D02*
X74085713Y-62914678D01*
X74085713Y-62914678D02*
X74095237Y-62905154D01*
X74095237Y-62905154D02*
X74114285Y-62895630D01*
X74114285Y-62895630D02*
X74133332Y-62895630D01*
X74285714Y-63028963D02*
X74285714Y-62924201D01*
X74285714Y-62924201D02*
X74276190Y-62905154D01*
X74276190Y-62905154D02*
X74257142Y-62895630D01*
X74257142Y-62895630D02*
X74219047Y-62895630D01*
X74219047Y-62895630D02*
X74200000Y-62905154D01*
X74285714Y-63019440D02*
X74266666Y-63028963D01*
X74266666Y-63028963D02*
X74219047Y-63028963D01*
X74219047Y-63028963D02*
X74200000Y-63019440D01*
X74200000Y-63019440D02*
X74190476Y-63000392D01*
X74190476Y-63000392D02*
X74190476Y-62981344D01*
X74190476Y-62981344D02*
X74200000Y-62962297D01*
X74200000Y-62962297D02*
X74219047Y-62952773D01*
X74219047Y-62952773D02*
X74266666Y-62952773D01*
X74266666Y-62952773D02*
X74285714Y-62943249D01*
X74466666Y-63019440D02*
X74447618Y-63028963D01*
X74447618Y-63028963D02*
X74409523Y-63028963D01*
X74409523Y-63028963D02*
X74390475Y-63019440D01*
X74390475Y-63019440D02*
X74380952Y-63009916D01*
X74380952Y-63009916D02*
X74371428Y-62990868D01*
X74371428Y-62990868D02*
X74371428Y-62933725D01*
X74371428Y-62933725D02*
X74380952Y-62914678D01*
X74380952Y-62914678D02*
X74390475Y-62905154D01*
X74390475Y-62905154D02*
X74409523Y-62895630D01*
X74409523Y-62895630D02*
X74447618Y-62895630D01*
X74447618Y-62895630D02*
X74466666Y-62905154D01*
X74552381Y-63028963D02*
X74552381Y-62828963D01*
X74571428Y-62952773D02*
X74628571Y-63028963D01*
X74628571Y-62895630D02*
X74552381Y-62971820D01*
X74704762Y-63019440D02*
X74723809Y-63028963D01*
X74723809Y-63028963D02*
X74761905Y-63028963D01*
X74761905Y-63028963D02*
X74780952Y-63019440D01*
X74780952Y-63019440D02*
X74790476Y-63000392D01*
X74790476Y-63000392D02*
X74790476Y-62990868D01*
X74790476Y-62990868D02*
X74780952Y-62971820D01*
X74780952Y-62971820D02*
X74761905Y-62962297D01*
X74761905Y-62962297D02*
X74733333Y-62962297D01*
X74733333Y-62962297D02*
X74714286Y-62952773D01*
X74714286Y-62952773D02*
X74704762Y-62933725D01*
X74704762Y-62933725D02*
X74704762Y-62924201D01*
X74704762Y-62924201D02*
X74714286Y-62905154D01*
X74714286Y-62905154D02*
X74733333Y-62895630D01*
X74733333Y-62895630D02*
X74761905Y-62895630D01*
X74761905Y-62895630D02*
X74780952Y-62905154D01*
X77619047Y-63028963D02*
X77619047Y-62828963D01*
X77619047Y-62828963D02*
X77733332Y-63028963D01*
X77733332Y-63028963D02*
X77733332Y-62828963D01*
X77857142Y-63028963D02*
X77838094Y-63019440D01*
X77838094Y-63019440D02*
X77828571Y-63009916D01*
X77828571Y-63009916D02*
X77819047Y-62990868D01*
X77819047Y-62990868D02*
X77819047Y-62933725D01*
X77819047Y-62933725D02*
X77828571Y-62914678D01*
X77828571Y-62914678D02*
X77838094Y-62905154D01*
X77838094Y-62905154D02*
X77857142Y-62895630D01*
X77857142Y-62895630D02*
X77885713Y-62895630D01*
X77885713Y-62895630D02*
X77904761Y-62905154D01*
X77904761Y-62905154D02*
X77914285Y-62914678D01*
X77914285Y-62914678D02*
X77923809Y-62933725D01*
X77923809Y-62933725D02*
X77923809Y-62990868D01*
X77923809Y-62990868D02*
X77914285Y-63009916D01*
X77914285Y-63009916D02*
X77904761Y-63019440D01*
X77904761Y-63019440D02*
X77885713Y-63028963D01*
X77885713Y-63028963D02*
X77857142Y-63028963D01*
X78228570Y-62924201D02*
X78161904Y-62924201D01*
X78161904Y-63028963D02*
X78161904Y-62828963D01*
X78161904Y-62828963D02*
X78257142Y-62828963D01*
X78333333Y-63009916D02*
X78342856Y-63019440D01*
X78342856Y-63019440D02*
X78333333Y-63028963D01*
X78333333Y-63028963D02*
X78323809Y-63019440D01*
X78323809Y-63019440D02*
X78333333Y-63009916D01*
X78333333Y-63009916D02*
X78333333Y-63028963D01*
X78542856Y-63009916D02*
X78533332Y-63019440D01*
X78533332Y-63019440D02*
X78504761Y-63028963D01*
X78504761Y-63028963D02*
X78485713Y-63028963D01*
X78485713Y-63028963D02*
X78457142Y-63019440D01*
X78457142Y-63019440D02*
X78438094Y-63000392D01*
X78438094Y-63000392D02*
X78428571Y-62981344D01*
X78428571Y-62981344D02*
X78419047Y-62943249D01*
X78419047Y-62943249D02*
X78419047Y-62914678D01*
X78419047Y-62914678D02*
X78428571Y-62876582D01*
X78428571Y-62876582D02*
X78438094Y-62857535D01*
X78438094Y-62857535D02*
X78457142Y-62838487D01*
X78457142Y-62838487D02*
X78485713Y-62828963D01*
X78485713Y-62828963D02*
X78504761Y-62828963D01*
X78504761Y-62828963D02*
X78533332Y-62838487D01*
X78533332Y-62838487D02*
X78542856Y-62848011D01*
X78714285Y-62895630D02*
X78714285Y-63028963D01*
X78628571Y-62895630D02*
X78628571Y-63000392D01*
X78628571Y-63000392D02*
X78638094Y-63019440D01*
X78638094Y-63019440D02*
X78657142Y-63028963D01*
X78657142Y-63028963D02*
X78685713Y-63028963D01*
X78685713Y-63028963D02*
X78704761Y-63019440D01*
X78704761Y-63019440D02*
X78714285Y-63009916D01*
X78933332Y-62895630D02*
X79009523Y-62895630D01*
X78961904Y-62828963D02*
X78961904Y-63000392D01*
X78961904Y-63000392D02*
X78971427Y-63019440D01*
X78971427Y-63019440D02*
X78990475Y-63028963D01*
X78990475Y-63028963D02*
X79009523Y-63028963D01*
X79076190Y-63028963D02*
X79076190Y-62895630D01*
X79076190Y-62933725D02*
X79085713Y-62914678D01*
X79085713Y-62914678D02*
X79095237Y-62905154D01*
X79095237Y-62905154D02*
X79114285Y-62895630D01*
X79114285Y-62895630D02*
X79133332Y-62895630D01*
X79285714Y-63028963D02*
X79285714Y-62924201D01*
X79285714Y-62924201D02*
X79276190Y-62905154D01*
X79276190Y-62905154D02*
X79257142Y-62895630D01*
X79257142Y-62895630D02*
X79219047Y-62895630D01*
X79219047Y-62895630D02*
X79200000Y-62905154D01*
X79285714Y-63019440D02*
X79266666Y-63028963D01*
X79266666Y-63028963D02*
X79219047Y-63028963D01*
X79219047Y-63028963D02*
X79200000Y-63019440D01*
X79200000Y-63019440D02*
X79190476Y-63000392D01*
X79190476Y-63000392D02*
X79190476Y-62981344D01*
X79190476Y-62981344D02*
X79200000Y-62962297D01*
X79200000Y-62962297D02*
X79219047Y-62952773D01*
X79219047Y-62952773D02*
X79266666Y-62952773D01*
X79266666Y-62952773D02*
X79285714Y-62943249D01*
X79466666Y-63019440D02*
X79447618Y-63028963D01*
X79447618Y-63028963D02*
X79409523Y-63028963D01*
X79409523Y-63028963D02*
X79390475Y-63019440D01*
X79390475Y-63019440D02*
X79380952Y-63009916D01*
X79380952Y-63009916D02*
X79371428Y-62990868D01*
X79371428Y-62990868D02*
X79371428Y-62933725D01*
X79371428Y-62933725D02*
X79380952Y-62914678D01*
X79380952Y-62914678D02*
X79390475Y-62905154D01*
X79390475Y-62905154D02*
X79409523Y-62895630D01*
X79409523Y-62895630D02*
X79447618Y-62895630D01*
X79447618Y-62895630D02*
X79466666Y-62905154D01*
X79552381Y-63028963D02*
X79552381Y-62828963D01*
X79571428Y-62952773D02*
X79628571Y-63028963D01*
X79628571Y-62895630D02*
X79552381Y-62971820D01*
X79704762Y-63019440D02*
X79723809Y-63028963D01*
X79723809Y-63028963D02*
X79761905Y-63028963D01*
X79761905Y-63028963D02*
X79780952Y-63019440D01*
X79780952Y-63019440D02*
X79790476Y-63000392D01*
X79790476Y-63000392D02*
X79790476Y-62990868D01*
X79790476Y-62990868D02*
X79780952Y-62971820D01*
X79780952Y-62971820D02*
X79761905Y-62962297D01*
X79761905Y-62962297D02*
X79733333Y-62962297D01*
X79733333Y-62962297D02*
X79714286Y-62952773D01*
X79714286Y-62952773D02*
X79704762Y-62933725D01*
X79704762Y-62933725D02*
X79704762Y-62924201D01*
X79704762Y-62924201D02*
X79714286Y-62905154D01*
X79714286Y-62905154D02*
X79733333Y-62895630D01*
X79733333Y-62895630D02*
X79761905Y-62895630D01*
X79761905Y-62895630D02*
X79780952Y-62905154D01*
X72485715Y-62628963D02*
X72485715Y-62428963D01*
X72600000Y-62628963D02*
X72514286Y-62514678D01*
X72600000Y-62428963D02*
X72485715Y-62543249D01*
X72685715Y-62524201D02*
X72752381Y-62524201D01*
X72780953Y-62628963D02*
X72685715Y-62628963D01*
X72685715Y-62628963D02*
X72685715Y-62428963D01*
X72685715Y-62428963D02*
X72780953Y-62428963D01*
X72866667Y-62524201D02*
X72933333Y-62524201D01*
X72961905Y-62628963D02*
X72866667Y-62628963D01*
X72866667Y-62628963D02*
X72866667Y-62428963D01*
X72866667Y-62428963D02*
X72961905Y-62428963D01*
X73047619Y-62628963D02*
X73047619Y-62428963D01*
X73047619Y-62428963D02*
X73123809Y-62428963D01*
X73123809Y-62428963D02*
X73142857Y-62438487D01*
X73142857Y-62438487D02*
X73152380Y-62448011D01*
X73152380Y-62448011D02*
X73161904Y-62467059D01*
X73161904Y-62467059D02*
X73161904Y-62495630D01*
X73161904Y-62495630D02*
X73152380Y-62514678D01*
X73152380Y-62514678D02*
X73142857Y-62524201D01*
X73142857Y-62524201D02*
X73123809Y-62533725D01*
X73123809Y-62533725D02*
X73047619Y-62533725D01*
X73247619Y-62552773D02*
X73400000Y-62552773D01*
X73533333Y-62428963D02*
X73571428Y-62428963D01*
X73571428Y-62428963D02*
X73590476Y-62438487D01*
X73590476Y-62438487D02*
X73609523Y-62457535D01*
X73609523Y-62457535D02*
X73619047Y-62495630D01*
X73619047Y-62495630D02*
X73619047Y-62562297D01*
X73619047Y-62562297D02*
X73609523Y-62600392D01*
X73609523Y-62600392D02*
X73590476Y-62619440D01*
X73590476Y-62619440D02*
X73571428Y-62628963D01*
X73571428Y-62628963D02*
X73533333Y-62628963D01*
X73533333Y-62628963D02*
X73514285Y-62619440D01*
X73514285Y-62619440D02*
X73495238Y-62600392D01*
X73495238Y-62600392D02*
X73485714Y-62562297D01*
X73485714Y-62562297D02*
X73485714Y-62495630D01*
X73485714Y-62495630D02*
X73495238Y-62457535D01*
X73495238Y-62457535D02*
X73514285Y-62438487D01*
X73514285Y-62438487D02*
X73533333Y-62428963D01*
X73704762Y-62428963D02*
X73704762Y-62590868D01*
X73704762Y-62590868D02*
X73714285Y-62609916D01*
X73714285Y-62609916D02*
X73723809Y-62619440D01*
X73723809Y-62619440D02*
X73742857Y-62628963D01*
X73742857Y-62628963D02*
X73780952Y-62628963D01*
X73780952Y-62628963D02*
X73800000Y-62619440D01*
X73800000Y-62619440D02*
X73809523Y-62609916D01*
X73809523Y-62609916D02*
X73819047Y-62590868D01*
X73819047Y-62590868D02*
X73819047Y-62428963D01*
X73885714Y-62428963D02*
X74000000Y-62428963D01*
X73942857Y-62628963D02*
X73942857Y-62428963D01*
X74200000Y-62428963D02*
X74333333Y-62428963D01*
X74333333Y-62428963D02*
X74200000Y-62628963D01*
X74200000Y-62628963D02*
X74333333Y-62628963D01*
X74447619Y-62428963D02*
X74485714Y-62428963D01*
X74485714Y-62428963D02*
X74504762Y-62438487D01*
X74504762Y-62438487D02*
X74523809Y-62457535D01*
X74523809Y-62457535D02*
X74533333Y-62495630D01*
X74533333Y-62495630D02*
X74533333Y-62562297D01*
X74533333Y-62562297D02*
X74523809Y-62600392D01*
X74523809Y-62600392D02*
X74504762Y-62619440D01*
X74504762Y-62619440D02*
X74485714Y-62628963D01*
X74485714Y-62628963D02*
X74447619Y-62628963D01*
X74447619Y-62628963D02*
X74428571Y-62619440D01*
X74428571Y-62619440D02*
X74409524Y-62600392D01*
X74409524Y-62600392D02*
X74400000Y-62562297D01*
X74400000Y-62562297D02*
X74400000Y-62495630D01*
X74400000Y-62495630D02*
X74409524Y-62457535D01*
X74409524Y-62457535D02*
X74428571Y-62438487D01*
X74428571Y-62438487D02*
X74447619Y-62428963D01*
X74619048Y-62628963D02*
X74619048Y-62428963D01*
X74619048Y-62428963D02*
X74733333Y-62628963D01*
X74733333Y-62628963D02*
X74733333Y-62428963D01*
X74828572Y-62524201D02*
X74895238Y-62524201D01*
X74923810Y-62628963D02*
X74828572Y-62628963D01*
X74828572Y-62628963D02*
X74828572Y-62428963D01*
X74828572Y-62428963D02*
X74923810Y-62428963D01*
X77485715Y-62628963D02*
X77485715Y-62428963D01*
X77600000Y-62628963D02*
X77514286Y-62514678D01*
X77600000Y-62428963D02*
X77485715Y-62543249D01*
X77685715Y-62524201D02*
X77752381Y-62524201D01*
X77780953Y-62628963D02*
X77685715Y-62628963D01*
X77685715Y-62628963D02*
X77685715Y-62428963D01*
X77685715Y-62428963D02*
X77780953Y-62428963D01*
X77866667Y-62524201D02*
X77933333Y-62524201D01*
X77961905Y-62628963D02*
X77866667Y-62628963D01*
X77866667Y-62628963D02*
X77866667Y-62428963D01*
X77866667Y-62428963D02*
X77961905Y-62428963D01*
X78047619Y-62628963D02*
X78047619Y-62428963D01*
X78047619Y-62428963D02*
X78123809Y-62428963D01*
X78123809Y-62428963D02*
X78142857Y-62438487D01*
X78142857Y-62438487D02*
X78152380Y-62448011D01*
X78152380Y-62448011D02*
X78161904Y-62467059D01*
X78161904Y-62467059D02*
X78161904Y-62495630D01*
X78161904Y-62495630D02*
X78152380Y-62514678D01*
X78152380Y-62514678D02*
X78142857Y-62524201D01*
X78142857Y-62524201D02*
X78123809Y-62533725D01*
X78123809Y-62533725D02*
X78047619Y-62533725D01*
X78247619Y-62552773D02*
X78400000Y-62552773D01*
X78533333Y-62428963D02*
X78571428Y-62428963D01*
X78571428Y-62428963D02*
X78590476Y-62438487D01*
X78590476Y-62438487D02*
X78609523Y-62457535D01*
X78609523Y-62457535D02*
X78619047Y-62495630D01*
X78619047Y-62495630D02*
X78619047Y-62562297D01*
X78619047Y-62562297D02*
X78609523Y-62600392D01*
X78609523Y-62600392D02*
X78590476Y-62619440D01*
X78590476Y-62619440D02*
X78571428Y-62628963D01*
X78571428Y-62628963D02*
X78533333Y-62628963D01*
X78533333Y-62628963D02*
X78514285Y-62619440D01*
X78514285Y-62619440D02*
X78495238Y-62600392D01*
X78495238Y-62600392D02*
X78485714Y-62562297D01*
X78485714Y-62562297D02*
X78485714Y-62495630D01*
X78485714Y-62495630D02*
X78495238Y-62457535D01*
X78495238Y-62457535D02*
X78514285Y-62438487D01*
X78514285Y-62438487D02*
X78533333Y-62428963D01*
X78704762Y-62428963D02*
X78704762Y-62590868D01*
X78704762Y-62590868D02*
X78714285Y-62609916D01*
X78714285Y-62609916D02*
X78723809Y-62619440D01*
X78723809Y-62619440D02*
X78742857Y-62628963D01*
X78742857Y-62628963D02*
X78780952Y-62628963D01*
X78780952Y-62628963D02*
X78800000Y-62619440D01*
X78800000Y-62619440D02*
X78809523Y-62609916D01*
X78809523Y-62609916D02*
X78819047Y-62590868D01*
X78819047Y-62590868D02*
X78819047Y-62428963D01*
X78885714Y-62428963D02*
X79000000Y-62428963D01*
X78942857Y-62628963D02*
X78942857Y-62428963D01*
X79200000Y-62428963D02*
X79333333Y-62428963D01*
X79333333Y-62428963D02*
X79200000Y-62628963D01*
X79200000Y-62628963D02*
X79333333Y-62628963D01*
X79447619Y-62428963D02*
X79485714Y-62428963D01*
X79485714Y-62428963D02*
X79504762Y-62438487D01*
X79504762Y-62438487D02*
X79523809Y-62457535D01*
X79523809Y-62457535D02*
X79533333Y-62495630D01*
X79533333Y-62495630D02*
X79533333Y-62562297D01*
X79533333Y-62562297D02*
X79523809Y-62600392D01*
X79523809Y-62600392D02*
X79504762Y-62619440D01*
X79504762Y-62619440D02*
X79485714Y-62628963D01*
X79485714Y-62628963D02*
X79447619Y-62628963D01*
X79447619Y-62628963D02*
X79428571Y-62619440D01*
X79428571Y-62619440D02*
X79409524Y-62600392D01*
X79409524Y-62600392D02*
X79400000Y-62562297D01*
X79400000Y-62562297D02*
X79400000Y-62495630D01*
X79400000Y-62495630D02*
X79409524Y-62457535D01*
X79409524Y-62457535D02*
X79428571Y-62438487D01*
X79428571Y-62438487D02*
X79447619Y-62428963D01*
X79619048Y-62628963D02*
X79619048Y-62428963D01*
X79619048Y-62428963D02*
X79733333Y-62628963D01*
X79733333Y-62628963D02*
X79733333Y-62428963D01*
X79828572Y-62524201D02*
X79895238Y-62524201D01*
X79923810Y-62628963D02*
X79828572Y-62628963D01*
X79828572Y-62628963D02*
X79828572Y-62428963D01*
X79828572Y-62428963D02*
X79923810Y-62428963D01*
D11*
%TO.C,REF\u002A\u002A*%
X100304570Y-92803828D02*
G75*
G02*
X95904570Y-92803828I-2200000J0D01*
G01*
X95904570Y-92803828D02*
G75*
G02*
X100304570Y-92803828I2200000J0D01*
G01*
X56495430Y-92803828D02*
G75*
G02*
X52095430Y-92803828I-2200000J0D01*
G01*
X52095430Y-92803828D02*
G75*
G02*
X56495430Y-92803828I2200000J0D01*
G01*
X78400000Y-54864000D02*
G75*
G02*
X74000000Y-54864000I-2200000J0D01*
G01*
X74000000Y-54864000D02*
G75*
G02*
X78400000Y-54864000I2200000J0D01*
G01*
%TD*%
M02*
