M48
; DRILL file {KiCad 8.0.6} date 2025-01-18T09:09:33-0500
; FORMAT={-:-/ absolute / inch / decimal}
; #@! TF.CreationDate,2025-01-18T09:09:33-05:00
; #@! TF.GenerationSoftware,Kicad,Pcbnew,8.0.6
; #@! TF.FileFunction,Plated,1,2,PTH
FMAT,2
INCH
; #@! TA.AperFunction,Plated,PTH,ViaDrill
T1C0.0098
; #@! TA.AperFunction,Plated,PTH,ComponentDrill
T2C0.0315
; #@! TA.AperFunction,Plated,PTH,ComponentDrill
T3C0.0394
%
G90
G05
T1
X6.141Y-3.527
X6.146Y-3.639
X6.228Y-3.173
X6.243Y-3.538
X6.249Y-3.584
X6.251Y-3.71
X6.254Y-3.465
X6.26Y-3.51
X6.266Y-3.07
X6.296Y-3.848
X6.307Y-3.135
X6.361Y-3.567
X6.366Y-3.766
X6.369Y-3.039
X6.389Y-3.867
X6.391Y-3.815
X6.42Y-3.889
X6.426Y-3.7661
X6.427Y-3.597
X6.428Y-3.105
X6.43Y-3.545
X6.456Y-3.709
X6.47Y-3.49
X6.477Y-3.996
X6.479Y-3.86
X6.484Y-3.957
X6.485Y-4.07
X6.51Y-3.685
X6.519Y-3.8
X6.522Y-3.342
X6.527Y-3.958
X6.53Y-4.131
X6.5405Y-3.2255
X6.545Y-3.27
X6.575Y-3.829
X6.577Y-3.039
X6.5782Y-3.5372
X6.584Y-3.99
X6.595Y-3.476
X6.614Y-3.106
X6.637Y-3.212
X6.67Y-3.17
X6.67Y-3.29
X6.67Y-3.41
X6.67Y-3.53
X6.67Y-3.65
X6.67Y-3.77
X6.67Y-3.89
X6.67Y-4.01
X6.773Y-3.039
X6.805Y-3.95
X6.825Y-3.29
X6.825Y-3.53
X6.825Y-3.77
X6.825Y-4.01
X6.826Y-3.15
X6.902Y-3.039
X7.052Y-3.145
X7.161Y-3.04
X7.3Y-3.144
X7.405Y-3.038
X7.527Y-3.144
X7.635Y-3.037
X7.675Y-3.055
X7.695Y-3.08
X7.789Y-3.147
X7.79Y-3.29
X7.79Y-3.53
X7.79Y-3.77
X7.79Y-4.01
X7.88Y-3.1483
X7.88Y-3.99
X7.95Y-3.17
X7.95Y-3.29
X7.95Y-3.41
X7.95Y-3.53
X7.95Y-3.65
X7.95Y-3.77
X7.95Y-3.89
X7.95Y-4.01
X7.979Y-3.859
X7.991Y-3.932
X8.065Y-4.031
X8.09Y-3.97
X8.09Y-4.1
X8.12Y-3.97
X8.12Y-4.1
X8.182Y-3.111
X8.182Y-4.009
X8.235Y-3.347
X8.275Y-3.093
X8.303Y-3.491
X8.308Y-3.608
X8.31Y-3.975
X8.314Y-3.232
X8.316Y-4.006
X8.467Y-3.861
X8.48Y-4.125
T2
X8.055Y-3.19
X8.055Y-3.27
X8.1337Y-3.19
X8.1337Y-3.27
T3
X8.4Y-3.4404
X8.4Y-3.5404
X8.4Y-3.6404
X8.4Y-3.7404
M30
