M48
; DRILL file {KiCad 8.0.0} date 2024-03-15T16:55:23-0400
; FORMAT={-:-/ absolute / inch / decimal}
; #@! TF.CreationDate,2024-03-15T16:55:23-04:00
; #@! TF.GenerationSoftware,Kicad,Pcbnew,8.0.0
; #@! TF.FileFunction,Plated,1,2,PTH
FMAT,2
INCH
; #@! TA.AperFunction,Plated,PTH,ViaDrill
T1C0.0098
; #@! TA.AperFunction,Plated,PTH,ComponentDrill
T2C0.0394
%
G90
G05
T1
X6.105Y-3.52
X6.1108Y-3.735
X6.14Y-3.61
X6.1627Y-3.2877
X6.18Y-3.385
X6.18Y-3.81
X6.224Y-3.986
X6.25Y-3.59
X6.275Y-3.41
X6.28Y-3.659
X6.285Y-3.765
X6.295Y-3.19
X6.314Y-3.111
X6.315Y-4.01
X6.36Y-3.495
X6.365Y-3.935
X6.37Y-3.245
X6.46Y-4.15
X6.48Y-3.075
X6.49Y-4.1142
X6.515Y-3.505
X6.525Y-4.025
X6.53Y-3.025
X6.53Y-3.14
X6.53Y-3.7
X6.5525Y-3.2675
X6.56Y-3.555
X6.565Y-3.47
X6.57Y-3.32
X6.58Y-3.69
X6.645Y-3.7
X6.68Y-3.63
X6.685Y-3.86
X6.69Y-3.1
X6.695Y-3.235
X6.695Y-3.335
X6.71Y-3.525
X6.796Y-3.895
X6.835Y-4.1
X6.84Y-3.625
X6.85Y-3.72
X6.935Y-3.52
X6.95Y-3.67
X6.98Y-3.08
X6.996Y-3.79
X7.015Y-3.225
X7.025Y-3.715
X7.04Y-3.555
X7.125Y-3.535
X7.195Y-3.45
X7.2Y-3.075
X7.205Y-3.62
X7.205Y-3.755
X7.21Y-3.215
X7.26Y-3.48
X7.26Y-3.54
X7.3Y-3.455
X7.3Y-3.53
X7.31Y-4.1
X7.33Y-3.53
X7.37Y-3.57
X7.37Y-3.6
X7.37Y-3.66
X7.41Y-3.535
X7.42Y-3.105
X7.435Y-3.886
X7.495Y-3.715
X7.55Y-3.645
X7.6175Y-3.6525
X7.619Y-3.721
X7.695Y-3.105
X7.73Y-3.665
X7.735Y-3.47
X7.755Y-3.915
X7.78Y-3.49
X7.799Y-3.541
X7.803Y-3.73
X7.81Y-4.1
X7.825Y-3.57
X7.86Y-3.96
X7.89Y-3.105
X7.895Y-3.625
X7.895Y-3.695
X7.9041Y-3.7941
X7.915Y-3.559
X7.93Y-3.0517
X7.935Y-4.15
X7.94Y-3.455
X7.945Y-3.683
X7.967Y-3.596
X8.045Y-3.729
X8.08Y-3.59
X8.085Y-3.155
X8.085Y-3.8
X8.09Y-3.695
X8.14Y-4.1451
X8.1558Y-3.0658
X8.185Y-3.03
X8.24Y-3.26
X8.25Y-3.935
X8.265Y-4.145
X8.2944Y-4.0744
X8.31Y-4.0
X8.32Y-3.18
X8.328Y-3.777
X8.35Y-3.415
X8.3961Y-3.2089
X8.44Y-3.38
X8.44Y-3.815
X8.4509Y-3.8859
X8.485Y-3.59
X8.5068Y-3.44
X8.5211Y-3.66
T2
X8.175Y-3.4454
X8.175Y-3.5454
X8.175Y-3.6454
X8.175Y-3.7454
M30
