M48
; DRILL file {KiCad 8.0.1} date 2024-04-06T16:34:55-0400
; FORMAT={-:-/ absolute / inch / decimal}
; #@! TF.CreationDate,2024-04-06T16:34:55-04:00
; #@! TF.GenerationSoftware,Kicad,Pcbnew,8.0.1
; #@! TF.FileFunction,NonPlated,1,6,NPTH
FMAT,2
INCH
; #@! TA.AperFunction,NonPlated,NPTH,ComponentDrill
T1C0.0197
%
G90
G05
T1
X1.6409Y-2.0105
X1.6409Y-2.0695
X1.6409Y-4.8485
X1.6409Y-4.9076
X1.6705Y-2.0105
X1.6705Y-2.0695
X1.6705Y-4.8485
X1.6705Y-4.9076
X1.7Y-2.0105
X1.7Y-2.0695
X1.7Y-4.8485
X1.7Y-4.9076
X1.7295Y-2.0105
X1.7295Y-2.0695
X1.7295Y-4.8485
X1.7295Y-4.9076
X1.7591Y-2.0105
X1.7591Y-2.0695
X1.7591Y-4.8485
X1.7591Y-4.9076
X2.2409Y-2.0105
X2.2409Y-2.0695
X2.2409Y-4.8485
X2.2409Y-4.9076
X2.2705Y-2.0105
X2.2705Y-2.0695
X2.2705Y-4.8485
X2.2705Y-4.9076
X2.3Y-2.0105
X2.3Y-2.0695
X2.3Y-4.8485
X2.3Y-4.9076
X2.3295Y-2.0105
X2.3295Y-2.0695
X2.3295Y-4.8485
X2.3295Y-4.9076
X2.3591Y-2.0105
X2.3591Y-2.0695
X2.3591Y-4.8485
X2.3591Y-4.9076
X2.4602Y-3.4295
X2.4602Y-3.4886
X2.4898Y-3.4295
X2.4898Y-3.4886
X2.5193Y-3.4295
X2.5193Y-3.4886
X2.5488Y-3.4295
X2.5488Y-3.4886
X2.5783Y-3.4295
X2.5783Y-3.4886
X3.0602Y-3.4295
X3.0602Y-3.4886
X3.0898Y-3.4295
X3.0898Y-3.4886
X3.1193Y-3.4295
X3.1193Y-3.4886
X3.1488Y-3.4295
X3.1488Y-3.4886
X3.1783Y-3.4295
X3.1783Y-3.4886
X3.2795Y-2.0695
X3.2795Y-4.9076
X3.2795Y-2.0105
X3.2795Y-4.8485
X3.309Y-2.0695
X3.309Y-4.9076
X3.309Y-2.0105
X3.309Y-4.8485
X3.3386Y-2.0695
X3.3386Y-4.9076
X3.3386Y-2.0105
X3.3386Y-4.8485
X3.3681Y-2.0695
X3.3681Y-4.9076
X3.3681Y-2.0105
X3.3681Y-4.8485
X3.3976Y-2.0695
X3.3976Y-4.9076
X3.3976Y-2.0105
X3.3976Y-4.8485
X3.8795Y-2.0695
X3.8795Y-4.9076
X3.8795Y-2.0105
X3.8795Y-4.8485
X3.909Y-2.0695
X3.909Y-4.9076
X3.909Y-2.0105
X3.909Y-4.8485
X3.9386Y-2.0695
X3.9386Y-4.9076
X3.9386Y-2.0105
X3.9386Y-4.8485
X3.9681Y-2.0695
X3.9681Y-4.9076
X3.9681Y-2.0105
X3.9681Y-4.8485
X3.9976Y-2.0695
X3.9976Y-4.9076
X3.9976Y-2.0105
X3.9976Y-4.8485
X4.0988Y-3.4295
X4.0988Y-3.4886
X4.1283Y-3.4295
X4.1283Y-3.4886
X4.1578Y-3.4295
X4.1578Y-3.4886
X4.1874Y-3.4295
X4.1874Y-3.4886
X4.2169Y-3.4295
X4.2169Y-3.4886
X4.6988Y-3.4295
X4.6988Y-3.4886
X4.7283Y-3.4295
X4.7283Y-3.4886
X4.7578Y-3.4295
X4.7578Y-3.4886
X4.7874Y-3.4295
X4.7874Y-3.4886
X4.8169Y-3.4295
X4.8169Y-3.4886
X4.9181Y-2.0695
X4.9181Y-4.9076
X4.9181Y-2.0105
X4.9181Y-4.8485
X4.9476Y-2.0695
X4.9476Y-4.9076
X4.9476Y-2.0105
X4.9476Y-4.8485
X4.9771Y-2.0695
X4.9771Y-4.9076
X4.9771Y-2.0105
X4.9771Y-4.8485
X5.0066Y-2.0695
X5.0067Y-4.9076
X5.0067Y-2.0105
X5.0067Y-4.8485
X5.0362Y-2.0695
X5.0362Y-4.9076
X5.0362Y-2.0105
X5.0362Y-4.8485
X5.5181Y-2.0695
X5.5181Y-4.9076
X5.5181Y-2.0105
X5.5181Y-4.8485
X5.5476Y-2.0695
X5.5476Y-4.9076
X5.5476Y-2.0105
X5.5476Y-4.8485
X5.5771Y-2.0695
X5.5771Y-4.9076
X5.5771Y-2.0105
X5.5771Y-4.8485
X5.6066Y-2.0695
X5.6067Y-4.9076
X5.6067Y-2.0105
X5.6067Y-4.8485
X5.6362Y-2.0695
X5.6362Y-4.9076
X5.6362Y-2.0105
X5.6362Y-4.8485
M30
