%TF.GenerationSoftware,KiCad,Pcbnew,7.0.10*%
%TF.CreationDate,2024-02-05T19:53:07-05:00*%
%TF.ProjectId,Digital D20,44696769-7461-46c2-9044-32302e6b6963,rev?*%
%TF.SameCoordinates,Original*%
%TF.FileFunction,Legend,Top*%
%TF.FilePolarity,Positive*%
%FSLAX46Y46*%
G04 Gerber Fmt 4.6, Leading zero omitted, Abs format (unit mm)*
G04 Created by KiCad (PCBNEW 7.0.10) date 2024-02-05 19:53:07*
%MOMM*%
%LPD*%
G01*
G04 APERTURE LIST*
%ADD10C,0.120000*%
G04 APERTURE END LIST*
D10*
%TO.C,REF\u002A\u002A*%
X170269000Y-133328000D02*
X175679000Y-133328000D01*
X170269000Y-136128000D02*
X170269000Y-133328000D01*
X171069000Y-136928000D02*
X170269000Y-136128000D01*
X175679000Y-133328000D02*
X175679000Y-136928000D01*
X175679000Y-136928000D02*
X171069000Y-136928000D01*
X175962000Y-129998000D02*
X177292000Y-129998000D01*
X175962000Y-131328000D02*
X175962000Y-129998000D01*
X175962000Y-132598000D02*
X175962000Y-140278000D01*
X175962000Y-132598000D02*
X178622000Y-132598000D01*
X175962000Y-140278000D02*
X178622000Y-140278000D01*
X178622000Y-132598000D02*
X178622000Y-140278000D01*
X169986000Y-132598000D02*
X169986000Y-140278000D01*
X167326000Y-131328000D02*
X167326000Y-129998000D01*
X167326000Y-140278000D02*
X169986000Y-140278000D01*
X167326000Y-132598000D02*
X169986000Y-132598000D01*
X167326000Y-129998000D02*
X168656000Y-129998000D01*
X167326000Y-132598000D02*
X167326000Y-140278000D01*
%TO.C,G\u002A\u002A\u002A*%
G36*
X168435323Y-148801293D02*
G01*
X168418233Y-148831819D01*
X168412892Y-148833327D01*
X168400918Y-148820028D01*
X168408090Y-148806094D01*
X168430729Y-148792473D01*
X168435323Y-148801293D01*
G37*
G36*
X146199651Y-151483815D02*
G01*
X146194311Y-151492203D01*
X146159329Y-151492666D01*
X146155353Y-151488795D01*
X146160883Y-151471775D01*
X146176536Y-151471019D01*
X146199651Y-151483815D01*
G37*
G36*
X145811621Y-144825435D02*
G01*
X145809793Y-144851792D01*
X145799934Y-144850497D01*
X145784730Y-144818988D01*
X145786558Y-144813748D01*
X145804321Y-144811568D01*
X145811621Y-144825435D01*
G37*
G36*
X140336083Y-104087773D02*
G01*
X140328911Y-104101707D01*
X140306272Y-104115328D01*
X140301678Y-104106508D01*
X140318768Y-104075982D01*
X140324109Y-104074474D01*
X140336083Y-104087773D01*
G37*
G36*
X130969106Y-123027221D02*
G01*
X130969582Y-123053636D01*
X130959647Y-123053205D01*
X130941756Y-123023142D01*
X130943120Y-123017762D01*
X130960625Y-123014042D01*
X130969106Y-123027221D01*
G37*
G36*
X141304799Y-104980209D02*
G01*
X141308423Y-104984413D01*
X141301430Y-105000886D01*
X141285770Y-105000274D01*
X141263859Y-104985513D01*
X141269910Y-104977622D01*
X141304799Y-104980209D01*
G37*
%TD*%
M02*
