M48
; DRILL file {KiCad 7.0.10} date Mon Feb  5 19:53:09 2024
; FORMAT={-:-/ absolute / inch / decimal}
; #@! TF.CreationDate,2024-02-05T19:53:09-05:00
; #@! TF.GenerationSoftware,Kicad,Pcbnew,7.0.10
; #@! TF.FileFunction,NonPlated,1,6,NPTH
FMAT,2
INCH
; #@! TA.AperFunction,NonPlated,NPTH,ComponentDrill
T1C0.0197
%
G90
G05
T1
X5.537Y-4.9067
X5.537Y-4.9933
X5.5685Y-4.9067
X5.5685Y-4.9933
X5.6Y-4.9067
X5.6Y-4.9933
X5.6315Y-4.9067
X5.6315Y-4.9933
X5.663Y-4.9067
X5.663Y-4.9933
X5.8243Y-4.4091
X5.8243Y-5.4909
X5.84Y-4.4364
X5.84Y-5.4636
X5.8558Y-4.4636
X5.8558Y-5.4364
X5.8715Y-4.4909
X5.8715Y-5.4091
X5.8873Y-4.5182
X5.8873Y-5.3818
X5.8993Y-4.3658
X5.8993Y-5.5342
X5.9151Y-4.3931
X5.9151Y-5.5069
X5.9308Y-4.4203
X5.9308Y-5.4797
X5.9466Y-4.4476
X5.9466Y-5.4524
X5.9623Y-4.4749
X5.9623Y-5.4251
X6.4109Y-4.4749
X6.4109Y-5.4251
X6.4267Y-4.4476
X6.4267Y-5.4524
X6.4424Y-4.4203
X6.4424Y-5.4797
X6.4581Y-4.3931
X6.4581Y-5.5069
X6.4739Y-4.3658
X6.4739Y-5.5342
X6.4859Y-4.5182
X6.4859Y-5.3818
X6.5017Y-4.4909
X6.5017Y-5.4091
X6.5174Y-4.4636
X6.5174Y-5.4364
X6.5332Y-4.4364
X6.5332Y-5.4636
X6.5489Y-4.4091
X6.5489Y-5.4909
M30
