%TF.GenerationSoftware,KiCad,Pcbnew,7.0.10*%
%TF.CreationDate,2024-02-07T22:14:31-05:00*%
%TF.ProjectId,Digital D20,44696769-7461-46c2-9044-32302e6b6963,rev?*%
%TF.SameCoordinates,Original*%
%TF.FileFunction,Legend,Top*%
%TF.FilePolarity,Positive*%
%FSLAX46Y46*%
G04 Gerber Fmt 4.6, Leading zero omitted, Abs format (unit mm)*
G04 Created by KiCad (PCBNEW 7.0.10) date 2024-02-07 22:14:31*
%MOMM*%
%LPD*%
G01*
G04 APERTURE LIST*
%ADD10C,0.150000*%
%ADD11C,0.120000*%
G04 APERTURE END LIST*
D10*
X168516493Y-127647819D02*
X168516493Y-128362104D01*
X168516493Y-128362104D02*
X168468874Y-128504961D01*
X168468874Y-128504961D02*
X168373636Y-128600200D01*
X168373636Y-128600200D02*
X168230779Y-128647819D01*
X168230779Y-128647819D02*
X168135541Y-128647819D01*
X169468874Y-128647819D02*
X168992684Y-128647819D01*
X168992684Y-128647819D02*
X168992684Y-127647819D01*
X170373636Y-128552580D02*
X170326017Y-128600200D01*
X170326017Y-128600200D02*
X170183160Y-128647819D01*
X170183160Y-128647819D02*
X170087922Y-128647819D01*
X170087922Y-128647819D02*
X169945065Y-128600200D01*
X169945065Y-128600200D02*
X169849827Y-128504961D01*
X169849827Y-128504961D02*
X169802208Y-128409723D01*
X169802208Y-128409723D02*
X169754589Y-128219247D01*
X169754589Y-128219247D02*
X169754589Y-128076390D01*
X169754589Y-128076390D02*
X169802208Y-127885914D01*
X169802208Y-127885914D02*
X169849827Y-127790676D01*
X169849827Y-127790676D02*
X169945065Y-127695438D01*
X169945065Y-127695438D02*
X170087922Y-127647819D01*
X170087922Y-127647819D02*
X170183160Y-127647819D01*
X170183160Y-127647819D02*
X170326017Y-127695438D01*
X170326017Y-127695438D02*
X170373636Y-127743057D01*
X171087922Y-127647819D02*
X171087922Y-128362104D01*
X171087922Y-128362104D02*
X171040303Y-128504961D01*
X171040303Y-128504961D02*
X170945065Y-128600200D01*
X170945065Y-128600200D02*
X170802208Y-128647819D01*
X170802208Y-128647819D02*
X170706970Y-128647819D01*
X172040303Y-128647819D02*
X171564113Y-128647819D01*
X171564113Y-128647819D02*
X171564113Y-127647819D01*
X172945065Y-128552580D02*
X172897446Y-128600200D01*
X172897446Y-128600200D02*
X172754589Y-128647819D01*
X172754589Y-128647819D02*
X172659351Y-128647819D01*
X172659351Y-128647819D02*
X172516494Y-128600200D01*
X172516494Y-128600200D02*
X172421256Y-128504961D01*
X172421256Y-128504961D02*
X172373637Y-128409723D01*
X172373637Y-128409723D02*
X172326018Y-128219247D01*
X172326018Y-128219247D02*
X172326018Y-128076390D01*
X172326018Y-128076390D02*
X172373637Y-127885914D01*
X172373637Y-127885914D02*
X172421256Y-127790676D01*
X172421256Y-127790676D02*
X172516494Y-127695438D01*
X172516494Y-127695438D02*
X172659351Y-127647819D01*
X172659351Y-127647819D02*
X172754589Y-127647819D01*
X172754589Y-127647819D02*
X172897446Y-127695438D01*
X172897446Y-127695438D02*
X172945065Y-127743057D01*
X173659351Y-127647819D02*
X173659351Y-128362104D01*
X173659351Y-128362104D02*
X173611732Y-128504961D01*
X173611732Y-128504961D02*
X173516494Y-128600200D01*
X173516494Y-128600200D02*
X173373637Y-128647819D01*
X173373637Y-128647819D02*
X173278399Y-128647819D01*
X174611732Y-128647819D02*
X174135542Y-128647819D01*
X174135542Y-128647819D02*
X174135542Y-127647819D01*
X175516494Y-128552580D02*
X175468875Y-128600200D01*
X175468875Y-128600200D02*
X175326018Y-128647819D01*
X175326018Y-128647819D02*
X175230780Y-128647819D01*
X175230780Y-128647819D02*
X175087923Y-128600200D01*
X175087923Y-128600200D02*
X174992685Y-128504961D01*
X174992685Y-128504961D02*
X174945066Y-128409723D01*
X174945066Y-128409723D02*
X174897447Y-128219247D01*
X174897447Y-128219247D02*
X174897447Y-128076390D01*
X174897447Y-128076390D02*
X174945066Y-127885914D01*
X174945066Y-127885914D02*
X174992685Y-127790676D01*
X174992685Y-127790676D02*
X175087923Y-127695438D01*
X175087923Y-127695438D02*
X175230780Y-127647819D01*
X175230780Y-127647819D02*
X175326018Y-127647819D01*
X175326018Y-127647819D02*
X175468875Y-127695438D01*
X175468875Y-127695438D02*
X175516494Y-127743057D01*
X176230780Y-127647819D02*
X176230780Y-128362104D01*
X176230780Y-128362104D02*
X176183161Y-128504961D01*
X176183161Y-128504961D02*
X176087923Y-128600200D01*
X176087923Y-128600200D02*
X175945066Y-128647819D01*
X175945066Y-128647819D02*
X175849828Y-128647819D01*
X177183161Y-128647819D02*
X176706971Y-128647819D01*
X176706971Y-128647819D02*
X176706971Y-127647819D01*
X178087923Y-128552580D02*
X178040304Y-128600200D01*
X178040304Y-128600200D02*
X177897447Y-128647819D01*
X177897447Y-128647819D02*
X177802209Y-128647819D01*
X177802209Y-128647819D02*
X177659352Y-128600200D01*
X177659352Y-128600200D02*
X177564114Y-128504961D01*
X177564114Y-128504961D02*
X177516495Y-128409723D01*
X177516495Y-128409723D02*
X177468876Y-128219247D01*
X177468876Y-128219247D02*
X177468876Y-128076390D01*
X177468876Y-128076390D02*
X177516495Y-127885914D01*
X177516495Y-127885914D02*
X177564114Y-127790676D01*
X177564114Y-127790676D02*
X177659352Y-127695438D01*
X177659352Y-127695438D02*
X177802209Y-127647819D01*
X177802209Y-127647819D02*
X177897447Y-127647819D01*
X177897447Y-127647819D02*
X178040304Y-127695438D01*
X178040304Y-127695438D02*
X178087923Y-127743057D01*
D11*
%TO.C,REF\u002A\u002A*%
X175962000Y-129998000D02*
X177292000Y-129998000D01*
X175962000Y-131328000D02*
X175962000Y-129998000D01*
X175962000Y-132598000D02*
X175962000Y-140278000D01*
X175962000Y-132598000D02*
X178622000Y-132598000D01*
X175962000Y-140278000D02*
X178622000Y-140278000D01*
X178622000Y-132598000D02*
X178622000Y-140278000D01*
X167326000Y-129998000D02*
X168656000Y-129998000D01*
X167326000Y-131328000D02*
X167326000Y-129998000D01*
X167326000Y-132598000D02*
X167326000Y-140278000D01*
X167326000Y-132598000D02*
X169986000Y-132598000D01*
X167326000Y-140278000D02*
X169986000Y-140278000D01*
X169986000Y-132598000D02*
X169986000Y-140278000D01*
%TO.C,G\u002A\u002A\u002A*%
G36*
X167555441Y-147277293D02*
G01*
X167538351Y-147307819D01*
X167533010Y-147309327D01*
X167521036Y-147296028D01*
X167528208Y-147282094D01*
X167550847Y-147268473D01*
X167555441Y-147277293D01*
G37*
%TO.C,REF\u002A\u002A*%
X170269000Y-133328000D02*
X175679000Y-133328000D01*
X170269000Y-136128000D02*
X170269000Y-133328000D01*
X171069000Y-136928000D02*
X170269000Y-136128000D01*
X175679000Y-133328000D02*
X175679000Y-136928000D01*
X175679000Y-136928000D02*
X171069000Y-136928000D01*
%TO.C,G\u002A\u002A\u002A*%
G36*
X140336083Y-104087773D02*
G01*
X140328911Y-104101707D01*
X140306272Y-104115328D01*
X140301678Y-104106508D01*
X140318768Y-104075982D01*
X140324109Y-104074474D01*
X140336083Y-104087773D01*
G37*
G36*
X145319769Y-149959815D02*
G01*
X145314429Y-149968203D01*
X145279447Y-149968666D01*
X145275471Y-149964795D01*
X145281001Y-149947775D01*
X145296654Y-149947019D01*
X145319769Y-149959815D01*
G37*
G36*
X130969106Y-123027221D02*
G01*
X130969582Y-123053636D01*
X130959647Y-123053205D01*
X130941756Y-123023142D01*
X130943120Y-123017762D01*
X130960625Y-123014042D01*
X130969106Y-123027221D01*
G37*
G36*
X144931739Y-143301435D02*
G01*
X144929911Y-143327792D01*
X144920052Y-143326497D01*
X144904848Y-143294988D01*
X144906676Y-143289748D01*
X144924439Y-143287568D01*
X144931739Y-143301435D01*
G37*
G36*
X141304799Y-104980209D02*
G01*
X141308423Y-104984413D01*
X141301430Y-105000886D01*
X141285770Y-105000274D01*
X141263859Y-104985513D01*
X141269910Y-104977622D01*
X141304799Y-104980209D01*
G37*
%TD*%
M02*
