%TF.GenerationSoftware,KiCad,Pcbnew,7.0.10*%
%TF.CreationDate,2024-03-11T19:10:02-04:00*%
%TF.ProjectId,Digital D20,44696769-7461-46c2-9044-32302e6b6963,rev?*%
%TF.SameCoordinates,Original*%
%TF.FileFunction,Soldermask,Bot*%
%TF.FilePolarity,Negative*%
%FSLAX46Y46*%
G04 Gerber Fmt 4.6, Leading zero omitted, Abs format (unit mm)*
G04 Created by KiCad (PCBNEW 7.0.10) date 2024-03-11 19:10:02*
%MOMM*%
%LPD*%
G01*
G04 APERTURE LIST*
%ADD10C,0.150000*%
%ADD11C,0.500000*%
G04 APERTURE END LIST*
D10*
X32004000Y-16764000D02*
X152908000Y-16764000D01*
X152908000Y-159004000D01*
X32004000Y-159004000D01*
X32004000Y-16764000D01*
G36*
X32004000Y-16764000D02*
G01*
X152908000Y-16764000D01*
X152908000Y-159004000D01*
X32004000Y-159004000D01*
X32004000Y-16764000D01*
G37*
D11*
%TO.C,*%
X142033277Y-75512710D03*
%TD*%
%TO.C,*%
X149278277Y-62964002D03*
%TD*%
%TO.C,mouse-bite-2mm-slot*%
X149653277Y-62314483D03*
X149278277Y-62964002D03*
X148903277Y-63613521D03*
X148528277Y-64263040D03*
X148153277Y-64912559D03*
%TD*%
%TO.C,mouse-bite-2mm-slot*%
X142033277Y-75512710D03*
X141658277Y-76162229D03*
X141283277Y-76811748D03*
X140908277Y-77461267D03*
X140533277Y-78110786D03*
%TD*%
%TO.C,*%
X148153539Y-110806261D03*
%TD*%
%TO.C,*%
X140908539Y-98257553D03*
%TD*%
%TO.C,mouse-bite-2mm-slot*%
X140533539Y-97608034D03*
X140908539Y-98257553D03*
X141283539Y-98907072D03*
X141658539Y-99556591D03*
X142033539Y-100206110D03*
%TD*%
%TO.C,mouse-bite-2mm-slot*%
X148153539Y-110806261D03*
X148528539Y-111455780D03*
X148903539Y-112105299D03*
X149278539Y-112754818D03*
X149653539Y-113404337D03*
%TD*%
%TO.C,*%
X140734505Y-100956113D03*
%TD*%
%TO.C,*%
X147979505Y-113504821D03*
%TD*%
%TO.C,mouse-bite-2mm-slot*%
X148354505Y-114154340D03*
X147979505Y-113504821D03*
X147604505Y-112855302D03*
X147229505Y-112205783D03*
X146854505Y-111556264D03*
%TD*%
%TO.C,mouse-bite-2mm-slot*%
X140734505Y-100956113D03*
X140359505Y-100306594D03*
X139984505Y-99657075D03*
X139609505Y-99007556D03*
X139234505Y-98358037D03*
%TD*%
%TO.C,*%
X146854239Y-64162564D03*
%TD*%
%TO.C,*%
X139609239Y-76711272D03*
%TD*%
%TO.C,mouse-bite-2mm-slot*%
X139234239Y-77360791D03*
X139609239Y-76711272D03*
X139984239Y-76061753D03*
X140359239Y-75412234D03*
X140734239Y-74762715D03*
%TD*%
%TO.C,mouse-bite-2mm-slot*%
X146854239Y-64162564D03*
X147229239Y-63513045D03*
X147604239Y-62863526D03*
X147979239Y-62214007D03*
X148354239Y-61564488D03*
%TD*%
%TO.C,mouse-bite-2mm-slot*%
X85724201Y-146849764D03*
X86099201Y-147499283D03*
X86474201Y-148148802D03*
X86849201Y-148798321D03*
X87224201Y-149447840D03*
%TD*%
%TO.C,mouse-bite-2mm-slot*%
X99114943Y-100956116D03*
X98739943Y-100306597D03*
X98364943Y-99657078D03*
X97989943Y-99007559D03*
X97614943Y-98358040D03*
%TD*%
%TO.C,mouse-bite-2mm-slot*%
X127544641Y-150197788D03*
X127169641Y-149548269D03*
X126794641Y-148898750D03*
X126419641Y-148249231D03*
X126044641Y-147599712D03*
%TD*%
%TO.C,mouse-bite-2mm-slot*%
X66414508Y-134401589D03*
X66039508Y-135051108D03*
X65664508Y-135700627D03*
X65289508Y-136350146D03*
X64914508Y-136999665D03*
%TD*%
%TO.C,mouse-bite-2mm-slot*%
X57495468Y-100956170D03*
X57120468Y-100306651D03*
X56745468Y-99657132D03*
X56370468Y-99007613D03*
X55995468Y-98358094D03*
%TD*%
%TO.C,mouse-bite-2mm-slot*%
X65489788Y-88609494D03*
X64739788Y-88609494D03*
X63989788Y-88609494D03*
X63239788Y-88609494D03*
X62489788Y-88609494D03*
%TD*%
%TO.C,mouse-bite-2mm-slot*%
X84425248Y-100206170D03*
X84800248Y-99556651D03*
X85175248Y-98907132D03*
X85550248Y-98257613D03*
X85925248Y-97608094D03*
%TD*%
%TO.C,mouse-bite-2mm-slot*%
X122349263Y-88609440D03*
X121599263Y-88609440D03*
X120849263Y-88609440D03*
X120099263Y-88609440D03*
X119349263Y-88609440D03*
%TD*%
%TO.C,mouse-bite-2mm-slot*%
X87224285Y-98358091D03*
X86849285Y-99007610D03*
X86474285Y-99657129D03*
X86099285Y-100306648D03*
X85724285Y-100956167D03*
%TD*%
%TO.C,mouse-bite-2mm-slot*%
X140159132Y-123152990D03*
X140909132Y-123152990D03*
X141659132Y-123152990D03*
X142409132Y-123152990D03*
X143159132Y-123152990D03*
%TD*%
%TO.C,mouse-bite-2mm-slot*%
X101539486Y-124652938D03*
X100789486Y-124652938D03*
X100039486Y-124652938D03*
X99289486Y-124652938D03*
X98539486Y-124652938D03*
%TD*%
%TO.C,mouse-bite-2mm-slot*%
X97614946Y-149447841D03*
X97989946Y-148798322D03*
X98364946Y-148148803D03*
X98739946Y-147499284D03*
X99114946Y-146849765D03*
%TD*%
%TO.C,mouse-bite-2mm-slot*%
X78305166Y-136999614D03*
X77930166Y-136350095D03*
X77555166Y-135700576D03*
X77180166Y-135051057D03*
X76805166Y-134401538D03*
%TD*%
%TO.C,mouse-bite-2mm-slot*%
X121223760Y-111556264D03*
X120848760Y-112205783D03*
X120473760Y-112855302D03*
X120098760Y-113504821D03*
X119723760Y-114154340D03*
%TD*%
%TO.C,mouse-bite-2mm-slot*%
X107109263Y-88609440D03*
X106359263Y-88609440D03*
X105609263Y-88609440D03*
X104859263Y-88609440D03*
X104109263Y-88609440D03*
%TD*%
%TO.C,mouse-bite-2mm-slot*%
X55995470Y-149447896D03*
X56370470Y-148798377D03*
X56745470Y-148148858D03*
X57120470Y-147499339D03*
X57495470Y-146849820D03*
%TD*%
%TO.C,mouse-bite-2mm-slot*%
X118424723Y-113404343D03*
X118799723Y-112754824D03*
X119174723Y-112105305D03*
X119549723Y-111455786D03*
X119924723Y-110806267D03*
%TD*%
%TO.C,mouse-bite-2mm-slot*%
X86299486Y-124652938D03*
X85549486Y-124652938D03*
X84799486Y-124652938D03*
X84049486Y-124652938D03*
X83299486Y-124652938D03*
%TD*%
%TO.C,mouse-bite-2mm-slot*%
X98913978Y-97608039D03*
X99288978Y-98257558D03*
X99663978Y-98907077D03*
X100038978Y-99556596D03*
X100413978Y-100206115D03*
%TD*%
%TO.C,mouse-bite-2mm-slot*%
X78104201Y-133651537D03*
X78479201Y-134301056D03*
X78854201Y-134950575D03*
X79229201Y-135600094D03*
X79604201Y-136249613D03*
%TD*%
%TO.C,mouse-bite-2mm-slot*%
X143158961Y-124652884D03*
X142408961Y-124652884D03*
X141658961Y-124652884D03*
X140908961Y-124652884D03*
X140158961Y-124652884D03*
%TD*%
%TO.C,mouse-bite-2mm-slot*%
X127918961Y-124652884D03*
X127168961Y-124652884D03*
X126418961Y-124652884D03*
X125668961Y-124652884D03*
X124918961Y-124652884D03*
%TD*%
%TO.C,mouse-bite-2mm-slot*%
X83299657Y-123153044D03*
X84049657Y-123153044D03*
X84799657Y-123153044D03*
X85549657Y-123153044D03*
X86299657Y-123153044D03*
%TD*%
%TO.C,mouse-bite-2mm-slot*%
X108033983Y-134401535D03*
X107658983Y-135051054D03*
X107283983Y-135700573D03*
X106908983Y-136350092D03*
X106533983Y-136999611D03*
%TD*%
%TO.C,mouse-bite-2mm-slot*%
X58794508Y-147599816D03*
X58419508Y-148249335D03*
X58044508Y-148898854D03*
X57669508Y-149548373D03*
X57294508Y-150197892D03*
%TD*%
%TO.C,mouse-bite-2mm-slot*%
X124919132Y-123152990D03*
X125669132Y-123152990D03*
X126419132Y-123152990D03*
X127169132Y-123152990D03*
X127919132Y-123152990D03*
%TD*%
%TO.C,mouse-bite-2mm-slot*%
X100413983Y-147599762D03*
X100038983Y-148249281D03*
X99663983Y-148898800D03*
X99288983Y-149548319D03*
X98913983Y-150197838D03*
%TD*%
%TO.C,mouse-bite-2mm-slot*%
X64914503Y-110806320D03*
X65289503Y-111455839D03*
X65664503Y-112105358D03*
X66039503Y-112754877D03*
X66414503Y-113404396D03*
%TD*%
%TO.C,mouse-bite-2mm-slot*%
X98539657Y-123153044D03*
X99289657Y-123153044D03*
X100039657Y-123153044D03*
X100789657Y-123153044D03*
X101539657Y-123153044D03*
%TD*%
%TO.C,mouse-bite-2mm-slot*%
X80729788Y-88609494D03*
X79979788Y-88609494D03*
X79229788Y-88609494D03*
X78479788Y-88609494D03*
X77729788Y-88609494D03*
%TD*%
%TO.C,mouse-bite-2mm-slot*%
X76805248Y-113404397D03*
X77180248Y-112754878D03*
X77555248Y-112105359D03*
X77930248Y-111455840D03*
X78305248Y-110806321D03*
%TD*%
%TO.C,mouse-bite-2mm-slot*%
X128843760Y-98358037D03*
X128468760Y-99007556D03*
X128093760Y-99657075D03*
X127718760Y-100306594D03*
X127343760Y-100956113D03*
%TD*%
%TO.C,mouse-bite-2mm-slot*%
X106734943Y-114154344D03*
X106359943Y-113504825D03*
X105984943Y-112855306D03*
X105609943Y-112205787D03*
X105234943Y-111556268D03*
%TD*%
%TO.C,mouse-bite-2mm-slot*%
X79604285Y-111556318D03*
X79229285Y-112205837D03*
X78854285Y-112855356D03*
X78479285Y-113504875D03*
X78104285Y-114154394D03*
%TD*%
%TO.C,mouse-bite-2mm-slot*%
X127343676Y-146849710D03*
X127718676Y-147499229D03*
X128093676Y-148148748D03*
X128468676Y-148798267D03*
X128843676Y-149447786D03*
%TD*%
%TO.C,mouse-bite-2mm-slot*%
X56920095Y-123153046D03*
X57670095Y-123153046D03*
X58420095Y-123153046D03*
X59170095Y-123153046D03*
X59920095Y-123153046D03*
%TD*%
%TO.C,mouse-bite-2mm-slot*%
X63615470Y-136249668D03*
X63990470Y-135600149D03*
X64365470Y-134950630D03*
X64740470Y-134301111D03*
X65115470Y-133651592D03*
%TD*%
%TO.C,mouse-bite-2mm-slot*%
X65115468Y-114154397D03*
X64740468Y-113504878D03*
X64365468Y-112855359D03*
X63990468Y-112205840D03*
X63615468Y-111556321D03*
%TD*%
%TO.C,mouse-bite-2mm-slot*%
X119924641Y-136999560D03*
X119549641Y-136350041D03*
X119174641Y-135700522D03*
X118799641Y-135051003D03*
X118424641Y-134401484D03*
%TD*%
%TO.C,mouse-bite-2mm-slot*%
X85925166Y-150197842D03*
X85550166Y-149548323D03*
X85175166Y-148898804D03*
X84800166Y-148249285D03*
X84425166Y-147599766D03*
%TD*%
%TO.C,mouse-bite-2mm-slot*%
X44680097Y-124653044D03*
X43930097Y-124653044D03*
X43180097Y-124653044D03*
X42430097Y-124653044D03*
X41680097Y-124653044D03*
%TD*%
%TO.C,mouse-bite-2mm-slot*%
X106533978Y-110806266D03*
X106908978Y-111455785D03*
X107283978Y-112105304D03*
X107658978Y-112754823D03*
X108033978Y-113404342D03*
%TD*%
%TO.C,mouse-bite-2mm-slot*%
X126044723Y-100206116D03*
X126419723Y-99556597D03*
X126794723Y-98907078D03*
X127169723Y-98257559D03*
X127544723Y-97608040D03*
%TD*%
%TO.C,mouse-bite-2mm-slot*%
X57294503Y-97608093D03*
X57669503Y-98257612D03*
X58044503Y-98907131D03*
X58419503Y-99556650D03*
X58794503Y-100206169D03*
%TD*%
%TO.C,mouse-bite-2mm-slot*%
X41680095Y-123153046D03*
X42430095Y-123153046D03*
X43180095Y-123153046D03*
X43930095Y-123153046D03*
X44680095Y-123153046D03*
%TD*%
%TO.C,mouse-bite-2mm-slot*%
X119723676Y-133651483D03*
X120098676Y-134301002D03*
X120473676Y-134950521D03*
X120848676Y-135600040D03*
X121223676Y-136249559D03*
%TD*%
%TO.C,mouse-bite-2mm-slot*%
X59920097Y-124653044D03*
X59170097Y-124653044D03*
X58420097Y-124653044D03*
X57670097Y-124653044D03*
X56920097Y-124653044D03*
%TD*%
%TO.C,mouse-bite-2mm-slot*%
X105234946Y-136249614D03*
X105609946Y-135600095D03*
X105984946Y-134950576D03*
X106359946Y-134301057D03*
X106734946Y-133651538D03*
%TD*%
%TO.C,mouse-bite-2mm-slot*%
X127343581Y-74762664D03*
X127718581Y-75412183D03*
X128093581Y-76061702D03*
X128468581Y-76711221D03*
X128843581Y-77360740D03*
%TD*%
%TO.C,mouse-bite-2mm-slot*%
X143158866Y-52565838D03*
X142408866Y-52565838D03*
X141658866Y-52565838D03*
X140908866Y-52565838D03*
X140158866Y-52565838D03*
%TD*%
%TO.C,mouse-bite-2mm-slot*%
X127918866Y-52565838D03*
X127168866Y-52565838D03*
X126418866Y-52565838D03*
X125668866Y-52565838D03*
X124918866Y-52565838D03*
%TD*%
%TO.C,mouse-bite-2mm-slot*%
X119723581Y-61564437D03*
X120098581Y-62213956D03*
X120473581Y-62863475D03*
X120848581Y-63512994D03*
X121223581Y-64162513D03*
%TD*%
%TO.C,mouse-bite-2mm-slot*%
X140159037Y-51065944D03*
X140909037Y-51065944D03*
X141659037Y-51065944D03*
X142409037Y-51065944D03*
X143159037Y-51065944D03*
%TD*%
%TO.C,mouse-bite-2mm-slot*%
X121223665Y-39469218D03*
X120848665Y-40118737D03*
X120473665Y-40768256D03*
X120098665Y-41417775D03*
X119723665Y-42067294D03*
%TD*%
%TO.C,mouse-bite-2mm-slot*%
X124919037Y-51065944D03*
X125669037Y-51065944D03*
X126419037Y-51065944D03*
X127169037Y-51065944D03*
X127919037Y-51065944D03*
%TD*%
%TO.C,mouse-bite-2mm-slot*%
X128843665Y-26270991D03*
X128468665Y-26920510D03*
X128093665Y-27570029D03*
X127718665Y-28219548D03*
X127343665Y-28869067D03*
%TD*%
%TO.C,mouse-bite-2mm-slot*%
X119349260Y-87109442D03*
X120099260Y-87109442D03*
X120849260Y-87109442D03*
X121599260Y-87109442D03*
X122349260Y-87109442D03*
%TD*%
%TO.C,mouse-bite-2mm-slot*%
X100413888Y-75512716D03*
X100038888Y-76162235D03*
X99663888Y-76811754D03*
X99288888Y-77461273D03*
X98913888Y-78110792D03*
%TD*%
%TO.C,mouse-bite-2mm-slot*%
X104109260Y-87109442D03*
X104859260Y-87109442D03*
X105609260Y-87109442D03*
X106359260Y-87109442D03*
X107109260Y-87109442D03*
%TD*%
%TO.C,mouse-bite-2mm-slot*%
X127544546Y-78110742D03*
X127169546Y-77461223D03*
X126794546Y-76811704D03*
X126419546Y-76162185D03*
X126044546Y-75512666D03*
%TD*%
%TO.C,mouse-bite-2mm-slot*%
X119924546Y-64912514D03*
X119549546Y-64262995D03*
X119174546Y-63613476D03*
X118799546Y-62963957D03*
X118424546Y-62314438D03*
%TD*%
%TO.C,mouse-bite-2mm-slot*%
X108033888Y-62314489D03*
X107658888Y-62964008D03*
X107283888Y-63613527D03*
X106908888Y-64263046D03*
X106533888Y-64912565D03*
%TD*%
%TO.C,mouse-bite-2mm-slot*%
X126044628Y-28119070D03*
X126419628Y-27469551D03*
X126794628Y-26820032D03*
X127169628Y-26170513D03*
X127544628Y-25520994D03*
%TD*%
%TO.C,mouse-bite-2mm-slot*%
X106533883Y-38719220D03*
X106908883Y-39368739D03*
X107283883Y-40018258D03*
X107658883Y-40667777D03*
X108033883Y-41317296D03*
%TD*%
%TO.C,mouse-bite-2mm-slot*%
X118424628Y-41317297D03*
X118799628Y-40667778D03*
X119174628Y-40018259D03*
X119549628Y-39368740D03*
X119924628Y-38719221D03*
%TD*%
%TO.C,mouse-bite-2mm-slot*%
X98913883Y-25520993D03*
X99288883Y-26170512D03*
X99663883Y-26820031D03*
X100038883Y-27469550D03*
X100413883Y-28119069D03*
%TD*%
%TO.C,mouse-bite-2mm-slot*%
X105234851Y-64162568D03*
X105609851Y-63513049D03*
X105984851Y-62863530D03*
X106359851Y-62214011D03*
X106734851Y-61564492D03*
%TD*%
%TO.C,mouse-bite-2mm-slot*%
X85724106Y-74762718D03*
X86099106Y-75412237D03*
X86474106Y-76061756D03*
X86849106Y-76711275D03*
X87224106Y-77360794D03*
%TD*%
%TO.C,mouse-bite-2mm-slot*%
X97614851Y-77360795D03*
X97989851Y-76711276D03*
X98364851Y-76061757D03*
X98739851Y-75412238D03*
X99114851Y-74762719D03*
%TD*%
%TO.C,mouse-bite-2mm-slot*%
X101539391Y-52565892D03*
X100789391Y-52565892D03*
X100039391Y-52565892D03*
X99289391Y-52565892D03*
X98539391Y-52565892D03*
%TD*%
%TO.C,mouse-bite-2mm-slot*%
X86299391Y-52565892D03*
X85549391Y-52565892D03*
X84799391Y-52565892D03*
X84049391Y-52565892D03*
X83299391Y-52565892D03*
%TD*%
%TO.C,mouse-bite-2mm-slot*%
X78104106Y-61564491D03*
X78479106Y-62214010D03*
X78854106Y-62863529D03*
X79229106Y-63513048D03*
X79604106Y-64162567D03*
%TD*%
%TO.C,mouse-bite-2mm-slot*%
X77729785Y-87109496D03*
X78479785Y-87109496D03*
X79229785Y-87109496D03*
X79979785Y-87109496D03*
X80729785Y-87109496D03*
%TD*%
%TO.C,mouse-bite-2mm-slot*%
X58794413Y-75512770D03*
X58419413Y-76162289D03*
X58044413Y-76811808D03*
X57669413Y-77461327D03*
X57294413Y-78110846D03*
%TD*%
%TO.C,mouse-bite-2mm-slot*%
X62489785Y-87109496D03*
X63239785Y-87109496D03*
X63989785Y-87109496D03*
X64739785Y-87109496D03*
X65489785Y-87109496D03*
%TD*%
%TO.C,mouse-bite-2mm-slot*%
X85925071Y-78110796D03*
X85550071Y-77461277D03*
X85175071Y-76811758D03*
X84800071Y-76162239D03*
X84425071Y-75512720D03*
%TD*%
%TO.C,mouse-bite-2mm-slot*%
X78305071Y-64912568D03*
X77930071Y-64263049D03*
X77555071Y-63613530D03*
X77180071Y-62964011D03*
X76805071Y-62314492D03*
%TD*%
%TO.C,mouse-bite-2mm-slot*%
X66414413Y-62314543D03*
X66039413Y-62964062D03*
X65664413Y-63613581D03*
X65289413Y-64263100D03*
X64914413Y-64912619D03*
%TD*%
%TO.C,mouse-bite-2mm-slot*%
X44680002Y-52565998D03*
X43930002Y-52565998D03*
X43180002Y-52565998D03*
X42430002Y-52565998D03*
X41680002Y-52565998D03*
%TD*%
%TO.C,mouse-bite-2mm-slot*%
X55995375Y-77360850D03*
X56370375Y-76711331D03*
X56745375Y-76061812D03*
X57120375Y-75412293D03*
X57495375Y-74762774D03*
%TD*%
%TO.C,mouse-bite-2mm-slot*%
X63615375Y-64162622D03*
X63990375Y-63513103D03*
X64365375Y-62863584D03*
X64740375Y-62214065D03*
X65115375Y-61564546D03*
%TD*%
%TO.C,mouse-bite-2mm-slot*%
X59920002Y-52565998D03*
X59170002Y-52565998D03*
X58420002Y-52565998D03*
X57670002Y-52565998D03*
X56920002Y-52565998D03*
%TD*%
%TO.C,mouse-bite-2mm-slot*%
X98539562Y-51065998D03*
X99289562Y-51065998D03*
X100039562Y-51065998D03*
X100789562Y-51065998D03*
X101539562Y-51065998D03*
%TD*%
%TO.C,mouse-bite-2mm-slot*%
X79604190Y-39469272D03*
X79229190Y-40118791D03*
X78854190Y-40768310D03*
X78479190Y-41417829D03*
X78104190Y-42067348D03*
%TD*%
%TO.C,mouse-bite-2mm-slot*%
X83299562Y-51065998D03*
X84049562Y-51065998D03*
X84799562Y-51065998D03*
X85549562Y-51065998D03*
X86299562Y-51065998D03*
%TD*%
%TO.C,mouse-bite-2mm-slot*%
X106734848Y-42067298D03*
X106359848Y-41417779D03*
X105984848Y-40768260D03*
X105609848Y-40118741D03*
X105234848Y-39469222D03*
%TD*%
%TO.C,mouse-bite-2mm-slot*%
X99114848Y-28869070D03*
X98739848Y-28219551D03*
X98364848Y-27570032D03*
X97989848Y-26920513D03*
X97614848Y-26270994D03*
%TD*%
%TO.C,mouse-bite-2mm-slot*%
X87224190Y-26271045D03*
X86849190Y-26920564D03*
X86474190Y-27570083D03*
X86099190Y-28219602D03*
X85724190Y-28869121D03*
%TD*%
%TO.C,mouse-bite-2mm-slot*%
X84425153Y-28119124D03*
X84800153Y-27469605D03*
X85175153Y-26820086D03*
X85550153Y-26170567D03*
X85925153Y-25521048D03*
%TD*%
%TO.C,mouse-bite-2mm-slot*%
X64914408Y-38719274D03*
X65289408Y-39368793D03*
X65664408Y-40018312D03*
X66039408Y-40667831D03*
X66414408Y-41317350D03*
%TD*%
%TO.C,mouse-bite-2mm-slot*%
X76805153Y-41317351D03*
X77180153Y-40667832D03*
X77555153Y-40018313D03*
X77930153Y-39368794D03*
X78305153Y-38719275D03*
%TD*%
%TO.C,mouse-bite-2mm-slot*%
X57294408Y-25521047D03*
X57669408Y-26170566D03*
X58044408Y-26820085D03*
X58419408Y-27469604D03*
X58794408Y-28119123D03*
%TD*%
%TO.C,mouse-bite-2mm-slot*%
X57495373Y-28869124D03*
X57120373Y-28219605D03*
X56745373Y-27570086D03*
X56370373Y-26920567D03*
X55995373Y-26271048D03*
%TD*%
%TO.C,mouse-bite-2mm-slot*%
X65115373Y-42067351D03*
X64740373Y-41417832D03*
X64365373Y-40768313D03*
X63990373Y-40118794D03*
X63615373Y-39469275D03*
%TD*%
%TO.C,mouse-bite-2mm-slot*%
X56920000Y-51066000D03*
X57670000Y-51066000D03*
X58420000Y-51066000D03*
X59170000Y-51066000D03*
X59920000Y-51066000D03*
%TD*%
%TO.C,mouse-bite-2mm-slot*%
X41680000Y-51066000D03*
X42430000Y-51066000D03*
X43180000Y-51066000D03*
X43930000Y-51066000D03*
X44680000Y-51066000D03*
%TD*%
M02*
