%TF.GenerationSoftware,KiCad,Pcbnew,7.0.10*%
%TF.CreationDate,2024-02-05T19:59:50-05:00*%
%TF.ProjectId,Digital D20,44696769-7461-46c2-9044-32302e6b6963,rev?*%
%TF.SameCoordinates,Original*%
%TF.FileFunction,Copper,L1,Top*%
%TF.FilePolarity,Positive*%
%FSLAX46Y46*%
G04 Gerber Fmt 4.6, Leading zero omitted, Abs format (unit mm)*
G04 Created by KiCad (PCBNEW 7.0.10) date 2024-02-05 19:59:50*
%MOMM*%
%LPD*%
G01*
G04 APERTURE LIST*
%TA.AperFunction,NonConductor*%
%ADD10C,0.000000*%
%TD*%
%TA.AperFunction,NonConductor*%
%ADD11C,1.000000*%
%TD*%
%TA.AperFunction,NonConductor*%
%ADD12C,0.250000*%
%TD*%
%TA.AperFunction,NonConductor*%
%ADD13C,0.700000*%
%TD*%
%ADD14C,0.750000*%
%TA.AperFunction,NonConductor*%
%ADD15C,0.750000*%
%TD*%
%TA.AperFunction,ComponentPad*%
%ADD16R,1.700000X1.700000*%
%TD*%
%TA.AperFunction,ComponentPad*%
%ADD17O,1.700000X1.700000*%
%TD*%
%TA.AperFunction,SMDPad,CuDef*%
%ADD18R,0.600000X1.400000*%
%TD*%
%TA.AperFunction,ViaPad*%
%ADD19C,0.800000*%
%TD*%
%TA.AperFunction,Conductor*%
%ADD20C,0.250000*%
%TD*%
G04 APERTURE END LIST*
D10*
%TA.AperFunction,NonConductor*%
G36*
X178505127Y-102889786D02*
G01*
X178551132Y-102942482D01*
X178562531Y-102994179D01*
X178562531Y-122048309D01*
X178542328Y-122115013D01*
X178489624Y-122161011D01*
X178436417Y-122171913D01*
X161500488Y-121923355D01*
X161433792Y-121902657D01*
X161388794Y-121848854D01*
X161379791Y-121779655D01*
X161394791Y-121737259D01*
X165082146Y-115305641D01*
X170694962Y-115305641D01*
X170696622Y-115416547D01*
X170701599Y-115523490D01*
X170709890Y-115626468D01*
X170721489Y-115725478D01*
X170728528Y-115773495D01*
X170736393Y-115820520D01*
X170745082Y-115866552D01*
X170754597Y-115911592D01*
X170764935Y-115955638D01*
X170776097Y-115998692D01*
X170788081Y-116040751D01*
X170800888Y-116081818D01*
X170826573Y-116160085D01*
X170854235Y-116236138D01*
X170883877Y-116309980D01*
X170915501Y-116381613D01*
X170949109Y-116451041D01*
X170984703Y-116518267D01*
X171003246Y-116551055D01*
X171022286Y-116583294D01*
X171041824Y-116614984D01*
X171061859Y-116646126D01*
X171102877Y-116705757D01*
X171144789Y-116764710D01*
X171187591Y-116822990D01*
X171231279Y-116880602D01*
X171275849Y-116937553D01*
X171321297Y-116993847D01*
X171367619Y-117049492D01*
X171414810Y-117104492D01*
X172099014Y-116526230D01*
X172039050Y-116450813D01*
X171982625Y-116376263D01*
X171929735Y-116302585D01*
X171880375Y-116229784D01*
X171834541Y-116157865D01*
X171792230Y-116086833D01*
X171753436Y-116016692D01*
X171718155Y-115947449D01*
X171701921Y-115913000D01*
X171686727Y-115878444D01*
X171672575Y-115843779D01*
X171659465Y-115809007D01*
X171647399Y-115774126D01*
X171636377Y-115739135D01*
X171626400Y-115704036D01*
X171617470Y-115668826D01*
X171609586Y-115633506D01*
X171602751Y-115598076D01*
X171596965Y-115562534D01*
X171592228Y-115526882D01*
X171588543Y-115491117D01*
X171585909Y-115455240D01*
X171584328Y-115419251D01*
X171583801Y-115383148D01*
X171584381Y-115348340D01*
X171586122Y-115314470D01*
X171589022Y-115281540D01*
X171593082Y-115249547D01*
X171598301Y-115218493D01*
X171604678Y-115188376D01*
X171612214Y-115159197D01*
X171620909Y-115130955D01*
X171630761Y-115103650D01*
X171641771Y-115077282D01*
X171653937Y-115051850D01*
X171667261Y-115027354D01*
X171681741Y-115003795D01*
X171697377Y-114981171D01*
X171714169Y-114959482D01*
X171732117Y-114938728D01*
X171751246Y-114918219D01*
X171771591Y-114899030D01*
X171793149Y-114881162D01*
X171815922Y-114864614D01*
X171839908Y-114849387D01*
X171865107Y-114835483D01*
X171891520Y-114822900D01*
X171919146Y-114811640D01*
X171947984Y-114801703D01*
X171978034Y-114793089D01*
X172009296Y-114785800D01*
X172041770Y-114779834D01*
X172075456Y-114775194D01*
X172110352Y-114771879D01*
X172146459Y-114769889D01*
X172183777Y-114769226D01*
X172214534Y-114769640D01*
X172245069Y-114770882D01*
X172275383Y-114772953D01*
X172305475Y-114775851D01*
X172335346Y-114779577D01*
X172364997Y-114784131D01*
X172394426Y-114789512D01*
X172423635Y-114795721D01*
X172452624Y-114802757D01*
X172481392Y-114810621D01*
X172509940Y-114819311D01*
X172538268Y-114828829D01*
X172566377Y-114839174D01*
X172594265Y-114850345D01*
X172621934Y-114862343D01*
X172649384Y-114875168D01*
X172703195Y-114903601D01*
X172758791Y-114935990D01*
X172816165Y-114972340D01*
X172875309Y-115012655D01*
X172936217Y-115056939D01*
X172998882Y-115105196D01*
X173063297Y-115157430D01*
X173129456Y-115213646D01*
X173268302Y-115339336D01*
X173423830Y-115483565D01*
X173596115Y-115646315D01*
X173785233Y-115827568D01*
X175062668Y-117090538D01*
X175803192Y-117090538D01*
X175803192Y-113569817D01*
X174907120Y-113569817D01*
X174907120Y-115764008D01*
X174858017Y-115764008D01*
X174250824Y-115114960D01*
X174149628Y-115005925D01*
X174050645Y-114901078D01*
X173953874Y-114800418D01*
X173859310Y-114703947D01*
X173766951Y-114611665D01*
X173676793Y-114523573D01*
X173588832Y-114439672D01*
X173503067Y-114359962D01*
X173460710Y-114320884D01*
X173418301Y-114283023D01*
X173375841Y-114246379D01*
X173333328Y-114210950D01*
X173290762Y-114176736D01*
X173248143Y-114143736D01*
X173205469Y-114111951D01*
X173162741Y-114081379D01*
X173119957Y-114052020D01*
X173077118Y-114023872D01*
X173034222Y-113996937D01*
X172991269Y-113971212D01*
X172948259Y-113946697D01*
X172905191Y-113923392D01*
X172862064Y-113901297D01*
X172818878Y-113880409D01*
X172775384Y-113859900D01*
X172731335Y-113840711D01*
X172686730Y-113822843D01*
X172641570Y-113806295D01*
X172595857Y-113791068D01*
X172549591Y-113777164D01*
X172502771Y-113764581D01*
X172455400Y-113753321D01*
X172407478Y-113743384D01*
X172359005Y-113734770D01*
X172309982Y-113727480D01*
X172260410Y-113721515D01*
X172210289Y-113716875D01*
X172159620Y-113713560D01*
X172108404Y-113711570D01*
X172056641Y-113710907D01*
X172008463Y-113711677D01*
X171960947Y-113713987D01*
X171914093Y-113717839D01*
X171867901Y-113723231D01*
X171822371Y-113730165D01*
X171777503Y-113738641D01*
X171733296Y-113748660D01*
X171689751Y-113760221D01*
X171646867Y-113773326D01*
X171604645Y-113787975D01*
X171563085Y-113804168D01*
X171522186Y-113821905D01*
X171481948Y-113841188D01*
X171442372Y-113862016D01*
X171403457Y-113884390D01*
X171365204Y-113908310D01*
X171326924Y-113932784D01*
X171289691Y-113958582D01*
X171253507Y-113985703D01*
X171218370Y-114014147D01*
X171184280Y-114043915D01*
X171151238Y-114075005D01*
X171119244Y-114107419D01*
X171088297Y-114141156D01*
X171058397Y-114176216D01*
X171029545Y-114212599D01*
X171001739Y-114250304D01*
X170974981Y-114289333D01*
X170949270Y-114329684D01*
X170924606Y-114371357D01*
X170900988Y-114414353D01*
X170878418Y-114458672D01*
X170856193Y-114503322D01*
X170835404Y-114549081D01*
X170816051Y-114595949D01*
X170798132Y-114643923D01*
X170781649Y-114693004D01*
X170766600Y-114743190D01*
X170752985Y-114794480D01*
X170740805Y-114846874D01*
X170730058Y-114900371D01*
X170720745Y-114954969D01*
X170712866Y-115010668D01*
X170706420Y-115067466D01*
X170701406Y-115125364D01*
X170697826Y-115184360D01*
X170695678Y-115244452D01*
X170694962Y-115305641D01*
X165082146Y-115305641D01*
X167363730Y-111326019D01*
X170688278Y-111326019D01*
X170689487Y-111405289D01*
X170693113Y-111482581D01*
X170699157Y-111557895D01*
X170707622Y-111631228D01*
X170718507Y-111702580D01*
X170731814Y-111771950D01*
X170747545Y-111839338D01*
X170765699Y-111904742D01*
X170786279Y-111968162D01*
X170809285Y-112029596D01*
X170834719Y-112089044D01*
X170862581Y-112146504D01*
X170892873Y-112201976D01*
X170925595Y-112255459D01*
X170960750Y-112306951D01*
X170998337Y-112356453D01*
X171038192Y-112404101D01*
X171080150Y-112450034D01*
X171124209Y-112494252D01*
X171170367Y-112536757D01*
X171218625Y-112577550D01*
X171268980Y-112616632D01*
X171321432Y-112654003D01*
X171375980Y-112689664D01*
X171432623Y-112723617D01*
X171491359Y-112755861D01*
X171552188Y-112786400D01*
X171615108Y-112815232D01*
X171680118Y-112842359D01*
X171747217Y-112867783D01*
X171816405Y-112891503D01*
X171887680Y-112913521D01*
X172036057Y-112953219D01*
X172191918Y-112987635D01*
X172355268Y-113016767D01*
X172526110Y-113040609D01*
X172704448Y-113059160D01*
X172890288Y-113072415D01*
X173083632Y-113080370D01*
X173284485Y-113083023D01*
X173434137Y-113081371D01*
X173579707Y-113076413D01*
X173721194Y-113068149D01*
X173858598Y-113056580D01*
X173991922Y-113041705D01*
X174121165Y-113023523D01*
X174246327Y-113002034D01*
X174367411Y-112977239D01*
X174484415Y-112949136D01*
X174597341Y-112917726D01*
X174706189Y-112883008D01*
X174810960Y-112844981D01*
X174911655Y-112803647D01*
X175008273Y-112759004D01*
X175100817Y-112711051D01*
X175189285Y-112659790D01*
X175272163Y-112604969D01*
X175349701Y-112546339D01*
X175421898Y-112483901D01*
X175488753Y-112417656D01*
X175550265Y-112347604D01*
X175606433Y-112273746D01*
X175657256Y-112196083D01*
X175702734Y-112114615D01*
X175742865Y-112029345D01*
X175777648Y-111940271D01*
X175807083Y-111847396D01*
X175831168Y-111750720D01*
X175849902Y-111650243D01*
X175863285Y-111545967D01*
X175871316Y-111437892D01*
X175873993Y-111326019D01*
X175872779Y-111245930D01*
X175869137Y-111167940D01*
X175863067Y-111092048D01*
X175854570Y-111018253D01*
X175843647Y-110946555D01*
X175830297Y-110876954D01*
X175814520Y-110809448D01*
X175796318Y-110744038D01*
X175775691Y-110680722D01*
X175752638Y-110619500D01*
X175727161Y-110560372D01*
X175699259Y-110503336D01*
X175668933Y-110448393D01*
X175636184Y-110395542D01*
X175601011Y-110344782D01*
X175563416Y-110296112D01*
X175523566Y-110248458D01*
X175481625Y-110202509D01*
X175437592Y-110158265D01*
X175391466Y-110115727D01*
X175343248Y-110074894D01*
X175292936Y-110035769D01*
X175240531Y-109998351D01*
X175186031Y-109962642D01*
X175129437Y-109928641D01*
X175070748Y-109896349D01*
X175009963Y-109865767D01*
X174947083Y-109836895D01*
X174882105Y-109809735D01*
X174815031Y-109784286D01*
X174745860Y-109760549D01*
X174674591Y-109738525D01*
X174526305Y-109697183D01*
X174370732Y-109661368D01*
X174207877Y-109631078D01*
X174037743Y-109606305D01*
X173860333Y-109587046D01*
X173675651Y-109573296D01*
X173483700Y-109565049D01*
X173284485Y-109562302D01*
X173284500Y-109562294D01*
X173133166Y-109563976D01*
X172986076Y-109569022D01*
X172843231Y-109577433D01*
X172704630Y-109589206D01*
X172570274Y-109604344D01*
X172440163Y-109622844D01*
X172314296Y-109644707D01*
X172192673Y-109669933D01*
X172075294Y-109698522D01*
X171962160Y-109730472D01*
X171853270Y-109765785D01*
X171748624Y-109804459D01*
X171648223Y-109846494D01*
X171552065Y-109891891D01*
X171460152Y-109940649D01*
X171372482Y-109992767D01*
X171289608Y-110048411D01*
X171212084Y-110107742D01*
X171139911Y-110170762D01*
X171073087Y-110237472D01*
X171011613Y-110307871D01*
X170955487Y-110381961D01*
X170904710Y-110459742D01*
X170859280Y-110541216D01*
X170819196Y-110626383D01*
X170784460Y-110715243D01*
X170755068Y-110807798D01*
X170731022Y-110904049D01*
X170712321Y-111003995D01*
X170698963Y-111107639D01*
X170690949Y-111214980D01*
X170688278Y-111326019D01*
X167363730Y-111326019D01*
X172176041Y-102932213D01*
X172226639Y-102884110D01*
X172284042Y-102870209D01*
X178438431Y-102870186D01*
X178505127Y-102889786D01*
G37*
%TD.AperFunction*%
D11*
X169403836Y-150020095D02*
X144524535Y-150042093D01*
D12*
X145120295Y-138928227D02*
X147660295Y-134528818D01*
D10*
%TA.AperFunction,NonConductor*%
G36*
X173494607Y-110623061D02*
G01*
X173691051Y-110630315D01*
X173873819Y-110642412D01*
X173960075Y-110650277D01*
X174042913Y-110659354D01*
X174122334Y-110669644D01*
X174198337Y-110681147D01*
X174270923Y-110693864D01*
X174340093Y-110707795D01*
X174405846Y-110722941D01*
X174468183Y-110739302D01*
X174527105Y-110756879D01*
X174582611Y-110775673D01*
X174634729Y-110796012D01*
X174683487Y-110818226D01*
X174728883Y-110842314D01*
X174770918Y-110868277D01*
X174809592Y-110896114D01*
X174827668Y-110910735D01*
X174844904Y-110925825D01*
X174861299Y-110941383D01*
X174876854Y-110957411D01*
X174891568Y-110973906D01*
X174905441Y-110990870D01*
X174918474Y-111008303D01*
X174930667Y-111026205D01*
X174942018Y-111044574D01*
X174952529Y-111063413D01*
X174962199Y-111082720D01*
X174971029Y-111102495D01*
X174979018Y-111122739D01*
X174986166Y-111143452D01*
X174992473Y-111164633D01*
X174997939Y-111186283D01*
X175002564Y-111208401D01*
X175006349Y-111230988D01*
X175011395Y-111277566D01*
X175013077Y-111326019D01*
X175011395Y-111375298D01*
X175009292Y-111399194D01*
X175006349Y-111422593D01*
X175002564Y-111445496D01*
X174997939Y-111467903D01*
X174992473Y-111489814D01*
X174986166Y-111511229D01*
X174979018Y-111532148D01*
X174971029Y-111552571D01*
X174962199Y-111572498D01*
X174952529Y-111591929D01*
X174942018Y-111610864D01*
X174930667Y-111629302D01*
X174918474Y-111647245D01*
X174905441Y-111664692D01*
X174891568Y-111681643D01*
X174876854Y-111698097D01*
X174861299Y-111714056D01*
X174844904Y-111729518D01*
X174827668Y-111744485D01*
X174809592Y-111758956D01*
X174790675Y-111772930D01*
X174770918Y-111786409D01*
X174728883Y-111811878D01*
X174683487Y-111835363D01*
X174634729Y-111856864D01*
X174582611Y-111876381D01*
X174526276Y-111894330D01*
X174466636Y-111911122D01*
X174337441Y-111941239D01*
X174195022Y-111966728D01*
X174039377Y-111987588D01*
X173870504Y-112003816D01*
X173688399Y-112015411D01*
X173493060Y-112022369D01*
X173284485Y-112024689D01*
X173075909Y-112022368D01*
X172880571Y-112015409D01*
X172698467Y-112003814D01*
X172612377Y-111996279D01*
X172529594Y-111987585D01*
X172450119Y-111977734D01*
X172373951Y-111966725D01*
X172301090Y-111954559D01*
X172231535Y-111941236D01*
X172165287Y-111926756D01*
X172102344Y-111911120D01*
X172042706Y-111894328D01*
X171986374Y-111876381D01*
X171933400Y-111856866D01*
X171883838Y-111835367D01*
X171837689Y-111811883D01*
X171794954Y-111786415D01*
X171755633Y-111758962D01*
X171737253Y-111744492D01*
X171719727Y-111729525D01*
X171703056Y-111714062D01*
X171687238Y-111698104D01*
X171672274Y-111681649D01*
X171658165Y-111664698D01*
X171644910Y-111647251D01*
X171632510Y-111629307D01*
X171620964Y-111610868D01*
X171610272Y-111591933D01*
X171600436Y-111572502D01*
X171591454Y-111552574D01*
X171583328Y-111532151D01*
X171576056Y-111511231D01*
X171569639Y-111489816D01*
X171564078Y-111467904D01*
X171559372Y-111445497D01*
X171555522Y-111422593D01*
X171552527Y-111399194D01*
X171550387Y-111375298D01*
X171548676Y-111326019D01*
X171550387Y-111277568D01*
X171552527Y-111254045D01*
X171555522Y-111230990D01*
X171559372Y-111208403D01*
X171564078Y-111186286D01*
X171569639Y-111164636D01*
X171576056Y-111143455D01*
X171583328Y-111122743D01*
X171591454Y-111102499D01*
X171600436Y-111082723D01*
X171610272Y-111063416D01*
X171620964Y-111044578D01*
X171632510Y-111026208D01*
X171644910Y-111008306D01*
X171658165Y-110990873D01*
X171672274Y-110973909D01*
X171687238Y-110957413D01*
X171703056Y-110941386D01*
X171719727Y-110925827D01*
X171737253Y-110910737D01*
X171755633Y-110896115D01*
X171774867Y-110881962D01*
X171794954Y-110868278D01*
X171837689Y-110842315D01*
X171883838Y-110818226D01*
X171933400Y-110796012D01*
X171986374Y-110775673D01*
X172042706Y-110756887D01*
X172102344Y-110739315D01*
X172231535Y-110707814D01*
X172373951Y-110681167D01*
X172529594Y-110659371D01*
X172698467Y-110642424D01*
X172880571Y-110630322D01*
X173075909Y-110623063D01*
X173284485Y-110620644D01*
X173494607Y-110623061D01*
G37*
%TD.AperFunction*%
D13*
X157048200Y-128930400D02*
X169494200Y-150487506D01*
D12*
X139700000Y-121920000D02*
X144780000Y-121920000D01*
D13*
X144779999Y-150487505D02*
X157226000Y-128930400D01*
D12*
X151720000Y-108720591D02*
X154260000Y-113120000D01*
X162560001Y-142738226D02*
X160020001Y-138338818D01*
D14*
D15*
X156845088Y-148383424D02*
X156454795Y-148278845D01*
X156454795Y-148278845D02*
X155921645Y-147926830D01*
X155921645Y-147926830D02*
X155207359Y-146689651D01*
X155207359Y-146689651D02*
X155169081Y-146051922D01*
X155169081Y-146051922D02*
X155273660Y-145661629D01*
X155273660Y-145661629D02*
X155625674Y-145128479D01*
X155625674Y-145128479D02*
X156120546Y-144842765D01*
X156120546Y-144842765D02*
X157005710Y-144661629D01*
X157005710Y-144661629D02*
X161689226Y-145916574D01*
X161689226Y-145916574D02*
X159832083Y-142699908D01*
X152778788Y-142483242D02*
X152493074Y-141988370D01*
X152493074Y-141988370D02*
X152454795Y-141350641D01*
X152454795Y-141350641D02*
X152559374Y-140960348D01*
X152559374Y-140960348D02*
X152911388Y-140427198D01*
X152911388Y-140427198D02*
X153758275Y-139608334D01*
X153758275Y-139608334D02*
X154995454Y-138894048D01*
X154995454Y-138894048D02*
X156128054Y-138570055D01*
X156128054Y-138570055D02*
X156765783Y-138531777D01*
X156765783Y-138531777D02*
X157156076Y-138636356D01*
X157156076Y-138636356D02*
X157689226Y-138988370D01*
X157689226Y-138988370D02*
X157974940Y-139483242D01*
X157974940Y-139483242D02*
X158013219Y-140120971D01*
X158013219Y-140120971D02*
X157908640Y-140511264D01*
X157908640Y-140511264D02*
X157556626Y-141044414D01*
X157556626Y-141044414D02*
X156709739Y-141863278D01*
X156709739Y-141863278D02*
X155472560Y-142577564D01*
X155472560Y-142577564D02*
X154339960Y-142901557D01*
X154339960Y-142901557D02*
X153702231Y-142939835D01*
X153702231Y-142939835D02*
X153311938Y-142835256D01*
X153311938Y-142835256D02*
X152778788Y-142483242D01*
D14*
D15*
X137668571Y-114148142D02*
X137954285Y-113862428D01*
X137954285Y-113862428D02*
X138525714Y-113576714D01*
X138525714Y-113576714D02*
X139954285Y-113576714D01*
X139954285Y-113576714D02*
X140525714Y-113862428D01*
X140525714Y-113862428D02*
X140811428Y-114148142D01*
X140811428Y-114148142D02*
X141097142Y-114719571D01*
X141097142Y-114719571D02*
X141097142Y-115291000D01*
X141097142Y-115291000D02*
X140811428Y-116148142D01*
X140811428Y-116148142D02*
X137382856Y-119576714D01*
X137382856Y-119576714D02*
X141097142Y-119576714D01*
X144811428Y-113576714D02*
X145382857Y-113576714D01*
X145382857Y-113576714D02*
X145954285Y-113862428D01*
X145954285Y-113862428D02*
X146240000Y-114148142D01*
X146240000Y-114148142D02*
X146525714Y-114719571D01*
X146525714Y-114719571D02*
X146811428Y-115862428D01*
X146811428Y-115862428D02*
X146811428Y-117291000D01*
X146811428Y-117291000D02*
X146525714Y-118433857D01*
X146525714Y-118433857D02*
X146240000Y-119005285D01*
X146240000Y-119005285D02*
X145954285Y-119291000D01*
X145954285Y-119291000D02*
X145382857Y-119576714D01*
X145382857Y-119576714D02*
X144811428Y-119576714D01*
X144811428Y-119576714D02*
X144240000Y-119291000D01*
X144240000Y-119291000D02*
X143954285Y-119005285D01*
X143954285Y-119005285D02*
X143668571Y-118433857D01*
X143668571Y-118433857D02*
X143382857Y-117291000D01*
X143382857Y-117291000D02*
X143382857Y-115862428D01*
X143382857Y-115862428D02*
X143668571Y-114719571D01*
X143668571Y-114719571D02*
X143954285Y-114148142D01*
X143954285Y-114148142D02*
X144240000Y-113862428D01*
X144240000Y-113862428D02*
X144811428Y-113576714D01*
D14*
D15*
X137373955Y-136801566D02*
X137269377Y-136411273D01*
X137269377Y-136411273D02*
X137307655Y-135773545D01*
X137307655Y-135773545D02*
X138021941Y-134536366D01*
X138021941Y-134536366D02*
X138555091Y-134184351D01*
X138555091Y-134184351D02*
X138945384Y-134079772D01*
X138945384Y-134079772D02*
X139583113Y-134118051D01*
X139583113Y-134118051D02*
X140077984Y-134403765D01*
X140077984Y-134403765D02*
X140677435Y-135079772D01*
X140677435Y-135079772D02*
X141932379Y-139763288D01*
X141932379Y-139763288D02*
X143789522Y-136546622D01*
X140450512Y-130329956D02*
X140736227Y-129835085D01*
X140736227Y-129835085D02*
X141269377Y-129483070D01*
X141269377Y-129483070D02*
X141659670Y-129378491D01*
X141659670Y-129378491D02*
X142297399Y-129416770D01*
X142297399Y-129416770D02*
X143429999Y-129740763D01*
X143429999Y-129740763D02*
X144667178Y-130455048D01*
X144667178Y-130455048D02*
X145514064Y-131273913D01*
X145514064Y-131273913D02*
X145866079Y-131807063D01*
X145866079Y-131807063D02*
X145970658Y-132197356D01*
X145970658Y-132197356D02*
X145932379Y-132835085D01*
X145932379Y-132835085D02*
X145646665Y-133329956D01*
X145646665Y-133329956D02*
X145113515Y-133681971D01*
X145113515Y-133681971D02*
X144723222Y-133786549D01*
X144723222Y-133786549D02*
X144085493Y-133748271D01*
X144085493Y-133748271D02*
X142952893Y-133424278D01*
X142952893Y-133424278D02*
X141715713Y-132709992D01*
X141715713Y-132709992D02*
X140868827Y-131891128D01*
X140868827Y-131891128D02*
X140516813Y-131357978D01*
X140516813Y-131357978D02*
X140412234Y-130967685D01*
X140412234Y-130967685D02*
X140450512Y-130329956D01*
D14*
D15*
X154447326Y-108760089D02*
X152733040Y-105790859D01*
X153590183Y-107275474D02*
X158786335Y-104275474D01*
X158786335Y-104275474D02*
X157758313Y-104209174D01*
X157758313Y-104209174D02*
X156977728Y-104000016D01*
X156977728Y-104000016D02*
X156444577Y-103648002D01*
X157304469Y-113708806D02*
X155590183Y-110739576D01*
X156447326Y-112224191D02*
X161643478Y-109224191D01*
X161643478Y-109224191D02*
X160615456Y-109157891D01*
X160615456Y-109157891D02*
X159834871Y-108948733D01*
X159834871Y-108948733D02*
X159301720Y-108596719D01*
D16*
%TO.P,REF\u002A\u002A,1*%
%TO.N,N/C*%
X177292000Y-131328000D03*
D17*
%TO.P,REF\u002A\u002A,2*%
X177292000Y-133868000D03*
%TO.P,REF\u002A\u002A,3*%
X177292000Y-136408000D03*
%TO.P,REF\u002A\u002A,4*%
X177292000Y-138948000D03*
%TD*%
D16*
%TO.P,REF\u002A\u002A,1*%
%TO.N,N/C*%
X168656000Y-131328000D03*
D17*
%TO.P,REF\u002A\u002A,2*%
X168656000Y-133868000D03*
%TO.P,REF\u002A\u002A,3*%
X168656000Y-136408000D03*
%TO.P,REF\u002A\u002A,4*%
X168656000Y-138948000D03*
%TD*%
D18*
%TO.P,REF\u002A\u002A,1*%
%TO.N,N/C*%
X171069000Y-138128000D03*
%TO.P,REF\u002A\u002A,2*%
X172339000Y-138128000D03*
%TO.P,REF\u002A\u002A,3*%
X173609000Y-138128000D03*
%TO.P,REF\u002A\u002A,4*%
X174879000Y-138128000D03*
%TO.P,REF\u002A\u002A,5*%
X174879000Y-132128000D03*
%TO.P,REF\u002A\u002A,6*%
X173609000Y-132128000D03*
%TO.P,REF\u002A\u002A,7*%
X172339000Y-132128000D03*
%TO.P,REF\u002A\u002A,8*%
X171069000Y-132128000D03*
%TD*%
D19*
%TO.N,*%
X156501531Y-112184649D03*
X153651531Y-107248304D03*
%TD*%
D20*
%TO.N,*%
X174996000Y-136408000D02*
X177292000Y-136408000D01*
X177292000Y-131577000D02*
X177292000Y-131328000D01*
X173609000Y-138128000D02*
X173609000Y-137795000D01*
X168656000Y-138684000D02*
X168656000Y-138948000D01*
X171069000Y-137800000D02*
X177292000Y-131577000D01*
X169662000Y-136408000D02*
X168656000Y-136408000D01*
X173609000Y-132128000D02*
X173609000Y-132461000D01*
X171069000Y-132128000D02*
X169456000Y-132128000D01*
X172339000Y-137795000D02*
X176266000Y-133868000D01*
X172339000Y-132128000D02*
X172339000Y-132461000D01*
X174879000Y-138128000D02*
X176472000Y-138128000D01*
X170932000Y-133868000D02*
X168656000Y-133868000D01*
X173609000Y-137795000D02*
X174996000Y-136408000D01*
X176266000Y-133868000D02*
X177292000Y-133868000D01*
X174879000Y-132128000D02*
X174879000Y-132461000D01*
X171069000Y-138128000D02*
X171069000Y-137800000D01*
X176472000Y-138128000D02*
X177292000Y-138948000D01*
X174879000Y-132461000D02*
X168656000Y-138684000D01*
X169456000Y-132128000D02*
X168656000Y-131328000D01*
X173609000Y-132461000D02*
X169662000Y-136408000D01*
X172339000Y-138128000D02*
X172339000Y-137795000D01*
X172339000Y-132461000D02*
X170932000Y-133868000D01*
%TD*%
M02*
