%TF.GenerationSoftware,KiCad,Pcbnew,7.0.10*%
%TF.CreationDate,2024-02-05T19:53:07-05:00*%
%TF.ProjectId,Digital D20,44696769-7461-46c2-9044-32302e6b6963,rev?*%
%TF.SameCoordinates,Original*%
%TF.FileFunction,Soldermask,Bot*%
%TF.FilePolarity,Negative*%
%FSLAX46Y46*%
G04 Gerber Fmt 4.6, Leading zero omitted, Abs format (unit mm)*
G04 Created by KiCad (PCBNEW 7.0.10) date 2024-02-05 19:53:07*
%MOMM*%
%LPD*%
G01*
G04 APERTURE LIST*
%ADD10C,0.100000*%
%ADD11R,1.700000X1.700000*%
%ADD12O,1.700000X1.700000*%
%ADD13C,0.500000*%
G04 APERTURE END LIST*
D10*
X129463800Y-100888800D02*
X179578000Y-100888800D01*
X179578000Y-150495000D01*
X129463800Y-150495000D01*
X129463800Y-100888800D01*
G36*
X129463800Y-100888800D02*
G01*
X179578000Y-100888800D01*
X179578000Y-150495000D01*
X129463800Y-150495000D01*
X129463800Y-100888800D01*
G37*
D11*
%TO.C,REF\u002A\u002A*%
X177292000Y-131328000D03*
D12*
X177292000Y-133868000D03*
X177292000Y-136408000D03*
X177292000Y-138948000D03*
%TD*%
D11*
%TO.C,REF\u002A\u002A*%
X168656000Y-131328000D03*
D12*
X168656000Y-133868000D03*
X168656000Y-136408000D03*
X168656000Y-138948000D03*
%TD*%
D13*
%TO.C,mouse-bite-2.54mm-slot*%
X164436930Y-140569164D03*
X166342186Y-139469164D03*
X164036930Y-139876343D03*
X165942186Y-138776343D03*
X163636930Y-139183523D03*
X165542186Y-138083523D03*
X163236930Y-138490703D03*
X165142186Y-137390703D03*
X162836930Y-137797882D03*
X164742186Y-136697882D03*
%TD*%
%TO.C,mouse-bite-2.54mm-slot*%
X162836929Y-113662118D03*
X164742185Y-114762118D03*
X163236929Y-112969297D03*
X165142185Y-114069297D03*
X163636929Y-112276477D03*
X165542185Y-113376477D03*
X164036929Y-111583657D03*
X165942185Y-112683657D03*
X164436929Y-110890836D03*
X166342185Y-111990836D03*
%TD*%
%TO.C,mouse-bite-2.54mm-slot*%
X149537224Y-114762118D03*
X151442480Y-113662118D03*
X149137224Y-114069297D03*
X151042480Y-112969297D03*
X148737224Y-113376477D03*
X150642480Y-112276477D03*
X148337224Y-112683657D03*
X150242480Y-111583657D03*
X147937224Y-111990836D03*
X149842480Y-110890836D03*
%TD*%
%TO.C,mouse-bite-2.54mm-slot*%
X147937224Y-139469163D03*
X149842480Y-140569163D03*
X148337224Y-138776342D03*
X150242480Y-139876342D03*
X148737224Y-138083522D03*
X150642480Y-139183522D03*
X149137224Y-137390702D03*
X151042480Y-138490702D03*
X149537224Y-136697881D03*
X151442480Y-137797881D03*
%TD*%
%TO.C,mouse-bite-2.54mm-slot*%
X143040000Y-126830000D03*
X141440000Y-126830000D03*
X141440000Y-124630000D03*
X143040000Y-124630000D03*
X142240000Y-126830000D03*
X142240000Y-124630000D03*
X143840000Y-124630000D03*
X140640000Y-124630000D03*
X140640000Y-126830000D03*
X143840000Y-126830000D03*
%TD*%
M02*
