%TF.GenerationSoftware,KiCad,Pcbnew,7.0.10*%
%TF.CreationDate,2024-02-07T22:14:31-05:00*%
%TF.ProjectId,Digital D20,44696769-7461-46c2-9044-32302e6b6963,rev?*%
%TF.SameCoordinates,Original*%
%TF.FileFunction,Soldermask,Top*%
%TF.FilePolarity,Negative*%
%FSLAX46Y46*%
G04 Gerber Fmt 4.6, Leading zero omitted, Abs format (unit mm)*
G04 Created by KiCad (PCBNEW 7.0.10) date 2024-02-07 22:14:31*
%MOMM*%
%LPD*%
G01*
G04 APERTURE LIST*
%ADD10C,0.750000*%
%ADD11C,1.000000*%
%ADD12C,1.500000*%
%ADD13R,1.700000X1.700000*%
%ADD14O,1.700000X1.700000*%
%ADD15R,0.600000X1.400000*%
G04 APERTURE END LIST*
D10*
X144780000Y-121920000D02*
X139700000Y-121920000D01*
X153379528Y-113629182D02*
X150839528Y-109229773D01*
X165307755Y-103809478D02*
X160908346Y-106349477D01*
X150499232Y-106100364D02*
X146099823Y-103560364D01*
D11*
X168523954Y-148496095D02*
X156255753Y-127246949D01*
D10*
X155919527Y-115488591D02*
X155919528Y-120568592D01*
D11*
X143809752Y-148804054D02*
X156255753Y-127246949D01*
D10*
X147660295Y-133512818D02*
X145120295Y-137912227D01*
X159140119Y-136814818D02*
X161680119Y-141214226D01*
D11*
X168523954Y-148496095D02*
X143644653Y-148518093D01*
D12*
X137340180Y-135766066D02*
X137235602Y-135375773D01*
X137235602Y-135375773D02*
X137273880Y-134738045D01*
X137273880Y-134738045D02*
X137988166Y-133500866D01*
X137988166Y-133500866D02*
X138521316Y-133148851D01*
X138521316Y-133148851D02*
X138911609Y-133044272D01*
X138911609Y-133044272D02*
X139549338Y-133082551D01*
X139549338Y-133082551D02*
X140044209Y-133368265D01*
X140044209Y-133368265D02*
X140643660Y-134044272D01*
X140643660Y-134044272D02*
X141898604Y-138727788D01*
X141898604Y-138727788D02*
X143755747Y-135511122D01*
X140416737Y-129294456D02*
X140702452Y-128799585D01*
X140702452Y-128799585D02*
X141235602Y-128447570D01*
X141235602Y-128447570D02*
X141625895Y-128342991D01*
X141625895Y-128342991D02*
X142263624Y-128381270D01*
X142263624Y-128381270D02*
X143396224Y-128705263D01*
X143396224Y-128705263D02*
X144633403Y-129419548D01*
X144633403Y-129419548D02*
X145480289Y-130238413D01*
X145480289Y-130238413D02*
X145832304Y-130771563D01*
X145832304Y-130771563D02*
X145936883Y-131161856D01*
X145936883Y-131161856D02*
X145898604Y-131799585D01*
X145898604Y-131799585D02*
X145612890Y-132294456D01*
X145612890Y-132294456D02*
X145079740Y-132646471D01*
X145079740Y-132646471D02*
X144689447Y-132751049D01*
X144689447Y-132751049D02*
X144051718Y-132712771D01*
X144051718Y-132712771D02*
X142919118Y-132388778D01*
X142919118Y-132388778D02*
X141681938Y-131674492D01*
X141681938Y-131674492D02*
X140835052Y-130855628D01*
X140835052Y-130855628D02*
X140483038Y-130322478D01*
X140483038Y-130322478D02*
X140378459Y-129932185D01*
X140378459Y-129932185D02*
X140416737Y-129294456D01*
X153601219Y-109248590D02*
X151886933Y-106279360D01*
X152744076Y-107763975D02*
X157940228Y-104763975D01*
X157940228Y-104763975D02*
X156912206Y-104697675D01*
X156912206Y-104697675D02*
X156131621Y-104488517D01*
X156131621Y-104488517D02*
X155598470Y-104136503D01*
X156458362Y-114197307D02*
X154744076Y-111228077D01*
X155601219Y-112712692D02*
X160797371Y-109712692D01*
X160797371Y-109712692D02*
X159769349Y-109646392D01*
X159769349Y-109646392D02*
X158988764Y-109437234D01*
X158988764Y-109437234D02*
X158455613Y-109085220D01*
X137668571Y-114109142D02*
X137954285Y-113823428D01*
X137954285Y-113823428D02*
X138525714Y-113537714D01*
X138525714Y-113537714D02*
X139954285Y-113537714D01*
X139954285Y-113537714D02*
X140525714Y-113823428D01*
X140525714Y-113823428D02*
X140811428Y-114109142D01*
X140811428Y-114109142D02*
X141097142Y-114680571D01*
X141097142Y-114680571D02*
X141097142Y-115252000D01*
X141097142Y-115252000D02*
X140811428Y-116109142D01*
X140811428Y-116109142D02*
X137382856Y-119537714D01*
X137382856Y-119537714D02*
X141097142Y-119537714D01*
X144811428Y-113537714D02*
X145382857Y-113537714D01*
X145382857Y-113537714D02*
X145954285Y-113823428D01*
X145954285Y-113823428D02*
X146240000Y-114109142D01*
X146240000Y-114109142D02*
X146525714Y-114680571D01*
X146525714Y-114680571D02*
X146811428Y-115823428D01*
X146811428Y-115823428D02*
X146811428Y-117252000D01*
X146811428Y-117252000D02*
X146525714Y-118394857D01*
X146525714Y-118394857D02*
X146240000Y-118966285D01*
X146240000Y-118966285D02*
X145954285Y-119252000D01*
X145954285Y-119252000D02*
X145382857Y-119537714D01*
X145382857Y-119537714D02*
X144811428Y-119537714D01*
X144811428Y-119537714D02*
X144240000Y-119252000D01*
X144240000Y-119252000D02*
X143954285Y-118966285D01*
X143954285Y-118966285D02*
X143668571Y-118394857D01*
X143668571Y-118394857D02*
X143382857Y-117252000D01*
X143382857Y-117252000D02*
X143382857Y-115823428D01*
X143382857Y-115823428D02*
X143668571Y-114680571D01*
X143668571Y-114680571D02*
X143954285Y-114109142D01*
X143954285Y-114109142D02*
X144240000Y-113823428D01*
X144240000Y-113823428D02*
X144811428Y-113537714D01*
X155931431Y-146878924D02*
X155541138Y-146774345D01*
X155541138Y-146774345D02*
X155007988Y-146422330D01*
X155007988Y-146422330D02*
X154293702Y-145185151D01*
X154293702Y-145185151D02*
X154255424Y-144547422D01*
X154255424Y-144547422D02*
X154360003Y-144157129D01*
X154360003Y-144157129D02*
X154712017Y-143623979D01*
X154712017Y-143623979D02*
X155206889Y-143338265D01*
X155206889Y-143338265D02*
X156092054Y-143157129D01*
X156092054Y-143157129D02*
X160775569Y-144412074D01*
X160775569Y-144412074D02*
X158918426Y-141195408D01*
X151865131Y-140978742D02*
X151579417Y-140483870D01*
X151579417Y-140483870D02*
X151541138Y-139846141D01*
X151541138Y-139846141D02*
X151645717Y-139455848D01*
X151645717Y-139455848D02*
X151997731Y-138922698D01*
X151997731Y-138922698D02*
X152844618Y-138103834D01*
X152844618Y-138103834D02*
X154081797Y-137389548D01*
X154081797Y-137389548D02*
X155214397Y-137065555D01*
X155214397Y-137065555D02*
X155852126Y-137027277D01*
X155852126Y-137027277D02*
X156242419Y-137131856D01*
X156242419Y-137131856D02*
X156775569Y-137483870D01*
X156775569Y-137483870D02*
X157061283Y-137978742D01*
X157061283Y-137978742D02*
X157099562Y-138616471D01*
X157099562Y-138616471D02*
X156994983Y-139006764D01*
X156994983Y-139006764D02*
X156642969Y-139539914D01*
X156642969Y-139539914D02*
X155796082Y-140358778D01*
X155796082Y-140358778D02*
X154558903Y-141073064D01*
X154558903Y-141073064D02*
X153426303Y-141397057D01*
X153426303Y-141397057D02*
X152788574Y-141435335D01*
X152788574Y-141435335D02*
X152398281Y-141330756D01*
X152398281Y-141330756D02*
X151865131Y-140978742D01*
%TO.C,G\u002A\u002A\u002A*%
G36*
X153215102Y-127138857D02*
G01*
X153270821Y-127208473D01*
X153339663Y-127326721D01*
X153399956Y-127445616D01*
X153432159Y-127512087D01*
X153459356Y-127570500D01*
X153486057Y-127631809D01*
X153516769Y-127706968D01*
X153556001Y-127806931D01*
X153608259Y-127942651D01*
X153657998Y-128072626D01*
X153706472Y-128196440D01*
X153748604Y-128298589D01*
X153779446Y-128367413D01*
X153793136Y-128391036D01*
X153802917Y-128423816D01*
X153814146Y-128499872D01*
X153825514Y-128603881D01*
X153835712Y-128720523D01*
X153843430Y-128834476D01*
X153847361Y-128930419D01*
X153846193Y-128993033D01*
X153845202Y-129000382D01*
X153839575Y-129055826D01*
X153834577Y-129145515D01*
X153832490Y-129206315D01*
X153827855Y-129313606D01*
X153820669Y-129409475D01*
X153816449Y-129445722D01*
X153806833Y-129568792D01*
X153813001Y-129679970D01*
X153833068Y-129762575D01*
X153855950Y-129795632D01*
X153911778Y-129818368D01*
X153996913Y-129837271D01*
X154022870Y-129840900D01*
X154107019Y-129854892D01*
X154166854Y-129871882D01*
X154176647Y-129876964D01*
X154223234Y-129893632D01*
X154302411Y-129909244D01*
X154330423Y-129913028D01*
X154416378Y-129928033D01*
X154479582Y-129947399D01*
X154490181Y-129953147D01*
X154542343Y-129971833D01*
X154622625Y-129984469D01*
X154635565Y-129985446D01*
X154740291Y-130003010D01*
X154840003Y-130035627D01*
X154840639Y-130035915D01*
X154918616Y-130061823D01*
X154981017Y-130067097D01*
X154985722Y-130066082D01*
X155046373Y-130067361D01*
X155121740Y-130088956D01*
X155215901Y-130114372D01*
X155309234Y-130122639D01*
X155389506Y-130132489D01*
X155476026Y-130171676D01*
X155553496Y-130222808D01*
X155624900Y-130278556D01*
X155684073Y-130339110D01*
X155741605Y-130418122D01*
X155808085Y-130529245D01*
X155850547Y-130605790D01*
X155916663Y-130729680D01*
X155974107Y-130842738D01*
X156015500Y-130930135D01*
X156031196Y-130968771D01*
X156091379Y-131063123D01*
X156196489Y-131138791D01*
X156333650Y-131187072D01*
X156362104Y-131192404D01*
X156450761Y-131211325D01*
X156518201Y-131233628D01*
X156531845Y-131240862D01*
X156577844Y-131261930D01*
X156663939Y-131293660D01*
X156773939Y-131330195D01*
X156809416Y-131341289D01*
X156925350Y-131379597D01*
X157019246Y-131419085D01*
X157109397Y-131469578D01*
X157214097Y-131540896D01*
X157302792Y-131606192D01*
X157425312Y-131700441D01*
X157506392Y-131770152D01*
X157553758Y-131822777D01*
X157575145Y-131865767D01*
X157576098Y-131869585D01*
X157607943Y-131944850D01*
X157652257Y-132008935D01*
X157706367Y-132089342D01*
X157738265Y-132161461D01*
X157765213Y-132227893D01*
X157790885Y-132264458D01*
X157810861Y-132293413D01*
X157853810Y-132364679D01*
X157914585Y-132469083D01*
X157988040Y-132597455D01*
X158069029Y-132740624D01*
X158152404Y-132889416D01*
X158233020Y-133034663D01*
X158305731Y-133167191D01*
X158365389Y-133277830D01*
X158406848Y-133357409D01*
X158422175Y-133389461D01*
X158489606Y-133511638D01*
X158576790Y-133625041D01*
X158582784Y-133631427D01*
X158635590Y-133669586D01*
X158690547Y-133659260D01*
X158705551Y-133650983D01*
X158743980Y-133618768D01*
X158777451Y-133564316D01*
X158812462Y-133474798D01*
X158842667Y-133380123D01*
X158880362Y-133264670D01*
X158917188Y-133166042D01*
X158946415Y-133101936D01*
X158951537Y-133093674D01*
X158980585Y-133035020D01*
X159013770Y-132943561D01*
X159033223Y-132877948D01*
X159067034Y-132766821D01*
X159105175Y-132662173D01*
X159124278Y-132618293D01*
X159147800Y-132537115D01*
X159143105Y-132440619D01*
X159108014Y-132320461D01*
X159040352Y-132168303D01*
X158973306Y-132039870D01*
X158916301Y-131934245D01*
X158868713Y-131844573D01*
X158838758Y-131786389D01*
X158834599Y-131777743D01*
X158810732Y-131731510D01*
X158766274Y-131649831D01*
X158709697Y-131548212D01*
X158693362Y-131519227D01*
X158635126Y-131414525D01*
X158587060Y-131325108D01*
X158557549Y-131266661D01*
X158553856Y-131258242D01*
X158522638Y-131195990D01*
X158490987Y-131143485D01*
X158449917Y-131074680D01*
X158427378Y-131029786D01*
X158402995Y-130982359D01*
X158357395Y-130901210D01*
X158299831Y-130802748D01*
X158291632Y-130788997D01*
X158233206Y-130689357D01*
X158185593Y-130604686D01*
X158158016Y-130551446D01*
X158156334Y-130547570D01*
X158120946Y-130480927D01*
X158102628Y-130453709D01*
X158074374Y-130408521D01*
X158027108Y-130325717D01*
X157968951Y-130219689D01*
X157939495Y-130164665D01*
X157875256Y-130048871D01*
X157813392Y-129946237D01*
X157763801Y-129872863D01*
X157748598Y-129854190D01*
X157705506Y-129797636D01*
X157688769Y-129756290D01*
X157677604Y-129716323D01*
X157646515Y-129639651D01*
X157601928Y-129541982D01*
X157596170Y-129529999D01*
X157543632Y-129404694D01*
X157528246Y-129319073D01*
X157550174Y-129267297D01*
X157604096Y-129244417D01*
X157648684Y-129256947D01*
X157689251Y-129314564D01*
X157729442Y-129378973D01*
X157763306Y-129416283D01*
X157793266Y-129452024D01*
X157841062Y-129523403D01*
X157896870Y-129614325D01*
X157950871Y-129708695D01*
X157993241Y-129790422D01*
X157998411Y-129801527D01*
X158027280Y-129857048D01*
X158070484Y-129932565D01*
X158077484Y-129944278D01*
X158158889Y-130080017D01*
X158241205Y-130218014D01*
X158311360Y-130336327D01*
X158332646Y-130372473D01*
X158372162Y-130437589D01*
X158431616Y-130533062D01*
X158499188Y-130639933D01*
X158509742Y-130656479D01*
X158577497Y-130763452D01*
X158638953Y-130862046D01*
X158682296Y-130933281D01*
X158686673Y-130940721D01*
X158783347Y-131104810D01*
X158859372Y-131230457D01*
X158912172Y-131313491D01*
X158939171Y-131349749D01*
X158940038Y-131350434D01*
X158962981Y-131380614D01*
X159004167Y-131445859D01*
X159039431Y-131505683D01*
X159103023Y-131615304D01*
X159169642Y-131728497D01*
X159196087Y-131772842D01*
X159242776Y-131851778D01*
X159308293Y-131964051D01*
X159382390Y-132092051D01*
X159428473Y-132172156D01*
X159494459Y-132285505D01*
X159550533Y-132378723D01*
X159589920Y-132440740D01*
X159604833Y-132460430D01*
X159620586Y-132495219D01*
X159636245Y-132564913D01*
X159639065Y-132582864D01*
X159643275Y-132637708D01*
X159635177Y-132690904D01*
X159609762Y-132755496D01*
X159562026Y-132844525D01*
X159495556Y-132956803D01*
X159425330Y-133079388D01*
X159365220Y-133195535D01*
X159323403Y-133288859D01*
X159310195Y-133328290D01*
X159282737Y-133411656D01*
X159237512Y-133520477D01*
X159193008Y-133613717D01*
X159137278Y-133738557D01*
X159112293Y-133843850D01*
X159110586Y-133940915D01*
X159119441Y-134028810D01*
X159132388Y-134089532D01*
X159140475Y-134104593D01*
X159158411Y-134139902D01*
X159186064Y-134221574D01*
X159220547Y-134338680D01*
X159258982Y-134480289D01*
X159298484Y-134635473D01*
X159336172Y-134793304D01*
X159369163Y-134942849D01*
X159391714Y-135057233D01*
X159437635Y-135327732D01*
X159482208Y-135623502D01*
X159521720Y-135918249D01*
X159552454Y-136185678D01*
X159555764Y-136218621D01*
X159572021Y-136345782D01*
X159593327Y-136461500D01*
X159615636Y-136544617D01*
X159620388Y-136556678D01*
X159654117Y-136620746D01*
X159695665Y-136649655D01*
X159760509Y-136662175D01*
X159841329Y-136667059D01*
X159934478Y-136659088D01*
X160052843Y-136636163D01*
X160209315Y-136596184D01*
X160270880Y-136579070D01*
X160400856Y-136544274D01*
X160534773Y-136511302D01*
X160624952Y-136491249D01*
X160744995Y-136458598D01*
X160866560Y-136413233D01*
X160907040Y-136394321D01*
X160984108Y-136352549D01*
X161023050Y-136318552D01*
X161038535Y-136274532D01*
X161043204Y-136229091D01*
X161055823Y-136149703D01*
X161075805Y-136093998D01*
X161076875Y-136092394D01*
X161095067Y-136043506D01*
X161113191Y-135959027D01*
X161121865Y-135900302D01*
X161138222Y-135803837D01*
X161159092Y-135727762D01*
X161171150Y-135702077D01*
X161193333Y-135644229D01*
X161213303Y-135547780D01*
X161228115Y-135432781D01*
X161234830Y-135319286D01*
X161234323Y-135271445D01*
X161231961Y-135185087D01*
X161232973Y-135096609D01*
X161237850Y-134984346D01*
X161242846Y-134896381D01*
X161248852Y-134793165D01*
X161253797Y-134704178D01*
X161255442Y-134672464D01*
X161263180Y-134594176D01*
X161277062Y-134502693D01*
X161277161Y-134502141D01*
X161286006Y-134425287D01*
X161283107Y-134372771D01*
X161282047Y-134369808D01*
X161278440Y-134323950D01*
X161284886Y-134244224D01*
X161290772Y-134203392D01*
X161308061Y-134082778D01*
X161322601Y-133956554D01*
X161324773Y-133933287D01*
X161345198Y-133724134D01*
X161367105Y-133541962D01*
X161389309Y-133394645D01*
X161410618Y-133290053D01*
X161429846Y-133236060D01*
X161430064Y-133235744D01*
X161472475Y-133208785D01*
X161516529Y-133227314D01*
X161575756Y-133304055D01*
X161597298Y-133412532D01*
X161582582Y-133520243D01*
X161569606Y-133608566D01*
X161577075Y-133685065D01*
X161578363Y-133688872D01*
X161590342Y-133750932D01*
X161583969Y-133782980D01*
X161574069Y-133823423D01*
X161564877Y-133906215D01*
X161558095Y-134015057D01*
X161557138Y-134039657D01*
X161552811Y-134156955D01*
X161548690Y-134256586D01*
X161545566Y-134319622D01*
X161545204Y-134325163D01*
X161538854Y-134468644D01*
X161536516Y-134646435D01*
X161538157Y-134834328D01*
X161543737Y-135008114D01*
X161546299Y-135055960D01*
X161547279Y-135104018D01*
X161547508Y-135190532D01*
X161547059Y-135279702D01*
X161550620Y-135405903D01*
X161561423Y-135532379D01*
X161571487Y-135600346D01*
X161584776Y-135701420D01*
X161586897Y-135792442D01*
X161584546Y-135815949D01*
X161573955Y-135896340D01*
X161569671Y-135948757D01*
X161562688Y-136001113D01*
X161545934Y-136092914D01*
X161522704Y-136206419D01*
X161516743Y-136233946D01*
X161499887Y-136318144D01*
X161490036Y-136394314D01*
X161487972Y-136473285D01*
X161494479Y-136565885D01*
X161510338Y-136682945D01*
X161536332Y-136835292D01*
X161573244Y-137033757D01*
X161575335Y-137044793D01*
X161614834Y-137250038D01*
X161656656Y-137461964D01*
X161697437Y-137663887D01*
X161733812Y-137839118D01*
X161758938Y-137955442D01*
X161798822Y-138158137D01*
X161831634Y-138371253D01*
X161856466Y-138583461D01*
X161872410Y-138783429D01*
X161878557Y-138959825D01*
X161873999Y-139101317D01*
X161858320Y-139195042D01*
X161839294Y-139273670D01*
X161822985Y-139370350D01*
X161821399Y-139382799D01*
X161808172Y-139462930D01*
X161792897Y-139517103D01*
X161789477Y-139523501D01*
X161783961Y-139565433D01*
X161790542Y-139642317D01*
X161797733Y-139685468D01*
X161823967Y-139821760D01*
X162127030Y-139995003D01*
X162256866Y-140067084D01*
X162378324Y-140130713D01*
X162476745Y-140178429D01*
X162532321Y-140201227D01*
X162593077Y-140228725D01*
X162690957Y-140282016D01*
X162814269Y-140354365D01*
X162951320Y-140439038D01*
X163007966Y-140475234D01*
X163159672Y-140574384D01*
X163272933Y-140652421D01*
X163359408Y-140718739D01*
X163430759Y-140782731D01*
X163498645Y-140853788D01*
X163548569Y-140910691D01*
X163629879Y-141000264D01*
X163702330Y-141071214D01*
X163754045Y-141112225D01*
X163765621Y-141117562D01*
X163822743Y-141104327D01*
X163873234Y-141041021D01*
X163912042Y-140936213D01*
X163930083Y-140838505D01*
X163947355Y-140740046D01*
X163970391Y-140660166D01*
X163983700Y-140632466D01*
X164010978Y-140561485D01*
X164015738Y-140513706D01*
X164036754Y-140397416D01*
X164098657Y-140284711D01*
X164187319Y-140199537D01*
X164208371Y-140187205D01*
X164285311Y-140142569D01*
X164384380Y-140079137D01*
X164458484Y-140028536D01*
X164612616Y-139919814D01*
X164643967Y-139763400D01*
X164658906Y-139663701D01*
X164662812Y-139579844D01*
X164659064Y-139547614D01*
X164652745Y-139489038D01*
X164659156Y-139464898D01*
X164670576Y-139413984D01*
X164672875Y-139311935D01*
X164666655Y-139165466D01*
X164652521Y-138981290D01*
X164631074Y-138766122D01*
X164602918Y-138526677D01*
X164568654Y-138269667D01*
X164528886Y-138001809D01*
X164526339Y-137985546D01*
X164500310Y-137815702D01*
X164476980Y-137655787D01*
X164458260Y-137519471D01*
X164446058Y-137420426D01*
X164442964Y-137388717D01*
X164434975Y-137291988D01*
X164426716Y-137210408D01*
X164415869Y-137126180D01*
X164400121Y-137021509D01*
X164377156Y-136878597D01*
X164374331Y-136861267D01*
X164354999Y-136734798D01*
X164347739Y-136651939D01*
X164353847Y-136598638D01*
X164374618Y-136560843D01*
X164404817Y-136530368D01*
X164449205Y-136482592D01*
X164519348Y-136398322D01*
X164606460Y-136288470D01*
X164701747Y-136163952D01*
X164725569Y-136132142D01*
X164972753Y-135800562D01*
X164940744Y-135530890D01*
X164925623Y-135416760D01*
X164902513Y-135258986D01*
X164873597Y-135071694D01*
X164841061Y-134869015D01*
X164807089Y-134665074D01*
X164804393Y-134649232D01*
X164774583Y-134465342D01*
X164750680Y-134299846D01*
X164733761Y-134161857D01*
X164724905Y-134060488D01*
X164725193Y-134004853D01*
X164727335Y-133998278D01*
X164742775Y-133945008D01*
X164745805Y-133863751D01*
X164744650Y-133847136D01*
X164746138Y-133761733D01*
X164771039Y-133729397D01*
X164815728Y-133745966D01*
X164829632Y-133779770D01*
X164851636Y-133862327D01*
X164879691Y-133984611D01*
X164911749Y-134137600D01*
X164945760Y-134312267D01*
X164952371Y-134347684D01*
X164988004Y-134533161D01*
X165023523Y-134705933D01*
X165056485Y-134855003D01*
X165084450Y-134969377D01*
X165104977Y-135038056D01*
X165106514Y-135041960D01*
X165144490Y-135150839D01*
X165174788Y-135264750D01*
X165176719Y-135274080D01*
X165194149Y-135353791D01*
X165214280Y-135420213D01*
X165244741Y-135493918D01*
X165293159Y-135595481D01*
X165304274Y-135618113D01*
X165336313Y-135690775D01*
X165343627Y-135746324D01*
X165324297Y-135807885D01*
X165281818Y-135888835D01*
X165222822Y-135997047D01*
X165154044Y-136125781D01*
X165102880Y-136223201D01*
X165042360Y-136335214D01*
X164964597Y-136473010D01*
X164883259Y-136612517D01*
X164855599Y-136658747D01*
X164704776Y-136908686D01*
X164744247Y-137115352D01*
X164771242Y-137252804D01*
X164803666Y-137412403D01*
X164833663Y-137555636D01*
X164890374Y-137858525D01*
X164939949Y-138198724D01*
X164979313Y-138555023D01*
X164980539Y-138568307D01*
X165000079Y-138774908D01*
X165018527Y-138953095D01*
X165039125Y-139132955D01*
X165057627Y-139284604D01*
X165067952Y-139388753D01*
X165078541Y-139530761D01*
X165087971Y-139689846D01*
X165093463Y-139808701D01*
X165098521Y-139957730D01*
X165098218Y-140062087D01*
X165090264Y-140135683D01*
X165072369Y-140192424D01*
X165042245Y-140246222D01*
X165014818Y-140286491D01*
X164924204Y-140393162D01*
X164824560Y-140459809D01*
X164807537Y-140467463D01*
X164701204Y-140537584D01*
X164597911Y-140647293D01*
X164510415Y-140778328D01*
X164451471Y-140912428D01*
X164433756Y-141002559D01*
X164422668Y-141090349D01*
X164403786Y-141156644D01*
X164397585Y-141167991D01*
X164377072Y-141225555D01*
X164368766Y-141304710D01*
X164362622Y-141393410D01*
X164348774Y-141463083D01*
X164338498Y-141538649D01*
X164343242Y-141579962D01*
X164341908Y-141646148D01*
X164329507Y-141674302D01*
X164313228Y-141719863D01*
X164293104Y-141808469D01*
X164272345Y-141924932D01*
X164262142Y-141993046D01*
X164241793Y-142124148D01*
X164220027Y-142241380D01*
X164200318Y-142326824D01*
X164192685Y-142351090D01*
X164171606Y-142441657D01*
X164167263Y-142522810D01*
X164163108Y-142599556D01*
X164146529Y-142651521D01*
X164128009Y-142709877D01*
X164127433Y-142749689D01*
X164127344Y-142809668D01*
X164120468Y-142905981D01*
X164109396Y-143008420D01*
X164098805Y-143130406D01*
X164096407Y-143247234D01*
X164101214Y-143319945D01*
X164111036Y-143375643D01*
X164128109Y-143416597D01*
X164163001Y-143453803D01*
X164226271Y-143498263D01*
X164328484Y-143560973D01*
X164338510Y-143567017D01*
X164475180Y-143642820D01*
X164628441Y-143717879D01*
X164766981Y-143776939D01*
X164777372Y-143780843D01*
X164895324Y-143828275D01*
X165002984Y-143878027D01*
X165078844Y-143920082D01*
X165084102Y-143923654D01*
X165172123Y-143972554D01*
X165276340Y-144014104D01*
X165296335Y-144020115D01*
X165392977Y-144052400D01*
X165510682Y-144098999D01*
X165588479Y-144133459D01*
X165704682Y-144184446D01*
X165823602Y-144231317D01*
X165888912Y-144254001D01*
X165982138Y-144290450D01*
X166099662Y-144345958D01*
X166215962Y-144408467D01*
X166315295Y-144467455D01*
X166374633Y-144509597D01*
X166405400Y-144546281D01*
X166419016Y-144588897D01*
X166422804Y-144614705D01*
X166430272Y-144693112D01*
X166439192Y-144815957D01*
X166448757Y-144969061D01*
X166458159Y-145138242D01*
X166466591Y-145309324D01*
X166473247Y-145468125D01*
X166475966Y-145548723D01*
X166481542Y-145672901D01*
X166489970Y-145790961D01*
X166498309Y-145868492D01*
X166508226Y-145961692D01*
X166516583Y-146081829D01*
X166520233Y-146164538D01*
X166527510Y-146308804D01*
X166543795Y-146411746D01*
X166576785Y-146490687D01*
X166634173Y-146562950D01*
X166723656Y-146645855D01*
X166740554Y-146660479D01*
X166839582Y-146751503D01*
X166932564Y-146846556D01*
X167000138Y-146925794D01*
X167002587Y-146929101D01*
X167078127Y-147013129D01*
X167185187Y-147108148D01*
X167279168Y-147179326D01*
X167381683Y-147254936D01*
X167437574Y-147306365D01*
X167451434Y-147338034D01*
X167449100Y-147343071D01*
X167410943Y-147364699D01*
X167333167Y-147391131D01*
X167247951Y-147413016D01*
X167132376Y-147441647D01*
X166988526Y-147481189D01*
X166843794Y-147524047D01*
X166815539Y-147532857D01*
X166562840Y-147612501D01*
X166410688Y-147488465D01*
X166324144Y-147410934D01*
X166251952Y-147333932D01*
X166214840Y-147282377D01*
X166168564Y-147217144D01*
X166095741Y-147136168D01*
X166039300Y-147081853D01*
X165960138Y-147004058D01*
X165895252Y-146928588D01*
X165867769Y-146887642D01*
X165853309Y-146833483D01*
X165838805Y-146732368D01*
X165825471Y-146595983D01*
X165814517Y-146436019D01*
X165809139Y-146322147D01*
X165798504Y-146081167D01*
X165785817Y-145873136D01*
X165769187Y-145676126D01*
X165746729Y-145468213D01*
X165716550Y-145227471D01*
X165711603Y-145189903D01*
X165687991Y-145011428D01*
X165545263Y-144957710D01*
X165456815Y-144918693D01*
X165337955Y-144858593D01*
X165208017Y-144787415D01*
X165141815Y-144748944D01*
X165017720Y-144679706D01*
X164897875Y-144620690D01*
X164799832Y-144580193D01*
X164760210Y-144568531D01*
X164660342Y-144537662D01*
X164570497Y-144494413D01*
X164558266Y-144486406D01*
X164484617Y-144446542D01*
X164381125Y-144404201D01*
X164306294Y-144379498D01*
X164177674Y-144334210D01*
X164041889Y-144275158D01*
X163980474Y-144243769D01*
X163858107Y-144184366D01*
X163720501Y-144129210D01*
X163655036Y-144107495D01*
X163481457Y-144040723D01*
X163362273Y-143957962D01*
X163294547Y-143855616D01*
X163275336Y-143730088D01*
X163283747Y-143653331D01*
X163297667Y-143569400D01*
X163306351Y-143504351D01*
X163306524Y-143502510D01*
X163331135Y-143281460D01*
X163351959Y-143144195D01*
X163361988Y-143055755D01*
X163361442Y-142983481D01*
X163360567Y-142977588D01*
X163365615Y-142908565D01*
X163379474Y-142877682D01*
X163397238Y-142823290D01*
X163405591Y-142739064D01*
X163405592Y-142712543D01*
X163407001Y-142630853D01*
X163414223Y-142575864D01*
X163417640Y-142567497D01*
X163426655Y-142525644D01*
X163427630Y-142454200D01*
X163427470Y-142451187D01*
X163432339Y-142371810D01*
X163451302Y-142314881D01*
X163471146Y-142256507D01*
X163476067Y-142184876D01*
X163482001Y-142088603D01*
X163498796Y-142007984D01*
X163509622Y-141948429D01*
X163493139Y-141898194D01*
X163441081Y-141836967D01*
X163421161Y-141817192D01*
X163337264Y-141727732D01*
X163251369Y-141625042D01*
X163224749Y-141590148D01*
X163166293Y-141528221D01*
X163065973Y-141440972D01*
X162931785Y-141333985D01*
X162771721Y-141212846D01*
X162593780Y-141083137D01*
X162405954Y-140950443D01*
X162216238Y-140820349D01*
X162032630Y-140698437D01*
X161863123Y-140590291D01*
X161715711Y-140501497D01*
X161598390Y-140437638D01*
X161533582Y-140408970D01*
X161415806Y-140360269D01*
X161301365Y-140302595D01*
X161237090Y-140263195D01*
X161164958Y-140206423D01*
X161130019Y-140153933D01*
X161117993Y-140081878D01*
X161117071Y-140062789D01*
X161119181Y-139977705D01*
X161129189Y-139858376D01*
X161145155Y-139718208D01*
X161165145Y-139570610D01*
X161187217Y-139428990D01*
X161209437Y-139306757D01*
X161229866Y-139217318D01*
X161245264Y-139175734D01*
X161264174Y-139127418D01*
X161287332Y-139039020D01*
X161311127Y-138928593D01*
X161331955Y-138814188D01*
X161346207Y-138713857D01*
X161350412Y-138649485D01*
X161338176Y-138564531D01*
X161308942Y-138453428D01*
X161278212Y-138364708D01*
X161242468Y-138267720D01*
X161214620Y-138175407D01*
X161192301Y-138075144D01*
X161173142Y-137954299D01*
X161154779Y-137800243D01*
X161134841Y-137600347D01*
X161134742Y-137599306D01*
X161119792Y-137460782D01*
X161103426Y-137340334D01*
X161087771Y-137252097D01*
X161076526Y-137212803D01*
X161052907Y-137171815D01*
X161024317Y-137140743D01*
X160984415Y-137119628D01*
X160926858Y-137108510D01*
X160845305Y-137107429D01*
X160733414Y-137116425D01*
X160584843Y-137135539D01*
X160393250Y-137164812D01*
X160152294Y-137204284D01*
X160062686Y-137219249D01*
X159836787Y-137256547D01*
X159622761Y-137290907D01*
X159429386Y-137320993D01*
X159265443Y-137345473D01*
X159139711Y-137363011D01*
X159060969Y-137372274D01*
X159050311Y-137373100D01*
X158902654Y-137382186D01*
X158315732Y-136958878D01*
X158133876Y-136827571D01*
X157993873Y-136725604D01*
X157889986Y-136648018D01*
X157816482Y-136589850D01*
X157767624Y-136546142D01*
X157737678Y-136511931D01*
X157720909Y-136482259D01*
X157711583Y-136452164D01*
X157707339Y-136432635D01*
X157685869Y-136329701D01*
X157777808Y-136340690D01*
X157821468Y-136351961D01*
X157881459Y-136379384D01*
X157964303Y-136426883D01*
X158076520Y-136498382D01*
X158224633Y-136597805D01*
X158361525Y-136691899D01*
X158527497Y-136806471D01*
X158652530Y-136891536D01*
X158743859Y-136951072D01*
X158808710Y-136989054D01*
X158854315Y-137009458D01*
X158887904Y-137016260D01*
X158916708Y-137013436D01*
X158936727Y-137008196D01*
X159024756Y-136964776D01*
X159074423Y-136891433D01*
X159089181Y-136780320D01*
X159081126Y-136679862D01*
X159066499Y-136562422D01*
X159049478Y-136414312D01*
X159033227Y-136263262D01*
X159029737Y-136229113D01*
X159000621Y-135971440D01*
X158967006Y-135726300D01*
X158930377Y-135501384D01*
X158892220Y-135304383D01*
X158854024Y-135142988D01*
X158817272Y-135024890D01*
X158784208Y-134958721D01*
X158736128Y-134886936D01*
X158709139Y-134825701D01*
X158707456Y-134816054D01*
X158689893Y-134761537D01*
X158676442Y-134745900D01*
X158651849Y-134713149D01*
X158607349Y-134640604D01*
X158550215Y-134540455D01*
X158511236Y-134469096D01*
X158449622Y-134357672D01*
X158395722Y-134266078D01*
X158356931Y-134206582D01*
X158343669Y-134191163D01*
X158315309Y-134150684D01*
X158287507Y-134081485D01*
X158287019Y-134079886D01*
X158258437Y-134009474D01*
X158227853Y-133966527D01*
X158227482Y-133966259D01*
X158196219Y-133929194D01*
X158150100Y-133858239D01*
X158116635Y-133800249D01*
X158068322Y-133717364D01*
X158027848Y-133656558D01*
X158010594Y-133636811D01*
X157983745Y-133602512D01*
X157939391Y-133532664D01*
X157887161Y-133443733D01*
X157836675Y-133352181D01*
X157797558Y-133274474D01*
X157793236Y-133264964D01*
X157761064Y-133204235D01*
X157729071Y-133152058D01*
X157688174Y-133082940D01*
X157665984Y-133037612D01*
X157645529Y-132995302D01*
X157602801Y-132912019D01*
X157543353Y-132798428D01*
X157472742Y-132665195D01*
X157444543Y-132612395D01*
X157371041Y-132474874D01*
X157306301Y-132353416D01*
X157255936Y-132258572D01*
X157225558Y-132200897D01*
X157220446Y-132190969D01*
X157194061Y-132140395D01*
X157151419Y-132060435D01*
X157123661Y-132008920D01*
X157049326Y-131871511D01*
X156861855Y-131820324D01*
X156749200Y-131784007D01*
X156647459Y-131741807D01*
X156589942Y-131710001D01*
X156503987Y-131667525D01*
X156400707Y-131638856D01*
X156382198Y-131636141D01*
X156294204Y-131619928D01*
X156227213Y-131597724D01*
X156215839Y-131591266D01*
X156160940Y-131568538D01*
X156075701Y-131548154D01*
X156044883Y-131543173D01*
X155927025Y-131516464D01*
X155847500Y-131467645D01*
X155793024Y-131384139D01*
X155754178Y-131268008D01*
X155725727Y-131172894D01*
X155699380Y-131102578D01*
X155683228Y-131075105D01*
X155658604Y-131037563D01*
X155633925Y-130973638D01*
X155593957Y-130888382D01*
X155543342Y-130818396D01*
X155496161Y-130752533D01*
X155474129Y-130693654D01*
X155444194Y-130634009D01*
X155376808Y-130576017D01*
X155291858Y-130533705D01*
X155228869Y-130520710D01*
X155147540Y-130506156D01*
X155057968Y-130476020D01*
X155056104Y-130475211D01*
X154956035Y-130443327D01*
X154853390Y-130426299D01*
X154769985Y-130413683D01*
X154708301Y-130392183D01*
X154704061Y-130389485D01*
X154649957Y-130366303D01*
X154564860Y-130343625D01*
X154530281Y-130336891D01*
X154322406Y-130299656D01*
X154169278Y-130269541D01*
X154067509Y-130245816D01*
X154013712Y-130227751D01*
X154007692Y-130224267D01*
X153958880Y-130207749D01*
X153881189Y-130196374D01*
X153870398Y-130195589D01*
X153710862Y-130165348D01*
X153594804Y-130096402D01*
X153520001Y-129986825D01*
X153487650Y-129863605D01*
X153478923Y-129774349D01*
X153473039Y-129661725D01*
X153470157Y-129541762D01*
X153470432Y-129430489D01*
X153474022Y-129343938D01*
X153481085Y-129298136D01*
X153482084Y-129296269D01*
X153489548Y-129257778D01*
X153494577Y-129179100D01*
X153495984Y-129096011D01*
X153495994Y-128982572D01*
X153496320Y-128879417D01*
X153496700Y-128827969D01*
X153494775Y-128744944D01*
X153489583Y-128686158D01*
X153489102Y-128631500D01*
X153494778Y-128614157D01*
X153504419Y-128562426D01*
X153498765Y-128467299D01*
X153480285Y-128341287D01*
X153451442Y-128196901D01*
X153414703Y-128046652D01*
X153372531Y-127903052D01*
X153332700Y-127791656D01*
X153307970Y-127729214D01*
X153272078Y-127637896D01*
X153250397Y-127582504D01*
X153214064Y-127496569D01*
X153182893Y-127434878D01*
X153169649Y-127416578D01*
X153140498Y-127368012D01*
X153120267Y-127290092D01*
X153112396Y-127207385D01*
X153120332Y-127144457D01*
X153129427Y-127129627D01*
X153169105Y-127113900D01*
X153215102Y-127138857D01*
G37*
G36*
X141446431Y-103895336D02*
G01*
X141532975Y-103972867D01*
X141605167Y-104049869D01*
X141642279Y-104101424D01*
X141688555Y-104166657D01*
X141761378Y-104247633D01*
X141817819Y-104301948D01*
X141896981Y-104379743D01*
X141961867Y-104455213D01*
X141989350Y-104496159D01*
X142003810Y-104550318D01*
X142018314Y-104651433D01*
X142031648Y-104787818D01*
X142042602Y-104947782D01*
X142047980Y-105061654D01*
X142058615Y-105302634D01*
X142071302Y-105510665D01*
X142087932Y-105707675D01*
X142110390Y-105915588D01*
X142140569Y-106156330D01*
X142145516Y-106193898D01*
X142169128Y-106372373D01*
X142311856Y-106426091D01*
X142400304Y-106465108D01*
X142519164Y-106525208D01*
X142649102Y-106596386D01*
X142715304Y-106634857D01*
X142839399Y-106704095D01*
X142959244Y-106763111D01*
X143057287Y-106803608D01*
X143096909Y-106815270D01*
X143196777Y-106846139D01*
X143286622Y-106889388D01*
X143298853Y-106897395D01*
X143372502Y-106937259D01*
X143475994Y-106979600D01*
X143550825Y-107004303D01*
X143679445Y-107049591D01*
X143815230Y-107108643D01*
X143876645Y-107140032D01*
X143999012Y-107199435D01*
X144136618Y-107254591D01*
X144202083Y-107276306D01*
X144375662Y-107343078D01*
X144494846Y-107425839D01*
X144562572Y-107528185D01*
X144581783Y-107653713D01*
X144573372Y-107730470D01*
X144559452Y-107814401D01*
X144550768Y-107879450D01*
X144550595Y-107881291D01*
X144525984Y-108102341D01*
X144505160Y-108239606D01*
X144495131Y-108328046D01*
X144495677Y-108400320D01*
X144496552Y-108406213D01*
X144491504Y-108475236D01*
X144477645Y-108506119D01*
X144459881Y-108560511D01*
X144451528Y-108644737D01*
X144451527Y-108671258D01*
X144450118Y-108752948D01*
X144442896Y-108807937D01*
X144439479Y-108816304D01*
X144430464Y-108858157D01*
X144429489Y-108929601D01*
X144429649Y-108932614D01*
X144424780Y-109011991D01*
X144405817Y-109068920D01*
X144385973Y-109127294D01*
X144381052Y-109198925D01*
X144375118Y-109295198D01*
X144358323Y-109375817D01*
X144347497Y-109435372D01*
X144363980Y-109485607D01*
X144416038Y-109546834D01*
X144435958Y-109566609D01*
X144519855Y-109656069D01*
X144605750Y-109758759D01*
X144632370Y-109793653D01*
X144690826Y-109855580D01*
X144791146Y-109942829D01*
X144925334Y-110049816D01*
X145085398Y-110170955D01*
X145263339Y-110300664D01*
X145451165Y-110433358D01*
X145640881Y-110563452D01*
X145824489Y-110685364D01*
X145993996Y-110793510D01*
X146141408Y-110882304D01*
X146258729Y-110946163D01*
X146323537Y-110974831D01*
X146441313Y-111023532D01*
X146555754Y-111081206D01*
X146620029Y-111120606D01*
X146692161Y-111177378D01*
X146727100Y-111229868D01*
X146739126Y-111301923D01*
X146740048Y-111321012D01*
X146737938Y-111406096D01*
X146727930Y-111525425D01*
X146711964Y-111665593D01*
X146691974Y-111813191D01*
X146669902Y-111954811D01*
X146647682Y-112077044D01*
X146627253Y-112166483D01*
X146611855Y-112208067D01*
X146592945Y-112256383D01*
X146569787Y-112344781D01*
X146545992Y-112455208D01*
X146525164Y-112569613D01*
X146510912Y-112669944D01*
X146506707Y-112734316D01*
X146518943Y-112819270D01*
X146548177Y-112930373D01*
X146578907Y-113019093D01*
X146614651Y-113116081D01*
X146642499Y-113208394D01*
X146664818Y-113308657D01*
X146683977Y-113429502D01*
X146702340Y-113583558D01*
X146722278Y-113783454D01*
X146722377Y-113784495D01*
X146737327Y-113923019D01*
X146753693Y-114043467D01*
X146769348Y-114131704D01*
X146780593Y-114170998D01*
X146804212Y-114211986D01*
X146832802Y-114243058D01*
X146872704Y-114264173D01*
X146930261Y-114275291D01*
X147011814Y-114276372D01*
X147123705Y-114267376D01*
X147272276Y-114248262D01*
X147463869Y-114218989D01*
X147704825Y-114179517D01*
X147794433Y-114164552D01*
X148020332Y-114127254D01*
X148234358Y-114092894D01*
X148427733Y-114062808D01*
X148591676Y-114038328D01*
X148717408Y-114020790D01*
X148796150Y-114011527D01*
X148806808Y-114010701D01*
X148954465Y-114001615D01*
X149541387Y-114424923D01*
X149723243Y-114556230D01*
X149863246Y-114658197D01*
X149967133Y-114735783D01*
X150040637Y-114793951D01*
X150089495Y-114837659D01*
X150119441Y-114871870D01*
X150136210Y-114901542D01*
X150145536Y-114931637D01*
X150149780Y-114951166D01*
X150171250Y-115054100D01*
X150079311Y-115043111D01*
X150035651Y-115031840D01*
X149975660Y-115004417D01*
X149892816Y-114956918D01*
X149780599Y-114885419D01*
X149632486Y-114785996D01*
X149495594Y-114691902D01*
X149329622Y-114577330D01*
X149204589Y-114492265D01*
X149113260Y-114432729D01*
X149048409Y-114394747D01*
X149002804Y-114374343D01*
X148969215Y-114367541D01*
X148940411Y-114370365D01*
X148920392Y-114375605D01*
X148832363Y-114419025D01*
X148782696Y-114492368D01*
X148767938Y-114603481D01*
X148775993Y-114703939D01*
X148790620Y-114821379D01*
X148807641Y-114969489D01*
X148823892Y-115120539D01*
X148827382Y-115154688D01*
X148856498Y-115412361D01*
X148890113Y-115657501D01*
X148926742Y-115882417D01*
X148964899Y-116079418D01*
X149003095Y-116240813D01*
X149039847Y-116358911D01*
X149072911Y-116425080D01*
X149120991Y-116496865D01*
X149147980Y-116558100D01*
X149149663Y-116567747D01*
X149167226Y-116622264D01*
X149180677Y-116637901D01*
X149205270Y-116670652D01*
X149249770Y-116743197D01*
X149306904Y-116843346D01*
X149345883Y-116914705D01*
X149407497Y-117026129D01*
X149461397Y-117117723D01*
X149500188Y-117177219D01*
X149513450Y-117192638D01*
X149541810Y-117233117D01*
X149569612Y-117302316D01*
X149570100Y-117303915D01*
X149598682Y-117374327D01*
X149629266Y-117417274D01*
X149629637Y-117417542D01*
X149660900Y-117454607D01*
X149707019Y-117525562D01*
X149740484Y-117583552D01*
X149788797Y-117666437D01*
X149829271Y-117727243D01*
X149846525Y-117746990D01*
X149873374Y-117781289D01*
X149917728Y-117851137D01*
X149969958Y-117940068D01*
X150020444Y-118031620D01*
X150059561Y-118109327D01*
X150063883Y-118118837D01*
X150096055Y-118179566D01*
X150128048Y-118231743D01*
X150168945Y-118300861D01*
X150191135Y-118346189D01*
X150211590Y-118388499D01*
X150254318Y-118471782D01*
X150313766Y-118585373D01*
X150384377Y-118718606D01*
X150412576Y-118771406D01*
X150486078Y-118908927D01*
X150550818Y-119030385D01*
X150601183Y-119125229D01*
X150631561Y-119182904D01*
X150636673Y-119192832D01*
X150663058Y-119243406D01*
X150705700Y-119323366D01*
X150733458Y-119374881D01*
X150807793Y-119512290D01*
X150995264Y-119563477D01*
X151107919Y-119599794D01*
X151209660Y-119641994D01*
X151267177Y-119673800D01*
X151353132Y-119716276D01*
X151456412Y-119744945D01*
X151474921Y-119747660D01*
X151562915Y-119763873D01*
X151629906Y-119786077D01*
X151641280Y-119792535D01*
X151696179Y-119815263D01*
X151781418Y-119835647D01*
X151812236Y-119840628D01*
X151930094Y-119867337D01*
X152009619Y-119916156D01*
X152064095Y-119999662D01*
X152102941Y-120115793D01*
X152131392Y-120210907D01*
X152157739Y-120281223D01*
X152173891Y-120308696D01*
X152198515Y-120346238D01*
X152223194Y-120410163D01*
X152263162Y-120495419D01*
X152313777Y-120565405D01*
X152360958Y-120631268D01*
X152382990Y-120690147D01*
X152412925Y-120749792D01*
X152480311Y-120807784D01*
X152565261Y-120850096D01*
X152628250Y-120863091D01*
X152709579Y-120877645D01*
X152799151Y-120907781D01*
X152801015Y-120908590D01*
X152901084Y-120940474D01*
X153003729Y-120957502D01*
X153087134Y-120970118D01*
X153148818Y-120991618D01*
X153153058Y-120994316D01*
X153207162Y-121017498D01*
X153292259Y-121040176D01*
X153326838Y-121046910D01*
X153534713Y-121084145D01*
X153687841Y-121114260D01*
X153789610Y-121137985D01*
X153843407Y-121156050D01*
X153849427Y-121159534D01*
X153898239Y-121176052D01*
X153975930Y-121187427D01*
X153986721Y-121188212D01*
X154146257Y-121218453D01*
X154262315Y-121287399D01*
X154337118Y-121396976D01*
X154369469Y-121520196D01*
X154378196Y-121609452D01*
X154384080Y-121722076D01*
X154386962Y-121842039D01*
X154386687Y-121953312D01*
X154383097Y-122039863D01*
X154376034Y-122085665D01*
X154375035Y-122087532D01*
X154367571Y-122126023D01*
X154362542Y-122204701D01*
X154361135Y-122287790D01*
X154361125Y-122401229D01*
X154360799Y-122504384D01*
X154360419Y-122555832D01*
X154362344Y-122638857D01*
X154367536Y-122697643D01*
X154368017Y-122752301D01*
X154362341Y-122769644D01*
X154352700Y-122821375D01*
X154358354Y-122916502D01*
X154376834Y-123042514D01*
X154405677Y-123186900D01*
X154442416Y-123337149D01*
X154484588Y-123480749D01*
X154524419Y-123592145D01*
X154549149Y-123654587D01*
X154585041Y-123745905D01*
X154606722Y-123801297D01*
X154643055Y-123887232D01*
X154674226Y-123948923D01*
X154687470Y-123967223D01*
X154716621Y-124015789D01*
X154736852Y-124093709D01*
X154744723Y-124176416D01*
X154736787Y-124239344D01*
X154727692Y-124254174D01*
X154688014Y-124269901D01*
X154642017Y-124244944D01*
X154586298Y-124175328D01*
X154517456Y-124057080D01*
X154457163Y-123938185D01*
X154424960Y-123871714D01*
X154397763Y-123813301D01*
X154371062Y-123751992D01*
X154340350Y-123676833D01*
X154301118Y-123576870D01*
X154248860Y-123441150D01*
X154199121Y-123311175D01*
X154150647Y-123187361D01*
X154108515Y-123085212D01*
X154077673Y-123016388D01*
X154063983Y-122992765D01*
X154054202Y-122959985D01*
X154042973Y-122883929D01*
X154031605Y-122779920D01*
X154021407Y-122663278D01*
X154013689Y-122549325D01*
X154009758Y-122453382D01*
X154010926Y-122390768D01*
X154011917Y-122383419D01*
X154017544Y-122327975D01*
X154022542Y-122238286D01*
X154024629Y-122177486D01*
X154029264Y-122070195D01*
X154036450Y-121974326D01*
X154040670Y-121938079D01*
X154050286Y-121815009D01*
X154044118Y-121703831D01*
X154024051Y-121621226D01*
X154001169Y-121588169D01*
X153945341Y-121565433D01*
X153860206Y-121546530D01*
X153834249Y-121542901D01*
X153750100Y-121528909D01*
X153690265Y-121511919D01*
X153680472Y-121506837D01*
X153633885Y-121490169D01*
X153554708Y-121474557D01*
X153526696Y-121470773D01*
X153440741Y-121455768D01*
X153377537Y-121436402D01*
X153366938Y-121430654D01*
X153314776Y-121411968D01*
X153234494Y-121399332D01*
X153221554Y-121398355D01*
X153116828Y-121380791D01*
X153017116Y-121348174D01*
X153016480Y-121347886D01*
X152938503Y-121321978D01*
X152876102Y-121316704D01*
X152871397Y-121317719D01*
X152810746Y-121316440D01*
X152735379Y-121294845D01*
X152641218Y-121269429D01*
X152547885Y-121261162D01*
X152467613Y-121251312D01*
X152381093Y-121212125D01*
X152303623Y-121160993D01*
X152232219Y-121105245D01*
X152173046Y-121044691D01*
X152115514Y-120965679D01*
X152049034Y-120854556D01*
X152006572Y-120778011D01*
X151940456Y-120654121D01*
X151883012Y-120541063D01*
X151841619Y-120453666D01*
X151825923Y-120415030D01*
X151765740Y-120320678D01*
X151660630Y-120245010D01*
X151523469Y-120196729D01*
X151495015Y-120191397D01*
X151406358Y-120172476D01*
X151338918Y-120150173D01*
X151325274Y-120142939D01*
X151279275Y-120121871D01*
X151193180Y-120090141D01*
X151083180Y-120053606D01*
X151047703Y-120042512D01*
X150931769Y-120004204D01*
X150837873Y-119964716D01*
X150747722Y-119914223D01*
X150643022Y-119842905D01*
X150554327Y-119777609D01*
X150431807Y-119683360D01*
X150350727Y-119613649D01*
X150303361Y-119561024D01*
X150281974Y-119518034D01*
X150281021Y-119514216D01*
X150249176Y-119438951D01*
X150204862Y-119374866D01*
X150150752Y-119294459D01*
X150118854Y-119222340D01*
X150091906Y-119155908D01*
X150066234Y-119119343D01*
X150046258Y-119090388D01*
X150003309Y-119019122D01*
X149942534Y-118914718D01*
X149869079Y-118786346D01*
X149788090Y-118643177D01*
X149704715Y-118494385D01*
X149624099Y-118349138D01*
X149551388Y-118216610D01*
X149491730Y-118105971D01*
X149450271Y-118026392D01*
X149434944Y-117994340D01*
X149367513Y-117872163D01*
X149280329Y-117758760D01*
X149274335Y-117752374D01*
X149221529Y-117714215D01*
X149166572Y-117724541D01*
X149151568Y-117732818D01*
X149113139Y-117765033D01*
X149079668Y-117819485D01*
X149044657Y-117909003D01*
X149014452Y-118003678D01*
X148976757Y-118119131D01*
X148939931Y-118217759D01*
X148910704Y-118281865D01*
X148905582Y-118290127D01*
X148876534Y-118348781D01*
X148843349Y-118440240D01*
X148823896Y-118505853D01*
X148790085Y-118616980D01*
X148751944Y-118721628D01*
X148732841Y-118765508D01*
X148709319Y-118846686D01*
X148714014Y-118943182D01*
X148749105Y-119063340D01*
X148816767Y-119215498D01*
X148883813Y-119343931D01*
X148940818Y-119449556D01*
X148988406Y-119539228D01*
X149018361Y-119597412D01*
X149022520Y-119606058D01*
X149046387Y-119652291D01*
X149090845Y-119733970D01*
X149147422Y-119835589D01*
X149163757Y-119864574D01*
X149221993Y-119969276D01*
X149270059Y-120058693D01*
X149299570Y-120117140D01*
X149303263Y-120125559D01*
X149334481Y-120187811D01*
X149366132Y-120240316D01*
X149407202Y-120309121D01*
X149429741Y-120354015D01*
X149454124Y-120401442D01*
X149499724Y-120482591D01*
X149557288Y-120581053D01*
X149565487Y-120594804D01*
X149623913Y-120694444D01*
X149671526Y-120779115D01*
X149699103Y-120832355D01*
X149700785Y-120836231D01*
X149736173Y-120902874D01*
X149754491Y-120930092D01*
X149782745Y-120975280D01*
X149830011Y-121058084D01*
X149888168Y-121164112D01*
X149917624Y-121219136D01*
X149981863Y-121334930D01*
X150043727Y-121437564D01*
X150093318Y-121510938D01*
X150108521Y-121529611D01*
X150151613Y-121586165D01*
X150168350Y-121627511D01*
X150179515Y-121667478D01*
X150210604Y-121744150D01*
X150255191Y-121841819D01*
X150260949Y-121853802D01*
X150313487Y-121979107D01*
X150328873Y-122064728D01*
X150306945Y-122116504D01*
X150253023Y-122139384D01*
X150208435Y-122126854D01*
X150167868Y-122069237D01*
X150127677Y-122004828D01*
X150093813Y-121967518D01*
X150063853Y-121931777D01*
X150016057Y-121860398D01*
X149960249Y-121769476D01*
X149906248Y-121675106D01*
X149863878Y-121593379D01*
X149858708Y-121582274D01*
X149829839Y-121526753D01*
X149786635Y-121451236D01*
X149779635Y-121439523D01*
X149698230Y-121303784D01*
X149615914Y-121165787D01*
X149545759Y-121047474D01*
X149524473Y-121011328D01*
X149484957Y-120946212D01*
X149425503Y-120850739D01*
X149357931Y-120743868D01*
X149347377Y-120727322D01*
X149279622Y-120620349D01*
X149218166Y-120521755D01*
X149174823Y-120450520D01*
X149170446Y-120443080D01*
X149073772Y-120278991D01*
X148997747Y-120153344D01*
X148944947Y-120070310D01*
X148917948Y-120034052D01*
X148917081Y-120033367D01*
X148894138Y-120003187D01*
X148852952Y-119937942D01*
X148817688Y-119878118D01*
X148754096Y-119768497D01*
X148687477Y-119655304D01*
X148661032Y-119610959D01*
X148614343Y-119532023D01*
X148548826Y-119419750D01*
X148474729Y-119291750D01*
X148428646Y-119211645D01*
X148362660Y-119098296D01*
X148306586Y-119005078D01*
X148267199Y-118943061D01*
X148252286Y-118923371D01*
X148236533Y-118888582D01*
X148220874Y-118818888D01*
X148218054Y-118800937D01*
X148213844Y-118746093D01*
X148221942Y-118692897D01*
X148247357Y-118628305D01*
X148295093Y-118539276D01*
X148361563Y-118426998D01*
X148431789Y-118304413D01*
X148491899Y-118188266D01*
X148533716Y-118094942D01*
X148546924Y-118055511D01*
X148574382Y-117972145D01*
X148619607Y-117863324D01*
X148664111Y-117770084D01*
X148719841Y-117645244D01*
X148744826Y-117539951D01*
X148746533Y-117442886D01*
X148737678Y-117354991D01*
X148724731Y-117294269D01*
X148716644Y-117279208D01*
X148698708Y-117243899D01*
X148671055Y-117162227D01*
X148636572Y-117045121D01*
X148598137Y-116903512D01*
X148558635Y-116748328D01*
X148520947Y-116590497D01*
X148487956Y-116440952D01*
X148465405Y-116326568D01*
X148419484Y-116056069D01*
X148374911Y-115760299D01*
X148335399Y-115465552D01*
X148304665Y-115198123D01*
X148301355Y-115165180D01*
X148285098Y-115038019D01*
X148263792Y-114922301D01*
X148241483Y-114839184D01*
X148236731Y-114827123D01*
X148203002Y-114763055D01*
X148161454Y-114734146D01*
X148096610Y-114721626D01*
X148015790Y-114716742D01*
X147922641Y-114724713D01*
X147804276Y-114747638D01*
X147647804Y-114787617D01*
X147586239Y-114804731D01*
X147456263Y-114839527D01*
X147322346Y-114872499D01*
X147232167Y-114892552D01*
X147112124Y-114925203D01*
X146990559Y-114970568D01*
X146950079Y-114989480D01*
X146873011Y-115031252D01*
X146834069Y-115065249D01*
X146818584Y-115109269D01*
X146813915Y-115154710D01*
X146801296Y-115234098D01*
X146781314Y-115289803D01*
X146780244Y-115291407D01*
X146762052Y-115340295D01*
X146743928Y-115424774D01*
X146735254Y-115483499D01*
X146718897Y-115579964D01*
X146698027Y-115656039D01*
X146685969Y-115681724D01*
X146663786Y-115739572D01*
X146643816Y-115836021D01*
X146629004Y-115951020D01*
X146622289Y-116064515D01*
X146622796Y-116112356D01*
X146625158Y-116198714D01*
X146624146Y-116287192D01*
X146619269Y-116399455D01*
X146614273Y-116487420D01*
X146608267Y-116590636D01*
X146603322Y-116679623D01*
X146601677Y-116711337D01*
X146593939Y-116789625D01*
X146580057Y-116881108D01*
X146579958Y-116881660D01*
X146571113Y-116958514D01*
X146574012Y-117011030D01*
X146575072Y-117013993D01*
X146578679Y-117059851D01*
X146572233Y-117139577D01*
X146566347Y-117180409D01*
X146549058Y-117301023D01*
X146534518Y-117427247D01*
X146532346Y-117450514D01*
X146511921Y-117659667D01*
X146490014Y-117841839D01*
X146467810Y-117989156D01*
X146446501Y-118093748D01*
X146427273Y-118147741D01*
X146427055Y-118148057D01*
X146384644Y-118175016D01*
X146340590Y-118156487D01*
X146281363Y-118079746D01*
X146259821Y-117971269D01*
X146274537Y-117863558D01*
X146287513Y-117775235D01*
X146280044Y-117698736D01*
X146278756Y-117694929D01*
X146266777Y-117632869D01*
X146273150Y-117600821D01*
X146283050Y-117560378D01*
X146292242Y-117477586D01*
X146299024Y-117368744D01*
X146299981Y-117344144D01*
X146304308Y-117226846D01*
X146308429Y-117127215D01*
X146311553Y-117064179D01*
X146311915Y-117058638D01*
X146318265Y-116915157D01*
X146320603Y-116737366D01*
X146318962Y-116549473D01*
X146313382Y-116375687D01*
X146310820Y-116327841D01*
X146309840Y-116279783D01*
X146309611Y-116193269D01*
X146310060Y-116104099D01*
X146306499Y-115977898D01*
X146295696Y-115851422D01*
X146285632Y-115783455D01*
X146272343Y-115682381D01*
X146270222Y-115591359D01*
X146272573Y-115567852D01*
X146283164Y-115487461D01*
X146287448Y-115435044D01*
X146294431Y-115382688D01*
X146311185Y-115290887D01*
X146334415Y-115177382D01*
X146340376Y-115149855D01*
X146357232Y-115065657D01*
X146367083Y-114989487D01*
X146369147Y-114910516D01*
X146362640Y-114817916D01*
X146346781Y-114700856D01*
X146320787Y-114548509D01*
X146283875Y-114350044D01*
X146281784Y-114339008D01*
X146242285Y-114133763D01*
X146200463Y-113921837D01*
X146159682Y-113719914D01*
X146123307Y-113544683D01*
X146098181Y-113428359D01*
X146058297Y-113225664D01*
X146025485Y-113012548D01*
X146000653Y-112800340D01*
X145984709Y-112600372D01*
X145978562Y-112423976D01*
X145983120Y-112282484D01*
X145998799Y-112188759D01*
X146017825Y-112110131D01*
X146034134Y-112013451D01*
X146035720Y-112001002D01*
X146048947Y-111920871D01*
X146064222Y-111866698D01*
X146067642Y-111860300D01*
X146073158Y-111818368D01*
X146066577Y-111741484D01*
X146059386Y-111698333D01*
X146033152Y-111562041D01*
X145730089Y-111388798D01*
X145600253Y-111316717D01*
X145478795Y-111253088D01*
X145380374Y-111205372D01*
X145324798Y-111182574D01*
X145264042Y-111155076D01*
X145166162Y-111101785D01*
X145042850Y-111029436D01*
X144905799Y-110944763D01*
X144849153Y-110908567D01*
X144697447Y-110809417D01*
X144584186Y-110731380D01*
X144497711Y-110665062D01*
X144426360Y-110601070D01*
X144358474Y-110530013D01*
X144308550Y-110473110D01*
X144227240Y-110383537D01*
X144154789Y-110312587D01*
X144103074Y-110271576D01*
X144091498Y-110266239D01*
X144034376Y-110279474D01*
X143983885Y-110342780D01*
X143945077Y-110447588D01*
X143927036Y-110545296D01*
X143909764Y-110643755D01*
X143886728Y-110723635D01*
X143873419Y-110751335D01*
X143846141Y-110822316D01*
X143841381Y-110870095D01*
X143820365Y-110986385D01*
X143758462Y-111099090D01*
X143669800Y-111184264D01*
X143648748Y-111196596D01*
X143571808Y-111241232D01*
X143472739Y-111304664D01*
X143398635Y-111355265D01*
X143244503Y-111463987D01*
X143213152Y-111620401D01*
X143198213Y-111720100D01*
X143194307Y-111803957D01*
X143198055Y-111836187D01*
X143204374Y-111894763D01*
X143197963Y-111918903D01*
X143186543Y-111969817D01*
X143184244Y-112071866D01*
X143190464Y-112218335D01*
X143204598Y-112402511D01*
X143226045Y-112617679D01*
X143254201Y-112857124D01*
X143288465Y-113114134D01*
X143328233Y-113381992D01*
X143330780Y-113398255D01*
X143356809Y-113568099D01*
X143380139Y-113728014D01*
X143398859Y-113864330D01*
X143411061Y-113963375D01*
X143414155Y-113995084D01*
X143422144Y-114091813D01*
X143430403Y-114173393D01*
X143441250Y-114257621D01*
X143456998Y-114362292D01*
X143479963Y-114505204D01*
X143482788Y-114522534D01*
X143502120Y-114649003D01*
X143509380Y-114731862D01*
X143503272Y-114785163D01*
X143482501Y-114822958D01*
X143452302Y-114853433D01*
X143407914Y-114901209D01*
X143337771Y-114985479D01*
X143250659Y-115095331D01*
X143155372Y-115219849D01*
X143131550Y-115251659D01*
X142884366Y-115583239D01*
X142916375Y-115852911D01*
X142931496Y-115967041D01*
X142954606Y-116124815D01*
X142983522Y-116312107D01*
X143016058Y-116514786D01*
X143050030Y-116718727D01*
X143052726Y-116734569D01*
X143082536Y-116918459D01*
X143106439Y-117083955D01*
X143123358Y-117221944D01*
X143132214Y-117323313D01*
X143131926Y-117378948D01*
X143129784Y-117385523D01*
X143114344Y-117438793D01*
X143111314Y-117520050D01*
X143112469Y-117536665D01*
X143110981Y-117622068D01*
X143086080Y-117654404D01*
X143041391Y-117637835D01*
X143027487Y-117604031D01*
X143005483Y-117521474D01*
X142977428Y-117399190D01*
X142945370Y-117246201D01*
X142911359Y-117071534D01*
X142904748Y-117036117D01*
X142869115Y-116850640D01*
X142833596Y-116677868D01*
X142800634Y-116528798D01*
X142772669Y-116414424D01*
X142752142Y-116345745D01*
X142750605Y-116341841D01*
X142712629Y-116232962D01*
X142682331Y-116119051D01*
X142680400Y-116109721D01*
X142662970Y-116030010D01*
X142642839Y-115963588D01*
X142612378Y-115889883D01*
X142563960Y-115788320D01*
X142552845Y-115765688D01*
X142520806Y-115693026D01*
X142513492Y-115637477D01*
X142532822Y-115575916D01*
X142575301Y-115494966D01*
X142634297Y-115386754D01*
X142703075Y-115258020D01*
X142754239Y-115160600D01*
X142814759Y-115048587D01*
X142892522Y-114910791D01*
X142973860Y-114771284D01*
X143001520Y-114725054D01*
X143152343Y-114475115D01*
X143112872Y-114268449D01*
X143085877Y-114130997D01*
X143053453Y-113971398D01*
X143023456Y-113828165D01*
X142966745Y-113525276D01*
X142917170Y-113185077D01*
X142877806Y-112828778D01*
X142876580Y-112815494D01*
X142857040Y-112608893D01*
X142838592Y-112430706D01*
X142817994Y-112250846D01*
X142799492Y-112099197D01*
X142789167Y-111995048D01*
X142778578Y-111853040D01*
X142769148Y-111693955D01*
X142763656Y-111575100D01*
X142758598Y-111426071D01*
X142758901Y-111321714D01*
X142766855Y-111248118D01*
X142784750Y-111191377D01*
X142814874Y-111137579D01*
X142842301Y-111097310D01*
X142932915Y-110990639D01*
X143032559Y-110923992D01*
X143049582Y-110916338D01*
X143155915Y-110846217D01*
X143259208Y-110736508D01*
X143346704Y-110605473D01*
X143405648Y-110471373D01*
X143423363Y-110381242D01*
X143434451Y-110293452D01*
X143453333Y-110227157D01*
X143459534Y-110215810D01*
X143480047Y-110158246D01*
X143488353Y-110079091D01*
X143494497Y-109990391D01*
X143508345Y-109920718D01*
X143518621Y-109845152D01*
X143513877Y-109803839D01*
X143515211Y-109737653D01*
X143527612Y-109709499D01*
X143543891Y-109663938D01*
X143564015Y-109575332D01*
X143584774Y-109458869D01*
X143594977Y-109390755D01*
X143615326Y-109259653D01*
X143637092Y-109142421D01*
X143656801Y-109056977D01*
X143664434Y-109032711D01*
X143685513Y-108942144D01*
X143689856Y-108860991D01*
X143694011Y-108784245D01*
X143710590Y-108732280D01*
X143729110Y-108673924D01*
X143729686Y-108634112D01*
X143729775Y-108574133D01*
X143736651Y-108477820D01*
X143747723Y-108375381D01*
X143758314Y-108253395D01*
X143760712Y-108136567D01*
X143755905Y-108063856D01*
X143746083Y-108008158D01*
X143729010Y-107967204D01*
X143694118Y-107929998D01*
X143630848Y-107885538D01*
X143528635Y-107822828D01*
X143518609Y-107816784D01*
X143381939Y-107740981D01*
X143228678Y-107665922D01*
X143090138Y-107606862D01*
X143079747Y-107602958D01*
X142961795Y-107555526D01*
X142854135Y-107505774D01*
X142778275Y-107463719D01*
X142773017Y-107460147D01*
X142684996Y-107411247D01*
X142580779Y-107369697D01*
X142560784Y-107363686D01*
X142464142Y-107331401D01*
X142346437Y-107284802D01*
X142268640Y-107250342D01*
X142152437Y-107199355D01*
X142033517Y-107152484D01*
X141968207Y-107129800D01*
X141874981Y-107093351D01*
X141757457Y-107037843D01*
X141641157Y-106975334D01*
X141541824Y-106916346D01*
X141482486Y-106874204D01*
X141451719Y-106837520D01*
X141438103Y-106794904D01*
X141434315Y-106769096D01*
X141426847Y-106690689D01*
X141417927Y-106567844D01*
X141408362Y-106414740D01*
X141398960Y-106245559D01*
X141390528Y-106074477D01*
X141383872Y-105915676D01*
X141381153Y-105835078D01*
X141375577Y-105710900D01*
X141367149Y-105592840D01*
X141358810Y-105515309D01*
X141348893Y-105422109D01*
X141340536Y-105301972D01*
X141336886Y-105219263D01*
X141329609Y-105074997D01*
X141313324Y-104972055D01*
X141280334Y-104893114D01*
X141222946Y-104820851D01*
X141133463Y-104737946D01*
X141116565Y-104723322D01*
X141017537Y-104632298D01*
X140924555Y-104537245D01*
X140856981Y-104458007D01*
X140854532Y-104454700D01*
X140778992Y-104370672D01*
X140671932Y-104275653D01*
X140577951Y-104204475D01*
X140475436Y-104128865D01*
X140419545Y-104077436D01*
X140405685Y-104045767D01*
X140408019Y-104040730D01*
X140446176Y-104019102D01*
X140523952Y-103992670D01*
X140609168Y-103970785D01*
X140724743Y-103942154D01*
X140868593Y-103902612D01*
X141013325Y-103859754D01*
X141041580Y-103850944D01*
X141294279Y-103771300D01*
X141446431Y-103895336D01*
G37*
G36*
X155549812Y-127401076D02*
G01*
X155583271Y-127427574D01*
X155584656Y-127479888D01*
X155552226Y-127562949D01*
X155484241Y-127681693D01*
X155411422Y-127793355D01*
X155369958Y-127854479D01*
X155332969Y-127907239D01*
X155293225Y-127961017D01*
X155243491Y-128025194D01*
X155176536Y-128109151D01*
X155085128Y-128222268D01*
X154997436Y-128330331D01*
X154914447Y-128434218D01*
X154847049Y-128521780D01*
X154802867Y-128582901D01*
X154789254Y-128606569D01*
X154765756Y-128631430D01*
X154705505Y-128679182D01*
X154621114Y-128741031D01*
X154525199Y-128808184D01*
X154430371Y-128871845D01*
X154349247Y-128923221D01*
X154294438Y-128953516D01*
X154287578Y-128956332D01*
X154236749Y-128979181D01*
X154156576Y-129019698D01*
X154102879Y-129048289D01*
X154007645Y-129097921D01*
X153921026Y-129139632D01*
X153887525Y-129154102D01*
X153776136Y-129207309D01*
X153682937Y-129268239D01*
X153621433Y-129326920D01*
X153604246Y-129363265D01*
X153612469Y-129422981D01*
X153638666Y-129506163D01*
X153648502Y-129530457D01*
X153678459Y-129610328D01*
X153693663Y-129670641D01*
X153694159Y-129681663D01*
X153703017Y-129730343D01*
X153729085Y-129806718D01*
X153739814Y-129832869D01*
X153769797Y-129914811D01*
X153784627Y-129979230D01*
X153784949Y-129991283D01*
X153794847Y-130045800D01*
X153824045Y-130121644D01*
X153829669Y-130133339D01*
X153866821Y-130232816D01*
X153888430Y-130335477D01*
X153888499Y-130336173D01*
X153905050Y-130416657D01*
X153931684Y-130473334D01*
X153934915Y-130476902D01*
X153964133Y-130530066D01*
X153983114Y-130606133D01*
X154008184Y-130700388D01*
X154047691Y-130785350D01*
X154079296Y-130859792D01*
X154088620Y-130954314D01*
X154083073Y-131046971D01*
X154070496Y-131136683D01*
X154047641Y-131218205D01*
X154007981Y-131307536D01*
X153944986Y-131420671D01*
X153899926Y-131495716D01*
X153825693Y-131614919D01*
X153756503Y-131721196D01*
X153701512Y-131800742D01*
X153675900Y-131833653D01*
X153624280Y-131932949D01*
X153611305Y-132061811D01*
X153638073Y-132204736D01*
X153647682Y-132232045D01*
X153675624Y-132318284D01*
X153690030Y-132387840D01*
X153690587Y-132403274D01*
X153695341Y-132453644D01*
X153710909Y-132544069D01*
X153734269Y-132657599D01*
X153742400Y-132693870D01*
X153767191Y-132813426D01*
X153779942Y-132914487D01*
X153781289Y-133017806D01*
X153771876Y-133144138D01*
X153759675Y-133253598D01*
X153739314Y-133406828D01*
X153719482Y-133511901D01*
X153697590Y-133579234D01*
X153671053Y-133619250D01*
X153668223Y-133621984D01*
X153618964Y-133687196D01*
X153585622Y-133757615D01*
X153543043Y-133844679D01*
X153496534Y-133908363D01*
X153452477Y-133964917D01*
X153433647Y-134005432D01*
X153418559Y-134037209D01*
X153378316Y-134110037D01*
X153318286Y-134214872D01*
X153243840Y-134342672D01*
X153160347Y-134484394D01*
X153073177Y-134630996D01*
X152987697Y-134773435D01*
X152909280Y-134902668D01*
X152843293Y-135009653D01*
X152795105Y-135085347D01*
X152775010Y-135114646D01*
X152702918Y-135234132D01*
X152648300Y-135366338D01*
X152645766Y-135374722D01*
X152639123Y-135439532D01*
X152675544Y-135481963D01*
X152690214Y-135490818D01*
X152737328Y-135507991D01*
X152801219Y-135509752D01*
X152896250Y-135495314D01*
X152993344Y-135474134D01*
X153112177Y-135449053D01*
X153216003Y-135431631D01*
X153286135Y-135424889D01*
X153295850Y-135425194D01*
X153361170Y-135421023D01*
X153456969Y-135404033D01*
X153523518Y-135388074D01*
X153636662Y-135361791D01*
X153746361Y-135342498D01*
X153793913Y-135337102D01*
X153875977Y-135316883D01*
X153957197Y-135264569D01*
X154043711Y-135174101D01*
X154141653Y-135039425D01*
X154219356Y-134917145D01*
X154282328Y-134814964D01*
X154336192Y-134728916D01*
X154371603Y-134673882D01*
X154377011Y-134665958D01*
X154405116Y-134622171D01*
X154453624Y-134542830D01*
X154513340Y-134443023D01*
X154530274Y-134414385D01*
X154591831Y-134311600D01*
X154645235Y-134225265D01*
X154681096Y-134170484D01*
X154686541Y-134163076D01*
X154724844Y-134104914D01*
X154754489Y-134051252D01*
X154793541Y-133981281D01*
X154821150Y-133939315D01*
X154850032Y-133894485D01*
X154897509Y-133814421D01*
X154953998Y-133715337D01*
X154961807Y-133701361D01*
X155018885Y-133600943D01*
X155068406Y-133517373D01*
X155100724Y-133466870D01*
X155103240Y-133463476D01*
X155143260Y-133399508D01*
X155157673Y-133370034D01*
X155182680Y-133322972D01*
X155230757Y-133240637D01*
X155293502Y-133137257D01*
X155326426Y-133084236D01*
X155394587Y-132970706D01*
X155452539Y-132865813D01*
X155491287Y-132786179D01*
X155499857Y-132763676D01*
X155527288Y-132698080D01*
X155554726Y-132662913D01*
X155583756Y-132633260D01*
X155634611Y-132568000D01*
X155696901Y-132480552D01*
X155704400Y-132469574D01*
X155786649Y-132361422D01*
X155853105Y-132305288D01*
X155908909Y-132298390D01*
X155955685Y-132333648D01*
X155967127Y-132378527D01*
X155937513Y-132442467D01*
X155901828Y-132509478D01*
X155886450Y-132557460D01*
X155870477Y-132601277D01*
X155832559Y-132678358D01*
X155781722Y-132772152D01*
X155726995Y-132866102D01*
X155677403Y-132943659D01*
X155670371Y-132953690D01*
X155636722Y-133006451D01*
X155592925Y-133081626D01*
X155586281Y-133093544D01*
X155509430Y-133231912D01*
X155431080Y-133372199D01*
X155363694Y-133492111D01*
X155343034Y-133528618D01*
X155306400Y-133595398D01*
X155253446Y-133694624D01*
X155194679Y-133806578D01*
X155185626Y-133823991D01*
X155126862Y-133936155D01*
X155072205Y-134038675D01*
X155032186Y-134111828D01*
X155027931Y-134119339D01*
X154934162Y-134285105D01*
X154863362Y-134413768D01*
X154817852Y-134501012D01*
X154799952Y-134542523D01*
X154799792Y-134543616D01*
X154785126Y-134578575D01*
X154749216Y-134646866D01*
X154715038Y-134707317D01*
X154651900Y-134817200D01*
X154587181Y-134931490D01*
X154562000Y-134976564D01*
X154516984Y-135056467D01*
X154452511Y-135169342D01*
X154378708Y-135297513D01*
X154332377Y-135377474D01*
X154267207Y-135491294D01*
X154214514Y-135586464D01*
X154180499Y-135651583D01*
X154170904Y-135674343D01*
X154148653Y-135705380D01*
X154096125Y-135753788D01*
X154081989Y-135765206D01*
X154036598Y-135796274D01*
X153986480Y-135815858D01*
X153917834Y-135826144D01*
X153816864Y-135829318D01*
X153686394Y-135827893D01*
X153545119Y-135828368D01*
X153414478Y-135834384D01*
X153312749Y-135844832D01*
X153271996Y-135853110D01*
X153186070Y-135871013D01*
X153069216Y-135886257D01*
X152966215Y-135894336D01*
X152830236Y-135908492D01*
X152726557Y-135939501D01*
X152641643Y-135986555D01*
X152569951Y-136038172D01*
X152523838Y-136079745D01*
X152514839Y-136094279D01*
X152493228Y-136127466D01*
X152436324Y-136192251D01*
X152352149Y-136280667D01*
X152248729Y-136384757D01*
X152134087Y-136496559D01*
X152016246Y-136608113D01*
X151903231Y-136711456D01*
X151815447Y-136788178D01*
X151604149Y-136963196D01*
X151370291Y-137149683D01*
X151134789Y-137331275D01*
X150918555Y-137491606D01*
X150891681Y-137510944D01*
X150789685Y-137588603D01*
X150700122Y-137664913D01*
X150639296Y-137725793D01*
X150631227Y-137735938D01*
X150592607Y-137797182D01*
X150588345Y-137847619D01*
X150609924Y-137910035D01*
X150646104Y-137982469D01*
X150699582Y-138059153D01*
X150778619Y-138150198D01*
X150891477Y-138265717D01*
X150937080Y-138310476D01*
X151032203Y-138405641D01*
X151127716Y-138505131D01*
X151190172Y-138573201D01*
X151278470Y-138660837D01*
X151378540Y-138743432D01*
X151415158Y-138769032D01*
X151489868Y-138814889D01*
X151538781Y-138831616D01*
X151584646Y-138823017D01*
X151626333Y-138804339D01*
X151701395Y-138775574D01*
X151759628Y-138765026D01*
X151761552Y-138765151D01*
X151812986Y-138756462D01*
X151895210Y-138729918D01*
X151950403Y-138708067D01*
X152042123Y-138674000D01*
X152118441Y-138654037D01*
X152146714Y-138651637D01*
X152207904Y-138641924D01*
X152301415Y-138610993D01*
X152408414Y-138566322D01*
X152510061Y-138515390D01*
X152551238Y-138491031D01*
X152624846Y-138445806D01*
X152701976Y-138402443D01*
X152801637Y-138350535D01*
X152880315Y-138310880D01*
X152972706Y-138264473D01*
X153052243Y-138224262D01*
X153080531Y-138209829D01*
X153152199Y-138177386D01*
X153238367Y-138143667D01*
X153238895Y-138143477D01*
X153309874Y-138112710D01*
X153353905Y-138083941D01*
X153355941Y-138081542D01*
X153393852Y-138055490D01*
X153466120Y-138021209D01*
X153504424Y-138005890D01*
X153617524Y-137960556D01*
X153734107Y-137910035D01*
X153755342Y-137900283D01*
X153946686Y-137813395D01*
X154115406Y-137741282D01*
X154254088Y-137686852D01*
X154355322Y-137653010D01*
X154411695Y-137642666D01*
X154412078Y-137642696D01*
X154456631Y-137665946D01*
X154462611Y-137713362D01*
X154425765Y-137803025D01*
X154342592Y-137875920D01*
X154241954Y-137917030D01*
X154158975Y-137949954D01*
X154096460Y-137994672D01*
X154093807Y-137997691D01*
X154046051Y-138039095D01*
X154015110Y-138049601D01*
X153975136Y-138061248D01*
X153898839Y-138094683D01*
X153801189Y-138143231D01*
X153779406Y-138154703D01*
X153675659Y-138209604D01*
X153587315Y-138255851D01*
X153531163Y-138284663D01*
X153526183Y-138287121D01*
X153398750Y-138353361D01*
X153243610Y-138440232D01*
X153081710Y-138535600D01*
X152933997Y-138627325D01*
X152893842Y-138653466D01*
X152852712Y-138678344D01*
X152777904Y-138721800D01*
X152700455Y-138765996D01*
X152592943Y-138832180D01*
X152488813Y-138904774D01*
X152434984Y-138947473D01*
X152354096Y-139009519D01*
X152276329Y-139056867D01*
X152254796Y-139066584D01*
X152179880Y-139097608D01*
X152132344Y-139120106D01*
X152083511Y-139140237D01*
X151995631Y-139171628D01*
X151885718Y-139208263D01*
X151858898Y-139216864D01*
X151777553Y-139244365D01*
X151706662Y-139273919D01*
X151637240Y-139311617D01*
X151560298Y-139363552D01*
X151466852Y-139435816D01*
X151347912Y-139534501D01*
X151194492Y-139665700D01*
X151185980Y-139673029D01*
X151027983Y-139809859D01*
X150865360Y-139952041D01*
X150710880Y-140088320D01*
X150577313Y-140207437D01*
X150489136Y-140287359D01*
X150333540Y-140423247D01*
X150165381Y-140558221D01*
X149994020Y-140685830D01*
X149828815Y-140799622D01*
X149679125Y-140893143D01*
X149554310Y-140959942D01*
X149465303Y-140993226D01*
X149387695Y-141016063D01*
X149295813Y-141050279D01*
X149284240Y-141055130D01*
X149208231Y-141083740D01*
X149153677Y-141097598D01*
X149146427Y-141097836D01*
X149107355Y-141114025D01*
X149044062Y-141158166D01*
X149010288Y-141185969D01*
X148905372Y-141276834D01*
X148906871Y-141625916D01*
X148909365Y-141774399D01*
X148914990Y-141911398D01*
X148922877Y-142020492D01*
X148930921Y-142080020D01*
X148937486Y-142146386D01*
X148940274Y-142257798D01*
X148939274Y-142400764D01*
X148934471Y-142561790D01*
X148931447Y-142628945D01*
X148921434Y-142809901D01*
X148910481Y-142947006D01*
X148896286Y-143055055D01*
X148876543Y-143148842D01*
X148848949Y-143243162D01*
X148824631Y-143314849D01*
X148787714Y-143430052D01*
X148762495Y-143528272D01*
X148752836Y-143593564D01*
X148754001Y-143606257D01*
X148794025Y-143649109D01*
X148874094Y-143661182D01*
X148984265Y-143642387D01*
X149077903Y-143609157D01*
X149171808Y-143574885D01*
X149252504Y-143554895D01*
X149283147Y-143552571D01*
X149358257Y-143540704D01*
X149402015Y-143520937D01*
X149513233Y-143480992D01*
X149641789Y-143478249D01*
X149759884Y-143512446D01*
X149781090Y-143524511D01*
X149858216Y-143568826D01*
X149962684Y-143622905D01*
X150043557Y-143661781D01*
X150214779Y-143740902D01*
X150365913Y-143689846D01*
X150459725Y-143652934D01*
X150534300Y-143614389D01*
X150560338Y-143595027D01*
X150607906Y-143560267D01*
X150632018Y-143553750D01*
X150681821Y-143538182D01*
X150771348Y-143489149D01*
X150895084Y-143410527D01*
X151047518Y-143306199D01*
X151223135Y-143180042D01*
X151416423Y-143035935D01*
X151621868Y-142877756D01*
X151833956Y-142709387D01*
X151846767Y-142699051D01*
X151980841Y-142591587D01*
X152107666Y-142491424D01*
X152216359Y-142407055D01*
X152296034Y-142346965D01*
X152321947Y-142328431D01*
X152401723Y-142273148D01*
X152468244Y-142225205D01*
X152535764Y-142173697D01*
X152618538Y-142107724D01*
X152730820Y-142016379D01*
X152744417Y-142005268D01*
X152844276Y-141925292D01*
X152912404Y-141877575D01*
X152961618Y-141856214D01*
X153004734Y-141855304D01*
X153046227Y-141866220D01*
X153109795Y-141880773D01*
X153217848Y-141899384D01*
X153356537Y-141919899D01*
X153512017Y-141940161D01*
X153551476Y-141944886D01*
X153962225Y-141993164D01*
X154179763Y-141830608D01*
X154271042Y-141760447D01*
X154396123Y-141661547D01*
X154543865Y-141542858D01*
X154703122Y-141413342D01*
X154862755Y-141281951D01*
X154875126Y-141271695D01*
X155019475Y-141153934D01*
X155150847Y-141050485D01*
X155261888Y-140966838D01*
X155345250Y-140908485D01*
X155393574Y-140880917D01*
X155400340Y-140879484D01*
X155454193Y-140866221D01*
X155526079Y-140828216D01*
X155539890Y-140818908D01*
X155614595Y-140777495D01*
X155655049Y-140782893D01*
X155663045Y-140829878D01*
X155640721Y-140858822D01*
X155580227Y-140919156D01*
X155488354Y-141004595D01*
X155371891Y-141108852D01*
X155237630Y-141225640D01*
X155210264Y-141249074D01*
X155067452Y-141372671D01*
X154935586Y-141489817D01*
X154822969Y-141592898D01*
X154737901Y-141674304D01*
X154688686Y-141726421D01*
X154686074Y-141729704D01*
X154610770Y-141817031D01*
X154527269Y-141900226D01*
X154520155Y-141906563D01*
X154459838Y-141961513D01*
X154412380Y-142012158D01*
X154363780Y-142075391D01*
X154300033Y-142168103D01*
X154285991Y-142189045D01*
X154239083Y-142253123D01*
X154194633Y-142287232D01*
X154131655Y-142301272D01*
X154040311Y-142304959D01*
X153917099Y-142307973D01*
X153771223Y-142312776D01*
X153661273Y-142317177D01*
X153534006Y-142320772D01*
X153375790Y-142322325D01*
X153214304Y-142321638D01*
X153160437Y-142320798D01*
X152868573Y-142315151D01*
X152709331Y-142452667D01*
X152603791Y-142544771D01*
X152481786Y-142652652D01*
X152372741Y-142750246D01*
X152138787Y-142950803D01*
X151868953Y-143163836D01*
X151580071Y-143376076D01*
X151569180Y-143383780D01*
X151400029Y-143504002D01*
X151254938Y-143609072D01*
X151109474Y-143716840D01*
X150987393Y-143808688D01*
X150902360Y-143869705D01*
X150784672Y-143949879D01*
X150651616Y-144037588D01*
X150551429Y-144101771D01*
X150424896Y-144180666D01*
X150334368Y-144232583D01*
X150266656Y-144262492D01*
X150208569Y-144275366D01*
X150146917Y-144276176D01*
X150098329Y-144272558D01*
X149960642Y-144247420D01*
X149853103Y-144194449D01*
X149837962Y-144183534D01*
X149724069Y-144126506D01*
X149577412Y-144091906D01*
X149420184Y-144081650D01*
X149274578Y-144097654D01*
X149187665Y-144127378D01*
X149106093Y-144161670D01*
X149039239Y-144178465D01*
X149026311Y-144178768D01*
X148966202Y-144189785D01*
X148893499Y-144222170D01*
X148813611Y-144261199D01*
X148746348Y-144284043D01*
X148675768Y-144312927D01*
X148642362Y-144337692D01*
X148584377Y-144369630D01*
X148553793Y-144372967D01*
X148506198Y-144381650D01*
X148419400Y-144408524D01*
X148308160Y-144448778D01*
X148244071Y-144473999D01*
X148120359Y-144521927D01*
X148007950Y-144561694D01*
X147924099Y-144587347D01*
X147899267Y-144592870D01*
X147810295Y-144619898D01*
X147737842Y-144656713D01*
X147669301Y-144691488D01*
X147616009Y-144703113D01*
X147556210Y-144716252D01*
X147521444Y-144735659D01*
X147469456Y-144765572D01*
X147382609Y-144807773D01*
X147288358Y-144849404D01*
X147177420Y-144901225D01*
X147075045Y-144957562D01*
X147014479Y-144998080D01*
X146971153Y-145034436D01*
X146944223Y-145069699D01*
X146929447Y-145118519D01*
X146922579Y-145195542D01*
X146919377Y-145315416D01*
X146919156Y-145327121D01*
X146921844Y-145483382D01*
X146933472Y-145653640D01*
X146951594Y-145803149D01*
X146953409Y-145814100D01*
X146971307Y-145939965D01*
X146982050Y-146058078D01*
X146983560Y-146144801D01*
X146983095Y-146151141D01*
X146984757Y-146251820D01*
X147000883Y-146362849D01*
X147005675Y-146383171D01*
X147026036Y-146483008D01*
X147044532Y-146608243D01*
X147053588Y-146692847D01*
X147067533Y-146818975D01*
X147086401Y-146945399D01*
X147099412Y-147013300D01*
X147114459Y-147112261D01*
X147125149Y-147241794D01*
X147129165Y-147373767D01*
X147127746Y-147489286D01*
X147120920Y-147561745D01*
X147104533Y-147606732D01*
X147074435Y-147639833D01*
X147053979Y-147656016D01*
X146989810Y-147701687D01*
X146887883Y-147770835D01*
X146760074Y-147855671D01*
X146618259Y-147948403D01*
X146474315Y-148041247D01*
X146340117Y-148126411D01*
X146271677Y-148169065D01*
X146166924Y-148235983D01*
X146068894Y-148302312D01*
X146005920Y-148348299D01*
X145930165Y-148403488D01*
X145830302Y-148470793D01*
X145760498Y-148515309D01*
X145639199Y-148593744D01*
X145558191Y-148659319D01*
X145506321Y-148727359D01*
X145472434Y-148813190D01*
X145445377Y-148932137D01*
X145441161Y-148954084D01*
X145411847Y-149085356D01*
X145376019Y-149213407D01*
X145341184Y-149311547D01*
X145339545Y-149315322D01*
X145304544Y-149422755D01*
X145275785Y-149562981D01*
X145261134Y-149679960D01*
X145246911Y-149806545D01*
X145230318Y-149880663D01*
X145209821Y-149908501D01*
X145204293Y-149908998D01*
X145166483Y-149886767D01*
X145104705Y-149832628D01*
X145043144Y-149769770D01*
X144960561Y-149683995D01*
X144854392Y-149579188D01*
X144744909Y-149475275D01*
X144723152Y-149455211D01*
X144527829Y-149276189D01*
X144559171Y-149082404D01*
X144583043Y-148968689D01*
X144613633Y-148867668D01*
X144639725Y-148809751D01*
X144673081Y-148737058D01*
X144706796Y-148633504D01*
X144725614Y-148557466D01*
X144753405Y-148450012D01*
X144786321Y-148356085D01*
X144808040Y-148311810D01*
X144847712Y-148272208D01*
X144928029Y-148209090D01*
X145039475Y-148129350D01*
X145172531Y-148039882D01*
X145268458Y-147978288D01*
X145471835Y-147848588D01*
X145645652Y-147733585D01*
X145807953Y-147620679D01*
X145976781Y-147497272D01*
X146170181Y-147350766D01*
X146200242Y-147327698D01*
X146343000Y-147218012D01*
X146318157Y-147067547D01*
X146307723Y-146971440D01*
X146300341Y-146838453D01*
X146297014Y-146690336D01*
X146297230Y-146613767D01*
X146295144Y-146471679D01*
X146286331Y-146338381D01*
X146272381Y-146233225D01*
X146262670Y-146193081D01*
X146239469Y-146091158D01*
X146232001Y-145991725D01*
X146232820Y-145977130D01*
X146230519Y-145893416D01*
X146215441Y-145782618D01*
X146199419Y-145705462D01*
X146174329Y-145571429D01*
X146157578Y-145424310D01*
X146154054Y-145355429D01*
X146144314Y-145219754D01*
X146123278Y-145073006D01*
X146109352Y-145005454D01*
X146080388Y-144821744D01*
X146092469Y-144677148D01*
X146147241Y-144567321D01*
X146246345Y-144487921D01*
X146317025Y-144456827D01*
X146396671Y-144426916D01*
X146457347Y-144401913D01*
X146459028Y-144401142D01*
X146662768Y-144311931D01*
X146792055Y-144261332D01*
X146873661Y-144225798D01*
X146935979Y-144189188D01*
X146940645Y-144185483D01*
X147002945Y-144155343D01*
X147036620Y-144151904D01*
X147092607Y-144140092D01*
X147169725Y-144105212D01*
X147192693Y-144091954D01*
X147264143Y-144052328D01*
X147315377Y-144031089D01*
X147324331Y-144029864D01*
X147365084Y-144016745D01*
X147427444Y-143981867D01*
X147429973Y-143980222D01*
X147501150Y-143944750D01*
X147559934Y-143932708D01*
X147620409Y-143920707D01*
X147684903Y-143889153D01*
X147771246Y-143846156D01*
X147849461Y-143820390D01*
X147906450Y-143799989D01*
X147941714Y-143760596D01*
X147968709Y-143684900D01*
X147975875Y-143657761D01*
X148011401Y-143540374D01*
X148057385Y-143414642D01*
X148074294Y-143374142D01*
X148098697Y-143292553D01*
X148124097Y-143162049D01*
X148149656Y-142992345D01*
X148174534Y-142793156D01*
X148197894Y-142574200D01*
X148218897Y-142345191D01*
X148236705Y-142115846D01*
X148250480Y-141895880D01*
X148259382Y-141695010D01*
X148262575Y-141522950D01*
X148259218Y-141389419D01*
X148251641Y-141318958D01*
X148234929Y-141192611D01*
X148227656Y-141064666D01*
X148229640Y-140989302D01*
X148242740Y-140898447D01*
X148270728Y-140841944D01*
X148327116Y-140795502D01*
X148343187Y-140785160D01*
X148417927Y-140744445D01*
X148526273Y-140693447D01*
X148655645Y-140637190D01*
X148793463Y-140580703D01*
X148927146Y-140529008D01*
X149044113Y-140487134D01*
X149131784Y-140460106D01*
X149175495Y-140452650D01*
X149226794Y-140444868D01*
X149314927Y-140420724D01*
X149422458Y-140386119D01*
X149531949Y-140346953D01*
X149625964Y-140309130D01*
X149683815Y-140280586D01*
X149751269Y-140227513D01*
X149832870Y-140146644D01*
X149894339Y-140075670D01*
X149960461Y-139996221D01*
X150026482Y-139925948D01*
X150102153Y-139856488D01*
X150197229Y-139779473D01*
X150321463Y-139686542D01*
X150484610Y-139569327D01*
X150485462Y-139568721D01*
X150597952Y-139486512D01*
X150694080Y-139412114D01*
X150762667Y-139354439D01*
X150791075Y-139325053D01*
X150814762Y-139284104D01*
X150827376Y-139243809D01*
X150825711Y-139198695D01*
X150806561Y-139143290D01*
X150766720Y-139072123D01*
X150702984Y-138979720D01*
X150612146Y-138860611D01*
X150490998Y-138709323D01*
X150336337Y-138520385D01*
X150278572Y-138450264D01*
X150133322Y-138273280D01*
X149996553Y-138105107D01*
X149873809Y-137952683D01*
X149770638Y-137822944D01*
X149692583Y-137722826D01*
X149645190Y-137659265D01*
X149639146Y-137650448D01*
X149557449Y-137527116D01*
X149630583Y-136807173D01*
X149653370Y-136584028D01*
X149671675Y-136411798D01*
X149686923Y-136283036D01*
X149700546Y-136190295D01*
X149713970Y-136126129D01*
X149728623Y-136083089D01*
X149745936Y-136053732D01*
X149767336Y-136030608D01*
X149782127Y-136017168D01*
X149860535Y-135947107D01*
X149896987Y-136032223D01*
X149909057Y-136075669D01*
X149915303Y-136141334D01*
X149915590Y-136236829D01*
X149909779Y-136369761D01*
X149897733Y-136547742D01*
X149884690Y-136713342D01*
X149868454Y-136914363D01*
X149857303Y-137065178D01*
X149851407Y-137174038D01*
X149850939Y-137249192D01*
X149856071Y-137298890D01*
X149866975Y-137331380D01*
X149883822Y-137354913D01*
X149898370Y-137369630D01*
X149979987Y-137424154D01*
X150068338Y-137430496D01*
X150171943Y-137387720D01*
X150254915Y-137330516D01*
X150349308Y-137259128D01*
X150469065Y-137170332D01*
X150591752Y-137080733D01*
X150619581Y-137060636D01*
X150828174Y-136906585D01*
X151023664Y-136754904D01*
X151200133Y-136610724D01*
X151351662Y-136479179D01*
X151472336Y-136365402D01*
X151556236Y-136274525D01*
X151597008Y-136212806D01*
X151635136Y-136135276D01*
X151674672Y-136081285D01*
X151682185Y-136075004D01*
X151720617Y-136032536D01*
X151727433Y-136013068D01*
X151743500Y-135975394D01*
X151784076Y-135900583D01*
X151842241Y-135801030D01*
X151884549Y-135731593D01*
X151950238Y-135622522D01*
X152002612Y-135530046D01*
X152034741Y-135466704D01*
X152041463Y-135447509D01*
X152062339Y-135402709D01*
X152108366Y-135344032D01*
X152109507Y-135342811D01*
X152156194Y-135282852D01*
X152178096Y-135234892D01*
X152178143Y-135234437D01*
X152194610Y-135188829D01*
X152232999Y-135113411D01*
X152266488Y-135055435D01*
X152314112Y-134972152D01*
X152346534Y-134906698D01*
X152355009Y-134881882D01*
X152371288Y-134841480D01*
X152409601Y-134768145D01*
X152460503Y-134678446D01*
X152514546Y-134588949D01*
X152562283Y-134516219D01*
X152568359Y-134507721D01*
X152604866Y-134449495D01*
X152634056Y-134395700D01*
X152673465Y-134325723D01*
X152701625Y-134283842D01*
X152728040Y-134244972D01*
X152778801Y-134166327D01*
X152847450Y-134058048D01*
X152927527Y-133930280D01*
X152959154Y-133879459D01*
X153041499Y-133747044D01*
X153114315Y-133630249D01*
X153171270Y-133539210D01*
X153206029Y-133484064D01*
X153212071Y-133474673D01*
X153242676Y-133426536D01*
X153290603Y-133349627D01*
X153321337Y-133299830D01*
X153403169Y-133166750D01*
X153353764Y-132978802D01*
X153328887Y-132863081D01*
X153314563Y-132753871D01*
X153313349Y-132688156D01*
X153307157Y-132592479D01*
X153280345Y-132488702D01*
X153273441Y-132471315D01*
X153243486Y-132387003D01*
X153229219Y-132317886D01*
X153229125Y-132304806D01*
X153221359Y-132245899D01*
X153196392Y-132161887D01*
X153185297Y-132132707D01*
X153149498Y-132017285D01*
X153152015Y-131924005D01*
X153197095Y-131835074D01*
X153278245Y-131743367D01*
X153346390Y-131671171D01*
X153394112Y-131613196D01*
X153409828Y-131585471D01*
X153430028Y-131545375D01*
X153473049Y-131492040D01*
X153526899Y-131414799D01*
X153562202Y-131335972D01*
X153595650Y-131262180D01*
X153635625Y-131213660D01*
X153672312Y-131157914D01*
X153688841Y-131070560D01*
X153683010Y-130975834D01*
X153662769Y-130914787D01*
X153634708Y-130837078D01*
X153616021Y-130744437D01*
X153615789Y-130742418D01*
X153593368Y-130639815D01*
X153556792Y-130542407D01*
X153526015Y-130463868D01*
X153513792Y-130399699D01*
X153514009Y-130394677D01*
X153507033Y-130336231D01*
X153484124Y-130251196D01*
X153472667Y-130217882D01*
X153400976Y-130019240D01*
X153350492Y-129871569D01*
X153320154Y-129771573D01*
X153308900Y-129715950D01*
X153308907Y-129708995D01*
X153298806Y-129658464D01*
X153269813Y-129585494D01*
X153265096Y-129575756D01*
X153211518Y-129422473D01*
X153213198Y-129287492D01*
X153270693Y-129167922D01*
X153361229Y-129078295D01*
X153434164Y-129026109D01*
X153528757Y-128964701D01*
X153631207Y-128902224D01*
X153727709Y-128846826D01*
X153804460Y-128806659D01*
X153847657Y-128789875D01*
X153849773Y-128789806D01*
X153886839Y-128777025D01*
X153957491Y-128742042D01*
X154030152Y-128701715D01*
X154128398Y-128645005D01*
X154217896Y-128593709D01*
X154262641Y-128568314D01*
X154333580Y-128525135D01*
X154381894Y-128491245D01*
X154428989Y-128463499D01*
X154446847Y-128459744D01*
X154496468Y-128442228D01*
X154576023Y-128389768D01*
X154675913Y-128310757D01*
X154786533Y-128213585D01*
X154898283Y-128106644D01*
X155001558Y-127998322D01*
X155078115Y-127908129D01*
X155119826Y-127855491D01*
X155180963Y-127778750D01*
X155218094Y-127732277D01*
X155274349Y-127657845D01*
X155312189Y-127600004D01*
X155321416Y-127579384D01*
X155348900Y-127529856D01*
X155406265Y-127473375D01*
X155473956Y-127425205D01*
X155532421Y-127400613D01*
X155549812Y-127401076D01*
G37*
G36*
X153074239Y-119576984D02*
G01*
X153155901Y-119614055D01*
X153256378Y-119665271D01*
X153361710Y-119722757D01*
X153457937Y-119778631D01*
X153531098Y-119825016D01*
X153567232Y-119854034D01*
X153568349Y-119855832D01*
X153597951Y-119881542D01*
X153663574Y-119925236D01*
X153734828Y-119967999D01*
X153833063Y-120024727D01*
X153922236Y-120076587D01*
X153966601Y-120102640D01*
X154039465Y-120142485D01*
X154092971Y-120167382D01*
X154140547Y-120194294D01*
X154152729Y-120207882D01*
X154192708Y-120242097D01*
X154277918Y-120284764D01*
X154396288Y-120331765D01*
X154535751Y-120378979D01*
X154684240Y-120422287D01*
X154829687Y-120457565D01*
X154946075Y-120478769D01*
X155012516Y-120488573D01*
X155109545Y-120503148D01*
X155168357Y-120512068D01*
X155260945Y-120523570D01*
X155329957Y-120527420D01*
X155352427Y-120525102D01*
X155409061Y-120524139D01*
X155486658Y-120545578D01*
X155562220Y-120580115D01*
X155612750Y-120618452D01*
X155621045Y-120633744D01*
X155614826Y-120675969D01*
X155570214Y-120703325D01*
X155482065Y-120716771D01*
X155345238Y-120717266D01*
X155212126Y-120710034D01*
X155138459Y-120704687D01*
X155074273Y-120699034D01*
X155007827Y-120691503D01*
X154927382Y-120680521D01*
X154821195Y-120664515D01*
X154677530Y-120641912D01*
X154540098Y-120620000D01*
X154408635Y-120600073D01*
X154299105Y-120585485D01*
X154224081Y-120577783D01*
X154196778Y-120577828D01*
X154163499Y-120569908D01*
X154092019Y-120541606D01*
X153996260Y-120499446D01*
X153890146Y-120449957D01*
X153787601Y-120399664D01*
X153702546Y-120355096D01*
X153648905Y-120322778D01*
X153643036Y-120318245D01*
X153597834Y-120285650D01*
X153522659Y-120236477D01*
X153471049Y-120204270D01*
X153380450Y-120146611D01*
X153301017Y-120092452D01*
X153271736Y-120070674D01*
X153169963Y-120000812D01*
X153070596Y-119950564D01*
X152989025Y-119926640D01*
X152948956Y-119929929D01*
X152901352Y-119966908D01*
X152842413Y-120031187D01*
X152826292Y-120051852D01*
X152772100Y-120117730D01*
X152727469Y-120161055D01*
X152718171Y-120166994D01*
X152680443Y-120199005D01*
X152627334Y-120259769D01*
X152610051Y-120282136D01*
X152554079Y-120349073D01*
X152505705Y-120394126D01*
X152495428Y-120400431D01*
X152453164Y-120436261D01*
X152402080Y-120499470D01*
X152394764Y-120510188D01*
X152327190Y-120592101D01*
X152249088Y-120662146D01*
X152248520Y-120662553D01*
X152187094Y-120717129D01*
X152151326Y-120768533D01*
X152149853Y-120773115D01*
X152118420Y-120825001D01*
X152062035Y-120879472D01*
X151992942Y-120948311D01*
X151939117Y-121025006D01*
X151890450Y-121089598D01*
X151813254Y-121144933D01*
X151730237Y-121186458D01*
X151646256Y-121220422D01*
X151564228Y-121241390D01*
X151467036Y-121251709D01*
X151337560Y-121253721D01*
X151250039Y-121252221D01*
X151109690Y-121247534D01*
X150983056Y-121240753D01*
X150886672Y-121232902D01*
X150845364Y-121227177D01*
X150733562Y-121232121D01*
X150615476Y-121285315D01*
X150505083Y-121379959D01*
X150486238Y-121401936D01*
X150425524Y-121469254D01*
X150372489Y-121516508D01*
X150359402Y-121524707D01*
X150318157Y-121554009D01*
X150247630Y-121612704D01*
X150160990Y-121689699D01*
X150133644Y-121714876D01*
X150042502Y-121796124D01*
X149961356Y-121857697D01*
X149872552Y-121910523D01*
X149758439Y-121965537D01*
X149657544Y-122009701D01*
X149514661Y-122068683D01*
X149413750Y-122104044D01*
X149344492Y-122118751D01*
X149296568Y-122115778D01*
X149292786Y-122114694D01*
X149211681Y-122104641D01*
X149134025Y-122110975D01*
X149037336Y-122117632D01*
X148958930Y-122109197D01*
X148887923Y-122099319D01*
X148843421Y-122103269D01*
X148808358Y-122106091D01*
X148725166Y-122107653D01*
X148604361Y-122108084D01*
X148456460Y-122107512D01*
X148291978Y-122106065D01*
X148121433Y-122103875D01*
X147955337Y-122101067D01*
X147804209Y-122097772D01*
X147678564Y-122094118D01*
X147588917Y-122090233D01*
X147553496Y-122087480D01*
X147413972Y-122084789D01*
X147272169Y-122103591D01*
X147263642Y-122105589D01*
X147204192Y-122132241D01*
X147185657Y-122184998D01*
X147185323Y-122202131D01*
X147194008Y-122251518D01*
X147224429Y-122307731D01*
X147284448Y-122382811D01*
X147351337Y-122456306D01*
X147432474Y-122546678D01*
X147499476Y-122627884D01*
X147540380Y-122685249D01*
X147544973Y-122693815D01*
X147581245Y-122748298D01*
X147643859Y-122822767D01*
X147690955Y-122872420D01*
X147770288Y-122957265D01*
X147841846Y-123042621D01*
X147870295Y-123081104D01*
X147928836Y-123142064D01*
X148014752Y-123186246D01*
X148136357Y-123215935D01*
X148301961Y-123233417D01*
X148446710Y-123239569D01*
X148566687Y-123243015D01*
X148668138Y-123246638D01*
X148733505Y-123249788D01*
X148743072Y-123250509D01*
X148795045Y-123252956D01*
X148888010Y-123255294D01*
X149004303Y-123257106D01*
X149037572Y-123257453D01*
X149157365Y-123259370D01*
X149258835Y-123262451D01*
X149324207Y-123266117D01*
X149333345Y-123267129D01*
X149402866Y-123271220D01*
X149464162Y-123270062D01*
X149544284Y-123268896D01*
X149594433Y-123271824D01*
X149647697Y-123274422D01*
X149740774Y-123275505D01*
X149854827Y-123274884D01*
X149870835Y-123274659D01*
X149986339Y-123273881D01*
X150083473Y-123274982D01*
X150143369Y-123277720D01*
X150147566Y-123278201D01*
X150222974Y-123280876D01*
X150255705Y-123278621D01*
X150308966Y-123276746D01*
X150404309Y-123277214D01*
X150525211Y-123279863D01*
X150587591Y-123281866D01*
X150719991Y-123284130D01*
X150839807Y-123281871D01*
X150928146Y-123275611D01*
X150951919Y-123271781D01*
X151022442Y-123262740D01*
X151066617Y-123268918D01*
X151106812Y-123279233D01*
X151188756Y-123290644D01*
X151295634Y-123300865D01*
X151308890Y-123301870D01*
X151443677Y-123319024D01*
X151525519Y-123348509D01*
X151559395Y-123393388D01*
X151552248Y-123451526D01*
X151519103Y-123483874D01*
X151448922Y-123490199D01*
X151373047Y-123492800D01*
X151323804Y-123503473D01*
X151277871Y-123511548D01*
X151192157Y-123517251D01*
X151085511Y-123520121D01*
X150976784Y-123519702D01*
X150884822Y-123515532D01*
X150872619Y-123514458D01*
X150810103Y-123511698D01*
X150723101Y-123511355D01*
X150709457Y-123511561D01*
X150551201Y-123514190D01*
X150390535Y-123516480D01*
X150252995Y-123518079D01*
X150211048Y-123518440D01*
X150134898Y-123520104D01*
X150022489Y-123523857D01*
X149896150Y-123528940D01*
X149876544Y-123529807D01*
X149750025Y-123534998D01*
X149633912Y-123538923D01*
X149550550Y-123540843D01*
X149541918Y-123540913D01*
X149351475Y-123542590D01*
X149204650Y-123545606D01*
X149106340Y-123549815D01*
X149061440Y-123555069D01*
X149060413Y-123555477D01*
X149022805Y-123560256D01*
X148945708Y-123563302D01*
X148876267Y-123563929D01*
X148749536Y-123564191D01*
X148618199Y-123565288D01*
X148566573Y-123566018D01*
X148474867Y-123566984D01*
X148344878Y-123567586D01*
X148196978Y-123567756D01*
X148104564Y-123567613D01*
X147973407Y-123568084D01*
X147864642Y-123570036D01*
X147791240Y-123573138D01*
X147766731Y-123576208D01*
X147728726Y-123572456D01*
X147660540Y-123551170D01*
X147643584Y-123544636D01*
X147593983Y-123520861D01*
X147551963Y-123487249D01*
X147508732Y-123432944D01*
X147455498Y-123347088D01*
X147391498Y-123233385D01*
X147320449Y-123111274D01*
X147249918Y-123001145D01*
X147190006Y-122918268D01*
X147162461Y-122887114D01*
X147103993Y-122821651D01*
X147032364Y-122728075D01*
X146973867Y-122642914D01*
X146893618Y-122532230D01*
X146814924Y-122457946D01*
X146731717Y-122407935D01*
X146651170Y-122371657D01*
X146592110Y-122352507D01*
X146575023Y-122351981D01*
X146535477Y-122349860D01*
X146450920Y-122332971D01*
X146332262Y-122304282D01*
X146190407Y-122266763D01*
X146036263Y-122223380D01*
X145880734Y-122177104D01*
X145734728Y-122130902D01*
X145624393Y-122093240D01*
X145367174Y-121997760D01*
X145088743Y-121888476D01*
X144813729Y-121775321D01*
X144566761Y-121668223D01*
X144536576Y-121654618D01*
X144418324Y-121605116D01*
X144307456Y-121565708D01*
X144224319Y-121543470D01*
X144211499Y-121541555D01*
X144139150Y-121538732D01*
X144093340Y-121560259D01*
X144050075Y-121610155D01*
X144005435Y-121677705D01*
X143965764Y-121762360D01*
X143926435Y-121876330D01*
X143882821Y-122031828D01*
X143866861Y-122093701D01*
X143832007Y-122223662D01*
X143793603Y-122356124D01*
X143765880Y-122444247D01*
X143734135Y-122564533D01*
X143712640Y-122692494D01*
X143708778Y-122737007D01*
X143706420Y-122824635D01*
X143716391Y-122875359D01*
X143746771Y-122910780D01*
X143783790Y-122937543D01*
X143846232Y-122988166D01*
X143884483Y-123033323D01*
X143885337Y-123035052D01*
X143918579Y-123075251D01*
X143982678Y-123133186D01*
X144029198Y-123170060D01*
X144104561Y-123232459D01*
X144160009Y-123288570D01*
X144176224Y-123311855D01*
X144215230Y-123359990D01*
X144288773Y-123425509D01*
X144380959Y-123495836D01*
X144475890Y-123558399D01*
X144517575Y-123581880D01*
X144593545Y-123623014D01*
X144669663Y-123668129D01*
X144764448Y-123728484D01*
X144838129Y-123776793D01*
X144924514Y-123833603D01*
X144999106Y-123882379D01*
X145025749Y-123899660D01*
X145089680Y-123945505D01*
X145161965Y-124003269D01*
X145162393Y-124003631D01*
X145224528Y-124049718D01*
X145271458Y-124073465D01*
X145274554Y-124074029D01*
X145316071Y-124093834D01*
X145381893Y-124139280D01*
X145414312Y-124164793D01*
X145510123Y-124240073D01*
X145612166Y-124315777D01*
X145631230Y-124329291D01*
X145802149Y-124451556D01*
X145948960Y-124561614D01*
X146065440Y-124654502D01*
X146145364Y-124725252D01*
X146182509Y-124768900D01*
X146182674Y-124769247D01*
X146184816Y-124819456D01*
X146146742Y-124848343D01*
X146050669Y-124861265D01*
X145945954Y-124825682D01*
X145860032Y-124759082D01*
X145790030Y-124703683D01*
X145720046Y-124671902D01*
X145716104Y-124671114D01*
X145656369Y-124650459D01*
X145631801Y-124628915D01*
X145601727Y-124600120D01*
X145534622Y-124550763D01*
X145443753Y-124490469D01*
X145422928Y-124477340D01*
X145323508Y-124414944D01*
X145239286Y-124361559D01*
X145186257Y-124327337D01*
X145181639Y-124324252D01*
X145060556Y-124247012D01*
X144907753Y-124156092D01*
X144744213Y-124063566D01*
X144590920Y-123981506D01*
X144548203Y-123959802D01*
X144506094Y-123936621D01*
X144431056Y-123893563D01*
X144354057Y-123848589D01*
X144242983Y-123788572D01*
X144128050Y-123734690D01*
X144064157Y-123709422D01*
X143969980Y-123670394D01*
X143890092Y-123626720D01*
X143870910Y-123612930D01*
X143806585Y-123563563D01*
X143763332Y-123533645D01*
X143721482Y-123501419D01*
X143650357Y-123441009D01*
X143563674Y-123364139D01*
X143542815Y-123345213D01*
X143478326Y-123288516D01*
X143417286Y-123241900D01*
X143349927Y-123200627D01*
X143266480Y-123159962D01*
X143157174Y-123115166D01*
X143012240Y-123061504D01*
X142821908Y-122994239D01*
X142811305Y-122990531D01*
X142613809Y-122922116D01*
X142409364Y-122852372D01*
X142214103Y-122786728D01*
X142044161Y-122730614D01*
X141930858Y-122694212D01*
X141735377Y-122627405D01*
X141534408Y-122549262D01*
X141338214Y-122464664D01*
X141157065Y-122378488D01*
X141001228Y-122295614D01*
X140880971Y-122220920D01*
X140807643Y-122160479D01*
X140749061Y-122104688D01*
X140673488Y-122042224D01*
X140663501Y-122034626D01*
X140600719Y-121983106D01*
X140561441Y-121942790D01*
X140557610Y-121936630D01*
X140524054Y-121910887D01*
X140454180Y-121878145D01*
X140413214Y-121862796D01*
X140282065Y-121817369D01*
X139980501Y-121993208D01*
X139853158Y-122069609D01*
X139737326Y-122142980D01*
X139646791Y-122204357D01*
X139599260Y-122241088D01*
X139545068Y-122279956D01*
X139449977Y-122338077D01*
X139325665Y-122408694D01*
X139183810Y-122485047D01*
X139124141Y-122516006D01*
X138962422Y-122597812D01*
X138838209Y-122656880D01*
X138737538Y-122698611D01*
X138646445Y-122728407D01*
X138550964Y-122751669D01*
X138476722Y-122766453D01*
X138358495Y-122792083D01*
X138260824Y-122819353D01*
X138199451Y-122843634D01*
X138189040Y-122850990D01*
X138171942Y-122907077D01*
X138201521Y-122982456D01*
X138272883Y-123068469D01*
X138348480Y-123132947D01*
X138425113Y-123197135D01*
X138482772Y-123257025D01*
X138500107Y-123282400D01*
X138547939Y-123341514D01*
X138586937Y-123369525D01*
X138677139Y-123445871D01*
X138743793Y-123555833D01*
X138773225Y-123675204D01*
X138773379Y-123699601D01*
X138773564Y-123788552D01*
X138778964Y-123906064D01*
X138785734Y-123995540D01*
X138802824Y-124183383D01*
X138922606Y-124288741D01*
X139001479Y-124351528D01*
X139072148Y-124396840D01*
X139101934Y-124409708D01*
X139155822Y-124433524D01*
X139173522Y-124451146D01*
X139211905Y-124486493D01*
X139299132Y-124539509D01*
X139429089Y-124607357D01*
X139595657Y-124687204D01*
X139792721Y-124776215D01*
X140014165Y-124871553D01*
X140253874Y-124970384D01*
X140505730Y-125069874D01*
X140521087Y-125075800D01*
X140681191Y-125138180D01*
X140831347Y-125197932D01*
X140958759Y-125249878D01*
X141050636Y-125288833D01*
X141079644Y-125302009D01*
X141167408Y-125343455D01*
X141242188Y-125377092D01*
X141320555Y-125409812D01*
X141419077Y-125448510D01*
X141554325Y-125500077D01*
X141570746Y-125506296D01*
X141689937Y-125552789D01*
X141765325Y-125587931D01*
X141808431Y-125619871D01*
X141830777Y-125656756D01*
X141842070Y-125698148D01*
X141861251Y-125760476D01*
X141899159Y-125863357D01*
X141950738Y-125993724D01*
X142010930Y-126138504D01*
X142026568Y-126175039D01*
X142190132Y-126554897D01*
X142439679Y-126662013D01*
X142546079Y-126705983D01*
X142694270Y-126764855D01*
X142870928Y-126833459D01*
X143062721Y-126906622D01*
X143256326Y-126979172D01*
X143271393Y-126984758D01*
X143445552Y-127050887D01*
X143600827Y-127112934D01*
X143728788Y-127167276D01*
X143821004Y-127210292D01*
X143869041Y-127238358D01*
X143873665Y-127243501D01*
X143912077Y-127283507D01*
X143980934Y-127326760D01*
X143995900Y-127334067D01*
X144069117Y-127378057D01*
X144084670Y-127415791D01*
X144047977Y-127446208D01*
X144011749Y-127441347D01*
X143929251Y-127419124D01*
X143809322Y-127382279D01*
X143660801Y-127333548D01*
X143492530Y-127275668D01*
X143458552Y-127263685D01*
X143280108Y-127201805D01*
X143112724Y-127146179D01*
X142967144Y-127100190D01*
X142854111Y-127067222D01*
X142784369Y-127050660D01*
X142780220Y-127050039D01*
X142666940Y-127028487D01*
X142553141Y-126997771D01*
X142544095Y-126994778D01*
X142466349Y-126970017D01*
X142398761Y-126954240D01*
X142319699Y-126943767D01*
X142207534Y-126934917D01*
X142182377Y-126933227D01*
X142103430Y-126924643D01*
X142051666Y-126903202D01*
X142008018Y-126855682D01*
X141959153Y-126778419D01*
X141894937Y-126673221D01*
X141817839Y-126549290D01*
X141759052Y-126456271D01*
X141692306Y-126347853D01*
X141611853Y-126211610D01*
X141531705Y-126071416D01*
X141505499Y-126024346D01*
X141364457Y-125768760D01*
X141165743Y-125699611D01*
X141033209Y-125654262D01*
X140878780Y-125602543D01*
X140739738Y-125556905D01*
X140449074Y-125454573D01*
X140129665Y-125327407D01*
X139801418Y-125183347D01*
X139789301Y-125177768D01*
X139600610Y-125091389D01*
X139437071Y-125018272D01*
X139271009Y-124946180D01*
X139130427Y-124886379D01*
X139035067Y-124843246D01*
X138906791Y-124781413D01*
X138764304Y-124710037D01*
X138658627Y-124655365D01*
X138527035Y-124585231D01*
X138436810Y-124532791D01*
X138377052Y-124489105D01*
X138336859Y-124445236D01*
X138305331Y-124392249D01*
X138284171Y-124348362D01*
X138237098Y-124216553D01*
X138229202Y-124096935D01*
X138231085Y-124078366D01*
X138223526Y-123951218D01*
X138180161Y-123806909D01*
X138110430Y-123665618D01*
X138023767Y-123547521D01*
X137954569Y-123487114D01*
X137884085Y-123433616D01*
X137836113Y-123384116D01*
X137829386Y-123373072D01*
X137789791Y-123326525D01*
X137725393Y-123279755D01*
X137651649Y-123230084D01*
X137598235Y-123183255D01*
X137537930Y-123136573D01*
X137499780Y-123120024D01*
X137443128Y-123085777D01*
X137424947Y-123060959D01*
X137393629Y-123024082D01*
X137326957Y-122962350D01*
X137236476Y-122886141D01*
X137182589Y-122843248D01*
X137079226Y-122760075D01*
X136988583Y-122682608D01*
X136924441Y-122622818D01*
X136907242Y-122604074D01*
X136839348Y-122540536D01*
X136771240Y-122496198D01*
X136706853Y-122454227D01*
X136670139Y-122413887D01*
X136628861Y-122368669D01*
X136594672Y-122348265D01*
X136542772Y-122318198D01*
X136462801Y-122264087D01*
X136379622Y-122203279D01*
X136279275Y-122133114D01*
X136179298Y-122072623D01*
X136113925Y-122040431D01*
X136060778Y-122021087D01*
X136016774Y-122015397D01*
X135967107Y-122027010D01*
X135896968Y-122059574D01*
X135791553Y-122116738D01*
X135781307Y-122122399D01*
X135647324Y-122202858D01*
X135505690Y-122298056D01*
X135385273Y-122388505D01*
X135376696Y-122395552D01*
X135276643Y-122473985D01*
X135179726Y-122542345D01*
X135105376Y-122587014D01*
X135099654Y-122589782D01*
X135013294Y-122641561D01*
X134925203Y-122711040D01*
X134909999Y-122725351D01*
X134833718Y-122792903D01*
X134734510Y-122871539D01*
X134665769Y-122921683D01*
X134563511Y-122996825D01*
X134463459Y-123076377D01*
X134411160Y-123121595D01*
X134332981Y-123184107D01*
X134226147Y-123258131D01*
X134113863Y-123327596D01*
X134013111Y-123384126D01*
X133946947Y-123414443D01*
X133899794Y-123422746D01*
X133856079Y-123413230D01*
X133831835Y-123403606D01*
X133760198Y-123370870D01*
X133649351Y-123317173D01*
X133511977Y-123248905D01*
X133360761Y-123172456D01*
X133208383Y-123094218D01*
X133067530Y-123020581D01*
X132996370Y-122982638D01*
X132886041Y-122925378D01*
X132779584Y-122873646D01*
X132708271Y-122842103D01*
X132622599Y-122804091D01*
X132514379Y-122751260D01*
X132440925Y-122713066D01*
X132312349Y-122647235D01*
X132215056Y-122609868D01*
X132130196Y-122598967D01*
X132038921Y-122612535D01*
X131922381Y-122648577D01*
X131901267Y-122655899D01*
X131772924Y-122696148D01*
X131644115Y-122729146D01*
X131541706Y-122748048D01*
X131537617Y-122748516D01*
X131427077Y-122771921D01*
X131291258Y-122817128D01*
X131182626Y-122862929D01*
X131065888Y-122913905D01*
X130993404Y-122936594D01*
X130959047Y-122932761D01*
X130955853Y-122928222D01*
X130956201Y-122884363D01*
X130972197Y-122803791D01*
X130995853Y-122719049D01*
X131028845Y-122604643D01*
X131066526Y-122460294D01*
X131101775Y-122313523D01*
X131108273Y-122284649D01*
X131165650Y-122025984D01*
X131349143Y-121956234D01*
X131459559Y-121920050D01*
X131562341Y-121896031D01*
X131625545Y-121889669D01*
X131705176Y-121882209D01*
X131811715Y-121859630D01*
X131886974Y-121837908D01*
X131993927Y-121808249D01*
X132091729Y-121789792D01*
X132140931Y-121786463D01*
X132195064Y-121801020D01*
X132289884Y-121839017D01*
X132414664Y-121895662D01*
X132558674Y-121966158D01*
X132659979Y-122018436D01*
X132873991Y-122129716D01*
X133060495Y-122222744D01*
X133239426Y-122306848D01*
X133430712Y-122391354D01*
X133654291Y-122485590D01*
X133689299Y-122500089D01*
X133855669Y-122568878D01*
X133973554Y-122472132D01*
X134051568Y-122415042D01*
X134163046Y-122342156D01*
X134289656Y-122265215D01*
X134356075Y-122227118D01*
X134478084Y-122154267D01*
X134589116Y-122079987D01*
X134673209Y-122015327D01*
X134703119Y-121986845D01*
X134779787Y-121915791D01*
X134862165Y-121859608D01*
X134875214Y-121853019D01*
X134946562Y-121809169D01*
X135034977Y-121740713D01*
X135093785Y-121688259D01*
X135197315Y-121599514D01*
X135316348Y-121511447D01*
X135374239Y-121473955D01*
X135486868Y-121397683D01*
X135603437Y-121306091D01*
X135654975Y-121260255D01*
X135799591Y-121143316D01*
X135930856Y-121081481D01*
X136053354Y-121074001D01*
X136171669Y-121120128D01*
X136233938Y-121165791D01*
X136299664Y-121219811D01*
X136351656Y-121259857D01*
X136353163Y-121260927D01*
X136532293Y-121392766D01*
X136640756Y-121479432D01*
X136712333Y-121532337D01*
X136775197Y-121568001D01*
X136780738Y-121570190D01*
X136837990Y-121609074D01*
X136857806Y-121636517D01*
X136896029Y-121679097D01*
X136964795Y-121728444D01*
X136987761Y-121741705D01*
X137057803Y-121783771D01*
X137101813Y-121817520D01*
X137107351Y-121824663D01*
X137139089Y-121853396D01*
X137200475Y-121889962D01*
X137203163Y-121891330D01*
X137269471Y-121935236D01*
X137309292Y-121980122D01*
X137349923Y-122026495D01*
X137409497Y-122066572D01*
X137489905Y-122119848D01*
X137551326Y-122174702D01*
X137597489Y-122213855D01*
X137649235Y-122224698D01*
X137728288Y-122210228D01*
X137755373Y-122202864D01*
X137874797Y-122174937D01*
X138006676Y-122151895D01*
X138050205Y-122146288D01*
X138133064Y-122126628D01*
X138258784Y-122083372D01*
X138418531Y-122020655D01*
X138603473Y-121942606D01*
X138804774Y-121853358D01*
X139013604Y-121757043D01*
X139221127Y-121657792D01*
X139418510Y-121559739D01*
X139596920Y-121467014D01*
X139747524Y-121383748D01*
X139861487Y-121314075D01*
X139918720Y-121272283D01*
X140019784Y-121194637D01*
X140126950Y-121124366D01*
X140193209Y-121088402D01*
X140278442Y-121054320D01*
X140341369Y-121050307D01*
X140409783Y-121075919D01*
X140426776Y-121084665D01*
X140499406Y-121129035D01*
X140597744Y-121197366D01*
X140711150Y-121281277D01*
X140828979Y-121372387D01*
X140940589Y-121462313D01*
X141035336Y-121542672D01*
X141102578Y-121605084D01*
X141130892Y-121639211D01*
X141163280Y-121679745D01*
X141228256Y-121744000D01*
X141311990Y-121819821D01*
X141400654Y-121895060D01*
X141480417Y-121957568D01*
X141534063Y-121993396D01*
X141613753Y-122025277D01*
X141724588Y-122055511D01*
X141816787Y-122073258D01*
X141918653Y-122090796D01*
X142012522Y-122112835D01*
X142110512Y-122143638D01*
X142224747Y-122187469D01*
X142367344Y-122248594D01*
X142550429Y-122331275D01*
X142551379Y-122331710D01*
X142678819Y-122388025D01*
X142791314Y-122434076D01*
X142875556Y-122464636D01*
X142915209Y-122474545D01*
X142962515Y-122474584D01*
X143003719Y-122465360D01*
X143041957Y-122441362D01*
X143080364Y-122397075D01*
X143122076Y-122326988D01*
X143170231Y-122225590D01*
X143227963Y-122087367D01*
X143298408Y-121906806D01*
X143384703Y-121678396D01*
X143416547Y-121593311D01*
X143497195Y-121379028D01*
X143574452Y-121176496D01*
X143645084Y-120993984D01*
X143705855Y-120839766D01*
X143753532Y-120722110D01*
X143784882Y-120649286D01*
X143789495Y-120639643D01*
X143855455Y-120507225D01*
X144515511Y-120210590D01*
X144720154Y-120118752D01*
X144878462Y-120048489D01*
X144997597Y-119997313D01*
X145084724Y-119962741D01*
X145147006Y-119942283D01*
X145191606Y-119933453D01*
X145225687Y-119933768D01*
X145256413Y-119940738D01*
X145275447Y-119946828D01*
X145375326Y-119979701D01*
X145319840Y-120053828D01*
X145288249Y-120086003D01*
X145234504Y-120124245D01*
X145151947Y-120172241D01*
X145033919Y-120233674D01*
X144873759Y-120312233D01*
X144723825Y-120383737D01*
X144541618Y-120470187D01*
X144405432Y-120535937D01*
X144308209Y-120585262D01*
X144242889Y-120622434D01*
X144202416Y-120651727D01*
X144179731Y-120677415D01*
X144167774Y-120703771D01*
X144162303Y-120723728D01*
X144155892Y-120821674D01*
X144194575Y-120901358D01*
X144283423Y-120969695D01*
X144374449Y-121012948D01*
X144483469Y-121059001D01*
X144620246Y-121118316D01*
X144759185Y-121179766D01*
X144790504Y-121193819D01*
X145028213Y-121297440D01*
X145257318Y-121390899D01*
X145470416Y-121471635D01*
X145660102Y-121537091D01*
X145818972Y-121584709D01*
X145939624Y-121611930D01*
X146013460Y-121616380D01*
X146099668Y-121610635D01*
X146166193Y-121617879D01*
X146175389Y-121621245D01*
X146231383Y-121633293D01*
X146251651Y-121629463D01*
X146292311Y-121624540D01*
X146377387Y-121622274D01*
X146492685Y-121622870D01*
X146573974Y-121624792D01*
X146701276Y-121627145D01*
X146807550Y-121626263D01*
X146878470Y-121622418D01*
X146898454Y-121618641D01*
X146947690Y-121614320D01*
X147021520Y-121624843D01*
X147023148Y-121625220D01*
X147098417Y-121635673D01*
X147150902Y-121630660D01*
X147151320Y-121630473D01*
X147199051Y-121621931D01*
X147283560Y-121617468D01*
X147350513Y-121617481D01*
X147446450Y-121617083D01*
X147519346Y-121612434D01*
X147545075Y-121607366D01*
X147588203Y-121601263D01*
X147670870Y-121597776D01*
X147774002Y-121597009D01*
X147878531Y-121599063D01*
X147965386Y-121604039D01*
X147975783Y-121605052D01*
X148044461Y-121607555D01*
X148105645Y-121605937D01*
X148185951Y-121605078D01*
X148236301Y-121608525D01*
X148283170Y-121611965D01*
X148376660Y-121616604D01*
X148504756Y-121621915D01*
X148655445Y-121627380D01*
X148715271Y-121629360D01*
X148871118Y-121634465D01*
X149008674Y-121639128D01*
X149115994Y-121642932D01*
X149181131Y-121645462D01*
X149192284Y-121645999D01*
X149249275Y-121648436D01*
X149339844Y-121651487D01*
X149398336Y-121653205D01*
X149554503Y-121657533D01*
X149692568Y-121520773D01*
X149780347Y-121441369D01*
X149867763Y-121374359D01*
X149924067Y-121340450D01*
X150003830Y-121287249D01*
X150080298Y-121212141D01*
X150091904Y-121197469D01*
X150149942Y-121129370D01*
X150202666Y-121082457D01*
X150213946Y-121075835D01*
X150261078Y-121039655D01*
X150321351Y-120976028D01*
X150341074Y-120951829D01*
X150423134Y-120863115D01*
X150505174Y-120818655D01*
X150604731Y-120813230D01*
X150724726Y-120837654D01*
X150821323Y-120860572D01*
X150895392Y-120872912D01*
X150927260Y-120872661D01*
X150972085Y-120870107D01*
X151039784Y-120880697D01*
X151133602Y-120888712D01*
X151219520Y-120879871D01*
X151300149Y-120871942D01*
X151362156Y-120882301D01*
X151428777Y-120886200D01*
X151512693Y-120856838D01*
X151591812Y-120804425D01*
X151634560Y-120756372D01*
X151687828Y-120693216D01*
X151758713Y-120630713D01*
X151760346Y-120629502D01*
X151837992Y-120558783D01*
X151904062Y-120478404D01*
X151956690Y-120412480D01*
X152006151Y-120369810D01*
X152010608Y-120367487D01*
X152057736Y-120332223D01*
X152119924Y-120269866D01*
X152143046Y-120243287D01*
X152279230Y-120081880D01*
X152381875Y-119964324D01*
X152453305Y-119888052D01*
X152495849Y-119850494D01*
X152501875Y-119847023D01*
X152540586Y-119813009D01*
X152589283Y-119751415D01*
X152595358Y-119742462D01*
X152701316Y-119619420D01*
X152819053Y-119553384D01*
X152951351Y-119543392D01*
X153074239Y-119576984D01*
G37*
G36*
X159403681Y-141462297D02*
G01*
X159433683Y-141471919D01*
X159452114Y-141479644D01*
X159548748Y-141521097D01*
X159487012Y-141590106D01*
X159452737Y-141619405D01*
X159395864Y-141652818D01*
X159309438Y-141693435D01*
X159186504Y-141744348D01*
X159020108Y-141808649D01*
X158864512Y-141866814D01*
X158675463Y-141937054D01*
X158534066Y-141990685D01*
X158432913Y-142031348D01*
X158364602Y-142062685D01*
X158321730Y-142088340D01*
X158296892Y-142111953D01*
X158282684Y-142137167D01*
X158275494Y-142156571D01*
X158260571Y-142253585D01*
X158292162Y-142336338D01*
X158374716Y-142412158D01*
X158461626Y-142463180D01*
X158566217Y-142518560D01*
X158697305Y-142589570D01*
X158830359Y-142662895D01*
X158860334Y-142679624D01*
X159088107Y-142803569D01*
X159308195Y-142916640D01*
X159513445Y-143015641D01*
X159696705Y-143097380D01*
X159850820Y-143158664D01*
X159968641Y-143196297D01*
X160041807Y-143207165D01*
X160128188Y-143208955D01*
X160193829Y-143221970D01*
X160202697Y-143226124D01*
X160257428Y-143243007D01*
X160277952Y-143240958D01*
X160318887Y-143239597D01*
X160403836Y-143244755D01*
X160518643Y-143255397D01*
X160599455Y-143264397D01*
X160726068Y-143277836D01*
X160832014Y-143286220D01*
X160903000Y-143288570D01*
X160923237Y-143286550D01*
X160972662Y-143286537D01*
X161045294Y-143303454D01*
X161046882Y-143303971D01*
X161120955Y-143320945D01*
X161173677Y-143320525D01*
X161174110Y-143320375D01*
X161222403Y-143316026D01*
X161306980Y-143318945D01*
X161373676Y-143324794D01*
X161469283Y-143332759D01*
X161542307Y-143334481D01*
X161568380Y-143331675D01*
X161611876Y-143329354D01*
X161694532Y-143333085D01*
X161797339Y-143341309D01*
X161901290Y-143352465D01*
X161987381Y-143364993D01*
X161997650Y-143366908D01*
X162065849Y-143375387D01*
X162126941Y-143379108D01*
X162207016Y-143385251D01*
X162256875Y-143393073D01*
X162303266Y-143400586D01*
X162395995Y-143413354D01*
X162523141Y-143429810D01*
X162672780Y-143448388D01*
X162732206Y-143455574D01*
X162887015Y-143474243D01*
X163023641Y-143490877D01*
X163130221Y-143504020D01*
X163194890Y-143512217D01*
X163205954Y-143513724D01*
X163262515Y-143521119D01*
X163352474Y-143532052D01*
X163410594Y-143538861D01*
X163565789Y-143556784D01*
X163715248Y-143432577D01*
X163809613Y-143361126D01*
X163902538Y-143301989D01*
X163961583Y-143273117D01*
X164045678Y-143227070D01*
X164128402Y-143158913D01*
X164141242Y-143145308D01*
X164204994Y-143082527D01*
X164261607Y-143040387D01*
X164273421Y-143034773D01*
X164323527Y-143002839D01*
X164389116Y-142944707D01*
X164410873Y-142922319D01*
X164500352Y-142841095D01*
X164585956Y-142803954D01*
X164685607Y-142807227D01*
X164803016Y-142842017D01*
X164897248Y-142873266D01*
X164969960Y-142892015D01*
X165001729Y-142894542D01*
X165046605Y-142895904D01*
X165113124Y-142912354D01*
X165205887Y-142928515D01*
X165292248Y-142927197D01*
X165373261Y-142926325D01*
X165434129Y-142942049D01*
X165500157Y-142951739D01*
X165586312Y-142929803D01*
X165669699Y-142884485D01*
X165716472Y-142840341D01*
X165775042Y-142782068D01*
X165851105Y-142725980D01*
X165852837Y-142724917D01*
X165936351Y-142661234D01*
X166009175Y-142586919D01*
X166067349Y-142525833D01*
X166120340Y-142487637D01*
X166124983Y-142485711D01*
X166175005Y-142454688D01*
X166242392Y-142397988D01*
X166267742Y-142373526D01*
X166417475Y-142224602D01*
X166529975Y-142116440D01*
X166607781Y-142046683D01*
X166653436Y-142012977D01*
X166659742Y-142010044D01*
X166701270Y-141979533D01*
X166755150Y-141922418D01*
X166761983Y-141914028D01*
X166878261Y-141800689D01*
X167001305Y-141745166D01*
X167133971Y-141746742D01*
X167253463Y-141790917D01*
X167331583Y-141834964D01*
X167427214Y-141894743D01*
X167527135Y-141961190D01*
X167618127Y-142025239D01*
X167686966Y-142077823D01*
X167720434Y-142109880D01*
X167721390Y-142111769D01*
X167748639Y-142139960D01*
X167810203Y-142189208D01*
X167877459Y-142238019D01*
X167970377Y-142303093D01*
X168054690Y-142362527D01*
X168096616Y-142392347D01*
X168165730Y-142438391D01*
X168216862Y-142467857D01*
X168261912Y-142498813D01*
X168272863Y-142513411D01*
X168309708Y-142550980D01*
X168390875Y-142600911D01*
X168504698Y-142658051D01*
X168639515Y-142717240D01*
X168783664Y-142773324D01*
X168925484Y-142821145D01*
X169039580Y-142852411D01*
X169104915Y-142867969D01*
X169200304Y-142890946D01*
X169258114Y-142904957D01*
X169349347Y-142924485D01*
X169417761Y-142934335D01*
X169440348Y-142933984D01*
X169496851Y-142937961D01*
X169572284Y-142966081D01*
X169644548Y-143007072D01*
X169691544Y-143049668D01*
X169698475Y-143065624D01*
X169688600Y-143107147D01*
X169641773Y-143130511D01*
X169552788Y-143136223D01*
X169416438Y-143124791D01*
X169284463Y-143105985D01*
X169211543Y-143094238D01*
X169148094Y-143083012D01*
X169082557Y-143069719D01*
X169003375Y-143051767D01*
X168898987Y-143026567D01*
X168757838Y-142991529D01*
X168622839Y-142957722D01*
X168493614Y-142926413D01*
X168385772Y-142902335D01*
X168311704Y-142888123D01*
X168284501Y-142885788D01*
X168252039Y-142874998D01*
X168183298Y-142840573D01*
X168091578Y-142790228D01*
X167990181Y-142731679D01*
X167892409Y-142672640D01*
X167811562Y-142620829D01*
X167760942Y-142583959D01*
X167755491Y-142578931D01*
X167713301Y-142542521D01*
X167642698Y-142486983D01*
X167594092Y-142450400D01*
X167508863Y-142385064D01*
X167434453Y-142324189D01*
X167407181Y-142299942D01*
X167311884Y-142221475D01*
X167217275Y-142162758D01*
X167138099Y-142131816D01*
X167097895Y-142131599D01*
X167047250Y-142164290D01*
X166982933Y-142223186D01*
X166965072Y-142242368D01*
X166905345Y-142303273D01*
X166857108Y-142342542D01*
X166847328Y-142347649D01*
X166806953Y-142376250D01*
X166748750Y-142432154D01*
X166729584Y-142452929D01*
X166667990Y-142514733D01*
X166615874Y-142555399D01*
X166605086Y-142560784D01*
X166559861Y-142592794D01*
X166503462Y-142651310D01*
X166495240Y-142661350D01*
X166420784Y-142737062D01*
X166336874Y-142800033D01*
X166336272Y-142800389D01*
X166270324Y-142849403D01*
X166230212Y-142897495D01*
X166228345Y-142901931D01*
X166192509Y-142950879D01*
X166131591Y-143000230D01*
X166056762Y-143062784D01*
X165996458Y-143134496D01*
X165942346Y-143194601D01*
X165860621Y-143242998D01*
X165774301Y-143277129D01*
X165687679Y-143303645D01*
X165604136Y-143317384D01*
X165506414Y-143319192D01*
X165377256Y-143309912D01*
X165290199Y-143300790D01*
X165150792Y-143283889D01*
X165025231Y-143266096D01*
X164929898Y-143249875D01*
X164889246Y-143240571D01*
X164777438Y-143235752D01*
X164655165Y-143278452D01*
X164536944Y-143363115D01*
X164516255Y-143383365D01*
X164449905Y-143445135D01*
X164392954Y-143487587D01*
X164379202Y-143494614D01*
X164335560Y-143520210D01*
X164260186Y-143572535D01*
X164167165Y-143641687D01*
X164137729Y-143664384D01*
X164039852Y-143737379D01*
X163953648Y-143791645D01*
X163860578Y-143836531D01*
X163742105Y-143881390D01*
X163637744Y-143916592D01*
X163490265Y-143962896D01*
X163386656Y-143989328D01*
X163316379Y-143997943D01*
X163268897Y-143990805D01*
X163265224Y-143989395D01*
X163185304Y-143972311D01*
X163107391Y-143971853D01*
X163010490Y-143970058D01*
X162933117Y-143954821D01*
X162863242Y-143938792D01*
X162818565Y-143938849D01*
X162783389Y-143938604D01*
X162700377Y-143932910D01*
X162579995Y-143922810D01*
X162432706Y-143909349D01*
X162268976Y-143893573D01*
X162099271Y-143876527D01*
X161934052Y-143859253D01*
X161783786Y-143842800D01*
X161658938Y-143828209D01*
X161569970Y-143816526D01*
X161534924Y-143810696D01*
X161396166Y-143795855D01*
X161253264Y-143802226D01*
X161244595Y-143803473D01*
X161183049Y-143824842D01*
X161159986Y-143875783D01*
X161158160Y-143892821D01*
X161162507Y-143942778D01*
X161187913Y-144001428D01*
X161241160Y-144081453D01*
X161301389Y-144160499D01*
X161374341Y-144257599D01*
X161434010Y-144344334D01*
X161469759Y-144405046D01*
X161473588Y-144413980D01*
X161504974Y-144471418D01*
X161560858Y-144551060D01*
X161603448Y-144604629D01*
X161675085Y-144696065D01*
X161738931Y-144787333D01*
X161763917Y-144828149D01*
X161816923Y-144893979D01*
X161898661Y-144945481D01*
X162017216Y-144985656D01*
X162180666Y-145017504D01*
X162324328Y-145036249D01*
X162443548Y-145050138D01*
X162544298Y-145062590D01*
X162609141Y-145071425D01*
X162618609Y-145072977D01*
X162670170Y-145079945D01*
X162762578Y-145090376D01*
X162878271Y-145102317D01*
X162911383Y-145105562D01*
X163030553Y-145117912D01*
X163131368Y-145129826D01*
X163196172Y-145139175D01*
X163205187Y-145140980D01*
X163274087Y-145151114D01*
X163335250Y-145155302D01*
X163415169Y-145161125D01*
X163464872Y-145168412D01*
X163517708Y-145175642D01*
X163610335Y-145184834D01*
X163724009Y-145194155D01*
X163739975Y-145195326D01*
X163855108Y-145204618D01*
X163951776Y-145214181D01*
X164011205Y-145222128D01*
X164015345Y-145222973D01*
X164090233Y-145232210D01*
X164123036Y-145232816D01*
X164176258Y-145235591D01*
X164271197Y-145244367D01*
X164391408Y-145257543D01*
X164453376Y-145264975D01*
X164585075Y-145278770D01*
X164704632Y-145286962D01*
X164793180Y-145288425D01*
X164817196Y-145286682D01*
X164888239Y-145283822D01*
X164931707Y-145293826D01*
X164970851Y-145307605D01*
X165051488Y-145326115D01*
X165157068Y-145345612D01*
X165170187Y-145347768D01*
X165302966Y-145376604D01*
X165381927Y-145413111D01*
X165411762Y-145460771D01*
X165399576Y-145518065D01*
X165363737Y-145547402D01*
X165293272Y-145547585D01*
X165217459Y-145543563D01*
X165167473Y-145549904D01*
X165121011Y-145553945D01*
X165035126Y-145552156D01*
X164928636Y-145545720D01*
X164820359Y-145535827D01*
X164729110Y-145523658D01*
X164717048Y-145521524D01*
X164655010Y-145513326D01*
X164568369Y-145505402D01*
X164554759Y-145504417D01*
X164396876Y-145493243D01*
X164236621Y-145481522D01*
X164099466Y-145471127D01*
X164057647Y-145467831D01*
X163981642Y-145462852D01*
X163869334Y-145456793D01*
X163743033Y-145450846D01*
X163723425Y-145450001D01*
X163596935Y-145444145D01*
X163480922Y-145437936D01*
X163397709Y-145432582D01*
X163389104Y-145431900D01*
X163199240Y-145416972D01*
X163052711Y-145407181D01*
X162954408Y-145402805D01*
X162909221Y-145404126D01*
X162908163Y-145404443D01*
X162870282Y-145405926D01*
X162793212Y-145402241D01*
X162723981Y-145396813D01*
X162597709Y-145386029D01*
X162466776Y-145375675D01*
X162415283Y-145371902D01*
X162323842Y-145364872D01*
X162194295Y-145354143D01*
X162046943Y-145341422D01*
X161954893Y-145333225D01*
X161824194Y-145322263D01*
X161715673Y-145314728D01*
X161642279Y-145311421D01*
X161617596Y-145312343D01*
X161580064Y-145305293D01*
X161513992Y-145278145D01*
X161497670Y-145270159D01*
X161450330Y-145242151D01*
X161411399Y-145205005D01*
X161373066Y-145147138D01*
X161327517Y-145056969D01*
X161273670Y-144938121D01*
X161213535Y-144810283D01*
X161152870Y-144694425D01*
X161100409Y-144606642D01*
X161075684Y-144573206D01*
X161023144Y-144502896D01*
X160959943Y-144403433D01*
X160909092Y-144313497D01*
X160838794Y-144196241D01*
X160766874Y-144115381D01*
X160688342Y-144058308D01*
X160611264Y-144015148D01*
X160554098Y-143990924D01*
X160537122Y-143988911D01*
X160497911Y-143983350D01*
X160415148Y-143959157D01*
X160299442Y-143920234D01*
X160161397Y-143870495D01*
X160011620Y-143813843D01*
X159860716Y-143754188D01*
X159719293Y-143695436D01*
X159612660Y-143648301D01*
X159364741Y-143530766D01*
X159096894Y-143397631D01*
X158832789Y-143260938D01*
X158596095Y-143132722D01*
X158567211Y-143116538D01*
X158453723Y-143056919D01*
X158346711Y-143007998D01*
X158265830Y-142978599D01*
X158253225Y-142975574D01*
X158181397Y-142966455D01*
X158133885Y-142983908D01*
X158086437Y-143029844D01*
X158036079Y-143093245D01*
X157989181Y-143174121D01*
X157940069Y-143284230D01*
X157883068Y-143435335D01*
X157861776Y-143495582D01*
X157815728Y-143622010D01*
X157765924Y-143750620D01*
X157730627Y-143835992D01*
X157688519Y-143953054D01*
X157655954Y-144078654D01*
X157648227Y-144122661D01*
X157638240Y-144209751D01*
X157643752Y-144261150D01*
X157670929Y-144299084D01*
X157705475Y-144328972D01*
X157763268Y-144384844D01*
X157797437Y-144433164D01*
X157798137Y-144434961D01*
X157827749Y-144477904D01*
X157886555Y-144541205D01*
X157929685Y-144581993D01*
X157999322Y-144650722D01*
X158049668Y-144711453D01*
X158063792Y-144736063D01*
X158098455Y-144787415D01*
X158166007Y-144859093D01*
X158251713Y-144937188D01*
X158340831Y-145007786D01*
X158380311Y-145034811D01*
X158452406Y-145082410D01*
X158524302Y-145133987D01*
X158613466Y-145202373D01*
X158682656Y-145256921D01*
X158763762Y-145321043D01*
X158833819Y-145376134D01*
X158858854Y-145395672D01*
X158918546Y-145446915D01*
X158985522Y-145510759D01*
X158985917Y-145511157D01*
X159043798Y-145562483D01*
X159088480Y-145590231D01*
X159091515Y-145591062D01*
X159131148Y-145614411D01*
X159192759Y-145665420D01*
X159222831Y-145693662D01*
X159311716Y-145777006D01*
X159406773Y-145861315D01*
X159424586Y-145876439D01*
X159584198Y-146013135D01*
X159720859Y-146135570D01*
X159828800Y-146238256D01*
X159902254Y-146315703D01*
X159935453Y-146362423D01*
X159935587Y-146362783D01*
X159933345Y-146412987D01*
X159892898Y-146438446D01*
X159796064Y-146442946D01*
X159694849Y-146398371D01*
X159615059Y-146324536D01*
X159550151Y-146263247D01*
X159483203Y-146225487D01*
X159479346Y-146224358D01*
X159421638Y-146198576D01*
X159399041Y-146174973D01*
X159371591Y-146143666D01*
X159309044Y-146088649D01*
X159223775Y-146020664D01*
X159204173Y-146005770D01*
X159110570Y-145934946D01*
X159031321Y-145874424D01*
X158981477Y-145835710D01*
X158977145Y-145832235D01*
X158863255Y-145744736D01*
X158718958Y-145640844D01*
X158564104Y-145534417D01*
X158418547Y-145439309D01*
X158377884Y-145413964D01*
X158337955Y-145387201D01*
X158266956Y-145337767D01*
X158194169Y-145286253D01*
X158088749Y-145216784D01*
X157978949Y-145153090D01*
X157917502Y-145122349D01*
X157827084Y-145075262D01*
X157751307Y-145024792D01*
X157733400Y-145009382D01*
X157673622Y-144954596D01*
X157633142Y-144921023D01*
X157594260Y-144885272D01*
X157528670Y-144818893D01*
X157449016Y-144734760D01*
X157429886Y-144714088D01*
X157370584Y-144651987D01*
X157313839Y-144600228D01*
X157250334Y-144553242D01*
X157170749Y-144505458D01*
X157065762Y-144451306D01*
X156926057Y-144385217D01*
X156742313Y-144301618D01*
X156732073Y-144297001D01*
X156541291Y-144211633D01*
X156343702Y-144124336D01*
X156154906Y-144041924D01*
X155990501Y-143971212D01*
X155880802Y-143925073D01*
X155691888Y-143841483D01*
X155498493Y-143746122D01*
X155310419Y-143644747D01*
X155137471Y-143543110D01*
X154989450Y-143446969D01*
X154876160Y-143362079D01*
X154808378Y-143295477D01*
X154754883Y-143234792D01*
X154685041Y-143165979D01*
X154675754Y-143157540D01*
X154617701Y-143100744D01*
X154582086Y-143057158D01*
X154578807Y-143050688D01*
X154547623Y-143022118D01*
X154480868Y-142983410D01*
X154441396Y-142964550D01*
X154314705Y-142907865D01*
X153998963Y-143056753D01*
X153865446Y-143121764D01*
X153743660Y-143184760D01*
X153648121Y-143238013D01*
X153597569Y-143270462D01*
X153540196Y-143304459D01*
X153440400Y-143354071D01*
X153310407Y-143413584D01*
X153162437Y-143477283D01*
X153100297Y-143502924D01*
X152932063Y-143570324D01*
X152803175Y-143618341D01*
X152699250Y-143651140D01*
X152605906Y-143672882D01*
X152508761Y-143687734D01*
X152433514Y-143695992D01*
X152313503Y-143711220D01*
X152213827Y-143729873D01*
X152150571Y-143748713D01*
X152139559Y-143755134D01*
X152117637Y-143809517D01*
X152140534Y-143887187D01*
X152204128Y-143979092D01*
X152273817Y-144049914D01*
X152344564Y-144120536D01*
X152396785Y-144185224D01*
X152411842Y-144212014D01*
X152454340Y-144275072D01*
X152490748Y-144306375D01*
X152573953Y-144390292D01*
X152630769Y-144505644D01*
X152649685Y-144627127D01*
X152647712Y-144651444D01*
X152640145Y-144740073D01*
X152635282Y-144857608D01*
X152634227Y-144947334D01*
X152634881Y-145135951D01*
X152745025Y-145251348D01*
X152818126Y-145320771D01*
X152884576Y-145372069D01*
X152913128Y-145387485D01*
X152964735Y-145415906D01*
X152980831Y-145435004D01*
X153015988Y-145473561D01*
X153098262Y-145533978D01*
X153221811Y-145612895D01*
X153380786Y-145706955D01*
X153569342Y-145812803D01*
X153781635Y-145927078D01*
X154011818Y-146046425D01*
X154254044Y-146167487D01*
X154268827Y-146174729D01*
X154422884Y-146250825D01*
X154567261Y-146323438D01*
X154689661Y-146386291D01*
X154777793Y-146433105D01*
X154805542Y-146448758D01*
X154889361Y-146497696D01*
X154960924Y-146537723D01*
X155036141Y-146577149D01*
X155130915Y-146624286D01*
X155261154Y-146687444D01*
X155276971Y-146695071D01*
X155391656Y-146751775D01*
X155463694Y-146793354D01*
X155503852Y-146828929D01*
X155522899Y-146867622D01*
X155530541Y-146909840D01*
X155544217Y-146973603D01*
X155573014Y-147079397D01*
X155613035Y-147213762D01*
X155660379Y-147363238D01*
X155672773Y-147400997D01*
X155802608Y-147793664D01*
X156041870Y-147922122D01*
X156144033Y-147975198D01*
X156286529Y-148046762D01*
X156456535Y-148130502D01*
X156641222Y-148220102D01*
X156827767Y-148309250D01*
X156842290Y-148316128D01*
X157010022Y-148397184D01*
X157159299Y-148472528D01*
X157282037Y-148537816D01*
X157370153Y-148588705D01*
X157415561Y-148620852D01*
X157419719Y-148626378D01*
X157454498Y-148669580D01*
X157519323Y-148718669D01*
X157533596Y-148727253D01*
X157602700Y-148777457D01*
X157614905Y-148816402D01*
X157575701Y-148843505D01*
X157540035Y-148835505D01*
X157459787Y-148806177D01*
X157343526Y-148759020D01*
X157199818Y-148697529D01*
X157037231Y-148625205D01*
X157004427Y-148610306D01*
X156832055Y-148533109D01*
X156670156Y-148463106D01*
X156529138Y-148404604D01*
X156419408Y-148361910D01*
X156351375Y-148339332D01*
X156347296Y-148338352D01*
X156236326Y-148307009D01*
X156125637Y-148266491D01*
X156116887Y-148262721D01*
X156041594Y-148231279D01*
X155975638Y-148209671D01*
X155897790Y-148192348D01*
X155786823Y-148173755D01*
X155761909Y-148169879D01*
X155684011Y-148154447D01*
X155634313Y-148128577D01*
X155594972Y-148077433D01*
X155553027Y-147996205D01*
X155498224Y-147885810D01*
X155432220Y-147755632D01*
X155381765Y-147657843D01*
X155324722Y-147544020D01*
X155256449Y-147401283D01*
X155188825Y-147254637D01*
X155166821Y-147205463D01*
X155048592Y-146938557D01*
X154856661Y-146852351D01*
X154728583Y-146795624D01*
X154579249Y-146730643D01*
X154444714Y-146673060D01*
X154164075Y-146545785D01*
X153856965Y-146391264D01*
X153542523Y-146219144D01*
X153530938Y-146212529D01*
X153350493Y-146110034D01*
X153193949Y-146022942D01*
X153034802Y-145936651D01*
X152899967Y-145864825D01*
X152808730Y-145813545D01*
X152686331Y-145740767D01*
X152550607Y-145657244D01*
X152450097Y-145593570D01*
X152325118Y-145512234D01*
X152239807Y-145452129D01*
X152184084Y-145403401D01*
X152147868Y-145356197D01*
X152121078Y-145300664D01*
X152103823Y-145255099D01*
X152068417Y-145119689D01*
X152070977Y-144999838D01*
X152074471Y-144981504D01*
X152078022Y-144854180D01*
X152047400Y-144706641D01*
X151990248Y-144559810D01*
X151914208Y-144434610D01*
X151850538Y-144368402D01*
X151784985Y-144308965D01*
X151741509Y-144255472D01*
X151735771Y-144243884D01*
X151700383Y-144194063D01*
X151640306Y-144141858D01*
X151571172Y-144085949D01*
X151522043Y-144034642D01*
X151466036Y-143982882D01*
X151429473Y-143963072D01*
X151376022Y-143924017D01*
X151360073Y-143897709D01*
X151332089Y-143858242D01*
X151271050Y-143790935D01*
X151187555Y-143707129D01*
X151137612Y-143659704D01*
X151041891Y-143567838D01*
X150958345Y-143482766D01*
X150899658Y-143417613D01*
X150884158Y-143397442D01*
X150822061Y-143328228D01*
X150758076Y-143278123D01*
X150697591Y-143230700D01*
X150664534Y-143187313D01*
X150627354Y-143138670D01*
X150595073Y-143115363D01*
X150545991Y-143080888D01*
X150471041Y-143020013D01*
X150393478Y-142952186D01*
X150299628Y-142873543D01*
X150205303Y-142804568D01*
X150142985Y-142766801D01*
X150091726Y-142742899D01*
X150048385Y-142733395D01*
X149997895Y-142740635D01*
X149925185Y-142766962D01*
X149815189Y-142814721D01*
X149804488Y-142819468D01*
X149664003Y-142887943D01*
X149514611Y-142970435D01*
X149386768Y-143050045D01*
X149377611Y-143056317D01*
X149271102Y-143125731D01*
X149168596Y-143185385D01*
X149090636Y-143223404D01*
X149084694Y-143225662D01*
X148994150Y-143269717D01*
X148900339Y-143331254D01*
X148883946Y-143344186D01*
X148802067Y-143404832D01*
X148696383Y-143474522D01*
X148623533Y-143518485D01*
X148515115Y-143584428D01*
X148408511Y-143654957D01*
X148352470Y-143695445D01*
X148269140Y-143750905D01*
X148156261Y-143815337D01*
X148038350Y-143874751D01*
X147933054Y-143922285D01*
X147864500Y-143946720D01*
X147816802Y-143950882D01*
X147774083Y-143937592D01*
X147750770Y-143925892D01*
X147682259Y-143887037D01*
X147576514Y-143823883D01*
X147445613Y-143743902D01*
X147301634Y-143654564D01*
X147156656Y-143563344D01*
X147022757Y-143477711D01*
X146955175Y-143433710D01*
X146850256Y-143367052D01*
X146748713Y-143306238D01*
X146680420Y-143268600D01*
X146598387Y-143223266D01*
X146495183Y-143161204D01*
X146425338Y-143116753D01*
X146302988Y-143039967D01*
X146209322Y-142994262D01*
X146125736Y-142976006D01*
X146033625Y-142981569D01*
X145914387Y-143007316D01*
X145892716Y-143012770D01*
X145761353Y-143041680D01*
X145630159Y-143063326D01*
X145526491Y-143073230D01*
X145522378Y-143073340D01*
X145410218Y-143087022D01*
X145270976Y-143120220D01*
X145158765Y-143156379D01*
X145038029Y-143196986D01*
X144963843Y-143213271D01*
X144929951Y-143206459D01*
X144927164Y-143201658D01*
X144931334Y-143157996D01*
X144954292Y-143079126D01*
X144985243Y-142996768D01*
X145028081Y-142885672D01*
X145078199Y-142745157D01*
X145126106Y-142602016D01*
X145135096Y-142573818D01*
X145214798Y-142321138D01*
X145403672Y-142267646D01*
X145516822Y-142241223D01*
X145621306Y-142226254D01*
X145684824Y-142225424D01*
X145764803Y-142224934D01*
X145872904Y-142211726D01*
X145949770Y-142196646D01*
X146058901Y-142176421D01*
X146157939Y-142166559D01*
X146207244Y-142167531D01*
X146259902Y-142186750D01*
X146351050Y-142232867D01*
X146470418Y-142300171D01*
X146607736Y-142382950D01*
X146704099Y-142443859D01*
X146907598Y-142573368D01*
X147085285Y-142682296D01*
X147256204Y-142781675D01*
X147439398Y-142882531D01*
X147653912Y-142995895D01*
X147687523Y-143013390D01*
X147847265Y-143096418D01*
X147973133Y-143010313D01*
X148055826Y-142960240D01*
X148173233Y-142897347D01*
X148306067Y-142831735D01*
X148375553Y-142799571D01*
X148503447Y-142737631D01*
X148620531Y-142673310D01*
X148709939Y-142616226D01*
X148742218Y-142590459D01*
X148824786Y-142526358D01*
X148911748Y-142477568D01*
X148925321Y-142472142D01*
X149000220Y-142434677D01*
X149094264Y-142374187D01*
X149157420Y-142327058D01*
X149268292Y-142247674D01*
X149394547Y-142170317D01*
X149455485Y-142138013D01*
X149574333Y-142071847D01*
X149698441Y-141990764D01*
X149753778Y-141949593D01*
X149908036Y-141845704D01*
X150044191Y-141795544D01*
X150166874Y-141798770D01*
X150280719Y-141855032D01*
X150338771Y-141905949D01*
X150399538Y-141965492D01*
X150447842Y-142009917D01*
X150449251Y-142011114D01*
X150616208Y-142158063D01*
X150716705Y-142253853D01*
X150783399Y-142312795D01*
X150842915Y-142353803D01*
X150848245Y-142356466D01*
X150901890Y-142400192D01*
X150919238Y-142429258D01*
X150953605Y-142475007D01*
X151017808Y-142530159D01*
X151039531Y-142545372D01*
X151105640Y-142593382D01*
X151146542Y-142630838D01*
X151151436Y-142638437D01*
X151180548Y-142669827D01*
X151238514Y-142711604D01*
X151241073Y-142713201D01*
X151303302Y-142762719D01*
X151339059Y-142810905D01*
X151375494Y-142860642D01*
X151431348Y-142905759D01*
X151506807Y-142965841D01*
X151563213Y-143025839D01*
X151605788Y-143068866D01*
X151656393Y-143084178D01*
X151736406Y-143076653D01*
X151764030Y-143071678D01*
X151885433Y-143054266D01*
X152018818Y-143042805D01*
X152062670Y-143041014D01*
X152146928Y-143028649D01*
X152275939Y-142996516D01*
X152440545Y-142947960D01*
X152631585Y-142886327D01*
X152839899Y-142814963D01*
X153056328Y-142737215D01*
X153271712Y-142656429D01*
X153476890Y-142575951D01*
X153662703Y-142499129D01*
X153819990Y-142429306D01*
X153939593Y-142369831D01*
X154000249Y-142333186D01*
X154107696Y-142264644D01*
X154220580Y-142203980D01*
X154289721Y-142173928D01*
X154377600Y-142147404D01*
X154440637Y-142148890D01*
X154506559Y-142180368D01*
X154522724Y-142190562D01*
X154591211Y-142241093D01*
X154683220Y-142317735D01*
X154788881Y-142411211D01*
X154898320Y-142512244D01*
X155001668Y-142611555D01*
X155089051Y-142699866D01*
X155150598Y-142767900D01*
X155175829Y-142804365D01*
X155204561Y-142847568D01*
X155263690Y-142917241D01*
X155340498Y-143000072D01*
X155422266Y-143082752D01*
X155496278Y-143151974D01*
X155546597Y-143192342D01*
X155623205Y-143231046D01*
X155730983Y-143270825D01*
X155821285Y-143296540D01*
X155921235Y-143322890D01*
X156012826Y-143353027D01*
X156107758Y-143392253D01*
X156217738Y-143445873D01*
X156354465Y-143519193D01*
X156529647Y-143617517D01*
X156530556Y-143618033D01*
X156652603Y-143685241D01*
X156760656Y-143740921D01*
X156841914Y-143778707D01*
X156880552Y-143792034D01*
X156927675Y-143796196D01*
X156969526Y-143790599D01*
X157009710Y-143770024D01*
X157051830Y-143729253D01*
X157099492Y-143663069D01*
X157156301Y-143566253D01*
X157225861Y-143433588D01*
X157311775Y-143259854D01*
X157417649Y-143039834D01*
X157456787Y-142957848D01*
X157555804Y-142751409D01*
X157650419Y-142556381D01*
X157736689Y-142380720D01*
X157810670Y-142232386D01*
X157868420Y-142119332D01*
X157905997Y-142049518D01*
X157911433Y-142040313D01*
X157988684Y-141914148D01*
X158672081Y-141676170D01*
X158883950Y-141602517D01*
X159047779Y-141546319D01*
X159170921Y-141505721D01*
X159260730Y-141478874D01*
X159324557Y-141463922D01*
X159369758Y-141459013D01*
X159403681Y-141462297D01*
G37*
G36*
X141410195Y-105071642D02*
G01*
X141467019Y-105130960D01*
X141522868Y-105198944D01*
X141597661Y-105291590D01*
X141694291Y-105405251D01*
X141794301Y-105518311D01*
X141814226Y-105540195D01*
X141993203Y-105735559D01*
X141945091Y-105925875D01*
X141911399Y-106037077D01*
X141872121Y-106135048D01*
X141841080Y-106190470D01*
X141801516Y-106259979D01*
X141758903Y-106360201D01*
X141733530Y-106434309D01*
X141696480Y-106538932D01*
X141655502Y-106629633D01*
X141630008Y-106671846D01*
X141587034Y-106707840D01*
X141501522Y-106763718D01*
X141383551Y-106833441D01*
X141243203Y-106910972D01*
X141142273Y-106963971D01*
X140928366Y-107075452D01*
X140745187Y-107174869D01*
X140573663Y-107273200D01*
X140394722Y-107381422D01*
X140189289Y-107510515D01*
X140157332Y-107530875D01*
X140005558Y-107627702D01*
X140017192Y-107779759D01*
X140019211Y-107876410D01*
X140014974Y-108009534D01*
X140005379Y-108157378D01*
X139998490Y-108233636D01*
X139988184Y-108375366D01*
X139985346Y-108508924D01*
X139990078Y-108614896D01*
X139996254Y-108655734D01*
X140010483Y-108759291D01*
X140009256Y-108858996D01*
X140007168Y-108873465D01*
X140002165Y-108957061D01*
X140007528Y-109068751D01*
X140016765Y-109147010D01*
X140030078Y-109282719D01*
X140033943Y-109430738D01*
X140031450Y-109499665D01*
X140029328Y-109635672D01*
X140037494Y-109783695D01*
X140045480Y-109852204D01*
X140058322Y-110037739D01*
X140033684Y-110180732D01*
X139969549Y-110285367D01*
X139863902Y-110355828D01*
X139790781Y-110380644D01*
X139708831Y-110403499D01*
X139646206Y-110423119D01*
X139644465Y-110423740D01*
X139433725Y-110494855D01*
X139300520Y-110533993D01*
X139216128Y-110562280D01*
X139150856Y-110593319D01*
X139145884Y-110596603D01*
X139081195Y-110621198D01*
X139047348Y-110621689D01*
X138990545Y-110628577D01*
X138910680Y-110656602D01*
X138886644Y-110667809D01*
X138812012Y-110701056D01*
X138759123Y-110717750D01*
X138750095Y-110718189D01*
X138708354Y-110727706D01*
X138643192Y-110757017D01*
X138640529Y-110758435D01*
X138566531Y-110787568D01*
X138506922Y-110794442D01*
X138445631Y-110801126D01*
X138378632Y-110826939D01*
X138288870Y-110862247D01*
X138208706Y-110881097D01*
X138150156Y-110896455D01*
X138111594Y-110932624D01*
X138078104Y-111005679D01*
X138068600Y-111032090D01*
X138022978Y-111145935D01*
X137966211Y-111267180D01*
X137945836Y-111306053D01*
X137914415Y-111385204D01*
X137877738Y-111512997D01*
X137837486Y-111679828D01*
X137795342Y-111876091D01*
X137752987Y-112092178D01*
X137712104Y-112318485D01*
X137674376Y-112545405D01*
X137641482Y-112763333D01*
X137615106Y-112962664D01*
X137596930Y-113133790D01*
X137588636Y-113267106D01*
X137590043Y-113337959D01*
X137595679Y-113465282D01*
X137591774Y-113593374D01*
X137583229Y-113668278D01*
X137562260Y-113757645D01*
X137529454Y-113811494D01*
X137469233Y-113852845D01*
X137452322Y-113861747D01*
X137374318Y-113895793D01*
X137261939Y-113937154D01*
X137128156Y-113981921D01*
X136985940Y-114026182D01*
X136848260Y-114066029D01*
X136728089Y-114097549D01*
X136638395Y-114116833D01*
X136594201Y-114120452D01*
X136542419Y-114123733D01*
X136452517Y-114140103D01*
X136342379Y-114165205D01*
X136229892Y-114194679D01*
X136132938Y-114224164D01*
X136072819Y-114247558D01*
X136000996Y-114294550D01*
X135912657Y-114367999D01*
X135845237Y-114433345D01*
X135772442Y-114506729D01*
X135700547Y-114570981D01*
X135619111Y-114633582D01*
X135517684Y-114702017D01*
X135385823Y-114783766D01*
X135213081Y-114886316D01*
X135212180Y-114886845D01*
X135092953Y-114958937D01*
X134990706Y-115024674D01*
X134917353Y-115076152D01*
X134886493Y-115102951D01*
X134859327Y-115141679D01*
X134843249Y-115180722D01*
X134840975Y-115225809D01*
X134855223Y-115282672D01*
X134888710Y-115357041D01*
X134944150Y-115454647D01*
X135024262Y-115581220D01*
X135131763Y-115742490D01*
X135269369Y-115944190D01*
X135320802Y-116019078D01*
X135450074Y-116208048D01*
X135571666Y-116387501D01*
X135680658Y-116550043D01*
X135772129Y-116688280D01*
X135841161Y-116794820D01*
X135882833Y-116862270D01*
X135888087Y-116871580D01*
X135958723Y-117001564D01*
X135823120Y-117712392D01*
X135780971Y-117932702D01*
X135747726Y-118102682D01*
X135721313Y-118229625D01*
X135699659Y-118320825D01*
X135680694Y-118383577D01*
X135662345Y-118425176D01*
X135642540Y-118452913D01*
X135619206Y-118474084D01*
X135603300Y-118486184D01*
X135519084Y-118549144D01*
X135490188Y-118461175D01*
X135481952Y-118416842D01*
X135481452Y-118350882D01*
X135489490Y-118255727D01*
X135506864Y-118123807D01*
X135534376Y-117947552D01*
X135561802Y-117783720D01*
X135595497Y-117584879D01*
X135619750Y-117435610D01*
X135635111Y-117327677D01*
X135642127Y-117252850D01*
X135641346Y-117202894D01*
X135633315Y-117169578D01*
X135618583Y-117144666D01*
X135605374Y-117128737D01*
X135528819Y-117067306D01*
X135441357Y-117053289D01*
X135334418Y-117086872D01*
X135246777Y-117136627D01*
X135146521Y-117199517D01*
X135019481Y-117277537D01*
X134889452Y-117356102D01*
X134859977Y-117373697D01*
X134638751Y-117508982D01*
X134430785Y-117643048D01*
X134242422Y-117771299D01*
X134080004Y-117889137D01*
X133949873Y-117991963D01*
X133858371Y-118075182D01*
X133812376Y-118133112D01*
X133767636Y-118207025D01*
X133723545Y-118257364D01*
X133715513Y-118262967D01*
X133673526Y-118301924D01*
X133665038Y-118320723D01*
X133645749Y-118356854D01*
X133598808Y-118427843D01*
X133532188Y-118521948D01*
X133483988Y-118587433D01*
X133409043Y-118690364D01*
X133348809Y-118777924D01*
X133311281Y-118838224D01*
X133302912Y-118856760D01*
X133278211Y-118899571D01*
X133227245Y-118954012D01*
X133226002Y-118955130D01*
X133174266Y-119010791D01*
X133148269Y-119056660D01*
X133148182Y-119057110D01*
X133127802Y-119101108D01*
X133082986Y-119172893D01*
X133044572Y-119227730D01*
X132989871Y-119306546D01*
X132951867Y-119368925D01*
X132941262Y-119392908D01*
X132921523Y-119431737D01*
X132876964Y-119501454D01*
X132818439Y-119586375D01*
X132756801Y-119670822D01*
X132702906Y-119739115D01*
X132696113Y-119747050D01*
X132654671Y-119801873D01*
X132620903Y-119852920D01*
X132575545Y-119919195D01*
X132543842Y-119958463D01*
X132514140Y-119994882D01*
X132456717Y-120068804D01*
X132378893Y-120170688D01*
X132287985Y-120290990D01*
X132252049Y-120338861D01*
X132158477Y-120463596D01*
X132075758Y-120573600D01*
X132011086Y-120659329D01*
X131971652Y-120711235D01*
X131964815Y-120720064D01*
X131930130Y-120765350D01*
X131875683Y-120837790D01*
X131840726Y-120884719D01*
X131747607Y-121010160D01*
X131780443Y-121201699D01*
X131795140Y-121319148D01*
X131799891Y-121429191D01*
X131795372Y-121494761D01*
X131793203Y-121590614D01*
X131810867Y-121696333D01*
X131816229Y-121714255D01*
X131838723Y-121800857D01*
X131846911Y-121870955D01*
X131845865Y-121883993D01*
X131848468Y-121943353D01*
X131866017Y-122029221D01*
X131874527Y-122059257D01*
X131900130Y-122177360D01*
X131889493Y-122270066D01*
X131836833Y-122354730D01*
X131748000Y-122439014D01*
X131673821Y-122504997D01*
X131621228Y-122558592D01*
X131603155Y-122584842D01*
X131579537Y-122623025D01*
X131532031Y-122672407D01*
X131471654Y-122744661D01*
X131429616Y-122820111D01*
X131389864Y-122890707D01*
X131345813Y-122935558D01*
X131304406Y-122987895D01*
X131280327Y-123073476D01*
X131277880Y-123168349D01*
X131292723Y-123230928D01*
X131313904Y-123310787D01*
X131324446Y-123404704D01*
X131324501Y-123406735D01*
X131337895Y-123510903D01*
X131365842Y-123611127D01*
X131389656Y-123692050D01*
X131396240Y-123757041D01*
X131395587Y-123762024D01*
X131397442Y-123820856D01*
X131412852Y-123907564D01*
X131421362Y-123941749D01*
X131475468Y-124145884D01*
X131512889Y-124297393D01*
X131534396Y-124399653D01*
X131540760Y-124456045D01*
X131540146Y-124462972D01*
X131545805Y-124514192D01*
X131568329Y-124589411D01*
X131572178Y-124599523D01*
X131612193Y-124756892D01*
X131598755Y-124891214D01*
X131531058Y-125005318D01*
X131433055Y-125086713D01*
X131355849Y-125132344D01*
X131256264Y-125185273D01*
X131148759Y-125238584D01*
X131047795Y-125285360D01*
X130967836Y-125318685D01*
X130923340Y-125331640D01*
X130921226Y-125331524D01*
X130883187Y-125341026D01*
X130809755Y-125369719D01*
X130733856Y-125403559D01*
X130631041Y-125451491D01*
X130537413Y-125494791D01*
X130490625Y-125516190D01*
X130416193Y-125553022D01*
X130365108Y-125582571D01*
X130315775Y-125606107D01*
X130297657Y-125608292D01*
X130246699Y-125621417D01*
X130162874Y-125666743D01*
X130056478Y-125736748D01*
X129937810Y-125823908D01*
X129817165Y-125920703D01*
X129704841Y-126019612D01*
X129620716Y-126102789D01*
X129574575Y-126151591D01*
X129506982Y-126222713D01*
X129465943Y-126265772D01*
X129403414Y-126335018D01*
X129360677Y-126389341D01*
X129349688Y-126409078D01*
X129317992Y-126456022D01*
X129255923Y-126507289D01*
X129184291Y-126549376D01*
X129123905Y-126568778D01*
X129106620Y-126566802D01*
X129075598Y-126537489D01*
X129078778Y-126485253D01*
X129118324Y-126405334D01*
X129196399Y-126292968D01*
X129278673Y-126188077D01*
X129325307Y-126130800D01*
X129366753Y-126081464D01*
X129411034Y-126031354D01*
X129466171Y-125971756D01*
X129540189Y-125893954D01*
X129641108Y-125789235D01*
X129737884Y-125689225D01*
X129829612Y-125592967D01*
X129904385Y-125511613D01*
X129953726Y-125454574D01*
X129969350Y-125432183D01*
X129994925Y-125409465D01*
X130059109Y-125367145D01*
X130148569Y-125312887D01*
X130249973Y-125254349D01*
X130349987Y-125199195D01*
X130435281Y-125155085D01*
X130492522Y-125129682D01*
X130499601Y-125127475D01*
X130552228Y-125109143D01*
X130635627Y-125075768D01*
X130691612Y-125051965D01*
X130790809Y-125010822D01*
X130880734Y-124976819D01*
X130915368Y-124965325D01*
X131030971Y-124922028D01*
X131129125Y-124869453D01*
X131195510Y-124816356D01*
X131215800Y-124781646D01*
X131212812Y-124721441D01*
X131193964Y-124636293D01*
X131186283Y-124611234D01*
X131163401Y-124529056D01*
X131153512Y-124467647D01*
X131153979Y-124456624D01*
X131149397Y-124407358D01*
X131130084Y-124329001D01*
X131121676Y-124302014D01*
X131098948Y-124217771D01*
X131089789Y-124152304D01*
X131090519Y-124140269D01*
X131085410Y-124085097D01*
X131062934Y-124006997D01*
X131058350Y-123994857D01*
X131030009Y-123892520D01*
X131017430Y-123788366D01*
X131017422Y-123787667D01*
X131007949Y-123706047D01*
X130986356Y-123647263D01*
X130983448Y-123643428D01*
X130958975Y-123587919D01*
X130946696Y-123510487D01*
X130929936Y-123414406D01*
X130897984Y-123326325D01*
X130872987Y-123249411D01*
X130871938Y-123154437D01*
X130885539Y-123062615D01*
X130905887Y-122974341D01*
X130935760Y-122895121D01*
X130983055Y-122809587D01*
X131055671Y-122702373D01*
X131107099Y-122631540D01*
X131191440Y-122519261D01*
X131269629Y-122419418D01*
X131331344Y-122344968D01*
X131359726Y-122314414D01*
X131419804Y-122219995D01*
X131443961Y-122092754D01*
X131429752Y-121948040D01*
X131422559Y-121919998D01*
X131402239Y-121831651D01*
X131393951Y-121761104D01*
X131394741Y-121745681D01*
X131394395Y-121695089D01*
X131386767Y-121603650D01*
X131373391Y-121488516D01*
X131368452Y-121451675D01*
X131354175Y-121330413D01*
X131350281Y-121228626D01*
X131357944Y-121125582D01*
X131378332Y-121000552D01*
X131400026Y-120892571D01*
X131433665Y-120741699D01*
X131462579Y-120638755D01*
X131490256Y-120573586D01*
X131520180Y-120536034D01*
X131523237Y-120533557D01*
X131577992Y-120472887D01*
X131617345Y-120405642D01*
X131667350Y-120322620D01*
X131719232Y-120263232D01*
X131768051Y-120210733D01*
X131790341Y-120172013D01*
X131808141Y-120141672D01*
X131854578Y-120072629D01*
X131923516Y-119973425D01*
X132008817Y-119852599D01*
X132104345Y-119718693D01*
X132203960Y-119580247D01*
X132301529Y-119445800D01*
X132390911Y-119323893D01*
X132465972Y-119223066D01*
X132520573Y-119151860D01*
X132543145Y-119124424D01*
X132625377Y-119011676D01*
X132691310Y-118884734D01*
X132694564Y-118876602D01*
X132706832Y-118812618D01*
X132674247Y-118767174D01*
X132660404Y-118757074D01*
X132614967Y-118735860D01*
X132551472Y-118728537D01*
X132455544Y-118734638D01*
X132356974Y-118747275D01*
X132236407Y-118761904D01*
X132131457Y-118770211D01*
X132061005Y-118770814D01*
X132051353Y-118769663D01*
X131985918Y-118768125D01*
X131889004Y-118776702D01*
X131821317Y-118786800D01*
X131706312Y-118803122D01*
X131595349Y-118812780D01*
X131547508Y-118814011D01*
X131463995Y-118827001D01*
X131378524Y-118872037D01*
X131284454Y-118954621D01*
X131175147Y-119080248D01*
X131087083Y-119195291D01*
X131015444Y-119291594D01*
X130954286Y-119372620D01*
X130914213Y-119424358D01*
X130908135Y-119431782D01*
X130876320Y-119472952D01*
X130821082Y-119547763D01*
X130752895Y-119641986D01*
X130733529Y-119669039D01*
X130663248Y-119766068D01*
X130602523Y-119847420D01*
X130562024Y-119898867D01*
X130555954Y-119905772D01*
X130512727Y-119960374D01*
X130478518Y-120011249D01*
X130433517Y-120077550D01*
X130402354Y-120116950D01*
X130369675Y-120159092D01*
X130315401Y-120234714D01*
X130250492Y-120328497D01*
X130241494Y-120341739D01*
X130175881Y-120436801D01*
X130119265Y-120515737D01*
X130082668Y-120563230D01*
X130079866Y-120566393D01*
X130034423Y-120626629D01*
X130017496Y-120654734D01*
X129988483Y-120699438D01*
X129933413Y-120777270D01*
X129861897Y-120874788D01*
X129824476Y-120924738D01*
X129746680Y-121031894D01*
X129679807Y-121131338D01*
X129634266Y-121207292D01*
X129623767Y-121228962D01*
X129590723Y-121291917D01*
X129560325Y-121324559D01*
X129528820Y-121351569D01*
X129472472Y-121412149D01*
X129402796Y-121493835D01*
X129394370Y-121504118D01*
X129303008Y-121604690D01*
X129231912Y-121654818D01*
X129175719Y-121656826D01*
X129132194Y-121617626D01*
X129124707Y-121571920D01*
X129159781Y-121510804D01*
X129201171Y-121447158D01*
X129220672Y-121400699D01*
X129240403Y-121358441D01*
X129284895Y-121284958D01*
X129343714Y-121195952D01*
X129406420Y-121107129D01*
X129462583Y-121034189D01*
X129470463Y-121024810D01*
X129508582Y-120975182D01*
X129558764Y-120904111D01*
X129566422Y-120892817D01*
X129655040Y-120761673D01*
X129745319Y-120628749D01*
X129822899Y-120515166D01*
X129846662Y-120480599D01*
X129888977Y-120417265D01*
X129950378Y-120323033D01*
X130018679Y-120216627D01*
X130029214Y-120200069D01*
X130097531Y-120093453D01*
X130160915Y-119996087D01*
X130207158Y-119926700D01*
X130212051Y-119919589D01*
X130319911Y-119762626D01*
X130401655Y-119640623D01*
X130454596Y-119557678D01*
X130476046Y-119517885D01*
X130476300Y-119516810D01*
X130493957Y-119483262D01*
X130535683Y-119418361D01*
X130574999Y-119361119D01*
X130647474Y-119257156D01*
X130721907Y-119148942D01*
X130750921Y-119106234D01*
X130802730Y-119030559D01*
X130876795Y-118923732D01*
X130961488Y-118802482D01*
X131014612Y-118726863D01*
X131089454Y-118619156D01*
X131150241Y-118528941D01*
X131189802Y-118467034D01*
X131201344Y-118445196D01*
X131226216Y-118416217D01*
X131282763Y-118372571D01*
X131297840Y-118362429D01*
X131345766Y-118335435D01*
X131397401Y-118320294D01*
X131466682Y-118316029D01*
X131567544Y-118321668D01*
X131697393Y-118334459D01*
X131838172Y-118346299D01*
X131968840Y-118351691D01*
X132071093Y-118350150D01*
X132112412Y-118345455D01*
X132199572Y-118335109D01*
X132317310Y-118330107D01*
X132420622Y-118331036D01*
X132557318Y-118328785D01*
X132663305Y-118306931D01*
X132751997Y-118267456D01*
X132827914Y-118222285D01*
X132877476Y-118184889D01*
X132887707Y-118171195D01*
X132912128Y-118140017D01*
X132974462Y-118080439D01*
X133066023Y-117999695D01*
X133178121Y-117905015D01*
X133302072Y-117803630D01*
X133429187Y-117702771D01*
X133550779Y-117609671D01*
X133644915Y-117540892D01*
X133870663Y-117384955D01*
X134119885Y-117219560D01*
X134370317Y-117059185D01*
X134599702Y-116918310D01*
X134628159Y-116901388D01*
X134736535Y-116832914D01*
X134832408Y-116764700D01*
X134898309Y-116709353D01*
X134907232Y-116699950D01*
X134951042Y-116642305D01*
X134959684Y-116592432D01*
X134943627Y-116528372D01*
X134913898Y-116453061D01*
X134867307Y-116372008D01*
X134796506Y-116274421D01*
X134694145Y-116149504D01*
X134652616Y-116100941D01*
X134566149Y-115997848D01*
X134479672Y-115890412D01*
X134423386Y-115817157D01*
X134343062Y-115722160D01*
X134250571Y-115631158D01*
X134216324Y-115602463D01*
X134145895Y-115550269D01*
X134098626Y-115529343D01*
X134052186Y-115533912D01*
X134009029Y-115548885D01*
X133931746Y-115570999D01*
X133872815Y-115576432D01*
X133870909Y-115576139D01*
X133818914Y-115580313D01*
X133734690Y-115599589D01*
X133677802Y-115616546D01*
X133583462Y-115642489D01*
X133505695Y-115655725D01*
X133477319Y-115655652D01*
X133415516Y-115659995D01*
X133319665Y-115682658D01*
X133209180Y-115717834D01*
X133103481Y-115759713D01*
X133060337Y-115780391D01*
X132983068Y-115819028D01*
X132902452Y-115855503D01*
X132798646Y-115898528D01*
X132716812Y-115931175D01*
X132620727Y-115969353D01*
X132537988Y-116002479D01*
X132508550Y-116014391D01*
X132434327Y-116040464D01*
X132345548Y-116066545D01*
X132345006Y-116066688D01*
X132271615Y-116091152D01*
X132225245Y-116115974D01*
X132223007Y-116118187D01*
X132182970Y-116140836D01*
X132107990Y-116168687D01*
X132068495Y-116180609D01*
X131951875Y-116215914D01*
X131831333Y-116256081D01*
X131809328Y-116263946D01*
X131611139Y-116333826D01*
X131436777Y-116390960D01*
X131293878Y-116433096D01*
X131190080Y-116457986D01*
X131133020Y-116463378D01*
X131132641Y-116463314D01*
X131090284Y-116436270D01*
X131088459Y-116388513D01*
X131132980Y-116302402D01*
X131222190Y-116237034D01*
X131326028Y-116204852D01*
X131411560Y-116179285D01*
X131477735Y-116140186D01*
X131480641Y-116137409D01*
X131531823Y-116100325D01*
X131563563Y-116092556D01*
X131604400Y-116084437D01*
X131683320Y-116057778D01*
X131784830Y-116017926D01*
X131807530Y-116008397D01*
X131915667Y-115962746D01*
X132007705Y-115924376D01*
X132066155Y-115900567D01*
X132071330Y-115898553D01*
X132204051Y-115843671D01*
X132366173Y-115770652D01*
X132535769Y-115689758D01*
X132690913Y-115611256D01*
X132733194Y-115588713D01*
X132776336Y-115567514D01*
X132854647Y-115530744D01*
X132935652Y-115493467D01*
X133048524Y-115436904D01*
X133158585Y-115373662D01*
X133215931Y-115335817D01*
X133301918Y-115281057D01*
X133383516Y-115240668D01*
X133405814Y-115232864D01*
X133483149Y-115208488D01*
X133532465Y-115190218D01*
X133582867Y-115174420D01*
X133673148Y-115150807D01*
X133785836Y-115123892D01*
X133813303Y-115117661D01*
X133896736Y-115097354D01*
X133969932Y-115074091D01*
X134042376Y-115042587D01*
X134123551Y-114997556D01*
X134222941Y-114933711D01*
X134350029Y-114845767D01*
X134514299Y-114728439D01*
X134523418Y-114721880D01*
X134692740Y-114599342D01*
X134867136Y-114471874D01*
X135032905Y-114349577D01*
X135176345Y-114242555D01*
X135271153Y-114170622D01*
X135438000Y-114048812D01*
X135617283Y-113929008D01*
X135799114Y-113816819D01*
X135973608Y-113717859D01*
X136130879Y-113637740D01*
X136261040Y-113582074D01*
X136352610Y-113556674D01*
X136431913Y-113540688D01*
X136526427Y-113514610D01*
X136538380Y-113510786D01*
X136616593Y-113488909D01*
X136672147Y-113479859D01*
X136679390Y-113480253D01*
X136719724Y-113467532D01*
X136786623Y-113429075D01*
X136822693Y-113404321D01*
X136935128Y-113322946D01*
X136964059Y-112975062D01*
X136974517Y-112826927D01*
X136980853Y-112689959D01*
X136982504Y-112580593D01*
X136979679Y-112520590D01*
X136978923Y-112453904D01*
X136985856Y-112342673D01*
X136999312Y-112200339D01*
X137018132Y-112040344D01*
X137026997Y-111973708D01*
X137052744Y-111794313D01*
X137075604Y-111658685D01*
X137099162Y-111552284D01*
X137127004Y-111460574D01*
X137162714Y-111369018D01*
X137193187Y-111299723D01*
X137240004Y-111188176D01*
X137273688Y-111092528D01*
X137289000Y-111028327D01*
X137288946Y-111015580D01*
X137252809Y-110969403D01*
X137174097Y-110950397D01*
X137062707Y-110959519D01*
X136966529Y-110984461D01*
X136869995Y-111010418D01*
X136787864Y-111023299D01*
X136757135Y-111022944D01*
X136681276Y-111028219D01*
X136635962Y-111044098D01*
X136521685Y-111074197D01*
X136393379Y-111065725D01*
X136278714Y-111021366D01*
X136258641Y-111007499D01*
X136185671Y-110956631D01*
X136086314Y-110893652D01*
X136009136Y-110847875D01*
X135845462Y-110754132D01*
X135690453Y-110791822D01*
X135593781Y-110820418D01*
X135516130Y-110852316D01*
X135488504Y-110869335D01*
X135438087Y-110899817D01*
X135413499Y-110904208D01*
X135362529Y-110915376D01*
X135269069Y-110956419D01*
X135138952Y-111023958D01*
X134978005Y-111114604D01*
X134792060Y-111224974D01*
X134586949Y-111351687D01*
X134368500Y-111491358D01*
X134142544Y-111640601D01*
X134128881Y-111649782D01*
X133985951Y-111745152D01*
X133850878Y-111833879D01*
X133735246Y-111908455D01*
X133650637Y-111961372D01*
X133623207Y-111977577D01*
X133538916Y-112025697D01*
X133468470Y-112067660D01*
X133396718Y-112113086D01*
X133308509Y-112171595D01*
X133188693Y-112252806D01*
X133174180Y-112262690D01*
X133067730Y-112333658D01*
X132995702Y-112375255D01*
X132944814Y-112392246D01*
X132901782Y-112389394D01*
X132861399Y-112374904D01*
X132799341Y-112354866D01*
X132693322Y-112326908D01*
X132556948Y-112294384D01*
X132403826Y-112260648D01*
X132364929Y-112252502D01*
X131959951Y-112168609D01*
X131729073Y-112311586D01*
X131632026Y-112373524D01*
X131498801Y-112461147D01*
X131341278Y-112566507D01*
X131171338Y-112681651D01*
X131000861Y-112798629D01*
X130987644Y-112807768D01*
X130833580Y-112912500D01*
X130693692Y-113004105D01*
X130575783Y-113077755D01*
X130487653Y-113128622D01*
X130437109Y-113151873D01*
X130430245Y-113152711D01*
X130375441Y-113161229D01*
X130300516Y-113192825D01*
X130285946Y-113200893D01*
X130207916Y-113235638D01*
X130168086Y-113226735D01*
X130164216Y-113179231D01*
X130188977Y-113152343D01*
X130254500Y-113097511D01*
X130353470Y-113020405D01*
X130478576Y-112926695D01*
X130622505Y-112822053D01*
X130651809Y-112801093D01*
X130804850Y-112690413D01*
X130946424Y-112585206D01*
X131067597Y-112492332D01*
X131159436Y-112418650D01*
X131213006Y-112371021D01*
X131215894Y-112367978D01*
X131298523Y-112287547D01*
X131388957Y-112211946D01*
X131396596Y-112206253D01*
X131461473Y-112156769D01*
X131513164Y-112110453D01*
X131567090Y-112051697D01*
X131638675Y-111964893D01*
X131654489Y-111945255D01*
X131706803Y-111885509D01*
X131754056Y-111855404D01*
X131818019Y-111846906D01*
X131909336Y-111851194D01*
X132032343Y-111858931D01*
X132178082Y-111866859D01*
X132287997Y-111872058D01*
X132415093Y-111879569D01*
X132572842Y-111891811D01*
X132733654Y-111906570D01*
X132787242Y-111912101D01*
X133077504Y-111943165D01*
X133248126Y-111820050D01*
X133361291Y-111737495D01*
X133492234Y-111640659D01*
X133609370Y-111552940D01*
X133859913Y-111373537D01*
X134147287Y-111184832D01*
X134453568Y-110998577D01*
X134465089Y-110991852D01*
X134644075Y-110886830D01*
X134797771Y-110794805D01*
X134952074Y-110700125D01*
X135081696Y-110619267D01*
X135171724Y-110565893D01*
X135295951Y-110496282D01*
X135436145Y-110420503D01*
X135541544Y-110365295D01*
X135674473Y-110297729D01*
X135769180Y-110253900D01*
X135839242Y-110230006D01*
X135898230Y-110222244D01*
X135959718Y-110226810D01*
X136007805Y-110234649D01*
X136142778Y-110271691D01*
X136245291Y-110333834D01*
X136259423Y-110346027D01*
X136367912Y-110412764D01*
X136510996Y-110460014D01*
X136666731Y-110483934D01*
X136813178Y-110480682D01*
X136902351Y-110458646D01*
X136986601Y-110431594D01*
X137054665Y-110420690D01*
X137067570Y-110421514D01*
X137128410Y-110415778D01*
X137203659Y-110389853D01*
X137286644Y-110357935D01*
X137355642Y-110341041D01*
X137428471Y-110318418D01*
X137463909Y-110296659D01*
X137524457Y-110269896D01*
X137555215Y-110269237D01*
X137603386Y-110264736D01*
X137692196Y-110245529D01*
X137806521Y-110215123D01*
X137872564Y-110195583D01*
X137999982Y-110158620D01*
X138115430Y-110128802D01*
X138201198Y-110110554D01*
X138226417Y-110107217D01*
X138317406Y-110088046D01*
X138392791Y-110057686D01*
X138464103Y-110029017D01*
X138518205Y-110022081D01*
X138578921Y-110014204D01*
X138615246Y-109997901D01*
X138669643Y-109972633D01*
X138759839Y-109938161D01*
X138857359Y-109904903D01*
X138972391Y-109862948D01*
X139079288Y-109815748D01*
X139143154Y-109780663D01*
X139189484Y-109748222D01*
X139219384Y-109715440D01*
X139238359Y-109668094D01*
X139251914Y-109591962D01*
X139265552Y-109472823D01*
X139266792Y-109461182D01*
X139277733Y-109305281D01*
X139280989Y-109134658D01*
X139275966Y-108984138D01*
X139275113Y-108973071D01*
X139268253Y-108846125D01*
X139267844Y-108727525D01*
X139273899Y-108641000D01*
X139274914Y-108634725D01*
X139282034Y-108534284D01*
X139275646Y-108422273D01*
X139272644Y-108401610D01*
X139261061Y-108300378D01*
X139253550Y-108174008D01*
X139251903Y-108088936D01*
X139249003Y-107962073D01*
X139241225Y-107834486D01*
X139234182Y-107765709D01*
X139227817Y-107665813D01*
X139228457Y-107535841D01*
X139235959Y-107404020D01*
X139247441Y-107289065D01*
X139260557Y-107217477D01*
X139280801Y-107174089D01*
X139313670Y-107143737D01*
X139335459Y-107129398D01*
X139403364Y-107089494D01*
X139510929Y-107029493D01*
X139645646Y-106956119D01*
X139795004Y-106876099D01*
X139946492Y-106796154D01*
X140087602Y-106723011D01*
X140159499Y-106686484D01*
X140269686Y-106628950D01*
X140373124Y-106571418D01*
X140439866Y-106531094D01*
X140520143Y-106482718D01*
X140625492Y-106424372D01*
X140698910Y-106386110D01*
X140826584Y-106318545D01*
X140912998Y-106260280D01*
X140970601Y-106197020D01*
X141011840Y-106114469D01*
X141049161Y-105998332D01*
X141055273Y-105976837D01*
X141095917Y-105848619D01*
X141142769Y-105724178D01*
X141186025Y-105629447D01*
X141187987Y-105625830D01*
X141232218Y-105521856D01*
X141273089Y-105384670D01*
X141297880Y-105269413D01*
X141323081Y-105144549D01*
X141346071Y-105072159D01*
X141368916Y-105046214D01*
X141374467Y-105046201D01*
X141410195Y-105071642D01*
G37*
%TD*%
D13*
%TO.C,REF\u002A\u002A*%
X177292000Y-131328000D03*
D14*
X177292000Y-133868000D03*
X177292000Y-136408000D03*
X177292000Y-138948000D03*
%TD*%
D13*
%TO.C,REF\u002A\u002A*%
X168656000Y-131328000D03*
D14*
X168656000Y-133868000D03*
X168656000Y-136408000D03*
X168656000Y-138948000D03*
%TD*%
D15*
%TO.C,REF\u002A\u002A*%
X171069000Y-138128000D03*
X172339000Y-138128000D03*
X173609000Y-138128000D03*
X174879000Y-138128000D03*
X174879000Y-132128000D03*
X173609000Y-132128000D03*
X172339000Y-132128000D03*
X171069000Y-132128000D03*
%TD*%
G36*
X178505039Y-102889685D02*
G01*
X178550794Y-102942489D01*
X178562000Y-102994000D01*
X178562000Y-122048162D01*
X178542315Y-122115201D01*
X178489511Y-122160956D01*
X178436177Y-122172149D01*
X161500423Y-121923094D01*
X161433680Y-121902425D01*
X161388706Y-121848954D01*
X161379781Y-121779657D01*
X161394672Y-121737431D01*
X172176268Y-102932324D01*
X172226690Y-102883956D01*
X172283842Y-102870000D01*
X178438000Y-102870000D01*
X178505039Y-102889685D01*
G37*
M02*
