%TF.GenerationSoftware,KiCad,Pcbnew,7.0.10*%
%TF.CreationDate,2024-03-11T19:10:02-04:00*%
%TF.ProjectId,Digital D20,44696769-7461-46c2-9044-32302e6b6963,rev?*%
%TF.SameCoordinates,Original*%
%TF.FileFunction,Legend,Top*%
%TF.FilePolarity,Positive*%
%FSLAX46Y46*%
G04 Gerber Fmt 4.6, Leading zero omitted, Abs format (unit mm)*
G04 Created by KiCad (PCBNEW 7.0.10) date 2024-03-11 19:10:02*
%MOMM*%
%LPD*%
G01*
G04 APERTURE LIST*
%ADD10C,0.150000*%
G04 APERTURE END LIST*
D10*
X149509819Y-92227506D02*
X150224104Y-92227506D01*
X150224104Y-92227506D02*
X150366961Y-92275125D01*
X150366961Y-92275125D02*
X150462200Y-92370363D01*
X150462200Y-92370363D02*
X150509819Y-92513220D01*
X150509819Y-92513220D02*
X150509819Y-92608458D01*
X150509819Y-91275125D02*
X150509819Y-91751315D01*
X150509819Y-91751315D02*
X149509819Y-91751315D01*
X150414580Y-90370363D02*
X150462200Y-90417982D01*
X150462200Y-90417982D02*
X150509819Y-90560839D01*
X150509819Y-90560839D02*
X150509819Y-90656077D01*
X150509819Y-90656077D02*
X150462200Y-90798934D01*
X150462200Y-90798934D02*
X150366961Y-90894172D01*
X150366961Y-90894172D02*
X150271723Y-90941791D01*
X150271723Y-90941791D02*
X150081247Y-90989410D01*
X150081247Y-90989410D02*
X149938390Y-90989410D01*
X149938390Y-90989410D02*
X149747914Y-90941791D01*
X149747914Y-90941791D02*
X149652676Y-90894172D01*
X149652676Y-90894172D02*
X149557438Y-90798934D01*
X149557438Y-90798934D02*
X149509819Y-90656077D01*
X149509819Y-90656077D02*
X149509819Y-90560839D01*
X149509819Y-90560839D02*
X149557438Y-90417982D01*
X149557438Y-90417982D02*
X149605057Y-90370363D01*
X149509819Y-89656077D02*
X150224104Y-89656077D01*
X150224104Y-89656077D02*
X150366961Y-89703696D01*
X150366961Y-89703696D02*
X150462200Y-89798934D01*
X150462200Y-89798934D02*
X150509819Y-89941791D01*
X150509819Y-89941791D02*
X150509819Y-90037029D01*
X150509819Y-88703696D02*
X150509819Y-89179886D01*
X150509819Y-89179886D02*
X149509819Y-89179886D01*
X150414580Y-87798934D02*
X150462200Y-87846553D01*
X150462200Y-87846553D02*
X150509819Y-87989410D01*
X150509819Y-87989410D02*
X150509819Y-88084648D01*
X150509819Y-88084648D02*
X150462200Y-88227505D01*
X150462200Y-88227505D02*
X150366961Y-88322743D01*
X150366961Y-88322743D02*
X150271723Y-88370362D01*
X150271723Y-88370362D02*
X150081247Y-88417981D01*
X150081247Y-88417981D02*
X149938390Y-88417981D01*
X149938390Y-88417981D02*
X149747914Y-88370362D01*
X149747914Y-88370362D02*
X149652676Y-88322743D01*
X149652676Y-88322743D02*
X149557438Y-88227505D01*
X149557438Y-88227505D02*
X149509819Y-88084648D01*
X149509819Y-88084648D02*
X149509819Y-87989410D01*
X149509819Y-87989410D02*
X149557438Y-87846553D01*
X149557438Y-87846553D02*
X149605057Y-87798934D01*
X149509819Y-87084648D02*
X150224104Y-87084648D01*
X150224104Y-87084648D02*
X150366961Y-87132267D01*
X150366961Y-87132267D02*
X150462200Y-87227505D01*
X150462200Y-87227505D02*
X150509819Y-87370362D01*
X150509819Y-87370362D02*
X150509819Y-87465600D01*
X150509819Y-86132267D02*
X150509819Y-86608457D01*
X150509819Y-86608457D02*
X149509819Y-86608457D01*
X150414580Y-85227505D02*
X150462200Y-85275124D01*
X150462200Y-85275124D02*
X150509819Y-85417981D01*
X150509819Y-85417981D02*
X150509819Y-85513219D01*
X150509819Y-85513219D02*
X150462200Y-85656076D01*
X150462200Y-85656076D02*
X150366961Y-85751314D01*
X150366961Y-85751314D02*
X150271723Y-85798933D01*
X150271723Y-85798933D02*
X150081247Y-85846552D01*
X150081247Y-85846552D02*
X149938390Y-85846552D01*
X149938390Y-85846552D02*
X149747914Y-85798933D01*
X149747914Y-85798933D02*
X149652676Y-85751314D01*
X149652676Y-85751314D02*
X149557438Y-85656076D01*
X149557438Y-85656076D02*
X149509819Y-85513219D01*
X149509819Y-85513219D02*
X149509819Y-85417981D01*
X149509819Y-85417981D02*
X149557438Y-85275124D01*
X149557438Y-85275124D02*
X149605057Y-85227505D01*
X149509819Y-84513219D02*
X150224104Y-84513219D01*
X150224104Y-84513219D02*
X150366961Y-84560838D01*
X150366961Y-84560838D02*
X150462200Y-84656076D01*
X150462200Y-84656076D02*
X150509819Y-84798933D01*
X150509819Y-84798933D02*
X150509819Y-84894171D01*
X150509819Y-83560838D02*
X150509819Y-84037028D01*
X150509819Y-84037028D02*
X149509819Y-84037028D01*
X150414580Y-82656076D02*
X150462200Y-82703695D01*
X150462200Y-82703695D02*
X150509819Y-82846552D01*
X150509819Y-82846552D02*
X150509819Y-82941790D01*
X150509819Y-82941790D02*
X150462200Y-83084647D01*
X150462200Y-83084647D02*
X150366961Y-83179885D01*
X150366961Y-83179885D02*
X150271723Y-83227504D01*
X150271723Y-83227504D02*
X150081247Y-83275123D01*
X150081247Y-83275123D02*
X149938390Y-83275123D01*
X149938390Y-83275123D02*
X149747914Y-83227504D01*
X149747914Y-83227504D02*
X149652676Y-83179885D01*
X149652676Y-83179885D02*
X149557438Y-83084647D01*
X149557438Y-83084647D02*
X149509819Y-82941790D01*
X149509819Y-82941790D02*
X149509819Y-82846552D01*
X149509819Y-82846552D02*
X149557438Y-82703695D01*
X149557438Y-82703695D02*
X149605057Y-82656076D01*
M02*
