M48
; DRILL file {KiCad 7.0.10} date Mon Mar 11 19:10:04 2024
; FORMAT={-:-/ absolute / inch / decimal}
; #@! TF.CreationDate,2024-03-11T19:10:04-04:00
; #@! TF.GenerationSoftware,Kicad,Pcbnew,7.0.10
; #@! TF.FileFunction,NonPlated,1,6,NPTH
FMAT,2
INCH
; #@! TA.AperFunction,NonPlated,NPTH,ComponentDrill
T1C0.0197
%
G90
G05
T1
X1.6409Y-2.0105
X1.6409Y-2.0695
X1.6409Y-4.8485
X1.6409Y-4.9076
X1.6705Y-2.0105
X1.6705Y-2.0695
X1.6705Y-4.8485
X1.6705Y-4.9076
X1.7Y-2.0105
X1.7Y-2.0695
X1.7Y-4.8485
X1.7Y-4.9076
X1.7295Y-2.0105
X1.7295Y-2.0695
X1.7295Y-4.8485
X1.7295Y-4.9076
X1.7591Y-2.0105
X1.7591Y-2.0695
X1.7591Y-4.8485
X1.7591Y-4.9076
X2.2045Y-1.0343
X2.2045Y-3.0457
X2.2045Y-3.8724
X2.2045Y-5.8838
X2.2193Y-1.0599
X2.2193Y-3.0201
X2.2193Y-3.8979
X2.2193Y-5.8582
X2.2341Y-1.0854
X2.2341Y-2.9946
X2.2341Y-3.9235
X2.2341Y-5.8326
X2.2409Y-2.0105
X2.2409Y-2.0695
X2.2409Y-4.8485
X2.2409Y-4.9076
X2.2488Y-1.111
X2.2488Y-2.969
X2.2488Y-3.9491
X2.2488Y-5.8071
X2.2557Y-1.0048
X2.2557Y-3.0752
X2.2557Y-3.8428
X2.2557Y-5.9133
X2.2636Y-1.1366
X2.2636Y-2.9434
X2.2636Y-3.9747
X2.2636Y-5.7815
X2.2704Y-1.0303
X2.2704Y-3.0497
X2.2705Y-3.8684
X2.2705Y-5.8877
X2.2705Y-2.0105
X2.2705Y-2.0695
X2.2705Y-4.8485
X2.2705Y-4.9076
X2.2852Y-1.0559
X2.2852Y-3.0241
X2.2852Y-3.894
X2.2852Y-5.8622
X2.3Y-1.0815
X2.3Y-2.9985
X2.3Y-3.9196
X2.3Y-5.8366
X2.3Y-2.0105
X2.3Y-2.0695
X2.3Y-4.8485
X2.3Y-4.9076
X2.3147Y-1.1071
X2.3147Y-2.9729
X2.3147Y-3.9451
X2.3147Y-5.811
X2.3295Y-2.0105
X2.3295Y-2.0695
X2.3295Y-4.8485
X2.3295Y-4.9076
X2.3591Y-2.0105
X2.3591Y-2.0695
X2.3591Y-4.8485
X2.3591Y-4.9076
X2.4602Y-3.4295
X2.4602Y-3.4886
X2.4898Y-3.4295
X2.4898Y-3.4886
X2.5045Y-1.5539
X2.5045Y-2.5261
X2.5045Y-4.392
X2.5045Y-5.3642
X2.5193Y-3.4295
X2.5193Y-3.4886
X2.5193Y-1.5795
X2.5193Y-2.5005
X2.5193Y-4.4176
X2.5193Y-5.3386
X2.5341Y-1.6051
X2.5341Y-2.4749
X2.5341Y-4.4431
X2.5341Y-5.313
X2.5488Y-3.4295
X2.5488Y-3.4886
X2.5488Y-1.6306
X2.5488Y-2.4494
X2.5488Y-4.4687
X2.5488Y-5.2874
X2.5557Y-1.5244
X2.5557Y-2.5556
X2.5557Y-4.3625
X2.5557Y-5.3937
X2.5636Y-1.6562
X2.5636Y-2.4238
X2.5636Y-4.4943
X2.5636Y-5.2619
X2.5704Y-1.55
X2.5704Y-2.53
X2.5705Y-4.388
X2.5705Y-5.3681
X2.5783Y-3.4295
X2.5783Y-3.4886
X2.5852Y-1.5755
X2.5852Y-2.5045
X2.5852Y-4.4136
X2.5852Y-5.3425
X2.6Y-1.6011
X2.6Y-2.4789
X2.6Y-4.4392
X2.6Y-5.317
X2.6147Y-1.6267
X2.6147Y-2.4533
X2.6147Y-4.4647
X2.6147Y-5.2914
X3.0238Y-2.4533
X3.0238Y-1.6267
X3.0238Y-5.2914
X3.0238Y-4.4647
X3.0386Y-2.4789
X3.0386Y-1.6011
X3.0386Y-5.317
X3.0386Y-4.4392
X3.0533Y-2.5045
X3.0534Y-1.5755
X3.0534Y-5.3425
X3.0534Y-4.4136
X3.0602Y-3.4295
X3.0602Y-3.4886
X3.0681Y-2.53
X3.0681Y-1.55
X3.0681Y-5.3681
X3.0681Y-4.388
X3.075Y-2.4238
X3.075Y-1.6562
X3.075Y-5.2619
X3.075Y-4.4943
X3.0829Y-2.5556
X3.0829Y-1.5244
X3.0829Y-5.3937
X3.0829Y-4.3625
X3.0897Y-2.4494
X3.0897Y-1.6306
X3.0897Y-5.2874
X3.0897Y-4.4687
X3.0898Y-3.4295
X3.0898Y-3.4886
X3.1045Y-2.4749
X3.1045Y-1.6051
X3.1045Y-5.313
X3.1045Y-4.4431
X3.1193Y-2.5005
X3.1193Y-1.5795
X3.1193Y-5.3386
X3.1193Y-4.4176
X3.1193Y-3.4295
X3.1193Y-3.4886
X3.134Y-2.5261
X3.134Y-1.5539
X3.134Y-5.3642
X3.134Y-4.392
X3.1488Y-3.4295
X3.1488Y-3.4886
X3.1783Y-3.4295
X3.1783Y-3.4886
X3.2795Y-2.0695
X3.2795Y-4.9076
X3.2795Y-2.0105
X3.2795Y-4.8485
X3.309Y-2.0695
X3.309Y-4.9076
X3.309Y-2.0105
X3.309Y-4.8485
X3.3238Y-2.9729
X3.3238Y-1.1071
X3.3238Y-5.811
X3.3238Y-3.9451
X3.3386Y-2.0695
X3.3386Y-4.9076
X3.3386Y-2.0105
X3.3386Y-4.8485
X3.3386Y-2.9985
X3.3386Y-1.0815
X3.3386Y-5.8366
X3.3386Y-3.9196
X3.3533Y-3.0241
X3.3534Y-1.0559
X3.3534Y-5.8622
X3.3534Y-3.894
X3.3681Y-2.0695
X3.3681Y-4.9076
X3.3681Y-2.0105
X3.3681Y-4.8485
X3.3681Y-3.0497
X3.3681Y-1.0303
X3.3681Y-5.8877
X3.3681Y-3.8684
X3.375Y-2.9434
X3.375Y-1.1366
X3.375Y-5.7815
X3.375Y-3.9747
X3.3829Y-3.0752
X3.3829Y-1.0048
X3.3829Y-5.9133
X3.3829Y-3.8428
X3.3897Y-2.969
X3.3897Y-1.111
X3.3897Y-5.8071
X3.3897Y-3.9491
X3.3976Y-2.0695
X3.3976Y-4.9076
X3.3976Y-2.0105
X3.3976Y-4.8485
X3.4045Y-2.9946
X3.4045Y-1.0854
X3.4045Y-5.8326
X3.4045Y-3.9235
X3.4193Y-3.0201
X3.4193Y-1.0599
X3.4193Y-5.8582
X3.4193Y-3.8979
X3.434Y-3.0457
X3.434Y-1.0343
X3.434Y-5.8838
X3.434Y-3.8724
X3.8431Y-1.0343
X3.8431Y-3.0457
X3.8431Y-3.8724
X3.8431Y-5.8838
X3.8579Y-1.0599
X3.8579Y-3.0201
X3.8579Y-3.8979
X3.8579Y-5.8582
X3.8726Y-1.0854
X3.8726Y-2.9946
X3.8726Y-3.9235
X3.8726Y-5.8326
X3.8795Y-2.0695
X3.8795Y-4.9076
X3.8795Y-2.0105
X3.8795Y-4.8485
X3.8874Y-1.111
X3.8874Y-2.969
X3.8874Y-3.9491
X3.8874Y-5.8071
X3.8942Y-1.0048
X3.8942Y-3.0752
X3.8943Y-3.8428
X3.8943Y-5.9133
X3.9022Y-1.1366
X3.9022Y-2.9434
X3.9022Y-3.9747
X3.9022Y-5.7815
X3.909Y-1.0303
X3.909Y-3.0497
X3.909Y-3.8684
X3.909Y-5.8877
X3.909Y-2.0695
X3.909Y-4.9076
X3.909Y-2.0105
X3.909Y-4.8485
X3.9238Y-1.0559
X3.9238Y-3.0241
X3.9238Y-3.894
X3.9238Y-5.8622
X3.9385Y-1.0815
X3.9385Y-2.9985
X3.9385Y-3.9196
X3.9385Y-5.8366
X3.9386Y-2.0695
X3.9386Y-4.9076
X3.9386Y-2.0105
X3.9386Y-4.8485
X3.9533Y-1.107
X3.9533Y-2.9729
X3.9533Y-3.9451
X3.9533Y-5.811
X3.9681Y-2.0695
X3.9681Y-4.9076
X3.9681Y-2.0105
X3.9681Y-4.8485
X3.9976Y-2.0695
X3.9976Y-4.9076
X3.9976Y-2.0105
X3.9976Y-4.8485
X4.0988Y-3.4295
X4.0988Y-3.4886
X4.1283Y-3.4295
X4.1283Y-3.4886
X4.1431Y-1.5539
X4.1431Y-2.5261
X4.1431Y-4.392
X4.1431Y-5.3642
X4.1578Y-3.4295
X4.1578Y-3.4886
X4.1579Y-1.5795
X4.1579Y-2.5005
X4.1579Y-4.4176
X4.1579Y-5.3386
X4.1726Y-1.605
X4.1726Y-2.4749
X4.1726Y-4.4431
X4.1726Y-5.313
X4.1874Y-3.4295
X4.1874Y-3.4886
X4.1874Y-1.6306
X4.1874Y-2.4494
X4.1874Y-4.4687
X4.1874Y-5.2874
X4.1942Y-1.5244
X4.1942Y-2.5556
X4.1943Y-4.3625
X4.1943Y-5.3937
X4.2022Y-1.6562
X4.2022Y-2.4238
X4.2022Y-4.4943
X4.2022Y-5.2619
X4.209Y-1.55
X4.209Y-2.53
X4.209Y-4.388
X4.209Y-5.3681
X4.2169Y-3.4295
X4.2169Y-3.4886
X4.2238Y-1.5755
X4.2238Y-2.5045
X4.2238Y-4.4136
X4.2238Y-5.3425
X4.2385Y-1.6011
X4.2385Y-2.4789
X4.2385Y-4.4392
X4.2385Y-5.317
X4.2533Y-1.6267
X4.2533Y-2.4533
X4.2533Y-4.4647
X4.2533Y-5.2914
X4.6624Y-2.4533
X4.6624Y-1.6267
X4.6624Y-5.2914
X4.6624Y-4.4647
X4.6771Y-2.4789
X4.6772Y-1.6011
X4.6772Y-5.317
X4.6772Y-4.4392
X4.6919Y-2.5045
X4.6919Y-1.5755
X4.6919Y-5.3425
X4.6919Y-4.4136
X4.6988Y-3.4295
X4.6988Y-3.4886
X4.7067Y-2.53
X4.7067Y-1.55
X4.7067Y-5.3681
X4.7067Y-4.388
X4.7135Y-2.4238
X4.7135Y-1.6562
X4.7135Y-5.2619
X4.7135Y-4.4943
X4.7214Y-2.5556
X4.7214Y-1.5244
X4.7214Y-5.3937
X4.7214Y-4.3625
X4.7283Y-2.4494
X4.7283Y-1.6306
X4.7283Y-5.2874
X4.7283Y-4.4687
X4.7283Y-3.4295
X4.7283Y-3.4886
X4.7431Y-2.4749
X4.7431Y-1.605
X4.7431Y-5.313
X4.7431Y-4.4431
X4.7578Y-2.5005
X4.7578Y-1.5795
X4.7578Y-5.3386
X4.7578Y-4.4176
X4.7578Y-3.4295
X4.7578Y-3.4886
X4.7726Y-2.5261
X4.7726Y-1.5539
X4.7726Y-5.3642
X4.7726Y-4.392
X4.7874Y-3.4295
X4.7874Y-3.4886
X4.8169Y-3.4295
X4.8169Y-3.4886
X4.9181Y-2.0695
X4.9181Y-4.9076
X4.9181Y-2.0105
X4.9181Y-4.8485
X4.9476Y-2.0695
X4.9476Y-4.9076
X4.9476Y-2.0105
X4.9476Y-4.8485
X4.9624Y-2.9729
X4.9624Y-1.107
X4.9624Y-5.811
X4.9624Y-3.9451
X4.9771Y-2.0695
X4.9771Y-4.9076
X4.9771Y-2.0105
X4.9771Y-4.8485
X4.9771Y-2.9985
X4.9772Y-1.0815
X4.9772Y-5.8366
X4.9772Y-3.9196
X4.9919Y-3.0241
X4.9919Y-1.0559
X4.9919Y-5.8622
X4.9919Y-3.894
X5.0066Y-2.0695
X5.0067Y-4.9076
X5.0067Y-2.0105
X5.0067Y-4.8485
X5.0067Y-3.0497
X5.0067Y-1.0303
X5.0067Y-5.8877
X5.0067Y-3.8684
X5.0135Y-2.9434
X5.0135Y-1.1366
X5.0135Y-5.7815
X5.0135Y-3.9747
X5.0214Y-3.0752
X5.0214Y-1.0048
X5.0214Y-5.9133
X5.0214Y-3.8428
X5.0283Y-2.969
X5.0283Y-1.111
X5.0283Y-5.8071
X5.0283Y-3.9491
X5.0362Y-2.0695
X5.0362Y-4.9076
X5.0362Y-2.0105
X5.0362Y-4.8485
X5.0431Y-2.9946
X5.0431Y-1.0854
X5.0431Y-5.8326
X5.0431Y-3.9235
X5.0578Y-3.0201
X5.0578Y-1.0599
X5.0578Y-5.8582
X5.0578Y-3.8979
X5.0726Y-3.0457
X5.0726Y-1.0343
X5.0726Y-5.8838
X5.0726Y-3.8724
X5.4817Y-3.0457
X5.4817Y-3.8724
X5.4964Y-3.0201
X5.4964Y-3.0201
X5.4964Y-3.8979
X5.5112Y-2.9946
X5.5112Y-3.9235
X5.5181Y-2.0695
X5.5181Y-4.9076
X5.5181Y-2.0105
X5.5181Y-4.8485
X5.526Y-2.969
X5.526Y-3.9491
X5.5328Y-3.0752
X5.5328Y-3.8428
X5.5407Y-2.9434
X5.5407Y-3.9747
X5.5407Y-3.9747
X5.5476Y-3.0497
X5.5476Y-3.8684
X5.5476Y-3.8684
X5.5476Y-2.0695
X5.5476Y-4.9076
X5.5476Y-2.0105
X5.5476Y-4.8485
X5.5623Y-3.0241
X5.5623Y-3.894
X5.5771Y-2.9985
X5.5771Y-3.9196
X5.5771Y-2.0695
X5.5771Y-4.9076
X5.5771Y-2.0105
X5.5771Y-4.8485
X5.5919Y-2.9729
X5.5919Y-2.9729
X5.5919Y-3.9451
X5.6066Y-2.0695
X5.6067Y-4.9076
X5.6067Y-2.0105
X5.6067Y-4.8485
X5.6362Y-2.0695
X5.6362Y-4.9076
X5.6362Y-2.0105
X5.6362Y-4.8485
X5.7817Y-2.5261
X5.7817Y-2.5261
X5.7817Y-4.392
X5.7964Y-2.5005
X5.7964Y-4.4176
X5.8112Y-2.4749
X5.8112Y-4.4431
X5.826Y-2.4494
X5.826Y-4.4687
X5.826Y-4.4687
X5.8328Y-2.5556
X5.8328Y-4.3625
X5.8328Y-4.3625
X5.8407Y-2.4238
X5.8407Y-4.4943
X5.8476Y-2.53
X5.8476Y-4.388
X5.8623Y-2.5045
X5.8623Y-4.4136
X5.8771Y-2.4789
X5.8771Y-2.4789
X5.8771Y-4.4392
X5.8919Y-2.4533
X5.8919Y-4.4647
M30
