%TF.GenerationSoftware,KiCad,Pcbnew,8.0.0*%
%TF.CreationDate,2024-03-15T16:55:21-04:00*%
%TF.ProjectId,mainboard,6d61696e-626f-4617-9264-2e6b69636164,rev?*%
%TF.SameCoordinates,Original*%
%TF.FileFunction,Legend,Top*%
%TF.FilePolarity,Positive*%
%FSLAX46Y46*%
G04 Gerber Fmt 4.6, Leading zero omitted, Abs format (unit mm)*
G04 Created by KiCad (PCBNEW 8.0.0) date 2024-03-15 16:55:21*
%MOMM*%
%LPD*%
G01*
G04 APERTURE LIST*
%ADD10C,0.150000*%
%ADD11C,0.120000*%
%ADD12C,0.100000*%
G04 APERTURE END LIST*
D10*
X209874007Y-90528780D02*
X209826388Y-90576400D01*
X209826388Y-90576400D02*
X209683531Y-90624019D01*
X209683531Y-90624019D02*
X209588293Y-90624019D01*
X209588293Y-90624019D02*
X209445436Y-90576400D01*
X209445436Y-90576400D02*
X209350198Y-90481161D01*
X209350198Y-90481161D02*
X209302579Y-90385923D01*
X209302579Y-90385923D02*
X209254960Y-90195447D01*
X209254960Y-90195447D02*
X209254960Y-90052590D01*
X209254960Y-90052590D02*
X209302579Y-89862114D01*
X209302579Y-89862114D02*
X209350198Y-89766876D01*
X209350198Y-89766876D02*
X209445436Y-89671638D01*
X209445436Y-89671638D02*
X209588293Y-89624019D01*
X209588293Y-89624019D02*
X209683531Y-89624019D01*
X209683531Y-89624019D02*
X209826388Y-89671638D01*
X209826388Y-89671638D02*
X209874007Y-89719257D01*
X210778769Y-90624019D02*
X210302579Y-90624019D01*
X210302579Y-90624019D02*
X210302579Y-89624019D01*
X211112103Y-90624019D02*
X211112103Y-89624019D01*
X211683531Y-90624019D02*
X211254960Y-90052590D01*
X211683531Y-89624019D02*
X211112103Y-90195447D01*
X209261322Y-95339019D02*
X209594655Y-96339019D01*
X209594655Y-96339019D02*
X209927988Y-95339019D01*
X210594655Y-95815209D02*
X210737512Y-95862828D01*
X210737512Y-95862828D02*
X210785131Y-95910447D01*
X210785131Y-95910447D02*
X210832750Y-96005685D01*
X210832750Y-96005685D02*
X210832750Y-96148542D01*
X210832750Y-96148542D02*
X210785131Y-96243780D01*
X210785131Y-96243780D02*
X210737512Y-96291400D01*
X210737512Y-96291400D02*
X210642274Y-96339019D01*
X210642274Y-96339019D02*
X210261322Y-96339019D01*
X210261322Y-96339019D02*
X210261322Y-95339019D01*
X210261322Y-95339019D02*
X210594655Y-95339019D01*
X210594655Y-95339019D02*
X210689893Y-95386638D01*
X210689893Y-95386638D02*
X210737512Y-95434257D01*
X210737512Y-95434257D02*
X210785131Y-95529495D01*
X210785131Y-95529495D02*
X210785131Y-95624733D01*
X210785131Y-95624733D02*
X210737512Y-95719971D01*
X210737512Y-95719971D02*
X210689893Y-95767590D01*
X210689893Y-95767590D02*
X210594655Y-95815209D01*
X210594655Y-95815209D02*
X210261322Y-95815209D01*
X211261322Y-95339019D02*
X211261322Y-96148542D01*
X211261322Y-96148542D02*
X211308941Y-96243780D01*
X211308941Y-96243780D02*
X211356560Y-96291400D01*
X211356560Y-96291400D02*
X211451798Y-96339019D01*
X211451798Y-96339019D02*
X211642274Y-96339019D01*
X211642274Y-96339019D02*
X211737512Y-96291400D01*
X211737512Y-96291400D02*
X211785131Y-96243780D01*
X211785131Y-96243780D02*
X211832750Y-96148542D01*
X211832750Y-96148542D02*
X211832750Y-95339019D01*
X212261322Y-96291400D02*
X212404179Y-96339019D01*
X212404179Y-96339019D02*
X212642274Y-96339019D01*
X212642274Y-96339019D02*
X212737512Y-96291400D01*
X212737512Y-96291400D02*
X212785131Y-96243780D01*
X212785131Y-96243780D02*
X212832750Y-96148542D01*
X212832750Y-96148542D02*
X212832750Y-96053304D01*
X212832750Y-96053304D02*
X212785131Y-95958066D01*
X212785131Y-95958066D02*
X212737512Y-95910447D01*
X212737512Y-95910447D02*
X212642274Y-95862828D01*
X212642274Y-95862828D02*
X212451798Y-95815209D01*
X212451798Y-95815209D02*
X212356560Y-95767590D01*
X212356560Y-95767590D02*
X212308941Y-95719971D01*
X212308941Y-95719971D02*
X212261322Y-95624733D01*
X212261322Y-95624733D02*
X212261322Y-95529495D01*
X212261322Y-95529495D02*
X212308941Y-95434257D01*
X212308941Y-95434257D02*
X212356560Y-95386638D01*
X212356560Y-95386638D02*
X212451798Y-95339019D01*
X212451798Y-95339019D02*
X212689893Y-95339019D01*
X212689893Y-95339019D02*
X212832750Y-95386638D01*
X209800988Y-87131638D02*
X209705750Y-87084019D01*
X209705750Y-87084019D02*
X209562893Y-87084019D01*
X209562893Y-87084019D02*
X209420036Y-87131638D01*
X209420036Y-87131638D02*
X209324798Y-87226876D01*
X209324798Y-87226876D02*
X209277179Y-87322114D01*
X209277179Y-87322114D02*
X209229560Y-87512590D01*
X209229560Y-87512590D02*
X209229560Y-87655447D01*
X209229560Y-87655447D02*
X209277179Y-87845923D01*
X209277179Y-87845923D02*
X209324798Y-87941161D01*
X209324798Y-87941161D02*
X209420036Y-88036400D01*
X209420036Y-88036400D02*
X209562893Y-88084019D01*
X209562893Y-88084019D02*
X209658131Y-88084019D01*
X209658131Y-88084019D02*
X209800988Y-88036400D01*
X209800988Y-88036400D02*
X209848607Y-87988780D01*
X209848607Y-87988780D02*
X209848607Y-87655447D01*
X209848607Y-87655447D02*
X209658131Y-87655447D01*
X210277179Y-88084019D02*
X210277179Y-87084019D01*
X210277179Y-87084019D02*
X210848607Y-88084019D01*
X210848607Y-88084019D02*
X210848607Y-87084019D01*
X211324798Y-88084019D02*
X211324798Y-87084019D01*
X211324798Y-87084019D02*
X211562893Y-87084019D01*
X211562893Y-87084019D02*
X211705750Y-87131638D01*
X211705750Y-87131638D02*
X211800988Y-87226876D01*
X211800988Y-87226876D02*
X211848607Y-87322114D01*
X211848607Y-87322114D02*
X211896226Y-87512590D01*
X211896226Y-87512590D02*
X211896226Y-87655447D01*
X211896226Y-87655447D02*
X211848607Y-87845923D01*
X211848607Y-87845923D02*
X211800988Y-87941161D01*
X211800988Y-87941161D02*
X211705750Y-88036400D01*
X211705750Y-88036400D02*
X211562893Y-88084019D01*
X211562893Y-88084019D02*
X211324798Y-88084019D01*
X209327979Y-93164019D02*
X209327979Y-92164019D01*
X209327979Y-92164019D02*
X209566074Y-92164019D01*
X209566074Y-92164019D02*
X209708931Y-92211638D01*
X209708931Y-92211638D02*
X209804169Y-92306876D01*
X209804169Y-92306876D02*
X209851788Y-92402114D01*
X209851788Y-92402114D02*
X209899407Y-92592590D01*
X209899407Y-92592590D02*
X209899407Y-92735447D01*
X209899407Y-92735447D02*
X209851788Y-92925923D01*
X209851788Y-92925923D02*
X209804169Y-93021161D01*
X209804169Y-93021161D02*
X209708931Y-93116400D01*
X209708931Y-93116400D02*
X209566074Y-93164019D01*
X209566074Y-93164019D02*
X209327979Y-93164019D01*
X210327979Y-93164019D02*
X210327979Y-92164019D01*
X210994645Y-92164019D02*
X211185121Y-92164019D01*
X211185121Y-92164019D02*
X211280359Y-92211638D01*
X211280359Y-92211638D02*
X211375597Y-92306876D01*
X211375597Y-92306876D02*
X211423216Y-92497352D01*
X211423216Y-92497352D02*
X211423216Y-92830685D01*
X211423216Y-92830685D02*
X211375597Y-93021161D01*
X211375597Y-93021161D02*
X211280359Y-93116400D01*
X211280359Y-93116400D02*
X211185121Y-93164019D01*
X211185121Y-93164019D02*
X210994645Y-93164019D01*
X210994645Y-93164019D02*
X210899407Y-93116400D01*
X210899407Y-93116400D02*
X210804169Y-93021161D01*
X210804169Y-93021161D02*
X210756550Y-92830685D01*
X210756550Y-92830685D02*
X210756550Y-92497352D01*
X210756550Y-92497352D02*
X210804169Y-92306876D01*
X210804169Y-92306876D02*
X210899407Y-92211638D01*
X210899407Y-92211638D02*
X210994645Y-92164019D01*
X159543905Y-94460819D02*
X159543905Y-93460819D01*
X159543905Y-93460819D02*
X159924857Y-93460819D01*
X159924857Y-93460819D02*
X160020095Y-93508438D01*
X160020095Y-93508438D02*
X160067714Y-93556057D01*
X160067714Y-93556057D02*
X160115333Y-93651295D01*
X160115333Y-93651295D02*
X160115333Y-93794152D01*
X160115333Y-93794152D02*
X160067714Y-93889390D01*
X160067714Y-93889390D02*
X160020095Y-93937009D01*
X160020095Y-93937009D02*
X159924857Y-93984628D01*
X159924857Y-93984628D02*
X159543905Y-93984628D01*
X160877238Y-93937009D02*
X161020095Y-93984628D01*
X161020095Y-93984628D02*
X161067714Y-94032247D01*
X161067714Y-94032247D02*
X161115333Y-94127485D01*
X161115333Y-94127485D02*
X161115333Y-94270342D01*
X161115333Y-94270342D02*
X161067714Y-94365580D01*
X161067714Y-94365580D02*
X161020095Y-94413200D01*
X161020095Y-94413200D02*
X160924857Y-94460819D01*
X160924857Y-94460819D02*
X160543905Y-94460819D01*
X160543905Y-94460819D02*
X160543905Y-93460819D01*
X160543905Y-93460819D02*
X160877238Y-93460819D01*
X160877238Y-93460819D02*
X160972476Y-93508438D01*
X160972476Y-93508438D02*
X161020095Y-93556057D01*
X161020095Y-93556057D02*
X161067714Y-93651295D01*
X161067714Y-93651295D02*
X161067714Y-93746533D01*
X161067714Y-93746533D02*
X161020095Y-93841771D01*
X161020095Y-93841771D02*
X160972476Y-93889390D01*
X160972476Y-93889390D02*
X160877238Y-93937009D01*
X160877238Y-93937009D02*
X160543905Y-93937009D01*
X161734381Y-93460819D02*
X161829619Y-93460819D01*
X161829619Y-93460819D02*
X161924857Y-93508438D01*
X161924857Y-93508438D02*
X161972476Y-93556057D01*
X161972476Y-93556057D02*
X162020095Y-93651295D01*
X162020095Y-93651295D02*
X162067714Y-93841771D01*
X162067714Y-93841771D02*
X162067714Y-94079866D01*
X162067714Y-94079866D02*
X162020095Y-94270342D01*
X162020095Y-94270342D02*
X161972476Y-94365580D01*
X161972476Y-94365580D02*
X161924857Y-94413200D01*
X161924857Y-94413200D02*
X161829619Y-94460819D01*
X161829619Y-94460819D02*
X161734381Y-94460819D01*
X161734381Y-94460819D02*
X161639143Y-94413200D01*
X161639143Y-94413200D02*
X161591524Y-94365580D01*
X161591524Y-94365580D02*
X161543905Y-94270342D01*
X161543905Y-94270342D02*
X161496286Y-94079866D01*
X161496286Y-94079866D02*
X161496286Y-93841771D01*
X161496286Y-93841771D02*
X161543905Y-93651295D01*
X161543905Y-93651295D02*
X161591524Y-93556057D01*
X161591524Y-93556057D02*
X161639143Y-93508438D01*
X161639143Y-93508438D02*
X161734381Y-93460819D01*
X192460714Y-86132200D02*
X192603571Y-86179819D01*
X192603571Y-86179819D02*
X192841666Y-86179819D01*
X192841666Y-86179819D02*
X192936904Y-86132200D01*
X192936904Y-86132200D02*
X192984523Y-86084580D01*
X192984523Y-86084580D02*
X193032142Y-85989342D01*
X193032142Y-85989342D02*
X193032142Y-85894104D01*
X193032142Y-85894104D02*
X192984523Y-85798866D01*
X192984523Y-85798866D02*
X192936904Y-85751247D01*
X192936904Y-85751247D02*
X192841666Y-85703628D01*
X192841666Y-85703628D02*
X192651190Y-85656009D01*
X192651190Y-85656009D02*
X192555952Y-85608390D01*
X192555952Y-85608390D02*
X192508333Y-85560771D01*
X192508333Y-85560771D02*
X192460714Y-85465533D01*
X192460714Y-85465533D02*
X192460714Y-85370295D01*
X192460714Y-85370295D02*
X192508333Y-85275057D01*
X192508333Y-85275057D02*
X192555952Y-85227438D01*
X192555952Y-85227438D02*
X192651190Y-85179819D01*
X192651190Y-85179819D02*
X192889285Y-85179819D01*
X192889285Y-85179819D02*
X193032142Y-85227438D01*
X193460714Y-86179819D02*
X193460714Y-85179819D01*
X193460714Y-85179819D02*
X193698809Y-85179819D01*
X193698809Y-85179819D02*
X193841666Y-85227438D01*
X193841666Y-85227438D02*
X193936904Y-85322676D01*
X193936904Y-85322676D02*
X193984523Y-85417914D01*
X193984523Y-85417914D02*
X194032142Y-85608390D01*
X194032142Y-85608390D02*
X194032142Y-85751247D01*
X194032142Y-85751247D02*
X193984523Y-85941723D01*
X193984523Y-85941723D02*
X193936904Y-86036961D01*
X193936904Y-86036961D02*
X193841666Y-86132200D01*
X193841666Y-86132200D02*
X193698809Y-86179819D01*
X193698809Y-86179819D02*
X193460714Y-86179819D01*
X194413095Y-85894104D02*
X194889285Y-85894104D01*
X194317857Y-86179819D02*
X194651190Y-85179819D01*
X194651190Y-85179819D02*
X194984523Y-86179819D01*
X163568238Y-82893819D02*
X163806333Y-83893819D01*
X163806333Y-83893819D02*
X163996809Y-83179533D01*
X163996809Y-83179533D02*
X164187285Y-83893819D01*
X164187285Y-83893819D02*
X164425381Y-82893819D01*
X164806333Y-83893819D02*
X164806333Y-82893819D01*
X165377761Y-83893819D02*
X164949190Y-83322390D01*
X165377761Y-82893819D02*
X164806333Y-83465247D01*
X166234904Y-83227152D02*
X166234904Y-83893819D01*
X165996809Y-82846200D02*
X165758714Y-83560485D01*
X165758714Y-83560485D02*
X166377761Y-83560485D01*
X161667436Y-98810647D02*
X162374543Y-98103540D01*
X162374543Y-98103540D02*
X162643917Y-98372914D01*
X162643917Y-98372914D02*
X162677588Y-98473930D01*
X162677588Y-98473930D02*
X162677588Y-98541273D01*
X162677588Y-98541273D02*
X162643917Y-98642288D01*
X162643917Y-98642288D02*
X162542901Y-98743304D01*
X162542901Y-98743304D02*
X162441886Y-98776975D01*
X162441886Y-98776975D02*
X162374543Y-98776975D01*
X162374543Y-98776975D02*
X162273527Y-98743304D01*
X162273527Y-98743304D02*
X162004153Y-98473930D01*
X162542901Y-99282052D02*
X162879619Y-99618769D01*
X162273527Y-99416739D02*
X163216336Y-98945334D01*
X163216336Y-98945334D02*
X162744932Y-99888143D01*
X163485711Y-99820800D02*
X163452039Y-99719785D01*
X163452039Y-99719785D02*
X163452039Y-99652441D01*
X163452039Y-99652441D02*
X163485711Y-99551426D01*
X163485711Y-99551426D02*
X163519382Y-99517754D01*
X163519382Y-99517754D02*
X163620398Y-99484082D01*
X163620398Y-99484082D02*
X163687741Y-99484082D01*
X163687741Y-99484082D02*
X163788756Y-99517754D01*
X163788756Y-99517754D02*
X163923443Y-99652441D01*
X163923443Y-99652441D02*
X163957115Y-99753456D01*
X163957115Y-99753456D02*
X163957115Y-99820800D01*
X163957115Y-99820800D02*
X163923443Y-99921815D01*
X163923443Y-99921815D02*
X163889772Y-99955487D01*
X163889772Y-99955487D02*
X163788756Y-99989159D01*
X163788756Y-99989159D02*
X163721413Y-99989159D01*
X163721413Y-99989159D02*
X163620398Y-99955487D01*
X163620398Y-99955487D02*
X163485711Y-99820800D01*
X163485711Y-99820800D02*
X163384695Y-99787128D01*
X163384695Y-99787128D02*
X163317352Y-99787128D01*
X163317352Y-99787128D02*
X163216337Y-99820800D01*
X163216337Y-99820800D02*
X163081650Y-99955487D01*
X163081650Y-99955487D02*
X163047978Y-100056502D01*
X163047978Y-100056502D02*
X163047978Y-100123846D01*
X163047978Y-100123846D02*
X163081650Y-100224861D01*
X163081650Y-100224861D02*
X163216337Y-100359548D01*
X163216337Y-100359548D02*
X163317352Y-100393220D01*
X163317352Y-100393220D02*
X163384695Y-100393220D01*
X163384695Y-100393220D02*
X163485711Y-100359548D01*
X163485711Y-100359548D02*
X163620398Y-100224861D01*
X163620398Y-100224861D02*
X163654069Y-100123846D01*
X163654069Y-100123846D02*
X163654069Y-100056502D01*
X163654069Y-100056502D02*
X163620398Y-99955487D01*
X165354095Y-99302819D02*
X165925523Y-99302819D01*
X165639809Y-100302819D02*
X165639809Y-99302819D01*
X166163619Y-99302819D02*
X166830285Y-100302819D01*
X166830285Y-99302819D02*
X166163619Y-100302819D01*
X167981333Y-100302819D02*
X167648000Y-99826628D01*
X167409905Y-100302819D02*
X167409905Y-99302819D01*
X167409905Y-99302819D02*
X167790857Y-99302819D01*
X167790857Y-99302819D02*
X167886095Y-99350438D01*
X167886095Y-99350438D02*
X167933714Y-99398057D01*
X167933714Y-99398057D02*
X167981333Y-99493295D01*
X167981333Y-99493295D02*
X167981333Y-99636152D01*
X167981333Y-99636152D02*
X167933714Y-99731390D01*
X167933714Y-99731390D02*
X167886095Y-99779009D01*
X167886095Y-99779009D02*
X167790857Y-99826628D01*
X167790857Y-99826628D02*
X167409905Y-99826628D01*
X168314667Y-99302819D02*
X168981333Y-100302819D01*
X168981333Y-99302819D02*
X168314667Y-100302819D01*
X161663142Y-87221819D02*
X161186952Y-87221819D01*
X161186952Y-87221819D02*
X161186952Y-86221819D01*
X161996476Y-86698009D02*
X162329809Y-86698009D01*
X162472666Y-87221819D02*
X161996476Y-87221819D01*
X161996476Y-87221819D02*
X161996476Y-86221819D01*
X161996476Y-86221819D02*
X162472666Y-86221819D01*
X162901238Y-87221819D02*
X162901238Y-86221819D01*
X162901238Y-86221819D02*
X163139333Y-86221819D01*
X163139333Y-86221819D02*
X163282190Y-86269438D01*
X163282190Y-86269438D02*
X163377428Y-86364676D01*
X163377428Y-86364676D02*
X163425047Y-86459914D01*
X163425047Y-86459914D02*
X163472666Y-86650390D01*
X163472666Y-86650390D02*
X163472666Y-86793247D01*
X163472666Y-86793247D02*
X163425047Y-86983723D01*
X163425047Y-86983723D02*
X163377428Y-87078961D01*
X163377428Y-87078961D02*
X163282190Y-87174200D01*
X163282190Y-87174200D02*
X163139333Y-87221819D01*
X163139333Y-87221819D02*
X162901238Y-87221819D01*
X200977667Y-101715819D02*
X201311000Y-102715819D01*
X201311000Y-102715819D02*
X201644333Y-101715819D01*
X202549095Y-102620580D02*
X202501476Y-102668200D01*
X202501476Y-102668200D02*
X202358619Y-102715819D01*
X202358619Y-102715819D02*
X202263381Y-102715819D01*
X202263381Y-102715819D02*
X202120524Y-102668200D01*
X202120524Y-102668200D02*
X202025286Y-102572961D01*
X202025286Y-102572961D02*
X201977667Y-102477723D01*
X201977667Y-102477723D02*
X201930048Y-102287247D01*
X201930048Y-102287247D02*
X201930048Y-102144390D01*
X201930048Y-102144390D02*
X201977667Y-101953914D01*
X201977667Y-101953914D02*
X202025286Y-101858676D01*
X202025286Y-101858676D02*
X202120524Y-101763438D01*
X202120524Y-101763438D02*
X202263381Y-101715819D01*
X202263381Y-101715819D02*
X202358619Y-101715819D01*
X202358619Y-101715819D02*
X202501476Y-101763438D01*
X202501476Y-101763438D02*
X202549095Y-101811057D01*
X203549095Y-102620580D02*
X203501476Y-102668200D01*
X203501476Y-102668200D02*
X203358619Y-102715819D01*
X203358619Y-102715819D02*
X203263381Y-102715819D01*
X203263381Y-102715819D02*
X203120524Y-102668200D01*
X203120524Y-102668200D02*
X203025286Y-102572961D01*
X203025286Y-102572961D02*
X202977667Y-102477723D01*
X202977667Y-102477723D02*
X202930048Y-102287247D01*
X202930048Y-102287247D02*
X202930048Y-102144390D01*
X202930048Y-102144390D02*
X202977667Y-101953914D01*
X202977667Y-101953914D02*
X203025286Y-101858676D01*
X203025286Y-101858676D02*
X203120524Y-101763438D01*
X203120524Y-101763438D02*
X203263381Y-101715819D01*
X203263381Y-101715819D02*
X203358619Y-101715819D01*
X203358619Y-101715819D02*
X203501476Y-101763438D01*
X203501476Y-101763438D02*
X203549095Y-101811057D01*
X172077190Y-97540580D02*
X172029571Y-97588200D01*
X172029571Y-97588200D02*
X171886714Y-97635819D01*
X171886714Y-97635819D02*
X171791476Y-97635819D01*
X171791476Y-97635819D02*
X171648619Y-97588200D01*
X171648619Y-97588200D02*
X171553381Y-97492961D01*
X171553381Y-97492961D02*
X171505762Y-97397723D01*
X171505762Y-97397723D02*
X171458143Y-97207247D01*
X171458143Y-97207247D02*
X171458143Y-97064390D01*
X171458143Y-97064390D02*
X171505762Y-96873914D01*
X171505762Y-96873914D02*
X171553381Y-96778676D01*
X171553381Y-96778676D02*
X171648619Y-96683438D01*
X171648619Y-96683438D02*
X171791476Y-96635819D01*
X171791476Y-96635819D02*
X171886714Y-96635819D01*
X171886714Y-96635819D02*
X172029571Y-96683438D01*
X172029571Y-96683438D02*
X172077190Y-96731057D01*
X172410524Y-96635819D02*
X173029571Y-96635819D01*
X173029571Y-96635819D02*
X172696238Y-97016771D01*
X172696238Y-97016771D02*
X172839095Y-97016771D01*
X172839095Y-97016771D02*
X172934333Y-97064390D01*
X172934333Y-97064390D02*
X172981952Y-97112009D01*
X172981952Y-97112009D02*
X173029571Y-97207247D01*
X173029571Y-97207247D02*
X173029571Y-97445342D01*
X173029571Y-97445342D02*
X172981952Y-97540580D01*
X172981952Y-97540580D02*
X172934333Y-97588200D01*
X172934333Y-97588200D02*
X172839095Y-97635819D01*
X172839095Y-97635819D02*
X172553381Y-97635819D01*
X172553381Y-97635819D02*
X172458143Y-97588200D01*
X172458143Y-97588200D02*
X172410524Y-97540580D01*
X173220048Y-97731057D02*
X173981952Y-97731057D01*
X174743857Y-97635819D02*
X174172429Y-97635819D01*
X174458143Y-97635819D02*
X174458143Y-96635819D01*
X174458143Y-96635819D02*
X174362905Y-96778676D01*
X174362905Y-96778676D02*
X174267667Y-96873914D01*
X174267667Y-96873914D02*
X174172429Y-96921533D01*
X192484524Y-92127200D02*
X192627381Y-92174819D01*
X192627381Y-92174819D02*
X192865476Y-92174819D01*
X192865476Y-92174819D02*
X192960714Y-92127200D01*
X192960714Y-92127200D02*
X193008333Y-92079580D01*
X193008333Y-92079580D02*
X193055952Y-91984342D01*
X193055952Y-91984342D02*
X193055952Y-91889104D01*
X193055952Y-91889104D02*
X193008333Y-91793866D01*
X193008333Y-91793866D02*
X192960714Y-91746247D01*
X192960714Y-91746247D02*
X192865476Y-91698628D01*
X192865476Y-91698628D02*
X192675000Y-91651009D01*
X192675000Y-91651009D02*
X192579762Y-91603390D01*
X192579762Y-91603390D02*
X192532143Y-91555771D01*
X192532143Y-91555771D02*
X192484524Y-91460533D01*
X192484524Y-91460533D02*
X192484524Y-91365295D01*
X192484524Y-91365295D02*
X192532143Y-91270057D01*
X192532143Y-91270057D02*
X192579762Y-91222438D01*
X192579762Y-91222438D02*
X192675000Y-91174819D01*
X192675000Y-91174819D02*
X192913095Y-91174819D01*
X192913095Y-91174819D02*
X193055952Y-91222438D01*
X194055952Y-92079580D02*
X194008333Y-92127200D01*
X194008333Y-92127200D02*
X193865476Y-92174819D01*
X193865476Y-92174819D02*
X193770238Y-92174819D01*
X193770238Y-92174819D02*
X193627381Y-92127200D01*
X193627381Y-92127200D02*
X193532143Y-92031961D01*
X193532143Y-92031961D02*
X193484524Y-91936723D01*
X193484524Y-91936723D02*
X193436905Y-91746247D01*
X193436905Y-91746247D02*
X193436905Y-91603390D01*
X193436905Y-91603390D02*
X193484524Y-91412914D01*
X193484524Y-91412914D02*
X193532143Y-91317676D01*
X193532143Y-91317676D02*
X193627381Y-91222438D01*
X193627381Y-91222438D02*
X193770238Y-91174819D01*
X193770238Y-91174819D02*
X193865476Y-91174819D01*
X193865476Y-91174819D02*
X194008333Y-91222438D01*
X194008333Y-91222438D02*
X194055952Y-91270057D01*
X194960714Y-92174819D02*
X194484524Y-92174819D01*
X194484524Y-92174819D02*
X194484524Y-91174819D01*
X159924905Y-97254819D02*
X159924905Y-96254819D01*
X159924905Y-96254819D02*
X160305857Y-96254819D01*
X160305857Y-96254819D02*
X160401095Y-96302438D01*
X160401095Y-96302438D02*
X160448714Y-96350057D01*
X160448714Y-96350057D02*
X160496333Y-96445295D01*
X160496333Y-96445295D02*
X160496333Y-96588152D01*
X160496333Y-96588152D02*
X160448714Y-96683390D01*
X160448714Y-96683390D02*
X160401095Y-96731009D01*
X160401095Y-96731009D02*
X160305857Y-96778628D01*
X160305857Y-96778628D02*
X159924905Y-96778628D01*
X161258238Y-96731009D02*
X161401095Y-96778628D01*
X161401095Y-96778628D02*
X161448714Y-96826247D01*
X161448714Y-96826247D02*
X161496333Y-96921485D01*
X161496333Y-96921485D02*
X161496333Y-97064342D01*
X161496333Y-97064342D02*
X161448714Y-97159580D01*
X161448714Y-97159580D02*
X161401095Y-97207200D01*
X161401095Y-97207200D02*
X161305857Y-97254819D01*
X161305857Y-97254819D02*
X160924905Y-97254819D01*
X160924905Y-97254819D02*
X160924905Y-96254819D01*
X160924905Y-96254819D02*
X161258238Y-96254819D01*
X161258238Y-96254819D02*
X161353476Y-96302438D01*
X161353476Y-96302438D02*
X161401095Y-96350057D01*
X161401095Y-96350057D02*
X161448714Y-96445295D01*
X161448714Y-96445295D02*
X161448714Y-96540533D01*
X161448714Y-96540533D02*
X161401095Y-96635771D01*
X161401095Y-96635771D02*
X161353476Y-96683390D01*
X161353476Y-96683390D02*
X161258238Y-96731009D01*
X161258238Y-96731009D02*
X160924905Y-96731009D01*
X162448714Y-97254819D02*
X161877286Y-97254819D01*
X162163000Y-97254819D02*
X162163000Y-96254819D01*
X162163000Y-96254819D02*
X162067762Y-96397676D01*
X162067762Y-96397676D02*
X161972524Y-96492914D01*
X161972524Y-96492914D02*
X161877286Y-96540533D01*
X196262714Y-101715819D02*
X196881761Y-101715819D01*
X196881761Y-101715819D02*
X196548428Y-102096771D01*
X196548428Y-102096771D02*
X196691285Y-102096771D01*
X196691285Y-102096771D02*
X196786523Y-102144390D01*
X196786523Y-102144390D02*
X196834142Y-102192009D01*
X196834142Y-102192009D02*
X196881761Y-102287247D01*
X196881761Y-102287247D02*
X196881761Y-102525342D01*
X196881761Y-102525342D02*
X196834142Y-102620580D01*
X196834142Y-102620580D02*
X196786523Y-102668200D01*
X196786523Y-102668200D02*
X196691285Y-102715819D01*
X196691285Y-102715819D02*
X196405571Y-102715819D01*
X196405571Y-102715819D02*
X196310333Y-102668200D01*
X196310333Y-102668200D02*
X196262714Y-102620580D01*
X197215095Y-102049152D02*
X197453190Y-102715819D01*
X197453190Y-102715819D02*
X197691285Y-102049152D01*
X159361333Y-89608819D02*
X159361333Y-88608819D01*
X159361333Y-88608819D02*
X159742285Y-88608819D01*
X159742285Y-88608819D02*
X159837523Y-88656438D01*
X159837523Y-88656438D02*
X159885142Y-88704057D01*
X159885142Y-88704057D02*
X159932761Y-88799295D01*
X159932761Y-88799295D02*
X159932761Y-88942152D01*
X159932761Y-88942152D02*
X159885142Y-89037390D01*
X159885142Y-89037390D02*
X159837523Y-89085009D01*
X159837523Y-89085009D02*
X159742285Y-89132628D01*
X159742285Y-89132628D02*
X159361333Y-89132628D01*
X160313714Y-89323104D02*
X160789904Y-89323104D01*
X160218476Y-89608819D02*
X160551809Y-88608819D01*
X160551809Y-88608819D02*
X160885142Y-89608819D01*
X161123238Y-88608819D02*
X161789904Y-88608819D01*
X161789904Y-88608819D02*
X161361333Y-89608819D01*
X203574512Y-91716945D02*
X203641856Y-91851632D01*
X203641856Y-91851632D02*
X203641856Y-91918976D01*
X203641856Y-91918976D02*
X203608184Y-92019991D01*
X203608184Y-92019991D02*
X203507169Y-92121006D01*
X203507169Y-92121006D02*
X203406154Y-92154678D01*
X203406154Y-92154678D02*
X203338810Y-92154678D01*
X203338810Y-92154678D02*
X203237795Y-92121006D01*
X203237795Y-92121006D02*
X202968421Y-91851632D01*
X202968421Y-91851632D02*
X203675528Y-91144525D01*
X203675528Y-91144525D02*
X203911230Y-91380227D01*
X203911230Y-91380227D02*
X203944902Y-91481243D01*
X203944902Y-91481243D02*
X203944902Y-91548586D01*
X203944902Y-91548586D02*
X203911230Y-91649601D01*
X203911230Y-91649601D02*
X203843886Y-91716945D01*
X203843886Y-91716945D02*
X203742871Y-91750617D01*
X203742871Y-91750617D02*
X203675528Y-91750617D01*
X203675528Y-91750617D02*
X203574512Y-91716945D01*
X203574512Y-91716945D02*
X203338810Y-91481243D01*
X203675528Y-92558739D02*
X204382634Y-91851632D01*
X204382634Y-91851632D02*
X204113260Y-92592411D01*
X204113260Y-92592411D02*
X204854039Y-92323037D01*
X204854039Y-92323037D02*
X204146932Y-93030143D01*
X204483649Y-93299517D02*
X204550993Y-93434204D01*
X204550993Y-93434204D02*
X204719352Y-93602563D01*
X204719352Y-93602563D02*
X204820367Y-93636235D01*
X204820367Y-93636235D02*
X204887710Y-93636235D01*
X204887710Y-93636235D02*
X204988726Y-93602563D01*
X204988726Y-93602563D02*
X205056069Y-93535219D01*
X205056069Y-93535219D02*
X205089741Y-93434204D01*
X205089741Y-93434204D02*
X205089741Y-93366861D01*
X205089741Y-93366861D02*
X205056069Y-93265845D01*
X205056069Y-93265845D02*
X204955054Y-93097487D01*
X204955054Y-93097487D02*
X204921382Y-92996471D01*
X204921382Y-92996471D02*
X204921382Y-92929128D01*
X204921382Y-92929128D02*
X204955054Y-92828113D01*
X204955054Y-92828113D02*
X205022397Y-92760769D01*
X205022397Y-92760769D02*
X205123413Y-92727097D01*
X205123413Y-92727097D02*
X205190756Y-92727097D01*
X205190756Y-92727097D02*
X205291771Y-92760769D01*
X205291771Y-92760769D02*
X205460130Y-92929128D01*
X205460130Y-92929128D02*
X205527474Y-93063815D01*
D11*
%TO.C,C7*%
X163683836Y-95864000D02*
X163468164Y-95864000D01*
X163683836Y-95144000D02*
X163468164Y-95144000D01*
%TO.C,U1*%
X199720200Y-99858000D02*
X201520200Y-99858000D01*
X199720200Y-99858000D02*
X198920200Y-99858000D01*
X199720200Y-96738000D02*
X200520200Y-96738000D01*
X199720200Y-96738000D02*
X198920200Y-96738000D01*
%TO.C,R5*%
X198756000Y-95024641D02*
X198756000Y-94717359D01*
X199516000Y-95024641D02*
X199516000Y-94717359D01*
%TO.C,U3*%
X186774000Y-90086000D02*
X186774000Y-90086000D01*
X185074000Y-90086000D02*
X185074000Y-90086000D01*
X184574000Y-90086000D02*
X185074000Y-90086000D01*
X186774000Y-90586000D02*
X186774000Y-90086000D01*
X184574000Y-90586000D02*
X184574000Y-90086000D01*
X186774000Y-91786000D02*
X186774000Y-92286000D01*
X184574000Y-91786000D02*
X184574000Y-91786000D01*
X186774000Y-92286000D02*
X186274000Y-92286000D01*
X186274000Y-92286000D02*
X186274000Y-92286000D01*
X185074000Y-92286000D02*
X184574000Y-92286000D01*
X184574000Y-92286000D02*
X184574000Y-91786000D01*
%TO.C,C14*%
X179851164Y-94255000D02*
X180066836Y-94255000D01*
X179851164Y-94975000D02*
X180066836Y-94975000D01*
%TO.C,TP1*%
X161482000Y-92456000D02*
G75*
G02*
X160082000Y-92456000I-700000J0D01*
G01*
X160082000Y-92456000D02*
G75*
G02*
X161482000Y-92456000I700000J0D01*
G01*
%TO.C,Y1*%
X172099000Y-84114000D02*
X172099000Y-82764000D01*
X173849000Y-84114000D02*
X173849000Y-82764000D01*
%TO.C,R2*%
X187961000Y-91339641D02*
X187961000Y-91032359D01*
X188721000Y-91339641D02*
X188721000Y-91032359D01*
%TO.C,R3*%
X185800000Y-86460359D02*
X185800000Y-86767641D01*
X185040000Y-86460359D02*
X185040000Y-86767641D01*
%TO.C,C2*%
X204999000Y-95131836D02*
X204999000Y-94916164D01*
X205719000Y-95131836D02*
X205719000Y-94916164D01*
%TO.C,C1*%
X202683164Y-96668000D02*
X202898836Y-96668000D01*
X202683164Y-97388000D02*
X202898836Y-97388000D01*
%TO.C,REF\u002A\u002A7*%
X210071353Y-102335331D02*
X209710232Y-101794876D01*
X210071353Y-102335331D02*
X207709979Y-103913151D01*
X208793541Y-100422951D02*
X206432167Y-102000771D01*
%TO.C,C5*%
X172231164Y-86508000D02*
X172446836Y-86508000D01*
X172231164Y-87228000D02*
X172446836Y-87228000D01*
%TO.C,C15*%
X179851164Y-95271000D02*
X180066836Y-95271000D01*
X179851164Y-95991000D02*
X180066836Y-95991000D01*
%TO.C,C4*%
X185781836Y-94340000D02*
X185566164Y-94340000D01*
X185781836Y-93620000D02*
X185566164Y-93620000D01*
%TO.C,C13*%
X170836000Y-82530836D02*
X170836000Y-82315164D01*
X171556000Y-82530836D02*
X171556000Y-82315164D01*
%TO.C,U4*%
X171529400Y-87576000D02*
X171229400Y-87576000D01*
X171229400Y-87576000D02*
X171229400Y-86261000D01*
X164309400Y-87576000D02*
X164609400Y-87576000D01*
X171529400Y-87876000D02*
X171529400Y-87576000D01*
X164309400Y-87876000D02*
X164309400Y-87576000D01*
X171529400Y-94496000D02*
X171529400Y-94796000D01*
X164309400Y-94496000D02*
X164309400Y-94796000D01*
X171529400Y-94796000D02*
X171229400Y-94796000D01*
X164309400Y-94796000D02*
X164609400Y-94796000D01*
%TO.C,TP5*%
X194375000Y-87249000D02*
G75*
G02*
X192975000Y-87249000I-700000J0D01*
G01*
X192975000Y-87249000D02*
G75*
G02*
X194375000Y-87249000I700000J0D01*
G01*
%TO.C,REF\u002A\u002A12*%
X207709979Y-78458849D02*
X207348858Y-78999304D01*
X207709979Y-78458849D02*
X210071353Y-80036669D01*
X206432167Y-80371229D02*
X208793541Y-81949049D01*
%TO.C,REF\u002A\u002A8*%
X213640939Y-97982191D02*
X213100484Y-97621070D01*
X213640939Y-97982191D02*
X212063119Y-100343565D01*
X211728559Y-96704379D02*
X210150739Y-99065753D01*
%TO.C,Q2*%
X175768000Y-79792000D02*
X177443000Y-79792000D01*
X175768000Y-79792000D02*
X175118000Y-79792000D01*
X175768000Y-76672000D02*
X176418000Y-76672000D01*
X175768000Y-76672000D02*
X175118000Y-76672000D01*
%TO.C,R8*%
X174626000Y-93371641D02*
X174626000Y-93064359D01*
X175386000Y-93371641D02*
X175386000Y-93064359D01*
%TO.C,TP13*%
X165673000Y-84836000D02*
G75*
G02*
X164273000Y-84836000I-700000J0D01*
G01*
X164273000Y-84836000D02*
G75*
G02*
X165673000Y-84836000I700000J0D01*
G01*
%TO.C,Q1*%
X177495200Y-91658000D02*
X175820200Y-91658000D01*
X177495200Y-91658000D02*
X178145200Y-91658000D01*
X177495200Y-94778000D02*
X176845200Y-94778000D01*
X177495200Y-94778000D02*
X178145200Y-94778000D01*
%TO.C,REF\u002A\u002A6*%
X205107611Y-104991086D02*
X204980802Y-104353575D01*
X205107611Y-104991086D02*
X202322181Y-105545142D01*
X204658903Y-102735280D02*
X201873473Y-103289336D01*
%TO.C,TP4*%
X164911000Y-98425000D02*
G75*
G02*
X163511000Y-98425000I-700000J0D01*
G01*
X163511000Y-98425000D02*
G75*
G02*
X164911000Y-98425000I700000J0D01*
G01*
%TO.C,REF\u002A\u002A5*%
X169025819Y-105545143D02*
X169152628Y-104907633D01*
X169025819Y-105545143D02*
X166240389Y-104991087D01*
X169474527Y-103289337D02*
X166689097Y-102735281D01*
%TO.C,C12*%
X171556000Y-84347164D02*
X171556000Y-84562836D01*
X170836000Y-84347164D02*
X170836000Y-84562836D01*
%TO.C,TP17*%
X167070000Y-98298000D02*
G75*
G02*
X165670000Y-98298000I-700000J0D01*
G01*
X165670000Y-98298000D02*
G75*
G02*
X167070000Y-98298000I700000J0D01*
G01*
%TO.C,J1*%
X206315000Y-86183000D02*
X207645000Y-86183000D01*
X206315000Y-87513000D02*
X206315000Y-86183000D01*
X206315000Y-88783000D02*
X206315000Y-96463000D01*
X206315000Y-88783000D02*
X208975000Y-88783000D01*
X206315000Y-96463000D02*
X208975000Y-96463000D01*
X208975000Y-88783000D02*
X208975000Y-96463000D01*
%TO.C,REF\u002A\u002A1*%
X156075068Y-89777608D02*
X156712578Y-89904417D01*
X156075068Y-89777608D02*
X156629124Y-86992178D01*
X158330874Y-90226316D02*
X158884930Y-87440886D01*
%TO.C,C10*%
X168381000Y-83966164D02*
X168381000Y-84181836D01*
X167661000Y-83966164D02*
X167661000Y-84181836D01*
%TO.C,R7*%
X200887359Y-90806000D02*
X201194641Y-90806000D01*
X200887359Y-91566000D02*
X201194641Y-91566000D01*
%TO.C,C3*%
X185781836Y-93324000D02*
X185566164Y-93324000D01*
X185781836Y-92604000D02*
X185566164Y-92604000D01*
%TO.C,R6*%
X201700159Y-91847400D02*
X202007441Y-91847400D01*
X201700159Y-92607400D02*
X202007441Y-92607400D01*
%TO.C,R9*%
X178688000Y-78078359D02*
X178688000Y-78385641D01*
X177928000Y-78078359D02*
X177928000Y-78385641D01*
%TO.C,C8*%
X202683164Y-97684000D02*
X202898836Y-97684000D01*
X202683164Y-98404000D02*
X202898836Y-98404000D01*
%TO.C,REF\u002A\u002A3*%
X159284880Y-100343565D02*
X159825335Y-99982444D01*
X159284880Y-100343565D02*
X157707060Y-97982191D01*
X161197260Y-99065753D02*
X159619440Y-96704379D01*
%TO.C,REF\u002A\u002A11*%
X212063119Y-82028435D02*
X211522664Y-82389556D01*
X212063119Y-82028435D02*
X213640939Y-84389809D01*
X210150739Y-83306247D02*
X211728559Y-85667621D01*
%TO.C,RX1*%
X168594000Y-98298000D02*
G75*
G02*
X167194000Y-98298000I-700000J0D01*
G01*
X167194000Y-98298000D02*
G75*
G02*
X168594000Y-98298000I700000J0D01*
G01*
%TO.C,TP12*%
X163006000Y-85217000D02*
G75*
G02*
X161606000Y-85217000I-700000J0D01*
G01*
X161606000Y-85217000D02*
G75*
G02*
X163006000Y-85217000I700000J0D01*
G01*
%TO.C,TP9*%
X203011000Y-100711000D02*
G75*
G02*
X201611000Y-100711000I-700000J0D01*
G01*
X201611000Y-100711000D02*
G75*
G02*
X203011000Y-100711000I700000J0D01*
G01*
%TO.C,TP16*%
X173801000Y-95631000D02*
G75*
G02*
X172401000Y-95631000I-700000J0D01*
G01*
X172401000Y-95631000D02*
G75*
G02*
X173801000Y-95631000I700000J0D01*
G01*
%TO.C,C6*%
X166985836Y-85831000D02*
X166770164Y-85831000D01*
X166985836Y-85111000D02*
X166770164Y-85111000D01*
%TO.C,TP6*%
X194375000Y-90170000D02*
G75*
G02*
X192975000Y-90170000I-700000J0D01*
G01*
X192975000Y-90170000D02*
G75*
G02*
X194375000Y-90170000I700000J0D01*
G01*
%TO.C,REF\u002A\u002A*%
X157707060Y-84389809D02*
X158247515Y-84750930D01*
X157707060Y-84389809D02*
X159284880Y-82028435D01*
X159619440Y-85667621D02*
X161197260Y-83306247D01*
%TO.C,R4*%
X174116000Y-88365359D02*
X174116000Y-88672641D01*
X173356000Y-88365359D02*
X173356000Y-88672641D01*
%TO.C,TP3*%
X161863000Y-95250000D02*
G75*
G02*
X160463000Y-95250000I-700000J0D01*
G01*
X160463000Y-95250000D02*
G75*
G02*
X161863000Y-95250000I700000J0D01*
G01*
%TO.C,C9*%
X196617000Y-98278836D02*
X196617000Y-98063164D01*
X197337000Y-98278836D02*
X197337000Y-98063164D01*
%TO.C,REF\u002A\u002A15*%
X161276646Y-80036669D02*
X161637767Y-80577124D01*
X161276646Y-80036669D02*
X163638020Y-78458849D01*
X162554458Y-81949049D02*
X164915832Y-80371229D01*
%TO.C,REF\u002A\u002A9*%
X215272931Y-92594392D02*
X214635421Y-92467583D01*
X215272931Y-92594392D02*
X214718875Y-95379822D01*
X213017125Y-92145684D02*
X212463069Y-94931114D01*
D12*
%TO.C,U5*%
X179832000Y-93980000D02*
X179832000Y-90170000D01*
X180467000Y-93980000D02*
X179832000Y-93980000D01*
D11*
%TO.C,REF\u002A\u002A10*%
X214718874Y-86992177D02*
X214081363Y-87118986D01*
X214718874Y-86992177D02*
X215272930Y-89777607D01*
X212463068Y-87440885D02*
X213017124Y-90226315D01*
%TO.C,REF\u002A\u002A4*%
X163638020Y-103913151D02*
X163999141Y-103372696D01*
X163638020Y-103913151D02*
X161276646Y-102335331D01*
X164915832Y-102000771D02*
X162554458Y-100422951D01*
%TO.C,R1*%
X202919359Y-94235000D02*
X203226641Y-94235000D01*
X202919359Y-94995000D02*
X203226641Y-94995000D01*
%TO.C,C11*%
X193315000Y-78494836D02*
X193315000Y-78279164D01*
X194035000Y-78494836D02*
X194035000Y-78279164D01*
%TO.C,U2*%
X199944800Y-94402200D02*
X201664800Y-94402200D01*
X199944800Y-94402200D02*
X199944800Y-95742200D01*
X201984800Y-94772200D02*
X201984800Y-95742200D01*
X201984800Y-95742200D02*
X199944800Y-95742200D01*
%TO.C,REF\u002A\u002A14*%
X166240388Y-77380914D02*
X166367197Y-78018425D01*
X166240388Y-77380914D02*
X169025818Y-76826858D01*
X166689096Y-79636720D02*
X169474526Y-79082664D01*
%TO.C,REF\u002A\u002A2*%
X156629125Y-95379823D02*
X157266636Y-95253014D01*
X156629125Y-95379823D02*
X156075069Y-92594393D01*
X158884931Y-94931115D02*
X158330875Y-92145685D01*
%TO.C,REF\u002A\u002A13*%
X202322180Y-76826857D02*
X202195371Y-77464367D01*
X202322180Y-76826857D02*
X205107610Y-77380913D01*
X201873472Y-79082663D02*
X204658902Y-79636719D01*
%TO.C,TP10*%
X197677000Y-100711000D02*
G75*
G02*
X196277000Y-100711000I-700000J0D01*
G01*
X196277000Y-100711000D02*
G75*
G02*
X197677000Y-100711000I700000J0D01*
G01*
%TO.C,TP2*%
X161101000Y-90424000D02*
G75*
G02*
X159701000Y-90424000I-700000J0D01*
G01*
X159701000Y-90424000D02*
G75*
G02*
X161101000Y-90424000I700000J0D01*
G01*
%TO.C,TP11*%
X203900000Y-93345000D02*
G75*
G02*
X202500000Y-93345000I-700000J0D01*
G01*
X202500000Y-93345000D02*
G75*
G02*
X203900000Y-93345000I700000J0D01*
G01*
%TD*%
M02*
