%TF.GenerationSoftware,KiCad,Pcbnew,8.0.0*%
%TF.CreationDate,2024-03-15T16:55:21-04:00*%
%TF.ProjectId,mainboard,6d61696e-626f-4617-9264-2e6b69636164,rev?*%
%TF.SameCoordinates,Original*%
%TF.FileFunction,Legend,Bot*%
%TF.FilePolarity,Positive*%
%FSLAX46Y46*%
G04 Gerber Fmt 4.6, Leading zero omitted, Abs format (unit mm)*
G04 Created by KiCad (PCBNEW 8.0.0) date 2024-03-15 16:55:21*
%MOMM*%
%LPD*%
G01*
G04 APERTURE LIST*
%ADD10C,0.150000*%
%ADD11C,0.120000*%
%ADD12C,0.100000*%
G04 APERTURE END LIST*
D10*
X166828980Y-97401190D02*
X166876600Y-97353571D01*
X166876600Y-97353571D02*
X166924219Y-97210714D01*
X166924219Y-97210714D02*
X166924219Y-97115476D01*
X166924219Y-97115476D02*
X166876600Y-96972619D01*
X166876600Y-96972619D02*
X166781361Y-96877381D01*
X166781361Y-96877381D02*
X166686123Y-96829762D01*
X166686123Y-96829762D02*
X166495647Y-96782143D01*
X166495647Y-96782143D02*
X166352790Y-96782143D01*
X166352790Y-96782143D02*
X166162314Y-96829762D01*
X166162314Y-96829762D02*
X166067076Y-96877381D01*
X166067076Y-96877381D02*
X165971838Y-96972619D01*
X165971838Y-96972619D02*
X165924219Y-97115476D01*
X165924219Y-97115476D02*
X165924219Y-97210714D01*
X165924219Y-97210714D02*
X165971838Y-97353571D01*
X165971838Y-97353571D02*
X166019457Y-97401190D01*
X166019457Y-97782143D02*
X165971838Y-97829762D01*
X165971838Y-97829762D02*
X165924219Y-97925000D01*
X165924219Y-97925000D02*
X165924219Y-98163095D01*
X165924219Y-98163095D02*
X165971838Y-98258333D01*
X165971838Y-98258333D02*
X166019457Y-98305952D01*
X166019457Y-98305952D02*
X166114695Y-98353571D01*
X166114695Y-98353571D02*
X166209933Y-98353571D01*
X166209933Y-98353571D02*
X166352790Y-98305952D01*
X166352790Y-98305952D02*
X166924219Y-97734524D01*
X166924219Y-97734524D02*
X166924219Y-98353571D01*
X167019457Y-98544048D02*
X167019457Y-99305952D01*
X166019457Y-99496429D02*
X165971838Y-99544048D01*
X165971838Y-99544048D02*
X165924219Y-99639286D01*
X165924219Y-99639286D02*
X165924219Y-99877381D01*
X165924219Y-99877381D02*
X165971838Y-99972619D01*
X165971838Y-99972619D02*
X166019457Y-100020238D01*
X166019457Y-100020238D02*
X166114695Y-100067857D01*
X166114695Y-100067857D02*
X166209933Y-100067857D01*
X166209933Y-100067857D02*
X166352790Y-100020238D01*
X166352790Y-100020238D02*
X166924219Y-99448810D01*
X166924219Y-99448810D02*
X166924219Y-100067857D01*
X190737951Y-88465819D02*
X190737951Y-87465819D01*
X190261761Y-88465819D02*
X190261761Y-87465819D01*
X190261761Y-87465819D02*
X189690333Y-88465819D01*
X189690333Y-88465819D02*
X189690333Y-87465819D01*
X189356999Y-87465819D02*
X188785571Y-87465819D01*
X189071285Y-88465819D02*
X189071285Y-87465819D01*
X187928428Y-88465819D02*
X188499856Y-88465819D01*
X188214142Y-88465819D02*
X188214142Y-87465819D01*
X188214142Y-87465819D02*
X188309380Y-87608676D01*
X188309380Y-87608676D02*
X188404618Y-87703914D01*
X188404618Y-87703914D02*
X188499856Y-87751533D01*
X169142580Y-97401190D02*
X169190200Y-97353571D01*
X169190200Y-97353571D02*
X169237819Y-97210714D01*
X169237819Y-97210714D02*
X169237819Y-97115476D01*
X169237819Y-97115476D02*
X169190200Y-96972619D01*
X169190200Y-96972619D02*
X169094961Y-96877381D01*
X169094961Y-96877381D02*
X168999723Y-96829762D01*
X168999723Y-96829762D02*
X168809247Y-96782143D01*
X168809247Y-96782143D02*
X168666390Y-96782143D01*
X168666390Y-96782143D02*
X168475914Y-96829762D01*
X168475914Y-96829762D02*
X168380676Y-96877381D01*
X168380676Y-96877381D02*
X168285438Y-96972619D01*
X168285438Y-96972619D02*
X168237819Y-97115476D01*
X168237819Y-97115476D02*
X168237819Y-97210714D01*
X168237819Y-97210714D02*
X168285438Y-97353571D01*
X168285438Y-97353571D02*
X168333057Y-97401190D01*
X168333057Y-97782143D02*
X168285438Y-97829762D01*
X168285438Y-97829762D02*
X168237819Y-97925000D01*
X168237819Y-97925000D02*
X168237819Y-98163095D01*
X168237819Y-98163095D02*
X168285438Y-98258333D01*
X168285438Y-98258333D02*
X168333057Y-98305952D01*
X168333057Y-98305952D02*
X168428295Y-98353571D01*
X168428295Y-98353571D02*
X168523533Y-98353571D01*
X168523533Y-98353571D02*
X168666390Y-98305952D01*
X168666390Y-98305952D02*
X169237819Y-97734524D01*
X169237819Y-97734524D02*
X169237819Y-98353571D01*
X169333057Y-98544048D02*
X169333057Y-99305952D01*
X169237819Y-100067857D02*
X169237819Y-99496429D01*
X169237819Y-99782143D02*
X168237819Y-99782143D01*
X168237819Y-99782143D02*
X168380676Y-99686905D01*
X168380676Y-99686905D02*
X168475914Y-99591667D01*
X168475914Y-99591667D02*
X168523533Y-99496429D01*
X190737951Y-93545819D02*
X190737951Y-92545819D01*
X190261761Y-93545819D02*
X190261761Y-92545819D01*
X190261761Y-92545819D02*
X189690333Y-93545819D01*
X189690333Y-93545819D02*
X189690333Y-92545819D01*
X189356999Y-92545819D02*
X188785571Y-92545819D01*
X189071285Y-93545819D02*
X189071285Y-92545819D01*
X188499856Y-92641057D02*
X188452237Y-92593438D01*
X188452237Y-92593438D02*
X188356999Y-92545819D01*
X188356999Y-92545819D02*
X188118904Y-92545819D01*
X188118904Y-92545819D02*
X188023666Y-92593438D01*
X188023666Y-92593438D02*
X187976047Y-92641057D01*
X187976047Y-92641057D02*
X187928428Y-92736295D01*
X187928428Y-92736295D02*
X187928428Y-92831533D01*
X187928428Y-92831533D02*
X187976047Y-92974390D01*
X187976047Y-92974390D02*
X188547475Y-93545819D01*
X188547475Y-93545819D02*
X187928428Y-93545819D01*
D11*
%TO.C,REF\u002A\u002A*%
X172023000Y-77470000D02*
G75*
G02*
X170623000Y-77470000I-700000J0D01*
G01*
X170623000Y-77470000D02*
G75*
G02*
X172023000Y-77470000I700000J0D01*
G01*
%TO.C,BT1*%
D12*
X175133000Y-76327000D02*
X196215000Y-76327000D01*
X196215000Y-106553000D01*
X175133000Y-106553000D01*
X175133000Y-76327000D01*
D11*
%TO.C,REF\u002A\u002A12*%
X212463069Y-94931114D02*
X213017125Y-92145684D01*
X214718875Y-95379822D02*
X214081364Y-95253013D01*
X214718875Y-95379822D02*
X215272931Y-92594392D01*
%TO.C,REF\u002A\u002A5*%
X161197261Y-83307930D02*
X159619441Y-85669304D01*
X159284881Y-82030118D02*
X159825336Y-82391239D01*
X159284881Y-82030118D02*
X157707061Y-84391492D01*
%TO.C,TP15*%
X167169400Y-95361000D02*
G75*
G02*
X165769400Y-95361000I-700000J0D01*
G01*
X165769400Y-95361000D02*
G75*
G02*
X167169400Y-95361000I700000J0D01*
G01*
%TO.C,REF\u002A\u002A7*%
X169474528Y-79084346D02*
X166689098Y-79638402D01*
X169025820Y-76828540D02*
X169152629Y-77466050D01*
X169025820Y-76828540D02*
X166240390Y-77382596D01*
%TO.C,TP7*%
X190057000Y-89408000D02*
G75*
G02*
X188657000Y-89408000I-700000J0D01*
G01*
X188657000Y-89408000D02*
G75*
G02*
X190057000Y-89408000I700000J0D01*
G01*
%TO.C,REF\u002A\u002A13*%
X210150739Y-99065753D02*
X211728559Y-96704379D01*
X212063119Y-100343565D02*
X211522664Y-99982444D01*
X212063119Y-100343565D02*
X213640939Y-97982191D01*
%TO.C,REF\u002A\u002A14*%
X206432166Y-102000770D02*
X208793540Y-100422950D01*
X207709978Y-103913150D02*
X207348857Y-103372695D01*
X207709978Y-103913150D02*
X210071352Y-102335330D01*
%TO.C,REF\u002A\u002A6*%
X164915834Y-80372913D02*
X162554460Y-81950733D01*
X163638022Y-78460533D02*
X163999143Y-79000988D01*
X163638022Y-78460533D02*
X161276648Y-80038353D01*
%TO.C,REF\u002A\u002A15*%
X201873472Y-103289337D02*
X204658902Y-102735281D01*
X202322180Y-105545143D02*
X202195371Y-104907633D01*
X202322180Y-105545143D02*
X205107610Y-104991087D01*
%TO.C,REF\u002A\u002A4*%
X158884931Y-87442569D02*
X158330875Y-90227999D01*
X156629125Y-86993861D02*
X157266636Y-87120670D01*
X156629125Y-86993861D02*
X156075069Y-89779291D01*
%TO.C,REF\u002A\u002A8*%
X204658902Y-79636719D02*
X201873472Y-79082663D01*
X205107610Y-77380913D02*
X204980801Y-78018424D01*
X205107610Y-77380913D02*
X202322180Y-76826857D01*
%TO.C,REF\u002A\u002A*%
X166689098Y-102736964D02*
X169474528Y-103291020D01*
X166240390Y-104992770D02*
X166367199Y-104355259D01*
X166240390Y-104992770D02*
X169025820Y-105546826D01*
%TO.C,REF\u002A\u002A9*%
X208793541Y-81949049D02*
X206432167Y-80371229D01*
X210071353Y-80036669D02*
X209710232Y-80577124D01*
X210071353Y-80036669D02*
X207709979Y-78458849D01*
%TO.C,REF\u002A\u002A2*%
X159619442Y-96706061D02*
X161197262Y-99067435D01*
X157707062Y-97983873D02*
X158247517Y-97622752D01*
X157707062Y-97983873D02*
X159284882Y-100345247D01*
%TO.C,REF\u002A\u002A3*%
X158330875Y-92147367D02*
X158884931Y-94932797D01*
X156075069Y-92596075D02*
X156712579Y-92469266D01*
X156075069Y-92596075D02*
X156629125Y-95381505D01*
%TO.C,TP14*%
X169356000Y-95377000D02*
G75*
G02*
X167956000Y-95377000I-700000J0D01*
G01*
X167956000Y-95377000D02*
G75*
G02*
X169356000Y-95377000I700000J0D01*
G01*
%TO.C,REF\u002A\u002A1*%
X162554459Y-100424634D02*
X164915833Y-102002454D01*
X161276647Y-102337014D02*
X161637768Y-101796559D01*
X161276647Y-102337014D02*
X163638021Y-103914834D01*
%TO.C,REF\u002A\u002A10*%
X211728558Y-85667622D02*
X210150738Y-83306248D01*
X213640938Y-84389810D02*
X213100483Y-84750931D01*
X213640938Y-84389810D02*
X212063118Y-82028436D01*
%TO.C,TP8*%
X190057000Y-91440000D02*
G75*
G02*
X188657000Y-91440000I-700000J0D01*
G01*
X188657000Y-91440000D02*
G75*
G02*
X190057000Y-91440000I700000J0D01*
G01*
%TO.C,REF\u002A\u002A11*%
X213017125Y-90226316D02*
X212463069Y-87440886D01*
X215272931Y-89777608D02*
X214635421Y-89904417D01*
X215272931Y-89777608D02*
X214718875Y-86992178D01*
%TD*%
M02*
