%TF.GenerationSoftware,KiCad,Pcbnew,9.0.0*%
%TF.CreationDate,2025-03-29T11:26:47-04:00*%
%TF.ProjectId,mainboard,6d61696e-626f-4617-9264-2e6b69636164,rev?*%
%TF.SameCoordinates,Original*%
%TF.FileFunction,Soldermask,Bot*%
%TF.FilePolarity,Negative*%
%FSLAX46Y46*%
G04 Gerber Fmt 4.6, Leading zero omitted, Abs format (unit mm)*
G04 Created by KiCad (PCBNEW 9.0.0) date 2025-03-29 11:26:47*
%MOMM*%
%LPD*%
G01*
G04 APERTURE LIST*
%ADD10R,1.350000X1.350000*%
%ADD11O,1.350000X1.350000*%
%ADD12R,1.700000X1.700000*%
%ADD13O,1.700000X1.700000*%
%ADD14R,0.700000X0.700000*%
G04 APERTURE END LIST*
D10*
%TO.C,J3*%
X204597000Y-81026000D03*
D11*
X206597000Y-81026000D03*
%TD*%
D12*
%TO.C,J1*%
X213360000Y-87386000D03*
D13*
X213360000Y-89926000D03*
X213360000Y-92466000D03*
X213360000Y-95006000D03*
%TD*%
D10*
%TO.C,J2*%
X204597000Y-83058000D03*
D11*
X206597000Y-83058000D03*
%TD*%
D14*
%TO.C,D32*%
X172111000Y-79968000D03*
X172111000Y-81068000D03*
X170281000Y-81068000D03*
X170281000Y-79968000D03*
%TD*%
%TO.C,D21*%
X199237000Y-93260000D03*
X199237000Y-92160000D03*
X201067000Y-92160000D03*
X201067000Y-93260000D03*
%TD*%
%TO.C,D27*%
X172111000Y-95208000D03*
X172111000Y-96308000D03*
X170281000Y-96308000D03*
X170281000Y-95208000D03*
%TD*%
%TO.C,D19*%
X199237000Y-87164000D03*
X199237000Y-86064000D03*
X201067000Y-86064000D03*
X201067000Y-87164000D03*
%TD*%
%TO.C,D18*%
X199237000Y-84116000D03*
X199237000Y-83016000D03*
X201067000Y-83016000D03*
X201067000Y-84116000D03*
%TD*%
%TO.C,D17*%
X199237000Y-81068000D03*
X199237000Y-79968000D03*
X201067000Y-79968000D03*
X201067000Y-81068000D03*
%TD*%
%TO.C,D30*%
X172111000Y-86064000D03*
X172111000Y-87164000D03*
X170281000Y-87164000D03*
X170281000Y-86064000D03*
%TD*%
%TO.C,D23*%
X199237000Y-99356000D03*
X199237000Y-98256000D03*
X201067000Y-98256000D03*
X201067000Y-99356000D03*
%TD*%
%TO.C,D24*%
X199237000Y-102404000D03*
X199237000Y-101304000D03*
X201067000Y-101304000D03*
X201067000Y-102404000D03*
%TD*%
%TO.C,D31*%
X172111000Y-83016000D03*
X172111000Y-84116000D03*
X170281000Y-84116000D03*
X170281000Y-83016000D03*
%TD*%
%TO.C,D29*%
X172111000Y-89112000D03*
X172111000Y-90212000D03*
X170281000Y-90212000D03*
X170281000Y-89112000D03*
%TD*%
%TO.C,D25*%
X172111000Y-101304000D03*
X172111000Y-102404000D03*
X170281000Y-102404000D03*
X170281000Y-101304000D03*
%TD*%
%TO.C,D28*%
X172111000Y-92160000D03*
X172111000Y-93260000D03*
X170281000Y-93260000D03*
X170281000Y-92160000D03*
%TD*%
%TO.C,D26*%
X172111000Y-98256000D03*
X172111000Y-99356000D03*
X170281000Y-99356000D03*
X170281000Y-98256000D03*
%TD*%
%TO.C,D20*%
X199237000Y-90212000D03*
X199237000Y-89112000D03*
X201067000Y-89112000D03*
X201067000Y-90212000D03*
%TD*%
%TO.C,D22*%
X199237000Y-96308000D03*
X199237000Y-95208000D03*
X201067000Y-95208000D03*
X201067000Y-96308000D03*
%TD*%
M02*
