%TF.GenerationSoftware,KiCad,Pcbnew,9.0.0*%
%TF.CreationDate,2025-03-29T11:26:47-04:00*%
%TF.ProjectId,mainboard,6d61696e-626f-4617-9264-2e6b69636164,rev?*%
%TF.SameCoordinates,Original*%
%TF.FileFunction,Copper,L1,Top*%
%TF.FilePolarity,Positive*%
%FSLAX46Y46*%
G04 Gerber Fmt 4.6, Leading zero omitted, Abs format (unit mm)*
G04 Created by KiCad (PCBNEW 9.0.0) date 2025-03-29 11:26:47*
%MOMM*%
%LPD*%
G01*
G04 APERTURE LIST*
G04 Aperture macros list*
%AMRoundRect*
0 Rectangle with rounded corners*
0 $1 Rounding radius*
0 $2 $3 $4 $5 $6 $7 $8 $9 X,Y pos of 4 corners*
0 Add a 4 corners polygon primitive as box body*
4,1,4,$2,$3,$4,$5,$6,$7,$8,$9,$2,$3,0*
0 Add four circle primitives for the rounded corners*
1,1,$1+$1,$2,$3*
1,1,$1+$1,$4,$5*
1,1,$1+$1,$6,$7*
1,1,$1+$1,$8,$9*
0 Add four rect primitives between the rounded corners*
20,1,$1+$1,$2,$3,$4,$5,0*
20,1,$1+$1,$4,$5,$6,$7,0*
20,1,$1+$1,$6,$7,$8,$9,0*
20,1,$1+$1,$8,$9,$2,$3,0*%
G04 Aperture macros list end*
%TA.AperFunction,SMDPad,CuDef*%
%ADD10RoundRect,0.135000X-0.135000X-0.185000X0.135000X-0.185000X0.135000X0.185000X-0.135000X0.185000X0*%
%TD*%
%TA.AperFunction,SMDPad,CuDef*%
%ADD11RoundRect,0.150000X0.150000X-0.512500X0.150000X0.512500X-0.150000X0.512500X-0.150000X-0.512500X0*%
%TD*%
%TA.AperFunction,SMDPad,CuDef*%
%ADD12RoundRect,0.125000X0.125000X-0.625000X0.125000X0.625000X-0.125000X0.625000X-0.125000X-0.625000X0*%
%TD*%
%TA.AperFunction,SMDPad,CuDef*%
%ADD13RoundRect,0.125000X0.625000X-0.125000X0.625000X0.125000X-0.625000X0.125000X-0.625000X-0.125000X0*%
%TD*%
%TA.AperFunction,ComponentPad*%
%ADD14R,1.350000X1.350000*%
%TD*%
%TA.AperFunction,ComponentPad*%
%ADD15O,1.350000X1.350000*%
%TD*%
%TA.AperFunction,SMDPad,CuDef*%
%ADD16RoundRect,0.150000X0.512500X0.150000X-0.512500X0.150000X-0.512500X-0.150000X0.512500X-0.150000X0*%
%TD*%
%TA.AperFunction,SMDPad,CuDef*%
%ADD17R,0.700000X0.700000*%
%TD*%
%TA.AperFunction,ComponentPad*%
%ADD18R,1.700000X1.700000*%
%TD*%
%TA.AperFunction,ComponentPad*%
%ADD19O,1.700000X1.700000*%
%TD*%
%TA.AperFunction,SMDPad,CuDef*%
%ADD20RoundRect,0.140000X-0.170000X0.140000X-0.170000X-0.140000X0.170000X-0.140000X0.170000X0.140000X0*%
%TD*%
%TA.AperFunction,SMDPad,CuDef*%
%ADD21RoundRect,0.150000X-0.587500X-0.150000X0.587500X-0.150000X0.587500X0.150000X-0.587500X0.150000X0*%
%TD*%
%TA.AperFunction,SMDPad,CuDef*%
%ADD22RoundRect,0.140000X0.170000X-0.140000X0.170000X0.140000X-0.170000X0.140000X-0.170000X-0.140000X0*%
%TD*%
%TA.AperFunction,SMDPad,CuDef*%
%ADD23RoundRect,0.225000X-0.250000X0.225000X-0.250000X-0.225000X0.250000X-0.225000X0.250000X0.225000X0*%
%TD*%
%TA.AperFunction,SMDPad,CuDef*%
%ADD24R,1.000000X1.800000*%
%TD*%
%TA.AperFunction,SMDPad,CuDef*%
%ADD25RoundRect,0.135000X0.135000X0.185000X-0.135000X0.185000X-0.135000X-0.185000X0.135000X-0.185000X0*%
%TD*%
%TA.AperFunction,SMDPad,CuDef*%
%ADD26R,0.375000X0.350000*%
%TD*%
%TA.AperFunction,SMDPad,CuDef*%
%ADD27R,0.350000X0.375000*%
%TD*%
%TA.AperFunction,SMDPad,CuDef*%
%ADD28RoundRect,0.112500X-0.187500X-0.112500X0.187500X-0.112500X0.187500X0.112500X-0.187500X0.112500X0*%
%TD*%
%TA.AperFunction,SMDPad,CuDef*%
%ADD29C,1.000000*%
%TD*%
%TA.AperFunction,SMDPad,CuDef*%
%ADD30RoundRect,0.135000X-0.185000X0.135000X-0.185000X-0.135000X0.185000X-0.135000X0.185000X0.135000X0*%
%TD*%
%TA.AperFunction,SMDPad,CuDef*%
%ADD31RoundRect,0.140000X-0.140000X-0.170000X0.140000X-0.170000X0.140000X0.170000X-0.140000X0.170000X0*%
%TD*%
%TA.AperFunction,SMDPad,CuDef*%
%ADD32RoundRect,0.135000X0.185000X-0.135000X0.185000X0.135000X-0.185000X0.135000X-0.185000X-0.135000X0*%
%TD*%
%TA.AperFunction,SMDPad,CuDef*%
%ADD33RoundRect,0.100000X0.100000X-0.130000X0.100000X0.130000X-0.100000X0.130000X-0.100000X-0.130000X0*%
%TD*%
%TA.AperFunction,SMDPad,CuDef*%
%ADD34RoundRect,0.140000X0.140000X0.170000X-0.140000X0.170000X-0.140000X-0.170000X0.140000X-0.170000X0*%
%TD*%
%TA.AperFunction,SMDPad,CuDef*%
%ADD35RoundRect,0.112500X0.112500X-0.187500X0.112500X0.187500X-0.112500X0.187500X-0.112500X-0.187500X0*%
%TD*%
%TA.AperFunction,SMDPad,CuDef*%
%ADD36RoundRect,0.140000X-0.219203X-0.021213X-0.021213X-0.219203X0.219203X0.021213X0.021213X0.219203X0*%
%TD*%
%TA.AperFunction,ViaPad*%
%ADD37C,0.600000*%
%TD*%
%TA.AperFunction,Conductor*%
%ADD38C,0.500000*%
%TD*%
%TA.AperFunction,Conductor*%
%ADD39C,0.150000*%
%TD*%
%TA.AperFunction,Conductor*%
%ADD40C,0.300000*%
%TD*%
%TA.AperFunction,Conductor*%
%ADD41C,0.250000*%
%TD*%
%TA.AperFunction,Conductor*%
%ADD42C,0.200000*%
%TD*%
G04 APERTURE END LIST*
D10*
%TO.P,R13,1*%
%TO.N,SWCLK*%
X159027400Y-81457800D03*
%TO.P,R13,2*%
%TO.N,USB_D+*%
X160047400Y-81457800D03*
%TD*%
D11*
%TO.P,U5,1,STAT*%
%TO.N,BMS_Stat*%
X212232200Y-100959500D03*
%TO.P,U5,2,V_{SS}*%
%TO.N,GND*%
X213182200Y-100959500D03*
%TO.P,U5,3,V_{BAT}*%
%TO.N,+BATT*%
X214132200Y-100959500D03*
%TO.P,U5,4,V_{DD}*%
%TO.N,VBUS*%
X214132200Y-98684500D03*
%TO.P,U5,5,PROG*%
%TO.N,Net-(U5-PROG)*%
X212232200Y-98684500D03*
%TD*%
D12*
%TO.P,U4,1,VDD*%
%TO.N,+3V0*%
X158744000Y-92821000D03*
%TO.P,U4,2,PC14*%
%TO.N,Net-(U4-PC14)*%
X159544000Y-92821000D03*
%TO.P,U4,3,PC15*%
%TO.N,Net-(U4-PC15)*%
X160344000Y-92821000D03*
%TO.P,U4,4,NRST*%
%TO.N,Net-(U4-NRST)*%
X161144000Y-92821000D03*
%TO.P,U4,5,VDDA*%
%TO.N,+3V0*%
X161944000Y-92821000D03*
%TO.P,U4,6,PA0*%
%TO.N,IMU_INT1*%
X162744000Y-92821000D03*
%TO.P,U4,7,PA1*%
%TO.N,unconnected-(U4-PA1-Pad7)*%
X163544000Y-92821000D03*
%TO.P,U4,8,PA2*%
%TO.N,/WKUP4*%
X164344000Y-92821000D03*
D13*
%TO.P,U4,9,PA3*%
%TO.N,unconnected-(U4-PA3-Pad9)*%
X165719000Y-91446000D03*
%TO.P,U4,10,PA4*%
%TO.N,unconnected-(U4-PA4-Pad10)*%
X165719000Y-90646000D03*
%TO.P,U4,11,PA5*%
%TO.N,BMS_Stat*%
X165719000Y-89846000D03*
%TO.P,U4,12,PA6*%
%TO.N,LEDPowerCtrl*%
X165719000Y-89046000D03*
%TO.P,U4,13,PA7*%
%TO.N,LED*%
X165719000Y-88246000D03*
%TO.P,U4,14,PB0*%
%TO.N,unconnected-(U4-PB0-Pad14)*%
X165719000Y-87446000D03*
%TO.P,U4,15,PB1*%
%TO.N,unconnected-(U4-PB1-Pad15)*%
X165719000Y-86646000D03*
%TO.P,U4,16,VSS*%
%TO.N,GND*%
X165719000Y-85846000D03*
D12*
%TO.P,U4,17,VDD*%
%TO.N,+3V0*%
X164344000Y-84471000D03*
%TO.P,U4,18,PA8*%
%TO.N,unconnected-(U4-PA8-Pad18)*%
X163544000Y-84471000D03*
%TO.P,U4,19,PA9*%
%TO.N,TX*%
X162744000Y-84471000D03*
%TO.P,U4,20,PA10*%
%TO.N,RX*%
X161944000Y-84471000D03*
%TO.P,U4,21,PA11*%
%TO.N,USB_D-*%
X161144000Y-84471000D03*
%TO.P,U4,22,PA12*%
%TO.N,USB_D+*%
X160344000Y-84471000D03*
%TO.P,U4,23,PA13*%
%TO.N,Net-(U4-PA13)*%
X159544000Y-84471000D03*
%TO.P,U4,24,PA14*%
%TO.N,Net-(U4-PA14)*%
X158744000Y-84471000D03*
D13*
%TO.P,U4,25,PA15*%
%TO.N,unconnected-(U4-PA15-Pad25)*%
X157369000Y-85846000D03*
%TO.P,U4,26,PB3*%
%TO.N,unconnected-(U4-PB3-Pad26)*%
X157369000Y-86646000D03*
%TO.P,U4,27,PB4*%
%TO.N,unconnected-(U4-PB4-Pad27)*%
X157369000Y-87446000D03*
%TO.P,U4,28,PB5*%
%TO.N,unconnected-(U4-PB5-Pad28)*%
X157369000Y-88246000D03*
%TO.P,U4,29,PB6*%
%TO.N,SCL*%
X157369000Y-89046000D03*
%TO.P,U4,30,PB7*%
%TO.N,SDA*%
X157369000Y-89846000D03*
%TO.P,U4,31,PH3*%
%TO.N,/boot*%
X157369000Y-90646000D03*
%TO.P,U4,32,VSS*%
%TO.N,GND*%
X157369000Y-91446000D03*
%TD*%
D10*
%TO.P,R6,1*%
%TO.N,SCL*%
X163828000Y-96266000D03*
%TO.P,R6,2*%
%TO.N,+3V0*%
X164848000Y-96266000D03*
%TD*%
D14*
%TO.P,J3,1,Pin_1*%
%TO.N,+BATT*%
X204597000Y-81026000D03*
D15*
%TO.P,J3,2,Pin_2*%
%TO.N,GND*%
X206597000Y-81026000D03*
%TD*%
D16*
%TO.P,U1,1,VIN*%
%TO.N,VCC*%
X166999500Y-104328000D03*
%TO.P,U1,2,GND*%
%TO.N,GND*%
X166999500Y-103378000D03*
%TO.P,U1,3,EN*%
%TO.N,VCC*%
X166999500Y-102428000D03*
%TO.P,U1,4,NC*%
%TO.N,unconnected-(U1-NC-Pad4)*%
X164724500Y-102428000D03*
%TO.P,U1,5,VOUT*%
%TO.N,+3V0*%
X164724500Y-104328000D03*
%TD*%
D10*
%TO.P,R7,1*%
%TO.N,SDA*%
X163675600Y-99796600D03*
%TO.P,R7,2*%
%TO.N,+3V0*%
X164695600Y-99796600D03*
%TD*%
D17*
%TO.P,D2,1,DOUT*%
%TO.N,Net-(D2-DOUT)*%
X172111000Y-84116000D03*
%TO.P,D2,2,VSS*%
%TO.N,GND*%
X172111000Y-83016000D03*
%TO.P,D2,3,DIN*%
%TO.N,Net-(D1-DOUT)*%
X170281000Y-83016000D03*
%TO.P,D2,4,VDD*%
%TO.N,/LEDs/LED_PWR*%
X170281000Y-84116000D03*
%TD*%
D18*
%TO.P,J1,1,Pin_1*%
%TO.N,GND*%
X213360000Y-87386000D03*
D19*
%TO.P,J1,2,Pin_2*%
%TO.N,SWCLK*%
X213360000Y-89926000D03*
%TO.P,J1,3,Pin_3*%
%TO.N,SWDIO*%
X213360000Y-92466000D03*
%TO.P,J1,4,Pin_4*%
%TO.N,VBUS*%
X213360000Y-95006000D03*
%TD*%
D20*
%TO.P,C3,1*%
%TO.N,+3V0*%
X166344600Y-97564000D03*
%TO.P,C3,2*%
%TO.N,GND*%
X166344600Y-98524000D03*
%TD*%
%TO.P,C4,1*%
%TO.N,+3V0*%
X167360600Y-97564000D03*
%TO.P,C4,2*%
%TO.N,GND*%
X167360600Y-98524000D03*
%TD*%
D21*
%TO.P,Q2,1,G*%
%TO.N,LEDPowerCtrl*%
X205818500Y-99634000D03*
%TO.P,Q2,2,S*%
%TO.N,VCC*%
X205818500Y-101534000D03*
%TO.P,Q2,3,D*%
%TO.N,/LEDs/LED_PWR*%
X207693500Y-100584000D03*
%TD*%
D22*
%TO.P,C10,1*%
%TO.N,GND*%
X161137600Y-95222000D03*
%TO.P,C10,2*%
%TO.N,Net-(U4-NRST)*%
X161137600Y-94262000D03*
%TD*%
D17*
%TO.P,D7,1,DOUT*%
%TO.N,Net-(D7-DOUT)*%
X172111000Y-99356000D03*
%TO.P,D7,2,VSS*%
%TO.N,GND*%
X172111000Y-98256000D03*
%TO.P,D7,3,DIN*%
%TO.N,Net-(D6-DOUT)*%
X170281000Y-98256000D03*
%TO.P,D7,4,VDD*%
%TO.N,/LEDs/LED_PWR*%
X170281000Y-99356000D03*
%TD*%
D23*
%TO.P,C15,1*%
%TO.N,+BATT*%
X215646000Y-102069600D03*
%TO.P,C15,2*%
%TO.N,GND*%
X215646000Y-103619600D03*
%TD*%
D24*
%TO.P,Y1,1,1*%
%TO.N,Net-(U4-PC15)*%
X161168400Y-97739200D03*
%TO.P,Y1,2,2*%
%TO.N,Net-(U4-PC14)*%
X158668400Y-97739200D03*
%TD*%
D25*
%TO.P,R2,1*%
%TO.N,+3V0*%
X167362600Y-96520000D03*
%TO.P,R2,2*%
%TO.N,Net-(U3-~{CS})*%
X166342600Y-96520000D03*
%TD*%
D26*
%TO.P,U3,1,SCL/SPC*%
%TO.N,SCL*%
X163804100Y-97294000D03*
%TO.P,U3,2,~{CS}*%
%TO.N,Net-(U3-~{CS})*%
X163804100Y-97794000D03*
%TO.P,U3,3,SA0/SDO*%
%TO.N,unconnected-(U3-SA0{slash}SDO-Pad3)*%
X163804100Y-98294000D03*
%TO.P,U3,4,SDA/SDI*%
%TO.N,SDA*%
X163804100Y-98794000D03*
D27*
%TO.P,U3,5,RES*%
%TO.N,GND*%
X164316600Y-98806500D03*
%TO.P,U3,6,GND*%
X164816600Y-98806500D03*
D26*
%TO.P,U3,7,GND*%
X165329100Y-98794000D03*
%TO.P,U3,8,GND*%
X165329100Y-98294000D03*
%TO.P,U3,9,Vdd*%
%TO.N,+3V0*%
X165329100Y-97794000D03*
%TO.P,U3,10,Vdd_IO*%
X165329100Y-97294000D03*
D27*
%TO.P,U3,11,INT2*%
%TO.N,IMU_INT2*%
X164816600Y-97281500D03*
%TO.P,U3,12,INT1*%
%TO.N,IMU_INT1*%
X164316600Y-97281500D03*
%TD*%
D28*
%TO.P,D33,1,K*%
%TO.N,/WKUP4*%
X199195000Y-78232000D03*
%TO.P,D33,2,A*%
%TO.N,VBUS*%
X201295000Y-78232000D03*
%TD*%
D17*
%TO.P,D3,1,DOUT*%
%TO.N,Net-(D3-DOUT)*%
X172111000Y-87164000D03*
%TO.P,D3,2,VSS*%
%TO.N,GND*%
X172111000Y-86064000D03*
%TO.P,D3,3,DIN*%
%TO.N,Net-(D2-DOUT)*%
X170281000Y-86064000D03*
%TO.P,D3,4,VDD*%
%TO.N,/LEDs/LED_PWR*%
X170281000Y-87164000D03*
%TD*%
D22*
%TO.P,C8,1*%
%TO.N,VCC*%
X168402000Y-104366000D03*
%TO.P,C8,2*%
%TO.N,GND*%
X168402000Y-103406000D03*
%TD*%
D29*
%TO.P,3v0,1,1*%
%TO.N,+3V0*%
X161671000Y-104394000D03*
%TD*%
D17*
%TO.P,D9,1,DOUT*%
%TO.N,Net-(D10-DIN)*%
X199237000Y-101304000D03*
%TO.P,D9,2,VSS*%
%TO.N,GND*%
X199237000Y-102404000D03*
%TO.P,D9,3,DIN*%
%TO.N,Net-(D8-DOUT)*%
X201067000Y-102404000D03*
%TO.P,D9,4,VDD*%
%TO.N,/LEDs/LED_PWR*%
X201067000Y-101304000D03*
%TD*%
D14*
%TO.P,J2,1,Pin_1*%
%TO.N,+BATT*%
X204597000Y-83058000D03*
D15*
%TO.P,J2,2,Pin_2*%
%TO.N,GND*%
X206597000Y-83058000D03*
%TD*%
D17*
%TO.P,D16,1,DOUT*%
%TO.N,Net-(D16-DOUT)*%
X199237000Y-79968000D03*
%TO.P,D16,2,VSS*%
%TO.N,GND*%
X199237000Y-81068000D03*
%TO.P,D16,3,DIN*%
%TO.N,Net-(D15-DOUT)*%
X201067000Y-81068000D03*
%TO.P,D16,4,VDD*%
%TO.N,/LEDs/LED_PWR*%
X201067000Y-79968000D03*
%TD*%
D30*
%TO.P,R15,1*%
%TO.N,GND*%
X209296000Y-100709001D03*
%TO.P,R15,2*%
%TO.N,VBUS*%
X209296000Y-101728999D03*
%TD*%
D31*
%TO.P,C12,1*%
%TO.N,GND*%
X158524000Y-96113600D03*
%TO.P,C12,2*%
%TO.N,Net-(U4-PC14)*%
X159484000Y-96113600D03*
%TD*%
D17*
%TO.P,D11,1,DOUT*%
%TO.N,Net-(D11-DOUT)*%
X199237000Y-95208000D03*
%TO.P,D11,2,VSS*%
%TO.N,GND*%
X199237000Y-96308000D03*
%TO.P,D11,3,DIN*%
%TO.N,Net-(D10-DOUT)*%
X201067000Y-96308000D03*
%TO.P,D11,4,VDD*%
%TO.N,/LEDs/LED_PWR*%
X201067000Y-95208000D03*
%TD*%
%TO.P,D14,1,DOUT*%
%TO.N,Net-(D14-DOUT)*%
X199237000Y-86064000D03*
%TO.P,D14,2,VSS*%
%TO.N,GND*%
X199237000Y-87164000D03*
%TO.P,D14,3,DIN*%
%TO.N,Net-(D13-DOUT)*%
X201067000Y-87164000D03*
%TO.P,D14,4,VDD*%
%TO.N,/LEDs/LED_PWR*%
X201067000Y-86064000D03*
%TD*%
D32*
%TO.P,R8,1*%
%TO.N,GND*%
X210972400Y-99671600D03*
%TO.P,R8,2*%
%TO.N,Net-(U5-PROG)*%
X210972400Y-98651600D03*
%TD*%
D29*
%TO.P,TP9,1,1*%
%TO.N,VCC*%
X203174600Y-104140000D03*
%TD*%
D10*
%TO.P,R14,1*%
%TO.N,SWDIO*%
X159535400Y-80492600D03*
%TO.P,R14,2*%
%TO.N,USB_D-*%
X160555400Y-80492600D03*
%TD*%
D29*
%TO.P,TX1,1,1*%
%TO.N,TX*%
X164160200Y-82270600D03*
%TD*%
D30*
%TO.P,R10,1*%
%TO.N,VBUS*%
X202387200Y-77722000D03*
%TO.P,R10,2*%
%TO.N,GND*%
X202387200Y-78742000D03*
%TD*%
D23*
%TO.P,C14,1*%
%TO.N,VBUS*%
X215646000Y-99072400D03*
%TO.P,C14,2*%
%TO.N,GND*%
X215646000Y-100622400D03*
%TD*%
D17*
%TO.P,D1,1,DOUT*%
%TO.N,Net-(D1-DOUT)*%
X172111000Y-81068000D03*
%TO.P,D1,2,VSS*%
%TO.N,GND*%
X172111000Y-79968000D03*
%TO.P,D1,3,DIN*%
%TO.N,LED*%
X170281000Y-79968000D03*
%TO.P,D1,4,VDD*%
%TO.N,/LEDs/LED_PWR*%
X170281000Y-81068000D03*
%TD*%
D21*
%TO.P,Q3,1,G*%
%TO.N,VBUS*%
X207215500Y-103063000D03*
%TO.P,Q3,2,S*%
%TO.N,VCC*%
X207215500Y-104963000D03*
%TO.P,Q3,3,D*%
%TO.N,+BATT*%
X209090500Y-104013000D03*
%TD*%
D33*
%TO.P,R12,1*%
%TO.N,Net-(U4-PA14)*%
X158750000Y-83022400D03*
%TO.P,R12,2*%
%TO.N,SWCLK*%
X158750000Y-82382400D03*
%TD*%
D32*
%TO.P,R4,1*%
%TO.N,GND*%
X155905200Y-91543600D03*
%TO.P,R4,2*%
%TO.N,/boot*%
X155905200Y-90523600D03*
%TD*%
D34*
%TO.P,C13,1*%
%TO.N,GND*%
X161312800Y-96113600D03*
%TO.P,C13,2*%
%TO.N,Net-(U4-PC15)*%
X160352800Y-96113600D03*
%TD*%
D35*
%TO.P,D34,1,K*%
%TO.N,VCC*%
X205232000Y-105063000D03*
%TO.P,D34,2,A*%
%TO.N,VBUS*%
X205232000Y-102963000D03*
%TD*%
D17*
%TO.P,D4,1,DOUT*%
%TO.N,Net-(D4-DOUT)*%
X172111000Y-90212000D03*
%TO.P,D4,2,VSS*%
%TO.N,GND*%
X172111000Y-89112000D03*
%TO.P,D4,3,DIN*%
%TO.N,Net-(D3-DOUT)*%
X170281000Y-89112000D03*
%TO.P,D4,4,VDD*%
%TO.N,/LEDs/LED_PWR*%
X170281000Y-90212000D03*
%TD*%
%TO.P,D6,1,DOUT*%
%TO.N,Net-(D6-DOUT)*%
X172111000Y-96308000D03*
%TO.P,D6,2,VSS*%
%TO.N,GND*%
X172111000Y-95208000D03*
%TO.P,D6,3,DIN*%
%TO.N,Net-(D5-DOUT)*%
X170281000Y-95208000D03*
%TO.P,D6,4,VDD*%
%TO.N,/LEDs/LED_PWR*%
X170281000Y-96308000D03*
%TD*%
%TO.P,D8,1,DOUT*%
%TO.N,Net-(D8-DOUT)*%
X172111000Y-102404000D03*
%TO.P,D8,2,VSS*%
%TO.N,GND*%
X172111000Y-101304000D03*
%TO.P,D8,3,DIN*%
%TO.N,Net-(D7-DOUT)*%
X170281000Y-101304000D03*
%TO.P,D8,4,VDD*%
%TO.N,/LEDs/LED_PWR*%
X170281000Y-102404000D03*
%TD*%
D22*
%TO.P,C6,1*%
%TO.N,+3V0*%
X157124400Y-93393200D03*
%TO.P,C6,2*%
%TO.N,GND*%
X157124400Y-92433200D03*
%TD*%
D29*
%TO.P,RX1,1,1*%
%TO.N,RX*%
X162483800Y-82270600D03*
%TD*%
D17*
%TO.P,D13,1,DOUT*%
%TO.N,Net-(D13-DOUT)*%
X199237000Y-89112000D03*
%TO.P,D13,2,VSS*%
%TO.N,GND*%
X199237000Y-90212000D03*
%TO.P,D13,3,DIN*%
%TO.N,Net-(D12-DOUT)*%
X201067000Y-90212000D03*
%TO.P,D13,4,VDD*%
%TO.N,/LEDs/LED_PWR*%
X201067000Y-89112000D03*
%TD*%
%TO.P,D5,1,DOUT*%
%TO.N,Net-(D5-DOUT)*%
X172111000Y-93260000D03*
%TO.P,D5,2,VSS*%
%TO.N,GND*%
X172111000Y-92160000D03*
%TO.P,D5,3,DIN*%
%TO.N,Net-(D4-DOUT)*%
X170281000Y-92160000D03*
%TO.P,D5,4,VDD*%
%TO.N,/LEDs/LED_PWR*%
X170281000Y-93260000D03*
%TD*%
%TO.P,D12,1,DOUT*%
%TO.N,Net-(D12-DOUT)*%
X199237000Y-92160000D03*
%TO.P,D12,2,VSS*%
%TO.N,GND*%
X199237000Y-93260000D03*
%TO.P,D12,3,DIN*%
%TO.N,Net-(D11-DOUT)*%
X201067000Y-93260000D03*
%TO.P,D12,4,VDD*%
%TO.N,/LEDs/LED_PWR*%
X201067000Y-92160000D03*
%TD*%
D32*
%TO.P,R9,1*%
%TO.N,VCC*%
X204470000Y-101094000D03*
%TO.P,R9,2*%
%TO.N,LEDPowerCtrl*%
X204470000Y-100074000D03*
%TD*%
D17*
%TO.P,D15,1,DOUT*%
%TO.N,Net-(D15-DOUT)*%
X199237000Y-83016000D03*
%TO.P,D15,2,VSS*%
%TO.N,GND*%
X199237000Y-84116000D03*
%TO.P,D15,3,DIN*%
%TO.N,Net-(D14-DOUT)*%
X201067000Y-84116000D03*
%TO.P,D15,4,VDD*%
%TO.N,/LEDs/LED_PWR*%
X201067000Y-83016000D03*
%TD*%
D22*
%TO.P,C9,1*%
%TO.N,+3V0*%
X163322000Y-104366000D03*
%TO.P,C9,2*%
%TO.N,GND*%
X163322000Y-103406000D03*
%TD*%
D20*
%TO.P,C7,1*%
%TO.N,+3V0*%
X162102800Y-94262000D03*
%TO.P,C7,2*%
%TO.N,GND*%
X162102800Y-95222000D03*
%TD*%
D33*
%TO.P,R3,1*%
%TO.N,Net-(U4-PA13)*%
X159537400Y-83022400D03*
%TO.P,R3,2*%
%TO.N,SWDIO*%
X159537400Y-82382400D03*
%TD*%
D36*
%TO.P,C5,1*%
%TO.N,+3V0*%
X165522589Y-83988589D03*
%TO.P,C5,2*%
%TO.N,GND*%
X166201411Y-84667411D03*
%TD*%
D17*
%TO.P,D10,1,DOUT*%
%TO.N,Net-(D10-DOUT)*%
X199237000Y-98256000D03*
%TO.P,D10,2,VSS*%
%TO.N,GND*%
X199237000Y-99356000D03*
%TO.P,D10,3,DIN*%
%TO.N,Net-(D10-DIN)*%
X201067000Y-99356000D03*
%TO.P,D10,4,VDD*%
%TO.N,/LEDs/LED_PWR*%
X201067000Y-98256000D03*
%TD*%
D37*
%TO.N,VBUS*%
X210183001Y-101728999D03*
%TO.N,SWDIO*%
X195453000Y-78232000D03*
%TO.N,SWCLK*%
X194945000Y-77597000D03*
%TO.N,GND*%
X181889400Y-77216000D03*
X175310800Y-77190600D03*
X202666600Y-98018600D03*
X159918400Y-97739200D03*
X179120800Y-79883000D03*
X167995600Y-78892400D03*
X173355000Y-89662000D03*
X212217000Y-99822000D03*
X161772600Y-77190600D03*
X209677000Y-104902000D03*
X163982400Y-94208600D03*
X207645000Y-104013000D03*
X161569400Y-90601800D03*
X173355000Y-83566000D03*
X193929000Y-77139800D03*
X173355000Y-101854000D03*
X211175600Y-82092800D03*
X156108400Y-92430600D03*
X210312000Y-100711000D03*
X197840600Y-79933800D03*
X211023200Y-91643200D03*
X207822800Y-79019400D03*
X168579800Y-81584800D03*
X161696400Y-95656400D03*
X163271200Y-78867000D03*
X159156400Y-77978000D03*
X158191200Y-80594200D03*
X215061800Y-98069400D03*
X155981400Y-89585800D03*
X214376000Y-102997000D03*
X160197800Y-79629000D03*
X197866000Y-95758000D03*
X164719000Y-103378000D03*
X165862000Y-104927400D03*
X197866000Y-101854000D03*
X162280600Y-98221800D03*
X165785800Y-100533200D03*
X188087000Y-77165200D03*
X167233600Y-101346000D03*
X165354000Y-93599000D03*
X210185000Y-78562200D03*
X167513000Y-88290400D03*
X172034200Y-77190600D03*
X205105000Y-104013000D03*
X167055800Y-77190600D03*
X209169000Y-85013800D03*
X207822800Y-101828600D03*
X197866000Y-89662000D03*
X158724600Y-91033600D03*
X202971400Y-99872800D03*
X166243000Y-83058000D03*
X209550000Y-102997000D03*
X158851600Y-88011000D03*
X185420000Y-79857600D03*
X165658800Y-84886800D03*
X191185800Y-79857600D03*
X212725000Y-102235000D03*
X173355000Y-95758000D03*
X164515800Y-101498400D03*
X163245800Y-91363800D03*
X158775400Y-94234000D03*
X210896200Y-88671400D03*
X173380400Y-80010000D03*
X197866000Y-83566000D03*
X162331400Y-96901000D03*
%TO.N,+3V0*%
X167005000Y-97256600D03*
X164693600Y-100507800D03*
X163322000Y-90043000D03*
%TO.N,SCL*%
X159004000Y-89154000D03*
X163220400Y-95658400D03*
%TO.N,SDA*%
X163068000Y-98780600D03*
X158572200Y-89865200D03*
%TO.N,/WKUP4*%
X164338000Y-88646000D03*
X166128700Y-81927700D03*
%TO.N,BMS_Stat*%
X211582000Y-100965000D03*
X167087400Y-89846000D03*
%TO.N,Net-(U3-~{CS})*%
X165582600Y-96520000D03*
X164566600Y-98044000D03*
%TO.N,/LEDs/LED_PWR*%
X172847000Y-100330000D03*
X201930000Y-98806000D03*
X169418000Y-101854000D03*
X201930000Y-83566000D03*
X169418000Y-92710000D03*
X169418000Y-95758000D03*
X169418000Y-80518000D03*
X169418000Y-86614000D03*
X201930000Y-80518000D03*
X201930000Y-86614000D03*
X201930000Y-95758000D03*
X169418000Y-89662000D03*
X201930000Y-92710000D03*
X200152000Y-101346000D03*
X201930000Y-89662000D03*
X201930000Y-101854000D03*
X169418000Y-83566000D03*
X169418000Y-98806000D03*
%TO.N,Net-(D16-DOUT)*%
X200152000Y-79968000D03*
%TD*%
D38*
%TO.N,VCC*%
X204910000Y-101534000D02*
X204470000Y-101094000D01*
X204910000Y-101534000D02*
X203174600Y-103269400D01*
D39*
X166659600Y-102428000D02*
X166999500Y-102428000D01*
X169319000Y-105283000D02*
X202031600Y-105283000D01*
D38*
X204097600Y-105063000D02*
X203174600Y-104140000D01*
X203174600Y-103269400D02*
X203174600Y-104140000D01*
D40*
X203997600Y-104963000D02*
X203174600Y-104140000D01*
D39*
X166608800Y-104328000D02*
X166065200Y-103784400D01*
X168402000Y-104366000D02*
X169319000Y-105283000D01*
D38*
X207215500Y-104963000D02*
X205332000Y-104963000D01*
D39*
X168402000Y-104366000D02*
X167037500Y-104366000D01*
X166065200Y-103784400D02*
X166065200Y-103022400D01*
D38*
X205818500Y-101534000D02*
X204910000Y-101534000D01*
X205232000Y-105063000D02*
X204097600Y-105063000D01*
D39*
X166065200Y-103022400D02*
X166659600Y-102428000D01*
X167037500Y-104366000D02*
X166999500Y-104328000D01*
D38*
X205332000Y-104963000D02*
X205232000Y-105063000D01*
D39*
X166999500Y-104328000D02*
X166608800Y-104328000D01*
X202031600Y-105283000D02*
X203174600Y-104140000D01*
D41*
%TO.N,VBUS*%
X202387200Y-77722000D02*
X202389200Y-77724000D01*
D38*
X215646000Y-99072400D02*
X214312200Y-99072400D01*
X207961999Y-103063000D02*
X209296000Y-101728999D01*
X210183001Y-101728999D02*
X209296000Y-101728999D01*
D41*
X201295000Y-78232000D02*
X201877200Y-78232000D01*
X214132200Y-95778200D02*
X214132200Y-98684500D01*
X216001600Y-79756000D02*
X216001600Y-92364400D01*
X201877200Y-78232000D02*
X202387200Y-77722000D01*
X202389200Y-77724000D02*
X213969600Y-77724000D01*
D38*
X214312200Y-99072400D02*
X214132200Y-98892400D01*
X205332000Y-103063000D02*
X205232000Y-102963000D01*
X207215500Y-103063000D02*
X205332000Y-103063000D01*
D41*
X216001600Y-92364400D02*
X213360000Y-95006000D01*
D38*
X207215500Y-103063000D02*
X207961999Y-103063000D01*
D41*
X213360000Y-95006000D02*
X214132200Y-95778200D01*
D38*
X214132200Y-98892400D02*
X214132200Y-98684500D01*
D41*
X213969600Y-77724000D02*
X216001600Y-79756000D01*
D39*
%TO.N,SWDIO*%
X159535400Y-80492600D02*
X159535400Y-79351600D01*
X159537400Y-82382400D02*
X159537400Y-80494600D01*
X159537400Y-80494600D02*
X159535400Y-80492600D01*
X160655000Y-78232000D02*
X195453000Y-78232000D01*
X159535400Y-79351600D02*
X160655000Y-78232000D01*
%TO.N,SWCLK*%
X160528000Y-77851000D02*
X159027400Y-79351600D01*
X159027400Y-79351600D02*
X159027400Y-81457800D01*
X158750000Y-81735200D02*
X158750000Y-82382400D01*
X194691000Y-77851000D02*
X160528000Y-77851000D01*
X159027400Y-81457800D02*
X158750000Y-81735200D01*
X194945000Y-77597000D02*
X194691000Y-77851000D01*
D38*
%TO.N,GND*%
X165407400Y-98524000D02*
X165404800Y-98526600D01*
X166522400Y-84346422D02*
X166522400Y-83794600D01*
X166201411Y-84667411D02*
X166522400Y-84346422D01*
X166344600Y-98524000D02*
X165407400Y-98524000D01*
D42*
%TO.N,+3V0*%
X158744000Y-92821000D02*
X158744000Y-91954000D01*
X163322000Y-90043000D02*
X163322000Y-86487000D01*
D39*
X164721000Y-96400863D02*
X165329100Y-97008963D01*
X164695600Y-99796600D02*
X164695600Y-100505800D01*
D41*
X165329100Y-97794000D02*
X165329100Y-97510600D01*
X167362600Y-96520000D02*
X167362600Y-97562000D01*
D42*
X159004000Y-91694000D02*
X161671000Y-91694000D01*
X158744000Y-91954000D02*
X159004000Y-91694000D01*
D39*
X163294000Y-104394000D02*
X163322000Y-104366000D01*
X164724500Y-104328000D02*
X163360000Y-104328000D01*
X161671000Y-104394000D02*
X163294000Y-104394000D01*
D41*
X165662000Y-103730400D02*
X165662000Y-101476200D01*
D39*
X164695600Y-100505800D02*
X164693600Y-100507800D01*
X164721000Y-96240600D02*
X164721000Y-96400863D01*
D42*
X163322000Y-86487000D02*
X164344000Y-85465000D01*
D39*
X161944000Y-94103200D02*
X162102800Y-94262000D01*
D41*
X165064400Y-104328000D02*
X165662000Y-103730400D01*
D42*
X161944000Y-91967000D02*
X161944000Y-92821000D01*
D39*
X164344000Y-84471000D02*
X165040178Y-84471000D01*
X158744000Y-92821000D02*
X157696600Y-92821000D01*
D42*
X161671000Y-91694000D02*
X161944000Y-91967000D01*
D41*
X165662000Y-101476200D02*
X164693600Y-100507800D01*
D39*
X161944000Y-92821000D02*
X161944000Y-94103200D01*
D41*
X166144500Y-97589400D02*
X166091100Y-97536000D01*
X164724500Y-104328000D02*
X165064400Y-104328000D01*
D42*
X164344000Y-85465000D02*
X164344000Y-84471000D01*
D39*
X165040178Y-84471000D02*
X165522589Y-83988589D01*
D41*
X166091100Y-97536000D02*
X166091100Y-97319400D01*
D42*
X161671000Y-91694000D02*
X163322000Y-90043000D01*
D39*
X165329100Y-97008963D02*
X165329100Y-97294000D01*
D41*
X166344600Y-97564000D02*
X167005000Y-97564000D01*
X166344600Y-97564000D02*
X165382500Y-97564000D01*
D39*
X163360000Y-104328000D02*
X163322000Y-104366000D01*
X157696600Y-92821000D02*
X157124400Y-93393200D01*
%TO.N,IMU_INT1*%
X164338000Y-95554800D02*
X162744000Y-93960800D01*
X162744000Y-93960800D02*
X162744000Y-92821000D01*
X164316600Y-97281500D02*
X164338000Y-97260100D01*
X164338000Y-97260100D02*
X164338000Y-95554800D01*
%TO.N,SCL*%
X163804100Y-97294000D02*
X163804100Y-96343700D01*
X163220400Y-95760000D02*
X163220400Y-95658400D01*
X158896000Y-89046000D02*
X159004000Y-89154000D01*
X157369000Y-89046000D02*
X158896000Y-89046000D01*
X163220400Y-95658400D02*
X163828000Y-96266000D01*
%TO.N,SDA*%
X158553000Y-89846000D02*
X158572200Y-89865200D01*
X163804100Y-98794000D02*
X163081400Y-98794000D01*
X163675600Y-99796600D02*
X163675600Y-99290600D01*
X163843400Y-98819400D02*
X163830000Y-98806000D01*
X163675600Y-99290600D02*
X163828000Y-99138200D01*
X157369000Y-89846000D02*
X158553000Y-89846000D01*
X157388200Y-89865200D02*
X157369000Y-89846000D01*
X163828000Y-99138200D02*
X163828000Y-98817900D01*
%TO.N,/WKUP4*%
X164338000Y-88646000D02*
X164344000Y-88652000D01*
X164344000Y-88652000D02*
X164344000Y-92821000D01*
X198628000Y-78232000D02*
X199195000Y-78232000D01*
X197662800Y-79197200D02*
X198628000Y-78232000D01*
X168859200Y-79197200D02*
X197662800Y-79197200D01*
X166128700Y-81927700D02*
X168859200Y-79197200D01*
%TO.N,Net-(U4-PA13)*%
X159537400Y-84464400D02*
X159544000Y-84471000D01*
X159537400Y-83022400D02*
X159537400Y-84464400D01*
%TO.N,Net-(U4-PA14)*%
X158750000Y-84465000D02*
X158744000Y-84471000D01*
X158750000Y-83022400D02*
X158750000Y-84465000D01*
%TO.N,Net-(U4-PC14)*%
X158668400Y-97739200D02*
X158668400Y-97338200D01*
X159544000Y-96053600D02*
X159484000Y-96113600D01*
X159484000Y-96522600D02*
X159484000Y-96113600D01*
X158668400Y-97338200D02*
X159484000Y-96522600D01*
X159544000Y-92821000D02*
X159544000Y-96053600D01*
%TO.N,Net-(U4-PC15)*%
X160344000Y-96104800D02*
X160344000Y-92821000D01*
X161168400Y-97338200D02*
X160352800Y-96522600D01*
X161168400Y-97739200D02*
X161168400Y-97338200D01*
X160352800Y-96113600D02*
X160344000Y-96104800D01*
X160352800Y-96522600D02*
X160352800Y-96113600D01*
%TO.N,LED*%
X166566800Y-88246000D02*
X167106600Y-87706200D01*
X167106600Y-81915000D02*
X169053600Y-79968000D01*
X167106600Y-87706200D02*
X167106600Y-81915000D01*
X165719000Y-88246000D02*
X166566800Y-88246000D01*
X169053600Y-79968000D02*
X170281000Y-79968000D01*
%TO.N,Net-(U4-NRST)*%
X161137600Y-94262000D02*
X161137600Y-92827400D01*
X161137600Y-92827400D02*
X161144000Y-92821000D01*
%TO.N,BMS_Stat*%
X212217000Y-100944300D02*
X212232200Y-100959500D01*
X211602700Y-100944300D02*
X212217000Y-100944300D01*
X211582000Y-100965000D02*
X211602700Y-100944300D01*
X167087400Y-89846000D02*
X165719000Y-89846000D01*
%TO.N,LEDPowerCtrl*%
X201371200Y-104038400D02*
X170357800Y-104038400D01*
X168478200Y-89941400D02*
X167582800Y-89046000D01*
X203887800Y-100074000D02*
X203631800Y-100330000D01*
X204470000Y-100074000D02*
X203887800Y-100074000D01*
X167582800Y-89046000D02*
X165719000Y-89046000D01*
X203631800Y-100330000D02*
X203631800Y-101777800D01*
X203631800Y-101777800D02*
X201371200Y-104038400D01*
X205818500Y-99634000D02*
X204910000Y-99634000D01*
X170357800Y-104038400D02*
X168478200Y-102158800D01*
X204910000Y-99634000D02*
X204470000Y-100074000D01*
X168478200Y-102158800D02*
X168478200Y-89941400D01*
%TO.N,TX*%
X163906200Y-82245200D02*
X164185600Y-82245200D01*
X162744000Y-84471000D02*
X162744000Y-83407400D01*
X162744000Y-83407400D02*
X163906200Y-82245200D01*
%TO.N,Net-(U3-~{CS})*%
X165582600Y-96520000D02*
X166342600Y-96520000D01*
X163808100Y-97790000D02*
X164312600Y-97790000D01*
X164312600Y-97790000D02*
X164566600Y-98044000D01*
X163804100Y-97794000D02*
X163808100Y-97790000D01*
%TO.N,RX*%
X161944000Y-82810400D02*
X162483800Y-82270600D01*
X161944000Y-84471000D02*
X161944000Y-82810400D01*
D38*
%TO.N,+BATT*%
X214132200Y-102069600D02*
X214132200Y-100959500D01*
D41*
X213182200Y-99161600D02*
X213182200Y-97409000D01*
X204597000Y-88823800D02*
X204597000Y-83058000D01*
D38*
X204597000Y-81026000D02*
X204597000Y-83058000D01*
X209090500Y-104013000D02*
X212188800Y-104013000D01*
D41*
X214132200Y-100111600D02*
X213182200Y-99161600D01*
X214132200Y-100111600D02*
X214132200Y-100959500D01*
D38*
X215646000Y-102069600D02*
X214132200Y-102069600D01*
X214132200Y-102069600D02*
X212188800Y-104013000D01*
D41*
X213182200Y-97409000D02*
X204597000Y-88823800D01*
D40*
%TO.N,/LEDs/LED_PWR*%
X207693500Y-99591100D02*
X206908400Y-98806000D01*
D39*
X201617000Y-92710000D02*
X201930000Y-92710000D01*
D42*
X170281000Y-99356000D02*
X169731000Y-98806000D01*
D39*
X201067000Y-89112000D02*
X201617000Y-89662000D01*
D42*
X169731000Y-101854000D02*
X169418000Y-101854000D01*
X170281000Y-81068000D02*
X169731000Y-80518000D01*
D39*
X201617000Y-80518000D02*
X201067000Y-79968000D01*
D42*
X170281000Y-102404000D02*
X169731000Y-101854000D01*
D39*
X201617000Y-98806000D02*
X201930000Y-98806000D01*
X201617000Y-89662000D02*
X201930000Y-89662000D01*
X201067000Y-86064000D02*
X201617000Y-86614000D01*
X201067000Y-98256000D02*
X201617000Y-98806000D01*
D42*
X170281000Y-96308000D02*
X169731000Y-95758000D01*
D40*
X207693500Y-100584000D02*
X207693500Y-99591100D01*
D39*
X201930000Y-80518000D02*
X201617000Y-80518000D01*
X201617000Y-86614000D02*
X201930000Y-86614000D01*
X201067000Y-83016000D02*
X201617000Y-83566000D01*
D42*
X171196000Y-101019000D02*
X171196000Y-101489000D01*
X170281000Y-93260000D02*
X169731000Y-92710000D01*
X171885000Y-100330000D02*
X171196000Y-101019000D01*
X170281000Y-87164000D02*
X169731000Y-86614000D01*
D39*
X201617000Y-83566000D02*
X201930000Y-83566000D01*
D40*
X206908400Y-98806000D02*
X201930000Y-98806000D01*
D42*
X170281000Y-90212000D02*
X169731000Y-89662000D01*
D39*
X201617000Y-95758000D02*
X201930000Y-95758000D01*
D42*
X201930000Y-80518000D02*
X201930000Y-83566000D01*
X201067000Y-101304000D02*
X201617000Y-101854000D01*
X170281000Y-84116000D02*
X169731000Y-83566000D01*
X171196000Y-101489000D02*
X170281000Y-102404000D01*
X200194000Y-101304000D02*
X201067000Y-101304000D01*
X201930000Y-83566000D02*
X201930000Y-101854000D01*
X200152000Y-101346000D02*
X200194000Y-101304000D01*
D39*
X201067000Y-95208000D02*
X201617000Y-95758000D01*
X201067000Y-92160000D02*
X201617000Y-92710000D01*
X170281000Y-81068000D02*
X170281000Y-81186000D01*
D42*
X169418000Y-80518000D02*
X169418000Y-101854000D01*
X172847000Y-100330000D02*
X171885000Y-100330000D01*
D39*
%TO.N,Net-(D1-DOUT)*%
X172111000Y-81068000D02*
X172111000Y-81186000D01*
X172111000Y-81186000D02*
X170281000Y-83016000D01*
%TO.N,Net-(D2-DOUT)*%
X172111000Y-84234000D02*
X170281000Y-86064000D01*
X172111000Y-84116000D02*
X172111000Y-84234000D01*
%TO.N,Net-(D3-DOUT)*%
X172111000Y-87164000D02*
X172111000Y-87282000D01*
X172111000Y-87282000D02*
X170281000Y-89112000D01*
%TO.N,Net-(D4-DOUT)*%
X172111000Y-90212000D02*
X172111000Y-90330000D01*
X172111000Y-90330000D02*
X170281000Y-92160000D01*
%TO.N,Net-(D5-DOUT)*%
X172111000Y-93260000D02*
X172111000Y-93378000D01*
X172111000Y-93378000D02*
X170281000Y-95208000D01*
%TO.N,Net-(D6-DOUT)*%
X172111000Y-96308000D02*
X172111000Y-96426000D01*
X172111000Y-96426000D02*
X170281000Y-98256000D01*
%TO.N,Net-(D7-DOUT)*%
X172111000Y-99356000D02*
X170281000Y-101186000D01*
X170281000Y-101186000D02*
X170281000Y-101304000D01*
%TO.N,Net-(D8-DOUT)*%
X200347000Y-103124000D02*
X201067000Y-102404000D01*
X172831000Y-103124000D02*
X200347000Y-103124000D01*
X172111000Y-102404000D02*
X172831000Y-103124000D01*
%TO.N,Net-(D10-DIN)*%
X199237000Y-101304000D02*
X199237000Y-101186000D01*
X199237000Y-101186000D02*
X201067000Y-99356000D01*
%TO.N,Net-(D10-DOUT)*%
X199237000Y-98138000D02*
X201067000Y-96308000D01*
X199237000Y-98256000D02*
X199237000Y-98138000D01*
%TO.N,Net-(D11-DOUT)*%
X199237000Y-95090000D02*
X201067000Y-93260000D01*
X199237000Y-95208000D02*
X199237000Y-95090000D01*
%TO.N,Net-(D12-DOUT)*%
X199237000Y-92042000D02*
X201067000Y-90212000D01*
X199237000Y-92160000D02*
X199237000Y-92042000D01*
%TO.N,Net-(D13-DOUT)*%
X199237000Y-89112000D02*
X199237000Y-88994000D01*
X199237000Y-88994000D02*
X201067000Y-87164000D01*
%TO.N,Net-(D14-DOUT)*%
X201067000Y-84175000D02*
X201067000Y-84116000D01*
X199237000Y-86005000D02*
X201067000Y-84175000D01*
X199237000Y-86064000D02*
X199237000Y-86005000D01*
%TO.N,Net-(D15-DOUT)*%
X199237000Y-82898000D02*
X201067000Y-81068000D01*
X199237000Y-83016000D02*
X199237000Y-82898000D01*
%TO.N,Net-(D16-DOUT)*%
X200152000Y-79968000D02*
X199237000Y-79968000D01*
%TO.N,/boot*%
X157369000Y-90646000D02*
X156027600Y-90646000D01*
X156027600Y-90646000D02*
X155905200Y-90523600D01*
D41*
%TO.N,Net-(U5-PROG)*%
X210972400Y-98651600D02*
X212377100Y-98651600D01*
X212377100Y-98651600D02*
X212410000Y-98684500D01*
D39*
%TO.N,USB_D-*%
X161144000Y-81081200D02*
X160555400Y-80492600D01*
X161144000Y-84471000D02*
X161144000Y-81081200D01*
%TO.N,USB_D+*%
X160344000Y-84471000D02*
X160344000Y-81754400D01*
X160344000Y-81754400D02*
X160047400Y-81457800D01*
%TD*%
%TA.AperFunction,Conductor*%
%TO.N,VCC*%
G36*
X206521239Y-100527485D02*
G01*
X206566994Y-100580289D01*
X206578200Y-100631800D01*
X206578200Y-101730000D01*
X206558515Y-101797039D01*
X206505711Y-101842794D01*
X206454200Y-101854000D01*
X205084915Y-101854000D01*
X205027037Y-101839664D01*
X204205922Y-101406297D01*
X204155821Y-101357597D01*
X204139800Y-101296633D01*
X204139800Y-100936600D01*
X204159485Y-100869561D01*
X204212289Y-100823806D01*
X204263800Y-100812600D01*
X204673200Y-100812600D01*
X204941681Y-100544119D01*
X205003004Y-100510634D01*
X205029362Y-100507800D01*
X206454200Y-100507800D01*
X206521239Y-100527485D01*
G37*
%TD.AperFunction*%
%TD*%
%TA.AperFunction,Conductor*%
%TO.N,+3V0*%
G36*
X167633839Y-96209485D02*
G01*
X167679594Y-96262289D01*
X167690800Y-96313800D01*
X167690800Y-97843800D01*
X167671115Y-97910839D01*
X167618311Y-97956594D01*
X167566800Y-97967800D01*
X165777965Y-97967800D01*
X165710926Y-97948115D01*
X165706962Y-97944921D01*
X165697201Y-97938399D01*
X165614340Y-97883034D01*
X165614338Y-97883033D01*
X165614335Y-97883032D01*
X165541277Y-97868500D01*
X165541274Y-97868500D01*
X165252664Y-97868500D01*
X165185625Y-97848815D01*
X165139870Y-97796011D01*
X165129926Y-97726853D01*
X165158951Y-97663297D01*
X165164983Y-97656819D01*
X165172198Y-97649603D01*
X165172197Y-97649603D01*
X165172201Y-97649601D01*
X165227566Y-97566740D01*
X165242100Y-97493674D01*
X165242100Y-97228200D01*
X165261785Y-97161161D01*
X165314589Y-97115406D01*
X165366100Y-97104200D01*
X166649399Y-97104200D01*
X166649400Y-97104200D01*
X167081200Y-96850200D01*
X167081200Y-96313800D01*
X167100885Y-96246761D01*
X167153689Y-96201006D01*
X167205200Y-96189800D01*
X167566800Y-96189800D01*
X167633839Y-96209485D01*
G37*
%TD.AperFunction*%
%TD*%
%TA.AperFunction,Conductor*%
%TO.N,GND*%
G36*
X167303639Y-98293685D02*
G01*
X167349394Y-98346489D01*
X167360600Y-98398000D01*
X167360600Y-98524000D01*
X167486600Y-98524000D01*
X167553639Y-98543685D01*
X167599394Y-98596489D01*
X167610600Y-98648000D01*
X167610600Y-99101467D01*
X167613329Y-99101212D01*
X167738519Y-99057405D01*
X167845241Y-98978641D01*
X167928930Y-98865247D01*
X167984578Y-98822997D01*
X168054234Y-98817538D01*
X168115783Y-98850606D01*
X168149684Y-98911700D01*
X168152700Y-98938881D01*
X168152700Y-102187477D01*
X168148598Y-102201446D01*
X168155476Y-102212148D01*
X168156264Y-102214956D01*
X168164712Y-102246482D01*
X168174882Y-102284440D01*
X168180694Y-102294506D01*
X168217735Y-102358662D01*
X168217736Y-102358663D01*
X168217737Y-102358664D01*
X168615681Y-102756608D01*
X168649166Y-102817931D01*
X168652000Y-102844289D01*
X168652000Y-103156000D01*
X168963711Y-103156000D01*
X169030750Y-103175685D01*
X169051392Y-103192319D01*
X169571974Y-103712900D01*
X170097333Y-104238259D01*
X170097335Y-104238262D01*
X170157938Y-104298865D01*
X170194687Y-104320082D01*
X170232161Y-104341718D01*
X170314947Y-104363900D01*
X170314949Y-104363900D01*
X201414051Y-104363900D01*
X201414053Y-104363900D01*
X201496839Y-104341718D01*
X201571062Y-104298865D01*
X202462419Y-103407506D01*
X202481855Y-103396894D01*
X202498589Y-103382394D01*
X202511920Y-103380477D01*
X202523742Y-103374022D01*
X202545828Y-103375601D01*
X202567747Y-103372450D01*
X202579998Y-103378045D01*
X202593433Y-103379006D01*
X202611158Y-103392275D01*
X202631303Y-103401475D01*
X202638585Y-103412807D01*
X202649367Y-103420878D01*
X202657104Y-103441623D01*
X202669077Y-103460253D01*
X202672228Y-103482171D01*
X202673784Y-103486342D01*
X202674100Y-103495188D01*
X202674100Y-103527770D01*
X202654415Y-103594809D01*
X202637781Y-103615451D01*
X202591651Y-103661580D01*
X202591648Y-103661584D01*
X202509519Y-103784498D01*
X202509512Y-103784511D01*
X202452943Y-103921082D01*
X202452940Y-103921092D01*
X202424100Y-104066079D01*
X202424100Y-104066082D01*
X202424100Y-104213918D01*
X202424100Y-104213920D01*
X202424099Y-104213920D01*
X202447048Y-104329286D01*
X202440821Y-104398878D01*
X202413112Y-104441159D01*
X201933092Y-104921181D01*
X201871769Y-104954666D01*
X201845411Y-104957500D01*
X169505188Y-104957500D01*
X169438149Y-104937815D01*
X169417507Y-104921181D01*
X168998818Y-104502492D01*
X168965333Y-104441169D01*
X168962499Y-104414811D01*
X168962499Y-104195260D01*
X168948018Y-104103829D01*
X168948018Y-104103828D01*
X168948017Y-104103826D01*
X168948017Y-104103825D01*
X168891859Y-103993609D01*
X168891857Y-103993607D01*
X168887428Y-103984914D01*
X168889455Y-103983880D01*
X168870480Y-103930684D01*
X168886310Y-103862631D01*
X168894508Y-103849981D01*
X168965403Y-103753922D01*
X168999668Y-103656000D01*
X167741362Y-103656000D01*
X167674323Y-103636315D01*
X167664004Y-103628000D01*
X167123500Y-103628000D01*
X167056461Y-103608315D01*
X167010706Y-103555511D01*
X166999500Y-103504000D01*
X166999500Y-103252000D01*
X167019185Y-103184961D01*
X167071989Y-103139206D01*
X167123500Y-103128000D01*
X168012638Y-103128000D01*
X168079677Y-103147685D01*
X168089996Y-103156000D01*
X168152000Y-103156000D01*
X168152000Y-102828531D01*
X168151999Y-102828530D01*
X168149275Y-102828786D01*
X168055586Y-102861570D01*
X167985808Y-102865131D01*
X167925180Y-102830402D01*
X167892953Y-102768409D01*
X167896295Y-102712970D01*
X167896120Y-102712943D01*
X167896406Y-102711134D01*
X167896704Y-102706199D01*
X167897643Y-102703309D01*
X167897646Y-102703304D01*
X167912500Y-102609519D01*
X167912499Y-102247082D01*
X167916600Y-102233113D01*
X167909723Y-102222412D01*
X167906226Y-102206874D01*
X167905399Y-102201653D01*
X167897646Y-102152696D01*
X167840050Y-102039658D01*
X167840046Y-102039654D01*
X167840045Y-102039652D01*
X167750347Y-101949954D01*
X167750344Y-101949952D01*
X167750342Y-101949950D01*
X167661142Y-101904500D01*
X167637301Y-101892352D01*
X167543524Y-101877500D01*
X166455482Y-101877500D01*
X166374519Y-101890323D01*
X166361696Y-101892354D01*
X166248658Y-101949950D01*
X166248657Y-101949951D01*
X166240759Y-101955689D01*
X166239893Y-101954497D01*
X166187858Y-101982911D01*
X166118166Y-101977927D01*
X166062233Y-101936055D01*
X166037816Y-101870591D01*
X166037500Y-101861745D01*
X166037500Y-101426765D01*
X166031804Y-101405510D01*
X166031803Y-101405506D01*
X166031425Y-101404097D01*
X166021458Y-101366897D01*
X166011910Y-101331262D01*
X165962475Y-101245638D01*
X165892562Y-101175725D01*
X165280419Y-100563582D01*
X165246934Y-100502259D01*
X165244100Y-100475901D01*
X165244100Y-100435327D01*
X165244100Y-100435325D01*
X165206584Y-100295315D01*
X165185300Y-100258451D01*
X165168828Y-100190552D01*
X165181287Y-100141993D01*
X165205182Y-100093118D01*
X165216100Y-100018182D01*
X165216100Y-99575018D01*
X165205182Y-99500082D01*
X165201086Y-99491704D01*
X165151417Y-99390104D01*
X165139657Y-99321231D01*
X165154100Y-99287267D01*
X165154100Y-98981500D01*
X164440600Y-98981500D01*
X164431914Y-98978949D01*
X164422953Y-98980238D01*
X164398912Y-98969259D01*
X164373561Y-98961815D01*
X164367633Y-98954974D01*
X164359397Y-98951213D01*
X164345107Y-98928978D01*
X164327806Y-98909011D01*
X164325518Y-98898496D01*
X164321623Y-98892435D01*
X164316600Y-98857500D01*
X164316600Y-98755500D01*
X164336285Y-98688461D01*
X164389089Y-98642706D01*
X164440600Y-98631500D01*
X164641598Y-98631500D01*
X164669572Y-98603526D01*
X164725157Y-98571433D01*
X164779085Y-98556984D01*
X164805600Y-98541675D01*
X164873497Y-98525202D01*
X164939524Y-98548053D01*
X164982716Y-98602973D01*
X164984421Y-98611821D01*
X164991600Y-98619000D01*
X165154100Y-98619000D01*
X165154100Y-98418000D01*
X165156650Y-98409314D01*
X165155362Y-98400353D01*
X165166340Y-98376312D01*
X165173785Y-98350961D01*
X165180625Y-98345033D01*
X165184387Y-98336797D01*
X165206621Y-98322507D01*
X165226589Y-98305206D01*
X165237103Y-98302918D01*
X165243165Y-98299023D01*
X165278100Y-98294000D01*
X165380100Y-98294000D01*
X165447139Y-98313685D01*
X165492894Y-98366489D01*
X165504100Y-98418000D01*
X165504100Y-99268999D01*
X165561386Y-99268999D01*
X165561408Y-99268997D01*
X165586469Y-99266091D01*
X165586473Y-99266090D01*
X165689074Y-99220788D01*
X165689079Y-99220785D01*
X165768385Y-99141479D01*
X165768386Y-99141477D01*
X165782596Y-99109295D01*
X165827681Y-99055918D01*
X165894467Y-99035389D01*
X165958351Y-99053274D01*
X165958463Y-99053063D01*
X165959440Y-99053579D01*
X165961749Y-99054226D01*
X165965537Y-99056802D01*
X165966678Y-99057404D01*
X166091871Y-99101212D01*
X166091869Y-99101212D01*
X166094600Y-99101467D01*
X166594600Y-99101467D01*
X166597329Y-99101212D01*
X166722519Y-99057405D01*
X166778966Y-99015746D01*
X166844595Y-98991775D01*
X166912765Y-99007090D01*
X166926234Y-99015746D01*
X166982680Y-99057405D01*
X167107871Y-99101212D01*
X167107869Y-99101212D01*
X167110600Y-99101467D01*
X167110600Y-98774000D01*
X166594600Y-98774000D01*
X166594600Y-99101467D01*
X166094600Y-99101467D01*
X166094600Y-98648000D01*
X166114285Y-98580961D01*
X166167089Y-98535206D01*
X166218600Y-98524000D01*
X166344600Y-98524000D01*
X166344600Y-98398000D01*
X166364285Y-98330961D01*
X166417089Y-98285206D01*
X166468600Y-98274000D01*
X167236600Y-98274000D01*
X167303639Y-98293685D01*
G37*
%TD.AperFunction*%
%TA.AperFunction,Conductor*%
G36*
X204643240Y-102569328D02*
G01*
X204674030Y-102569385D01*
X204677768Y-102571797D01*
X204682209Y-102572115D01*
X204706859Y-102590568D01*
X204732739Y-102607267D01*
X204734581Y-102611320D01*
X204738143Y-102613987D01*
X204748902Y-102642835D01*
X204761646Y-102670876D01*
X204761634Y-102676970D01*
X204762560Y-102679451D01*
X204761581Y-102706170D01*
X204756500Y-102741052D01*
X204756500Y-102787480D01*
X204752275Y-102819572D01*
X204731500Y-102897106D01*
X204731500Y-103028893D01*
X204752275Y-103106429D01*
X204756500Y-103138519D01*
X204756500Y-103184949D01*
X204766779Y-103255506D01*
X204766779Y-103255507D01*
X204766780Y-103255509D01*
X204800196Y-103323862D01*
X204819989Y-103364349D01*
X204905651Y-103450011D01*
X204905652Y-103450011D01*
X204905653Y-103450012D01*
X204933243Y-103463500D01*
X205014491Y-103503220D01*
X205085040Y-103513499D01*
X205085048Y-103513499D01*
X205085051Y-103513500D01*
X205085053Y-103513499D01*
X205086642Y-103513615D01*
X205087371Y-103513838D01*
X205089493Y-103514148D01*
X205089445Y-103514475D01*
X205130921Y-103527210D01*
X205131306Y-103526282D01*
X205138812Y-103529391D01*
X205138814Y-103529392D01*
X205266107Y-103563500D01*
X205266108Y-103563500D01*
X206403948Y-103563500D01*
X206460242Y-103577015D01*
X206502698Y-103598647D01*
X206596475Y-103613499D01*
X206596481Y-103613500D01*
X207834518Y-103613499D01*
X207928304Y-103598646D01*
X207942270Y-103591529D01*
X208010938Y-103578633D01*
X208075679Y-103604908D01*
X208115937Y-103662013D01*
X208118768Y-103728039D01*
X208118880Y-103728057D01*
X208118793Y-103728605D01*
X208118931Y-103731819D01*
X208117481Y-103736889D01*
X208102500Y-103831475D01*
X208102500Y-104194517D01*
X208118881Y-104297943D01*
X208116857Y-104298263D01*
X208118490Y-104355516D01*
X208082407Y-104415347D01*
X208019704Y-104446171D01*
X207950290Y-104438203D01*
X207942280Y-104434475D01*
X207928304Y-104427354D01*
X207928303Y-104427353D01*
X207928300Y-104427352D01*
X207928301Y-104427352D01*
X207834524Y-104412500D01*
X206596482Y-104412500D01*
X206502694Y-104427354D01*
X206460243Y-104448985D01*
X206403948Y-104462500D01*
X205266107Y-104462500D01*
X205164055Y-104489844D01*
X205164045Y-104489847D01*
X205159557Y-104491050D01*
X205138814Y-104496608D01*
X205129653Y-104501896D01*
X205118700Y-104505734D01*
X205106243Y-104506374D01*
X205089442Y-104511534D01*
X205089489Y-104511855D01*
X205087413Y-104512157D01*
X205086682Y-104512382D01*
X205085065Y-104512499D01*
X205014492Y-104522779D01*
X204959017Y-104549900D01*
X204904556Y-104562500D01*
X204356276Y-104562500D01*
X204289237Y-104542815D01*
X204268595Y-104526181D01*
X203961419Y-104219005D01*
X203927934Y-104157682D01*
X203925100Y-104131324D01*
X203925100Y-104066079D01*
X203896259Y-103921092D01*
X203896258Y-103921091D01*
X203896258Y-103921087D01*
X203890067Y-103906141D01*
X203839687Y-103784511D01*
X203839680Y-103784498D01*
X203757551Y-103661584D01*
X203757548Y-103661580D01*
X203711571Y-103615603D01*
X203678086Y-103554280D01*
X203683070Y-103484588D01*
X203711569Y-103440243D01*
X204551197Y-102600614D01*
X204578220Y-102585858D01*
X204604161Y-102569256D01*
X204608611Y-102569264D01*
X204612518Y-102567131D01*
X204643240Y-102569328D01*
G37*
%TD.AperFunction*%
%TA.AperFunction,Conductor*%
G36*
X204644850Y-99226185D02*
G01*
X204690605Y-99278989D01*
X204700549Y-99348147D01*
X204671524Y-99411703D01*
X204665492Y-99418181D01*
X204566492Y-99517181D01*
X204505169Y-99550666D01*
X204478811Y-99553500D01*
X204248418Y-99553500D01*
X204173482Y-99564418D01*
X204173480Y-99564418D01*
X204173478Y-99564419D01*
X204057900Y-99620921D01*
X204057897Y-99620923D01*
X203966641Y-99712180D01*
X203912275Y-99743940D01*
X203895930Y-99748499D01*
X203844947Y-99748499D01*
X203762161Y-99770682D01*
X203725050Y-99792108D01*
X203711471Y-99799947D01*
X203711470Y-99799948D01*
X203687938Y-99813535D01*
X203634404Y-99867069D01*
X203634403Y-99867068D01*
X203634401Y-99867071D01*
X203371337Y-100130135D01*
X203371335Y-100130138D01*
X203329020Y-100203430D01*
X203328482Y-100204361D01*
X203314237Y-100257525D01*
X203314237Y-100257526D01*
X203314236Y-100257525D01*
X203306300Y-100287145D01*
X203306300Y-101591611D01*
X203286615Y-101658650D01*
X203269981Y-101679292D01*
X201272692Y-103676581D01*
X201211369Y-103710066D01*
X201185011Y-103712900D01*
X170543988Y-103712900D01*
X170476949Y-103693215D01*
X170456307Y-103676581D01*
X169995907Y-103216181D01*
X169962422Y-103154858D01*
X169967406Y-103085166D01*
X170009278Y-103029233D01*
X170074742Y-103004816D01*
X170083588Y-103004500D01*
X170655676Y-103004500D01*
X170655677Y-103004499D01*
X170728740Y-102989966D01*
X170811601Y-102934601D01*
X170866966Y-102851740D01*
X170881500Y-102778674D01*
X170881500Y-102350542D01*
X170901185Y-102283503D01*
X170917814Y-102262866D01*
X171310634Y-101870046D01*
X171371953Y-101836564D01*
X171441644Y-101841548D01*
X171497578Y-101883419D01*
X171521995Y-101948884D01*
X171519929Y-101981920D01*
X171510500Y-102029326D01*
X171510500Y-102778678D01*
X171525032Y-102851735D01*
X171525033Y-102851739D01*
X171543405Y-102879235D01*
X171580399Y-102934601D01*
X171641836Y-102975651D01*
X171663260Y-102989966D01*
X171663264Y-102989967D01*
X171736321Y-103004499D01*
X171736324Y-103004500D01*
X171736326Y-103004500D01*
X172199812Y-103004500D01*
X172266851Y-103024185D01*
X172287493Y-103040819D01*
X172570533Y-103323859D01*
X172570535Y-103323862D01*
X172631138Y-103384465D01*
X172668250Y-103405891D01*
X172677370Y-103411157D01*
X172677373Y-103411159D01*
X172705358Y-103427317D01*
X172705360Y-103427317D01*
X172705361Y-103427318D01*
X172788147Y-103449501D01*
X172788149Y-103449501D01*
X172881449Y-103449501D01*
X172881465Y-103449500D01*
X200389851Y-103449500D01*
X200389853Y-103449500D01*
X200472639Y-103427318D01*
X200546862Y-103384465D01*
X200890508Y-103040819D01*
X200951831Y-103007334D01*
X200978189Y-103004500D01*
X201441676Y-103004500D01*
X201441677Y-103004499D01*
X201514740Y-102989966D01*
X201597601Y-102934601D01*
X201652966Y-102851740D01*
X201667500Y-102778674D01*
X201667500Y-102515182D01*
X201687185Y-102448143D01*
X201739989Y-102402388D01*
X201809147Y-102392444D01*
X201823588Y-102395406D01*
X201857525Y-102404500D01*
X201857527Y-102404500D01*
X202002472Y-102404500D01*
X202002475Y-102404500D01*
X202142485Y-102366984D01*
X202268015Y-102294509D01*
X202370509Y-102192015D01*
X202442984Y-102066485D01*
X202480500Y-101926475D01*
X202480500Y-101781525D01*
X202442984Y-101641515D01*
X202441082Y-101638221D01*
X202370511Y-101515988D01*
X202370506Y-101515982D01*
X202316819Y-101462295D01*
X202283334Y-101400972D01*
X202280500Y-101374614D01*
X202280500Y-99330500D01*
X202300185Y-99263461D01*
X202352989Y-99217706D01*
X202404500Y-99206500D01*
X204577811Y-99206500D01*
X204644850Y-99226185D01*
G37*
%TD.AperFunction*%
%TA.AperFunction,Conductor*%
G36*
X208670410Y-101013492D02*
G01*
X208726345Y-101055363D01*
X208726848Y-101056040D01*
X208797793Y-101152165D01*
X208810693Y-101163657D01*
X208826278Y-101188657D01*
X208844096Y-101212124D01*
X208844554Y-101217972D01*
X208847657Y-101222949D01*
X208847252Y-101252404D01*
X208849554Y-101281780D01*
X208846777Y-101286947D01*
X208846697Y-101292812D01*
X208830428Y-101317377D01*
X208816486Y-101343329D01*
X208815894Y-101343926D01*
X208792921Y-101366898D01*
X208736418Y-101482478D01*
X208736417Y-101482481D01*
X208725587Y-101556817D01*
X208696443Y-101620318D01*
X208690564Y-101626620D01*
X207841003Y-102476181D01*
X207779680Y-102509666D01*
X207753322Y-102512500D01*
X206596482Y-102512500D01*
X206502694Y-102527354D01*
X206460243Y-102548985D01*
X206403948Y-102562500D01*
X205696221Y-102562500D01*
X205629182Y-102542815D01*
X205608539Y-102526180D01*
X205558348Y-102475988D01*
X205449511Y-102422780D01*
X205431869Y-102420210D01*
X205378949Y-102412500D01*
X205378943Y-102412500D01*
X205085047Y-102412500D01*
X205050170Y-102417581D01*
X204980993Y-102407765D01*
X204928105Y-102362107D01*
X204908297Y-102295104D01*
X204927859Y-102228028D01*
X204944607Y-102207204D01*
X205005995Y-102145816D01*
X205067317Y-102112334D01*
X205093674Y-102109500D01*
X206454200Y-102109500D01*
X206508513Y-102103661D01*
X206560024Y-102092455D01*
X206586398Y-102085219D01*
X206666408Y-102039658D01*
X206673018Y-102035894D01*
X206673019Y-102035892D01*
X206673028Y-102035888D01*
X206725832Y-101990133D01*
X206757457Y-101957359D01*
X206803665Y-101869024D01*
X206805803Y-101861745D01*
X206816159Y-101826474D01*
X206823350Y-101801985D01*
X206833700Y-101730000D01*
X206833700Y-101241549D01*
X206853385Y-101174510D01*
X206906189Y-101128755D01*
X206975347Y-101118811D01*
X206977099Y-101119076D01*
X206980695Y-101119645D01*
X206980696Y-101119646D01*
X207074481Y-101134500D01*
X208312518Y-101134499D01*
X208406304Y-101119646D01*
X208519342Y-101062050D01*
X208539398Y-101041993D01*
X208600719Y-101008509D01*
X208670410Y-101013492D01*
G37*
%TD.AperFunction*%
%TA.AperFunction,Conductor*%
G36*
X167843103Y-89767075D02*
G01*
X167849581Y-89773107D01*
X168116381Y-90039907D01*
X168149866Y-90101230D01*
X168152700Y-90127588D01*
X168152700Y-96118357D01*
X168133015Y-96185396D01*
X168080211Y-96231151D01*
X168011053Y-96241095D01*
X167947497Y-96212070D01*
X167920946Y-96179717D01*
X167872691Y-96094977D01*
X167872690Y-96094976D01*
X167872688Y-96094972D01*
X167826933Y-96042168D01*
X167794159Y-96010543D01*
X167705824Y-95964335D01*
X167705823Y-95964334D01*
X167705822Y-95964334D01*
X167705822Y-95964333D01*
X167638790Y-95944651D01*
X167638778Y-95944648D01*
X167566801Y-95934300D01*
X167566800Y-95934300D01*
X167205200Y-95934300D01*
X167205197Y-95934300D01*
X167150887Y-95940138D01*
X167099381Y-95951343D01*
X167099372Y-95951346D01*
X167073007Y-95958579D01*
X167072996Y-95958583D01*
X166986381Y-96007905D01*
X166986373Y-96007911D01*
X166933568Y-96053666D01*
X166933558Y-96053675D01*
X166926868Y-96060609D01*
X166866150Y-96095179D01*
X166796381Y-96091435D01*
X166749961Y-96062182D01*
X166704702Y-96016923D01*
X166704699Y-96016921D01*
X166589121Y-95960419D01*
X166589119Y-95960418D01*
X166589118Y-95960418D01*
X166514182Y-95949500D01*
X166171018Y-95949500D01*
X166124183Y-95956323D01*
X166096079Y-95960418D01*
X165980499Y-96016923D01*
X165972138Y-96022893D01*
X165970091Y-96020026D01*
X165924832Y-96044722D01*
X165855141Y-96039715D01*
X165836512Y-96030934D01*
X165795087Y-96007017D01*
X165795086Y-96007016D01*
X165755507Y-95996411D01*
X165655075Y-95969500D01*
X165510125Y-95969500D01*
X165488824Y-95975207D01*
X165473897Y-95979207D01*
X165404047Y-95977542D01*
X165346185Y-95938378D01*
X165330405Y-95913891D01*
X165309382Y-95870888D01*
X165301076Y-95853898D01*
X165301075Y-95853897D01*
X165301075Y-95853896D01*
X165210102Y-95762923D01*
X165210099Y-95762921D01*
X165094521Y-95706419D01*
X165094519Y-95706418D01*
X165094518Y-95706418D01*
X165019582Y-95695500D01*
X164787500Y-95695500D01*
X164720461Y-95675815D01*
X164674706Y-95623011D01*
X164663500Y-95571500D01*
X164663500Y-95511949D01*
X164663500Y-95511947D01*
X164641318Y-95429162D01*
X164640904Y-95428445D01*
X164598469Y-95354944D01*
X164598463Y-95354936D01*
X163275003Y-94031476D01*
X163241518Y-93970153D01*
X163246502Y-93900461D01*
X163288374Y-93844528D01*
X163353838Y-93820111D01*
X163380560Y-93821091D01*
X163383364Y-93821500D01*
X163383372Y-93821500D01*
X163704630Y-93821500D01*
X163704636Y-93821500D01*
X163777625Y-93810866D01*
X163889540Y-93756153D01*
X163958412Y-93744394D01*
X163998458Y-93756153D01*
X164027599Y-93770399D01*
X164110372Y-93810865D01*
X164110373Y-93810865D01*
X164110375Y-93810866D01*
X164183364Y-93821500D01*
X164183370Y-93821500D01*
X164504630Y-93821500D01*
X164504636Y-93821500D01*
X164577625Y-93810866D01*
X164640040Y-93780353D01*
X164690210Y-93755827D01*
X164778827Y-93667210D01*
X164805759Y-93612118D01*
X164833866Y-93554625D01*
X164844500Y-93481636D01*
X164844500Y-92160364D01*
X164833866Y-92087375D01*
X164833865Y-92087373D01*
X164832477Y-92077845D01*
X164835250Y-92077440D01*
X164834477Y-92022684D01*
X164871418Y-91963379D01*
X164934558Y-91933460D01*
X164975565Y-91936392D01*
X164975845Y-91934477D01*
X164985373Y-91935865D01*
X164985375Y-91935866D01*
X165058364Y-91946500D01*
X165058370Y-91946500D01*
X166379630Y-91946500D01*
X166379636Y-91946500D01*
X166452625Y-91935866D01*
X166530889Y-91897605D01*
X166565210Y-91880827D01*
X166653827Y-91792210D01*
X166692910Y-91712264D01*
X166708866Y-91679625D01*
X166719500Y-91606636D01*
X166719500Y-91285364D01*
X166708866Y-91212375D01*
X166704303Y-91203042D01*
X166671463Y-91135866D01*
X166654153Y-91100459D01*
X166642394Y-91031588D01*
X166654153Y-90991541D01*
X166708866Y-90879625D01*
X166719500Y-90806636D01*
X166719500Y-90485364D01*
X166719500Y-90480877D01*
X166721205Y-90480877D01*
X166734444Y-90419621D01*
X166783783Y-90370149D01*
X166852036Y-90355205D01*
X166875436Y-90359123D01*
X167014925Y-90396500D01*
X167014928Y-90396500D01*
X167159872Y-90396500D01*
X167159875Y-90396500D01*
X167299885Y-90358984D01*
X167425415Y-90286509D01*
X167527909Y-90184015D01*
X167600384Y-90058485D01*
X167637900Y-89918475D01*
X167637900Y-89860788D01*
X167657585Y-89793749D01*
X167710389Y-89747994D01*
X167779547Y-89738050D01*
X167843103Y-89767075D01*
G37*
%TD.AperFunction*%
%TA.AperFunction,Conductor*%
G36*
X163971152Y-90302930D02*
G01*
X164011680Y-90359844D01*
X164018500Y-90400400D01*
X164018500Y-91750246D01*
X163998815Y-91817285D01*
X163946011Y-91863040D01*
X163876853Y-91872984D01*
X163840040Y-91861647D01*
X163777626Y-91831134D01*
X163767198Y-91829614D01*
X163704636Y-91820500D01*
X163383364Y-91820500D01*
X163328622Y-91828475D01*
X163310373Y-91831134D01*
X163198460Y-91885846D01*
X163129587Y-91897605D01*
X163089540Y-91885846D01*
X162977626Y-91831134D01*
X162967198Y-91829614D01*
X162904636Y-91820500D01*
X162583364Y-91820500D01*
X162534704Y-91827589D01*
X162510372Y-91831134D01*
X162427107Y-91871840D01*
X162422451Y-91872634D01*
X162418737Y-91875556D01*
X162388328Y-91878460D01*
X162358234Y-91883598D01*
X162353887Y-91881749D01*
X162349183Y-91882199D01*
X162322036Y-91868204D01*
X162293937Y-91856255D01*
X162290115Y-91851749D01*
X162287080Y-91850184D01*
X162265262Y-91822441D01*
X162240395Y-91779373D01*
X162229739Y-91760917D01*
X162213266Y-91693018D01*
X162236117Y-91626991D01*
X162249439Y-91611241D01*
X163230863Y-90629819D01*
X163292186Y-90596334D01*
X163318544Y-90593500D01*
X163394472Y-90593500D01*
X163394475Y-90593500D01*
X163534485Y-90555984D01*
X163660015Y-90483509D01*
X163762509Y-90381015D01*
X163787113Y-90338400D01*
X163837680Y-90290184D01*
X163906287Y-90276962D01*
X163971152Y-90302930D01*
G37*
%TD.AperFunction*%
%TA.AperFunction,Conductor*%
G36*
X168847818Y-80717620D02*
G01*
X168865549Y-80718889D01*
X168879863Y-80729605D01*
X168896613Y-80735869D01*
X168921395Y-80760696D01*
X168921482Y-80760761D01*
X168921524Y-80760825D01*
X168921547Y-80760848D01*
X168925942Y-80766729D01*
X168977491Y-80856015D01*
X169037490Y-80916014D01*
X169042832Y-80923163D01*
X169067192Y-80988649D01*
X169067500Y-80997386D01*
X169067500Y-83086614D01*
X169047815Y-83153653D01*
X169031181Y-83174295D01*
X168977493Y-83227982D01*
X168977488Y-83227988D01*
X168905017Y-83353511D01*
X168905016Y-83353515D01*
X168867500Y-83493525D01*
X168867500Y-83638475D01*
X168904207Y-83775465D01*
X168905017Y-83778488D01*
X168977488Y-83904011D01*
X168977493Y-83904017D01*
X169031181Y-83957705D01*
X169064666Y-84019028D01*
X169067500Y-84045386D01*
X169067500Y-86134614D01*
X169047815Y-86201653D01*
X169031181Y-86222295D01*
X168977493Y-86275982D01*
X168977488Y-86275988D01*
X168905017Y-86401511D01*
X168905016Y-86401515D01*
X168867500Y-86541525D01*
X168867500Y-86686475D01*
X168905016Y-86826485D01*
X168905017Y-86826488D01*
X168977488Y-86952011D01*
X168977493Y-86952017D01*
X169031181Y-87005705D01*
X169064666Y-87067028D01*
X169067500Y-87093386D01*
X169067500Y-89182614D01*
X169047815Y-89249653D01*
X169031181Y-89270295D01*
X168977493Y-89323982D01*
X168977488Y-89323988D01*
X168905017Y-89449511D01*
X168905016Y-89449515D01*
X168867500Y-89589525D01*
X168867500Y-89589527D01*
X168865397Y-89597376D01*
X168863863Y-89596965D01*
X168839374Y-89652310D01*
X168781046Y-89690776D01*
X168711181Y-89691602D01*
X168657027Y-89659901D01*
X168223601Y-89226475D01*
X167782662Y-88785535D01*
X167745550Y-88764108D01*
X167708440Y-88742682D01*
X167667046Y-88731591D01*
X167625653Y-88720500D01*
X167625652Y-88720500D01*
X166851989Y-88720500D01*
X166784950Y-88700815D01*
X166739195Y-88648011D01*
X166729251Y-88578853D01*
X166758276Y-88515297D01*
X166764308Y-88508819D01*
X167037221Y-88235906D01*
X167367065Y-87906062D01*
X167409917Y-87831839D01*
X167409918Y-87831838D01*
X167411820Y-87824742D01*
X167420536Y-87792211D01*
X167432100Y-87749053D01*
X167432100Y-82101187D01*
X167451785Y-82034148D01*
X167468414Y-82013511D01*
X168734536Y-80747388D01*
X168750228Y-80738820D01*
X168762884Y-80726187D01*
X168780255Y-80722423D01*
X168795857Y-80713905D01*
X168813694Y-80715180D01*
X168831170Y-80711395D01*
X168847818Y-80717620D01*
G37*
%TD.AperFunction*%
%TA.AperFunction,Conductor*%
G36*
X195015652Y-78577185D02*
G01*
X195036294Y-78593818D01*
X195102496Y-78660020D01*
X195135980Y-78721341D01*
X195130996Y-78791033D01*
X195089125Y-78846967D01*
X195023661Y-78871384D01*
X195014814Y-78871700D01*
X168816347Y-78871700D01*
X168733559Y-78893882D01*
X168659338Y-78936735D01*
X168659335Y-78936737D01*
X166255191Y-81340881D01*
X166193868Y-81374366D01*
X166167510Y-81377200D01*
X166056225Y-81377200D01*
X165927693Y-81411640D01*
X165916211Y-81414717D01*
X165790688Y-81487188D01*
X165790682Y-81487193D01*
X165688193Y-81589682D01*
X165688188Y-81589688D01*
X165615717Y-81715211D01*
X165615716Y-81715215D01*
X165578200Y-81855225D01*
X165578200Y-82000175D01*
X165611610Y-82124862D01*
X165615717Y-82140188D01*
X165688188Y-82265711D01*
X165688190Y-82265713D01*
X165688191Y-82265715D01*
X165790685Y-82368209D01*
X165790686Y-82368210D01*
X165790688Y-82368211D01*
X165916211Y-82440682D01*
X165916212Y-82440682D01*
X165916215Y-82440684D01*
X166056225Y-82478200D01*
X166056228Y-82478200D01*
X166201172Y-82478200D01*
X166201175Y-82478200D01*
X166341185Y-82440684D01*
X166466715Y-82368209D01*
X166569209Y-82265715D01*
X166569209Y-82265714D01*
X166569419Y-82265505D01*
X166630742Y-82232020D01*
X166700434Y-82237004D01*
X166756367Y-82278876D01*
X166780784Y-82344340D01*
X166781100Y-82353186D01*
X166781100Y-84389914D01*
X166761415Y-84456953D01*
X166744781Y-84477595D01*
X166554965Y-84667411D01*
X166744781Y-84857227D01*
X166778266Y-84918550D01*
X166781100Y-84944908D01*
X166781100Y-85264375D01*
X166780324Y-85267014D01*
X166780986Y-85269685D01*
X166770538Y-85300344D01*
X166761415Y-85331414D01*
X166759336Y-85333214D01*
X166758449Y-85335820D01*
X166733074Y-85355970D01*
X166708611Y-85377169D01*
X166705889Y-85377560D01*
X166703734Y-85379272D01*
X166671499Y-85382505D01*
X166639453Y-85387113D01*
X166636113Y-85386054D01*
X166634213Y-85386245D01*
X166600806Y-85374860D01*
X166502592Y-85324818D01*
X166451795Y-85276844D01*
X166449986Y-85269540D01*
X166201411Y-85020965D01*
X165969000Y-85253375D01*
X165969000Y-85722000D01*
X165949315Y-85789039D01*
X165896511Y-85834794D01*
X165845000Y-85846000D01*
X165719000Y-85846000D01*
X165719000Y-85972000D01*
X165699315Y-86039039D01*
X165646511Y-86084794D01*
X165595000Y-86096000D01*
X164683500Y-86096000D01*
X164684762Y-86103970D01*
X164684763Y-86103973D01*
X164745883Y-86223925D01*
X164747105Y-86225607D01*
X164747956Y-86227994D01*
X164750312Y-86232617D01*
X164749714Y-86232921D01*
X164770582Y-86291414D01*
X164758185Y-86352947D01*
X164729135Y-86412372D01*
X164729134Y-86412375D01*
X164718500Y-86485364D01*
X164718500Y-86806636D01*
X164727614Y-86869198D01*
X164729134Y-86879626D01*
X164745939Y-86914000D01*
X164783845Y-86991539D01*
X164783846Y-86991540D01*
X164795605Y-87060413D01*
X164783846Y-87100459D01*
X164782098Y-87104034D01*
X164729134Y-87212373D01*
X164729134Y-87212375D01*
X164718500Y-87285364D01*
X164718500Y-87606636D01*
X164726425Y-87661028D01*
X164729134Y-87679626D01*
X164772012Y-87767334D01*
X164783845Y-87791539D01*
X164783846Y-87791540D01*
X164789514Y-87824742D01*
X164795885Y-87857768D01*
X164795429Y-87859383D01*
X164795605Y-87860413D01*
X164787570Y-87892068D01*
X164784684Y-87899278D01*
X164784174Y-87899789D01*
X164729134Y-88012375D01*
X164723240Y-88052828D01*
X164717779Y-88066476D01*
X164704902Y-88082854D01*
X164696213Y-88101788D01*
X164683745Y-88109767D01*
X164674597Y-88121404D01*
X164654911Y-88128220D01*
X164637364Y-88139451D01*
X164622561Y-88139423D01*
X164608573Y-88144267D01*
X164588325Y-88139358D01*
X164567494Y-88139319D01*
X164555207Y-88134972D01*
X164550486Y-88133016D01*
X164507149Y-88121404D01*
X164410475Y-88095500D01*
X164265525Y-88095500D01*
X164143414Y-88128220D01*
X164125511Y-88133017D01*
X163999988Y-88205488D01*
X163999982Y-88205493D01*
X163897490Y-88307985D01*
X163894871Y-88311399D01*
X163891929Y-88313546D01*
X163891744Y-88313732D01*
X163891715Y-88313703D01*
X163838441Y-88352598D01*
X163768694Y-88356748D01*
X163707776Y-88322532D01*
X163675027Y-88260813D01*
X163672500Y-88235906D01*
X163672500Y-86683543D01*
X163692185Y-86616504D01*
X163708819Y-86595862D01*
X164159181Y-86145500D01*
X164624469Y-85680212D01*
X164637295Y-85657996D01*
X164687864Y-85609783D01*
X164744681Y-85596000D01*
X165469000Y-85596000D01*
X165469000Y-85296000D01*
X165060549Y-85296000D01*
X164981272Y-85308556D01*
X164911979Y-85299600D01*
X164858527Y-85254603D01*
X164837889Y-85187851D01*
X164839172Y-85168204D01*
X164844500Y-85131635D01*
X164844500Y-84920500D01*
X164864185Y-84853461D01*
X164916989Y-84807706D01*
X164968500Y-84796500D01*
X165083029Y-84796500D01*
X165083031Y-84796500D01*
X165165817Y-84774318D01*
X165240040Y-84731465D01*
X165330233Y-84641270D01*
X165391556Y-84607785D01*
X165461247Y-84612769D01*
X165517181Y-84654640D01*
X165540530Y-84710470D01*
X165557005Y-84819779D01*
X165557005Y-84819780D01*
X165602018Y-84913248D01*
X166024634Y-84490634D01*
X166447249Y-84068018D01*
X166353780Y-84023005D01*
X166235725Y-84005212D01*
X166172368Y-83975756D01*
X166134994Y-83916722D01*
X166132992Y-83907682D01*
X166131799Y-83904011D01*
X166094067Y-83787882D01*
X166039650Y-83712984D01*
X165798194Y-83471529D01*
X165798193Y-83471528D01*
X165798185Y-83471521D01*
X165723298Y-83417112D01*
X165723297Y-83417111D01*
X165605654Y-83378886D01*
X165605651Y-83378886D01*
X165481953Y-83378886D01*
X165481951Y-83378886D01*
X165405501Y-83403726D01*
X165364309Y-83417111D01*
X165364308Y-83417111D01*
X165364307Y-83417112D01*
X165289413Y-83471524D01*
X165289411Y-83471526D01*
X165018958Y-83741980D01*
X164957635Y-83775465D01*
X164887943Y-83770481D01*
X164832010Y-83728609D01*
X164819876Y-83708759D01*
X164778826Y-83624789D01*
X164778824Y-83624787D01*
X164778824Y-83624786D01*
X164690210Y-83536172D01*
X164577628Y-83481135D01*
X164577626Y-83481134D01*
X164577625Y-83481134D01*
X164504636Y-83470500D01*
X164183364Y-83470500D01*
X164128622Y-83478475D01*
X164110373Y-83481134D01*
X163998460Y-83535846D01*
X163929587Y-83547605D01*
X163889540Y-83535846D01*
X163777626Y-83481134D01*
X163767198Y-83479614D01*
X163704636Y-83470500D01*
X163440588Y-83470500D01*
X163373549Y-83450815D01*
X163327794Y-83398011D01*
X163317850Y-83328853D01*
X163346875Y-83265297D01*
X163352907Y-83258819D01*
X163501065Y-83110661D01*
X163655831Y-82955894D01*
X163717152Y-82922411D01*
X163786843Y-82927395D01*
X163801963Y-82934219D01*
X163804704Y-82935684D01*
X163941282Y-82992256D01*
X163941287Y-82992258D01*
X163941291Y-82992258D01*
X163941292Y-82992259D01*
X164086279Y-83021100D01*
X164086282Y-83021100D01*
X164234120Y-83021100D01*
X164331662Y-83001696D01*
X164379113Y-82992258D01*
X164515695Y-82935684D01*
X164638616Y-82853551D01*
X164743151Y-82749016D01*
X164825284Y-82626095D01*
X164829437Y-82616070D01*
X164858601Y-82545660D01*
X164881858Y-82489513D01*
X164896548Y-82415665D01*
X164910700Y-82344520D01*
X164910700Y-82196679D01*
X164881859Y-82051692D01*
X164881858Y-82051691D01*
X164881858Y-82051687D01*
X164856094Y-81989486D01*
X164825287Y-81915111D01*
X164825280Y-81915098D01*
X164743151Y-81792184D01*
X164743148Y-81792180D01*
X164638619Y-81687651D01*
X164638615Y-81687648D01*
X164515701Y-81605519D01*
X164515688Y-81605512D01*
X164379117Y-81548943D01*
X164379107Y-81548940D01*
X164234120Y-81520100D01*
X164234118Y-81520100D01*
X164086282Y-81520100D01*
X164086280Y-81520100D01*
X163941292Y-81548940D01*
X163941282Y-81548943D01*
X163804711Y-81605512D01*
X163804698Y-81605519D01*
X163681784Y-81687648D01*
X163681780Y-81687651D01*
X163577251Y-81792180D01*
X163577248Y-81792184D01*
X163495119Y-81915098D01*
X163495112Y-81915111D01*
X163436561Y-82056469D01*
X163392720Y-82110873D01*
X163326426Y-82132938D01*
X163258727Y-82115659D01*
X163211116Y-82064522D01*
X163207439Y-82056469D01*
X163148887Y-81915111D01*
X163148880Y-81915098D01*
X163066751Y-81792184D01*
X163066748Y-81792180D01*
X162962219Y-81687651D01*
X162962215Y-81687648D01*
X162839301Y-81605519D01*
X162839288Y-81605512D01*
X162702717Y-81548943D01*
X162702707Y-81548940D01*
X162557720Y-81520100D01*
X162557718Y-81520100D01*
X162409882Y-81520100D01*
X162409880Y-81520100D01*
X162264892Y-81548940D01*
X162264882Y-81548943D01*
X162128311Y-81605512D01*
X162128298Y-81605519D01*
X162005384Y-81687648D01*
X162005380Y-81687651D01*
X161900851Y-81792180D01*
X161900848Y-81792184D01*
X161818719Y-81915098D01*
X161818712Y-81915111D01*
X161762143Y-82051682D01*
X161762140Y-82051692D01*
X161733300Y-82196679D01*
X161733300Y-82196682D01*
X161733300Y-82344518D01*
X161733300Y-82344520D01*
X161733299Y-82344520D01*
X161756248Y-82459886D01*
X161750021Y-82529478D01*
X161722313Y-82571758D01*
X161681182Y-82612890D01*
X161619860Y-82646376D01*
X161550168Y-82641392D01*
X161494234Y-82599522D01*
X161469816Y-82534058D01*
X161469500Y-82525210D01*
X161469500Y-81038348D01*
X161469500Y-81038347D01*
X161465081Y-81021856D01*
X161456184Y-80988649D01*
X161447319Y-80955564D01*
X161447318Y-80955562D01*
X161447318Y-80955561D01*
X161404465Y-80881338D01*
X161112219Y-80589092D01*
X161078734Y-80527769D01*
X161075900Y-80501411D01*
X161075900Y-80271023D01*
X161075900Y-80271018D01*
X161064982Y-80196082D01*
X161025360Y-80115034D01*
X161008478Y-80080500D01*
X161008476Y-80080497D01*
X160917502Y-79989523D01*
X160917499Y-79989521D01*
X160801921Y-79933019D01*
X160801919Y-79933018D01*
X160801918Y-79933018D01*
X160726982Y-79922100D01*
X160383818Y-79922100D01*
X160308882Y-79933018D01*
X160308880Y-79933018D01*
X160308878Y-79933019D01*
X160193300Y-79989521D01*
X160193297Y-79989523D01*
X160133081Y-80049740D01*
X160125135Y-80054078D01*
X160119710Y-80061326D01*
X160094950Y-80070560D01*
X160071758Y-80083225D01*
X160062728Y-80082579D01*
X160054246Y-80085743D01*
X160028425Y-80080126D01*
X160002066Y-80078241D01*
X159993012Y-80072422D01*
X159985973Y-80070891D01*
X159957719Y-80049740D01*
X159897219Y-79989240D01*
X159863734Y-79927917D01*
X159860900Y-79901559D01*
X159860900Y-79537788D01*
X159880585Y-79470749D01*
X159897219Y-79450107D01*
X160753507Y-78593819D01*
X160814830Y-78560334D01*
X160841188Y-78557500D01*
X194948613Y-78557500D01*
X195015652Y-78577185D01*
G37*
%TD.AperFunction*%
%TA.AperFunction,Conductor*%
G36*
X206847000Y-81989486D02*
G01*
X206856814Y-82003895D01*
X206858683Y-82073740D01*
X206847000Y-82093034D01*
X206847000Y-82742314D01*
X206842606Y-82737920D01*
X206751394Y-82685259D01*
X206649661Y-82658000D01*
X206544339Y-82658000D01*
X206442606Y-82685259D01*
X206351394Y-82737920D01*
X206347000Y-82742314D01*
X206347000Y-82094514D01*
X206337186Y-82080107D01*
X206335315Y-82010262D01*
X206347000Y-81990962D01*
X206347000Y-81341686D01*
X206351394Y-81346080D01*
X206442606Y-81398741D01*
X206544339Y-81426000D01*
X206649661Y-81426000D01*
X206751394Y-81398741D01*
X206842606Y-81346080D01*
X206847000Y-81341686D01*
X206847000Y-81989486D01*
G37*
%TD.AperFunction*%
%TA.AperFunction,Conductor*%
G36*
X217428853Y-76500882D02*
G01*
X217459692Y-76503308D01*
X217605673Y-76514797D01*
X217624883Y-76517840D01*
X217792599Y-76558105D01*
X217811087Y-76564112D01*
X217970445Y-76630121D01*
X217987777Y-76638952D01*
X218134839Y-76729072D01*
X218150569Y-76740500D01*
X218281736Y-76852527D01*
X218295472Y-76866263D01*
X218407497Y-76997428D01*
X218418930Y-77013164D01*
X218509046Y-77160221D01*
X218517879Y-77177556D01*
X218555724Y-77268921D01*
X218583883Y-77336900D01*
X218589896Y-77355407D01*
X218630158Y-77523111D01*
X218633202Y-77542329D01*
X218647118Y-77719146D01*
X218647500Y-77728875D01*
X218647500Y-104643124D01*
X218647118Y-104652853D01*
X218633202Y-104829670D01*
X218630158Y-104848888D01*
X218589896Y-105016592D01*
X218583883Y-105035099D01*
X218517879Y-105194443D01*
X218509046Y-105211778D01*
X218418930Y-105358835D01*
X218407492Y-105374577D01*
X218295477Y-105505730D01*
X218281730Y-105519477D01*
X218171645Y-105613499D01*
X218150577Y-105631493D01*
X218134835Y-105642930D01*
X217987778Y-105733046D01*
X217970443Y-105741879D01*
X217811099Y-105807883D01*
X217792592Y-105813896D01*
X217624888Y-105854158D01*
X217605670Y-105857202D01*
X217428854Y-105871118D01*
X217419125Y-105871500D01*
X154182875Y-105871500D01*
X154173146Y-105871118D01*
X153996329Y-105857202D01*
X153977111Y-105854158D01*
X153809407Y-105813896D01*
X153790904Y-105807884D01*
X153703901Y-105771846D01*
X153631556Y-105741879D01*
X153614221Y-105733046D01*
X153467164Y-105642930D01*
X153451428Y-105631497D01*
X153320263Y-105519472D01*
X153306527Y-105505736D01*
X153194500Y-105374569D01*
X153183072Y-105358839D01*
X153092952Y-105211777D01*
X153084120Y-105194443D01*
X153018112Y-105035087D01*
X153012105Y-105016599D01*
X152971840Y-104848883D01*
X152968797Y-104829669D01*
X152966938Y-104806050D01*
X152957624Y-104687696D01*
X152954882Y-104652852D01*
X152954500Y-104643124D01*
X152954500Y-103156000D01*
X162724332Y-103156000D01*
X163072000Y-103156000D01*
X163072000Y-102828531D01*
X163071999Y-102828530D01*
X163069274Y-102828786D01*
X163069272Y-102828787D01*
X162944080Y-102872594D01*
X162837358Y-102951358D01*
X162758596Y-103058077D01*
X162724332Y-103156000D01*
X152954500Y-103156000D01*
X152954500Y-95863599D01*
X157946530Y-95863599D01*
X157946531Y-95863600D01*
X158274000Y-95863600D01*
X158274000Y-95515930D01*
X158273999Y-95515930D01*
X158176079Y-95550194D01*
X158069358Y-95628958D01*
X157990594Y-95735680D01*
X157946787Y-95860872D01*
X157946786Y-95860874D01*
X157946530Y-95863599D01*
X152954500Y-95863599D01*
X152954500Y-91793600D01*
X155299578Y-91793600D01*
X155331265Y-91884157D01*
X155331266Y-91884159D01*
X155409134Y-91989665D01*
X155514638Y-92067531D01*
X155638419Y-92110844D01*
X155655199Y-92112417D01*
X155655200Y-92112416D01*
X155655200Y-91793600D01*
X156155200Y-91793600D01*
X156155200Y-92112417D01*
X156171980Y-92110844D01*
X156295759Y-92067532D01*
X156338262Y-92036163D01*
X156403891Y-92012191D01*
X156472061Y-92027505D01*
X156521131Y-92077244D01*
X156535519Y-92145616D01*
X156528940Y-92176885D01*
X156526730Y-92183199D01*
X156526731Y-92183200D01*
X156874400Y-92183200D01*
X156874400Y-91847200D01*
X156894085Y-91780161D01*
X156946889Y-91734406D01*
X156998400Y-91723200D01*
X157119000Y-91723200D01*
X157119000Y-91696000D01*
X156655200Y-91696000D01*
X156644225Y-91706974D01*
X156635515Y-91736639D01*
X156582711Y-91782394D01*
X156531200Y-91793600D01*
X156155200Y-91793600D01*
X155655200Y-91793600D01*
X155299578Y-91793600D01*
X152954500Y-91793600D01*
X152954500Y-91293599D01*
X155299578Y-91293599D01*
X155299578Y-91293600D01*
X156189000Y-91293600D01*
X156199974Y-91282625D01*
X156208685Y-91252961D01*
X156261489Y-91207206D01*
X156313000Y-91196000D01*
X158404499Y-91196000D01*
X158403237Y-91188029D01*
X158403236Y-91188026D01*
X158342118Y-91068077D01*
X158340895Y-91066394D01*
X158340041Y-91064002D01*
X158337688Y-91059383D01*
X158338285Y-91059078D01*
X158317417Y-91000587D01*
X158329815Y-90939050D01*
X158358865Y-90879627D01*
X158358864Y-90879627D01*
X158358866Y-90879625D01*
X158369500Y-90806636D01*
X158369500Y-90539700D01*
X158389185Y-90472661D01*
X158441989Y-90426906D01*
X158493500Y-90415700D01*
X158644672Y-90415700D01*
X158644675Y-90415700D01*
X158784685Y-90378184D01*
X158910215Y-90305709D01*
X159012709Y-90203215D01*
X159085184Y-90077685D01*
X159122700Y-89937675D01*
X159122700Y-89792725D01*
X159122700Y-89787261D01*
X159142385Y-89720222D01*
X159195189Y-89674467D01*
X159214600Y-89667488D01*
X159216485Y-89666984D01*
X159342015Y-89594509D01*
X159444509Y-89492015D01*
X159516984Y-89366485D01*
X159554500Y-89226475D01*
X159554500Y-89081525D01*
X159516984Y-88941515D01*
X159513515Y-88935507D01*
X159444511Y-88815988D01*
X159444506Y-88815982D01*
X159342017Y-88713493D01*
X159342011Y-88713488D01*
X159216488Y-88641017D01*
X159216489Y-88641017D01*
X159205006Y-88637940D01*
X159076475Y-88603500D01*
X158931525Y-88603500D01*
X158802993Y-88637940D01*
X158791511Y-88641017D01*
X158682619Y-88703887D01*
X158667130Y-88708037D01*
X158655554Y-88715477D01*
X158620619Y-88720500D01*
X158439754Y-88720500D01*
X158372715Y-88700815D01*
X158326960Y-88648011D01*
X158317016Y-88578853D01*
X158328353Y-88542040D01*
X158332728Y-88533091D01*
X158358866Y-88479625D01*
X158369500Y-88406636D01*
X158369500Y-88085364D01*
X158358866Y-88012375D01*
X158304153Y-87900459D01*
X158292394Y-87831588D01*
X158304154Y-87791540D01*
X158358866Y-87679625D01*
X158369500Y-87606636D01*
X158369500Y-87285364D01*
X158358866Y-87212375D01*
X158304153Y-87100459D01*
X158292394Y-87031588D01*
X158304154Y-86991540D01*
X158358866Y-86879625D01*
X158369500Y-86806636D01*
X158369500Y-86485364D01*
X158358866Y-86412375D01*
X158304153Y-86300459D01*
X158292394Y-86231588D01*
X158304154Y-86191540D01*
X158358866Y-86079625D01*
X158369500Y-86006636D01*
X158369500Y-85685364D01*
X158358866Y-85612375D01*
X158358865Y-85612373D01*
X158357477Y-85602845D01*
X158360250Y-85602440D01*
X158359477Y-85547684D01*
X158396418Y-85488379D01*
X158459558Y-85458460D01*
X158500565Y-85461392D01*
X158500845Y-85459477D01*
X158510373Y-85460865D01*
X158510375Y-85460866D01*
X158583364Y-85471500D01*
X158583370Y-85471500D01*
X158904630Y-85471500D01*
X158904636Y-85471500D01*
X158977625Y-85460866D01*
X159089540Y-85406153D01*
X159158412Y-85394394D01*
X159198458Y-85406153D01*
X159257504Y-85435019D01*
X159310372Y-85460865D01*
X159310373Y-85460865D01*
X159310375Y-85460866D01*
X159383364Y-85471500D01*
X159383370Y-85471500D01*
X159704630Y-85471500D01*
X159704636Y-85471500D01*
X159777625Y-85460866D01*
X159889540Y-85406153D01*
X159958412Y-85394394D01*
X159998458Y-85406153D01*
X160057504Y-85435019D01*
X160110372Y-85460865D01*
X160110373Y-85460865D01*
X160110375Y-85460866D01*
X160183364Y-85471500D01*
X160183370Y-85471500D01*
X160504630Y-85471500D01*
X160504636Y-85471500D01*
X160577625Y-85460866D01*
X160689540Y-85406153D01*
X160758412Y-85394394D01*
X160798458Y-85406153D01*
X160857504Y-85435019D01*
X160910372Y-85460865D01*
X160910373Y-85460865D01*
X160910375Y-85460866D01*
X160983364Y-85471500D01*
X160983370Y-85471500D01*
X161304630Y-85471500D01*
X161304636Y-85471500D01*
X161377625Y-85460866D01*
X161489540Y-85406153D01*
X161558412Y-85394394D01*
X161598458Y-85406153D01*
X161657504Y-85435019D01*
X161710372Y-85460865D01*
X161710373Y-85460865D01*
X161710375Y-85460866D01*
X161783364Y-85471500D01*
X161783370Y-85471500D01*
X162104630Y-85471500D01*
X162104636Y-85471500D01*
X162177625Y-85460866D01*
X162289540Y-85406153D01*
X162358412Y-85394394D01*
X162398458Y-85406153D01*
X162457504Y-85435019D01*
X162510372Y-85460865D01*
X162510373Y-85460865D01*
X162510375Y-85460866D01*
X162583364Y-85471500D01*
X162583370Y-85471500D01*
X162904630Y-85471500D01*
X162904636Y-85471500D01*
X162977625Y-85460866D01*
X163089540Y-85406153D01*
X163158412Y-85394394D01*
X163198458Y-85406153D01*
X163257504Y-85435019D01*
X163310372Y-85460865D01*
X163310373Y-85460865D01*
X163310375Y-85460866D01*
X163383364Y-85471500D01*
X163383370Y-85471500D01*
X163542455Y-85471500D01*
X163609494Y-85491185D01*
X163655249Y-85543989D01*
X163665193Y-85613147D01*
X163636168Y-85676703D01*
X163630136Y-85683181D01*
X163041531Y-86271786D01*
X163041529Y-86271789D01*
X163004537Y-86335863D01*
X163004535Y-86335865D01*
X162995387Y-86351709D01*
X162995386Y-86351711D01*
X162995386Y-86351712D01*
X162972085Y-86438674D01*
X162971500Y-86440856D01*
X162971500Y-89563614D01*
X162951815Y-89630653D01*
X162935181Y-89651295D01*
X162881493Y-89704982D01*
X162881488Y-89704988D01*
X162809017Y-89830511D01*
X162809016Y-89830515D01*
X162771500Y-89970525D01*
X162771500Y-89970527D01*
X162771500Y-90046456D01*
X162751815Y-90113495D01*
X162735181Y-90134137D01*
X161562137Y-91307181D01*
X161500814Y-91340666D01*
X161474456Y-91343500D01*
X158957856Y-91343500D01*
X158875750Y-91365500D01*
X158875749Y-91365500D01*
X158868713Y-91367384D01*
X158868713Y-91367385D01*
X158788791Y-91413527D01*
X158788786Y-91413531D01*
X158542637Y-91659681D01*
X158481314Y-91693166D01*
X158454956Y-91696000D01*
X157619000Y-91696000D01*
X157619000Y-92002000D01*
X157599315Y-92069039D01*
X157546511Y-92114794D01*
X157495000Y-92126000D01*
X157374400Y-92126000D01*
X157374400Y-92183200D01*
X157722068Y-92183200D01*
X157714284Y-92160953D01*
X157710723Y-92091175D01*
X157745452Y-92030547D01*
X157807445Y-91998320D01*
X157831326Y-91995999D01*
X158027454Y-91995999D01*
X158106725Y-91983444D01*
X158176019Y-91992399D01*
X158229471Y-92037395D01*
X158250110Y-92104147D01*
X158248828Y-92123792D01*
X158246697Y-92138417D01*
X158243918Y-92157500D01*
X158243500Y-92160367D01*
X158243500Y-92371500D01*
X158223815Y-92438539D01*
X158171011Y-92484294D01*
X158119500Y-92495500D01*
X157653747Y-92495500D01*
X157570959Y-92517682D01*
X157496738Y-92560535D01*
X157496735Y-92560537D01*
X157410392Y-92646881D01*
X157349069Y-92680366D01*
X157322711Y-92683200D01*
X156526732Y-92683200D01*
X156560996Y-92781122D01*
X156631891Y-92877181D01*
X156655862Y-92942810D01*
X156640547Y-93010980D01*
X156635570Y-93018789D01*
X156578381Y-93131027D01*
X156578381Y-93131028D01*
X156563900Y-93222464D01*
X156563900Y-93563939D01*
X156578381Y-93655370D01*
X156578381Y-93655371D01*
X156578382Y-93655374D01*
X156578383Y-93655375D01*
X156633201Y-93762962D01*
X156634542Y-93765592D01*
X156634545Y-93765596D01*
X156722003Y-93853054D01*
X156722005Y-93853055D01*
X156722009Y-93853059D01*
X156832225Y-93909217D01*
X156832226Y-93909217D01*
X156832228Y-93909218D01*
X156867347Y-93914779D01*
X156923665Y-93923700D01*
X157325134Y-93923699D01*
X157325139Y-93923699D01*
X157325139Y-93923698D01*
X157370854Y-93916458D01*
X157416570Y-93909218D01*
X157416571Y-93909218D01*
X157416572Y-93909217D01*
X157416575Y-93909217D01*
X157526791Y-93853059D01*
X157614259Y-93765591D01*
X157670417Y-93655375D01*
X157670417Y-93655373D01*
X157670418Y-93655372D01*
X157670418Y-93655371D01*
X157674301Y-93630850D01*
X157684900Y-93563935D01*
X157684899Y-93344390D01*
X157693543Y-93314948D01*
X157700067Y-93284962D01*
X157703820Y-93279948D01*
X157704583Y-93277351D01*
X157721218Y-93256708D01*
X157795109Y-93182818D01*
X157856433Y-93149334D01*
X157882790Y-93146500D01*
X158119500Y-93146500D01*
X158186539Y-93166185D01*
X158232294Y-93218989D01*
X158243500Y-93270500D01*
X158243500Y-93481636D01*
X158254134Y-93554625D01*
X158254134Y-93554626D01*
X158254135Y-93554628D01*
X158309172Y-93667210D01*
X158397789Y-93755827D01*
X158493661Y-93802695D01*
X158510375Y-93810866D01*
X158583364Y-93821500D01*
X158583370Y-93821500D01*
X158904630Y-93821500D01*
X158904636Y-93821500D01*
X158977625Y-93810866D01*
X159040041Y-93780352D01*
X159108911Y-93768593D01*
X159173209Y-93795936D01*
X159212517Y-93853700D01*
X159218500Y-93891753D01*
X159218500Y-95493290D01*
X159214490Y-95506943D01*
X159215330Y-95521149D01*
X159204842Y-95539801D01*
X159198815Y-95560329D01*
X159187398Y-95570827D01*
X159181087Y-95582052D01*
X159154303Y-95601258D01*
X159152572Y-95602851D01*
X159151685Y-95603320D01*
X159111609Y-95623741D01*
X159109859Y-95625490D01*
X159099688Y-95630882D01*
X159073685Y-95636201D01*
X159048681Y-95645120D01*
X159039984Y-95643096D01*
X159031237Y-95644886D01*
X159006480Y-95635301D01*
X158980629Y-95629286D01*
X158967982Y-95621091D01*
X158871920Y-95550194D01*
X158774000Y-95515930D01*
X158774000Y-95989600D01*
X158754315Y-96056639D01*
X158701511Y-96102394D01*
X158650000Y-96113600D01*
X158524000Y-96113600D01*
X158524000Y-96239600D01*
X158504315Y-96306639D01*
X158451511Y-96352394D01*
X158400000Y-96363600D01*
X157946532Y-96363600D01*
X157946787Y-96366329D01*
X157990595Y-96491521D01*
X157990595Y-96491522D01*
X157996988Y-96500184D01*
X158020959Y-96565813D01*
X158005643Y-96633983D01*
X157993359Y-96650277D01*
X157932433Y-96741460D01*
X157932432Y-96741464D01*
X157917900Y-96814521D01*
X157917900Y-98663878D01*
X157932432Y-98736935D01*
X157932433Y-98736939D01*
X157944835Y-98755500D01*
X157987799Y-98819801D01*
X158070247Y-98874890D01*
X158070660Y-98875166D01*
X158070664Y-98875167D01*
X158143721Y-98889699D01*
X158143724Y-98889700D01*
X158143726Y-98889700D01*
X159193076Y-98889700D01*
X159193077Y-98889699D01*
X159266140Y-98875166D01*
X159349001Y-98819801D01*
X159404366Y-98736940D01*
X159418900Y-98663874D01*
X159418900Y-97099387D01*
X159438585Y-97032348D01*
X159455215Y-97011710D01*
X159683859Y-96783066D01*
X159683862Y-96783065D01*
X159744465Y-96722462D01*
X159781596Y-96658148D01*
X159787618Y-96650674D01*
X159808744Y-96636001D01*
X159827359Y-96618253D01*
X159827884Y-96617984D01*
X159828494Y-96617672D01*
X159856391Y-96603459D01*
X159856392Y-96603457D01*
X159862103Y-96600548D01*
X159930772Y-96587651D01*
X159974694Y-96600547D01*
X160008914Y-96617983D01*
X160059710Y-96665958D01*
X160060006Y-96666467D01*
X160092335Y-96722462D01*
X160092336Y-96722463D01*
X160092337Y-96722464D01*
X160381581Y-97011707D01*
X160415066Y-97073030D01*
X160417900Y-97099388D01*
X160417900Y-98663878D01*
X160432432Y-98736935D01*
X160432433Y-98736939D01*
X160444835Y-98755500D01*
X160487799Y-98819801D01*
X160570247Y-98874890D01*
X160570660Y-98875166D01*
X160570664Y-98875167D01*
X160643721Y-98889699D01*
X160643724Y-98889700D01*
X160643726Y-98889700D01*
X161693076Y-98889700D01*
X161693077Y-98889699D01*
X161766140Y-98875166D01*
X161849001Y-98819801D01*
X161904366Y-98736940D01*
X161918900Y-98663874D01*
X161918900Y-96814526D01*
X161918900Y-96814523D01*
X161918899Y-96814521D01*
X161904367Y-96741464D01*
X161904366Y-96741460D01*
X161887638Y-96716425D01*
X161849001Y-96658599D01*
X161848999Y-96658598D01*
X161842215Y-96648444D01*
X161844088Y-96647192D01*
X161818415Y-96600175D01*
X161823399Y-96530483D01*
X161839813Y-96500180D01*
X161846206Y-96491518D01*
X161890012Y-96366327D01*
X161890013Y-96366325D01*
X161890269Y-96363600D01*
X161436800Y-96363600D01*
X161369761Y-96343915D01*
X161324006Y-96291111D01*
X161312800Y-96239600D01*
X161312800Y-96113600D01*
X161186800Y-96113600D01*
X161119761Y-96093915D01*
X161074006Y-96041111D01*
X161062800Y-95989600D01*
X161062800Y-95932000D01*
X161011600Y-95932000D01*
X160944561Y-95912315D01*
X160902349Y-95863600D01*
X161562800Y-95863600D01*
X161852800Y-95863600D01*
X161852800Y-95472000D01*
X161562800Y-95472000D01*
X161562800Y-95863600D01*
X160902349Y-95863600D01*
X160898806Y-95859511D01*
X160887600Y-95808000D01*
X160887600Y-95346000D01*
X160907285Y-95278961D01*
X160960089Y-95233206D01*
X161011600Y-95222000D01*
X161137600Y-95222000D01*
X161137600Y-95096000D01*
X161157285Y-95028961D01*
X161210089Y-94983206D01*
X161261600Y-94972000D01*
X162700468Y-94972000D01*
X162666203Y-94874077D01*
X162595308Y-94778018D01*
X162571337Y-94712389D01*
X162585065Y-94647172D01*
X162590685Y-94636364D01*
X162592659Y-94634391D01*
X162638546Y-94544331D01*
X162638716Y-94544006D01*
X162662590Y-94519145D01*
X162686218Y-94494127D01*
X162686739Y-94493997D01*
X162687111Y-94493611D01*
X162720610Y-94485610D01*
X162754039Y-94477332D01*
X162754546Y-94477504D01*
X162755070Y-94477380D01*
X162787609Y-94488771D01*
X162820174Y-94499869D01*
X162820791Y-94500388D01*
X162821015Y-94500467D01*
X162821265Y-94500787D01*
X162836410Y-94513537D01*
X163220067Y-94897194D01*
X163253552Y-94958517D01*
X163248568Y-95028209D01*
X163206696Y-95084142D01*
X163155555Y-95104973D01*
X163155776Y-95105797D01*
X163149220Y-95107553D01*
X163148586Y-95107812D01*
X163147936Y-95107897D01*
X163007911Y-95145417D01*
X162882388Y-95217888D01*
X162882382Y-95217893D01*
X162779893Y-95320382D01*
X162779889Y-95320388D01*
X162742744Y-95384725D01*
X162715127Y-95417660D01*
X162685047Y-95442935D01*
X162655172Y-95456033D01*
X162625838Y-95470283D01*
X162621930Y-95470609D01*
X162621058Y-95470992D01*
X162619782Y-95470788D01*
X162605277Y-95472000D01*
X162352800Y-95472000D01*
X162352800Y-95799467D01*
X162355529Y-95799212D01*
X162480718Y-95755406D01*
X162497814Y-95742788D01*
X162563442Y-95718815D01*
X162631613Y-95734128D01*
X162680683Y-95783867D01*
X162691224Y-95810458D01*
X162704570Y-95860262D01*
X162707417Y-95870888D01*
X162779888Y-95996411D01*
X162779890Y-95996413D01*
X162779891Y-95996415D01*
X162882385Y-96098909D01*
X162882386Y-96098910D01*
X162882388Y-96098911D01*
X163007911Y-96171382D01*
X163007912Y-96171382D01*
X163007915Y-96171384D01*
X163147925Y-96208900D01*
X163147928Y-96208900D01*
X163183500Y-96208900D01*
X163250539Y-96228585D01*
X163296294Y-96281389D01*
X163307500Y-96332900D01*
X163307500Y-96487582D01*
X163318418Y-96562518D01*
X163318418Y-96562519D01*
X163318419Y-96562521D01*
X163374921Y-96678099D01*
X163374923Y-96678102D01*
X163442281Y-96745460D01*
X163456984Y-96772387D01*
X163473577Y-96798206D01*
X163474468Y-96804406D01*
X163475766Y-96806783D01*
X163478600Y-96833141D01*
X163478600Y-96844435D01*
X163458915Y-96911474D01*
X163442281Y-96932116D01*
X163436000Y-96938396D01*
X163380634Y-97021260D01*
X163380632Y-97021264D01*
X163366100Y-97094321D01*
X163366100Y-97493677D01*
X163371298Y-97519813D01*
X163371298Y-97568187D01*
X163366100Y-97594322D01*
X163366100Y-97993677D01*
X163371298Y-98019813D01*
X163373189Y-98055020D01*
X163372595Y-98061667D01*
X163366100Y-98094326D01*
X163366100Y-98134472D01*
X163365609Y-98139976D01*
X163354764Y-98167560D01*
X163346415Y-98195995D01*
X163342123Y-98199713D01*
X163340045Y-98205001D01*
X163316001Y-98222348D01*
X163293611Y-98241750D01*
X163287990Y-98242558D01*
X163283384Y-98245882D01*
X163253786Y-98247476D01*
X163224453Y-98251694D01*
X163214267Y-98249604D01*
X163213615Y-98249640D01*
X163213150Y-98249375D01*
X163210007Y-98248731D01*
X163175860Y-98239581D01*
X163140475Y-98230100D01*
X162995525Y-98230100D01*
X162866993Y-98264540D01*
X162855511Y-98267617D01*
X162729988Y-98340088D01*
X162729982Y-98340093D01*
X162627493Y-98442582D01*
X162627488Y-98442588D01*
X162555017Y-98568111D01*
X162555016Y-98568115D01*
X162517500Y-98708125D01*
X162517500Y-98853075D01*
X162551865Y-98981326D01*
X162555017Y-98993088D01*
X162627488Y-99118611D01*
X162627490Y-99118613D01*
X162627491Y-99118615D01*
X162729985Y-99221109D01*
X162729986Y-99221110D01*
X162729988Y-99221111D01*
X162855511Y-99293582D01*
X162855512Y-99293582D01*
X162855515Y-99293584D01*
X162995525Y-99331100D01*
X162995528Y-99331100D01*
X163050132Y-99331100D01*
X163117171Y-99350785D01*
X163162926Y-99403589D01*
X163172870Y-99472747D01*
X163168606Y-99491704D01*
X163166019Y-99500075D01*
X163166018Y-99500082D01*
X163155100Y-99575018D01*
X163155100Y-100018182D01*
X163166018Y-100093118D01*
X163166018Y-100093119D01*
X163166019Y-100093121D01*
X163222521Y-100208699D01*
X163222523Y-100208702D01*
X163313497Y-100299676D01*
X163313500Y-100299678D01*
X163414970Y-100349283D01*
X163429082Y-100356182D01*
X163504018Y-100367100D01*
X163504023Y-100367100D01*
X163847177Y-100367100D01*
X163847182Y-100367100D01*
X163922118Y-100356182D01*
X163937990Y-100348422D01*
X163964640Y-100335395D01*
X164033513Y-100323635D01*
X164097810Y-100350979D01*
X164137117Y-100408743D01*
X164143100Y-100446795D01*
X164143100Y-100580275D01*
X164180013Y-100718033D01*
X164180617Y-100720288D01*
X164253088Y-100845811D01*
X164253090Y-100845813D01*
X164253091Y-100845815D01*
X164355585Y-100948309D01*
X164355586Y-100948310D01*
X164355588Y-100948311D01*
X164481111Y-101020782D01*
X164481112Y-101020782D01*
X164481115Y-101020784D01*
X164621125Y-101058300D01*
X164661701Y-101058300D01*
X164728740Y-101077985D01*
X164749382Y-101094619D01*
X165250181Y-101595418D01*
X165264884Y-101622345D01*
X165281477Y-101648164D01*
X165282368Y-101654364D01*
X165283666Y-101656741D01*
X165286500Y-101683099D01*
X165286500Y-101753500D01*
X165266815Y-101820539D01*
X165214011Y-101866294D01*
X165162500Y-101877500D01*
X164180482Y-101877500D01*
X164099519Y-101890323D01*
X164086696Y-101892354D01*
X163973658Y-101949950D01*
X163973657Y-101949951D01*
X163973652Y-101949954D01*
X163883954Y-102039652D01*
X163883951Y-102039657D01*
X163883950Y-102039658D01*
X163870011Y-102067014D01*
X163826352Y-102152698D01*
X163811500Y-102246475D01*
X163811500Y-102609517D01*
X163826355Y-102703309D01*
X163827298Y-102706211D01*
X163827404Y-102709933D01*
X163827881Y-102712943D01*
X163827492Y-102713004D01*
X163829293Y-102776052D01*
X163793212Y-102835885D01*
X163730511Y-102866712D01*
X163668412Y-102861569D01*
X163574727Y-102828787D01*
X163574725Y-102828786D01*
X163572000Y-102828530D01*
X163572000Y-103156000D01*
X163919668Y-103156000D01*
X163903614Y-103110120D01*
X163900053Y-103040341D01*
X163934782Y-102979713D01*
X163996775Y-102947486D01*
X164066351Y-102953891D01*
X164076949Y-102958679D01*
X164086696Y-102963646D01*
X164086697Y-102963646D01*
X164086698Y-102963647D01*
X164180475Y-102978499D01*
X164180481Y-102978500D01*
X165162500Y-102978499D01*
X165229539Y-102998183D01*
X165275294Y-103050987D01*
X165286500Y-103102499D01*
X165286500Y-103523500D01*
X165277855Y-103552940D01*
X165271332Y-103582927D01*
X165267577Y-103587942D01*
X165266815Y-103590539D01*
X165250181Y-103611181D01*
X165120181Y-103741181D01*
X165058858Y-103774666D01*
X165032500Y-103777500D01*
X164180482Y-103777500D01*
X164086693Y-103792354D01*
X164082424Y-103793742D01*
X164012582Y-103795736D01*
X163952750Y-103759654D01*
X163921924Y-103696952D01*
X163924725Y-103663126D01*
X163919669Y-103656000D01*
X162724332Y-103656000D01*
X162758596Y-103753922D01*
X162829491Y-103849981D01*
X162835711Y-103867012D01*
X162846406Y-103881655D01*
X162847449Y-103899150D01*
X162853462Y-103915610D01*
X162849487Y-103933299D01*
X162850568Y-103951401D01*
X162840402Y-103973739D01*
X162838147Y-103983780D01*
X162837845Y-103984322D01*
X162833257Y-103992492D01*
X162832141Y-103993609D01*
X162827335Y-104003040D01*
X162826119Y-104005207D01*
X162802835Y-104027947D01*
X162780504Y-104051592D01*
X162777906Y-104052294D01*
X162776134Y-104054026D01*
X162756956Y-104057961D01*
X162717995Y-104068500D01*
X162422405Y-104068500D01*
X162355366Y-104048815D01*
X162319304Y-104013392D01*
X162253951Y-103915584D01*
X162253949Y-103915581D01*
X162149419Y-103811051D01*
X162149415Y-103811048D01*
X162026501Y-103728919D01*
X162026488Y-103728912D01*
X161889917Y-103672343D01*
X161889907Y-103672340D01*
X161744920Y-103643500D01*
X161744918Y-103643500D01*
X161597082Y-103643500D01*
X161597080Y-103643500D01*
X161452092Y-103672340D01*
X161452082Y-103672343D01*
X161315511Y-103728912D01*
X161315498Y-103728919D01*
X161192584Y-103811048D01*
X161192580Y-103811051D01*
X161088051Y-103915580D01*
X161088048Y-103915584D01*
X161005919Y-104038498D01*
X161005912Y-104038511D01*
X160949343Y-104175082D01*
X160949340Y-104175092D01*
X160920500Y-104320079D01*
X160920500Y-104320082D01*
X160920500Y-104467918D01*
X160920500Y-104467920D01*
X160920499Y-104467920D01*
X160949340Y-104612907D01*
X160949343Y-104612917D01*
X161005912Y-104749488D01*
X161005919Y-104749501D01*
X161088048Y-104872415D01*
X161088051Y-104872419D01*
X161192580Y-104976948D01*
X161192584Y-104976951D01*
X161315498Y-105059080D01*
X161315511Y-105059087D01*
X161452082Y-105115656D01*
X161452087Y-105115658D01*
X161452091Y-105115658D01*
X161452092Y-105115659D01*
X161597079Y-105144500D01*
X161597082Y-105144500D01*
X161744920Y-105144500D01*
X161842462Y-105125096D01*
X161889913Y-105115658D01*
X162026495Y-105059084D01*
X162149416Y-104976951D01*
X162253951Y-104872416D01*
X162319303Y-104774608D01*
X162372914Y-104729804D01*
X162422405Y-104719500D01*
X162761888Y-104719500D01*
X162828927Y-104739185D01*
X162849564Y-104755814D01*
X162919609Y-104825859D01*
X163029825Y-104882017D01*
X163029826Y-104882017D01*
X163029828Y-104882018D01*
X163064947Y-104887579D01*
X163121265Y-104896500D01*
X163522734Y-104896499D01*
X163522739Y-104896499D01*
X163522739Y-104896498D01*
X163568454Y-104889258D01*
X163614170Y-104882018D01*
X163614171Y-104882018D01*
X163614172Y-104882017D01*
X163614175Y-104882017D01*
X163724391Y-104825859D01*
X163771249Y-104779000D01*
X163832568Y-104745517D01*
X163902259Y-104750500D01*
X163946609Y-104779002D01*
X163973652Y-104806045D01*
X163973654Y-104806046D01*
X163973658Y-104806050D01*
X164082794Y-104861658D01*
X164086698Y-104863647D01*
X164180475Y-104878499D01*
X164180481Y-104878500D01*
X165268518Y-104878499D01*
X165362304Y-104863646D01*
X165475342Y-104806050D01*
X165565050Y-104716342D01*
X165622646Y-104603304D01*
X165622646Y-104603302D01*
X165622647Y-104603301D01*
X165636869Y-104513500D01*
X165637500Y-104509519D01*
X165637499Y-104337298D01*
X165646144Y-104307853D01*
X165652667Y-104277871D01*
X165656419Y-104272857D01*
X165657183Y-104270259D01*
X165673813Y-104249622D01*
X165784276Y-104139160D01*
X165845596Y-104105677D01*
X165915288Y-104110661D01*
X165959635Y-104139162D01*
X166050181Y-104229708D01*
X166083666Y-104291031D01*
X166086500Y-104317388D01*
X166086500Y-104509517D01*
X166092698Y-104548647D01*
X166101354Y-104603304D01*
X166158950Y-104716342D01*
X166158952Y-104716344D01*
X166158954Y-104716347D01*
X166248652Y-104806045D01*
X166248654Y-104806046D01*
X166248658Y-104806050D01*
X166357794Y-104861658D01*
X166361698Y-104863647D01*
X166455475Y-104878499D01*
X166455481Y-104878500D01*
X167543518Y-104878499D01*
X167637304Y-104863646D01*
X167750342Y-104806050D01*
X167750347Y-104806045D01*
X167777390Y-104779003D01*
X167838713Y-104745518D01*
X167908405Y-104750502D01*
X167952752Y-104779003D01*
X167999603Y-104825854D01*
X167999605Y-104825855D01*
X167999609Y-104825859D01*
X168109825Y-104882017D01*
X168109826Y-104882017D01*
X168109828Y-104882018D01*
X168144947Y-104887579D01*
X168201265Y-104896500D01*
X168420809Y-104896499D01*
X168487849Y-104916183D01*
X168508491Y-104932818D01*
X168787452Y-105211778D01*
X169058533Y-105482859D01*
X169058535Y-105482862D01*
X169119138Y-105543465D01*
X169130478Y-105550012D01*
X169193361Y-105586318D01*
X169276147Y-105608500D01*
X169276149Y-105608500D01*
X202074451Y-105608500D01*
X202074453Y-105608500D01*
X202157239Y-105586318D01*
X202231462Y-105543465D01*
X202873440Y-104901485D01*
X202876346Y-104899898D01*
X202878083Y-104897076D01*
X202906802Y-104883268D01*
X202934761Y-104868002D01*
X202938954Y-104867810D01*
X202941053Y-104866802D01*
X202955656Y-104867049D01*
X202976340Y-104866106D01*
X202980856Y-104866664D01*
X203100682Y-104890500D01*
X203173561Y-104890500D01*
X203181145Y-104891438D01*
X203206476Y-104902407D01*
X203232963Y-104910185D01*
X203242867Y-104918166D01*
X203245261Y-104919203D01*
X203246564Y-104921145D01*
X203253605Y-104926819D01*
X203790286Y-105463500D01*
X203904414Y-105529392D01*
X204031707Y-105563500D01*
X204031708Y-105563500D01*
X204904555Y-105563500D01*
X204959016Y-105576100D01*
X205014488Y-105603219D01*
X205014489Y-105603219D01*
X205014491Y-105603220D01*
X205085051Y-105613500D01*
X205378948Y-105613499D01*
X205378950Y-105613499D01*
X205413264Y-105608500D01*
X205449509Y-105603220D01*
X205558347Y-105550012D01*
X205608539Y-105499820D01*
X205669862Y-105466334D01*
X205696221Y-105463500D01*
X206403948Y-105463500D01*
X206460242Y-105477015D01*
X206502698Y-105498647D01*
X206596475Y-105513499D01*
X206596481Y-105513500D01*
X207834518Y-105513499D01*
X207928304Y-105498646D01*
X208041342Y-105441050D01*
X208131050Y-105351342D01*
X208188646Y-105238304D01*
X208188646Y-105238302D01*
X208188647Y-105238301D01*
X208203499Y-105144524D01*
X208203500Y-105144519D01*
X208203499Y-104781482D01*
X208188646Y-104687696D01*
X208188645Y-104687694D01*
X208187119Y-104678057D01*
X208189142Y-104677736D01*
X208187506Y-104620494D01*
X208223584Y-104560660D01*
X208286284Y-104529830D01*
X208355698Y-104537792D01*
X208363708Y-104541519D01*
X208377696Y-104548646D01*
X208377698Y-104548646D01*
X208377700Y-104548647D01*
X208377698Y-104548647D01*
X208471475Y-104563499D01*
X208471481Y-104563500D01*
X209709518Y-104563499D01*
X209803304Y-104548646D01*
X209845757Y-104527014D01*
X209902052Y-104513500D01*
X212254690Y-104513500D01*
X212254692Y-104513500D01*
X212381986Y-104479392D01*
X212496114Y-104413500D01*
X213023912Y-103885702D01*
X214871000Y-103885702D01*
X214881131Y-103970067D01*
X214881131Y-103970068D01*
X214934077Y-104104329D01*
X215021278Y-104219321D01*
X215136270Y-104306522D01*
X215270532Y-104359468D01*
X215354898Y-104369600D01*
X215396000Y-104369600D01*
X215896000Y-104369600D01*
X215937102Y-104369600D01*
X216021467Y-104359468D01*
X216021468Y-104359468D01*
X216155729Y-104306522D01*
X216270721Y-104219321D01*
X216357922Y-104104329D01*
X216410868Y-103970068D01*
X216410868Y-103970067D01*
X216421000Y-103885702D01*
X216421000Y-103869600D01*
X215896000Y-103869600D01*
X215896000Y-104369600D01*
X215396000Y-104369600D01*
X215396000Y-103869600D01*
X214871000Y-103869600D01*
X214871000Y-103885702D01*
X213023912Y-103885702D01*
X214303195Y-102606419D01*
X214364518Y-102572934D01*
X214390876Y-102570100D01*
X214946193Y-102570100D01*
X215013232Y-102589785D01*
X215025660Y-102598911D01*
X215036780Y-102608194D01*
X215056313Y-102634287D01*
X215165774Y-102716228D01*
X215166519Y-102716506D01*
X215172293Y-102721326D01*
X215189957Y-102747732D01*
X215209008Y-102773181D01*
X215209250Y-102776574D01*
X215211141Y-102779400D01*
X215211724Y-102811172D01*
X215213992Y-102842872D01*
X215212362Y-102845856D01*
X215212425Y-102849258D01*
X215195736Y-102876305D01*
X215180508Y-102904196D01*
X215177182Y-102906377D01*
X215175737Y-102908720D01*
X215167852Y-102912497D01*
X215143600Y-102928405D01*
X215143665Y-102928520D01*
X215141991Y-102929460D01*
X215138325Y-102931866D01*
X215136277Y-102932673D01*
X215136270Y-102932677D01*
X215021278Y-103019878D01*
X214934077Y-103134870D01*
X214881131Y-103269131D01*
X214881131Y-103269132D01*
X214871000Y-103353497D01*
X214871000Y-103369600D01*
X216421000Y-103369600D01*
X216421000Y-103353497D01*
X216410868Y-103269132D01*
X216410868Y-103269131D01*
X216357922Y-103134870D01*
X216270721Y-103019878D01*
X216155729Y-102932677D01*
X216155720Y-102932672D01*
X216153678Y-102931867D01*
X216152089Y-102930631D01*
X216148335Y-102928520D01*
X216148652Y-102927956D01*
X216098536Y-102888959D01*
X216075345Y-102823050D01*
X216091469Y-102755066D01*
X216124863Y-102717248D01*
X216126226Y-102716228D01*
X216235687Y-102634287D01*
X216317628Y-102524826D01*
X216365412Y-102396714D01*
X216368608Y-102366984D01*
X216371499Y-102340101D01*
X216371499Y-102340094D01*
X216371500Y-102340085D01*
X216371499Y-101799116D01*
X216365412Y-101742486D01*
X216360755Y-101730001D01*
X216343261Y-101683099D01*
X216317628Y-101614374D01*
X216235687Y-101504913D01*
X216197403Y-101476254D01*
X216155533Y-101420321D01*
X216150549Y-101350629D01*
X216184034Y-101289306D01*
X216196791Y-101278183D01*
X216270721Y-101222120D01*
X216357922Y-101107129D01*
X216410868Y-100972868D01*
X216410868Y-100972867D01*
X216421000Y-100888502D01*
X216421000Y-100872400D01*
X215770000Y-100872400D01*
X215702961Y-100852715D01*
X215657206Y-100799911D01*
X215646000Y-100748400D01*
X215646000Y-100496400D01*
X215665685Y-100429361D01*
X215718489Y-100383606D01*
X215770000Y-100372400D01*
X216421000Y-100372400D01*
X216421000Y-100356297D01*
X216410868Y-100271932D01*
X216410868Y-100271931D01*
X216357922Y-100137670D01*
X216270721Y-100022678D01*
X216155729Y-99935477D01*
X216155720Y-99935472D01*
X216153678Y-99934667D01*
X216152089Y-99933431D01*
X216148335Y-99931320D01*
X216148652Y-99930756D01*
X216098536Y-99891759D01*
X216075345Y-99825850D01*
X216091469Y-99757866D01*
X216124863Y-99720048D01*
X216126226Y-99719028D01*
X216235687Y-99637087D01*
X216317628Y-99527626D01*
X216365412Y-99399514D01*
X216368205Y-99373535D01*
X216371499Y-99342901D01*
X216371499Y-99342894D01*
X216371500Y-99342885D01*
X216371499Y-98801916D01*
X216365412Y-98745286D01*
X216363751Y-98740834D01*
X216339524Y-98675879D01*
X216317628Y-98617174D01*
X216235687Y-98507713D01*
X216148682Y-98442582D01*
X216126228Y-98425773D01*
X216126226Y-98425772D01*
X215998114Y-98377988D01*
X215998112Y-98377987D01*
X215998110Y-98377987D01*
X215941493Y-98371900D01*
X215350518Y-98371900D01*
X215350509Y-98371901D01*
X215293885Y-98377987D01*
X215165771Y-98425773D01*
X215165770Y-98425773D01*
X215056318Y-98507707D01*
X215056312Y-98507713D01*
X215045459Y-98522212D01*
X215041803Y-98524948D01*
X215039906Y-98529103D01*
X215014089Y-98545694D01*
X214989524Y-98564083D01*
X214983895Y-98565098D01*
X214981128Y-98566877D01*
X214946193Y-98571900D01*
X214806699Y-98571900D01*
X214739660Y-98552215D01*
X214693905Y-98499411D01*
X214682699Y-98447900D01*
X214682699Y-98140482D01*
X214678794Y-98115826D01*
X214667846Y-98046696D01*
X214610250Y-97933658D01*
X214610246Y-97933654D01*
X214610245Y-97933652D01*
X214544019Y-97867426D01*
X214510534Y-97806103D01*
X214507700Y-97779745D01*
X214507700Y-95728765D01*
X214507522Y-95728100D01*
X214506136Y-95722929D01*
X214498787Y-95695500D01*
X214482111Y-95633263D01*
X214440003Y-95560329D01*
X214432677Y-95547640D01*
X214432673Y-95547635D01*
X214417322Y-95532284D01*
X214383837Y-95470961D01*
X214387071Y-95406289D01*
X214433402Y-95263701D01*
X214460500Y-95092611D01*
X214460500Y-94919389D01*
X214433402Y-94748299D01*
X214387071Y-94605710D01*
X214385077Y-94535871D01*
X214417320Y-94479715D01*
X216302075Y-92594962D01*
X216351511Y-92509337D01*
X216377100Y-92413836D01*
X216377100Y-92314964D01*
X216377100Y-79706565D01*
X216351510Y-79611062D01*
X216302075Y-79525438D01*
X216232162Y-79455525D01*
X214200163Y-77423526D01*
X214200162Y-77423525D01*
X214132595Y-77384515D01*
X214114540Y-77374091D01*
X214114533Y-77374088D01*
X214061574Y-77359897D01*
X214061574Y-77359898D01*
X214019036Y-77348500D01*
X214019035Y-77348500D01*
X202930240Y-77348500D01*
X202863201Y-77328815D01*
X202842558Y-77312180D01*
X202799302Y-77268923D01*
X202799299Y-77268921D01*
X202683721Y-77212419D01*
X202683719Y-77212418D01*
X202683718Y-77212418D01*
X202608782Y-77201500D01*
X202165618Y-77201500D01*
X202090682Y-77212418D01*
X202090680Y-77212418D01*
X202090678Y-77212419D01*
X201975100Y-77268921D01*
X201975097Y-77268923D01*
X201884123Y-77359897D01*
X201884123Y-77359898D01*
X201827619Y-77475478D01*
X201827618Y-77475480D01*
X201827618Y-77475482D01*
X201816700Y-77550418D01*
X201816700Y-77550423D01*
X201816700Y-77680180D01*
X201797015Y-77747219D01*
X201744211Y-77792974D01*
X201675053Y-77802918D01*
X201638240Y-77791581D01*
X201587510Y-77766780D01*
X201577429Y-77765311D01*
X201516949Y-77756500D01*
X201516943Y-77756500D01*
X201073049Y-77756500D01*
X201002493Y-77766779D01*
X200893650Y-77819989D01*
X200807988Y-77905651D01*
X200754780Y-78014488D01*
X200754048Y-78019515D01*
X200744500Y-78085051D01*
X200744500Y-78085055D01*
X200744500Y-78085056D01*
X200744500Y-78378950D01*
X200754779Y-78449506D01*
X200754779Y-78449507D01*
X200754780Y-78449509D01*
X200775553Y-78492000D01*
X200807989Y-78558349D01*
X200893651Y-78644011D01*
X201002488Y-78697219D01*
X201002489Y-78697219D01*
X201002491Y-78697220D01*
X201073051Y-78707500D01*
X201516948Y-78707499D01*
X201516950Y-78707499D01*
X201545172Y-78703387D01*
X201587509Y-78697220D01*
X201696347Y-78644012D01*
X201696349Y-78644010D01*
X201696541Y-78643819D01*
X201696868Y-78643639D01*
X201704711Y-78638041D01*
X201705387Y-78638988D01*
X201719467Y-78631300D01*
X201740304Y-78615538D01*
X201752381Y-78613327D01*
X201757864Y-78610334D01*
X201774754Y-78607862D01*
X201779481Y-78607500D01*
X201827764Y-78607500D01*
X201926636Y-78607500D01*
X201974386Y-78594705D01*
X202022138Y-78581910D01*
X202107762Y-78532475D01*
X202111918Y-78528319D01*
X202173241Y-78494834D01*
X202199599Y-78492000D01*
X202992822Y-78492000D01*
X202992821Y-78491999D01*
X202961134Y-78401442D01*
X202961132Y-78401439D01*
X202884151Y-78297135D01*
X202860179Y-78231506D01*
X202875494Y-78163335D01*
X202925234Y-78114267D01*
X202983920Y-78099500D01*
X213762701Y-78099500D01*
X213829740Y-78119185D01*
X213850382Y-78135819D01*
X215589781Y-79875218D01*
X215623266Y-79936541D01*
X215626100Y-79962899D01*
X215626100Y-92157500D01*
X215606415Y-92224539D01*
X215589781Y-92245181D01*
X213886284Y-93948677D01*
X213824961Y-93982162D01*
X213760286Y-93978927D01*
X213617701Y-93932598D01*
X213617699Y-93932597D01*
X213617698Y-93932597D01*
X213486271Y-93911781D01*
X213446611Y-93905500D01*
X213273389Y-93905500D01*
X213233728Y-93911781D01*
X213102302Y-93932597D01*
X212937552Y-93986128D01*
X212783211Y-94064768D01*
X212732718Y-94101454D01*
X212643072Y-94166586D01*
X212643070Y-94166588D01*
X212643069Y-94166588D01*
X212520588Y-94289069D01*
X212520588Y-94289070D01*
X212520586Y-94289072D01*
X212483275Y-94340426D01*
X212418768Y-94429211D01*
X212340128Y-94583552D01*
X212286597Y-94748302D01*
X212282142Y-94776433D01*
X212259500Y-94919389D01*
X212259500Y-95092611D01*
X212261867Y-95107553D01*
X212279342Y-95217893D01*
X212286598Y-95263701D01*
X212340127Y-95428445D01*
X212418768Y-95582788D01*
X212520586Y-95722928D01*
X212643072Y-95845414D01*
X212783212Y-95947232D01*
X212937555Y-96025873D01*
X213102299Y-96079402D01*
X213273389Y-96106500D01*
X213273390Y-96106500D01*
X213446610Y-96106500D01*
X213446611Y-96106500D01*
X213613304Y-96080098D01*
X213682595Y-96089052D01*
X213736047Y-96134048D01*
X213756687Y-96200800D01*
X213756700Y-96202571D01*
X213756700Y-97190289D01*
X213737015Y-97257328D01*
X213684211Y-97303083D01*
X213615053Y-97313027D01*
X213551497Y-97284002D01*
X213525313Y-97252290D01*
X213482675Y-97178438D01*
X213412762Y-97108525D01*
X208683626Y-92379389D01*
X212259500Y-92379389D01*
X212259500Y-92552610D01*
X212284778Y-92712214D01*
X212286598Y-92723701D01*
X212340127Y-92888445D01*
X212418768Y-93042788D01*
X212520586Y-93182928D01*
X212643072Y-93305414D01*
X212783212Y-93407232D01*
X212937555Y-93485873D01*
X213102299Y-93539402D01*
X213273389Y-93566500D01*
X213273390Y-93566500D01*
X213446610Y-93566500D01*
X213446611Y-93566500D01*
X213617701Y-93539402D01*
X213782445Y-93485873D01*
X213936788Y-93407232D01*
X214076928Y-93305414D01*
X214199414Y-93182928D01*
X214301232Y-93042788D01*
X214379873Y-92888445D01*
X214433402Y-92723701D01*
X214460500Y-92552611D01*
X214460500Y-92379389D01*
X214433402Y-92208299D01*
X214379873Y-92043555D01*
X214301232Y-91889212D01*
X214199414Y-91749072D01*
X214076928Y-91626586D01*
X213936788Y-91524768D01*
X213782445Y-91446127D01*
X213617701Y-91392598D01*
X213617699Y-91392597D01*
X213617698Y-91392597D01*
X213486271Y-91371781D01*
X213446611Y-91365500D01*
X213273389Y-91365500D01*
X213233728Y-91371781D01*
X213102302Y-91392597D01*
X212937552Y-91446128D01*
X212783211Y-91524768D01*
X212715406Y-91574032D01*
X212643072Y-91626586D01*
X212643070Y-91626588D01*
X212643069Y-91626588D01*
X212520588Y-91749069D01*
X212520588Y-91749070D01*
X212520586Y-91749072D01*
X212476859Y-91809256D01*
X212418768Y-91889211D01*
X212340128Y-92043552D01*
X212286597Y-92208302D01*
X212259500Y-92379389D01*
X208683626Y-92379389D01*
X206143626Y-89839389D01*
X212259500Y-89839389D01*
X212259500Y-90012611D01*
X212262551Y-90031873D01*
X212283081Y-90161500D01*
X212286598Y-90183701D01*
X212336863Y-90338400D01*
X212340128Y-90348447D01*
X212341950Y-90352023D01*
X212418768Y-90502788D01*
X212520586Y-90642928D01*
X212643072Y-90765414D01*
X212783212Y-90867232D01*
X212937555Y-90945873D01*
X213102299Y-90999402D01*
X213273389Y-91026500D01*
X213273390Y-91026500D01*
X213446610Y-91026500D01*
X213446611Y-91026500D01*
X213617701Y-90999402D01*
X213782445Y-90945873D01*
X213936788Y-90867232D01*
X214076928Y-90765414D01*
X214199414Y-90642928D01*
X214301232Y-90502788D01*
X214379873Y-90348445D01*
X214433402Y-90183701D01*
X214460500Y-90012611D01*
X214460500Y-89839389D01*
X214433402Y-89668299D01*
X214379873Y-89503555D01*
X214301232Y-89349212D01*
X214199414Y-89209072D01*
X214076928Y-89086586D01*
X213936788Y-88984768D01*
X213782445Y-88906127D01*
X213617701Y-88852598D01*
X213617699Y-88852597D01*
X213617698Y-88852597D01*
X213486271Y-88831781D01*
X213446611Y-88825500D01*
X213273389Y-88825500D01*
X213233728Y-88831781D01*
X213102302Y-88852597D01*
X212937552Y-88906128D01*
X212783211Y-88984768D01*
X212715202Y-89034180D01*
X212643072Y-89086586D01*
X212643070Y-89086588D01*
X212643069Y-89086588D01*
X212520588Y-89209069D01*
X212520588Y-89209070D01*
X212520586Y-89209072D01*
X212507942Y-89226475D01*
X212418768Y-89349211D01*
X212340128Y-89503552D01*
X212286597Y-89668302D01*
X212259828Y-89837321D01*
X212259500Y-89839389D01*
X206143626Y-89839389D01*
X205008819Y-88704582D01*
X204975334Y-88643259D01*
X204972500Y-88616901D01*
X204972500Y-86491205D01*
X212210000Y-86491205D01*
X212210000Y-87136000D01*
X212926988Y-87136000D01*
X212894075Y-87193007D01*
X212860000Y-87320174D01*
X212860000Y-87451826D01*
X212894075Y-87578993D01*
X212926988Y-87636000D01*
X212210001Y-87636000D01*
X212210001Y-88280785D01*
X212210002Y-88280808D01*
X212212908Y-88305869D01*
X212212909Y-88305873D01*
X212258211Y-88408474D01*
X212258214Y-88408479D01*
X212337520Y-88487785D01*
X212337525Y-88487788D01*
X212440123Y-88533089D01*
X212465206Y-88535999D01*
X213109999Y-88535999D01*
X213110000Y-88535998D01*
X213110000Y-87819012D01*
X213167007Y-87851925D01*
X213294174Y-87886000D01*
X213425826Y-87886000D01*
X213552993Y-87851925D01*
X213610000Y-87819012D01*
X213610000Y-88535999D01*
X214254786Y-88535999D01*
X214254808Y-88535997D01*
X214279869Y-88533091D01*
X214279873Y-88533090D01*
X214382474Y-88487788D01*
X214382479Y-88487785D01*
X214461785Y-88408479D01*
X214461788Y-88408474D01*
X214507089Y-88305877D01*
X214507089Y-88305875D01*
X214509999Y-88280794D01*
X214510000Y-88280791D01*
X214510000Y-87636000D01*
X213793012Y-87636000D01*
X213825925Y-87578993D01*
X213860000Y-87451826D01*
X213860000Y-87320174D01*
X213825925Y-87193007D01*
X213793012Y-87136000D01*
X214509999Y-87136000D01*
X214509999Y-86491214D01*
X214509997Y-86491191D01*
X214507091Y-86466130D01*
X214507090Y-86466126D01*
X214461788Y-86363525D01*
X214461785Y-86363520D01*
X214382479Y-86284214D01*
X214382474Y-86284211D01*
X214279876Y-86238910D01*
X214254794Y-86236000D01*
X213610000Y-86236000D01*
X213610000Y-86952988D01*
X213552993Y-86920075D01*
X213425826Y-86886000D01*
X213294174Y-86886000D01*
X213167007Y-86920075D01*
X213110000Y-86952988D01*
X213110000Y-86236000D01*
X212465214Y-86236000D01*
X212465191Y-86236002D01*
X212440130Y-86238908D01*
X212440126Y-86238909D01*
X212337525Y-86284211D01*
X212337520Y-86284214D01*
X212258214Y-86363520D01*
X212258211Y-86363525D01*
X212212910Y-86466122D01*
X212212910Y-86466124D01*
X212210000Y-86491205D01*
X204972500Y-86491205D01*
X204972500Y-84107500D01*
X204992185Y-84040461D01*
X205044989Y-83994706D01*
X205096500Y-83983500D01*
X205296676Y-83983500D01*
X205296677Y-83983499D01*
X205369740Y-83968966D01*
X205452601Y-83913601D01*
X205507966Y-83830740D01*
X205522500Y-83757674D01*
X205522500Y-83613625D01*
X205542185Y-83546586D01*
X205594989Y-83500831D01*
X205664147Y-83490887D01*
X205727703Y-83519912D01*
X205749602Y-83544734D01*
X205839667Y-83679527D01*
X205975469Y-83815329D01*
X205975473Y-83815332D01*
X206135157Y-83922030D01*
X206135167Y-83922035D01*
X206312599Y-83995530D01*
X206312606Y-83995533D01*
X206347000Y-84002373D01*
X206347000Y-83373686D01*
X206351394Y-83378080D01*
X206442606Y-83430741D01*
X206544339Y-83458000D01*
X206649661Y-83458000D01*
X206751394Y-83430741D01*
X206842606Y-83378080D01*
X206847000Y-83373686D01*
X206847000Y-84002372D01*
X206881393Y-83995533D01*
X206881400Y-83995530D01*
X207058832Y-83922035D01*
X207058842Y-83922030D01*
X207218526Y-83815332D01*
X207218530Y-83815329D01*
X207354329Y-83679530D01*
X207354332Y-83679526D01*
X207461030Y-83519842D01*
X207461035Y-83519833D01*
X207534531Y-83342397D01*
X207534533Y-83342389D01*
X207541374Y-83308000D01*
X206912686Y-83308000D01*
X206917080Y-83303606D01*
X206969741Y-83212394D01*
X206997000Y-83110661D01*
X206997000Y-83005339D01*
X206969741Y-82903606D01*
X206917080Y-82812394D01*
X206912686Y-82808000D01*
X207541374Y-82808000D01*
X207534533Y-82773610D01*
X207534531Y-82773602D01*
X207461035Y-82596166D01*
X207461030Y-82596157D01*
X207354332Y-82436473D01*
X207354329Y-82436469D01*
X207218530Y-82300670D01*
X207218526Y-82300667D01*
X207058842Y-82193969D01*
X207058832Y-82193964D01*
X206968533Y-82156561D01*
X206914130Y-82112720D01*
X206892065Y-82046426D01*
X206909344Y-81978726D01*
X206960482Y-81931116D01*
X206968533Y-81927439D01*
X207058832Y-81890035D01*
X207058842Y-81890030D01*
X207218526Y-81783332D01*
X207218530Y-81783329D01*
X207354329Y-81647530D01*
X207354332Y-81647526D01*
X207461030Y-81487842D01*
X207461035Y-81487833D01*
X207534531Y-81310397D01*
X207534533Y-81310389D01*
X207541374Y-81276000D01*
X206912686Y-81276000D01*
X206917080Y-81271606D01*
X206969741Y-81180394D01*
X206997000Y-81078661D01*
X206997000Y-80973339D01*
X206969741Y-80871606D01*
X206917080Y-80780394D01*
X206912686Y-80776000D01*
X207541374Y-80776000D01*
X207534533Y-80741610D01*
X207534531Y-80741602D01*
X207461035Y-80564166D01*
X207461030Y-80564157D01*
X207354332Y-80404473D01*
X207354329Y-80404469D01*
X207218530Y-80268670D01*
X207218526Y-80268667D01*
X207058842Y-80161969D01*
X207058833Y-80161964D01*
X206881397Y-80088468D01*
X206881389Y-80088466D01*
X206847000Y-80081625D01*
X206847000Y-80710314D01*
X206842606Y-80705920D01*
X206751394Y-80653259D01*
X206649661Y-80626000D01*
X206544339Y-80626000D01*
X206442606Y-80653259D01*
X206351394Y-80705920D01*
X206347000Y-80710314D01*
X206347000Y-80081625D01*
X206312610Y-80088466D01*
X206312602Y-80088468D01*
X206135166Y-80161964D01*
X206135157Y-80161969D01*
X205975473Y-80268667D01*
X205975469Y-80268670D01*
X205839670Y-80404469D01*
X205839667Y-80404473D01*
X205749602Y-80539265D01*
X205695990Y-80584070D01*
X205626665Y-80592777D01*
X205563637Y-80562622D01*
X205526918Y-80503179D01*
X205522500Y-80470374D01*
X205522500Y-80326323D01*
X205522499Y-80326321D01*
X205507967Y-80253264D01*
X205507966Y-80253260D01*
X205484406Y-80218000D01*
X205452601Y-80170399D01*
X205369740Y-80115034D01*
X205369739Y-80115033D01*
X205369735Y-80115032D01*
X205296677Y-80100500D01*
X205296674Y-80100500D01*
X203897326Y-80100500D01*
X203897323Y-80100500D01*
X203824264Y-80115032D01*
X203824260Y-80115033D01*
X203741399Y-80170399D01*
X203686033Y-80253260D01*
X203686032Y-80253264D01*
X203671500Y-80326321D01*
X203671500Y-81725678D01*
X203686032Y-81798735D01*
X203686033Y-81798739D01*
X203686034Y-81798740D01*
X203741398Y-81881600D01*
X203741400Y-81881602D01*
X203827150Y-81938898D01*
X203871956Y-81992510D01*
X203880663Y-82061835D01*
X203850509Y-82124862D01*
X203827150Y-82145102D01*
X203741400Y-82202397D01*
X203686033Y-82285260D01*
X203686032Y-82285264D01*
X203671500Y-82358321D01*
X203671500Y-83757678D01*
X203686032Y-83830735D01*
X203686033Y-83830739D01*
X203686034Y-83830740D01*
X203741399Y-83913601D01*
X203824260Y-83968966D01*
X203824264Y-83968967D01*
X203897321Y-83983499D01*
X203897324Y-83983500D01*
X203897326Y-83983500D01*
X204097500Y-83983500D01*
X204164539Y-84003185D01*
X204210294Y-84055989D01*
X204221500Y-84107500D01*
X204221500Y-88873235D01*
X204247090Y-88968738D01*
X204290556Y-89044024D01*
X204296526Y-89054363D01*
X212770381Y-97528218D01*
X212785084Y-97555145D01*
X212801677Y-97580964D01*
X212802568Y-97587164D01*
X212803866Y-97589541D01*
X212806700Y-97615899D01*
X212806700Y-97736453D01*
X212787015Y-97803492D01*
X212734211Y-97849247D01*
X212665053Y-97859191D01*
X212626405Y-97846938D01*
X212620543Y-97843951D01*
X212620542Y-97843950D01*
X212550497Y-97808260D01*
X212507501Y-97786352D01*
X212413724Y-97771500D01*
X212050682Y-97771500D01*
X211969719Y-97784323D01*
X211956896Y-97786354D01*
X211843858Y-97843950D01*
X211843857Y-97843951D01*
X211843852Y-97843954D01*
X211754154Y-97933652D01*
X211754151Y-97933657D01*
X211696552Y-98046698D01*
X211681700Y-98140475D01*
X211681700Y-98152100D01*
X211679149Y-98160785D01*
X211680438Y-98169747D01*
X211669459Y-98193787D01*
X211662015Y-98219139D01*
X211655174Y-98225066D01*
X211651413Y-98233303D01*
X211629178Y-98247592D01*
X211609211Y-98264894D01*
X211598696Y-98267181D01*
X211592635Y-98271077D01*
X211557700Y-98276100D01*
X211513440Y-98276100D01*
X211446401Y-98256415D01*
X211425758Y-98239780D01*
X211384502Y-98198523D01*
X211384499Y-98198521D01*
X211268921Y-98142019D01*
X211268919Y-98142018D01*
X211268918Y-98142018D01*
X211193982Y-98131100D01*
X210750818Y-98131100D01*
X210675882Y-98142018D01*
X210675880Y-98142018D01*
X210675878Y-98142019D01*
X210560300Y-98198521D01*
X210560297Y-98198523D01*
X210469323Y-98289497D01*
X210469321Y-98289500D01*
X210412819Y-98405078D01*
X210412818Y-98405080D01*
X210412818Y-98405082D01*
X210401900Y-98480018D01*
X210401900Y-98823182D01*
X210412818Y-98898118D01*
X210412818Y-98898119D01*
X210412819Y-98898121D01*
X210469321Y-99013699D01*
X210469323Y-99013702D01*
X210492293Y-99036672D01*
X210525778Y-99097995D01*
X210520794Y-99167687D01*
X210482620Y-99218679D01*
X210482905Y-99218964D01*
X210480926Y-99220942D01*
X210478922Y-99223620D01*
X210478255Y-99224116D01*
X210476337Y-99225531D01*
X210476336Y-99225532D01*
X210398466Y-99331040D01*
X210398465Y-99331042D01*
X210366778Y-99421599D01*
X210366778Y-99421600D01*
X211591834Y-99421600D01*
X211615287Y-99403090D01*
X211684829Y-99396328D01*
X211746987Y-99428237D01*
X211749254Y-99430447D01*
X211843852Y-99525045D01*
X211843854Y-99525046D01*
X211843858Y-99525050D01*
X211950977Y-99579630D01*
X211956898Y-99582647D01*
X212050675Y-99597499D01*
X212050681Y-99597500D01*
X212413718Y-99597499D01*
X212507504Y-99582646D01*
X212620542Y-99525050D01*
X212710250Y-99435342D01*
X212710253Y-99435334D01*
X212715233Y-99428481D01*
X212770559Y-99385810D01*
X212840172Y-99379824D01*
X212901970Y-99412425D01*
X212903239Y-99413676D01*
X213395881Y-99906318D01*
X213429366Y-99967641D01*
X213432200Y-99993999D01*
X213432200Y-101932261D01*
X213442309Y-101945072D01*
X213449069Y-102014614D01*
X213417158Y-102076770D01*
X213414951Y-102079034D01*
X212017805Y-103476181D01*
X211956482Y-103509666D01*
X211930124Y-103512500D01*
X209902052Y-103512500D01*
X209845758Y-103498985D01*
X209803301Y-103477352D01*
X209709524Y-103462500D01*
X208569673Y-103462500D01*
X208502634Y-103442815D01*
X208456879Y-103390011D01*
X208446935Y-103320853D01*
X208475960Y-103257297D01*
X208481967Y-103250845D01*
X209448379Y-102284432D01*
X209465969Y-102274827D01*
X209480655Y-102261180D01*
X209504875Y-102253583D01*
X209509700Y-102250949D01*
X209514153Y-102250065D01*
X209517307Y-102249499D01*
X209517582Y-102249499D01*
X209592518Y-102238581D01*
X209600857Y-102234503D01*
X209617879Y-102231449D01*
X209627056Y-102232444D01*
X209639784Y-102229499D01*
X209915712Y-102229499D01*
X209963163Y-102238937D01*
X209970514Y-102241982D01*
X209970516Y-102241983D01*
X210110526Y-102279499D01*
X210110529Y-102279499D01*
X210255473Y-102279499D01*
X210255476Y-102279499D01*
X210395486Y-102241983D01*
X210521016Y-102169508D01*
X210623510Y-102067014D01*
X210695985Y-101941484D01*
X210733501Y-101801474D01*
X210733501Y-101656524D01*
X210695985Y-101516514D01*
X210695681Y-101515988D01*
X210623512Y-101390987D01*
X210623507Y-101390981D01*
X210521018Y-101288492D01*
X210521012Y-101288487D01*
X210395489Y-101216016D01*
X210395490Y-101216016D01*
X210367436Y-101208499D01*
X210255476Y-101178499D01*
X210110526Y-101178499D01*
X210021879Y-101202251D01*
X209952031Y-101200589D01*
X209894168Y-101161427D01*
X209866664Y-101097198D01*
X209865976Y-101075636D01*
X209872420Y-100959001D01*
X209420000Y-100959001D01*
X209352961Y-100939316D01*
X209312416Y-100892525D01*
X211031500Y-100892525D01*
X211031500Y-101037475D01*
X211069016Y-101177485D01*
X211069017Y-101177488D01*
X211141488Y-101303011D01*
X211141490Y-101303013D01*
X211141491Y-101303015D01*
X211243985Y-101405509D01*
X211243987Y-101405510D01*
X211369511Y-101477982D01*
X211369512Y-101477982D01*
X211369515Y-101477984D01*
X211509525Y-101515500D01*
X211509528Y-101515500D01*
X211579883Y-101515500D01*
X211646922Y-101535185D01*
X211692677Y-101587989D01*
X211695492Y-101595218D01*
X211696553Y-101597301D01*
X211696554Y-101597304D01*
X211754150Y-101710342D01*
X211754152Y-101710344D01*
X211754154Y-101710347D01*
X211843852Y-101800045D01*
X211843854Y-101800046D01*
X211843858Y-101800050D01*
X211956894Y-101857645D01*
X211956898Y-101857647D01*
X212050675Y-101872499D01*
X212050681Y-101872500D01*
X212413718Y-101872499D01*
X212507504Y-101857646D01*
X212610449Y-101805192D01*
X212679115Y-101792297D01*
X212740375Y-101815908D01*
X212819555Y-101874346D01*
X212819554Y-101874346D01*
X212932200Y-101913761D01*
X212932200Y-100005237D01*
X212932199Y-100005237D01*
X212819555Y-100044653D01*
X212740375Y-100103091D01*
X212674746Y-100127062D01*
X212610446Y-100113806D01*
X212607698Y-100112406D01*
X212569844Y-100093118D01*
X212507501Y-100061352D01*
X212413724Y-100046500D01*
X212050682Y-100046500D01*
X211969719Y-100059323D01*
X211956896Y-100061354D01*
X211843858Y-100118950D01*
X211843857Y-100118951D01*
X211843852Y-100118954D01*
X211754154Y-100208652D01*
X211754151Y-100208657D01*
X211754150Y-100208658D01*
X211737968Y-100240417D01*
X211696553Y-100321697D01*
X211694240Y-100328818D01*
X211654802Y-100386494D01*
X211595150Y-100413060D01*
X211585783Y-100414500D01*
X211509525Y-100414500D01*
X211406890Y-100442001D01*
X211400185Y-100443032D01*
X211379715Y-100440292D01*
X211372410Y-100449648D01*
X211362139Y-100456274D01*
X211243985Y-100524491D01*
X211243982Y-100524493D01*
X211141493Y-100626982D01*
X211141488Y-100626988D01*
X211069017Y-100752511D01*
X211069016Y-100752515D01*
X211031500Y-100892525D01*
X209312416Y-100892525D01*
X209307206Y-100886512D01*
X209296000Y-100835001D01*
X209296000Y-100709001D01*
X209170000Y-100709001D01*
X209102961Y-100689316D01*
X209057206Y-100636512D01*
X209046000Y-100585001D01*
X209046000Y-100459001D01*
X209546000Y-100459001D01*
X209901622Y-100459001D01*
X209901621Y-100459000D01*
X209869934Y-100368443D01*
X209869933Y-100368441D01*
X209792065Y-100262935D01*
X209686559Y-100185067D01*
X209686557Y-100185066D01*
X209562786Y-100141756D01*
X209546000Y-100140182D01*
X209546000Y-100459001D01*
X209046000Y-100459001D01*
X209046000Y-100140183D01*
X209045999Y-100140182D01*
X209029214Y-100141756D01*
X209029212Y-100141756D01*
X208905442Y-100185066D01*
X208905440Y-100185067D01*
X208803831Y-100260060D01*
X208738203Y-100284031D01*
X208670032Y-100268716D01*
X208620964Y-100218976D01*
X208619712Y-100216584D01*
X208609050Y-100195658D01*
X208609047Y-100195655D01*
X208609045Y-100195652D01*
X208519347Y-100105954D01*
X208519344Y-100105952D01*
X208519342Y-100105950D01*
X208442517Y-100066805D01*
X208406301Y-100048352D01*
X208312524Y-100033500D01*
X208312519Y-100033500D01*
X208218000Y-100033500D01*
X208209314Y-100030949D01*
X208200353Y-100032238D01*
X208176312Y-100021259D01*
X208150961Y-100013815D01*
X208145033Y-100006974D01*
X208136797Y-100003213D01*
X208122507Y-99980978D01*
X208105206Y-99961011D01*
X208102918Y-99950496D01*
X208099023Y-99944435D01*
X208095740Y-99921600D01*
X210366778Y-99921600D01*
X210398465Y-100012157D01*
X210398466Y-100012159D01*
X210476334Y-100117665D01*
X210581838Y-100195531D01*
X210705619Y-100238844D01*
X210722399Y-100240417D01*
X211222400Y-100240417D01*
X211239181Y-100238844D01*
X211259181Y-100231846D01*
X211303161Y-100229600D01*
X211316806Y-100214591D01*
X211326885Y-100209821D01*
X211328737Y-100208185D01*
X211333234Y-100206816D01*
X211340391Y-100203430D01*
X211362959Y-100195533D01*
X211468465Y-100117665D01*
X211546333Y-100012159D01*
X211546334Y-100012157D01*
X211578021Y-99921600D01*
X211222400Y-99921600D01*
X211222400Y-100240417D01*
X210722399Y-100240417D01*
X210722400Y-100240416D01*
X210722400Y-99921600D01*
X210366778Y-99921600D01*
X208095740Y-99921600D01*
X208094000Y-99909500D01*
X208094000Y-99538376D01*
X208093999Y-99538369D01*
X208081384Y-99491288D01*
X208066707Y-99436512D01*
X208013980Y-99345187D01*
X207154313Y-98485520D01*
X207089154Y-98447900D01*
X207062989Y-98432793D01*
X206993951Y-98414295D01*
X206961127Y-98405500D01*
X206961126Y-98405500D01*
X202404500Y-98405500D01*
X202337461Y-98385815D01*
X202291706Y-98333011D01*
X202280500Y-98281500D01*
X202280500Y-96237386D01*
X202300185Y-96170347D01*
X202316819Y-96149705D01*
X202338651Y-96127873D01*
X202370509Y-96096015D01*
X202442984Y-95970485D01*
X202480500Y-95830475D01*
X202480500Y-95685525D01*
X202442984Y-95545515D01*
X202428916Y-95521149D01*
X202370511Y-95419988D01*
X202370506Y-95419982D01*
X202316819Y-95366295D01*
X202283334Y-95304972D01*
X202280500Y-95278614D01*
X202280500Y-93189386D01*
X202300185Y-93122347D01*
X202316819Y-93101705D01*
X202340502Y-93078022D01*
X202370509Y-93048015D01*
X202442984Y-92922485D01*
X202480500Y-92782475D01*
X202480500Y-92637525D01*
X202442984Y-92497515D01*
X202370509Y-92371985D01*
X202316819Y-92318295D01*
X202283334Y-92256972D01*
X202280500Y-92230614D01*
X202280500Y-90141386D01*
X202300185Y-90074347D01*
X202316819Y-90053705D01*
X202338651Y-90031873D01*
X202370509Y-90000015D01*
X202442984Y-89874485D01*
X202480500Y-89734475D01*
X202480500Y-89589525D01*
X202442984Y-89449515D01*
X202409899Y-89392211D01*
X202370511Y-89323988D01*
X202370506Y-89323982D01*
X202316819Y-89270295D01*
X202283334Y-89208972D01*
X202280500Y-89182614D01*
X202280500Y-87093386D01*
X202300185Y-87026347D01*
X202316819Y-87005705D01*
X202336623Y-86985901D01*
X202370509Y-86952015D01*
X202442984Y-86826485D01*
X202480500Y-86686475D01*
X202480500Y-86541525D01*
X202442984Y-86401515D01*
X202421050Y-86363525D01*
X202370511Y-86275988D01*
X202370506Y-86275982D01*
X202316819Y-86222295D01*
X202283334Y-86160972D01*
X202280500Y-86134614D01*
X202280500Y-84045386D01*
X202300185Y-83978347D01*
X202316819Y-83957705D01*
X202326571Y-83947953D01*
X202370509Y-83904015D01*
X202442984Y-83778485D01*
X202480500Y-83638475D01*
X202480500Y-83493525D01*
X202442984Y-83353515D01*
X202436560Y-83342389D01*
X202370511Y-83227988D01*
X202370506Y-83227982D01*
X202316819Y-83174295D01*
X202283334Y-83112972D01*
X202280500Y-83086614D01*
X202280500Y-80997386D01*
X202300185Y-80930347D01*
X202316819Y-80909705D01*
X202339224Y-80887300D01*
X202370509Y-80856015D01*
X202442984Y-80730485D01*
X202480500Y-80590475D01*
X202480500Y-80445525D01*
X202442984Y-80305515D01*
X202421711Y-80268670D01*
X202370511Y-80179988D01*
X202370506Y-80179982D01*
X202268017Y-80077493D01*
X202268011Y-80077488D01*
X202142488Y-80005017D01*
X202142489Y-80005017D01*
X202131006Y-80001940D01*
X202002475Y-79967500D01*
X201857525Y-79967500D01*
X201857523Y-79967500D01*
X201823592Y-79976592D01*
X201753742Y-79974929D01*
X201695880Y-79935766D01*
X201668377Y-79871537D01*
X201667500Y-79856817D01*
X201667500Y-79593323D01*
X201667499Y-79593321D01*
X201652967Y-79520264D01*
X201652966Y-79520260D01*
X201630359Y-79486426D01*
X201597601Y-79437399D01*
X201514740Y-79382034D01*
X201514739Y-79382033D01*
X201514735Y-79382032D01*
X201441677Y-79367500D01*
X201441674Y-79367500D01*
X200692326Y-79367500D01*
X200692323Y-79367500D01*
X200619264Y-79382032D01*
X200619260Y-79382033D01*
X200536395Y-79437402D01*
X200529582Y-79444215D01*
X200468258Y-79477698D01*
X200398567Y-79472711D01*
X200379902Y-79463917D01*
X200364487Y-79455017D01*
X200364486Y-79455016D01*
X200364485Y-79455016D01*
X200224475Y-79417500D01*
X200079525Y-79417500D01*
X199950993Y-79451940D01*
X199939511Y-79455017D01*
X199924095Y-79463918D01*
X199856194Y-79480391D01*
X199790167Y-79457538D01*
X199774414Y-79444212D01*
X199767603Y-79437401D01*
X199767601Y-79437400D01*
X199767601Y-79437399D01*
X199684740Y-79382034D01*
X199684739Y-79382033D01*
X199684735Y-79382032D01*
X199611677Y-79367500D01*
X199611674Y-79367500D01*
X198862326Y-79367500D01*
X198862323Y-79367500D01*
X198789264Y-79382032D01*
X198789260Y-79382033D01*
X198706399Y-79437399D01*
X198651033Y-79520260D01*
X198651032Y-79520264D01*
X198636500Y-79593321D01*
X198636500Y-79593326D01*
X198636500Y-80342674D01*
X198636500Y-80342676D01*
X198636499Y-80342676D01*
X198651034Y-80415743D01*
X198652856Y-80420142D01*
X198660322Y-80489611D01*
X198640597Y-80537660D01*
X198635213Y-80545519D01*
X198589910Y-80648122D01*
X198589910Y-80648124D01*
X198587000Y-80673205D01*
X198587000Y-80818000D01*
X199886999Y-80818000D01*
X199886999Y-80673214D01*
X199886997Y-80673191D01*
X199883333Y-80641593D01*
X199895163Y-80572732D01*
X199942344Y-80521199D01*
X200009897Y-80503354D01*
X200038597Y-80507533D01*
X200079525Y-80518500D01*
X200079527Y-80518500D01*
X200224472Y-80518500D01*
X200224475Y-80518500D01*
X200324246Y-80491766D01*
X200394094Y-80493429D01*
X200451957Y-80532591D01*
X200479461Y-80596820D01*
X200477956Y-80635731D01*
X200466500Y-80693326D01*
X200466500Y-81156811D01*
X200446815Y-81223850D01*
X200430181Y-81244492D01*
X200096273Y-81578399D01*
X200034950Y-81611884D01*
X199965258Y-81606900D01*
X199909325Y-81565028D01*
X199884908Y-81499564D01*
X199885419Y-81476425D01*
X199886998Y-81462809D01*
X199887000Y-81462791D01*
X199887000Y-81318000D01*
X199487000Y-81318000D01*
X199487000Y-81717999D01*
X199631786Y-81717999D01*
X199631800Y-81717998D01*
X199645431Y-81716417D01*
X199714292Y-81728246D01*
X199765826Y-81775425D01*
X199783673Y-81842978D01*
X199762165Y-81909454D01*
X199747400Y-81927272D01*
X199295492Y-82379181D01*
X199234169Y-82412666D01*
X199207811Y-82415500D01*
X198862323Y-82415500D01*
X198789264Y-82430032D01*
X198789260Y-82430033D01*
X198706399Y-82485399D01*
X198651033Y-82568260D01*
X198651032Y-82568264D01*
X198636500Y-82641321D01*
X198636500Y-82641326D01*
X198636500Y-83390674D01*
X198636500Y-83390676D01*
X198636499Y-83390676D01*
X198651034Y-83463743D01*
X198652856Y-83468142D01*
X198660322Y-83537611D01*
X198640597Y-83585660D01*
X198635213Y-83593519D01*
X198589910Y-83696122D01*
X198589910Y-83696124D01*
X198587000Y-83721205D01*
X198587000Y-83866000D01*
X199886999Y-83866000D01*
X199886999Y-83721214D01*
X199886997Y-83721191D01*
X199884091Y-83696130D01*
X199884090Y-83696126D01*
X199838788Y-83593523D01*
X199833409Y-83585672D01*
X199811759Y-83519241D01*
X199821147Y-83468130D01*
X199822962Y-83463745D01*
X199822966Y-83463740D01*
X199837500Y-83390674D01*
X199837500Y-82809188D01*
X199857185Y-82742149D01*
X199873819Y-82721507D01*
X200890507Y-81704819D01*
X200951830Y-81671334D01*
X200978188Y-81668500D01*
X201441677Y-81668500D01*
X201443342Y-81668336D01*
X201444207Y-81668500D01*
X201447766Y-81668500D01*
X201447766Y-81669174D01*
X201511988Y-81681352D01*
X201562700Y-81729415D01*
X201579500Y-81791738D01*
X201579500Y-82292261D01*
X201559815Y-82359300D01*
X201507011Y-82405055D01*
X201447766Y-82414930D01*
X201447766Y-82415500D01*
X201444347Y-82415500D01*
X201443357Y-82415665D01*
X201441680Y-82415500D01*
X201441674Y-82415500D01*
X200692326Y-82415500D01*
X200692323Y-82415500D01*
X200619264Y-82430032D01*
X200619260Y-82430033D01*
X200536399Y-82485399D01*
X200481033Y-82568260D01*
X200481032Y-82568264D01*
X200466500Y-82641321D01*
X200466500Y-83390678D01*
X200481032Y-83463735D01*
X200481033Y-83463739D01*
X200486238Y-83471529D01*
X200503329Y-83497108D01*
X200503331Y-83497110D01*
X200524208Y-83563788D01*
X200505723Y-83631168D01*
X200503337Y-83634879D01*
X200500937Y-83638472D01*
X200481033Y-83668260D01*
X200481032Y-83668264D01*
X200466500Y-83741321D01*
X200466500Y-84263811D01*
X200446815Y-84330850D01*
X200430181Y-84351492D01*
X200067159Y-84714513D01*
X200005836Y-84747998D01*
X199936144Y-84743014D01*
X199880211Y-84701142D01*
X199855794Y-84635678D01*
X199866044Y-84576745D01*
X199884089Y-84535876D01*
X199884089Y-84535875D01*
X199886999Y-84510794D01*
X199887000Y-84510791D01*
X199887000Y-84366000D01*
X199487000Y-84366000D01*
X199487000Y-84765999D01*
X199631786Y-84765999D01*
X199631808Y-84765997D01*
X199656869Y-84763091D01*
X199656875Y-84763089D01*
X199697747Y-84745043D01*
X199767025Y-84735971D01*
X199830210Y-84765794D01*
X199867241Y-84825044D01*
X199866361Y-84894908D01*
X199835514Y-84946158D01*
X199354492Y-85427181D01*
X199293169Y-85460666D01*
X199266811Y-85463500D01*
X198862323Y-85463500D01*
X198789264Y-85478032D01*
X198789260Y-85478033D01*
X198706399Y-85533399D01*
X198651033Y-85616260D01*
X198651032Y-85616264D01*
X198636500Y-85689321D01*
X198636500Y-85689326D01*
X198636500Y-86438674D01*
X198636500Y-86438676D01*
X198636499Y-86438676D01*
X198651034Y-86511743D01*
X198652856Y-86516142D01*
X198660322Y-86585611D01*
X198640597Y-86633660D01*
X198635213Y-86641519D01*
X198589910Y-86744122D01*
X198589910Y-86744124D01*
X198587000Y-86769205D01*
X198587000Y-86914000D01*
X199886999Y-86914000D01*
X199886999Y-86769214D01*
X199886997Y-86769191D01*
X199884091Y-86744130D01*
X199884090Y-86744126D01*
X199838788Y-86641523D01*
X199833409Y-86633672D01*
X199811759Y-86567241D01*
X199821147Y-86516130D01*
X199822962Y-86511745D01*
X199822966Y-86511740D01*
X199837500Y-86438674D01*
X199837500Y-85916188D01*
X199857185Y-85849149D01*
X199873819Y-85828507D01*
X200949507Y-84752819D01*
X201010830Y-84719334D01*
X201037188Y-84716500D01*
X201441677Y-84716500D01*
X201443342Y-84716336D01*
X201444207Y-84716500D01*
X201447766Y-84716500D01*
X201447766Y-84717174D01*
X201511988Y-84729352D01*
X201562700Y-84777415D01*
X201579500Y-84839738D01*
X201579500Y-85340261D01*
X201559815Y-85407300D01*
X201507011Y-85453055D01*
X201447766Y-85462930D01*
X201447766Y-85463500D01*
X201444347Y-85463500D01*
X201443357Y-85463665D01*
X201441680Y-85463500D01*
X201441674Y-85463500D01*
X200692326Y-85463500D01*
X200692323Y-85463500D01*
X200619264Y-85478032D01*
X200619260Y-85478033D01*
X200536399Y-85533399D01*
X200481033Y-85616260D01*
X200481032Y-85616264D01*
X200466500Y-85689321D01*
X200466500Y-86438678D01*
X200481032Y-86511735D01*
X200481033Y-86511739D01*
X200481034Y-86511740D01*
X200503329Y-86545108D01*
X200503331Y-86545110D01*
X200524208Y-86611788D01*
X200505723Y-86679168D01*
X200503337Y-86682879D01*
X200500937Y-86686472D01*
X200481033Y-86716260D01*
X200481032Y-86716264D01*
X200466500Y-86789321D01*
X200466500Y-87252811D01*
X200446815Y-87319850D01*
X200430181Y-87340492D01*
X200096273Y-87674399D01*
X200034950Y-87707884D01*
X199965258Y-87702900D01*
X199909325Y-87661028D01*
X199884908Y-87595564D01*
X199885419Y-87572425D01*
X199886998Y-87558809D01*
X199887000Y-87558791D01*
X199887000Y-87414000D01*
X199487000Y-87414000D01*
X199487000Y-87813999D01*
X199631786Y-87813999D01*
X199631800Y-87813998D01*
X199645431Y-87812417D01*
X199714292Y-87824246D01*
X199765826Y-87871425D01*
X199783673Y-87938978D01*
X199762165Y-88005454D01*
X199747400Y-88023272D01*
X199295492Y-88475181D01*
X199234169Y-88508666D01*
X199207811Y-88511500D01*
X198862323Y-88511500D01*
X198789264Y-88526032D01*
X198789260Y-88526033D01*
X198706399Y-88581399D01*
X198651033Y-88664260D01*
X198651032Y-88664264D01*
X198636500Y-88737321D01*
X198636500Y-88737326D01*
X198636500Y-89486674D01*
X198636500Y-89486676D01*
X198636499Y-89486676D01*
X198651034Y-89559743D01*
X198652856Y-89564142D01*
X198660322Y-89633611D01*
X198640597Y-89681660D01*
X198635213Y-89689519D01*
X198589910Y-89792122D01*
X198589910Y-89792124D01*
X198587000Y-89817205D01*
X198587000Y-89962000D01*
X199886999Y-89962000D01*
X199886999Y-89817214D01*
X199886997Y-89817191D01*
X199884091Y-89792130D01*
X199884090Y-89792126D01*
X199838788Y-89689523D01*
X199833409Y-89681672D01*
X199811759Y-89615241D01*
X199821147Y-89564130D01*
X199822962Y-89559745D01*
X199822966Y-89559740D01*
X199837500Y-89486674D01*
X199837500Y-88905188D01*
X199857185Y-88838149D01*
X199873819Y-88817507D01*
X200890507Y-87800819D01*
X200951830Y-87767334D01*
X200978188Y-87764500D01*
X201441677Y-87764500D01*
X201443342Y-87764336D01*
X201444207Y-87764500D01*
X201447766Y-87764500D01*
X201447766Y-87765174D01*
X201511988Y-87777352D01*
X201562700Y-87825415D01*
X201579500Y-87887738D01*
X201579500Y-88388261D01*
X201559815Y-88455300D01*
X201507011Y-88501055D01*
X201447766Y-88510930D01*
X201447766Y-88511500D01*
X201444347Y-88511500D01*
X201443357Y-88511665D01*
X201441680Y-88511500D01*
X201441674Y-88511500D01*
X200692326Y-88511500D01*
X200692323Y-88511500D01*
X200619264Y-88526032D01*
X200619260Y-88526033D01*
X200536399Y-88581399D01*
X200481033Y-88664260D01*
X200481032Y-88664264D01*
X200466500Y-88737321D01*
X200466500Y-89486678D01*
X200481032Y-89559735D01*
X200481033Y-89559739D01*
X200481034Y-89559740D01*
X200503329Y-89593108D01*
X200503331Y-89593110D01*
X200524208Y-89659788D01*
X200505723Y-89727168D01*
X200503337Y-89730879D01*
X200500937Y-89734472D01*
X200481033Y-89764260D01*
X200481032Y-89764264D01*
X200466500Y-89837321D01*
X200466500Y-90300811D01*
X200446815Y-90367850D01*
X200430181Y-90388492D01*
X200096273Y-90722399D01*
X200034950Y-90755884D01*
X199965258Y-90750900D01*
X199909325Y-90709028D01*
X199884908Y-90643564D01*
X199885419Y-90620425D01*
X199886998Y-90606809D01*
X199887000Y-90606791D01*
X199887000Y-90462000D01*
X199487000Y-90462000D01*
X199487000Y-90861999D01*
X199631786Y-90861999D01*
X199631800Y-90861998D01*
X199645431Y-90860417D01*
X199714292Y-90872246D01*
X199765826Y-90919425D01*
X199783673Y-90986978D01*
X199762165Y-91053454D01*
X199747400Y-91071272D01*
X199295492Y-91523181D01*
X199234169Y-91556666D01*
X199207811Y-91559500D01*
X198862323Y-91559500D01*
X198789264Y-91574032D01*
X198789260Y-91574033D01*
X198706399Y-91629399D01*
X198651033Y-91712260D01*
X198651032Y-91712264D01*
X198636500Y-91785321D01*
X198636500Y-91785326D01*
X198636500Y-92534674D01*
X198636500Y-92534676D01*
X198636499Y-92534676D01*
X198651034Y-92607743D01*
X198652856Y-92612142D01*
X198660322Y-92681611D01*
X198640597Y-92729660D01*
X198635213Y-92737519D01*
X198589910Y-92840122D01*
X198589910Y-92840124D01*
X198587000Y-92865205D01*
X198587000Y-93010000D01*
X199886999Y-93010000D01*
X199886999Y-92865214D01*
X199886997Y-92865191D01*
X199884091Y-92840130D01*
X199884090Y-92840126D01*
X199838788Y-92737523D01*
X199833409Y-92729672D01*
X199811759Y-92663241D01*
X199821147Y-92612130D01*
X199822962Y-92607745D01*
X199822966Y-92607740D01*
X199837500Y-92534674D01*
X199837500Y-91953188D01*
X199857185Y-91886149D01*
X199873819Y-91865507D01*
X200890507Y-90848819D01*
X200951830Y-90815334D01*
X200978188Y-90812500D01*
X201441677Y-90812500D01*
X201443342Y-90812336D01*
X201444207Y-90812500D01*
X201447766Y-90812500D01*
X201447766Y-90813174D01*
X201511988Y-90825352D01*
X201562700Y-90873415D01*
X201579500Y-90935738D01*
X201579500Y-91436261D01*
X201559815Y-91503300D01*
X201507011Y-91549055D01*
X201447766Y-91558930D01*
X201447766Y-91559500D01*
X201444347Y-91559500D01*
X201443357Y-91559665D01*
X201441680Y-91559500D01*
X201441674Y-91559500D01*
X200692326Y-91559500D01*
X200692323Y-91559500D01*
X200619264Y-91574032D01*
X200619260Y-91574033D01*
X200536399Y-91629399D01*
X200481033Y-91712260D01*
X200481032Y-91712264D01*
X200466500Y-91785321D01*
X200466500Y-92534678D01*
X200481032Y-92607735D01*
X200481033Y-92607739D01*
X200481034Y-92607740D01*
X200503329Y-92641108D01*
X200503331Y-92641110D01*
X200524208Y-92707788D01*
X200505723Y-92775168D01*
X200503337Y-92778879D01*
X200500937Y-92782472D01*
X200481033Y-92812260D01*
X200481032Y-92812264D01*
X200466500Y-92885321D01*
X200466500Y-93348811D01*
X200446815Y-93415850D01*
X200430181Y-93436492D01*
X200096273Y-93770399D01*
X200034950Y-93803884D01*
X199965258Y-93798900D01*
X199909325Y-93757028D01*
X199884908Y-93691564D01*
X199885419Y-93668425D01*
X199886998Y-93654809D01*
X199887000Y-93654791D01*
X199887000Y-93510000D01*
X199487000Y-93510000D01*
X199487000Y-93909999D01*
X199631786Y-93909999D01*
X199631800Y-93909998D01*
X199645431Y-93908417D01*
X199714292Y-93920246D01*
X199765826Y-93967425D01*
X199783673Y-94034978D01*
X199762165Y-94101454D01*
X199747400Y-94119272D01*
X199295492Y-94571181D01*
X199234169Y-94604666D01*
X199207811Y-94607500D01*
X198862323Y-94607500D01*
X198789264Y-94622032D01*
X198789260Y-94622033D01*
X198706399Y-94677399D01*
X198651033Y-94760260D01*
X198651032Y-94760264D01*
X198636500Y-94833321D01*
X198636500Y-94833326D01*
X198636500Y-95582674D01*
X198636500Y-95582676D01*
X198636499Y-95582676D01*
X198651034Y-95655743D01*
X198652856Y-95660142D01*
X198660322Y-95729611D01*
X198640597Y-95777660D01*
X198635213Y-95785519D01*
X198589910Y-95888122D01*
X198589910Y-95888124D01*
X198587000Y-95913205D01*
X198587000Y-96058000D01*
X199886999Y-96058000D01*
X199886999Y-95913214D01*
X199886997Y-95913191D01*
X199884091Y-95888130D01*
X199884090Y-95888126D01*
X199838788Y-95785523D01*
X199833409Y-95777672D01*
X199811759Y-95711241D01*
X199821147Y-95660130D01*
X199822962Y-95655745D01*
X199822966Y-95655740D01*
X199837500Y-95582674D01*
X199837500Y-95001188D01*
X199857185Y-94934149D01*
X199873819Y-94913507D01*
X200890507Y-93896819D01*
X200951830Y-93863334D01*
X200978188Y-93860500D01*
X201441677Y-93860500D01*
X201443342Y-93860336D01*
X201444207Y-93860500D01*
X201447766Y-93860500D01*
X201447766Y-93861174D01*
X201511988Y-93873352D01*
X201562700Y-93921415D01*
X201579500Y-93983738D01*
X201579500Y-94484261D01*
X201559815Y-94551300D01*
X201507011Y-94597055D01*
X201447766Y-94606930D01*
X201447766Y-94607500D01*
X201444347Y-94607500D01*
X201443357Y-94607665D01*
X201441680Y-94607500D01*
X201441674Y-94607500D01*
X200692326Y-94607500D01*
X200692323Y-94607500D01*
X200619264Y-94622032D01*
X200619260Y-94622033D01*
X200536399Y-94677399D01*
X200481033Y-94760260D01*
X200481032Y-94760264D01*
X200466500Y-94833321D01*
X200466500Y-95582678D01*
X200481032Y-95655735D01*
X200481033Y-95655739D01*
X200481034Y-95655740D01*
X200503329Y-95689108D01*
X200503331Y-95689110D01*
X200524208Y-95755788D01*
X200505723Y-95823168D01*
X200503337Y-95826879D01*
X200500937Y-95830472D01*
X200481033Y-95860260D01*
X200481032Y-95860264D01*
X200466500Y-95933321D01*
X200466500Y-96396811D01*
X200446815Y-96463850D01*
X200430181Y-96484492D01*
X200096273Y-96818399D01*
X200034950Y-96851884D01*
X199965258Y-96846900D01*
X199909325Y-96805028D01*
X199884908Y-96739564D01*
X199885419Y-96716425D01*
X199886998Y-96702809D01*
X199887000Y-96702791D01*
X199887000Y-96558000D01*
X199487000Y-96558000D01*
X199487000Y-96957999D01*
X199631786Y-96957999D01*
X199631800Y-96957998D01*
X199645431Y-96956417D01*
X199714292Y-96968246D01*
X199765826Y-97015425D01*
X199783673Y-97082978D01*
X199762165Y-97149454D01*
X199747400Y-97167272D01*
X199295492Y-97619181D01*
X199234169Y-97652666D01*
X199207811Y-97655500D01*
X198862323Y-97655500D01*
X198789264Y-97670032D01*
X198789260Y-97670033D01*
X198706399Y-97725399D01*
X198651033Y-97808260D01*
X198651032Y-97808264D01*
X198636500Y-97881321D01*
X198636500Y-97881326D01*
X198636500Y-98630674D01*
X198636500Y-98630676D01*
X198636499Y-98630676D01*
X198651034Y-98703743D01*
X198652856Y-98708142D01*
X198660322Y-98777611D01*
X198640597Y-98825660D01*
X198635213Y-98833519D01*
X198589910Y-98936122D01*
X198589910Y-98936124D01*
X198587000Y-98961205D01*
X198587000Y-99106000D01*
X199886999Y-99106000D01*
X199886999Y-98961214D01*
X199886997Y-98961191D01*
X199884091Y-98936130D01*
X199884090Y-98936126D01*
X199838788Y-98833523D01*
X199833409Y-98825672D01*
X199811759Y-98759241D01*
X199821147Y-98708130D01*
X199822962Y-98703745D01*
X199822966Y-98703740D01*
X199837500Y-98630674D01*
X199837500Y-98049188D01*
X199857185Y-97982149D01*
X199873819Y-97961507D01*
X200890507Y-96944819D01*
X200951830Y-96911334D01*
X200978188Y-96908500D01*
X201441677Y-96908500D01*
X201443342Y-96908336D01*
X201444207Y-96908500D01*
X201447766Y-96908500D01*
X201447766Y-96909174D01*
X201511988Y-96921352D01*
X201562700Y-96969415D01*
X201579500Y-97031738D01*
X201579500Y-97532261D01*
X201559815Y-97599300D01*
X201507011Y-97645055D01*
X201447766Y-97654930D01*
X201447766Y-97655500D01*
X201444347Y-97655500D01*
X201443357Y-97655665D01*
X201441680Y-97655500D01*
X201441674Y-97655500D01*
X200692326Y-97655500D01*
X200692323Y-97655500D01*
X200619264Y-97670032D01*
X200619260Y-97670033D01*
X200536399Y-97725399D01*
X200481033Y-97808260D01*
X200481032Y-97808264D01*
X200466500Y-97881321D01*
X200466500Y-98630678D01*
X200481032Y-98703735D01*
X200481033Y-98703739D01*
X200481034Y-98703740D01*
X200503329Y-98737108D01*
X200503331Y-98737110D01*
X200524208Y-98803788D01*
X200505723Y-98871168D01*
X200503337Y-98874879D01*
X200503146Y-98875167D01*
X200481033Y-98908260D01*
X200481032Y-98908264D01*
X200466500Y-98981321D01*
X200466500Y-99444811D01*
X200446815Y-99511850D01*
X200430181Y-99532492D01*
X200096273Y-99866399D01*
X200034950Y-99899884D01*
X199965258Y-99894900D01*
X199909325Y-99853028D01*
X199884908Y-99787564D01*
X199885419Y-99764425D01*
X199886998Y-99750809D01*
X199887000Y-99750791D01*
X199887000Y-99606000D01*
X199487000Y-99606000D01*
X199487000Y-100005999D01*
X199631786Y-100005999D01*
X199631800Y-100005998D01*
X199645431Y-100004417D01*
X199714292Y-100016246D01*
X199765826Y-100063425D01*
X199783673Y-100130978D01*
X199762165Y-100197454D01*
X199747400Y-100215272D01*
X199295492Y-100667181D01*
X199234169Y-100700666D01*
X199207811Y-100703500D01*
X198862323Y-100703500D01*
X198789264Y-100718032D01*
X198789260Y-100718033D01*
X198706399Y-100773399D01*
X198651033Y-100856260D01*
X198651032Y-100856264D01*
X198636500Y-100929321D01*
X198636500Y-100929326D01*
X198636500Y-101678674D01*
X198636500Y-101678676D01*
X198636499Y-101678676D01*
X198651034Y-101751743D01*
X198652856Y-101756142D01*
X198660322Y-101825611D01*
X198640597Y-101873660D01*
X198635213Y-101881519D01*
X198589910Y-101984122D01*
X198589910Y-101984124D01*
X198587000Y-102009205D01*
X198587000Y-102154000D01*
X199886999Y-102154000D01*
X199886999Y-102006512D01*
X199906684Y-101939473D01*
X199959488Y-101893718D01*
X200028646Y-101883774D01*
X200043074Y-101886732D01*
X200079525Y-101896500D01*
X200079529Y-101896500D01*
X200224471Y-101896500D01*
X200224475Y-101896500D01*
X200315423Y-101872130D01*
X200385268Y-101873793D01*
X200443131Y-101912955D01*
X200470636Y-101977183D01*
X200469131Y-102016091D01*
X200466500Y-102029318D01*
X200466500Y-102492811D01*
X200446815Y-102559850D01*
X200430181Y-102580492D01*
X200248492Y-102762181D01*
X200221564Y-102776884D01*
X200195746Y-102793477D01*
X200189545Y-102794368D01*
X200187169Y-102795666D01*
X200160811Y-102798500D01*
X200011000Y-102798500D01*
X199943961Y-102778815D01*
X199898206Y-102726011D01*
X199887000Y-102674500D01*
X199887000Y-102654000D01*
X198587001Y-102654000D01*
X198587001Y-102674500D01*
X198567316Y-102741539D01*
X198514512Y-102787294D01*
X198463001Y-102798500D01*
X173017188Y-102798500D01*
X172950149Y-102778815D01*
X172929507Y-102762181D01*
X172747819Y-102580492D01*
X172714334Y-102519169D01*
X172711500Y-102492811D01*
X172711500Y-102029323D01*
X172701128Y-101977183D01*
X172696966Y-101956260D01*
X172696963Y-101956256D01*
X172695146Y-101951867D01*
X172687674Y-101882398D01*
X172707406Y-101834332D01*
X172712788Y-101826474D01*
X172758088Y-101723879D01*
X172758089Y-101723875D01*
X172760999Y-101698794D01*
X172761000Y-101698791D01*
X172761000Y-101554000D01*
X172235000Y-101554000D01*
X172167961Y-101534315D01*
X172122206Y-101481511D01*
X172111000Y-101430000D01*
X172111000Y-101178000D01*
X172130685Y-101110961D01*
X172183489Y-101065206D01*
X172235000Y-101054000D01*
X172760999Y-101054000D01*
X172760999Y-101004500D01*
X172780684Y-100937461D01*
X172833488Y-100891706D01*
X172884999Y-100880500D01*
X172919472Y-100880500D01*
X172919475Y-100880500D01*
X173059485Y-100842984D01*
X173185015Y-100770509D01*
X173287509Y-100668015D01*
X173359984Y-100542485D01*
X173397500Y-100402475D01*
X173397500Y-100257525D01*
X173359984Y-100117515D01*
X173357034Y-100112406D01*
X173287511Y-99991988D01*
X173287506Y-99991982D01*
X173185017Y-99889493D01*
X173185011Y-99889488D01*
X173059488Y-99817017D01*
X173059489Y-99817017D01*
X173027162Y-99808355D01*
X172919475Y-99779500D01*
X172835500Y-99779500D01*
X172826814Y-99776949D01*
X172817853Y-99778238D01*
X172793812Y-99767259D01*
X172768461Y-99759815D01*
X172762533Y-99752974D01*
X172757739Y-99750785D01*
X198587001Y-99750785D01*
X198587002Y-99750808D01*
X198589908Y-99775869D01*
X198589909Y-99775873D01*
X198635211Y-99878474D01*
X198635214Y-99878479D01*
X198714520Y-99957785D01*
X198714525Y-99957788D01*
X198817123Y-100003089D01*
X198842206Y-100005999D01*
X198986999Y-100005999D01*
X198987000Y-100005998D01*
X198987000Y-99606000D01*
X198587001Y-99606000D01*
X198587001Y-99750785D01*
X172757739Y-99750785D01*
X172754297Y-99749213D01*
X172740007Y-99726978D01*
X172722706Y-99707011D01*
X172720418Y-99696496D01*
X172716523Y-99690435D01*
X172711500Y-99655500D01*
X172711500Y-98981323D01*
X172697115Y-98909011D01*
X172696966Y-98908260D01*
X172696963Y-98908256D01*
X172695146Y-98903867D01*
X172687674Y-98834398D01*
X172707406Y-98786332D01*
X172712788Y-98778474D01*
X172758088Y-98675879D01*
X172758089Y-98675875D01*
X172760999Y-98650794D01*
X172761000Y-98650791D01*
X172761000Y-98506000D01*
X171461001Y-98506000D01*
X171461001Y-98650785D01*
X171461002Y-98650808D01*
X171463908Y-98675869D01*
X171463909Y-98675873D01*
X171509212Y-98778477D01*
X171514593Y-98786332D01*
X171536240Y-98852764D01*
X171526856Y-98903861D01*
X171525033Y-98908261D01*
X171510500Y-98981323D01*
X171510500Y-99444811D01*
X171490815Y-99511850D01*
X171474181Y-99532492D01*
X171070204Y-99936468D01*
X171008881Y-99969953D01*
X170939189Y-99964969D01*
X170883256Y-99923097D01*
X170858839Y-99857633D01*
X170865600Y-99815921D01*
X170864584Y-99815719D01*
X170881499Y-99730678D01*
X170881500Y-99730676D01*
X170881500Y-98981323D01*
X170881499Y-98981321D01*
X170866967Y-98908264D01*
X170866967Y-98908262D01*
X170866966Y-98908260D01*
X170844667Y-98874887D01*
X170823791Y-98808214D01*
X170842275Y-98740834D01*
X170844628Y-98737170D01*
X170866966Y-98703740D01*
X170881500Y-98630674D01*
X170881500Y-98167188D01*
X170901185Y-98100149D01*
X170917819Y-98079507D01*
X171081541Y-97915785D01*
X171251729Y-97745596D01*
X171313050Y-97712113D01*
X171382741Y-97717097D01*
X171438675Y-97758968D01*
X171463092Y-97824433D01*
X171462582Y-97847570D01*
X171461000Y-97861202D01*
X171461000Y-98006000D01*
X171861000Y-98006000D01*
X172361000Y-98006000D01*
X172760999Y-98006000D01*
X172760999Y-97861214D01*
X172760997Y-97861191D01*
X172758091Y-97836130D01*
X172758090Y-97836126D01*
X172712788Y-97733525D01*
X172712785Y-97733520D01*
X172633479Y-97654214D01*
X172633474Y-97654211D01*
X172530876Y-97608910D01*
X172505794Y-97606000D01*
X172361000Y-97606000D01*
X172361000Y-98006000D01*
X171861000Y-98006000D01*
X171861000Y-97606000D01*
X171716214Y-97606000D01*
X171716195Y-97606002D01*
X171702559Y-97607583D01*
X171633698Y-97595750D01*
X171582167Y-97548566D01*
X171564325Y-97481013D01*
X171585838Y-97414537D01*
X171600593Y-97396732D01*
X172052507Y-96944819D01*
X172113830Y-96911334D01*
X172140188Y-96908500D01*
X172485676Y-96908500D01*
X172485677Y-96908499D01*
X172558740Y-96893966D01*
X172641601Y-96838601D01*
X172696966Y-96755740D01*
X172707500Y-96702785D01*
X198587001Y-96702785D01*
X198587002Y-96702808D01*
X198589908Y-96727869D01*
X198589909Y-96727873D01*
X198635211Y-96830474D01*
X198635214Y-96830479D01*
X198714520Y-96909785D01*
X198714525Y-96909788D01*
X198817123Y-96955089D01*
X198842206Y-96957999D01*
X198986999Y-96957999D01*
X198987000Y-96957998D01*
X198987000Y-96558000D01*
X198587001Y-96558000D01*
X198587001Y-96702785D01*
X172707500Y-96702785D01*
X172711500Y-96682674D01*
X172711500Y-95933326D01*
X172711500Y-95933323D01*
X172697088Y-95860874D01*
X172696966Y-95860260D01*
X172696963Y-95860256D01*
X172695146Y-95855867D01*
X172687674Y-95786398D01*
X172707406Y-95738332D01*
X172712788Y-95730474D01*
X172758088Y-95627879D01*
X172758089Y-95627875D01*
X172760999Y-95602794D01*
X172761000Y-95602791D01*
X172761000Y-95458000D01*
X171461001Y-95458000D01*
X171461001Y-95602785D01*
X171461002Y-95602808D01*
X171463908Y-95627869D01*
X171463909Y-95627873D01*
X171509212Y-95730477D01*
X171514593Y-95738332D01*
X171536240Y-95804764D01*
X171526856Y-95855861D01*
X171525033Y-95860261D01*
X171510500Y-95933323D01*
X171510500Y-96514811D01*
X171490815Y-96581850D01*
X171474181Y-96602492D01*
X170457492Y-97619181D01*
X170396169Y-97652666D01*
X170369811Y-97655500D01*
X169906320Y-97655500D01*
X169904643Y-97655665D01*
X169903773Y-97655500D01*
X169900234Y-97655500D01*
X169900234Y-97654828D01*
X169835998Y-97642640D01*
X169785292Y-97594570D01*
X169768500Y-97532261D01*
X169768500Y-97031738D01*
X169788185Y-96964699D01*
X169840989Y-96918944D01*
X169900234Y-96909073D01*
X169900234Y-96908500D01*
X169903674Y-96908500D01*
X169904658Y-96908336D01*
X169906323Y-96908500D01*
X169906326Y-96908500D01*
X170655676Y-96908500D01*
X170655677Y-96908499D01*
X170728740Y-96893966D01*
X170811601Y-96838601D01*
X170866966Y-96755740D01*
X170881500Y-96682674D01*
X170881500Y-95933326D01*
X170881500Y-95933323D01*
X170881499Y-95933321D01*
X170866967Y-95860264D01*
X170866967Y-95860262D01*
X170866966Y-95860260D01*
X170844667Y-95826887D01*
X170823791Y-95760214D01*
X170842275Y-95692834D01*
X170844628Y-95689170D01*
X170866966Y-95655740D01*
X170881500Y-95582674D01*
X170881500Y-95119188D01*
X170901185Y-95052149D01*
X170917819Y-95031507D01*
X171075249Y-94874077D01*
X171251729Y-94697596D01*
X171313050Y-94664113D01*
X171382741Y-94669097D01*
X171438675Y-94710968D01*
X171463092Y-94776433D01*
X171462582Y-94799570D01*
X171461000Y-94813202D01*
X171461000Y-94958000D01*
X171861000Y-94958000D01*
X172361000Y-94958000D01*
X172760999Y-94958000D01*
X172760999Y-94813214D01*
X172760997Y-94813191D01*
X172758091Y-94788130D01*
X172758090Y-94788126D01*
X172712788Y-94685525D01*
X172712785Y-94685520D01*
X172633479Y-94606214D01*
X172633474Y-94606211D01*
X172530876Y-94560910D01*
X172505794Y-94558000D01*
X172361000Y-94558000D01*
X172361000Y-94958000D01*
X171861000Y-94958000D01*
X171861000Y-94558000D01*
X171716214Y-94558000D01*
X171716195Y-94558002D01*
X171702559Y-94559583D01*
X171633698Y-94547750D01*
X171582167Y-94500566D01*
X171564325Y-94433013D01*
X171585838Y-94366537D01*
X171600593Y-94348732D01*
X172052507Y-93896819D01*
X172113830Y-93863334D01*
X172140188Y-93860500D01*
X172485676Y-93860500D01*
X172485677Y-93860499D01*
X172558740Y-93845966D01*
X172641601Y-93790601D01*
X172696966Y-93707740D01*
X172707500Y-93654785D01*
X198587001Y-93654785D01*
X198587002Y-93654808D01*
X198589908Y-93679869D01*
X198589909Y-93679873D01*
X198635211Y-93782474D01*
X198635214Y-93782479D01*
X198714520Y-93861785D01*
X198714525Y-93861788D01*
X198817123Y-93907089D01*
X198842206Y-93909999D01*
X198986999Y-93909999D01*
X198987000Y-93909998D01*
X198987000Y-93510000D01*
X198587001Y-93510000D01*
X198587001Y-93654785D01*
X172707500Y-93654785D01*
X172711500Y-93634674D01*
X172711500Y-92885326D01*
X172711500Y-92885323D01*
X172702508Y-92840122D01*
X172696966Y-92812260D01*
X172696963Y-92812256D01*
X172695146Y-92807867D01*
X172687674Y-92738398D01*
X172707406Y-92690332D01*
X172712788Y-92682474D01*
X172758088Y-92579879D01*
X172758089Y-92579875D01*
X172760999Y-92554794D01*
X172761000Y-92554788D01*
X172761000Y-92410000D01*
X171461001Y-92410000D01*
X171461001Y-92554785D01*
X171461002Y-92554808D01*
X171463908Y-92579869D01*
X171463909Y-92579873D01*
X171509212Y-92682477D01*
X171514593Y-92690332D01*
X171536240Y-92756764D01*
X171526856Y-92807861D01*
X171525033Y-92812261D01*
X171510500Y-92885323D01*
X171510500Y-93466811D01*
X171490815Y-93533850D01*
X171474181Y-93554492D01*
X170457492Y-94571181D01*
X170396169Y-94604666D01*
X170369811Y-94607500D01*
X169906320Y-94607500D01*
X169904643Y-94607665D01*
X169903773Y-94607500D01*
X169900234Y-94607500D01*
X169900234Y-94606828D01*
X169835998Y-94594640D01*
X169785292Y-94546570D01*
X169768500Y-94484261D01*
X169768500Y-93983738D01*
X169788185Y-93916699D01*
X169840989Y-93870944D01*
X169900234Y-93861073D01*
X169900234Y-93860500D01*
X169903674Y-93860500D01*
X169904658Y-93860336D01*
X169906323Y-93860500D01*
X169906326Y-93860500D01*
X170655676Y-93860500D01*
X170655677Y-93860499D01*
X170728740Y-93845966D01*
X170811601Y-93790601D01*
X170866966Y-93707740D01*
X170881500Y-93634674D01*
X170881500Y-92885326D01*
X170881500Y-92885323D01*
X170881499Y-92885321D01*
X170866967Y-92812264D01*
X170866967Y-92812262D01*
X170866966Y-92812260D01*
X170844667Y-92778887D01*
X170823791Y-92712214D01*
X170842275Y-92644834D01*
X170844628Y-92641170D01*
X170866966Y-92607740D01*
X170881500Y-92534674D01*
X170881500Y-92071188D01*
X170901185Y-92004149D01*
X170917819Y-91983507D01*
X171084041Y-91817285D01*
X171251729Y-91649596D01*
X171313050Y-91616113D01*
X171382741Y-91621097D01*
X171438675Y-91662968D01*
X171463092Y-91728433D01*
X171462582Y-91751570D01*
X171461000Y-91765202D01*
X171461000Y-91910000D01*
X171861000Y-91910000D01*
X172361000Y-91910000D01*
X172760999Y-91910000D01*
X172760999Y-91765214D01*
X172760997Y-91765191D01*
X172758091Y-91740130D01*
X172758090Y-91740126D01*
X172712788Y-91637525D01*
X172712785Y-91637520D01*
X172633479Y-91558214D01*
X172633474Y-91558211D01*
X172530876Y-91512910D01*
X172505794Y-91510000D01*
X172361000Y-91510000D01*
X172361000Y-91910000D01*
X171861000Y-91910000D01*
X171861000Y-91510000D01*
X171716214Y-91510000D01*
X171716195Y-91510002D01*
X171702559Y-91511583D01*
X171633698Y-91499750D01*
X171582167Y-91452566D01*
X171564325Y-91385013D01*
X171585838Y-91318537D01*
X171600593Y-91300732D01*
X172052507Y-90848819D01*
X172113830Y-90815334D01*
X172140188Y-90812500D01*
X172485676Y-90812500D01*
X172485677Y-90812499D01*
X172558740Y-90797966D01*
X172641601Y-90742601D01*
X172696966Y-90659740D01*
X172707500Y-90606785D01*
X198587001Y-90606785D01*
X198587002Y-90606808D01*
X198589908Y-90631869D01*
X198589909Y-90631873D01*
X198635211Y-90734474D01*
X198635214Y-90734479D01*
X198714520Y-90813785D01*
X198714525Y-90813788D01*
X198817123Y-90859089D01*
X198842206Y-90861999D01*
X198986999Y-90861999D01*
X198987000Y-90861998D01*
X198987000Y-90462000D01*
X198587001Y-90462000D01*
X198587001Y-90606785D01*
X172707500Y-90606785D01*
X172711500Y-90586674D01*
X172711500Y-89837326D01*
X172711500Y-89837323D01*
X172697526Y-89767075D01*
X172696966Y-89764260D01*
X172696963Y-89764256D01*
X172695146Y-89759867D01*
X172687674Y-89690398D01*
X172707406Y-89642332D01*
X172712788Y-89634474D01*
X172758088Y-89531879D01*
X172758089Y-89531875D01*
X172760999Y-89506794D01*
X172761000Y-89506791D01*
X172761000Y-89362000D01*
X171461001Y-89362000D01*
X171461001Y-89506785D01*
X171461002Y-89506808D01*
X171463908Y-89531869D01*
X171463909Y-89531873D01*
X171509212Y-89634477D01*
X171514593Y-89642332D01*
X171536240Y-89708764D01*
X171526856Y-89759861D01*
X171525033Y-89764261D01*
X171510500Y-89837323D01*
X171510500Y-90418811D01*
X171490815Y-90485850D01*
X171474181Y-90506492D01*
X170457492Y-91523181D01*
X170396169Y-91556666D01*
X170369811Y-91559500D01*
X169906320Y-91559500D01*
X169904643Y-91559665D01*
X169903773Y-91559500D01*
X169900234Y-91559500D01*
X169900234Y-91558828D01*
X169835998Y-91546640D01*
X169785292Y-91498570D01*
X169768500Y-91436261D01*
X169768500Y-90935738D01*
X169788185Y-90868699D01*
X169840989Y-90822944D01*
X169900234Y-90813073D01*
X169900234Y-90812500D01*
X169903674Y-90812500D01*
X169904658Y-90812336D01*
X169906323Y-90812500D01*
X169906326Y-90812500D01*
X170655676Y-90812500D01*
X170655677Y-90812499D01*
X170728740Y-90797966D01*
X170811601Y-90742601D01*
X170866966Y-90659740D01*
X170881500Y-90586674D01*
X170881500Y-89837326D01*
X170881500Y-89837323D01*
X170881499Y-89837321D01*
X170866967Y-89764264D01*
X170866967Y-89764262D01*
X170866966Y-89764260D01*
X170844667Y-89730887D01*
X170823791Y-89664214D01*
X170842275Y-89596834D01*
X170844628Y-89593170D01*
X170866966Y-89559740D01*
X170881500Y-89486674D01*
X170881500Y-89023188D01*
X170901185Y-88956149D01*
X170917819Y-88935507D01*
X171067791Y-88785535D01*
X171251729Y-88601596D01*
X171313050Y-88568113D01*
X171382741Y-88573097D01*
X171438675Y-88614968D01*
X171463092Y-88680433D01*
X171462582Y-88703570D01*
X171461000Y-88717202D01*
X171461000Y-88862000D01*
X171861000Y-88862000D01*
X172361000Y-88862000D01*
X172760999Y-88862000D01*
X172760999Y-88717214D01*
X172760997Y-88717191D01*
X172758091Y-88692130D01*
X172758090Y-88692126D01*
X172712788Y-88589525D01*
X172712785Y-88589520D01*
X172633479Y-88510214D01*
X172633474Y-88510211D01*
X172530876Y-88464910D01*
X172505794Y-88462000D01*
X172361000Y-88462000D01*
X172361000Y-88862000D01*
X171861000Y-88862000D01*
X171861000Y-88462000D01*
X171716214Y-88462000D01*
X171716195Y-88462002D01*
X171702559Y-88463583D01*
X171633698Y-88451750D01*
X171582167Y-88404566D01*
X171564325Y-88337013D01*
X171585838Y-88270537D01*
X171600593Y-88252732D01*
X172052507Y-87800819D01*
X172113830Y-87767334D01*
X172140188Y-87764500D01*
X172485676Y-87764500D01*
X172485677Y-87764499D01*
X172558740Y-87749966D01*
X172641601Y-87694601D01*
X172696966Y-87611740D01*
X172707500Y-87558785D01*
X198587001Y-87558785D01*
X198587002Y-87558808D01*
X198589908Y-87583869D01*
X198589909Y-87583873D01*
X198635211Y-87686474D01*
X198635214Y-87686479D01*
X198714520Y-87765785D01*
X198714525Y-87765788D01*
X198817123Y-87811089D01*
X198842206Y-87813999D01*
X198986999Y-87813999D01*
X198987000Y-87813998D01*
X198987000Y-87414000D01*
X198587001Y-87414000D01*
X198587001Y-87558785D01*
X172707500Y-87558785D01*
X172711500Y-87538674D01*
X172711500Y-86789326D01*
X172711500Y-86789323D01*
X172702508Y-86744122D01*
X172696966Y-86716260D01*
X172696963Y-86716256D01*
X172695146Y-86711867D01*
X172687674Y-86642398D01*
X172707406Y-86594332D01*
X172712788Y-86586474D01*
X172758088Y-86483879D01*
X172758089Y-86483875D01*
X172760999Y-86458794D01*
X172761000Y-86458791D01*
X172761000Y-86314000D01*
X171461001Y-86314000D01*
X171461001Y-86458785D01*
X171461002Y-86458808D01*
X171463908Y-86483869D01*
X171463909Y-86483873D01*
X171509212Y-86586477D01*
X171514593Y-86594332D01*
X171536240Y-86660764D01*
X171526856Y-86711861D01*
X171525033Y-86716261D01*
X171510500Y-86789323D01*
X171510500Y-87370811D01*
X171490815Y-87437850D01*
X171474181Y-87458492D01*
X170457492Y-88475181D01*
X170396169Y-88508666D01*
X170369811Y-88511500D01*
X169906320Y-88511500D01*
X169904643Y-88511665D01*
X169903773Y-88511500D01*
X169900234Y-88511500D01*
X169900234Y-88510828D01*
X169835998Y-88498640D01*
X169785292Y-88450570D01*
X169768500Y-88388261D01*
X169768500Y-87887738D01*
X169788185Y-87820699D01*
X169840989Y-87774944D01*
X169900234Y-87765073D01*
X169900234Y-87764500D01*
X169903674Y-87764500D01*
X169904658Y-87764336D01*
X169906323Y-87764500D01*
X169906326Y-87764500D01*
X170655676Y-87764500D01*
X170655677Y-87764499D01*
X170728740Y-87749966D01*
X170811601Y-87694601D01*
X170866966Y-87611740D01*
X170881500Y-87538674D01*
X170881500Y-86789326D01*
X170881500Y-86789323D01*
X170881499Y-86789321D01*
X170866967Y-86716264D01*
X170866967Y-86716262D01*
X170866966Y-86716260D01*
X170844667Y-86682887D01*
X170823791Y-86616214D01*
X170842275Y-86548834D01*
X170844628Y-86545170D01*
X170866966Y-86511740D01*
X170881500Y-86438674D01*
X170881500Y-85975188D01*
X170901185Y-85908149D01*
X170917819Y-85887507D01*
X171083326Y-85722000D01*
X171251729Y-85553596D01*
X171313050Y-85520113D01*
X171382741Y-85525097D01*
X171438675Y-85566968D01*
X171463092Y-85632433D01*
X171462582Y-85655570D01*
X171461000Y-85669202D01*
X171461000Y-85814000D01*
X171861000Y-85814000D01*
X172361000Y-85814000D01*
X172760999Y-85814000D01*
X172760999Y-85669214D01*
X172760997Y-85669191D01*
X172758091Y-85644130D01*
X172758090Y-85644126D01*
X172712788Y-85541525D01*
X172712785Y-85541520D01*
X172633479Y-85462214D01*
X172633474Y-85462211D01*
X172530876Y-85416910D01*
X172505794Y-85414000D01*
X172361000Y-85414000D01*
X172361000Y-85814000D01*
X171861000Y-85814000D01*
X171861000Y-85414000D01*
X171716214Y-85414000D01*
X171716195Y-85414002D01*
X171702559Y-85415583D01*
X171633698Y-85403750D01*
X171582167Y-85356566D01*
X171564325Y-85289013D01*
X171585838Y-85222537D01*
X171600593Y-85204732D01*
X172052507Y-84752819D01*
X172113830Y-84719334D01*
X172140188Y-84716500D01*
X172485676Y-84716500D01*
X172485677Y-84716499D01*
X172558740Y-84701966D01*
X172641601Y-84646601D01*
X172696966Y-84563740D01*
X172707500Y-84510785D01*
X198587001Y-84510785D01*
X198587002Y-84510808D01*
X198589908Y-84535869D01*
X198589909Y-84535873D01*
X198635211Y-84638474D01*
X198635214Y-84638479D01*
X198714520Y-84717785D01*
X198714525Y-84717788D01*
X198817123Y-84763089D01*
X198842206Y-84765999D01*
X198986999Y-84765999D01*
X198987000Y-84765998D01*
X198987000Y-84366000D01*
X198587001Y-84366000D01*
X198587001Y-84510785D01*
X172707500Y-84510785D01*
X172711500Y-84490674D01*
X172711500Y-83741326D01*
X172711500Y-83741323D01*
X172699207Y-83679526D01*
X172696966Y-83668260D01*
X172696963Y-83668256D01*
X172695146Y-83663867D01*
X172687674Y-83594398D01*
X172707406Y-83546332D01*
X172712788Y-83538474D01*
X172758088Y-83435879D01*
X172758089Y-83435875D01*
X172760999Y-83410794D01*
X172761000Y-83410791D01*
X172761000Y-83266000D01*
X171461001Y-83266000D01*
X171461001Y-83410785D01*
X171461002Y-83410808D01*
X171463908Y-83435869D01*
X171463909Y-83435873D01*
X171509212Y-83538477D01*
X171514593Y-83546332D01*
X171536240Y-83612764D01*
X171526856Y-83663861D01*
X171525033Y-83668261D01*
X171510500Y-83741323D01*
X171510500Y-84322811D01*
X171490815Y-84389850D01*
X171474181Y-84410492D01*
X170457492Y-85427181D01*
X170396169Y-85460666D01*
X170369811Y-85463500D01*
X169906320Y-85463500D01*
X169904643Y-85463665D01*
X169903773Y-85463500D01*
X169900234Y-85463500D01*
X169900234Y-85462828D01*
X169835998Y-85450640D01*
X169785292Y-85402570D01*
X169768500Y-85340261D01*
X169768500Y-84839738D01*
X169788185Y-84772699D01*
X169840989Y-84726944D01*
X169900234Y-84717073D01*
X169900234Y-84716500D01*
X169903674Y-84716500D01*
X169904658Y-84716336D01*
X169906323Y-84716500D01*
X169906326Y-84716500D01*
X170655676Y-84716500D01*
X170655677Y-84716499D01*
X170728740Y-84701966D01*
X170811601Y-84646601D01*
X170866966Y-84563740D01*
X170881500Y-84490674D01*
X170881500Y-83741326D01*
X170881500Y-83741323D01*
X170881499Y-83741321D01*
X170866967Y-83668264D01*
X170866967Y-83668262D01*
X170866966Y-83668260D01*
X170844667Y-83634887D01*
X170823791Y-83568214D01*
X170842275Y-83500834D01*
X170844628Y-83497170D01*
X170866966Y-83463740D01*
X170881500Y-83390674D01*
X170881500Y-82927188D01*
X170901185Y-82860149D01*
X170917819Y-82839507D01*
X171072565Y-82684761D01*
X171251729Y-82505596D01*
X171313050Y-82472113D01*
X171382741Y-82477097D01*
X171438675Y-82518968D01*
X171463092Y-82584433D01*
X171462582Y-82607570D01*
X171461000Y-82621202D01*
X171461000Y-82766000D01*
X171861000Y-82766000D01*
X172361000Y-82766000D01*
X172760999Y-82766000D01*
X172760999Y-82621214D01*
X172760997Y-82621191D01*
X172758091Y-82596130D01*
X172758090Y-82596126D01*
X172712788Y-82493525D01*
X172712785Y-82493520D01*
X172633479Y-82414214D01*
X172633474Y-82414211D01*
X172530876Y-82368910D01*
X172505794Y-82366000D01*
X172361000Y-82366000D01*
X172361000Y-82766000D01*
X171861000Y-82766000D01*
X171861000Y-82366000D01*
X171716214Y-82366000D01*
X171716195Y-82366002D01*
X171702559Y-82367583D01*
X171633698Y-82355750D01*
X171582167Y-82308566D01*
X171564325Y-82241013D01*
X171585838Y-82174537D01*
X171600593Y-82156732D01*
X172052507Y-81704819D01*
X172113830Y-81671334D01*
X172140188Y-81668500D01*
X172485676Y-81668500D01*
X172485677Y-81668499D01*
X172558740Y-81653966D01*
X172641601Y-81598601D01*
X172696966Y-81515740D01*
X172707500Y-81462785D01*
X198587001Y-81462785D01*
X198587002Y-81462808D01*
X198589908Y-81487869D01*
X198589909Y-81487873D01*
X198635211Y-81590474D01*
X198635214Y-81590479D01*
X198714520Y-81669785D01*
X198714525Y-81669788D01*
X198817123Y-81715089D01*
X198842206Y-81717999D01*
X198986999Y-81717999D01*
X198987000Y-81717998D01*
X198987000Y-81318000D01*
X198587001Y-81318000D01*
X198587001Y-81462785D01*
X172707500Y-81462785D01*
X172711500Y-81442674D01*
X172711500Y-80693326D01*
X172711500Y-80693323D01*
X172700043Y-80635731D01*
X172696966Y-80620260D01*
X172696963Y-80620256D01*
X172695146Y-80615867D01*
X172687674Y-80546398D01*
X172707406Y-80498332D01*
X172712788Y-80490474D01*
X172758088Y-80387879D01*
X172758089Y-80387875D01*
X172760999Y-80362794D01*
X172761000Y-80362791D01*
X172761000Y-80218000D01*
X171461001Y-80218000D01*
X171461001Y-80362785D01*
X171461002Y-80362808D01*
X171463908Y-80387869D01*
X171463909Y-80387873D01*
X171509212Y-80490477D01*
X171514593Y-80498332D01*
X171536240Y-80564764D01*
X171526856Y-80615861D01*
X171525033Y-80620261D01*
X171510500Y-80693323D01*
X171510500Y-81274811D01*
X171490815Y-81341850D01*
X171474181Y-81362492D01*
X170457492Y-82379181D01*
X170396169Y-82412666D01*
X170369811Y-82415500D01*
X169906320Y-82415500D01*
X169904643Y-82415665D01*
X169903773Y-82415500D01*
X169900234Y-82415500D01*
X169900234Y-82414828D01*
X169835998Y-82402640D01*
X169785292Y-82354570D01*
X169768500Y-82292261D01*
X169768500Y-81791738D01*
X169788185Y-81724699D01*
X169840989Y-81678944D01*
X169900234Y-81669073D01*
X169900234Y-81668500D01*
X169903674Y-81668500D01*
X169904658Y-81668336D01*
X169906323Y-81668500D01*
X169906326Y-81668500D01*
X170655676Y-81668500D01*
X170655677Y-81668499D01*
X170728740Y-81653966D01*
X170811601Y-81598601D01*
X170866966Y-81515740D01*
X170881500Y-81442674D01*
X170881500Y-80693326D01*
X170881500Y-80693323D01*
X170881499Y-80693321D01*
X170866967Y-80620264D01*
X170866967Y-80620262D01*
X170866966Y-80620260D01*
X170844667Y-80586887D01*
X170823791Y-80520214D01*
X170842275Y-80452834D01*
X170844628Y-80449170D01*
X170866966Y-80415740D01*
X170881500Y-80342674D01*
X170881500Y-79646700D01*
X170901185Y-79579661D01*
X170953989Y-79533906D01*
X171005500Y-79522700D01*
X171337000Y-79522700D01*
X171404039Y-79542385D01*
X171449794Y-79595189D01*
X171461000Y-79646700D01*
X171461000Y-79718000D01*
X172760999Y-79718000D01*
X172760999Y-79646700D01*
X172780684Y-79579661D01*
X172833488Y-79533906D01*
X172884999Y-79522700D01*
X197705651Y-79522700D01*
X197705653Y-79522700D01*
X197788439Y-79500518D01*
X197862662Y-79457665D01*
X198328326Y-78992000D01*
X201781578Y-78992000D01*
X201813265Y-79082557D01*
X201813266Y-79082559D01*
X201891134Y-79188065D01*
X201996638Y-79265931D01*
X202120419Y-79309244D01*
X202137199Y-79310817D01*
X202637200Y-79310817D01*
X202653980Y-79309244D01*
X202777761Y-79265931D01*
X202883265Y-79188065D01*
X202961133Y-79082559D01*
X202961134Y-79082557D01*
X202992821Y-78992000D01*
X202637200Y-78992000D01*
X202637200Y-79310817D01*
X202137199Y-79310817D01*
X202137200Y-79310816D01*
X202137200Y-78992000D01*
X201781578Y-78992000D01*
X198328326Y-78992000D01*
X198652241Y-78668085D01*
X198713562Y-78634602D01*
X198783254Y-78639586D01*
X198794381Y-78644368D01*
X198902488Y-78697219D01*
X198902489Y-78697219D01*
X198902491Y-78697220D01*
X198973051Y-78707500D01*
X199416948Y-78707499D01*
X199416950Y-78707499D01*
X199445172Y-78703387D01*
X199487509Y-78697220D01*
X199596347Y-78644012D01*
X199682012Y-78558347D01*
X199735220Y-78449509D01*
X199745500Y-78378949D01*
X199745499Y-78085052D01*
X199735220Y-78014491D01*
X199682012Y-77905653D01*
X199682010Y-77905651D01*
X199682010Y-77905650D01*
X199596348Y-77819988D01*
X199487511Y-77766780D01*
X199469869Y-77764210D01*
X199416949Y-77756500D01*
X199416943Y-77756500D01*
X198973049Y-77756500D01*
X198902493Y-77766779D01*
X198793650Y-77819989D01*
X198743461Y-77870180D01*
X198682138Y-77903666D01*
X198655779Y-77906500D01*
X198585147Y-77906500D01*
X198502359Y-77928682D01*
X198428138Y-77971535D01*
X198428135Y-77971537D01*
X197564292Y-78835381D01*
X197502969Y-78868866D01*
X197476611Y-78871700D01*
X195891186Y-78871700D01*
X195824147Y-78852015D01*
X195778392Y-78799211D01*
X195768448Y-78730053D01*
X195797473Y-78666497D01*
X195803505Y-78660019D01*
X195847986Y-78615538D01*
X195893509Y-78570015D01*
X195965984Y-78444485D01*
X196003500Y-78304475D01*
X196003500Y-78159525D01*
X195965984Y-78019515D01*
X195963083Y-78014491D01*
X195893511Y-77893988D01*
X195893506Y-77893982D01*
X195791017Y-77791493D01*
X195791011Y-77791488D01*
X195665488Y-77719017D01*
X195665489Y-77719017D01*
X195654676Y-77716119D01*
X195587404Y-77698094D01*
X195527746Y-77661729D01*
X195497217Y-77598882D01*
X195495500Y-77578320D01*
X195495500Y-77524527D01*
X195495500Y-77524525D01*
X195457984Y-77384515D01*
X195448041Y-77367294D01*
X195385511Y-77258988D01*
X195385506Y-77258982D01*
X195283017Y-77156493D01*
X195283011Y-77156488D01*
X195157488Y-77084017D01*
X195157489Y-77084017D01*
X195146006Y-77080940D01*
X195017475Y-77046500D01*
X194872525Y-77046500D01*
X194743993Y-77080940D01*
X194732511Y-77084017D01*
X194606988Y-77156488D01*
X194606982Y-77156493D01*
X194504493Y-77258982D01*
X194504488Y-77258988D01*
X194432017Y-77384511D01*
X194432017Y-77384512D01*
X194432016Y-77384514D01*
X194432016Y-77384515D01*
X194418864Y-77433594D01*
X194382501Y-77493254D01*
X194319654Y-77523783D01*
X194299091Y-77525500D01*
X160485147Y-77525500D01*
X160402359Y-77547682D01*
X160328138Y-77590535D01*
X160328135Y-77590537D01*
X158766937Y-79151735D01*
X158766933Y-79151741D01*
X158724081Y-79225961D01*
X158724082Y-79225962D01*
X158701900Y-79308747D01*
X158701900Y-80866759D01*
X158682215Y-80933798D01*
X158665581Y-80954440D01*
X158574323Y-81045697D01*
X158574321Y-81045700D01*
X158517819Y-81161278D01*
X158517818Y-81161280D01*
X158517818Y-81161282D01*
X158506900Y-81236218D01*
X158506900Y-81236223D01*
X158506900Y-81472035D01*
X158490287Y-81534036D01*
X158458158Y-81589685D01*
X158446682Y-81609561D01*
X158433794Y-81657661D01*
X158433794Y-81657662D01*
X158433793Y-81657661D01*
X158424500Y-81692345D01*
X158424500Y-81930856D01*
X158404815Y-81997895D01*
X158388181Y-82018537D01*
X158360803Y-82045914D01*
X158309426Y-82151008D01*
X158299500Y-82219139D01*
X158299500Y-82545660D01*
X158309426Y-82613792D01*
X158309426Y-82613793D01*
X158326120Y-82647941D01*
X158337878Y-82716814D01*
X158326120Y-82756859D01*
X158309426Y-82791006D01*
X158309426Y-82791007D01*
X158299500Y-82859139D01*
X158299500Y-83185660D01*
X158309426Y-83253791D01*
X158360803Y-83358885D01*
X158380259Y-83378341D01*
X158413744Y-83439664D01*
X158408760Y-83509356D01*
X158380259Y-83553703D01*
X158309174Y-83624787D01*
X158309172Y-83624789D01*
X158254135Y-83737371D01*
X158254134Y-83737373D01*
X158254134Y-83737375D01*
X158243500Y-83810364D01*
X158243500Y-85131636D01*
X158254134Y-85204625D01*
X158254134Y-85204626D01*
X158255523Y-85214155D01*
X158252751Y-85214558D01*
X158253516Y-85269333D01*
X158216566Y-85328633D01*
X158153422Y-85358543D01*
X158112433Y-85355611D01*
X158112155Y-85357523D01*
X158102626Y-85356134D01*
X158102625Y-85356134D01*
X158029636Y-85345500D01*
X156708364Y-85345500D01*
X156635375Y-85356134D01*
X156635373Y-85356134D01*
X156635371Y-85356135D01*
X156522789Y-85411172D01*
X156434172Y-85499789D01*
X156379135Y-85612371D01*
X156379134Y-85612373D01*
X156379134Y-85612375D01*
X156368500Y-85685364D01*
X156368500Y-86006636D01*
X156373221Y-86039039D01*
X156379134Y-86079626D01*
X156411338Y-86145500D01*
X156433845Y-86191539D01*
X156433846Y-86191540D01*
X156445605Y-86260413D01*
X156433846Y-86300459D01*
X156432098Y-86304034D01*
X156379134Y-86412373D01*
X156379134Y-86412375D01*
X156368500Y-86485364D01*
X156368500Y-86806636D01*
X156377614Y-86869198D01*
X156379134Y-86879626D01*
X156395939Y-86914000D01*
X156433845Y-86991539D01*
X156433846Y-86991540D01*
X156445605Y-87060413D01*
X156433846Y-87100459D01*
X156432098Y-87104034D01*
X156379134Y-87212373D01*
X156379134Y-87212375D01*
X156368500Y-87285364D01*
X156368500Y-87606636D01*
X156376425Y-87661028D01*
X156379134Y-87679626D01*
X156422012Y-87767334D01*
X156433845Y-87791539D01*
X156433846Y-87791540D01*
X156445605Y-87860413D01*
X156433846Y-87900459D01*
X156432098Y-87904034D01*
X156379134Y-88012373D01*
X156379134Y-88012375D01*
X156368500Y-88085364D01*
X156368500Y-88406636D01*
X156376797Y-88463583D01*
X156379134Y-88479626D01*
X156433846Y-88591540D01*
X156445605Y-88660413D01*
X156433846Y-88700460D01*
X156379134Y-88812373D01*
X156378386Y-88817507D01*
X156368500Y-88885364D01*
X156368500Y-89206636D01*
X156377614Y-89269198D01*
X156379134Y-89279626D01*
X156433846Y-89391540D01*
X156445605Y-89460413D01*
X156433846Y-89500460D01*
X156379134Y-89612373D01*
X156379134Y-89612375D01*
X156368500Y-89685364D01*
X156368500Y-89685369D01*
X156368500Y-89897452D01*
X156348815Y-89964491D01*
X156296011Y-90010246D01*
X156226853Y-90020190D01*
X156207898Y-90015927D01*
X156201722Y-90014019D01*
X156201719Y-90014018D01*
X156201718Y-90014018D01*
X156126782Y-90003100D01*
X155683618Y-90003100D01*
X155608682Y-90014018D01*
X155608680Y-90014018D01*
X155608678Y-90014019D01*
X155493100Y-90070521D01*
X155493097Y-90070523D01*
X155402123Y-90161497D01*
X155402121Y-90161500D01*
X155345619Y-90277078D01*
X155345618Y-90277080D01*
X155345618Y-90277082D01*
X155334700Y-90352018D01*
X155334700Y-90695182D01*
X155345618Y-90770118D01*
X155345618Y-90770119D01*
X155345619Y-90770121D01*
X155402121Y-90885699D01*
X155402123Y-90885702D01*
X155425093Y-90908672D01*
X155458578Y-90969995D01*
X155453594Y-91039687D01*
X155415420Y-91090679D01*
X155415705Y-91090964D01*
X155413726Y-91092942D01*
X155411722Y-91095620D01*
X155411055Y-91096116D01*
X155409137Y-91097531D01*
X155409136Y-91097532D01*
X155331266Y-91203040D01*
X155331265Y-91203042D01*
X155299578Y-91293599D01*
X152954500Y-91293599D01*
X152954500Y-77728875D01*
X152954882Y-77719147D01*
X152964347Y-77598882D01*
X152968797Y-77542322D01*
X152971839Y-77523118D01*
X153012106Y-77355396D01*
X153018110Y-77336915D01*
X153084123Y-77177549D01*
X153092949Y-77160227D01*
X153183076Y-77013154D01*
X153194495Y-76997436D01*
X153306533Y-76866256D01*
X153320256Y-76852533D01*
X153451436Y-76740495D01*
X153467154Y-76729076D01*
X153614227Y-76638949D01*
X153631549Y-76630123D01*
X153790915Y-76564110D01*
X153809396Y-76558106D01*
X153977118Y-76517839D01*
X153996324Y-76514797D01*
X154147395Y-76502908D01*
X154173147Y-76500882D01*
X154182875Y-76500500D01*
X154225595Y-76500500D01*
X217376405Y-76500500D01*
X217419125Y-76500500D01*
X217428853Y-76500882D01*
G37*
%TD.AperFunction*%
%TD*%
M02*
